/* XPM */
static char *F[] = {
/* columns rows colors chars-per-pixel */
"48 48 128 2 ",
"   c #2D242F",
".  c #2F2531",
"X  c #302732",
"o  c #342935",
"O  c #3A2C37",
"+  c #362C3A",
"@  c #3A2E3A",
"#  c #3B303E",
"$  c #41313B",
"%  c #48363D",
"&  c #3D3445",
"*  c #3F3648",
"=  c #463644",
"-  c #483746",
";  c #473845",
":  c #4B3944",
">  c #4C3B4A",
",  c #513E4D",
"<  c #564047",
"1  c #584147",
"2  c #56414C",
"3  c #5A4249",
"4  c #564253",
"5  c #594355",
"6  c #5E4759",
"7  c #5F4859",
"8  c #64494E",
"9  c #644951",
"0  c #6A4E53",
"q  c #644C5F",
"w  c #664D5F",
"e  c #634B5B",
"r  c #684D59",
"t  c #6A5057",
"y  c #6F5154",
"u  c #6F545C",
"i  c #765659",
"p  c #73545E",
"a  c #75575E",
"s  c #75565A",
"d  c #78585C",
"f  c #664D60",
"g  c #664D61",
"h  c #674E61",
"j  c #674E62",
"k  c #674E62",
"l  c #684E61",
"z  c #6A4F60",
"x  c #684E62",
"c  c #684F62",
"v  c #694F62",
"b  c #684F63",
"n  c #694F63",
"m  c #6A4F62",
"M  c #6A4F63",
"N  c #694F62",
"B  c #6A5063",
"V  c #6B5063",
"C  c #6B5163",
"Z  c #6C5163",
"A  c #6D5163",
"S  c #6D5263",
"D  c #6A5064",
"F  c #6B5064",
"G  c #6B5164",
"H  c #6D5264",
"J  c #6F5365",
"K  c #6D5163",
"L  c #715464",
"P  c #725564",
"I  c #755664",
"U  c #755764",
"Y  c #755765",
"T  c #745666",
"R  c #725564",
"E  c #7B5A63",
"W  c #7C5C61",
"Q  c #7E5C60",
"!  c #7F5C60",
"~  c #7F5C61",
"^  c #7A5A64",
"/  c #785966",
"(  c #7B5B66",
")  c #7C5B66",
"_  c #7F5D67",
"`  c #7F5E66",
"'  c #7E5C63",
"]  c #7E5D68",
"[  c #7F5D68",
"{  c #7F5D68",
"}  c #815D5F",
"|  c #825E62",
" . c #825E63",
".. c #825F63",
"X. c #815E62",
"o. c #815F68",
"O. c #815F6A",
"+. c #825F68",
"@. c #856062",
"#. c #866162",
"$. c #856062",
"%. c #886263",
"&. c #896364",
"*. c #8E6667",
"=. c #896365",
"-. c #836069",
";. c #846169",
":. c #86626A",
">. c #86626B",
",. c #84616A",
"<. c #8F676B",
"1. c #8F686B",
"2. c #926968",
"3. c #90686B",
"4. c #91696B",
"5. c #946B6B",
"6. c #90686C",
"7. c #92696C",
"8. c #926A6C",
"9. c #926A6D",
"0. c #936A6D",
"q. c #936A6E",
"w. c #976D6D",
"e. c #956C6E",
"r. c #936A6C",
"t. c #986D6D",
"y. c #9A6F6E",
"u. c #9C706F",
/* pixels */
"                                                                                                ",
"+ o     o + + + + + + + + + + + o     o + + + + + + + .   . + + + + + + + + + .                 ",
"& +   X + & & & & & & & & & & & +   X + & & & & & & # X . o & & & & & & & & & o X X X .         ",
"& + X # & & & & & o + & & & & & + X # & & & & & o X X . + & & & & & & & & & & & & & & +         ",
"& + X & & & & & & + & & & & & & + X & * & & & & + + + . + & & & & & & & & & & & * & + + + .     ",
"& + X & & & & & & & & & & & & & + X # & & & & & & & & X + & & & & & & & & & & & & # o + & X     ",
"& + X & & & & + X X + & & & & & +   X + & & & & & & & X + & & & & o X o & & & & + o # & & X     ",
"& + . + & & & & + + & & & & & + + + + & & & & & & & & X + & & & & + X . + & & + + + & & & + o   ",
"& +   X + & & & & & & & & & & X + & & & & & & & & & & X + & & & & & + X   + # o + & & & & & +   ",
"& + X # & & & & & & & & & & & X + & & & & o X X X + & X + & & & & & & # X . o & & & & & & & +   ",
"& + . + & & & & & & & & & & + . X + & & & + + + + & & X + & & & & & * & X X + & & & & & & & +   ",
"& +     + & & & & & & & & +       X + & & & & & & & + X + & & & & & & & o + & & & & & & & & +   ",
"X .     . X X X X X X X X .       . X X X X X X X X X . . o & & & & + o & & & & & & & & & & +   ",
"8 %       X 1 8 8 8 8 8 8 8 3 o   o 3 8 8 8 8 8 8 8 3 o % 9 t > o + + + & & & & & & & & & & +   ",
"3.0 # # O : | 7.1.1.1.<.1.7.| : X @ Q 7.1.1.1.3.1.7.Q @ 3 7.w.0 @ X + & & & & & & & & & & & +   ",
"L E @.@.@.| I L L L L L L L U | 1 O e U L L L L L U e O : / 3.3.d ; & & & & & & & & & + o & +   ",
"j U -.-.>.[ A j j j j j j j A O.2 o 7 F j j j j j M e , 4 C / 3.5.a 2 & & & & + & & & + X & +   ",
"M M M M M M M M M M M M M M j e - # 5 w M M M M M M M M M M M ) 3.3.u > = & & X + & & + X & +   ",
"M M M M M M M M M M M M M F e # > 5 # , M M M M M M M M M M M A L L ' Q > & & X + & & + X & +   ",
"F F F F F C M C F F F F M C e > 6 e o O , w F M M M M M M M M 5 - - 2 3 + o o . + & & & + & +   ",
"6 6 7 7 7 e M w 7 7 6 e M M M M w 4 o   o 4 w M M M M M M M M , O o o O @ $ @ X + & & & & & +   ",
"o o O O o $ e , o o o $ e F M C , o .   . o , M M M M M M M M q 6 7 6 e Q %.i @   X X + & & +   ",
"- O       X = @       X = > > > @           @ > > > , q C M M C C F C H [ 7.%.$ . + + + + + o   ",
"C , O o X                                           o 7 F M M M M M M M M -.@.# o & & + X X .   ",
"C w 7 7 =                                           o 6 C M M M M M M M M -.@.# o & & & & & +   ",
"- 5 F F e 8 8 %                                     o 6 C M M M M M M M M O.*.0 : + & & * & +   ",
"o > M M ) 3.3.9 o .   X O $ @ O o O O O O O O O @ O $ e F M M M M M M M M ' w.w.8 X & & & & +   ",
"6 e M M A L L M 4 o   O i &.Q e 6 7 7 7 7 7 6 e Q p e j M M M M M M M M M ' w.w.8 X & + o & +   ",
"F C M F M j j F 7 O O 2 / >.[ H F F F F F C M U w.>.w , > 4 q M M M M j j ' y.y.8 X & + X & +   ",
"M M j e q M M H e O - M M M M M M M M M M M j A | ' e O O 4 C H M M A L L >.5.&.1 X & + o & +   ",
"M F e $ > M M [ Q @ - M M M M M M M M M M M C e = 0 Q @ 2 =.<.) M M ) <.<.w.&.: X X & & & & +   ",
"-.r > - 4 A [ q.%.$ , -.-.>.[ A j j j M H [ >.p O 8 &.$ $ y 3.7.O.O.<.u.u.} 3 X . + & & * & +   ",
"@.1 O e L U | &.i O < @.@.@.| U L L L w e Q &.i O 3 i @   O i =.&.=.=.@.@.3     + & & & & & +   ",
"# X @ Q w.| : @ O X o $ $ O : | 7.3.3.9 O @ $ @ X o @ X   X O = > > = # $ o     + & & + o & +   ",
"o . o 3 8 3 + o o . X o o o + 3 8 8 8 : o o .   + + o .   . o + & & + o o + + . + & & # + & +   ",
"& + X X X o & & & X + & & & & o X X X + & & + X & = & o   X & & & & & & & & & o + & & & & & +   ",
"& & & & & & & & & X + & & & & & & & & & & & + X & & & & o X & & & & & & & & & & + o & & & & +   ",
"+ & & & & & & & + . + & & & & & & & & & & & + . + & & & + X & & & & & & & & & & + X & & & & +   ",
"X + & & & & & + . X + & & & & & & & & & & & + X   + & & + X & & & & & & & & & & + o & & & & +   ",
"& & & & & & & + X # & & & & & & & & & & & & & # X + & & + X & & & & + X X + & & & # o + & & +   ",
"& & & & & & & + X & & & & & & & & & & & & & & & X + & & + X & & + + X   + & & & * & X + & + o   ",
"& & & & & & & + X & & & & & & & & & & & & & & & X + & & + X & + X X X o & & & & & # o + # X     ",
"& & & & & & & + X & & & & + X X X X X + & & & & X   o & + X & & & & & & & & & & + o & + X       ",
"& & & & & & & + X & & & + + + + + + + & & & & & X o + + + + & & & & & & & & & & & + & +         ",
"& & & & & & & + X & * & o + & & & & & & & & & # X + # X + & & & & & & & & & & & & & & +         ",
"X X X X + & & + X & & & & & & & & & & & & & + X   . X   . o & & & & & & & & & & + X X X         ",
"        o + + o . + + + + + + + + + + + + + o             . + + + + + + + + + + o               ",
"                                                                                                "
};
