/* XPM */
static char *i[] = {
/* columns rows colors chars-per-pixel */
"48 48 231 2 ",
"   c #29202B",
".  c #2A212C",
"X  c #2A212D",
"o  c #2B222D",
"O  c #2C222D",
"+  c #2C232D",
"@  c #2C232E",
"#  c #2D232E",
"$  c #2D232F",
"%  c #2D242E",
"&  c #2D242F",
"*  c #2E242F",
"=  c #2D2430",
"-  c #2E2430",
";  c #2F2430",
":  c #2F2530",
">  c #2F2531",
",  c #2F2632",
"<  c #302530",
"1  c #302531",
"2  c #302630",
"3  c #312630",
"4  c #312631",
"5  c #322731",
"6  c #302632",
"7  c #332833",
"8  c #342831",
"9  c #342832",
"0  c #322935",
"q  c #322936",
"w  c #332936",
"e  c #342834",
"r  c #352935",
"t  c #372A34",
"y  c #362A36",
"u  c #372A36",
"i  c #372A37",
"p  c #372B37",
"a  c #382B35",
"s  c #382B37",
"d  c #392C37",
"f  c #3C2E37",
"g  c #3D2E37",
"h  c #322938",
"j  c #322A38",
"k  c #342B3A",
"l  c #352C39",
"z  c #352C3A",
"x  c #362C3A",
"c  c #372E3C",
"v  c #372E3D",
"b  c #372F3F",
"n  c #382B38",
"m  c #392C38",
"M  c #3A2C39",
"N  c #3B2D3B",
"B  c #3D2E38",
"V  c #3C2E39",
"C  c #3F2F38",
"Z  c #3F2F39",
"A  c #3A2F3C",
"S  c #3B2F3C",
"D  c #3F3039",
"F  c #39303F",
"G  c #3C303C",
"H  c #3E323E",
"J  c #403039",
"K  c #40313A",
"L  c #41313A",
"P  c #43323A",
"I  c #40313E",
"U  c #47353D",
"Y  c #48363D",
"T  c #3A3140",
"R  c #3A3142",
"E  c #3A3242",
"W  c #3B3242",
"Q  c #3C3343",
"!  c #3C3344",
"~  c #3D3445",
"^  c #3E3545",
"/  c #3E3546",
"(  c #3E3547",
")  c #3F3647",
"_  c #3F3648",
"`  c #423342",
"'  c #433442",
"]  c #463540",
"[  c #473640",
"{  c #443442",
"}  c #443443",
"|  c #453543",
" . c #473644",
".. c #483746",
"X. c #4A3942",
"o. c #4D3A41",
"O. c #4D3942",
"+. c #493847",
"@. c #4A3847",
"#. c #4A3948",
"$. c #4B3948",
"%. c #4C3A49",
"&. c #4D3A49",
"*. c #4F3B48",
"=. c #4F3C49",
"-. c #4F3C4B",
";. c #503C4A",
":. c #503D4A",
">. c #543F48",
",. c #503D4D",
"<. c #513D4D",
"1. c #513E4D",
"2. c #55404E",
"3. c #594248",
"4. c #5A4248",
"5. c #5B4349",
"6. c #58414B",
"7. c #5B434A",
"8. c #5B444A",
"9. c #5C444A",
"0. c #5C444B",
"q. c #59434C",
"w. c #5A434D",
"e. c #5E454C",
"r. c #5F464C",
"t. c #5F464D",
"y. c #564152",
"u. c #574252",
"i. c #574253",
"p. c #5B4556",
"a. c #5C4557",
"s. c #5C4657",
"d. c #5C4658",
"f. c #5E4758",
"g. c #5E4759",
"h. c #5F4759",
"j. c #5F4859",
"k. c #5F485A",
"l. c #60474D",
"z. c #63484D",
"x. c #64494E",
"c. c #654A4E",
"v. c #664B4F",
"b. c #644951",
"n. c #664B51",
"m. c #684C52",
"M. c #694D52",
"N. c #694D53",
"B. c #60485A",
"V. c #60485B",
"C. c #60495B",
"Z. c #61495B",
"A. c #624A5B",
"S. c #674D58",
"D. c #674D59",
"F. c #664C5B",
"G. c #634A5C",
"H. c #644B5D",
"J. c #644C5E",
"K. c #664D5F",
"L. c #684D59",
"P. c #684E5F",
"I. c #6E5054",
"U. c #765659",
"Y. c #775659",
"T. c #74555B",
"R. c #77565A",
"E. c #72545D",
"W. c #75565D",
"Q. c #74555F",
"!. c #664D60",
"~. c #664D61",
"^. c #674E61",
"/. c #674E62",
"(. c #684E61",
"). c #684E62",
"_. c #684F62",
"`. c #694F62",
"'. c #684F63",
"]. c #694F63",
"[. c #6A4F63",
"{. c #6A5063",
"}. c #6B5063",
"|. c #6C5163",
" X c #6D5263",
".X c #6E5262",
"XX c #6F5363",
"oX c #6A5064",
"OX c #6B5064",
"+X c #6B5164",
"@X c #6C5164",
"#X c #6C5165",
"$X c #6E5264",
"%X c #6F5365",
"&X c #705364",
"*X c #705464",
"=X c #715464",
"-X c #725565",
";X c #715567",
":X c #755764",
">X c #755765",
",X c #765766",
"<X c #7B5A63",
"1X c #7F5C61",
"2X c #7A5A64",
"3X c #785967",
"4X c #7C5B66",
"5X c #7C5B67",
"6X c #7E5C65",
"7X c #7F5D68",
"8X c #7F5E68",
"9X c #805D62",
"0X c #815E62",
"qX c #825E62",
"wX c #805E69",
"eX c #815F6A",
"rX c #856062",
"tX c #856162",
"yX c #886264",
"uX c #896364",
"iX c #836069",
"pX c #84616A",
"aX c #85616A",
"sX c #896469",
"dX c #89646A",
"fX c #8A646A",
"gX c #8F686B",
"hX c #936A69",
"jX c #90686B",
"kX c #936A6D",
"lX c #936B6D",
/* pixels */
"* * * * * * * * * * * * * * * * * * * * * * * * * $.].].].].].].].].iXrXJ j / / / / / / / / x * ",
"* * * * * * * * * * * * * * * * * * * * * * * * * $.].].].].}.+X}.].2XE.d j / / / / / / / v x x ",
"* * * * * * * * * * * * * * * * * * * * * * * * * $.].].].].C.f.C./.+XC.[ H Q / / / / / F q v / ",
"* * * * * * * * * * * * * * * * * * * * * * * * * $.].].+XC.I e I C.].|.qX4.q E / / / v q F / / ",
"* * * * * * * * * * * * * * * * * * * * * * * * * &.@X@Xp.=.0.>.=.H.].=XlXv.6 E / / / x 6 E / / ",
"* * * * * * * * * * * * * * * * * * * * * * * * *  .C.C.` C rXpX].].].&XsXt.6 E / / Q x q Q / / ",
"* * * * * * * * * * * * * * * * * * * * * * * * * 7 n n > D rXpX].].].}.&X&.6 E _ Q q x Q / / / ",
"* * * * * * * * * * * * * * * * * * * * * * * * * O o O U M.<X>X].].].].].L.t.H k x x E / / / / ",
"* * * * * * * * * * * * * * * * * * * * * * * * * * * * l.fX=X/.].].].].].2XT.g o 6 E / / / / / ",
"* * * * * * * * * * * * * * * * * * * * * * * * * * * * :.=X}.].].].].].].2.g 6 O 6 E / / / / / ",
"* * * * * * * * * * * * * * * * * * * * * * * * * * * * N ,.K.+X].].].].+X@.> [ q.8.A v / / / / ",
"* * * * * * * * * * * * * * * * * * * * * * * * * * * * O e u.K.].].|.|.C.' e f.eXqXO.A E E ! / ",
"* * * * * * * * * * * * * * * * * * * * * * * * * * * * * > e ,.].].8XqX[ * e k.@X>XqX8.> > v / ",
"* * * * * * * * * * * * * * * * * * * * * * * * * * * * * O O q.2X2.4.3.6 J b.P.].|.8XT.z.z.X.j ",
"* * * * * * * * * * * * * * * * * * * * * * * * * * * * * * * 0.T.C o 6 g I.jX=X/.].].4XjXjXn.D ",
"* * * * * * * * * * * * * * * * * * * * * * * * * * * * * * * a C 6 o g T.jXgX=X].].].|.=X=X<XrX",
"* * * * * * * * * * * * * * * * * * * * * * * * * * * * * * * O o * O e 0.W.4X|.].].].]././.>XiX",
"* * * * * * * * * * * * * * * * * * * * * * * * * * * * * * * * * * * * O $.].].].].].].].].].].",
"* * * * * * * * * * * * * * * * * * * * * * * * * * * * * * * * * * * * O $.].].].].].].].].].].",
"* * * * * * * * * * * * * * * * * * * * * * * * * * * * * * * * * * * * * 4.4X|.].].].].].].].].",
"* * * * * * * * * * * * * * * * * * * * * * * * * * * * * * * * * * * O O v.jX=X/.].].].].].].].",
"* * * * * * * * * * * * * * * * * * * * * * * * * * * * * * * * * * * O O v.jX=X/.].].].].].].].",
"O O O o O * * * * * * * * * * * * * * * * * * * * * * * * * * * * * * * * U M.6XpXiXiX2XK.,.$.$.",
"n a N D e * O O * * * * * * * * * * * * * * * * * * * * * * * * * * * * * o g T.yXrXrXW.u.e O * ",
"k.f.F.1X4.O O O * * * * * * * * * * * * * * * * * * * * * * * * * * * * * O 6 C J J J C e > O * ",
"+X+X@X8XF.=.t.v.4.9 o * * * * * * * * * * * * * * * * * * * * * * * * * * * * o o o . . . o O * ",
"].].].].].=XfXlXqXO.9 * * * * * * * * * * * * * * * * * * * * * * * * * * * * * O 6 e n N D e * ",
"].].].].].}.=X=X>XqX4.* * * * * * * * * * * * * * * * * * * * * * * * * * * * * O e u.C.F.1X4.O ",
"].].].].].].]./.=XlXv.* O * * * * * * * * * * * * * * * * * * * * * * * O N :.l.U > [ f.=XeXF.$.",
"].].].].].].].].=XfXt.O O * * * * * * * * * * * * * * * * * * * * * O > e ,.=XfXM.D C =.C./.].].",
"].].].].].].].].}.&X=.O * * * * * * * * * * * * * * * * * * * * * * O e u.K.}.&X<XrXrX0.I C.+X].",
"iX>X/./.].].].].].].a...7 O * o O * * * * * * * * * * * * * * O a 0.q.,.K.+X]./.>XpXpX>.e f.+X].",
"rX<X=X=X|.].].].].]./.u.e o 6 C a * * * * * * * * * * * * * * o C T.2X].].].].].].].].=.I C.}.].",
"D n.jXjX4X].].].].].,.e > o C T.0.* * * * * * * * * * * * * * * 6 C 2.].].].].].].].].G.C./.].].",
"j X.z.z.T.8X|.].K.,.n 7 4.4.2.2Xq.O O * * * * * * * * * * * * O o o 4.8X@X].].].].].].].].+X3XiX",
"/ v > > 8.qX>X@Xk.e * [ qXeX].].,.e > * * * * * * * * * * * * 7 e > 4.qX|.].].].].}.&X=X|.C.E.rX",
"/ ! E E A O.qXeXf.e ' C.|.|.].].K.u.e O * * * * * * * * * O O ..u.e 9 [ G.+X].].].&XfXlXqX[ d J ",
"/ / / / v A 8.q.[ > @.+X].].].].+XK.,.N * * * O o Y l.:.$.$.$.a./.,.n * [ @.2.2XL.&.t.v.4.H j j ",
"/ / / / / E 6 O 6 g 2.].].].].].].}.=X:.* * * 6 g M.fX=X].].].].].].,.a e > C T.t.6 > > q Q / / ",
"/ / / / / E 6 o g T.2X].].].].]./.=XfXl.* O o C T.6X&X}.].].].].].].K.k.k.[ 6 g H E E E E / / / ",
"/ / / / E x x k H t.L.].].].].].>X<XM.U O O o J uXpX/.].].].].].].].].@XeXq.O o k _ / / / / / / ",
"/ / / Q x q Q _ E 6 &.&X}.].].].pXrXD > e > o D 1X8X].].].].].].].].|.>XqX8.6 6 x Q / / / / / / ",
"/ / Q q x Q / / E 6 t.sX&X].].].pXrXC [ u.e o N F.@X].].].].].].].].8XqXO.A E E x q Q / / / / / ",
"/ / E 6 x / / / E 6 v.lX=X].H.=.>.0.=.a./.,.N 6 [ p.].].].].].].|.4XT.8.A v / / E x x k v / / / ",
"/ / F q v / / / E q 4.qX|.].C.I e I C.+X].}.,.e * $.].].].].]./.=XjXz.> E / / / / Q q 6 q F / / ",
"/ v q F / / / / / Q H [ C.+X/.C.f.C.].].].].K.u.e @.].].].].]./.=XjXz.> E / / / / / Q E F q v / ",
"x x v / / / / / / / j d E.2X].}.+X}.].].].].@XC.n @.].].].].].>X<Xn.X.v ! / / / / / / / / v x x ",
"* x / / / / / / / / j J rXiX].].].].].].].].+Xk.e @.].].].].].iXrXD j / / / / / / / / / / / x * "
};
