/* XPM */
static char *_[] = {
/* columns rows colors chars-per-pixel */
"64 64 194 2 ",
"   c #2D232E",
".  c #2F2430",
"X  c #312631",
"o  c #342932",
"O  c #392C36",
"+  c #3D2F3B",
"@  c #3F313D",
"#  c #412F3A",
"$  c #43333D",
"%  c #49363F",
"&  c #4B383F",
"*  c #2E3E47",
"=  c #3A3744",
"-  c #313A54",
";  c #433441",
":  c #493740",
">  c #4C3941",
",  c #4B3A48",
"<  c #443945",
"1  c #513D44",
"2  c #513E4C",
"3  c #2F4A4D",
"4  c #2A4349",
"5  c #33494E",
"6  c #38464C",
"7  c #2E4F51",
"8  c #364957",
"9  c #335356",
"0  c #365956",
"q  c #335D5B",
"w  c #355658",
"e  c #38685F",
"r  c #37615D",
"t  c #356665",
"y  c #366B63",
"u  c #3B6C63",
"i  c #376465",
"p  c #3A7567",
"a  c #3C746A",
"s  c #3E7D6E",
"d  c #377165",
"f  c #356C71",
"g  c #3A7572",
"h  c #3B7A74",
"j  c #3B7A7E",
"k  c #45424F",
"l  c #4D4A4C",
"z  c #53414C",
"x  c #5C444C",
"c  c #484F58",
"v  c #424F57",
"b  c #564152",
"n  c #5B4554",
"m  c #5F4954",
"M  c #5F4A5C",
"N  c #534B59",
"B  c #445259",
"V  c #4B555B",
"C  c #4C595D",
"Z  c #475658",
"A  c #55525E",
"S  c #5B515E",
"D  c #535B5C",
"F  c #5B5B5E",
"G  c #575255",
"H  c #60464C",
"J  c #63484E",
"K  c #634A55",
"L  c #6B4F56",
"P  c #634B5C",
"I  c #6C4F58",
"U  c #6D5057",
"Y  c #67565B",
"T  c #725357",
"R  c #75555A",
"E  c #78575D",
"W  c #7B595D",
"Q  c #4C605B",
"!  c #42645F",
"~  c #414263",
"^  c #5B4F60",
"/  c #4A5D61",
"(  c #455E69",
")  c #4A5467",
"_  c #545D63",
"`  c #535966",
"'  c #674E62",
"]  c #694F62",
"[  c #645162",
"{  c #6B5063",
"}  c #615C66",
"|  c #745665",
" . c #775865",
".. c #7A5A64",
"X. c #476865",
"o. c #5C6367",
"O. c #566365",
"+. c #427A6D",
"@. c #417067",
"#. c #4A6A72",
"$. c #4A7572",
"%. c #537C70",
"&. c #805E67",
"*. c #805E67",
"=. c #815E66",
"-. c #825F68",
";. c #815F68",
":. c #856167",
">. c #836068",
",. c #876268",
"<. c #856168",
"1. c #886369",
"2. c #896469",
"3. c #8A6469",
"4. c #8B656A",
"5. c #8C656A",
"6. c #8F686B",
"7. c #976C6C",
"8. c #956B6C",
"9. c #996E6D",
"0. c #3F8479",
"q. c #428473",
"w. c #458976",
"e. c #468C7B",
"r. c #498A78",
"t. c #5C8C79",
"y. c #4C947E",
"u. c #56937D",
"i. c #657183",
"p. c #3F8284",
"a. c #4C9781",
"s. c #4E9D87",
"d. c #4A9A8A",
"f. c #529D84",
"g. c #589885",
"h. c #479099",
"j. c #4C9F92",
"k. c #4FA087",
"l. c #51A186",
"z. c #52A58B",
"x. c #55AB8D",
"c. c #5DAD8E",
"v. c #4FA79D",
"b. c #54AB93",
"n. c #52AB9C",
"m. c #50A696",
"M. c #57B091",
"N. c #5AB493",
"B. c #5CBA96",
"V. c #55B29D",
"C. c #5EBE98",
"Z. c #66A78C",
"A. c #6DAD92",
"S. c #6EBA98",
"D. c #77BA9A",
"F. c #4B9DA1",
"G. c #4FA9AC",
"H. c #4FA7A0",
"J. c #51ADA9",
"K. c #56B6A4",
"L. c #55B6AD",
"P. c #58BEB2",
"I. c #55B8B6",
"U. c #5FC09A",
"Y. c #61C69D",
"T. c #63C99F",
"R. c #7FC09C",
"E. c #5AC3B8",
"W. c #65CCA1",
"Q. c #69CBA1",
"!. c #73CCA5",
"~. c #7CCEA7",
"^. c #6ED1A6",
"/. c #72D5A8",
"(. c #7CD8AC",
"). c #5AC5C0",
"_. c #84C39C",
"`. c #88C7A0",
"'. c #8DD9AD",
"]. c #8BDDB1",
"[. c #83E1B3",
"{. c #8BE6B7",
"}. c #91EABA",
"|. c #96E3B5",
" X c #9BF1BF",
".X c #96F1BF",
"XX c #AAEEB9",
"oX c #A1E8B6",
"OX c #B0EDB8",
"+X c #A8F4BF",
"@X c #9BF4C1",
"#X c #A5F5C0",
"$X c #BDFCC1",
"%X c #B5FAC1",
/* pixels */
"= = < z ..8.9.7.7.3. .] ] ] ] ] ]  .3.7.7.9.8.W % X                 X % W 8.9.7.7.7.7.7.7.7.7.7.7.R >                           ",
"= < 2 K ..1.3.3.3.&.| ] ] ] ] ] ] | &.3.3.3.,.E 1 ; % $ o         o $ x W 1.3.3.3.3.3.3.3.3.3.3.3.W H > > % $ @ @ $ % $ o       ",
"< 2 L .. . . . . .| { ] ] ] ] ] ] { |  . . . .{ m K L J $ X     X $ H E  . . . . . . . . . . . . ...E R R I K b b K L J $ X     ",
"z K ..>.| { ] ] ] ] ] ] ] ] ] ] ] ] ] ] ] ] ] ] ]  ...W x $ o o $ x E >.| { ] ] ] ] ] ] ] ] ] ] ] | ;.5.5.;.| ] ]  ...W x $ o   ",
".... .| { { ] ] ] ] ] ] ] ] ] ] ] ] ] ] ] ] ] ] ] { |  .W J % $ K E  .| { { ] ] ] ] ] ] ] ] ] ] ] { |  . .| { ] ] { |  .W J $   ",
"8.1. .{ { ] ] ] ] ] ] ] ] ] ] ] ] ] ] ] ] ] ] ] ] ] {  .3.T 1 % E ,. .{ { ] ] ] ] ] ] ] ] ] ] ] ] ] { { { ] ] ] ] ] {  .3.T &   ",
"9.3. .] ] ] ] ] ] ] ] ] ] ] ] ] ] ] ] ] ] ] ] ] ] ] {  .5.R 1 > W ,. .] ] ] ] ] ] ] ] ] ] ] ] ] ] ] ] ' ' ] ] ] ] ' ]  .5.R >   ",
"7.3. .] ] ] ] ] ] ] ] ] ] ] ] ] ] ] ] ] ] ] ] ] ] ] { | >.L > % W ,. .] ] ] ] ] ] ] ] ] ] ] ] ] ] ] ] ] ] ] ] ] ] ' {  .3.R >   ",
"7.3. .] ] ] ] ] ] ] ] ] ] ] ] ] ] ] ] ] ] ] ] ] ] ] { { | m ; % W ,. .] ] ] ] ] ] ] ] ] ] ] ] ] ] ] ] ] ] ] ] ] ] ' {  .3.R >   ",
"3.&.| ] ] ] ] ] ] ] ] ] ] ] ] ] ] ] ] ] ] ] ] ] ] ] ] { ] b $ $ J E .. .{ ] ] ] ] ] ] ] ] ] ] ] ] ] ] ] ] ] ] ] ] ] { | ..L %   ",
" .| { ] ] ] ] ] ] ] ] ] ] ] ] ] ] ] ] ] ] ] ] ] ] ] ] { ] b $ o $ x E ..| ] ] ] ] ] ] ] ] ] ] ] ] ] ] ] ] ] ] ] ] ] { { | K $   ",
"] ] ] ] ] ] ] ] ] ] ] ] ] ] ] ] ] ] ] ] P ' ] ] ] ] { { | K %     $ J E { ] ] ] ] ] ] ] ] ] ] ] ] ] ] ] ] ] ] ] ] ] { { | m $   ",
"] ] ] ] ] ] ] ] ] ] ] ] ] ] ] ] ] ] ] P 6 N ] ] ] ] { | >.U >     o $ 2 K ] { ] ] ] ] ] ] ] ] ] ] ] ] ] ] ] ] ] ] ] { | ;.L %   ",
"] ] ] ] ] ] ] ] ] ] ] ] ] ] ] ] ] ] ] ' N M ] ] ] ] { | &.L %     X + , K ] { ] ] ] ] ] ] ] ] ] ] ] ] ] ] ] ] ] ] ] {  .3.R >   ",
"] ] ] ] ] ] ] ] ] ] ] ] ] ] ] ] ] ] ] ] ] ] ] ] ] ] ] { | K %   X + , n P ] { ] ] ] ] ] ] ] ] ] ] ] ] ] ] ] ] ] ] ] {  .3.R >   ",
"] ] ] ] ] ] ] ] ] ] ] ] ] ] ] ] ] ] ] ] ] ] ] ] ] ] ] ] ] b $ o $ 1 K { ] ] ] ] ] ] ] ] ] ] ] ] ] ] ] ] ] ] ] ] ] ] { | >.U %   ",
"] ] ] ] ] ] ] ] ] ] ] ] ] ] ] ] ] ] ] ] ] ] ] ] ] ] ] ] ] b ; $ K E | ] ] ] ] ] ] ] ] ] ] ] ] ] ] ] ] ] ] ] ] ] ] ] { { | m $   ",
"] ] ] ] ] ] ] ] ] ] ] ] ] ] ] ] ] ] ] ] ] ] ] ] ] ] ] { | m ; % U .. .] ] ] ] ] ] ] ] ] ] ] ] ] ] ] ] ] ] ] ] ] ] ] ] { { b +   ",
"] ] ] ] ] ] ] ] ] ] ] ] ] ] ] ] ] ] ] ] ] ] ] ] ] ] { | ;.L > $ K | | ] ] ] ] ] ] ] ] ] ] ] ] ] ] ] ] ] ] ] ] ] ] ] ] ] ] b +   ",
"] ] ] ] ] ] ] ] ] ] ] ] ] ] ] ] ] ] ] ] ] ] ] ] ] ' {  .3.R > O b ] { ] ] ] ] ] ] ] ] ] ] ] ] ] ] ] ] ] ] ] ] ] ] ] ] ] ] b @   ",
"] ] ] ] ] ] ] ] ] ] ] ] ] ] ] ] ] ] ] ] ] ] ] ] ] ] {  .3.R > O n ] { ] ] ] ] ] ] ] ] ] ] ] ] ] ] ] ] ] ] ] ] ] ] ] ] ] ] b @   ",
"' ] ] ] ] ] ] ] ] ] ] ] ] ] ] ] ] ] ] ] ] ] ] ] ] ] S Z C Z = # K | | ] ] ] ] ] ] ] ] ] ] ] ] ] ] ] ] ] ] ] ] ] ] ] ] ] ] b +   ",
"{ { ] ] ] ] ] ] ] ] ] ] ] ] { { { ] ] ] ] ] ] ] ] S / p p d 0 6 G Y F A ] ] ] ] ] ] ] ] ] ] ] ] ] ] ] ] ] ] ] ] ] ] ] { { b +   ",
" .| { ] ] ] ] ] ] ] ] ] ] { | | { ] ] ] ] ] ] ] ] B p l.x.l.w.u e u @.X.} [ [ ] ] ] ] ] ] ] ] ] ] ] ] ] ] ] ] ] ] ] { { | m $   ",
"3.&. .] ] ] ] ] ] ] ] ] ]  .&.&.| ] ] ] ] ] { ] ] C s x.B.B.N.x.c.S.D.A.%.! V ] ] ] ] ] ] ] ] ] ] ] ] ] ] ] ] ] ] ] { | ;.L %   ",
"R E .. .{ ] ' ' ' ' ] {  ...W E  .| { ' ' ' ] { C @.e.x.C.Y.T.Q.(.{.}.].D.Z.t.O.[ ] ] ' ' ] ] ] ] ] ] ' ' ] ] ] ] ] {  .5.R >   ",
"> x E ..| { ] { { { { | ..R J x E .. .] { { [ O.+.e.s.x.C.T.W./.{..X@X XoXoX_.t.o.[ ] { ] ] ] ] ] ] { { { ] ] { { { {  .3.T &   ",
"  $ J W  . . . . . . . .W J % $ K E  . . .{ _ +.k.x.z.x.U.T.W.^.[.}..X#X%X$XOX`.t.o.{  . .| { ] ] { |  . .| { { |  . . .W J $   ",
"  o $ x W 3.5.3.3.5.3.W x $ o o $ x W 5.5.D u y.N.M.x.x.C.Y.T.W./.[.}. X#X$X$XXXR.%.F 5.5.;.| ] ] | ;.5.5.&.| { &.5.3.W x $ o   ",
"    X @ H T R T T R T H @       X $ x R R m Q w.z.x.z.z.N.U.T.W.W./.[.}.|.|.XX+X'.u.Q R R L m b b m L R R L m m L R T J $ X     ",
"    X o % > 1 1 1 1 1 % O     X X o $ > > z X.e.s.z.z.z.x.B.Y.T.T.Q.!.!.A.Z.D.|.].Z.X.l 1 : ; $ ; ; > > > : $ $ % > > % o       ",
"  o @ % % % % % % % % % > % $ $ $ + + $ % 5 g j.z.z.z.z.x.B.Y.T.T.Y.N.g.#.) $.A.~.Z.a 3 @ + + $ % : % $ o         o + $ o       ",
"  $ J W W W W W W W W W W R K n n n n K T Z h n.b.z.z.z.x.B.Y.T.W.C.y.#.i.) 8 X.g.+.7 4 n n n K T W W K $ X       $ x K $ X     ",
"> H W 8.8.8.3.,.,.,.,.,.,...| ] ] ] ] { ..C h J.n.z.z.z.z.x.B.Y.W.C.r.8 ) ~ - 9 r.u 4 * P ] ' { ..5.5.W % O $ > > H T E x $ o   ",
"R =.5.9.9.6.;. . . . . . . .| { { { { {  .C j L.K.b.z.z.z.z.x.B.Y.U.f.i 8 - 8 a f.q.q 5 P { ] {  .,.5.W : % x R R E .. .W H $   ",
"7.7.7.8.5.&.| ] ] ] ] ] ] ] ] ] ] ] ] ] ] ) j G.P.K.b.z.z.z.z.x.B.U.N.a.q 9 a z.C.x.q.w [ ] ] ] ]  ...T % > T 8.8.&.|  .5.R >   ",
"7.9.7.5...| { ] ] ] ] ] ] ] ] ] ] ] ] ] ] ' ` p.L.P.K.b.z.z.z.z.x.b.N.N.l.y.l.C.Y.N.q.0 [ ] ] ] ] { { K $ > R 8.&.| {  .5.R >   ",
"7.8.5.&.| { ] ] ] ] ] ] ] ] ] ] ] ] ] ] ] ] ` f G.).E.K.b.z.z.z.z.z.x.N.z.y.y.z.N.b.0.w [ ] ] ] ] { ] K , 1 L ..| { {  .5.R >   ",
"7.5.&.| { ] ] ] ] ] ] ] ] ] ] ] ] ] ] ] ] ] ^ ( h.I.).P.K.V.V.V.b.z.z.x.z.e.q.e.j.d.+.V ' ] ] ] ] ] ] P m b x m P ' {  .3.R >   ",
"7.3. .] ] ] ] ] ] ] ] ] ] ] ] ] ] ] ] ] ] ] ] [ #.h.G.H.v.L.E.P.V.b.b.b.z.a.q.h e.g / ] ] ] ] ] ] ] ] ] ] M b 2 K ] { | ;.L %   ",
"7.3. .] ] ] ] ] ] ] ] ] ] ] ] ] ] ] ] ] ] ] ] ] [ ( t t g F.I.L.n.n.n.m.s.y.e.s t ` [ ] ] ] ] ] ] ] ] ] ] ' P K ' ] { { | m $   ",
"9.3. .] ] ] ] ] ] ] ] ] ] ] ] ] ] ] ] ] ] ] ] ] ] ^ A A } $.j h g g g a y y y r V ' ] ] ] ] ] ] ] ] ] ] ] ] ] ] ] ] ] { ] b +   ",
"7.1. .] ] ] ] ] ] ] ] ] ] ] ] ] ] ] ] ] ] ] ] ] ] ] ] | &.S 5 3 Z C Z B v 5 3 c ' ] ] ] ] ] ] ] ] ] ] ] ] ] { { ] ] ] { ] b +   ",
"3.;.| ] ] ] ] ] ] ] ] ] ] ] ] ] ] ] ] ] ] ] ] ] ] ] { | ;.L < = W ,. .{ { k k ] ] ] ] ] ] ] ] ] ] ] ] ] ] ] ] ] ] ] { { | m $   ",
" .| { ] ] ] ] ] ] ] ] ] ] ] ] ] ] ] ] ] ] ] ] ] ] ] { { | m ; % W ,. .| &...{ ] ] ] ] ] ] ] ] ] ] ] ] ] ] ] ] ] ] ] { | >.U %   ",
"{ { ] ] ] ] ] ] ] ] ] ] ] ] ] ] ] ] ] ] ] ] ] ] ] ] ] {  .m ; > W 5.,. ...| { ] ] ] ] ] ] ] ] ] ] ] ] ] ] ] ] ] ] ] {  .3.R >   ",
"] ] ] ] ] ] ] ] ] ] ] ] ] ] ] ] ] ] ] ] ] ] ] ] ] ] { | ..L > % E 5.5...K m P ] ] ] ] ] ] ] ] ] ] ] ] ] ] ] ] ] ] ' ]  .5.R >   ",
"] ] ] ] ] ] ] ] ] ] ] ] ] ] ] ] ] ] ] ] ] ] ] ] ] ] { | >.L > $ K W W U z b M ] ] ] ] ] ] ] ] ] ] ] ] ] ] ] ] ] ] ' {  .3.R >   ",
"] ] ] ] ] ] ] ] ] ] ] ] ] ] ] ] ] ] ] ] ] ] ] ] ] ] { { | m $ o $ % % > b P ' ] ] ] ] ] ] ] ] ] ] ] ] ] ] ] ] ] ] ' ]  .3.R >   ",
" .| { ] ] ] ] ] ] ] ] ] ] ] ] ] ] ] ] ] ] ] ] ] ] ] ] { { b $ X + $ ; , m ' { ] ] ] ] ] ] ] ] ] ] ] ] ] ] ] ] ] ] ' ]  .3.R >   ",
",...| ] ] ] ] ] ] ] ] ] ] ] ] ] ] ] ] ] ] ] ] ] ] ] ] ] ] b $ O , b b n P ] { ] ] ] ] ] ] ] ] ] ] ] ] ] ] ] ] ] ] ' {  .3.R >   ",
"1.&. .] ] ] ] ] ] ] ] ] ] ] ] ] ] ] ] ] ] ] ] ] ] ] ] ] ] b $ $ K | | { ] ] ] ] ] ] ] ] ] ] ] ] ] ] ] ] ] ] ] ] ] ' {  .3.R >   ",
" .| { ] ] ] ] ] ] ] ] ] ] ] ] ] ] ] ] ] ] ] ] ] ] ] ] ] ] b $ % T &. .] ] ] ] ] ] ] ] ] ] ] ] ] ] ] ] ] ] ] ] ] ] ' {  .3.R >   ",
"{ ] ] ] ] ] ] ] ] ] ] ] ] ] ] ] ] ] ] ] ] ] ] ] ] ] ] ] ] b ; % W ,. .] ] ] ] ] ] ] ] ] ] ] ] ] ] ] ] ] ] ] ] ] ] ' {  .3.R >   ",
"{ ] ] ] ] ] ] ] ] ] ] ] ] ] ] ] ] ] ] ] ] ] ] ] ] ] ] { { b ; % W ,. .] ] ] ] ] ] ] ] ] ] ] ] ] ] ] ] ] ] ] ] ] ] ' {  .3.R >   ",
" .| { ] ] ] ] ] ] ] ] ] ] ] ] ] ] ] ] ] ] ] ] ] ] ] ] { | m ; % T .. .] ] ] ] ] ] ] ] ] ] ] ] ] ] ] ] ] ] ] ] ] ] ' {  .5.R >   ",
"3.;.| ] ] ] ] ] ] ] ] ] ] ] ] ] ] ] ] ] ] ] ] ] ] ] { | ;.L > $ K { { ] ] ] ] ] ] ] ] ] ] ] ] ] ] ] ] ] ] ] ] ] ] ' {  .5.R >   ",
"7.3. .' ] ] ] ] ] ] ] ] ] ] ] ] ] ] ] ' ' ] ] ] ] ' {  .5.R 1 $ K | { ] ' ] ] ] ] ] ] ' ' ] ] ] ] ] ] ' ] {  .| P P |  .W H $   ",
"8.1. .] { ] ] { { { { { { ] ] ] ] ] { { ] ] { { { { {  .3.T > $ U  . .{ { ] ] ] ] ] { { { ] ] ] ] ] { { {  ... .m P E E x $ o   ",
"W W ..| { { ] { |  . .| { { ] ] ] { |  . .| { { |  . . .W J % $ K E  . . .| { ] ] { |  . .| { ] ] { |  . . .W T m P U K $ X     ",
"% x R >.| ] ] | >.3.3.>.| { ] ] ] | ;.5.5.&.| | ;.5.3.W x $ o o $ x W 5.5.&.| ] ] | ;.5.5.;.| ] ] | ;.5.5.E x z T U x $ o       ",
"X $ x U m b b m U R R U m b b b b K I R R L K m L R T J $ X     X $ H R R U K b b K I R R I K b b m I R R x % $ J x % X         ",
"  o $ % $ + + $ % > > % $ + + @ @ $ % > > : $ $ % > % $ o         o $ > > % $ @ @ $ % > > : $ @ + $ % > > $ o o $ $ O           ",
"                                                                                                                                "
};
