/* XPM */
static char *dying_down5[] = {
/* columns rows colors chars-per-pixel */
"64 64 175 2 ",
"   c None",
".  c #24333E",
"X  c #294348",
"o  c #28424B",
"O  c #2E4C4E",
"+  c #2C4F4F",
"@  c #2C514F",
"#  c #2C5050",
"$  c #2C5150",
"%  c #2C5151",
"&  c #2C5250",
"*  c #2C5351",
"=  c #2D5352",
"-  c #2D5452",
";  c #2D5552",
":  c #2D5453",
">  c #2D5553",
",  c #2E5552",
"<  c #2D5653",
"1  c #2E5653",
"2  c #2E5854",
"3  c #2F5955",
"4  c #2F5A55",
"5  c #2E5758",
"6  c #2E5759",
"7  c #2E5859",
"8  c #2E585A",
"9  c #2F5A5C",
"0  c #305653",
"q  c #315B56",
"w  c #315C57",
"e  c #325D57",
"r  c #335D57",
"t  c #335D58",
"y  c #335E58",
"u  c #365D58",
"i  c #375E59",
"p  c #33625B",
"a  c #34635C",
"s  c #35675F",
"d  c #36665E",
"f  c #39615A",
"g  c #38615B",
"h  c #38625B",
"j  c #39625B",
"k  c #38635C",
"l  c #39635C",
"z  c #38665D",
"x  c #39675F",
"c  c #2F5961",
"v  c #2F5A60",
"b  c #2F5A61",
"n  c #2F5B61",
"m  c #2F5C62",
"M  c #306065",
"N  c #366860",
"B  c #356865",
"V  c #36696C",
"C  c #376D6F",
"Z  c #397065",
"A  c #3B7267",
"S  c #397168",
"D  c #3B7568",
"F  c #3C7568",
"G  c #3E7769",
"H  c #3E7B6C",
"J  c #376E70",
"K  c #44635A",
"L  c #42665D",
"P  c #44655C",
"I  c #45655C",
"U  c #45665C",
"Y  c #407065",
"T  c #417568",
"R  c #427669",
"E  c #407E6F",
"W  c #4F7A6B",
"Q  c #487B6D",
"!  c #407E70",
"~  c #41806F",
"^  c #458876",
"/  c #448978",
"(  c #4A917B",
")  c #49917C",
"_  c #49917D",
"`  c #4B947D",
"'  c #4A947E",
"]  c #4C947E",
"[  c #4C957E",
"{  c #4F967F",
"}  c #499481",
"|  c #4B9780",
" . c #4F9680",
".. c #4A9786",
"X. c #4B9881",
"o. c #4D9980",
"O. c #4C9881",
"+. c #4E9A81",
"@. c #4C9982",
"#. c #4E9D83",
"$. c #4C9A84",
"%. c #4F9E84",
"&. c #49998D",
"*. c #4E9F8C",
"=. c #509F85",
"-. c #51A085",
";. c #50A187",
":. c #56A488",
">. c #57A488",
",. c #57A588",
"<. c #57A589",
"1. c #59A288",
"2. c #57AE8F",
"3. c #58A98B",
"4. c #5AAC8D",
"5. c #4DA398",
"6. c #4CA29D",
"7. c #55AD94",
"8. c #52AD9D",
"9. c #5EB493",
"0. c #5FB794",
"q. c #56B29F",
"w. c #5FBE99",
"e. c #65A98C",
"r. c #60B090",
"t. c #67B291",
"y. c #67B391",
"u. c #62B794",
"i. c #6AB394",
"p. c #6AB595",
"a. c #6AB695",
"s. c #6FB696",
"d. c #67BE9A",
"f. c #6CBA98",
"g. c #6CBB98",
"h. c #6DBB99",
"j. c #499BA4",
"k. c #4A9FA8",
"l. c #52ADA1",
"z. c #53AFA0",
"x. c #52AFA6",
"c. c #56B3A0",
"v. c #53B3AC",
"b. c #50ACB1",
"n. c #50ACB2",
"m. c #67C79F",
"M. c #68CAA2",
"N. c #69CAA2",
"B. c #69CBA2",
"V. c #6ACBA2",
"C. c #76CEA6",
"Z. c #98CAA0",
"A. c #83D1A9",
"S. c #8BD9AF",
"D. c #93D7AB",
"F. c #ABDEAC",
"G. c #ADDDAC",
"H. c #B1DDAB",
"J. c #B3DEAB",
"K. c #85E1B2",
"L. c #8EEABA",
"P. c #91EBBB",
"I. c #93EBBB",
"U. c #97ECBA",
"Y. c #96EDBA",
"T. c #97EDBB",
"R. c #99EEBB",
"E. c #9FF0BE",
"W. c #A4EEB8",
"Q. c #A7F7C2",
"!. c #ABF8C3",
"~. c #BBFCC2",
"^. c #C3FDC2",
"/. c #C8FFC3",
"(. c #CAFFC3",
/* pixels */
"                                                                                                                                ",
"                                                                                                                                ",
"                                                                                                                                ",
"                                                                                                                                ",
"                                                                                                                                ",
"                                                                                                                                ",
"                                                                                                                                ",
"                                                                                                                                ",
"                                                                                                                                ",
"                                                                                                                                ",
"                                                                                                                                ",
"                                                                                                                                ",
"                                                                                                                                ",
"                                                                                                                                ",
"                                                                                                                                ",
"                                                                                                                                ",
"                                                                                                                                ",
"                                                                                                                                ",
"                                                                                                                                ",
"                                                                                                                                ",
"                                                                                                                                ",
"                                                                                                                                ",
"                                                                                                                                ",
"                                                                                                                                ",
"                                                                                                                                ",
"                                                                                                                                ",
"                                                              f                                                                 ",
"                                        f t                 Q e.k                     f t                                       ",
"                                      f p.:.3             f h.u.r                   f p.:.3                                     ",
"                                      r 3.=.>             t 3.%.>                   t :.{ >                                     ",
"                                        s ! >               N ! >                     3 >                                       ",
"                                          *                   *       t                                                         ",
"                                                                    > ~ >         f t         f t                               ",
"                              f r               f r         K U U U L Y k q     T h.:.3     T h.:.3                             ",
"                            f p.3.s           i i.r.s O i W Z.F.J.J.G.D.A.t.s 2 -.0.( *   > { 9.' >                             ",
"                            t :.=.E *       @ a 1.C. .x s.S.E.!.^././.~.Q.W.t.Z ^ D p 3 > X > r >                               ",
"                              3 > >     M B } #.G { +.G d.L.P.P.T.R.R.T.P.T.K.4.H +.} *.5.V o                                   ",
"                                      m j.6.8.c...S Z ) 2.m.N.N.N.N.N.N.N.N.N.w.-.7.q.z.v.k.v                                   ",
"                                        v 9 J b.x.&./ ) ' } +.+.+.+.+.+.@.@.@.+.$.z.b.C 7 v                                     ",
"                                              v 6 6 * * * * * * * * * O * * * * * 6 v                                           ",
"                                                .                                 .                                             ",
"                                                                                                                                ",
"                                                                                                                                ",
"                                                                                                                                ",
"                                                                                                                                ",
"                                                                                                                                ",
"                                                                                                                                ",
"                                                                                                                                ",
"                                                                                                                                ",
"                                                                                                                                ",
"                                                                                                                                ",
"                                                                                                                                ",
"                                                                                                                                ",
"                                                                                                                                ",
"                                                                                                                                ",
"                                                                                                                                ",
"                                                                                                                                ",
"                                                                                                                                ",
"                                                                                                                                ",
"                                                                                                                                ",
"                                                                                                                                ",
"                                                                                                                                ",
"                                                                                                                                ",
"                                                                                                                                "
};
