/* XPM */
static char *dying_right9[] = {
/* columns rows colors chars-per-pixel */
"64 64 117 2 ",
"   c None",
".  c #24323D",
"X  c #29424C",
"o  c #29424D",
"O  c #2C5050",
"+  c #2D5050",
"@  c #2C5150",
"#  c #2D5152",
"$  c #2D5452",
"%  c #2D5552",
"&  c #2E5653",
"*  c #2E5556",
"=  c #2E5657",
"-  c #2E5856",
";  c #2E5658",
":  c #2E5758",
">  c #2E5759",
",  c #2F575D",
"<  c #2F585A",
"1  c #2F595F",
"2  c #305B56",
"3  c #305C57",
"4  c #325D58",
"5  c #305D5D",
"6  c #305D5E",
"7  c #33625C",
"8  c #39635C",
"9  c #3A635C",
"0  c #3B645D",
"q  c #3C645C",
"w  c #3E645C",
"e  c #305960",
"r  c #305D63",
"t  c #366A6E",
"y  c #366B70",
"u  c #41655C",
"i  c #43655C",
"p  c #45665C",
"a  c #468B78",
"s  c #468B79",
"d  c #4A947F",
"f  c #4B9784",
"g  c #4C9982",
"h  c #4D9A82",
"j  c #4D9A83",
"k  c #4F9E85",
"l  c #52A68B",
"z  c #55AB8F",
"x  c #56AE8E",
"c  c #57AF8E",
"v  c #4FA291",
"b  c #4FA392",
"n  c #4CA19A",
"m  c #4CA19B",
"M  c #4FA799",
"N  c #54AA90",
"B  c #55AB90",
"V  c #56AE90",
"C  c #57AF90",
"Z  c #50AB9D",
"A  c #50AB9E",
"S  c #51AC9E",
"D  c #55AF9E",
"F  c #56B096",
"G  c #57B297",
"H  c #58B290",
"J  c #5EB694",
"K  c #5EB794",
"L  c #5CBA96",
"P  c #57B298",
"I  c #57B299",
"U  c #58B69F",
"Y  c #5CBB98",
"T  c #5EBE99",
"R  c #5EBF99",
"E  c #52B0A7",
"W  c #52B1A8",
"Q  c #54B4AB",
"!  c #50ABB1",
"~  c #50ACB3",
"^  c #51B0B6",
"/  c #56B8B0",
"(  c #59BFB2",
")  c #5FC09B",
"_  c #60C39C",
"`  c #61C49C",
"'  c #61C59D",
"]  c #63C69E",
"[  c #63C79F",
"{  c #68CAA1",
"}  c #69CAA1",
"|  c #68CBA2",
" . c #69CBA2",
".. c #6ACBA2",
"X. c #76C8A2",
"o. c #7DCDA6",
"O. c #7ECEA6",
"+. c #6BD0A4",
"@. c #74D6AA",
"#. c #74D8AB",
"$. c #84D2AA",
"%. c #8AD4AA",
"&. c #8BD5AB",
"*. c #8CD5AB",
"=. c #93D7AB",
"-. c #9EDAAB",
";. c #A4DBAC",
":. c #ABDDAC",
">. c #8EEAB9",
",. c #8DEABA",
"<. c #93EEBD",
"1. c #94EFBD",
"2. c #96EEBD",
"3. c #99EFBD",
"4. c #9AEFBD",
"5. c #99F0BD",
"6. c #9CF0BD",
/* pixels */
"                                                                                                                                ",
"                                                                                                                                ",
"                                                                                                                                ",
"                                                                                                                                ",
"                                                                                                                                ",
"                                                                                                                                ",
"                                                                                                                                ",
"                                                                                                                                ",
"                                                                                                                                ",
"                                                                                                                                ",
"                                                                                                                                ",
"                                                                                                                                ",
"                                                                                                                                ",
"                                                                                                                                ",
"                                                                                                                                ",
"                                                                                                                                ",
"                                                                                                                                ",
"                                                                                                                                ",
"                                                                                                                                ",
"                                                                                                                                ",
"                                                                                                                                ",
"                                                                                                                                ",
"                                                                                                                                ",
"                                                                                                                                ",
"                                                                                                                                ",
"                                                                                                                                ",
"                                                                                                                                ",
"                                                                                                                                ",
"                                                                                                                                ",
"                                                                                                                                ",
"                                                                                                                                ",
"                                                                                                                                ",
"                                                                                                                                ",
"                                                                                                                                ",
"                                    % % % % 2 3 4 8 0 q u q u q q u p u q 8 0 8 4 2 % % % %                                     ",
"                                - 7 s h h k c H J X.o.%.-.=.-.*.%.;.:.;.*.$.o.X.J c k h h s 7 -                                 ",
"                              5 m v l L R R ' ' ' +.#.>.5.2.3.<.<.3.6.3.2.>.@.{ ' _ R R Y B v m 5                               ",
"                              r ~ Q D P F P F B C R ' { { { { { { { { { { { ) C B F P F U ( / ~ r                               ",
"                                , t ! E Z Z M f d h h h h h h h h h h h h h h d f M S Z W ~ y ,                                 ",
"                                  o e < * * * # # # # # O O O O # # # # O O O # # * > > > 1 o                                   ",
"                                      .                                                 .                                       ",
"                                                                                                                                ",
"                                                                                                                                ",
"                                                                                                                                ",
"                                                                                                                                ",
"                                                                                                                                ",
"                                                                                                                                ",
"                                                                                                                                ",
"                                                                                                                                ",
"                                                                                                                                ",
"                                                                                                                                ",
"                                                                                                                                ",
"                                                                                                                                ",
"                                                                                                                                ",
"                                                                                                                                ",
"                                                                                                                                ",
"                                                                                                                                ",
"                                                                                                                                ",
"                                                                                                                                ",
"                                                                                                                                ",
"                                                                                                                                ",
"                                                                                                                                ",
"                                                                                                                                ",
"                                                                                                                                "
};
