/* XPM */
static char *dying_right7[] = {
/* columns rows colors chars-per-pixel */
"64 64 121 2 ",
"   c None",
".  c #24333E",
"X  c #244144",
"o  c #29424C",
"O  c #2C5050",
"+  c #2D5151",
"@  c #2C5351",
"#  c #2D5452",
"$  c #2D5552",
"%  c #2D5653",
"&  c #2E5753",
"*  c #2E5754",
"=  c #2E5657",
"-  c #2F5956",
";  c #2E5658",
":  c #2E575A",
">  c #2F575A",
",  c #2E575E",
"<  c #305A56",
"1  c #305B56",
"2  c #305B57",
"3  c #305C56",
"4  c #325D57",
"5  c #325D58",
"6  c #305D5D",
"7  c #305D5E",
"8  c #34625C",
"9  c #39635C",
"0  c #3B645D",
"q  c #3D645C",
"w  c #3C645D",
"e  c #3D645D",
"r  c #3E655D",
"t  c #2F5960",
"y  c #2F5A60",
"u  c #305D63",
"i  c #366A6E",
"p  c #366A6F",
"a  c #42655C",
"s  c #44665C",
"d  c #46665C",
"f  c #448672",
"g  c #448673",
"h  c #468B78",
"j  c #4A947F",
"k  c #4B9783",
"l  c #4C9882",
"z  c #4C9983",
"x  c #4E9E85",
"c  c #4F9E85",
"v  c #53A68B",
"b  c #55AC8F",
"n  c #56AE8E",
"m  c #57AE8E",
"M  c #4FA290",
"N  c #4FA491",
"B  c #4CA19A",
"V  c #54AA90",
"C  c #55AC90",
"Z  c #56AF90",
"A  c #57AF91",
"S  c #50A798",
"D  c #50AA9C",
"F  c #51AB9D",
"G  c #51AB9E",
"H  c #57B094",
"J  c #57B195",
"K  c #58B191",
"L  c #5EB694",
"P  c #5FB794",
"I  c #5CBA97",
"U  c #56B198",
"Y  c #55B19E",
"T  c #58B59D",
"R  c #5CBA98",
"E  c #5DBD99",
"W  c #5DBE99",
"Q  c #5EBE99",
"!  c #5EBF99",
"~  c #5EBF9A",
"^  c #52AFA6",
"/  c #52B0A8",
"(  c #55B4AA",
")  c #50ABB1",
"_  c #50ABB2",
"`  c #51AFB7",
"'  c #56B8B0",
"]  c #59BFB3",
"[  c #5FC09B",
"{  c #60C39C",
"}  c #61C59D",
"|  c #61C59E",
" . c #63C69E",
".. c #63C79F",
"X. c #68CAA1",
"o. c #68CAA2",
"O. c #69CAA2",
"+. c #69CBA2",
"@. c #76C8A1",
"#. c #7DCDA6",
"$. c #7ECEA6",
"%. c #6BD0A4",
"&. c #73D6AA",
"*. c #74D8AB",
"=. c #84D2AA",
"-. c #8AD4AA",
";. c #8BD5AB",
":. c #8CD5AB",
">. c #93D7AB",
",. c #9DDAAC",
"<. c #A4DBAC",
"1. c #ABDDAC",
"2. c #8DEAB9",
"3. c #8EEAB9",
"4. c #93EEBD",
"5. c #95EEBD",
"6. c #94EFBD",
"7. c #98EFBD",
"8. c #9AEFBD",
"9. c #99F0BD",
"0. c #9CF0BD",
/* pixels */
"                                                                                                                                ",
"                                                                                                                                ",
"                                                                                                                                ",
"                                                                                                                                ",
"                                                                                                                                ",
"                                                                                                                                ",
"                                                                                                                                ",
"                                                                                                                                ",
"                                                                                                                                ",
"                                                                                                                                ",
"                                                                                                                                ",
"                                                                                                                                ",
"                                                                                                                                ",
"                                                                                                                                ",
"                                                                                                                                ",
"                                                                                                                                ",
"                                                                                                                                ",
"                                                                                                                                ",
"                                                                                                                                ",
"                                                                                                                                ",
"                                                                                                                                ",
"                                                                                                                                ",
"                                                                                                                                ",
"                                                                                                                                ",
"                                                                  1                                                             ",
"                                                                1 g 1                       1                                   ",
"                                      X                           1                       1 g 1                                 ",
"                                                                                            1                                   ",
"                                                                                                                                ",
"                                                                                                                                ",
"                                                                                                                                ",
"                              X           1                                       1                                             ",
"                                        3 g 3                                   3 g 3                                           ",
"                                          $                                       $                   X                         ",
"                                    $ $ $ + 1 1 5 9 w w a w a w w d d d w 0 w 9 3 = $ $ $ $                                     ",
"                                - 8 h z z c b K L @.#.-.,.>.,.:.-.<.1.<.:.=.#.@.L b c z z h 8 -                                 ",
"                              6 B M v I Q Q { } } %.*.3.9.5.7.4.4.7.0.7.5.3.&.X.} { Q Q R V N B 6                               ",
"                              u _ ( Y U H H H b A Q } X.X.X.X.X.X.X.X.X.X.X.[ A A H H H T ] ' ) u                               ",
"                                , i ) ^ F F S k j z z z z z z z z z z z z z z j k S F F / ` i ,                                 ",
"                                  o y ; ; ; = + + + + + O + + + + + + + O + + + + = ; ; ; y o                                   ",
"                                      .                                                 .                                       ",
"                                                                                                                                ",
"                                                                                                                                ",
"                                                                                                                                ",
"                                                                                                                                ",
"                                                                                                                                ",
"                                                                                                                                ",
"                                                                                                                                ",
"                                                                                                                                ",
"                                                                                                                                ",
"                                                                                                                                ",
"                                                                                                                                ",
"                                                                                                                                ",
"                                                                                                                                ",
"                                                                                                                                ",
"                                                                                                                                ",
"                                                                                                                                ",
"                                                                                                                                ",
"                                                                                                                                ",
"                                                                                                                                ",
"                                                                                                                                ",
"                                                                                                                                ",
"                                                                                                                                ",
"                                                                                                                                "
};
