/* XPM */
static char *dying_up4[] = {
/* columns rows colors chars-per-pixel */
"64 64 174 2 ",
"   c None",
".  c #412D3C",
"X  c #47313F",
"o  c #493542",
"O  c #533841",
"+  c #553E46",
"@  c #563F46",
"#  c #564047",
"$  c #594046",
"%  c #574148",
"&  c #57434B",
"*  c #584349",
"=  c #5A4348",
"-  c #5B4349",
";  c #584449",
":  c #594449",
">  c #59444A",
",  c #5B464B",
"<  c #5C464A",
"1  c #5D464B",
"2  c #5D474B",
"3  c #58444C",
"4  c #59444C",
"5  c #59454D",
"6  c #5D474C",
"7  c #5F494C",
"8  c #584652",
"9  c #5E4D52",
"0  c #5D4E52",
"q  c #5D4D56",
"w  c #624A4D",
"e  c #634A4E",
"r  c #634B4E",
"t  c #654B4E",
"y  c #634C4E",
"u  c #684B4D",
"i  c #694B4D",
"p  c #694C4D",
"a  c #684C4E",
"s  c #694C4E",
"d  c #604E50",
"f  c #605052",
"g  c #615052",
"h  c #625253",
"j  c #635353",
"k  c #655253",
"l  c #675353",
"z  c #635454",
"x  c #635555",
"c  c #655455",
"v  c #675455",
"b  c #655656",
"n  c #6B5554",
"m  c #695756",
"M  c #60535A",
"N  c #6D5B59",
"B  c #6D5B5A",
"V  c #6B5D5A",
"C  c #6B5D5B",
"Z  c #6F5C5A",
"A  c #705C5A",
"S  c #795F5B",
"D  c #79615C",
"F  c #6B6462",
"G  c #6B6563",
"H  c #6B6566",
"J  c #6C6767",
"K  c #6E6A63",
"L  c #6D6964",
"P  c #6E6B64",
"I  c #6F6B64",
"U  c #6C6967",
"Y  c #6F6C68",
"T  c #6F6E69",
"R  c #6C696C",
"E  c #6E6E6E",
"W  c #6E6E6F",
"Q  c #776F68",
"!  c #707068",
"~  c #717069",
"^  c #70706A",
"/  c #71716A",
"(  c #72736A",
")  c #747168",
"_  c #747269",
"`  c #757269",
"'  c #757369",
"]  c #74736A",
"[  c #72746B",
"{  c #72756B",
"}  c #74756B",
"|  c #71736C",
" . c #74706C",
".. c #73746C",
"X. c #73746D",
"o. c #74776E",
"O. c #7A736B",
"+. c #78756D",
"@. c #75796E",
"#. c #75786F",
"$. c #77796E",
"%. c #757A6E",
"&. c #78786D",
"*. c #7E786E",
"=. c #737373",
"-. c #717473",
";. c #737870",
":. c #747A70",
">. c #767C70",
",. c #737974",
"<. c #737875",
"1. c #7A7D71",
"2. c #787F73",
"3. c #7F7E72",
"4. c #727978",
"5. c #737B79",
"6. c #757D79",
"7. c #737B7D",
"8. c #757F7D",
"9. c #757E7F",
"0. c #7A7C79",
"q. c #80796E",
"w. c #7A8072",
"e. c #798274",
"r. c #7A8374",
"t. c #7E8274",
"y. c #7C8475",
"u. c #76807B",
"i. c #79847A",
"p. c #7E8778",
"a. c #78837D",
"s. c #7B867E",
"d. c #7E8B79",
"f. c #808374",
"g. c #848275",
"h. c #838576",
"j. c #828676",
"k. c #818878",
"l. c #828F7D",
"z. c #808D7F",
"x. c #898A7A",
"c. c #898D7C",
"v. c #8B8C7C",
"b. c #9A8574",
"n. c #908B7A",
"m. c #908B7B",
"M. c #9B8D7A",
"N. c #9C8F7C",
"B. c #86907E",
"V. c #87927F",
"C. c #86937F",
"Z. c #88927F",
"A. c #92917E",
"S. c #A0907C",
"D. c #A3947F",
"F. c #A4957F",
"G. c #717986",
"H. c #727E8A",
"J. c #778483",
"K. c #778791",
"L. c #7A8C93",
"P. c #829084",
"I. c #899480",
"U. c #8D9481",
"Y. c #8F9885",
"T. c #939380",
"R. c #949381",
"E. c #969883",
"W. c #959985",
"Q. c #979984",
"!. c #9F9B84",
"~. c #9C9C86",
"^. c #98A38B",
"/. c #A6AA8F",
/* pixels */
"                                                                                                                                ",
"                                                                                                                                ",
"                                                                                                                                ",
"                                                                                                                                ",
"                                                                                                                                ",
"                                                                                                                                ",
"                                                                                                                                ",
"                                                                                                                                ",
"                                                                                                                                ",
"                                                                                                                                ",
"                                                                                                                                ",
"                                                                                                                                ",
"                                                                                                                                ",
"                                                                                                                                ",
"                                                                                                                                ",
"                                                                                                                                ",
"                                                                                                                                ",
"                                                                                                                                ",
"                                                                                                                                ",
"                                                                                                                                ",
"                                                                                                                                ",
"                                                                                                                                ",
"                                                                                                                                ",
"                                                                                                                                ",
"                                                                                                                                ",
"                                                                                                                                ",
"                                                                                                                                ",
"                                                                                                                                ",
"                                                                                  s t                                           ",
"                                              7 r                 s t           S F.n.r                                         ",
"                                            - ` g.r             s S.n.r       i D./.f.<                                         ",
"                                              b ` 7       i     A ~.j.<       Z W.j.j                                           ",
"                                                -       D b.s l R.W.V       N x.t.x                                             ",
"                                                  <   i F.!.V 2.^.V./ j < N c.k.j                                               ",
"                                      y 7     s n I j l E.Z.#.d.l.i.u.:.y.U.V./ $                                               ",
"                                    r q.` d n M.A.+.-.6.d.e.>.2.a.9. .O.p.l.e./ 9 o     7 y                                     ",
"                                      r j K I 3.I.c.=.K.J.X./ <.L.0.T.N.Q { { X.E 9 > b ` q.r                                   ",
"                                          > > x / s.<.R J G G Y P.Y.V.O.` -.I H E X.&.*.b r                                     ",
"                                            X O q H.9.Y } #.o.#.w.#./ K Q 5.5.7.G.M < 6                                         ",
"                                                  8 4 % > > > > - @ @ @ @ % 3 4 8                                               ",
"                                                    .                         .                                                 ",
"                                                                                                                                ",
"                                                                                                                                ",
"                                                                                                                                ",
"                                                                                                                                ",
"                                                                                                                                ",
"                                                                                                                                ",
"                                                                                                                                ",
"                                                                                                                                ",
"                                                                                                                                ",
"                                                                                                                                ",
"                                                                                                                                ",
"                                                                                                                                ",
"                                                                                                                                ",
"                                                                                                                                ",
"                                                                                                                                ",
"                                                                                                                                ",
"                                                                                                                                ",
"                                                                                                                                ",
"                                                                                                                                ",
"                                                                                                                                ",
"                                                                                                                                ",
"                                                                                                                                ",
"                                                                                                                                "
};
