/* XPM */
static char *walking_left3[] = {
/* columns rows colors chars-per-pixel */
"64 64 197 2 ",
"   c None",
".  c #24323E",
"X  c #253440",
"o  c #333758",
"O  c #3B3F5E",
"+  c #3C3F5E",
"@  c #294C4C",
"#  c #2F4952",
"$  c #304B54",
"%  c #314C54",
"&  c #304C55",
"*  c #2C5150",
"=  c #2D5051",
"-  c #2D5251",
";  c #2D5552",
":  c #2D5455",
">  c #2E5557",
",  c #2D5757",
"<  c #2E5657",
"1  c #2F5854",
"2  c #2F5A55",
"3  c #2E5857",
"4  c #2E5658",
"5  c #2E5759",
"6  c #2E5958",
"7  c #305B56",
"8  c #315C57",
"9  c #315D58",
"0  c #315E58",
"q  c #325E58",
"w  c #335E58",
"e  c #335F5A",
"r  c #375F59",
"t  c #305E5F",
"y  c #326059",
"u  c #37615A",
"i  c #33615E",
"p  c #34625C",
"a  c #39615B",
"s  c #38625B",
"d  c #39625B",
"f  c #2F5960",
"g  c #2F5B60",
"h  c #2F5D62",
"j  c #305C62",
"k  c #305F64",
"l  c #356761",
"z  c #346562",
"x  c #356863",
"c  c #366A67",
"v  c #366B67",
"b  c #366B68",
"n  c #3D776A",
"m  c #376F73",
"M  c #387173",
"N  c #387175",
"B  c #40575E",
"V  c #4A5C60",
"C  c #4E676C",
"Z  c #57696B",
"A  c #407065",
"S  c #4A7A6B",
"D  c #48796C",
"F  c #448672",
"G  c #458876",
"H  c #478B77",
"J  c #498F79",
"K  c #48907D",
"L  c #49937E",
"P  c #4A937F",
"I  c #4A947D",
"U  c #4C957E",
"Y  c #71778D",
"T  c #438B82",
"R  c #4B9784",
"E  c #4E9B82",
"W  c #4D9B86",
"Q  c #4D9C87",
"!  c #4E9D87",
"~  c #4A998C",
"^  c #4A9A8E",
"/  c #4A9B8E",
"(  c #4B9E93",
")  c #4C9E91",
"_  c #4C9E92",
"`  c #50A185",
"'  c #51A185",
"]  c #50A087",
"[  c #53A187",
"{  c #51A289",
"}  c #51A38A",
"|  c #51A38B",
" . c #51A48A",
".. c #51A48B",
"X. c #52A58B",
"o. c #57A589",
"O. c #51A48C",
"+. c #52A58C",
"@. c #52A78F",
"#. c #54A88A",
"$. c #54A98A",
"%. c #53A88D",
"&. c #54A88C",
"*. c #54A98D",
"=. c #54A98E",
"-. c #54AA8E",
";. c #56AD8F",
":. c #56AE8F",
">. c #58AE8E",
",. c #57B08F",
"<. c #53A992",
"1. c #55AB90",
"2. c #54AA92",
"3. c #54AA93",
"4. c #55AC92",
"5. c #56AF93",
"6. c #52A994",
"7. c #53AA94",
"8. c #53AA95",
"9. c #53AB96",
"0. c #54AE97",
"q. c #50A899",
"w. c #55AF9B",
"e. c #51AB9E",
"r. c #51AC9E",
"t. c #51AC9F",
"y. c #59B391",
"u. c #59B593",
"i. c #5DBB97",
"p. c #5DBC96",
"a. c #5EBF99",
"s. c #6AA48B",
"d. c #69B595",
"f. c #66BD99",
"g. c #70B597",
"h. c #74BF9C",
"j. c #56B4A2",
"k. c #53B1A4",
"l. c #54B5AD",
"z. c #54B6AE",
"x. c #4FABB3",
"c. c #51AFB5",
"v. c #54B6B1",
"b. c #52B1B7",
"n. c #56BAB3",
"m. c #59BDB0",
"M. c #59BEB1",
"N. c #59BFB2",
"B. c #52B1B8",
"V. c #5FC09A",
"C. c #5FC19A",
"Z. c #60C29B",
"A. c #60C39B",
"S. c #60C39C",
"D. c #60C39D",
"F. c #60C49C",
"G. c #61C49C",
"H. c #61C69D",
"J. c #62C79E",
"K. c #62C89E",
"L. c #62C89F",
"P. c #63C89F",
"I. c #62C99F",
"U. c #63C99F",
"Y. c #63CA9F",
"T. c #7DC09C",
"R. c #5AC1B1",
"E. c #63CAA0",
"W. c #64CAA0",
"Q. c #64CBA0",
"!. c #65CCA1",
"~. c #69CDA2",
"^. c #6ACEA3",
"/. c #6ACFA4",
"(. c #6BCFA4",
"). c #6DD1A5",
"_. c #70D3A7",
"`. c #71D3A7",
"'. c #71D5A8",
"]. c #80C2A2",
"[. c #83C7A1",
"{. c #83D0A9",
"}. c #86D2AB",
"|. c #94DFB2",
" X c #A5D8AB",
".X c #A6DAAC",
"XX c #8AE5B6",
"oX c #8AE6B6",
"OX c #8EE7B8",
"+X c #8DE9B9",
"@X c #91ECBB",
"#X c #96EDBD",
"$X c #98EEBD",
"%X c #9CEEBD",
"&X c #97F0BF",
"*X c #98F2C0",
"=X c #99F2C0",
/* pixels */
"                                                                                                                                ",
"                                                                                                                                ",
"                                                                                                                                ",
"                                                                                                                                ",
"                                                                                                                                ",
"                                                                                                                                ",
"                                                                                                                                ",
"                                                                                                                                ",
"                                                                                                                                ",
"                                                                                                                                ",
"                                                                                                                                ",
"                                                                                                                                ",
"                                                                                                                                ",
"                                                                                                                                ",
"                                                                                                                                ",
"                                                                                                                                ",
"                                                                                                                                ",
"                                                                                                                                ",
"                                                            s q                                                                 ",
"                                                          s d.o.2                                                               ",
"                                                          q o.U ;                                                               ",
"                                                            2 ;                                                                 ",
"                                                                    7                                                           ",
"                                                                  7 F 7                                                         ",
"                                              u q q 8 ;             7                                                           ",
"                                          r D h.f.y.,.I p 6                                                                     ",
"                                        S [.|.$X+X'.!.a.O./ x 2                                                                 ",
"                                      s T. X.X%X&XXX^.I.D.5.Q / b                                                               ",
"                                      A s.V Z ].#X@X_.W.I.a.-.8.) c                                                             ",
"                                    q J # O Y C {.*XXX(.I.G.:.X.8.) c                                                           ",
"                                    y E % o + B }.*XXX(.I.I.a.%.} 8.( 6                                                         ",
"                                    q ,.[ $ % g.OXXX_.W.I.E.G.-.} 1.k.M                                                         ",
"                                    q u.G.[ :.^.).(.W.I.I.I.a.%.} O.M.B.h                                                       ",
"                                    2 [ #.H p.E.I.I.I.I.I.C.:.X.} } w.z.N                                                       ",
"                                    @ z n #.G.I.I.I.I.I.C.:.X.} } } O.M.b.k                                                     ",
"                                    : T Q p.G.A.A.A.D.a.:.X.} } } } } j.v.t                                                     ",
"                                      z K 5.1.-.-.-.-.%.} } } } } } 8.M.c.j                                                     ",
"                                        i / W [ X.X.X.O.<.1.1.1.1.0.R.n.m                                                       ",
"                                          : q G I K K R q.t.t.t.t.t.z.x.f                                                       ",
"                                              = = = = = : 4 4 4 4 4 4 f                                                         ",
"                                                X                   .                                                           ",
"                                                                                                                                ",
"                                                                                                                                ",
"                                                                                                                                ",
"                                                                                                                                ",
"                                                                                                                                ",
"                                                                                                                                ",
"                                                                                                                                ",
"                                                                                                                                ",
"                                                                                                                                ",
"                                                                                                                                ",
"                                                                                                                                ",
"                                                                                                                                ",
"                                                                                                                                ",
"                                                                                                                                ",
"                                                                                                                                ",
"                                                                                                                                ",
"                                                                                                                                ",
"                                                                                                                                ",
"                                                                                                                                ",
"                                                                                                                                ",
"                                                                                                                                ",
"                                                                                                                                ",
"                                                                                                                                "
};
