/* XPM */
static char *walking_down7[] = {
/* columns rows colors chars-per-pixel */
"64 64 160 2 ",
"   c None",
".  c #24333E",
"X  c #24333F",
"o  c #273947",
"O  c #283C4A",
"+  c #333758",
"@  c #3B3E5D",
"#  c #3B3F5D",
"$  c #3C3F5D",
"%  c #2B414E",
"&  c #2B474F",
"*  c #2C4750",
"=  c #2F4953",
"-  c #2F4B54",
";  c #304A51",
":  c #314C53",
">  c #334E56",
",  c #2D5351",
"<  c #2D5451",
"1  c #2E5354",
"2  c #2E5654",
"3  c #2E5557",
"4  c #2E5658",
"5  c #2E5758",
"6  c #2E5659",
"7  c #2F5759",
"8  c #2E565A",
"9  c #2F5958",
"0  c #2F585A",
"q  c #2F5B5B",
"w  c #2F585F",
"e  c #305955",
"r  c #305A56",
"t  c #305B56",
"y  c #315C57",
"u  c #305D5E",
"i  c #34635D",
"p  c #35655E",
"a  c #3A625B",
"s  c #38625C",
"d  c #305C62",
"f  c #346460",
"g  c #376A61",
"h  c #386B61",
"j  c #386B62",
"k  c #366B68",
"l  c #3A716A",
"z  c #3C7368",
"x  c #3E766C",
"c  c #376E70",
"v  c #386D77",
"b  c #47595E",
"n  c #415E63",
"m  c #466166",
"M  c #51696C",
"N  c #47786B",
"B  c #407C6D",
"V  c #507A6B",
"C  c #448173",
"Z  c #448672",
"A  c #458677",
"S  c #458978",
"D  c #468A78",
"F  c #46897A",
"G  c #488E7B",
"H  c #4B8F7B",
"J  c #498F7C",
"K  c #4B947E",
"L  c #72778E",
"P  c #73788E",
"I  c #4A9684",
"U  c #4C9785",
"Y  c #4E9983",
"T  c #4E9C82",
"R  c #4C9884",
"E  c #4D9B86",
"W  c #4D9C87",
"Q  c #489589",
"!  c #4C9A88",
"~  c #4A998C",
"^  c #4A9B8E",
"/  c #4B9D91",
"(  c #4C9F92",
")  c #4C9E93",
"_  c #4B9D94",
"`  c #4FA089",
"'  c #50A087",
"]  c #52A488",
"[  c #53A689",
"{  c #52A48A",
"}  c #52A58A",
"|  c #53A68B",
" . c #54A78A",
".. c #52A68D",
"X. c #53A78E",
"o. c #52A78F",
"O. c #54A98A",
"+. c #54A88D",
"@. c #54AA8D",
"#. c #55AB8D",
"$. c #55AA8F",
"%. c #56AD8D",
"&. c #56AD8E",
"*. c #57AF8F",
"=. c #5AAB8C",
"-. c #58B18F",
";. c #53AB94",
":. c #53AB95",
">. c #55AE97",
",. c #50AA9D",
"<. c #51AA9D",
"1. c #51AB9E",
"2. c #51AC9E",
"3. c #56B096",
"4. c #58B190",
"5. c #58B391",
"6. c #59B592",
"7. c #5DB592",
"8. c #5AB694",
"9. c #5EB794",
"0. c #55B099",
"q. c #57B298",
"w. c #56B19A",
"e. c #5DBC98",
"r. c #5EBE99",
"t. c #62AE92",
"y. c #62BA96",
"u. c #65BC99",
"i. c #77BE9F",
"p. c #7FBD9C",
"a. c #53B0A2",
"s. c #52B1A7",
"d. c #53B1A8",
"f. c #54B6AF",
"g. c #51B0B7",
"h. c #51B0B8",
"j. c #53B5BE",
"k. c #61C49C",
"l. c #5AC0B0",
"z. c #5BC5B9",
"x. c #5BC5BC",
"c. c #64CBA0",
"v. c #69CBA1",
"b. c #7DC6A1",
"n. c #6AD0A4",
"m. c #7ED1A8",
"M. c #82C5A0",
"N. c #82D1A8",
"B. c #87D1A9",
"V. c #95DAAD",
"C. c #A8DDAE",
"Z. c #88E3B5",
"A. c #8BE9B9",
"S. c #91E9B9",
"D. c #AFE1AF",
"F. c #B8F5BD",
"G. c #9AF2C0",
"H. c #A0F5C1",
"J. c #A9F6C1",
"K. c #C0F9C0",
/* pixels */
"                                                                                                                                ",
"                                                                                                                                ",
"                                                                                                                                ",
"                                                                                                                                ",
"                                                                                                                                ",
"                                                                                                                                ",
"                                                                                                                                ",
"                                                                                                                                ",
"                                                                                                                                ",
"                                                                                                                                ",
"                                                                                                                                ",
"                                                                                                                                ",
"                                                                                                                                ",
"                                                                                                                                ",
"                                                                                                                                ",
"                                                                                                                                ",
"                                                                                                                                ",
"                                                                                                                                ",
"                                                                                                                                ",
"                                                                                                                                ",
"                                                                                                                                ",
"                                                                                                                                ",
"                                                                                                                                ",
"                                                                                                                                ",
"                                                                                                                                ",
"                                                      t                                                                         ",
"                                                    t Z t                                                                       ",
"                                                      t                                                                         ",
"                                                              s s y t                                                           ",
"                                                        s a V M.N.u.] j ,                                                       ",
"                                                    t N b.V.D.F.H.A.n.6.K i 0                                                   ",
"                                                  g =.m.B.C.K.J.G.Z.7.*.8.` ~ k                                                 ",
"                                                j O.v.i.M b p.S.Z.t.n = A ] ;.( k                                               ",
"                                              p ] c.-.m P # : y.9.n L # O J ] ;./ 0                                             ",
"                                            < S #.k.4.> $ + - 4.&.; $ + % J ] q.d.u                                             ",
"                                            2 R ] &.r.Y * * G e.#.x o % C ' >.x.g.d                                             ",
"                                            5 Q W ..#.#. .T B G S z S U ..q.x.j.v                                               ",
"                                              1 f ~ R ..q.3.I l l ! l.z.a.s.h.v                                                 ",
"                                                  1 f / 2.1.1._ _ 1.f.g.c 0 w                                                   ",
"                                                      2 5 5 5 5 5 5 5 w                                                         ",
"                                                        X           X                                                           ",
"                                                                                                                                ",
"                                                                                                                                ",
"                                                                                                                                ",
"                                                                                                                                ",
"                                                                                                                                ",
"                                                                                                                                ",
"                                                                                                                                ",
"                                                                                                                                ",
"                                                                                                                                ",
"                                                                                                                                ",
"                                                                                                                                ",
"                                                                                                                                ",
"                                                                                                                                ",
"                                                                                                                                ",
"                                                                                                                                ",
"                                                                                                                                ",
"                                                                                                                                ",
"                                                                                                                                ",
"                                                                                                                                ",
"                                                                                                                                ",
"                                                                                                                                ",
"                                                                                                                                ",
"                                                                                                                                "
};
