/* XPM */
static char * 3_xpm[] = {
"48 48 191 2",
"  	c #3C3445",
". 	c #4C3B49",
"+ 	c #876366",
"@ 	c #996E6D",
"# 	c #976C6C",
"$ 	c #805E67",
"% 	c #694F62",
"& 	c #856062",
"* 	c #3F3039",
"= 	c #2D232E",
"- 	c #62484D",
"; 	c #56404B",
"> 	c #6C525B",
", 	c #7D5C65",
"' 	c #815E68",
") 	c #755665",
"! 	c #775862",
"~ 	c #533E4A",
"{ 	c #584147",
"] 	c #352933",
"^ 	c #43323B",
"/ 	c #674B51",
"( 	c #7C5B63",
"_ 	c #75555B",
": 	c #896469",
"< 	c #705464",
"[ 	c #674E62",
"} 	c #7F5D68",
"| 	c #825E62",
"1 	c #4C3945",
"2 	c #302630",
"3 	c #3B2D37",
"4 	c #694D52",
"5 	c #7C5B67",
"6 	c #91696B",
"7 	c #6C5163",
"8 	c #574046",
"9 	c #715464",
"0 	c #936A6D",
"a 	c #84616A",
"b 	c #5C444B",
"c 	c #836069",
"d 	c #8F686B",
"e 	c #483747",
"f 	c #7A5A64",
"g 	c #274448",
"h 	c #60474C",
"i 	c #453543",
"j 	c #644B5C",
"k 	c #896369",
"l 	c #3C2E38",
"m 	c #795A68",
"n 	c #5D4759",
"o 	c #305A55",
"p 	c #2D5552",
"q 	c #51A186",
"r 	c #56AC8D",
"s 	c #4A937D",
"t 	c #35655E",
"u 	c #39625B",
"v 	c #5CBB98",
"w 	c #5EBE99",
"x 	c #5AB492",
"y 	c #65BA97",
"z 	c #81CFA8",
"A 	c #7AC3A0",
"B 	c #49786B",
"C 	c #375E59",
"D 	c #775866",
"E 	c #478E7B",
"F 	c #54AA8D",
"G 	c #5FC19A",
"H 	c #63CA9F",
"I 	c #6BD1A5",
"J 	c #8CE9B9",
"K 	c #9AF4C1",
"L 	c #98EFBE",
"M 	c #91DCB0",
"N 	c #81C49E",
"O 	c #3A6F64",
"P 	c #51A48A",
"Q 	c #52A68E",
"R 	c #61C49C",
"S 	c #63CBA0",
"T 	c #6BCFA4",
"U 	c #8BE6B7",
"V 	c #97F0BF",
"W 	c #9EF2C0",
"X 	c #BBFCC1",
"Y 	c #BFFABF",
"Z 	c #8BCBA3",
"` 	c #8C666A",
" .	c #2F5955",
"..	c #4C977F",
"+.	c #5CBA96",
"@.	c #53A88C",
"#.	c #64CAA0",
"$.	c #70D3A7",
"%.	c #99F0BF",
"&.	c #A9F7C1",
"*.	c #C2FFC2",
"=.	c #B9F9C0",
"-.	c #7FC39E",
";.	c #385F5A",
">.	c #281F2B",
",.	c #3E796D",
"'.	c #4F9F86",
").	c #64CA9F",
"!.	c #71D3A8",
"~.	c #88E2B4",
"{.	c #84D1A9",
"].	c #8DD4AB",
"^.	c #A1F3BF",
"/.	c #8BDBB0",
"(.	c #447669",
"_.	c #2F5B5B",
":.	c #4B9D92",
"<.	c #51A38A",
"[.	c #60C39C",
"}.	c #5DA98E",
"|.	c #486368",
"1.	c #3F575E",
"2.	c #77BB9D",
"3.	c #84DBB0",
"4.	c #529881",
"5.	c #845F61",
"6.	c #5F4859",
"7.	c #7E5B60",
"8.	c #305C5C",
"9.	c #51AB9E",
"0.	c #54AB93",
"a.	c #64CCA1",
"b.	c #405C62",
"c.	c #71778D",
"d.	c #3C3F5D",
"e.	c #324D54",
"f.	c #559E84",
"g.	c #325254",
"h.	c #253D44",
"i.	c #7E5C60",
"j.	c #886363",
"k.	c #7B5A5E",
"l.	c #9B706F",
"m.	c #8F686C",
"n.	c #52B0A8",
"o.	c #55B19B",
"p.	c #58B190",
"q.	c #3B3E5C",
"r.	c #333758",
"s.	c #2F4C53",
"t.	c #4D9780",
"u.	c #2D5252",
"v.	c #946B6E",
"w.	c #886264",
"x.	c #315F64",
"y.	c #52B1B8",
"z.	c #59C0B3",
"A.	c #54AC95",
"B.	c #509D84",
"C.	c #2C474F",
"D.	c #4E9C82",
"E.	c #387174",
"F.	c #56B9B3",
"G.	c #57AF90",
"H.	c #54A98B",
"I.	c #2F5A60",
"J.	c #5DCCC6",
"K.	c #55AF98",
"L.	c #53A991",
"M.	c #407D6D",
"N.	c #4A9A8E",
"O.	c #2E5557",
"P.	c #386E78",
"Q.	c #54B4AC",
"R.	c #53B0A3",
"S.	c #5AC3B7",
"T.	c #469187",
"U.	c #356765",
"V.	c #564354",
"W.	c #2F585F",
"X.	c #2F5758",
"Y.	c #386E70",
"Z.	c #50A89A",
"`.	c #4B9883",
" +	c #418071",
".+	c #24333E",
"++	c #253540",
"@+	c #694F5B",
"#+	c #5A4657",
"$+	c #9C706F",
"%+	c #49363E",
"    . + @ # # $ % % % % % $ # # @ & * = = = = = = = * & @ # # # # # # # # - = = = = = = = = = = ",
"  ; > , ' ' $ ) % % % % % ) $ $ ' ! ~ ; { ] = = = ^ / ( ' $ $ $ $ $ $ $ $ _ - - ; . . { { ] = = ",
". > : < [ % % % % % % % % % % % % % % } | 1 ] 2 3 4 : < [ % % % % % % % % 5 6 6 5 % % } | 1 ] = ",
"+ , < 7 % % % % % % % % % % % % % % % 7 ) | 8 3 _ , < 7 % % % % % % % % % 7 9 9 7 % % 7 ) | { = ",
"@ ' [ % % % % % % % % % % % % % % % % [ 9 0 - ^ & a [ % % % % % % % % % % % [ [ % % % [ 9 0 - = ",
"# $ % % % % % % % % % % % % % % % % % % 9 : b * & c % % % % % % % % % % % % % % % % % [ 9 d - = ",
"# $ % % % % % % % % % % % % % % % % % % 7 < . * & c % % % % % % % % % % % % % % % % % [ 9 d - = ",
"$ ) % % % % % % % % % % % % % % % % % % % [ e ] { _ } 7 % % % % % % % % % % % % % % % % 7 f ; = ",
"% % % % % % % % % % % % % % % % % % % % 7 9 ~ = = { | 7 % % % % % % % % % % % % % % % % 7 < . = ",
"% % % % % % % % % % % % % % % g % % % % 9 : h = = ] i j 7 % % % % % % % % % % % % % % % 9 k b = ",
"% % % % % % % % % % % % % % % % % % % % 7 , { = = 3 . j 7 % % % % % % % % % % % % % % [ 9 6 - = ",
"% % % % % % % % % % % % % % % % % % % % % % . 2 3 ; 7 % % % % % % % % % % % % % % % % % 9 : b = ",
"% % % % % % % % % % % % % % % % % % % % % % e l _ f % % % % % % % % % % % % % % % % % % 7 < . = ",
"% % % % % % % % % % % % % % % % % % % % 7 5 ~ l _ m % % % % % % % % % % % % % % % % % % % % e = ",
"% % % % % % % % % % % % % % % % % % % [ 9 d - ] n 7 % % % % % % % % % % % % % % % % % % % % . = ",
"% % % % % % % % % % % % % % % % % % % [ 9 d - ] n 7 % % % % % % % % % % % % % % % % % % % % . = ",
"[ % % % % % % % % % % % % % % % % % % [ o o p l _ f [ % % % % % % % % % % % % % % % % % % % e = ",
"9 7 % % % % % % % % 7 < 7 % % % % % % o q r s t o u u 7 % % % % % % % % % % % % % % % % 7 < . = ",
"d , % % % % % % % % , : 7 [ % % % % % t r v w x y z A B C % % % % % % % % % % % % % % % 9 k b = ",
"- _ } 7 [ [ [ [ 7 } _ 4 , D [ [ [ 7 t E F G H I J K L M N B % % [ [ % % % % [ [ % % % [ 9 0 - = ",
"= { | ) 9 9 9 9 ) | 8 3 _ , 9 9 9 O P Q F R S T U V W X Y Z B 7 9 9 7 % % 7 9 9 7 7 9 9 ) | { = ",
"= ] 1 | 0 ` d 0 | 1 ] 2 3 4 6 6  ...+.F @.G H #.$.U %.&.*.=.-.;.6 6 5 % % 5 6 6 f 7 k 0 | 1 ] = ",
"= = 2 8 - h h - 8 2 >.= = ^ h h h ,.'.P P r R H ).!.~.{.].^./.(.h - ; e e ~ h - ; . b - 8 ] = = ",
"= ] * * l * * * * ^ l 3 3 ] 3 l _.:.Q <.<.F [.H H R }.|.1.2.3.4.p 3 ] 3 l ^ 3 2 = = = ] 3 2 = = ",
"= 8 & & 5.5.& 5.& & _ 6.6.n j 7.8.9.0.<.<.F G H a.r b.c.d.e.f.g.h.j n j i.j._ 3 = = = { _ l = = ",
"- k.@ l.m.c c c c c D 7 7 7 7 } 8.n.o.<.<.P r G a.p.e.q.r.s.t.u.h.7 % 7 } v.w.^ ^ - - _ , 4 ^ = ",
"# # # 6 f % % % % % % % % % % % x.y.z.A.P <.<.r G [.B.C.s.q R D.p % % % % } i.l b # 0 f 9 6 - = ",
"# @ 6 D 7 % % % % % % % % % % % % E.F.z.A.<.<.<.@.G.w H.B.w R <. .% % % % 7 j 3 h 0 f 7 9 6 - = ",
"# ` f 7 [ % % % % % % % % % % % % I.y.J.z.K.L.L.<.<.F q M.s A.N.O.% % % % % j ~ b > % [ 9 6 - = ",
"# $ % % % % % % % % % % % % % % % % P.y.Q.R.S.z.K.0.L.<.E ,.T.U.% % % % % % % % V.. j % < k b = ",
"# $ % % % % % % % % % % % % % % % % % W.X.Y.y.Q.9.9.Z.`.s  +8.% % % % % % % % % [ j [ % 7 < . = ",
"@ $ % % % % % % % % % % % % % % % % % % 7 5 W.X.X.X.O.u.u.u.% % % % % % % % % % % 7 % % % [ e = ",
"` 5 % % % % % % % % % % % % % % % % % % < k b .+& c 7 7 ++% % % % % % % % % % % % % % % 7 < . = ",
"9 7 % % % % % % % % % % % % % % % % % % 7 < . * & ' 7 k , % % % % % % % % % % % % % % % 9 : b = ",
"% % % % % % % % % % % % % % % % % % % % 7 5 ~ ^ & 0 , > @+% % % % % % % % % % % % % % [ 9 6 - = ",
"% % % % % % % % % % % % % % % % % % % % 9 : b 3 _ w.k.. V.% % % % % % % % % % % % % % [ 9 d - = ",
"% % % % % % % % % % % % % % % % % % % % 7 < . 2 3 * ^ #+[ % % % % % % % % % % % % % % [ 9 d - = ",
"$ ) % % % % % % % % % % % % % % % % % % % % . 2 i e . j 7 % % % % % % % % % % % % % % [ 9 d - = ",
"` , % % % % % % % % % % % % % % % % % % % % e 3 j 9 7 % % % % % % % % % % % % % % % % [ 9 d - = ",
"9 7 % % % % % % % % % % % % % % % % % % % % e l i.' % % % % % % % % % % % % % % % % % [ 9 d - = ",
"[ [ % % % % % % % % % % % % % % % % % % % % e ^ & a % % % % % % % % % % % % % % % % % [ 9 d - = ",
"9 7 % % % % % % % % % % % % % % % % % % 7 < . l i.} % % % % % % % % % % % % % % % % % [ 9 6 - = ",
"` 5 % % % % % % % % % % % % % % % % % % 9 k b 3 j 7 % % % % % % % % % % % % % % % % % [ 9 6 - = ",
"$+' [ % % % % % % % % % % % [ [ % % % [ 9 0 - 3 _ D [ [ % % % % [ [ % % % % [ [ D f #+> , 4 ^ = ",
"& 7.9 7 % 7 9 9 9 7 % % % 7 9 9 7 7 9 9 ) | 8 3 _ , 9 9 7 % % 7 9 9 7 % % 7 9 9 , k.V.> _ 3 = = ",
"* / : 9 [ < : 6 : < % % % 5 6 6 f < k 0 | 1 ] 2 3 4 6 6 , % % 5 6 6 5 % % 5 6 6 / 1 k./ 3 2 = = ",
"= ^ b . e . b - b . e . . ; - - ; . b - { ] = = = ^ - - ; . . ; - - ; . e ; - - ^ ] { %+= = = = ",
"= = = = = = = = = = = = = = = = = = = = = = = = = = = = = = = = = = = = = = = = = = = = = = = = "};
