/* XPM */
static char *b[] = {
/* columns rows colors chars-per-pixel */
"48 48 224 2 ",
"   c #2A212C",
".  c #2A212D",
"X  c #2B222D",
"o  c #2C222D",
"O  c #2C232D",
"+  c #2C232E",
"@  c #2D232E",
"#  c #2D232F",
"$  c #2D242E",
"%  c #2D242F",
"&  c #2E242F",
"*  c #2D2430",
"=  c #2E2430",
"-  c #2F2530",
";  c #2F2531",
":  c #2F2632",
">  c #302530",
",  c #302630",
"<  c #312630",
"1  c #322731",
"2  c #302632",
"3  c #322733",
"4  c #332833",
"5  c #342831",
"6  c #342832",
"7  c #322935",
"8  c #322936",
"9  c #332936",
"0  c #342834",
"q  c #372A34",
"w  c #362A36",
"e  c #372A37",
"r  c #372B37",
"t  c #382B35",
"y  c #382B37",
"u  c #392C37",
"i  c #3C2E37",
"p  c #3D2E37",
"a  c #322938",
"s  c #322A38",
"d  c #342B3A",
"f  c #352C39",
"g  c #352C3A",
"h  c #362C3A",
"j  c #372E3C",
"k  c #372E3D",
"l  c #372F3F",
"z  c #382B38",
"x  c #392C38",
"c  c #3A2C39",
"v  c #3A2D3A",
"b  c #3B2D3B",
"n  c #3B2E3A",
"m  c #3D2E38",
"M  c #3F2F38",
"N  c #3E2F39",
"B  c #3A2F3C",
"V  c #3B2F3C",
"C  c #3F3039",
"Z  c #39303F",
"A  c #3C303C",
"S  c #3E323E",
"D  c #403039",
"F  c #41313A",
"G  c #43323A",
"H  c #40313E",
"J  c #47353D",
"K  c #48363D",
"L  c #3A3140",
"P  c #3A3142",
"I  c #3A3242",
"U  c #3B3242",
"Y  c #3C3343",
"T  c #3C3344",
"R  c #3D3445",
"E  c #3E3545",
"W  c #3E3546",
"Q  c #3E3547",
"!  c #3F3647",
"~  c #3F3648",
"^  c #423342",
"/  c #433442",
"(  c #463540",
")  c #473640",
"_  c #443442",
"`  c #443443",
"'  c #453543",
"]  c #473644",
"[  c #483746",
"{  c #483747",
"}  c #4A3942",
"|  c #4D3A41",
" . c #4D3942",
".. c #493847",
"X. c #4A3847",
"o. c #4B3948",
"O. c #4C3A49",
"+. c #4D3A49",
"@. c #4F3B48",
"#. c #4F3C49",
"$. c #4F3C4B",
"%. c #503C4A",
"&. c #503D4A",
"*. c #543F48",
"=. c #503D4C",
"-. c #503D4D",
";. c #513D4D",
":. c #513E4D",
">. c #55404E",
",. c #594248",
"<. c #5A4248",
"1. c #5A4348",
"2. c #58414B",
"3. c #5B434A",
"4. c #5B444A",
"5. c #5C444A",
"6. c #5C444B",
"7. c #59434C",
"8. c #5A434D",
"9. c #5E454C",
"0. c #5F464C",
"q. c #5F464D",
"w. c #574252",
"e. c #574253",
"r. c #5B4556",
"t. c #5C4557",
"y. c #5C4657",
"u. c #5D4759",
"i. c #5E4758",
"p. c #5E4759",
"a. c #5F4759",
"s. c #5F4859",
"d. c #5F485A",
"f. c #60474D",
"g. c #63484D",
"h. c #64494E",
"j. c #654A4E",
"k. c #664B4F",
"l. c #644951",
"z. c #664B51",
"x. c #684C52",
"c. c #694D52",
"v. c #694D53",
"b. c #60485A",
"n. c #60495B",
"m. c #61495B",
"M. c #624A5B",
"N. c #674D59",
"B. c #654C5B",
"V. c #664C5B",
"C. c #634A5C",
"Z. c #644B5D",
"A. c #644B5E",
"S. c #644C5E",
"D. c #664D5F",
"F. c #684D59",
"G. c #684E5F",
"H. c #6E5054",
"J. c #765659",
"K. c #775659",
"L. c #74555B",
"P. c #77565A",
"I. c #72545D",
"U. c #75565D",
"Y. c #664D60",
"T. c #664D61",
"R. c #674E61",
"E. c #674E62",
"W. c #684E61",
"Q. c #684E62",
"!. c #684F62",
"~. c #694F62",
"^. c #684F63",
"/. c #694F63",
"(. c #6A4F62",
"). c #6A4F63",
"_. c #6A5063",
"`. c #6B5063",
"'. c #6C5163",
"]. c #6D5263",
"[. c #6E5262",
"{. c #6F5363",
"}. c #6A5064",
"|. c #6B5064",
" X c #6B5164",
".X c #6C5164",
"XX c #6E5264",
"oX c #6F5365",
"OX c #705364",
"+X c #705464",
"@X c #715464",
"#X c #725565",
"$X c #755764",
"%X c #755765",
"&X c #765766",
"*X c #7B5A63",
"=X c #7F5C60",
"-X c #7A5A64",
";X c #785967",
":X c #7C5B66",
">X c #7C5B67",
",X c #7E5C65",
"<X c #7F5D68",
"1X c #7F5E68",
"2X c #805D62",
"3X c #815E62",
"4X c #825E62",
"5X c #815F6A",
"6X c #856062",
"7X c #856162",
"8X c #896364",
"9X c #8B6465",
"0X c #836069",
"qX c #84616A",
"wX c #85616A",
"eX c #86626B",
"rX c #896469",
"tX c #89646A",
"yX c #8A646A",
"uX c #8F686B",
"iX c #936A69",
"pX c #90686B",
"aX c #936A6D",
"sX c #936B6D",
/* pixels */
"% h W W W W W W W W W W W a C 6X0X~.~.~.~.~.o.O O @.~.~.~.~.~.~.~.~.0X6XD a W W W W W W W W h % ",
"h h j W W W W W W W W W j } z.*X$X~.~.~.~.~.r.( 2 o.~.~.~.~.`.}.`.~.;XI.u a W W W W W W W j h h ",
"W j 7 Z Y Y W W W W W L : g.pX#XR.~.~.~.~.~.}.s.y X.`.~.~.~.n.p.n.R.}.n.( A Y W W W W W Z 7 j W ",
"W W Z 7 2 7 Y W W W W L : g.pX#XR.~.~.~.~.~.}.s.y X.`.~.}.n.H r H n.`.[.2X<.7 L W W W j 7 Z W W ",
"W W W j h h h L W W j V 4.K.:X[.~.~.~.~.~.~.}.p.r c :.R.t.$.6.*.$.Z.~.#XsXj.2 L W W W h 2 L W W ",
"W W W W W Y 7 h L L V | 2X1X~.~.~.~.~.~.~.~.XXB.c X r e.( m 6XwX~.~.~.#XrX0.: L W W Y h 7 Y W W ",
"W W W W W W Y h 2 2 4.2X$X[.~.~.~.~.~.~.~.~.1X=Xm X : r : C 6XwX~.~.~.`.OX@.2 L ~ Y 7 h Y W W W ",
"W W W W W W ~ h X O 8.5XXX~.~.~.~.~.~.~.~.R.wX8XD X O O J c.*X$X~.~.~.~.~.F.0.A h h h L W W W W ",
"W W W L L L L A i 2 ' s.s.Z.~.~.~.~.~.~.`.#X,XK.i X % % f.rX#X~.~.~.~.~.~.;XK.i X 2 L W W W W W ",
"W W Y 7 : : 2 0.K.m : r r :.~.~.~.~.~.~.#XrXc.i 2 O % % &.#X`.~.~.~.~.~.~.>.m 2 O 2 L W W W W W ",
"a a A 4.j.0.@.F.;X>.o.( % z :.R.t.o.o.o.&.f.K X O % % % c :.D.}.~.~.~.~.}.X.: ( 8.4.V j W W W W ",
"D u ( 2XsXrXOX~.~.~.}.C.( 5 r e.[ % O % % % % % % % % % O r e.D.~.~.[.[.n./ r s.5X2X| V L L T W ",
"6XI.n.[.#X#X`.~.~.~.~.[.2X<.: r 7 % % % % % % % % % % % % : r :.~.~.1X2X( : r s.XX$X2X4.: : j W ",
"0X;X}.}.~.~.~.~.~.~.~.XX1X<.X X O % % % % % % % % % % % % O O 8.;X>.<.<.2 D l.G.~.[.1XL.g.g.} a ",
"~.~.R.n.Z.~.~.~.~.~.~.~.~.>.m 2 % % % % % % % % % % % % % O % 6.K.m X 2 m H.pX#XR.~.~.:XpXpXz.C ",
"~.`.n.H $.~.~.~.~.~.~.~.~.;XK.m X % % % % % % % % % % % % % % r m 2 X i K.pXuX#XR.~.~.[.#X#X*X6X",
"~.}.p.r *.wXwX$XR.~.}.D.:.8.6.y O % % % % % % % % % % % % % % O X % O r 6.L.:X[.~.~.~.~.R.R.$X0X",
"~.`.n.H 6.6X6X*XOX`.D.e.r O % % % % % % % % % % % % % % % % % % % % % % % o.~.~.~.~.~.~.~.~.~.~.",
"~.~.~.n.$.m C c.rX#X:.r : O % % % % % % % % % % % % % % % % % % % % % % O o.~.~.~.~.~.~.~.~.~.~.",
"~.~.~.}.t.( : J f.&.c O % % % % % % % % % % % % % % % % % % % % % % % % % <.,X[.~.~.~.~.~.~.`.}.",
"~.~.~.~.R.e.r O % % % % % % % % % % % % % % % % % % % % % % % % % % % % % j.pX#XR.~.~.~.~.~.Z.s.",
"~.~.`.`.:.r : % O % % % % % % % % % % % % % % % % % % % % % % % % % % % % j.pX#XR.~.~.~.`.`.:.y ",
"X.X.X.[ c O % % % % % % % % % % % % % % % % % % % % % % % % % % % % % % % J c.,XwX;X>.X.@.@.c O ",
"y r c m r % % % % % % % % % % % % % % % % % % % % % % % % % % % % % % % % X i K.9XK.i X % % % % ",
"s.p.B.=X<.O O % % % % % % % % % % % % % % % % % % % % % % % % % % % % % % % 2 m D m 2 O % % % % ",
"}.}.XX1XB.$.0.j.<.5 X % % % % % % % % % % % % % % % % % % % % % % % % % % % % X X X % % % % % % ",
"~.~.~.~.~.#XrXsX2X| 5 % % % % % % % % % % % % % % % % % % % % % % % % % % % % % % % % % % % % % ",
"~.~.~.~.~.`.#X#X$X2X<.% % % % % % % % % % % % % % % % % % % % % % % % % % % % % % % % % % % % % ",
"~.~.~.~.~.~.~.R.#XsXj.O % % % % % % % % % % % % % % % % % % % % % % % % % % % % % % % % % % % % ",
"~.~.~.~.~.~.~.~.#XrX0.O % % % % % % % % % % % % % % % % % % % % % % % % % % % % % % % % % % % % ",
"~.~.~.~.~.~.~.~.`.OX&.% % % % % % % % % % % % % % % % % % % % % % % % % % % % % % % % % % % % % ",
"0X$XR.R.~.~.~.~.~.~.t.[ 7 O % X O % % % % % % % % % % % % % % % % % % % % % % % % % % % % % % % ",
"6X*X#X#X[.~.~.~.~.~.R.e.r X 2 i r % % % % % % % % % % % % % % % % % % % % % % % % % % % % % % % ",
"C z.pXpX:X~.~.~.~.~.:.r : X i K.6.% O % % % % % % % % % % % % % % % % % % % % % % % % % % % % % ",
"a } g.g.L.1X[.~.D.:.z 5 <.2.>.;X8.O O % % % % % % % % % % % % % % % % % % % % % % % % % % % % % ",
"W j : : 4.2X$XXXs.r : ( 2X1X~.~.:.r : % % % % % % % % % % % % % % % % % % % % % % % % % % % % % ",
"W T L L V | 2X5Xs.r ( n.[.[.~.~.D.e.r O % % % % % % % % % % % % % % % % % % % % % % % % % % % % ",
"W W W W j V 4.8.( : X.}.~.~.~.~.}.D.:.c % % % % % % % % % % % % % % % % % % % % % % % % % % % % ",
"W W W W W L 2 O 2 m >.~.~.~.~.~.~.`.#X&.% % % % % % % % % % % % % % % % % % % % % % % % % % % % ",
"W W W W W L 2 X i K.;X~.~.~.~.~.~.#XrXf.% % % % % % % % % % % % % % % % % % % % % % % % % % % % ",
"W W W W L h h h A 0.F.~.~.~.~.~.$X*Xc.J O O O % % % % % % % % % % % % % % % % % % % % % % % % % ",
"W W W Y h 7 Y ~ L 2 @.OX`.~.~.~.wX6XC : y z 2 % % % % % % % % % % % % % % % % % % % % % % % % % ",
"W W Y 7 h Y W W L : 0.rX#X~.~.~.wX6Xm ^ n.n.' % % % % % % % % % % % % % % % % % % % % % % % % % ",
"W W L 2 h W W W L : j.sX#X~.Z.$.*.6.$.r.XXXX@.% % % % % % % % % % % % % % % % % % % % % % % % % ",
"W W Z 7 j W W W L 7 <.2X[.`.n.H r H n.}.~.~.@.% % % % % % % % % % % % % % % % % % % % % % % % % ",
"W j 7 Z W W W W W Y A ( n.}.R.n.p.n.~.~.~.~.@.% % % % % % % % % % % % % % % % % % % % % % % % % ",
"h h j W W W W W W W a u I.;X~.`.}.}.~.~.~.~.@.% % % % % % % % % % % % % % % % % % % % % % % % % ",
"% h W W W W W W W W a D 6X0X~.~.~.~.~.~.~.~.@.% % % % % % % % % % % % % % % % % % % % % % % % % "
};
