/* XPM */
static char *B[] = {
/* columns rows colors chars-per-pixel */
"64 64 137 2 ",
"   c #2D242F",
".  c #2E2530",
"X  c #312732",
"o  c #332935",
"O  c #382B36",
"+  c #362C39",
"@  c #392F3D",
"#  c #3B303E",
"$  c #42333D",
"%  c #48363F",
"&  c #4B383F",
"*  c #3D3444",
"=  c #443543",
"-  c #493741",
";  c #463847",
":  c #4C3A44",
">  c #4D3B4A",
",  c #523D45",
"<  c #523E4B",
"1  c #523F50",
"2  c #54404D",
"3  c #5B444C",
"4  c #564152",
"5  c #5A4555",
"6  c #5F4857",
"7  c #5E4758",
"8  c #5F4859",
"9  c #61474D",
"0  c #63484E",
"q  c #604751",
"w  c #644A52",
"e  c #694E55",
"r  c #634A5B",
"t  c #6A4F5F",
"y  c #6E5156",
"u  c #6D5158",
"i  c #715257",
"p  c #74555A",
"a  c #78575B",
"s  c #7B595D",
"d  c #7A595C",
"f  c #7B5A5D",
"g  c #78585F",
"h  c #79585F",
"j  c #7A595E",
"k  c #7B595E",
"l  c #79595D",
"z  c #7C5A5D",
"x  c #7C5B5F",
"c  c #7D5B5F",
"v  c #7A595E",
"b  c #674E61",
"n  c #674E61",
"m  c #684E61",
"M  c #694F61",
"N  c #684F62",
"B  c #694F62",
"V  c #694F62",
"C  c #6A5060",
"Z  c #6A5061",
"A  c #695062",
"S  c #6B5162",
"D  c #6A5063",
"F  c #6D5262",
"G  c #6E5263",
"H  c #6E5264",
"J  c #6B5163",
"K  c #705462",
"L  c #715563",
"P  c #725564",
"I  c #735664",
"U  c #745765",
"Y  c #755765",
"T  c #765765",
"R  c #755766",
"E  c #765766",
"W  c #745665",
"Q  c #765866",
"!  c #775865",
"~  c #7D5B60",
"^  c #7E5C61",
"/  c #795964",
"(  c #795966",
")  c #795A67",
"_  c #7A5A67",
"`  c #7B5B67",
"'  c #7E5D66",
"]  c #7F5D66",
"[  c #7B5A65",
"{  c #7B5B68",
"}  c #7C5B68",
"|  c #7B5B68",
" . c #815D5F",
".. c #805D60",
"X. c #805E62",
"o. c #815E62",
"O. c #825E62",
"+. c #825F63",
"@. c #835F63",
"#. c #815E67",
"$. c #825F65",
"%. c #825F68",
"&. c #815F68",
"*. c #856166",
"=. c #856163",
"-. c #846069",
";. c #866268",
":. c #876268",
">. c #86626A",
",. c #866268",
"<. c #886368",
"1. c #886369",
"2. c #896369",
"3. c #88636A",
"4. c #896468",
"5. c #8B6568",
"6. c #8A6469",
"7. c #8A6569",
"8. c #8B656A",
"9. c #8C656A",
"0. c #8D666A",
"q. c #8D666B",
"w. c #8D676B",
"e. c #8E676A",
"r. c #8E676B",
"t. c #8F676B",
"y. c #8B656A",
"u. c #8F686A",
"i. c #8F686B",
"p. c #906869",
"a. c #91686A",
"s. c #966C6B",
"d. c #90696C",
"f. c #91696C",
"g. c #946B6C",
"h. c #986E6E",
"j. c #986D6D",
/* pixels */
"                                                                                                                                ",
"                  . o o o o o o o o o o o o o o .                 X o o o o o o o o o o o o o o o o o o . X o o o o X           ",
"            . .   o + @ @ @ @ @ @ @ @ @ @ @ @ @ o .     . .     . o + @ @ @ @ @ @ @ @ @ @ @ @ @ @ @ @ @ X o + @ @ + o . . .   . ",
"          . X o o + # * * * * * * * * * * * * * + o . . X X . . X + # * * * * * * * * * * * * * * * * * o o @ * * # + o o o o o ",
"          o @ * * * * * * * * * * * * * * * * * * @ o X + + o X + * * * * * * * * * * * * # + + * * * * o o @ * * * * * * * * * ",
"          o # * * * * * * * * * * * * * * * * * # @ + + + + o o * * * * * * * @ @ @ @ @ @ @ + + * * * * o o @ * * * * * * * * * ",
"        . o @ * + @ * * * * * * * * * * * * * * + + @ @ + o X o * * * * * * @ o o o o o o + @ # * * * * o o @ * * * * * * * * * ",
"      . X + @ * + + # * * * * * * * * * * * * * o o @ * + X . o * * * * * # + o o o o o o + # * * * * * o o @ * * * * * * * * * ",
"    . X + + + + @ * * * * * * * + o o o o + * * o o @ * * @ o o * * * * * * * * * * * * * * * * * * * * o o @ * * * * * * * * * ",
"  X o + * @ + o * * * * * * * + X . X o o @ * * o o @ * * @ o o * * * * * * * * * * * * * * * * * * * * o o @ * * * * * * * * * ",
"  o + # * @ + o * * * * * * @ X . X + @ @ * * * o o @ * * @ o o * * * * * * * * * * * * * * * * * * * * o o @ * * * * * * * * * ",
"  o @ * * # + + @ * * * * # + o o + # * * * * * o o @ * * @ o X + * * * * * * * * * * * * * * * * * * + X o @ * * * * * * * * * ",
"  o @ * * * * * + + @ * * * * * * * * * * * * * o o @ * * @ o . X + # * * * * * * * * * * * * * * # + X . o @ * * * * * * # + o ",
"  o @ * * * * * o o @ * * * * * * * * * * * * * o o @ * * * @ o X o @ * * * * * * * * * * * * * * @ o X o @ * * * * * * * * @ o ",
"  o @ * * * * * o + @ * * * * * * * * * * * * * o o @ * * * * @ X o @ * * * * * * * * * * * * * * @ o X @ * * * * * * * * * * @ ",
"  o @ * * * * * + + @ * * * * * * * * * * * * * o X + * * * * * o o @ * * * * * * * * * * * * * * @ o o * * * * * * * * * * * * ",
"  o @ * * * * * * @ + + * * * * * * * * * * * * o   X + * = = * o o @ * * # + o o o o + * * * * * @ o o * * * * + o o o o + # * ",
"  o @ * # # * * * @ o o @ @ @ + + @ * * * * @ + X     X + @ # @ . . o + + # = : : : : - # @ + + + + X X + + @ @ % : : % + X o + ",
"  o # * + + # * * @ o . o + + + + + * = = * + + .     X o + + o X X + + + - q p p a p 0 $ + + + + X . X o + + $ 0 p p 0 @ X X + ",
"  o # * + + # * * @ o     + # = = : < 2 2 < : $ o . . o # @ + + # - - $ $ < g 6.t.t.6.f 3 - % - - $ + o # $ - 3 f 6.6.p $ + @ - ",
"  o @ * * * * * * @ o     % w f f c ^ X.X.X.f w $ X X $ w 9 % $ w f c p r r t U U U U U f f f c c 0 % $ w f ~ f U U L r $ % 0 c ",
"  o @ * * * * * # + . X % 0  .s.s.a.6.:.:.t.u.X.3 $ O - f i , $ y =.<.' F B B B Z Z Z I ' :.<.<.=.w - % f u.t.' I t 5 < ; 2 i :.",
"  o @ * * * * * + . X # w  .a.h.h.t.%.( ( :.t.t.c 3 $ - c p , $ e ~ ( U H Z B b b b B F U ( } { ( 5 = - c t.:.U F 5 ; = < r L ( ",
"  o @ * * * * * o X # 3 X.d.d.6.6.#.I B B I #.<.X.w % $ p p 9 < r t Z B B B B B B B B B B B B B B 4 $ $ p ' U B B 5 : - r B Z B ",
"  o @ * + + * * o % 0 X.a.t.%.U U L F B B H I F 6 : + $ r T ~ g F Z B B B B B B B B B B B B B B B 4 $ $ r F F B B r r r b B B B ",
"  o # * o o @ * o : p g.g.6.Q Z Z Z B B B Z B r 4 ; = : r ( 6.6.Q F B Z Z Z D D D D D H U ( ( L r : @ # 5 B Z B B B B B B Z Z Z ",
"  o # * o o @ * o , a h.g.<.U B b B B B B B B r 7 5 5 5 r T <.6.U B b B B B B B b b B F ' <.:.g < @ + @ 4 b Z Z Z Z Z Z B B t b ",
"  o @ * + + # * o : a h.g.6.( B B B B B B B B B B Z Z t r e i p r 5 5 5 5 5 5 5 5 5 5 r p c f w $ X . + > r F U U L F B B r 5 5 ",
"  o @ * * * * * o : a g.g.6.Q B B B B B B B B B B Z Z r - $ $ $ $ @ + # # # # # # # # $ $ - % $ X .   X O < g 6.t.#.I B B 5 : + ",
"  o @ * * * * * + = w c t.<.( B B B B B B B B B B D B 5 @ X X X X X . X X X X X X X X X X X X X .       . % 9 p p p F D D 7 > # ",
"  o @ * * * * * # # - 3 +.<.( B B B B B B B B B B D B 5 + .                                               + $ : : 2 8 B B r 5 4 ",
"  o @ * * * * * * + + = f :.( B B B B B B B B B B D B 5 + .                                                       @ > 5 5 5 t F ",
"  . X o o + # * * + + = f :.( B B B B B B B B B B D B 5 @ X                                                       X + # # : 5 F ",
"  X o o o + + @ @ o + - c t.:.U H Z Z D Z Z Z B B Z B 7 : = # # # + X             X + $ $ $ $ @ X         X + + X . . X X + : 4 ",
"  o + @ @ + + o o . X % f t.t.' F t t B B B B B B B B t 5 5 5 5 5 > + . .   . . . + ; 5 5 5 5 > + X . . . + : > + X . X X + + # ",
"  o @ * * # + o o . X # w f c p r 5 5 5 5 7 r B B B B B B B Z Z B 5 : + X . . X + : 5 Z B Z B r - @ + + + : 5 r - @ @ # # # @ + ",
"  o @ * * * * * * @ o o $ % - $ $ @ + + # : 5 B B B B B B B B B B t 5 > + . . O > 7 b B B B B b r 5 5 5 5 7 t b r 5 5 5 5 5 5 5 ",
"  o @ * # * * * * @ o X o + + + - - % # $ > 7 B B B B B B B B B B B t 5 : + o + 5 r 7 5 r B Z B B B b B B B B B t B B B B B b b ",
"  o # * + @ * * * @ o X + + @ = w e q 4 4 5 r B B B B B B B B B B Z B t 5 ; + @ 5 5 > : 8 B Z B Z Z Z Z D Z Z B Z Z Z Z D D D D ",
"  o # * o o @ * * @ o o * * = < p ~ ( U U L F B B B B B B B B B B B B B B 5 : = 1 < ; ; r B Z B B B B B B B B B B B B B B B B B ",
"  o # * o o @ * * @ o o * * = : < w ^ 6.t.#.I B B B B B B B B B B B B B B r 5 < = ; < r t B B B B B B B B B B B B B B B B B B B ",
"  o # * o o @ * * * + + * * * = = 2 u =.a.u.%.I Z r 7 5 t B B b b B B B B B t 5 @ = q U F B b b B B B b b b B F U { { { { U F B ",
"  o # * o + @ * * * * # * * * * * ; 2 e =.a.r.%.L 5 > : r B Z Z Z Z Z Z Z H Z 5 @ - e #.I Z B B Z Z Z Z Z B Z I ' :.<.<.<.' I Z ",
"  o # * + + # * * * * * * * * * * * * : e X.t.t.#.6 $ $ r U Q U U U U U U Q U r $ % 0 f U U U U U U U U U U U U f f f f f ~ T U ",
"  o @ * * * * * * * * * * * * * * # + + $ 3 c g.u.y - $ p <.t.6.6.6.6.6.6.t.<.p $ + # 3 f 6.t.6.6.6.6.6.6.t.6.f 3 - = = = 3 f 6.",
"  o @ * * * * * * * * * * * * * # + + o + - w c a 3 $ # 0 p p p p p p p p a p 0 @ . X $ w p a p p p p p p p p 0 $ o . X o % 0 p ",
"  o @ * * * * * * * * * * * * * + + @ @ + * > 3 , % O + % : : : : : : : : : : % + .   + % : : : : : : : : : : % + .       + % : ",
"  o @ * * * * * * * * * * * * * + + # * * * * * + o X X X o o o o o o o o o X X .         . X o o o o o o o o o o o .     . o o ",
"  o @ * * * * * * * * * * # + + * * * * * * * * * @ o X + # * * * * * * * * @ + X .       o @ * * * * * * * * * * @ o     o @ * ",
"  o @ * * * * * * * * * # + X o * * * * * * * * * @ o o # * * @ # # @ # * * * # + X . . o @ * * * * * * * * * * * * @ o . o @ * ",
"  o @ * * * * * * * * * + X . o * * * * * * * * * @ o o * * @ o + + + + * * * * # + X X @ * * * * * * * * * * * * * * + X o @ * ",
"  o @ * * * * * * * * * + o . X + * * * * * * * * @ o o * * + o o o o + * * * * * @ o o * * * * * * * * * * * * * * * + X o @ * ",
"  o @ * * * * * * # + + @ + o . X + # * * * * * * @ o o * * * * * * * * * * * * * @ o o * * * * * * * * * * * * * # + X . o @ * ",
"  X + # * * * * # + + + * * @ o . X + # * * * * * @ o o * * * * * * * * * * * @ @ @ + + * * * * * * * @ @ * * * * * @ o . o @ * ",
"  . o + * * * * + + + # * * * @ o . X + * * * * * @ o o * * * * * * * * * * @ o o + @ # * * * * * * @ o o @ * * * * * @ o o @ * ",
"    . o * * * @ + + # * * * * * + o o + * * * * * @ o o * * * * * * * * * # + X . o @ * * * * * * # + o o + # * * * * * o o @ * ",
"    . o * # + + + * * * * * * * * * * * * * * * * @ o o * * * * * * * * * * * + X o @ * * * * * * * * * * * * * * * * * o o @ * ",
"    . X @ @ + + * * * * * * * * * * * * * * * * * @ o X @ @ @ # * * * * * * * * o o @ * * * * * * * * * * * * * * * * * o o @ * ",
"      . o + @ * * * * * * * * * * * * * * * * * * # o X o o + + * * * * * * * * o o @ * * * * * * * @ + * * * * * * * # o o @ * ",
"          o @ * * * * * * * * * * * * * * * * * * @ o X X o o + * * * * * * * + X o @ * * * * * * # + + * * * * * * * + X o @ * ",
"          . X o o o o + * * * * * * * * * * * * + o . X + * * * * * * * * # + X . o @ * * * * * * * * * * * * * * # + X . o @ * ",
"            . .     . o @ @ @ @ @ @ @ @ @ @ # @ o . . X + @ # @ @ @ @ @ @ + o .   o + @ @ @ @ @ @ @ @ @ @ @ @ @ @ + o . . o + @ ",
"                      . o o o o o o o o o o o o .     . o o o o o o o o o o X     X o o o o o o o o o o o o o o o o .     X o o ",
"                                                                                                                                "
};
