/* XPM */
static char *K[] = {
/* columns rows colors chars-per-pixel */
"64 64 131 2 ",
"   c #2E242F",
".  c #2F2530",
"X  c #312632",
"o  c #332935",
"O  c #382B36",
"+  c #362C39",
"@  c #3A2E3C",
"#  c #3C303D",
"$  c #42333E",
"%  c #48363F",
"&  c #3D3444",
"*  c #3F3648",
"=  c #443541",
"-  c #493741",
";  c #4D3A44",
":  c #4E3B4A",
">  c #503B44",
",  c #523E4A",
"<  c #55404F",
"1  c #5A434C",
"2  c #564151",
"3  c #5B4455",
"4  c #5F4856",
"5  c #5F4759",
"6  c #5F485A",
"7  c #60474D",
"8  c #63494E",
"9  c #644A54",
"0  c #6A4E55",
"q  c #634A5B",
"w  c #684E5D",
"e  c #6D5056",
"r  c #6E515B",
"t  c #75555A",
"y  c #78575C",
"u  c #79585C",
"i  c #7B595D",
"p  c #7B5A5D",
"a  c #79585E",
"s  c #7A595F",
"d  c #7D5B5E",
"f  c #7A595E",
"g  c #674D60",
"h  c #674E61",
"j  c #674E61",
"k  c #684E61",
"l  c #684F61",
"z  c #694F61",
"x  c #6A4F61",
"c  c #694F62",
"v  c #6A4F62",
"b  c #684E61",
"n  c #6A5062",
"m  c #6B5062",
"M  c #6A5063",
"N  c #6B5063",
"B  c #6D5162",
"V  c #6C5163",
"C  c #6C5164",
"Z  c #6E5364",
"A  c #6B5063",
"S  c #705361",
"D  c #715463",
"F  c #725462",
"G  c #725463",
"H  c #735563",
"J  c #775763",
"K  c #725464",
"L  c #725564",
"P  c #735664",
"I  c #755764",
"U  c #745665",
"Y  c #755665",
"T  c #755765",
"R  c #765765",
"E  c #735564",
"W  c #775863",
"Q  c #775865",
"!  c #775867",
"~  c #775865",
"^  c #7F5D61",
"/  c #785965",
"(  c #795966",
")  c #795967",
"_  c #7A5A66",
"`  c #7B5A66",
"'  c #7E5C66",
"]  c #7F5D66",
"[  c #7B5A66",
"{  c #7B5B68",
"}  c #825F61",
"|  c #805D66",
" . c #805E66",
".. c #815F67",
"X. c #805E66",
"o. c #805E68",
"O. c #825F69",
"+. c #825F68",
"@. c #846066",
"#. c #876367",
"$. c #866166",
"%. c #856168",
"&. c #866268",
"*. c #846068",
"=. c #886368",
"-. c #886369",
";. c #896369",
":. c #896468",
">. c #8A6468",
",. c #8A6469",
"<. c #8A6569",
"1. c #89646B",
"2. c #8A656A",
"3. c #8B656A",
"4. c #8C656A",
"5. c #8D666A",
"6. c #8D676B",
"7. c #8E676A",
"8. c #8F676A",
"9. c #8E676B",
"0. c #8B6469",
"q. c #916869",
"w. c #90686B",
"e. c #92696A",
"r. c #956C6B",
"t. c #91696C",
"y. c #946B6C",
"u. c #946C6C",
"i. c #986D6D",
"p. c #986E6D",
"a. c #996E6E",
/* pixels */
"                          .                                                         . .                                         ",
"o o X     X o o o o o o o o o o o o o o o o X     X o o o o o o o o o o o o X             X o o o o o o o o o o o o X . o o o o ",
"@ + o   . o + @ @ @ @ @ # # @ @ @ @ @ @ @ + o . . o + @ @ @ @ @ # # # # @ + o .         . o + @ @ @ @ # # # # @ @ + o X @ # @ # ",
"& @ o . X + # & & & & & & & & & & & & & & @ o . X + # & & & & & & & & & & & + X . . X o o + & & & & & & & & & & & @ o o & & & & ",
"& @ o X @ & & & & & & & + + # & & & & & & @ o X @ & & & & & & & + o o + & & & @ X o @ & & & & & & # + o o o o + & @ o o & & + o ",
"& @ o o & & & & & & & & + @ & & & & & & & @ o o & & & & & & & & + o o + & & & + X o @ & & & & & & & @ o o o o + @ + X o & & @ o ",
"& @ o o & & & & & & & & & & & & & & & & & @ o o & & & & & & & & @ @ @ # & & @ o . o @ & & & & & & & & @ @ @ @ @ o X . o & & & @ ",
"& @ o o & & & & & & & & & & & & & & & & & @ o X @ & & & & & & & & & & & & # + X . o @ & & & & & & & & & & & & & o . X + & & & & ",
"& @ o o & & & & & # + o o + # & & & & & & @ o . X o o o o + & & & & & & & & & @ X o @ & & & & & & & & & & & & & o X + & & & & & ",
"& @ o X @ & & & & & @ o o @ & & & & & & & @ + o o o o o o @ & & & & & & & & & & o o @ & & & & & & & & & & & & & o o @ & & & & @ ",
"& # o . o @ & & & & & @ @ & & & & & & & + + @ @ @ @ @ @ @ & & & & & & & & & & & o o @ & & & & & & & & & & & & & o o @ & & & @ o ",
"& # o . X + # & & & & & & & & & & & & & o o @ & & & & & & & & & & & & & & & & @ X X + & & & & & & & & & & & & @ X o @ & & # + o ",
"& @ o X @ & & & & & & & & & & & & & & & o o @ & & & & & & & & & & & & & & @ + X . . X + & & & & & & & & & # + X . o @ & & & & & ",
"& @ o X + & & & & & & & & & & & & & & & o o @ & & & & & & & & & & & & & & & @ o X X o + & & & & & & & & & & @ o . o @ & & & & * ",
"& # o . o @ & & & & & & & & & & & & & # o o # & & & & & & & & & & & & & & & & + X o + & & & & & & & & & & & & + X o @ & & & & * ",
"& @ o     o @ & & & & & & & & & & & # + X o @ & & & & & & & & & & & & & & & & @ X o @ & & & & & & & & & & & # + . X + & & & & & ",
"o X .     . X o o o o o o o o o o o o X X X X o o o o o o o o o o o o o o o o X . X X o o o o o o o o o o o o X . . X o o o o o ",
"; $ o         X $ ; > ; ; ; ; ; ; ; ; $ X   X o $ ; ; ; ; ; ; ; ; ; ; $ X                     X $ ; ; ; ; ; ; ; ; $ O o $ ; ; ; ",
"t 8 $ X X X X # 8 t u t t t t t t u t 8 # X X @ 8 t u t t t t t t u t 8 # .   X .     . X . . # 8 t u u t t t t t 1 $ $ 8 t u t ",
"5.s 1 = = $ - 1 s 3.5.3.3.3.3.3.3.t.e.} 1 # o $ t =.5.3.3.3.3.3.3.5.3.s 1 - $ $ o .   o $ $ - 1 } r.a.y.5.5.3.$.^ 9 ; , a 3.5.5.",
"T W s s s s s s J T T T T T T T T o.5.e.} 8 $ # q G T T T T T T T T T J s p s 9 $     $ 9 t p } e.a.a.5.| ( G w , ; < q V T T T ",
"m K ] =.=.=.$.| K m x m x x m m m T o.e.y.t ; @ 3 x C m m m m m m m m K | =.&.r $ X @ , y $.=.&.3.3.=.| K C x 3 @ $ 2 x x x m m ",
"x V T ( ( ( ( T V x g g g g g g g x G ] 5.t ; @ 2 w m g x x x x g g x V T { ( q $ @ ; 9 G ( ( ( Q Q T G m m w 2 @ $ 2 m x g g g ",
"x x x x x x x x x x x x x x g w q 3 3 q t 9 ; = , 4 w x x x x x x x x x x m g 3 # $ 2 m m x x x x x x x x w 9 2 > , 4 x x x g g ",
"x x g g g g g g g g g g x m x 6 ; @ @ # $ ; < , = ; 3 g g g x x g g g x x m g 3 @ $ 2 m x g g x x x g g g 3 ; ; 0 y D x x x g g ",
"x x x g g g x x g g x x x m x 6 ; = # $ $ : 6 6 : : 3 g g g x x g g g g x m g 3 @ # 2 x x g x x x x x x g 2 = $ u $.( x x x g g ",
"x x x g x x x x x g x x x x x q 3 2 2 2 2 4 q w 4 3 q g x x x x g g x x x M x 3 @ $ 2 x x x x x x x x x x 2 = = p =.( x x x x g ",
"x x x g x x x x x x g x x x x x x x x x x q 6 q w x x g x x x x g x x x x m x q ; ; 3 x x x x x x x x x x 3 : , a ] T g x x x x ",
"x x x x x x x x x x x x x x x x x x x m m 3 ; ; q x m x x g g g x x x x x x x w q 6 q x x x x x g g x x x q 6 q V C V g g g x x ",
"x x x x m m m m m m m m M M M m x x x x x 2 $ # 4 m C M m m m m x x x x g g g q 3 4 q x x x x x x x x x x x x x x x x g g x m m ",
"x x x x x x g g g x g x x x x x x x x x x 2 # @ 3 g m x g g g x x x x x x m x 6 ; : 4 m m x g g x g x x x x x m x x x x g x x x ",
"m m x g 6 3 3 3 3 3 3 3 3 3 3 6 w x m x x 2 # O : 3 4 3 3 3 3 6 g x M V K ( K q # $ 2 x m x g g g g x x g g x x x x x x x w 9 3 ",
"m M x 6 ; @ @ @ @ @ @ @ @ @ @ ; q x m x x 2 $ X O @ # # # @ @ ; q x C K | 5.3.t $ $ 2 x x x x x x x x x x x x g x x x x x 4 ; @ ",
"2 2 2 : O     o $ ; ; $ o     @ : 2 3 3 2 : @ . . X X X X X X @ : 2 3 4 e t t 8 @ = 2 m m m M m m m m V Q V q 4 w m M M m 3 = X ",
"$ = = @ X   . @ 8 t t 8 # .   X @ $ $ $ $ @ X                 X @ $ $ $ ; ; ; $ o $ 2 g g g x x x g x D | r , ; 4 x m x x 2 #   ",
"# # # # @ @ # , a 5.5.s 1 $ o                                                     @ : 3 3 3 3 3 3 3 3 q t 8 $ O : 3 4 3 3 : @   ",
"3 3 3 3 3 3 3 q V T T T s 8 $                                                     X o # # # # # # # @ # = # o X O @ # # # o X   ",
"x x g x g g x x x x V T 3.t ;                                                       . X X X X X X X X X X X . . . X X X X .     ",
"m m m m m m m m x g x T 5.t > X . .                                                                                             ",
"x x x x x x x x x x x K | t , @ @ o X                                                                                           ",
"x x x x x x x x x x x V C r q 3 3 : @                                                                                           ",
"( T V g g g x x x x x x x x m x x 2 $                                                                                           ",
"=.] K x m x x x x x x x x m m x x 2 $ . X X .                                                                                   ",
"s s J T T K V x x x x x m w q 3 3 : @ o # @ o                                                                                   ",
"= 1 y 3.5.| K x x x x m m 4 ; @ @ o o $ 9 8 $                                                                                   ",
"o = 9 t t s W T V x x w 4 ; @ o $ = = , y 0 -                                                                                   ",
"@ # = ; ; 7 t ] K m x q ; @ o @ 8 0 9 9 D 9 = X .                                                                               ",
"& # + o o $ 8 s T K m 3 @ X @ , a ] T x x 4 ; O X .                                                                             ",
"& & & & & # $ 1 s o.T 3 @ @ : q V D V x x w 4 : O X                                                                             ",
"& & & & & @ + = 9 e 9 : o $ 2 x x x x x g x w 4 ; @ X                                                                           ",
"& & & & & & @ & - - $ @ o = 3 m x x x x x x m w 4 : @                                                                           ",
"& & & & & & & & o . . o $ , 9 x x x x x x g x V K 9 =                                                                           ",
"& & & & & & & & o   X # 9 y G x x x x x x g m K *.e ;                                                                           ",
"& & & & & & & @ + o o $ 8 r V x x x x x x V K W y 7 $                                                                           ",
"& & & & & & @ + @ # & & - < q x x x x x x K ] W 1 $ o . .                                                                       ",
"& & & & & @ + + & & & & o = 4 K V x x x x ( =.s = o o O X .                                                                     ",
"& & & & + + @ & & & * & X % 0 *.K x g g x ( =.s = # ; : O .                                                                     ",
"& & & & o o @ & & & & & X ; t 5.T x g q 3 4 0 9 ; : 3 4 ; @ X                                                                   ",
"& & & & o o @ & & & & & o ; t 3.T m g 6 ; = = > < 6 w w 4 ; @ . .                                                               ",
"& & & @ + + # & & & & & + % 8 a V M x 6 ; @ @ ; q x m x x 4 ; O X .                                                             ",
"& # + + & & & & & & & & & & = , q x m w 6 3 3 6 g x x x x w 4 : O .                                                             ",
"@ @ + + & & & & & & & & & @ o $ 0 J D x x g x x x x x x g m x 3 @ X                                                             ",
"o + + # & & & & & & & & & @ o $ t ] T x m m m m x x g x g M x 4 # X                                                             ",
"  o @ & & & & & & & & & & @ O ; p &.( x x x x x x x x x g m g 3 # X                                                             "
};
