/* XPM */
static char *n[] = {
/* columns rows colors chars-per-pixel */
"64 64 126 2 ",
"   c #2E242F",
".  c #2F2530",
"X  c #312631",
"o  c #332935",
"O  c #362C3B",
"+  c #3A2E3B",
"@  c #3D303E",
"#  c #43333D",
"$  c #48363E",
"%  c #3D3445",
"&  c #463640",
"*  c #493742",
"=  c #4C3944",
"-  c #4C3A49",
";  c #503C46",
":  c #523D48",
">  c #57414C",
",  c #5C444B",
"<  c #574252",
"1  c #5B4556",
"2  c #5E4759",
"3  c #5F4859",
"4  c #60474D",
"5  c #62484E",
"6  c #644A53",
"7  c #6A4E55",
"8  c #614959",
"9  c #604858",
"0  c #634A59",
"q  c #644B5D",
"w  c #654C5E",
"e  c #654C5F",
"r  c #664D5F",
"t  c #644B5C",
"y  c #6D5057",
"u  c #6C5058",
"i  c #6F5158",
"p  c #70525A",
"a  c #765559",
"s  c #765659",
"d  c #77575A",
"f  c #74555D",
"g  c #75565C",
"h  c #74565D",
"j  c #77575C",
"k  c #77575D",
"l  c #77575E",
"z  c #74555B",
"x  c #7B595C",
"c  c #78585E",
"v  c #79585F",
"b  c #7A595F",
"n  c #7C5A5C",
"m  c #7C5A5D",
"M  c #7E5B5E",
"N  c #7C595C",
"B  c #664D60",
"V  c #674D61",
"C  c #674E62",
"Z  c #664D60",
"A  c #684E61",
"S  c #694E61",
"D  c #684E62",
"F  c #684F62",
"G  c #694F62",
"H  c #6A4F62",
"J  c #6A4F63",
"K  c #694F62",
"L  c #695063",
"P  c #6A5062",
"I  c #6B5062",
"U  c #6A5063",
"Y  c #6B5063",
"T  c #6D5261",
"R  c #6E5260",
"E  c #6C5162",
"W  c #6D5163",
"Q  c #6D5263",
"!  c #6E5262",
"~  c #6D5164",
"^  c #6D5264",
"/  c #6E5364",
"(  c #6C5163",
")  c #715462",
"_  c #775763",
"`  c #705464",
"'  c #715564",
"]  c #715565",
"[  c #725464",
"{  c #725564",
"}  c #735564",
"|  c #725565",
" . c #735565",
".. c #745665",
"X. c #745765",
"o. c #755765",
"O. c #745666",
"+. c #755666",
"@. c #755766",
"#. c #745665",
"$. c #775862",
"%. c #785862",
"&. c #795964",
"*. c #785865",
"=. c #795967",
"-. c #795A67",
";. c #7A5A67",
":. c #7B5A67",
">. c #7B5B67",
",. c #7F5D66",
"<. c #7F5D67",
"1. c #7C5B66",
"2. c #815E67",
"3. c #815E68",
"4. c #866167",
"5. c #826068",
"6. c #836068",
"7. c #866268",
"8. c #866268",
"9. c #886268",
"0. c #886269",
"q. c #886369",
"w. c #8B656A",
"e. c #8C656A",
"r. c #8C666B",
"t. c #8A6469",
/* pixels */
"                                                                                                                                ",
"                                                                                                                                ",
"                                                                                                                                ",
"                                                                                                                                ",
"                                                                                                                                ",
"                                                                                                                                ",
"                                                                                                                                ",
"                                                                                                                                ",
"                                                                                                                                ",
"                                                                                                                                ",
"                                                                                                                                ",
"                                                                                                                                ",
"                                                                                                                                ",
"                                                                                                                                ",
"                                                                                                                                ",
"                                                                                                                                ",
"                                                                                                                                ",
"                                                                                                                                ",
"                                                                                                                                ",
"                                                                                                                                ",
"                                                                                                                                ",
"                                                                                                                                ",
"                                                                                                                                ",
"                                                                                                                                ",
"                                                                                                                                ",
"                                                                                                                                ",
"                                                                                                                                ",
"                                                                                                                                ",
"                                                                                                                                ",
"@ @ # @ @ # @ + X                                                                                                               ",
"< < < < < < < - + X X X                                                                                                         ",
"S S S S S U S 8 : * $ # o                                                                                                       ",
"S S S S S S U Q l M x 7 # X                                                                                                     ",
"S S S S S S U ` ,.0.4.c , $ o                                                                                                   ",
"S S S S S S U Q @.=.=.=.l 4 #                                                                                                   ",
"S S S S S S S S S S U ` 3.i *                                                                                                   ",
"S S S S S S S S S S S ~ ` 9 #                                                                                                   ",
"S S S S S S S S S S S U U < #                                                                                                   ",
"S S S S S S S S S S S S S < @                                                                                                   ",
"S S S S S S S S S S S S S < @                                                                                                   ",
"S S S S S S S S S S S S S < @                                                                                                   ",
"=.@.~ S S S S S S S S S S 2 - + X                                                                                               ",
"7.,.` U U U U S S S S S S e 1 - + .       . .                                                                                   ",
"M c $.@.@.` Q S S S S S S V 3 - +     o # # o                                                                                   ",
"$ , l e.e.2.` S S S S S S 1 - + X     # 6 5 $                                                                                   ",
"o & 5 s s k %.@.Q S S e 1 - + o $ & & : l 7 &                                                                                   ",
"O @ & = = 4 l ,.` Q S 3 - + o # 6 7 0 8 ) 9 & .                                                                                 ",
"% % O o o & 6 c =.@.Q 1 + o + : l ,.@.S S 1 - + X .                                                                             ",
"% % % % % @ & , c 3.@.1 + + - 8 Q ` ~ S S e 1 - + .                                                                             ",
"% % % % % @ + & 6 i 9 - o @ > S U U U S S S V 1 - + X                                                                           ",
"% % % % % % @ @ & * $ + o & < U S S S S S U U e 1 - +                                                                           ",
"% % % % % % % % X     o # : 8 S S S S S S S S ~ ` 9 &                                                                           ",
"% % % % % % % @ X     # 7 l ) S S S S S S S U ` 5.i *                                                                           ",
"% % % % % % % O o o o # 6 p Q S S S S S S ~ ` $.l 4 #                                                                           ",
"% % % % % % O O O O % % * > 8 U U S S S S @.,.c , $ o . .                                                                       ",
"% % % % % O O O % % % @ X # 1 ` ~ U S S S >.0.M $ o o + + o X                                                                   ",
"% % % % O O O % % % % % o & y 5.` U S S S =.0.c $ + - 1 1 - +                                                                   ",
"% % % % o o O % % % % % o = s e.@.U S q 1 9 7 6 - - 1 U S < #                                                                   ",
"% % % @ o o % % % % % % o = s t.@.U S 8 - & * : > 2 e ~ U < #                                                                   ",
"% % % O O O % % % % % % O & 6 l Q U S 3 * @ @ * 3 S U S S < @                                                                   ",
"% % O O O % % % % % % % % % & : 8 S U V 3 1 1 3 V S S S S < @                                                                   ",
"@ O O O % % % % % % % % % @ O # 0 ) ~ S S S S S S S S S S < @                                                                   ",
"o O O % % % % % % % % % % O o # p ,.@.S U U U U S S S S S < #                                                                   ",
"  o @ % % % % % % % % % % O o $ M 7.=.S S S S S S S S S S < #                                                                   "
};
