/* XPM */
static char *x[] = {
/* columns rows colors chars-per-pixel */
"64 64 139 2 ",
"   c #2D232E",
".  c #2F2430",
"X  c #322631",
"o  c #342833",
"O  c #3C2D3A",
"+  c #3F303D",
"@  c #43333D",
"#  c #48363F",
"$  c #4B383F",
"%  c #453541",
"&  c #493743",
"*  c #4C3941",
"=  c #4B3C4D",
"-  c #503C43",
";  c #513F4E",
":  c #56414C",
">  c #5C444C",
",  c #554151",
"<  c #5A4454",
"1  c #5F4855",
"2  c #5C4759",
"3  c #5E485A",
"4  c #60474C",
"5  c #63484F",
"6  c #634A55",
"7  c #6B4F57",
"8  c #624A5B",
"9  c #6C5057",
"0  c #6D5159",
"q  c #745559",
"w  c #785659",
"e  c #7C5A5D",
"r  c #674E62",
"t  c #694F62",
"y  c #6A5063",
"u  c #695063",
"i  c #6C5162",
"p  c #6C5163",
"a  c #6D5163",
"s  c #6D5262",
"d  c #6D5263",
"f  c #6E5362",
"g  c #6E5263",
"h  c #6F5364",
"j  c #6B5163",
"k  c #715462",
"l  c #735562",
"z  c #705464",
"x  c #715464",
"c  c #715564",
"v  c #715565",
"b  c #725464",
"n  c #725564",
"m  c #735564",
"M  c #725565",
"N  c #735565",
"B  c #735664",
"V  c #735665",
"C  c #745665",
"Z  c #745765",
"A  c #755765",
"S  c #765765",
"D  c #755766",
"F  c #735664",
"G  c #765861",
"H  c #775863",
"J  c #765865",
"K  c #775865",
"L  c #775965",
"P  c #775866",
"I  c #775966",
"U  c #775864",
"Y  c #7A5960",
"T  c #785863",
"R  c #7C5C61",
"E  c #785966",
"W  c #795A67",
"Q  c #7D5C65",
"!  c #7E5C65",
"~  c #7D5C66",
"^  c #7E5C66",
"/  c #7F5D66",
"(  c #7F5D67",
")  c #7B5A65",
"_  c #7E5D68",
"`  c #7E5D68",
"'  c #805D5F",
"]  c #845F61",
"[  c #805E67",
"{  c #815E67",
"}  c #815F67",
"|  c #825F67",
" . c #815E67",
".. c #805D68",
"X. c #805E68",
"o. c #815F68",
"O. c #825F68",
"+. c #835F68",
"@. c #825F68",
"#. c #846061",
"$. c #826067",
"%. c #8D6666",
"&. c #8E6667",
"*. c #8E6667",
"=. c #826068",
"-. c #836068",
";. c #866268",
":. c #866168",
">. c #886369",
",. c #896469",
"<. c #8A6469",
"1. c #8B6569",
"2. c #8B656A",
"3. c #8C656A",
"4. c #8C656B",
"5. c #8D666A",
"6. c #8C666B",
"7. c #8E676A",
"8. c #8E676B",
"9. c #8F676B",
"0. c #8E676C",
"q. c #8B656A",
"w. c #906768",
"e. c #91686A",
"r. c #936A6A",
"t. c #946A6B",
"y. c #946B6B",
"u. c #956B6B",
"i. c #966C6B",
"p. c #946A6C",
"a. c #946B6C",
"s. c #956B6C",
"d. c #956C6C",
"f. c #966C6C",
"g. c #976C6C",
"h. c #966B6C",
"j. c #986D6D",
"k. c #986D6E",
"l. c #986D6D",
/* pixels */
"  * w g.g.j.s.,.C K >.g.g.R < = 3 t y t t r y C ,.j.g.e # X         X # e r.j.g.g.j.s.,.C y r t t r y C ,.s.j.g.g.j.r.e # X     ",
"* 4 e g.j.s.5.{ B B ~ ,.,.G 1 , 8 t y t t t y B o.,.>.e > @ o     o @ > #.r.5.,.,.,.>.{ B y t t t t y B { >.,.5.t.j.t.#.> @ o   ",
"w e %.g.g.5.{ B p p B K K p 8 3 8 t t t t t t p C K K G w > @     @ 4 e %.,.{ K K K K B p t t t t t t p B C E _ 5.s.g.5.e 4 @   ",
"g.g.g.s.5.{ B t t t t t t t t t t t t t t t t t t r y C ,.w *     * w s.5.{ B t t t t t t t t t t t t t t t t h o.5.s.j.j.w $   ",
"g.j.g.5.~ B p t t t t t t t t t t t t t t t t t t r y C 5.w *     * w 5.{ B p t t t t t t t t t t t t t t t y p h _ 5.j.j.w $   ",
"g.s.5.{ B y t t t t t t t t t t t t t t t t t t t t y B { 7 & o @ > w { C p t t t t t t t t t t t t t t t t t y t B _ 0.s.w *   ",
"g.5.{ B p t t t t t t t t t t t t t t t t t t t t t t p B 1 % + 5 w Y B p t t t t t t t t t t t t t t t t t t t t y B o.5.w *   ",
"g.,.K t t t t t t t t t t t t t t t t t t t t t t t y p h < % @ q ~ C t t t t t t t t t t t t t t t t t t t t t t t t B o.7 @   ",
"g.,.K t t t t t t t t t t t t t t t t t t t t t t t y B { 7 * @ 8 p p t t t t t t t t t t t t t t t t t t t t t t t y p h 1 @   ",
",.{ B t t t t t t t t t t t t t t t t t t t t t t t y C ,.w - @ 6 k h t t t t t t t t t t t t t t t t t t t t t t t y p B 1 @   ",
"K B p t t t t t t t t t t t t t t t t t t t t t t t y C ,.w - @ q ~ C t t t t t t t t t t t t t t t t t t t t t t t y B { 7 #   ",
"t t t t t t t t t t t t t t t t t t t t t t t t t t y B =.7 * # e -.E t t t t t t t t t t t t t t t t t t t t t t r y C ,.w *   ",
"t t t t t t t t t t t t t t t t t t t t t t t t t t y p B 1 % * e -.E t t t t t t t t t t t t t t t t t t t t t t r y C ,.w *   ",
"r t t t t t t t t t t t t t t t t t t t t t t t t t t y y , % @ q ~ C t t t t t t t t t t t t t t t t t t t t t t r y C ,.w *   ",
"y y t t t t t t t t t t t t t t t t t t t t t t t t t t t , @ @ 6 k h t t t t t t t t t t t t t t t t t t t t t t t y C ,.w *   ",
"C B p t t t t t t t t t t t t t t t t t t t t t t t t t t , @ O < t y t t t t t t t t t t t t t t t t t t t t t t t y B =.9 @   ",
",.{ B t t t t t t t t t t t t t t t t t t t t t t t t t t , @ O < t y t t t t t t t t t t t t t t t t t t t t t t t y h B 1 @   ",
"s.>.C t t t t t t t t t t t t t t t t t t t t t t t t p B 1 % @ 6 k B t t t t t t t t t t t t t t t t t t t t t t t t y y , +   ",
"j.,.K t t t t t t t t t t t t t t t t t t t t t t t y B { 7 * @ q ~ K t t t t t t t t t t t t t t t t t t t t t t t t t t , +   ",
"g.,.K t t t t t t t t t t t t t t t t t t t t t t r y C ,.w - @ q ~ C t t t t t t t t t t t t t t t t t t t t t t t t t t , +   ",
"g.,.K t t t t t t t t t t t t t t t t t t t t t t r y C ,.w - @ 8 p p t t t t t t t t t t t t t t t t t t t t t t t t t t , +   ",
"g.,.K t t t t t t t t t t t t t t t t t t t t t t t t B { 7 * O < t y t t t t t t t t t t t t t t t t t t t t t t t t t t , +   ",
"g.,.K t t t t t t t t t t t t t t t t t t t t t t t t p B 1 % O , r y t y t t t t t t t t t t t t t t t t t t t t t t y y , +   ",
"g.,.K t t t t t t t t t t t t t t t t t t t t t t t t t t , @ O = 8 p h p y t t t t t t t t t t t t t t t t t t t t y p B 1 @   ",
"g.,.K t t t t t t t t t t t t t t t t t t t t t t t t t t , @ X O : w o.B y t t t t t t t t t t t t t t t t t t t t y B =.9 @   ",
"j.5.{ B p t t t t r t t t t t t t t t t t t t t t t t p C 6 @   . - w 5.C t t t t t t t t t t t t t t r r t t t t t y C 5.w *   ",
"r.r.,.{ B p y y y y y y y t t t t t y y y t t y y y y B { 7 #     $ w ,.C y t t t t y y y y t t t t y y y t t y y y y C ,.w $   ",
"e #.%.5.{ K C C C C C B p y t t t p B B p t t p B C C G Y 5 @     @ 5 Y G B p t t p B C C B p t t p B C C B p p B C C G Y 5 @   ",
"# > e t.5.,.,.,.,.,.,.=.B y t t t C { =.B y t B o.5.,.Y : @ o     o @ : Y ~ C t t B { ,.5.{ B t t B { 5.,.{ B h { 5.,.Y : @ o   ",
"X @ > q q q q q q w q 7 1 , , , , 6 7 7 1 , , 1 7 w q 5 + X         X @ 5 7 1 , , 1 7 w w 7 1 , , 1 7 w w 7 1 < 7 w q 5 + X     ",
"  o @ * - - - - - - - * % @ @ @ @ % * * % % % % * - - @ X             o @ * % @ @ % * - - * % @ @ % * - - * % % * - * @ X       ",
"  o @ # # # @ @ @ @ @ @ @ O O O O @ @ # # # # # # * # @ o             o @ * $ @ @ @ @ @ @ O O @ @ @ # # # # @ @ @ @ @ @ o       ",
"  @ 5 e e e e q 8 6 q q 8 < < < < 6 q e e e e e e e w 6 @ X         X @ 6 e e q 8 6 q q 8 < < 8 q e e e e e e q 8 6 9 6 @ X     ",
"* 4 e t.d.r.,.~ p k Q ~ p t t t t k ~ -.-.-.-.-.-.>.-.Y > @ o     o @ > G -.>.~ p k Q ~ p r r p ~ -.>.-.-.>.-.~ p G ~ Y > @ o   ",
"w ' %.j.j.e.-.C p h C C p y y y y h C E E E E E E E E E e 4 @     @ 4 e E E E C p h C C p t t p C E E E E E E C p B K E e 4 @   ",
"g.g.g.s.5.{ B t t t t t t t t t t t t t t t t t t t y C ,.w *     * w ,.C y r t t t t t t t t t t t t t t t t t t t y C ,.w *   ",
"g.j.g.5.~ B p t t t t t t t t t t t t t t t t t t t y C 5.w *     * w 5.C y r t t t t t t t t t t t t t t t t t t t y C 5.w *   ",
"g.t.5.{ B y t t t t t t t t t t t t t t t t t t t t y C ,.w * o @ > w { B y t t t t t t t t t t t t t t t t t t t t y C ,.w *   ",
"g.5.{ B p t t t t t t t t t t t t t t t t t t t t t y C ,.w - @ 5 w Y B p t t t t t t t t t t t t t t t t t t t t t y C ,.w *   ",
"g.,.K t t t t t t t t t t t t t t t t t t t t t t t y C ,.q - # e ;.E t t t t t t t t t t t t t t t t t t t t t t t y C ,.w *   ",
"g.,.K t t t t t t t t t t t t t t t t t t t t t t r y C ,.q - # e -.E t t t t t t t t t t t t t t t t t t t t t t r y C ,.w *   ",
"g.,.K t t t t t t t t t t t t t t t t t t t t t t t y B { 7 * # e -.E t t t t t t t t t t t t t t t t t t t t t t t y B { 7 @   ",
"g.,.K t t t t t t t t t t t t t t t t t t t t t t t y p B 1 % # e -.E t t t t t t t t t t t t t t t t t t t t t t t y p B 1 @   ",
"g.,.K t t t t t t t t t t t t t t t t t t t t t t t y p h < % # e -.E t t t t t t t t t t t t t t t t t t t t t t t y h h 1 @   ",
"g.,.K t t t t t t t t t t t t t t t t t t t t t t t y B { 7 * # e -.E t t t t t t t t t t t t t t t t t t t t t t t y B o.7 @   ",
",.{ B t t t t t t t t t y y t t t t t t t t t t t t y C 5.w - # e >.E t t t t t t t t t t t t t t t t t t t t t t t y C ,.w *   ",
"K B p t t t t t t t t t t t t y y t t t t t t t t t y C ,.q - # e -.E t t t t t t t t t t t t t t t t t t t t t t t y C ,.w *   ",
"t t t t t t t t t t t r 8 8 p B p y t t t t t t t p B G Y 4 @ @ q ~ C t t t t t t t t t t t t t t t t t t t t t t t y B =.9 @   ",
"t t t t t t t t t y t 8 ; 1 G =.B y t t t t t t t C { Y : + o @ 8 p p t t t t t t t t t t t t t t t t t t t t t t t y p B 1 @   ",
"K B p t t t t t t y t 8 , < 0 G E k 8 2 2 2 2 2 2 8 0 7 = O o O < t y t t t t t t t t t t t t t t t t t t t t t t t t y y , +   ",
"-.~ B t t t t t t y t 8 3 < 1 6 Y w 6 = = = = = = , : : , & O O < t p t t t t t t t t t t t t t t t t t t t t t t t t t t , +   ",
",.o.C t t t t t t t t t t 3 , > w q 6 ; = = = = = = = ; 8 , % O < t p t t t t t t t t t t t t t t t t t t t t t t t t t t , +   ",
"C B p t t t t t t t t t t r 8 1 > 6 q G 8 8 3 3 3 3 3 8 r , @ O < t y t t t t t t t t t t t t t t t t t t t t t t t t t t , +   ",
"y t t t t t t t t t t t t y t 3 = , q _ p t t y t t t t t , @ @ 6 k h t t t t t t t t t t t t t t t t t t t t t t t t t t , +   ",
"y t t t t t t t t t t t t y t 3 = : 8 C p y y y y y y p y , @ @ q ~ C t t t t t t t t t t t t t t t t t t t t t t t t y y , +   ",
"C B p t t t t t t t t t t y t 8 ; , 3 t t t t t t t y h B 1 % # e -.E t t t t t t t t t t t t t t t t t t t t t t t y h B 1 @   ",
",.{ B t t t t t t t t t t t t r 8 8 r t t t t t t t y B o.7 * # e -.E t t t t t t t t t t t t t t t t t t t t t t t y B =.9 @   ",
"j.,.C t t t t t t t t r r t t t y t t r r t t t t t y C 5.w - # e 5.-.B p t t t t t t r r t t t t t t r r t t t t t y C 5.w *   ",
"g.,.K y y t t t t t y y y t t t y y y y t t t y y y y C ,.q - @ w 5.0.{ B y t t t t t y y t t t t t y y t t t y y y y C ,.w $   ",
"e e Y B h y t t t p B C C B p t t p B C C B p h B C C G Y 5 @ @ 6 ] 5.5.{ C p t t p B C C B p t t p B C C B p h B C C G Y 5 @   ",
"# > w $.B y t t t B { ,.,.{ B t t C o.,.,.{ C B o.5.,.Y : + X o @ > e t.5.{ B t t B { ,.,.{ B t t B { ,.,.{ C B o.5.,.Y : @ o   ",
"X @ > 7 1 , , , , 6 7 w w 7 6 , , 6 9 w w 7 6 1 7 w w 5 @ X     X @ 4 w w 7 6 , , 6 7 w w 7 6 , , 6 7 w w 7 6 1 7 w w 5 @ o     ",
"  o + @ @ + + + + @ # * * & @ + + @ % * * & @ @ @ * $ @ o         o @ $ * # @ + + @ & * * # @ + + @ # * * & @ @ @ * $ @ o       ",
"                                                                                                                                "
};
