/* XPM */
static char *X[] = {
/* columns rows colors chars-per-pixel */
"48 48 128 2 ",
"   c #2E242F",
".  c #2F2531",
"X  c #312732",
"o  c #342935",
"O  c #3A2D37",
"+  c #352C3A",
"@  c #3B2D39",
"#  c #3B303D",
"$  c #41313B",
"%  c #48363E",
"&  c #3E3545",
"*  c #3F3648",
"=  c #463542",
"-  c #483746",
";  c #4B3944",
":  c #4C3A49",
">  c #533E47",
",  c #513D4C",
"<  c #564047",
"1  c #584147",
"2  c #55404E",
"3  c #5B434A",
"4  c #574253",
"5  c #5B4555",
"6  c #5E4759",
"7  c #5F485A",
"8  c #60474D",
"9  c #64494D",
"0  c #644A51",
"q  c #694D52",
"w  c #634B5C",
"e  c #684D5A",
"r  c #684D59",
"t  c #684E5F",
"y  c #684D59",
"u  c #6E5054",
"i  c #765659",
"p  c #775659",
"a  c #74555B",
"s  c #77565A",
"d  c #72545D",
"f  c #75565D",
"g  c #75565F",
"h  c #75555B",
"j  c #78575B",
"k  c #674E61",
"l  c #674E62",
"z  c #674E62",
"x  c #684E61",
"c  c #684E62",
"v  c #684F62",
"b  c #694F62",
"n  c #684F63",
"m  c #694F63",
"M  c #6A4F62",
"N  c #6A4F63",
"B  c #684F63",
"V  c #6A5062",
"C  c #6A5063",
"Z  c #6B5063",
"A  c #6C5163",
"S  c #6D5262",
"D  c #6D5263",
"F  c #6E5262",
"G  c #6E5263",
"H  c #6F5363",
"J  c #6A5064",
"K  c #6B5064",
"L  c #6B5164",
"P  c #6C5165",
"I  c #6E5264",
"U  c #6F5364",
"Y  c #6F5365",
"T  c #6D5263",
"R  c #705364",
"E  c #705464",
"W  c #715464",
"Q  c #705465",
"!  c #725564",
"~  c #725565",
"^  c #755764",
"/  c #755765",
"(  c #745666",
")  c #765766",
"_  c #725564",
"`  c #7B5A63",
"'  c #7C5B63",
"]  c #7E5C60",
"[  c #7F5C60",
"{  c #7A5A64",
"}  c #785967",
"|  c #7C5B66",
" . c #7E5C65",
".. c #7F5D65",
"X. c #7D5C67",
"o. c #7F5C61",
"O. c #7F5D68",
"+. c #7F5E68",
"@. c #7F5D68",
"#. c #805D62",
"$. c #815E62",
"%. c #825E62",
"&. c #815E63",
"*. c #805E69",
"=. c #815F6A",
"-. c #825F69",
";. c #856062",
":. c #876267",
">. c #856062",
",. c #896363",
"<. c #8A6364",
"1. c #836068",
"2. c #836069",
"3. c #84616A",
"4. c #87636B",
"5. c #846069",
"6. c #896369",
"7. c #896469",
"8. c #89646A",
"9. c #8A646A",
"0. c #88636B",
"q. c #8F686B",
"w. c #8F686B",
"e. c #936A69",
"r. c #90686B",
"t. c #936B6D",
"y. c #936A6D",
"u. c #986D6D",
/* pixels */
"                                                  : b b b b b b b b 2.;.# + * * * * * * * * +   ",
"                                                  : b b b b Z K K b } g O + * * * * * * * + + + ",
"                                                  , E Z b k w 6 w k K w = # & * * * * & # o + * ",
"                                                  8 8.R b w $ o $ w Z H $.1 o & * * * + o + * * ",
"                                                  % q ..e : 3 > : w b E t.9 X & * * * + . & * * ",
"                                                    @ s 1 @ ;.3.b b b R 8.3 X & * * & + o & * * ",
"                                                    X @ X # ;.3.b b b Z R : X & * & o + & * * * ",
"                                                        % q ` / b b b b b e 3 # + + + & * * * * ",
"                                                        8 8.E b b b b b b { s @   X & * * * * * ",
"                                                        , E Z b b b b b b 2 @ X   X & * * * * * ",
"                                                        @ , t K b b b b K - . = 3 1 @ + * * * * ",
"                                                          o 4 t b b H H w = o 6 -.$.; @ & & * * ",
"                                                          . o , b b -.$.= . o 7 U / $.1 . . + * ",
"                                                              3 { 2 1 1 X $ 0 t k H +.a 9 9 ; + ",
"                                                              3 s @   X @ u r.E k b b | r.r.0 # ",
"                                                              o @ X   @ s r.q.E k b b H E E ` ;.",
"                                                                      o 3 f | H b b b b k k / 2.",
"                                                                          : b b b b b b b b b b ",
"                                                                          : b b b b b b b b b b ",
"                                                                          3 +.U b b b b b b b b ",
"              X O O O O O X                             X O O O O O @ @ X 1 ] t w b b b Z E E E ",
"              = 7 7 7 7 7 =                             = 7 7 7 7 7 f s @ X @ @ , b Z b R 8.r.q.",
": @     % 9 9 w K K K K K 5 : : 3 1 X   X 3 3 : : : : : 5 K K K K K 3.,.@ + = . @ - - - : 3 9 9 ",
"Z , o o 0 r.r.| b b b b b b b b +.$.= o % j ..R Z b b b b b b b b b +.$.= : w $ o o O O O o X   ",
"b t 7 7 t E E H b b b b b b b b U H w 7 5 % q 8.E b b b b b b b b b H H w w b w 6 6 6 6 7 6 =   ",
"b Z K K b k k k H +.w , w Z b b b b K U t : > 0 t b b b b b b b b b b b U K b Z K K K K K K 5 : ",
"b b b b b b b b H $.1 o 6 K b b b b b b b b : $ t U b b b b b b b b b k w w b b b b b b b b b b ",
"b b b b b b b K w = X o 7 K b b b b b b b b w t :...b b b b b b b b Z w $ : b b b b b b b b b b ",
"b b b K Z b b K 6 o O , w Z b b b b b b b b b E t.2.k b b b b b b b K 6 o - b b b b b b b b b b ",
"b b k w w b b U w @ - b b b b b b b b b b b b H $.' H Z b b b b b b U w @ - b b b b b b b b b b ",
"b K w # : b b +.] @ - b b b b b b b b b b b Z w = 0 0.R k b b b b b +.] @ - b b b b b b b b b b ",
"2.e : - 4 H +.t.,.$ > 2.2.3.+.H k k k b U +.3.g O 8 u.0.-.2.2.2.2.2.f 1 o 1 +.H k k k / ....-.2.",
";.1 O w E ^ $.,.s @ < ;.;.;.$.^ R W E t w ] ,.s @ > ;.;.%.%.%.%.;.;.1     1 $./ E E E 3.u.t.w.;.",
"$ X @ ] t.$.; @ @ X X $ $ @ ; $.t.w.r.0 O @ $ @ X X # $ # # # # # # X     X ; $.t.q.q.r.u.u.q # ",
"+ . X 1 9 1 @ o o . X + + + + 1 9 9 9 ; + + .   + + + + + + + + + o + + . . + 1 9 9 9 9 9 9 ; + ",
"* + X X . o & * & X + * * * & o . . . + * * + X & * * * * * * * * * * & X + & o X X X X X X + & ",
"* * & & & & * * & X + * * * * & & & & & * * + X & * * * * * * * * * * & X + * & & & & & & & + X ",
"+ & * * * * * & o   + * * * * * * * * * * * +   + & * * * * * * * * * & X X + * * * * * * * & + ",
"X + * * * * * +   X + * * * * * * * * * * * + X   + * * * * * * * * * & X   X & * * * * * * * * ",
"& * * * * * * + X + * * * * * * * * * * * * * + X + * * * * * * * * * & X   X & * * * * * * * * ",
"* * * * * * * + X & * * * * * * * * * * * * * & X + * + + + & * * * * & X   X & * * * * * * * * ",
"* * * * * * * + X & * * * & & & & & & & * * * & X + + X   o & * * * * & o   X & * * * * * * & & ",
"* * * * * * * + X & * * * + X X X X X + * * * & X . X   o & * * * * * * & o X & * * * * * * + X ",
"* * * * * * * + X & * & + + + + + + + & * * * & X o + + & * * * * * * * * + X & * * * * * * # + ",
"& & & & * * * + X & * & o + * * * * * * * * * + X + & * * * * * * * & & & + X # * * * * * * * * ",
"X X X X + * * + X & * * & & * * * * * * * * + X   . o & * * * * * * + X X .   X + * * * * * * * ",
"        o + + o . + + + + + + + + + + + + + o       . + + + + + + + X           o + + + + + + + ",
"                                                                                                "
};
