/* XPM */
static char *x[] = {
/* columns rows colors chars-per-pixel */
"48 48 123 2 ",
"   c #2D232E",
".  c #2F2430",
"X  c #302630",
"o  c #362935",
"O  c #3B2D37",
"+  c #3C2E38",
"@  c #3F3039",
"#  c #43333B",
"$  c #463646",
"%  c #483746",
"&  c #4B3946",
"*  c #413749",
"=  c #45394A",
"-  c #4C3A49",
";  c #543F49",
":  c #574047",
">  c #584147",
",  c #55404B",
"<  c #5C444B",
"1  c #544254",
"2  c #5E4955",
"3  c #5E4759",
"4  c #5E485A",
"5  c #60474C",
"6  c #63484D",
"7  c #664B52",
"8  c #694D52",
"9  c #634B5D",
"0  c #684F5E",
"q  c #6B515A",
"w  c #73545C",
"e  c #7B5A5C",
"r  c #674E62",
"t  c #694F62",
"y  c #6C5163",
"u  c #705364",
"i  c #705464",
"p  c #715464",
"a  c #725564",
"s  c #735564",
"d  c #745664",
"f  c #755764",
"g  c #755665",
"h  c #755765",
"j  c #775865",
"k  c #765866",
"l  c #775866",
"z  c #775967",
"x  c #7B5A63",
"c  c #7D5B60",
"v  c #7E5B60",
"b  c #7C5B63",
"n  c #7C5C61",
"m  c #7E5C60",
"M  c #785966",
"N  c #785967",
"B  c #7B5B66",
"V  c #7C5B66",
"C  c #7C5B67",
"Z  c #7E5C65",
"A  c #7D5C66",
"S  c #7F5D66",
"D  c #7E5C67",
"F  c #7E5D67",
"G  c #7F5D68",
"H  c #825E62",
"J  c #825E63",
"K  c #825F63",
"L  c #815F64",
"P  c #805E67",
"I  c #815E67",
"U  c #815F67",
"Y  c #825F68",
"T  c #846061",
"R  c #856061",
"E  c #846062",
"W  c #856062",
"Q  c #866162",
"!  c #876263",
"~  c #896363",
"^  c #8D6667",
"/  c #8F6767",
"(  c #836069",
")  c #846068",
"_  c #846168",
"`  c #846169",
"'  c #84616A",
"]  c #85616A",
"[  c #886369",
"{  c #896369",
"}  c #896469",
"|  c #89646A",
" . c #8C666A",
".. c #8D666A",
"X. c #8E676A",
"o. c #8F676A",
"O. c #8E676B",
"+. c #8F676B",
"@. c #8F686A",
"#. c #8F686B",
"$. c #926969",
"%. c #90686B",
"&. c #91696B",
"*. c #92696B",
"=. c #946A6B",
"-. c #946B6B",
";. c #90686C",
":. c #91696D",
">. c #936A6D",
",. c #946B6C",
"<. c #956C6C",
"1. c #966C6C",
"2. c #976C6C",
"3. c #976D6C",
"4. c #966C6D",
"5. c #976C6D",
"6. c #976D6D",
"7. c #986D6C",
"8. c #986D6D",
"9. c #996E6D",
"0. c #9A6F6E",
"q. c #9B706F",
"w. c #9C706F",
/* pixels */
"  5 2.2.8...i F 2.2.q = 9 y t t r i ..w.W @         @ W 8.2.2.8...i r t t r i ..8.2.2.8.W @     ",
"5 e 2.8...V y d P P 0 1 9 t t t t y F Y x 7 #     # 8 / ..P P P V y t t t t y V P ] -.8./ 8 #   ",
"2.2.2.%.B t t t t t t t t t t t t t t r i %.6     6 2.%.B t t t t t t t t t t t t y { -.8.8.5   ",
"2.8.%.j y t t t t t t t t t t t t t t r i %.6     6 %.B y t t t t t t t t t t t t y y ] 8.8.5   ",
"2...B y r t t t t t t t t t t t t t t t y B ; o > w V y t t t t t t t t t t t t t t r i ] ,.6   ",
"2.P t t t t t t t t t t t t t t t t t t y y - + m G t t t t t t t t t t t t t t t t t r u { <   ",
"2.P t t t t t t t t t t t t t t t t t t i { < O 9 y t t t t t t t t t t t t t t t t t t y y -   ",
"P d t t t t t t t t t t t t t t t t t r i %.6 O w j t t t t t t t t t t t t t t t t t t y B ,   ",
"t t t t t t t t t t t t t t t t t t t t i } < @ W ( t t t t t t t t t t t t t t t t t r i #.6   ",
"t t t t t t t t t t t t t t t t t t t t y u - # W ( t t t t t t t t t t t t t t t t t r i #.6   ",
"r t t t t t t t t t t t t t t t t t t t t t % + w j t t t t t t t t t t t t t t t t t r i %.6   ",
"i y t t t t t t t t t t t t t t t t t t t t & o 3 y t t t t t t t t t t t t t t t t t t i } <   ",
"..V t t t t t t t t t t t t t t t t t t t t & o 3 y t t t t t t t t t t t t t t t t t t y u -   ",
"8.P t t t t t t t t t t t t t t t t t t y V ; + w B t t t t t t t t t t t t t t t t t t t t &   ",
"2.P t t t t t t t t t t t t t t t t t r i #.5 + m G t t t t t t t t t t t t t t t t t t t t -   ",
"2.P t t t t t t t t t t t t t t t t t r i %.6 O 9 y t t t t t t t t t t t t t t t t t t t t -   ",
"2.P t t t t t t t t t t t t t t t t t t y V , o 4 y t t t t t t t t t t t t t t t t t t t t &   ",
"2.P t t t t t t t t t t t t t t t t t t t t & o 1 t y y t t t t t t t t t t t t t t t t y u -   ",
"2.P t t t t t t t t t t t t t t t t t t t t -   o 7 } u t t t t t t t t t t t t t t t t i } <   ",
"8...B y r t r r t t t t t t t t t t t r y G <     6 >.i r t t t t r t t t t r r t t t r i >.6   ",
"W / %.B i i i i i y t t t y i y t y u i d J >     > J d y t t y i i y t t y i i y y i i d J >   ",
"@ 8 2.%...#.#.%.} u t t t F } i r u { >.J & o     o & J G t t V %.%.V t t V %.%.B y { >.J & o   ",
"  # < 5 5 5 5 6 < - % & & , < - $ - < 6 : X         o : , % & ; 5 6 , & % ; 5 5 ; - < 6 : X     ",
"  o @ @ @ + O O + O o o o O @ @ @ @ @ # + X         X + # + O O + O o O + @ @ @ @ + O O + X     ",
"  : W W W c 9 w m 9 3 3 3 w W W W W W W w +         + w ~ m 9 w m 9 3 9 m W W W W m 9 w w +     ",
"6 e 8.q.>.G y j G y y y y j ( ( ( ( ( ] F 8 #     # 8 F ] G y j G y t y G ] ( ( ] G y B F 8 #   ",
"2.2.2.%.B t t t t t t t t t t t t t t r i %.6     6 %.i r t t t t t t t t t t t t t t r i %.6   ",
"2.8.%.j y t t t t t t t t t t t t t t r i %.6     6 %.i r t t t t t t t t t t t t t t r i %.6   ",
"2...B y r t t t t t t t t t t t t t t t i #.6 o > w V y t t t t t t t t t t t t t t t t i #.6   ",
"2.P t t t t t t t t t t t t t t t t t r i #.5 @ W ( t t t t t t t t t t t t t t t t t t i #.6   ",
"2.P t t t t t t t t t t t t t t t t t r i #.5 @ W ( t t t t t t t t t t t t t t t t t r i #.6   ",
"2.P t t t t t t t t t t t t t t t t t t y B ; @ W ( t t t t t t t t t t t t t t t t t t y B ,   ",
"2.P t t t t t t t t t t t t t t t t t t y y - @ W ( t t t t t t t t t t t t t t t t t t y y -   ",
"2.P t t t t t t t t t t t t t t t t t t i { < @ W ( t t t t t t t t t t t t t t t t t t i { <   ",
"P d t t t t t t t y t t t t t t t t t r i >.6 @ W ] t t t t t t t t t t t t t t t t t r i %.6   ",
"t t t t t t t t t 9 t u y t t t t t t y d J : + m G t t t t t t t t t t t t t t t t t t i } <   ",
"t t t t t t t y 9 - q } u t t t t t t G J & X O 9 y t t t t t t t t t t t t t t t t t t y i -   ",
"P d t t t t t y 9 1 2 q F q 1 1 1 1 1 2 7 - O o 3 y t t t t t t t t t t t t t t t t t t t t -   ",
"..F t t t t t t t t 1 , m q - = = = = = - 9 - o 3 y t t t t t t t t t t t t t t t t t t t t -   ",
"i y t t t t t t t t r 4 , q P 0 9 9 9 9 9 t & o 3 y t t t t t t t t t t t t t t t t t t t t -   ",
"r r t t t t t t t t y 9 * 2 G y t y y y y t % O w j t t t t t t t t t t t t t t t t t t t t &   ",
"i y t t t t t t t t y 9 - 1 t t t t t t y u - @ W ( t t t t t t t t t t t t t t t t t t y u -   ",
"..V t t t t t t t t t t 9 r t t t t t t u { < @ W ( t t t t t t t t t t t t t t t t t t i } <   ",
"w.Y r t t t t t r r t t y t r r t t t r i >.6 @ W >.B y r t t t r r t t t t r r t t t r i >.6   ",
"W c i y t t t y i i y t t y i i y y i i d J : + w %.%.B y t t y i i y t t y i i y y i i d J >   ",
"@ 7 } i t t t V %.%.V t t F %.%.B u { >.J & X X + 8 2.%.V t t V %.%.V t t V %.%.B u { >.J & o   ",
"  # < - & - - , 6 6 , - - , 6 6 , - < 6 > o       # 5 6 , - - , 6 6 , - - , 6 6 , - < 6 > o     ",
"                                                                                                "
};
