/* XPM */
static char *y[] = {
/* columns rows colors chars-per-pixel */
"64 64 145 2 ",
"   c #2D232E",
".  c #2F2530",
"X  c #322632",
"o  c #352833",
"O  c #392C35",
"+  c #3C2E3B",
"@  c #3F303C",
"#  c #43333D",
"$  c #49373F",
"%  c #4B383F",
"&  c #453541",
"*  c #493740",
"=  c #4D3941",
"-  c #4C3D4D",
";  c #503C43",
":  c #54414E",
">  c #5C444C",
",  c #554151",
"<  c #5C4554",
"1  c #5D4855",
"2  c #5A4659",
"3  c #5C4858",
"4  c #61474D",
"5  c #63484F",
"6  c #604754",
"7  c #644A54",
"8  c #6B4E56",
"9  c #624A5A",
"0  c #694F5D",
"q  c #6C5057",
"w  c #6D515A",
"e  c #735457",
"r  c #75555A",
"t  c #78575B",
"y  c #7B595D",
"u  c #674E62",
"i  c #6A4F62",
"p  c #694F62",
"a  c #694F62",
"s  c #6A5062",
"d  c #6B5062",
"f  c #6A5063",
"g  c #6B5063",
"h  c #6B5163",
"j  c #6C5163",
"k  c #6D5163",
"l  c #6D5262",
"z  c #6D5263",
"x  c #6E5263",
"c  c #6F5363",
"v  c #6F5364",
"b  c #6F5365",
"n  c #6B5163",
"m  c #725563",
"M  c #775760",
"N  c #755662",
"B  c #705364",
"V  c #705464",
"C  c #715464",
"Z  c #725564",
"A  c #735564",
"S  c #735565",
"D  c #735664",
"F  c #735665",
"G  c #745664",
"H  c #745665",
"J  c #755665",
"K  c #755765",
"L  c #755766",
"P  c #735664",
"I  c #775860",
"U  c #775864",
"Y  c #765865",
"T  c #775865",
"R  c #775866",
"E  c #775865",
"W  c #7A5960",
"Q  c #7A5A60",
"!  c #795963",
"~  c #7A5A62",
"^  c #7B5B63",
"/  c #795964",
"(  c #7B5B65",
")  c #795966",
"_  c #795A67",
"`  c #7A5A67",
"'  c #7D5C66",
"]  c #7E5C66",
"[  c #7E5D66",
"{  c #7F5D66",
"}  c #7E5D67",
"|  c #7B5A65",
" . c #7F5D68",
".. c #815E5F",
"X. c #835F61",
"o. c #805D67",
"O. c #805E67",
"+. c #815E67",
"@. c #815F67",
"#. c #825F67",
"$. c #815E66",
"%. c #805D68",
"&. c #805E68",
"*. c #825F68",
"=. c #835F68",
"-. c #825F68",
";. c #866167",
":. c #856167",
">. c #8E6767",
",. c #8F6767",
"<. c #836068",
"1. c #866268",
"2. c #876268",
"3. c #876269",
"4. c #876369",
"5. c #856168",
"6. c #896469",
"7. c #8A6469",
"8. c #8B6469",
"9. c #8A646A",
"0. c #8B656A",
"q. c #8C656A",
"w. c #8C656B",
"e. c #8D666A",
"r. c #8E676A",
"t. c #8E676B",
"y. c #8B656A",
"u. c #8F686A",
"i. c #916869",
"p. c #91696B",
"a. c #936A6A",
"s. c #946B6B",
"d. c #956B6B",
"f. c #966C6B",
"g. c #946B6D",
"h. c #966C6C",
"j. c #976C6C",
"k. c #976D6C",
"l. c #976D6D",
"z. c #956B6B",
"x. c #996E6D",
"c. c #9A6F6D",
"v. c #996E6E",
"b. c #9A6F6E",
"n. c #996E6E",
/* pixels */
"          = t k.k.k.k.k.k.6.T i i / 1.y % o                       = t k.k.6.T i i T 1.6.L i i L 6.1./ L 6.k.v.k.k.v.s.y % o     ",
"      o # > y 6.6.6.6.6.6.o.L i i L { y > = % = = = % # o     o # > y 6.6.o.L i i L o.o.Z i i Z o.{ L Z o.6.w.w.s.v.k.X.> # X   ",
"    o # 5 r ! T T T T T T L j i i j Z N r t t t t t e 5 # o o + 5 r ! T T L j i i j Z Z j i i j Z Z j j Z L T { w.k.k.>.y 4 #   ",
"  o # : ! o.L i i i i i i i i i i i i v o.6.6.6.6.p.p.X.: @ o # e { L i i i i i i i i i i i i i i i i i i i i v o.w.s.k.k.t %   ",
"  # 5 ! / Z j i i i i i i i i i i i i j Z L L L L &.w.p.X.5 # # 9 j j i i i i i i i i i i i i i i i i i i i i g j { w.k.v.t %   ",
"  % e 6.T j i i i i i i i i i i i i i g g g g g g Z o.w.p.e = + < u i i i i i i i i i i i i i i i i i i i i i i i Z o.w.g.t %   ",
"o = t w.L g i i i i i i i i i i i i i i i i u u u g Z &.p.t ; + < u i i i i i i i i i i i i i i i i i i i i i i i g Z &.w.t =   ",
"% > r o.Z g i i i i i i i i i i i i i i i i i i i i g L 6.e ; # 6 j j i i i i i i i i i i i i i i i i i i i i i i u g L 6.t =   ",
"y y N j j g i i i i i i i i i i i i i i i i i i i u i L 6.e = # e { L i i i i i i i i i i i i i i i i i i i i i i u i L 6.t =   ",
"k.6.T i i i i i i i i i i i i i i i i i i i i i i u i L 6.e ; % y 1./ i i i i i i i i i i i i i i i i i i i i i i u i L w.t =   ",
"v.6.T i i i i i i i i i i i i i i i i i i i i i i i g L 6.e ; % y ;./ i i i i i i i i i i i i i i i i i i i i i i i g L 6.t =   ",
"6.o.Z i i i i i i i i i i i i i i i i i i i i i i i g L 6.e ; # e { L i i i i i i i i i i i i i i i i i i i i i i i g Z &.8 #   ",
"L Z j i i i i i i i i i i i i i i i i i i i i i i u g L 6.t ; # 6 j j i i i i i i i i i i i i i i i i i i i i i i i g j j < #   ",
"i i i i i i i i i i i i i i i i i i i i i i i i i i g L 6.t ; + < i g i i i i i i i i i i i i i i i i i i i i i i i i j L 6 #   ",
"g i i i i i i i i i i i i i i i i i i i i i i i i i g L 6.t ; + < i g i i i i i i i i i i i i i i i i i i i i i i i g Z { 8 #   ",
"L Z j i i i i i i i i i i i i i i i i i i i i i i i g L w.t ; + < i g i i i i i i i i i i i i i i i i i i i i i i i g Z <.q #   ",
"6.o.Z i i i i i i i i i i i i i i i i i i i i i i u i L 6.t ; + < i j i i i i i i i i i i i i i i i i i i i i i i i g j Z 1 #   ",
"1.{ Z i i i i i i i i i i i i i i i i i i i i i i i i Z o.8 * # 7 m v i i i i i i i i i i i i i i i i i i i i i i i i g g , +   ",
"T L j i i i i i i i i i i i i i i i i i i i i i i i i j Z < & # w / L g g i i g g g g g g i i i i i i i i i i i i i i g g , +   ",
"i i i i i i i i i i i i i i i i i i i i i i i i i i i i i , # # 7 N / L j g i j Z L L Z v g i i i i i i i i i i i i g j Z 1 #   ",
"i i i i i i i i i i i i i i i i i i i i i i i i i i i i i , # o # > r <.Z i i Z o.6.6.&.v i i i i i i i i i i i i i g Z o.8 #   ",
"u u i i i i i i i i i i i i i i i i i i i i i i i i i i i , @   o # > q 9 3 3 9 e y ! I T L Z g i i i i i i i i i i g L 6.t %   ",
"g i g i i i i i i i i i i i i i i i i i i i i i i i i g g , @     o # = - - - - : < < 9 ! { Z i i i i i i i i i i i g L w.t =   ",
"L L Z v j i i i i i i i i i i i i i i i i i i i i i g j Z 1 #     o # * - - - - - - : 1 r r w 0 j j j i i i i i i i g L 6.t =   ",
"6.w.6.o.j i i i i i i i i i i i i i i i i i i i i i g Z &.q *     # 7 r 0 9 3 9 9 w N r 1 : - < ! { L i i i i i i i g L 6.t =   ",
"t X.w.w.Z i i i i i i u u i i i i i i i i i i i i u g L w.t = o # > r { j i i i g Z ' T < - - , w w 0 9 u g g u u u i L w.t =   ",
"= 5 y 6.T j i i i i i g i i i i i i g g g g g g g g j T 6.e = + 5 r ! T v g g g g Z Z Z 9 2 2 1 < : : , 9 i g g i i j T 6.e %   ",
"  # 5 ! / Z j i i j Z L L Z j i i j Z L L Z j j Z L T / ! 5 # # 7 N / L L Z j i i i i g g j B j 1 - & & - 9 j L L L T / ! 5 #   ",
"  o # : ! o.L i i Z o.6.6.o.Z i i Z o.6.w. .Z v o.w.6.! : # o o # > y 6.6.o.Z i i i i i i Z o.6.:.8 * o + : r 6.w.w.6.! : # o   ",
"    o @ 4 8 6 , , < 8 e t 8 < , , < 8 e t 8 < < 8 t e 5 # o     o # > e e 8 < , , , , , , < 8 t t > #     # > e t t t 7 # o     ",
"    o o % * * & & & = ; ; * # @ @ # * = ; * & # = ; ; # o         o # ; ; * & # # # # # # # * ; ; # O o o O # ; ; ; = # o       ",
"  o # % % % % = = % % % % # # + + + + # # # % % % * % # o         o # % % % % % % % % % % # # + + # # = = % % % % # o           ",
"  # 5 y y y y y y y y y y e 7 < < < < 6 e y y y y y r 7 # o       # 7 y y y y y y y y y y e 7 < < 7 e y y y y y y 7 #           ",
"= 4 y s.d.p.6.1.1.1.1.1.1.{ m i i i i j { ;.1.1.1.6.;.N > # o o # 5 ..s.d.p.6.1.1.1.1.1.1.{ m i i m { 1.1.1.1.1.1.r 4 = = # o   ",
"t ..>.v.v.t.&./ / / / / / L v g g g g j L / / / / / / / y > # # 7 ..p.v.v.w.&./ / / / / / L v g g j L / / / / / / ! t t t > #   ",
"k.k.k.s.w. .Z i i i i i i i i i i i i i i i i i i i g L 6.e ; % y s.v.s.w. .Z i i i i i i i i i i i i i i i i i i Z &.s.k.t %   ",
"k.v.k.w.{ Z g i i i i i i i i i i i i i i i i i i u g L w.t ; % y d.v.w.{ Z g i i i i i i i i i i i i i i i i i i j Z  .s.t =   ",
"k.k.w. .Z g i i i i i i i i i i i i i i i i i i i u g L w.t ; % y p.t. .Z g i i i i i i i i i i i i i i i i i i i i g T w.t =   ",
"k.u.o.Z g i i i i i i i i i i i i i i i i i i i i i g L 6.e ; % y 6.&.Z g i i i i i i i i i i i i i i i i i i i i i g L 6.t *   ",
"k.6.T i i i i i i i i i i i i i i i i i i i i i i i g Z o.8 = % y 1./ i i i i i i i i i i i i i i i i i i i i i i i g Z &.8 #   ",
"k.6.T i i i i i i i i i i i i i i i i i i i i i i i g j v < # % y 1./ i i i i i i i i i i i i i i i i i i i i i i i g j Z 1 #   ",
"v.6.T i i i i i i i i i i i i i i i i i i i i i i i i j Z < & % y 1./ i i i i i i i i i i i i i i i i i i i i i i i i j L 6 #   ",
"k.6.L i i i i i i i i i i i i i i i i i i i i i i i g Z  .8 * # y ;./ i i i i i i i i i i i i i i i i i i i i i i i g Z { 8 #   ",
"6.o.Z i i i i i i i i i i i i i i i i i i i i i i u g L w.t ; # e { L i i i i i i i i i i i i i i i i i i i i i i i j L <.q #   ",
"L Z j i i i i i i i i i i i i i i i i i i i i i i u g L 6.t ; # 9 j j i i i i i i i i i i i i i i i i i i i i i i i g j Z 1 #   ",
"g i i i i i i i i i i i i i i i i i i i i i i i i i i Z o.8 = + < i g i i i i i i i i i i i i i i i i i i i i i i i i g g , +   ",
"u i i i i i i i i i i i i i i i i i i i i i i i i i i j Z 1 # + < i g i i i i i i i i i i i i i i i i i i i i i i i i i i , +   ",
"i i i i i i i i i i i i i i i i i i i i i i i i i i i i i , @ + < i g i i i i i i i i i i i i i i i i i i i i i i i i i i , @   ",
"i i i i i i i i i i i i i i i i i i i i i i i i i i i i i , @ + < i g i i i i i i i i i i i i i i i i i i i i i i i i i i , @   ",
"T L j i i i i i i i i i i i i i i i i i i i i i i i i i i , # # 7 m v i i i i i i i i i i i i i i i i i i i i i i i i i i , @   ",
"1.o.Z i i i i i i i i i i i i i i i i i i i i i i i i i i , # # e ' L i i i i i i i i i i i i i i i i i i i i i i i i i i , @   ",
"6.o.Z i i i i i i i i i i i i i i i i i i i i i i i i i i , # # e { L i i i i i i i i i i i i i i i i i i i i i i i i i i , @   ",
"L Z j i i i i i i i i i i i i i i i i i i i i i i i i i i , # # 6 j j i i i i i i i i i i i i i i i i i i i i i i i i i i , @   ",
"i i i i i i i i i i i i i i i i i i i i i i i i i i i i i , # + < u i i i i i i i i i i i i i i i i i i i i i i i i i i i , +   ",
"i i i i i i i i i i i i i i i i i i i i i i i i i i i g g , # + < u i i i i i i i i i i i i i i i i i i i i i i i i i g g , +   ",
"L Z j i i i i i i i i i i i i i i i i i i i i i i i g j Z < & # 6 j j i i i i i i i i i i i i i i i i i i i i i i i g v Z 1 #   ",
"6.o.Z i i i i i i i i i i i i i i i i i i i i i i i g Z &.8 = # e { L i i i i i i i i i i i i i i i i i i i i i i i g Z <.q #   ",
"v.6.L u i i i i i i i i i i i i i i i i i i i i i u g L w.t ; % y 1./ i i i i i i i i i i i i i i i u i i i i i i i g L w.t =   ",
"d.6./ g g i i g g g g g g i i g g g i g g g i g g g j T 6.e ; % y ;./ g g i i g g g g g g i i g g g g g g g g g g i i L 6.t =   ",
"y y ! Z v g g j Z L L Z v g g j Z Z j j Z Z j v Z L T / ! 5 # # 7 N / Z v g g j Z L L Z v g g j Z L L Z v j Z L j g i j t 7 #   ",
"% > r <.Z i g Z <.6.6.<.Z i i Z <.{ L Z &.{ L Z &.w.6.! : # o o # > r <.Z i g Z <.6.6.<.Z i i Z <.6.6.<.Z L o.<.Z g i 9 - # o   ",
"o # > q 1 , , 1 8 t t q 1 , , 1 8 8 6 1 q 8 6 1 8 t t 5 # o     o # > 8 1 , , 1 8 t t q 1 , , 1 q t t q 1 6 8 q 1 , , - + o     ",
"  o @ # # + + # # * = # # + + # # # # # % # # # # = % # o         o # # # + + # # * = # # + + # # = = # # # # # # @ + + .       ",
"                                                                                                                                "
};
