/* XPM */
static char *Z[] = {
/* columns rows colors chars-per-pixel */
"64 64 141 2 ",
"   c #2E242F",
".  c #2F2530",
"X  c #312632",
"o  c #332935",
"O  c #362C3A",
"+  c #392F3C",
"@  c #3A303E",
"#  c #43333D",
"$  c #48363F",
"%  c #3E3545",
"&  c #453641",
"*  c #493740",
"=  c #4C3943",
"-  c #4D3A49",
";  c #513C45",
":  c #513D4A",
">  c #56414B",
",  c #5B444C",
"<  c #554151",
"1  c #5B4555",
"2  c #5E485A",
"3  c #60474D",
"4  c #62484E",
"5  c #644A52",
"6  c #6B4E55",
"7  c #634A5A",
"8  c #684E5C",
"9  c #6C5056",
"0  c #6E515C",
"q  c #735357",
"w  c #77575C",
"e  c #76575D",
"r  c #77575D",
"t  c #74555C",
"y  c #74555A",
"u  c #78575A",
"i  c #77585E",
"p  c #79585C",
"a  c #78585E",
"s  c #79585F",
"d  c #7A595F",
"f  c #7C5A5D",
"g  c #7D5B5E",
"h  c #7B595D",
"j  c #664D60",
"k  c #664E60",
"l  c #674E60",
"z  c #664E61",
"x  c #674E61",
"c  c #674E62",
"v  c #674F62",
"b  c #684F60",
"n  c #684E61",
"m  c #684F61",
"M  c #694F61",
"N  c #6A4F61",
"B  c #684F62",
"V  c #694F62",
"C  c #694F63",
"Z  c #694F61",
"A  c #6A5061",
"S  c #695062",
"D  c #695063",
"F  c #6A5062",
"G  c #6B5062",
"H  c #6A5063",
"J  c #6B5063",
"K  c #6F5361",
"L  c #6C5162",
"P  c #6C5163",
"I  c #6D5163",
"U  c #6D5263",
"Y  c #6E5362",
"T  c #6F5362",
"R  c #6E5263",
"E  c #6E5363",
"W  c #6F5363",
"Q  c #6A5064",
"!  c #6A5164",
"~  c #6B5164",
"^  c #6C5164",
"/  c #6C5264",
"(  c #6E5264",
")  c #6E5364",
"_  c #6A5062",
"`  c #705463",
"'  c #715463",
"]  c #735663",
"[  c #725464",
"{  c #725564",
"}  c #735564",
"|  c #735565",
" . c #745664",
".. c #745765",
"X. c #755765",
"o. c #745764",
"O. c #775862",
"+. c #765865",
"@. c #775965",
"#. c #755866",
"$. c #765866",
"%. c #775863",
"&. c #795964",
"*. c #785965",
"=. c #785866",
"-. c #785966",
";. c #795966",
":. c #795A67",
">. c #7A5B67",
",. c #7B5B67",
"<. c #7C5B65",
"1. c #7E5C64",
"2. c #7F5D66",
"3. c #7F5E66",
"4. c #7F5D66",
"5. c #7B5B68",
"6. c #7C5C68",
"7. c #805D66",
"8. c #805E66",
"9. c #815E67",
"0. c #815E65",
"q. c #835F68",
"w. c #825F69",
"e. c #815F68",
"r. c #856166",
"t. c #856167",
"y. c #85626A",
"u. c #876268",
"i. c #886369",
"p. c #896469",
"a. c #8A6569",
"s. c #89646A",
"d. c #8B656A",
"f. c #8B666A",
"g. c #8C656A",
"h. c #8D666A",
"j. c #8B656A",
"k. c #8F686C",
"l. c #91686C",
"z. c #956B6D",
"x. c #986D6E",
/* pixels */
"                                                                                                                                ",
"                                                                                                                                ",
"                                                                                                                                ",
"                                                                                                                                ",
"                                                                                                                                ",
"                                                                                                                                ",
"                                                                                                                                ",
"                                                                                                                                ",
"                                                                                                                                ",
"                                                                                                                                ",
"                                                                                                                                ",
"                                                                                                                                ",
"                                                                                                                                ",
"                                                                                                                                ",
"                                                                                                                                ",
"                                                                                                                                ",
"                                                                                                                                ",
"                                                                                                                                ",
"                                                                                                                                ",
"                                                                                                                                ",
"                                                                                                                                ",
"                                                                                                                                ",
"                                                                                                                                ",
"                                                                                                                                ",
"                                                                                                                                ",
"                                                                                                                                ",
"                    X X X X X X X X .                                       X X X X X X X X X X .     . . X X X X X X X X X     ",
"                  X + @ @ @ @ @ @ + o                                     X + @ # @ @ @ @ # # # o . . o + + # @ @ + + @ @ O X   ",
"                  + - 1 1 1 1 1 2 - +                                     + - 1 1 1 1 1 1 7 0 5 # X . + - 1 2 1 1 1 1 1 1 - +   ",
"# O X     o # = = > 7 B B B x B B 2 - + + $ $ $ o . . o $ * $ + + @ @ + + - 2 x B B B B x &.r.p & o + - 2 B J B B B B B B 2 - + ",
"< = + . . $ 4 u u t Y ! ! ! J J J 7 2 < < 5 9 5 # X X # 4 6 5 < < < < < < 2 7 J ! J J J J 5.i.g * + - 2 x J Y J J J J J J 7 2 < ",
"B 2 - + + : t d.g.9.{ B B B B B B B B B B X.3.s : + + = 6 s &.{ Y B B B B B B B B B B B B X.3.t : - 1 B B B B B B B B B B B B B ",
"B 7 7 1 1 7 0 X.X.{ Y B B B B B B B B B B ) { Y 7 1 1 < ; 3 t 9.{ J B B B B B B B B B B B Y { Y 7 2 7 B B B B B B B B B B B B B ",
"B B B B B B B J J J J Y #.Y 7 2 7 B B B B J J J J J 8 5 = ; 5 y 0 B B B B B B B B B B B B J J J Y J B B B B B B B B B B B B B B ",
"B B J ! ! J x x x x J { 3.t > - 2 B J B B B B B J ) Y 7 1 : ; > 7 J J B B B B B B B B B B B x B Y J B B x B B B B B B B B B B B ",
"B B B B B B B B B B J Y t 4 $ + 1 x ! B B B B B B B B B B 1 - - 7 ] ) B B B B B B B B B B B B x 7 7 7 B B B B B B B B B B B B B ",
"B B B B B B B B B J B 7 : @ o + 1 x ! B B B B B B B B B B 7 7 7 3.9.X.B B B B B B B B B B J B 7 * - 1 B B B B B B B B B B B B B ",
"B B B B J J B B B J x 1 @ o + - 7 B J B B B B B B B B B B x B ] d.d.&.x B B B B B B B B B J B 1 + # < B B B B B B B B B B B B B ",
"B B B B B B B B B J B 1 + + - 2 7 J B B B B B B B B B B B x J X.d.i.&.B B B B B B B B B B J B 1 + @ < B B B B B B B B B B B B B ",
"B B B x 7 7 7 B B ) Y 5 # # < x B B B B B B B B B B B B B x B Y s s O.] Y B B B B B B B B ) ] 7 # # < B B B B B B B B B B B B B ",
"B J B 7 * - 1 B B #.3.y # # < B B B B B B B B B B B B B B J B 7 : , t w.{ J B B B B B B B #.9.y # # < B B B B B B B B B B B B B ",
"&.] 7 : & - 1 Y #.y.g.g $ & 1 &.6.6.&.#.Y B x B B B J ) #.5.&.8 & ; u l.w.&.&.&.&.&.&.6.6.<.t 4 + & 5 #.Y B x x B Y { #.#.#.&.&.",
"y.t > & : 1 7 { 9.g.g.p $ * 6 y.d.d.y.9.{ Y J J J B J ] 3.d.r.0 # = q l.d.y.y.y.y.y.i.d.d.s , $ o * 9 3.X.Y J J J X.w.d.d.i.y.y.",
"s 4 $ # 7 ] X.%.s g p 5 # $ 4 g g s s s %.X.X.X.X.0 7 7 y g s 5 # $ 4 s g g g g g g s s s 5 $     $ 5 s %.X.X.X.X.w.k.x.x.g.0.s ",
"* @ o # y d.g.s > * # # o o @ * * $ * > s d.g.g.d.t > # # $ $ # o o @ & * * * * * * & & * @ o     o # > s d.g.d.d.k.z.x.x.g , & ",
"O o X + 4 u u 5 # O o o X X o O O o O # 5 u u u u 4 * O o o X X o o O O O O O O O O O O O O o o . . o # 5 u u u u u u u u 4 * O ",
"+ O X o $ = = * @ + + O X X O + + + + @ * = = = = & @ + + o . X + @ + + + + + + + + + + + + @ + X X o @ * = = ; = = = = = & @ @ ",
"% @ O o o o o O % % % % o o + % % % % % O o o o o O @ % % + o o % % % % % % % % % % % % % % % % o o @ % O o o o o o o o o O + % ",
"% % % % % % % % % % % % o o + % % % % % % % % % % % % % % @ o o % % % % % % % % % % % % % % % % o o + % % % % % % % % % % + O o ",
"@ % % % % % % % % % % + X o + % % % % % % % % % % % % % % @ o X + % % % % % % % % % % % % % % % o o O @ % % % % % % % % % % + o ",
"o + % % % % % % % % + o X o + % % % % % % % % % % % % % % + o X o + % % % % % % % % % % % % % % o X X O % % % % % % % % % % % + ",
"o O @ % % % % % % @ o . o O @ % % % % % % % % % % % % % % @ O o . o @ % % % % % % % % % % % % % o .   o % % % % % % % % % % % % ",
"% % % % % % % % % + o o + % % % % % % % % % % % % % % % % % % + o o + % % % % % % % % % % % % % o   . o % % % % % % % % % % % % ",
"% % % % % % % % % + o o % % % % % % % % % % % % % % % % % % % % o o @ % @ + + @ % % % % % % % % o   . o % % % % % % % % % % % % ",
"% % % % % % % % % + o o % % % % % % % % % % % % % % % % % % % % o o + % O o o O % % % % % % % % o     o % % % % % % % % % % % % ",
"% % % % % % % % % + o o % % % % % % % % % % % % % % % % % % % % o o O + o X o O % % % % % % % % O X . o % % % % % % % % % % % % ",
"% % % % % % % % % + o o % % % % % @ O o o o o o o O % % % % % % o X X o . o + % % % % % % % % % % O X o % % % % % % % % % @ O o ",
"% % % % % % % % % + o o % % % % @ O O o o o o o o + % % % % % % o X o o o + % % % % % % % % % % % + o o % % % % % % % % % % + o ",
"% % % % % % % % % @ o o % % % % O O + + + + + + @ % % % % % % % o o O @ @ % % % % % % % % % % % % @ o o % % % % % % % % % % % + ",
"% % % % % % % % % @ o o % % % % O O @ % % % % % % % % % % % % + o o + % % % % % % % % % % % % % % + o o + % % % % % % % % % % % ",
"o o o o o O @ % % @ o o % % % % % % % % % % % % % % % % % @ O o . . o O % % % % % % % % % @ O o o X . X o O @ % % % % % % % % % ",
". . .   . o O @ @ O o X + @ + @ @ @ @ + @ @ + @ + + @ @ @ O o . .   . o + @ + + @ @ @ @ @ O o . . . . . . o O + @ @ @ @ @ @ @ @ ",
"          X o o o o X . o o o o o o o o o o o o o o o o o o X         . o o o o o o o o o o X             X o o o o o o o o o o ",
"                                                                                                                                "
};
