/* XPM */
static char *L[] = {
/* columns rows colors chars-per-pixel */
"48 48 246 2 ",
"   c #281F2B",
".  c #28202B",
"X  c #2A212C",
"o  c #2A212D",
"O  c #2B212D",
"+  c #2B222D",
"@  c #2C222D",
"#  c #2C232D",
"$  c #2C232E",
"%  c #2D232E",
"&  c #2D232F",
"*  c #2E232E",
"=  c #2D242F",
"-  c #2E242F",
";  c #2E2430",
":  c #2F2530",
">  c #2F2531",
",  c #2F2632",
"<  c #302630",
"1  c #312630",
"2  c #312631",
"3  c #302632",
"4  c #302732",
"5  c #302633",
"6  c #302733",
"7  c #312733",
"8  c #332732",
"9  c #332733",
"0  c #312734",
"q  c #322734",
"w  c #332832",
"e  c #332833",
"r  c #342832",
"t  c #362A33",
"y  c #312834",
"u  c #322834",
"i  c #322835",
"p  c #332936",
"a  c #372A34",
"s  c #352936",
"d  c #362A36",
"f  c #372B37",
"g  c #382B37",
"h  c #392C37",
"j  c #3D2E36",
"k  c #3C2E37",
"l  c #342A38",
"z  c #342B38",
"x  c #352B38",
"c  c #342B39",
"v  c #352B39",
"b  c #352C3A",
"n  c #362C3A",
"m  c #362D3B",
"M  c #372D3C",
"N  c #372E3C",
"B  c #372E3D",
"V  c #382B38",
"C  c #382B39",
"Z  c #392C38",
"A  c #3D2E38",
"S  c #3D2F38",
"D  c #3C2E39",
"F  c #3E2F38",
"G  c #3E2F39",
"H  c #3C2E3B",
"J  c #382E3D",
"K  c #382F3E",
"L  c #3F3039",
"P  c #39303F",
"I  c #3E303D",
"U  c #40313E",
"Y  c #40313F",
"T  c #47353D",
"R  c #44343E",
"E  c #45343E",
"W  c #48363E",
"Q  c #3A3040",
"!  c #3A3140",
"~  c #3B3141",
"^  c #3B3241",
"/  c #3B3242",
"(  c #3C3343",
")  c #3D3344",
"_  c #3D3444",
"`  c #3D3445",
"'  c #3E3545",
"]  c #3E3546",
"[  c #3E3547",
"{  c #3F3647",
"}  c #3F3648",
"|  c #3F3748",
" . c #463540",
".. c #453543",
"X. c #463543",
"o. c #463544",
"O. c #463644",
"+. c #473644",
"@. c #473645",
"#. c #483641",
"$. c #483746",
"%. c #4D3A42",
"&. c #4E3A42",
"*. c #493846",
"=. c #493847",
"-. c #4A3847",
";. c #4A3948",
":. c #4B3948",
">. c #4D3B48",
",. c #4C3A49",
"<. c #4D3B4B",
"1. c #4E3B4B",
"2. c #4F3C4B",
"3. c #4F3C4C",
"4. c #503C49",
"5. c #513D4A",
"6. c #503C4C",
"7. c #503D4C",
"8. c #503D4D",
"9. c #513D4D",
"0. c #533F4C",
"q. c #523E4E",
"w. c #564046",
"e. c #584147",
"r. c #594247",
"t. c #55404E",
"y. c #594248",
"u. c #5A4248",
"i. c #5B434B",
"p. c #5E454C",
"a. c #564152",
"s. c #584253",
"d. c #584353",
"f. c #584354",
"g. c #594454",
"h. c #5A4455",
"j. c #5B4556",
"k. c #5C4557",
"l. c #5D4658",
"z. c #5E4759",
"x. c #5E475A",
"c. c #5F4859",
"v. c #5F485A",
"b. c #60464D",
"n. c #62484D",
"m. c #63484D",
"M. c #63494D",
"N. c #63494E",
"B. c #64494E",
"V. c #654A4E",
"C. c #664A4F",
"Z. c #664B4F",
"A. c #694D53",
"S. c #60485A",
"D. c #60495B",
"F. c #61495B",
"G. c #624A5B",
"H. c #674C58",
"J. c #654C5B",
"K. c #664C5B",
"L. c #634B5D",
"P. c #634B5E",
"I. c #644B5D",
"U. c #644B5E",
"Y. c #644C5E",
"T. c #654C5F",
"R. c #664D5F",
"E. c #694E5D",
"W. c #765659",
"Q. c #75565F",
"!. c #78575A",
"~. c #664D61",
"^. c #674E60",
"/. c #674E61",
"(. c #674E62",
"). c #684E61",
"_. c #684E62",
"`. c #684F62",
"'. c #694F62",
"]. c #694F63",
"[. c #6A4F62",
"{. c #6A4F63",
"}. c #6A5063",
"|. c #6B5063",
" X c #6B5163",
".X c #6C5163",
"XX c #6D5263",
"oX c #6E5262",
"OX c #6E5263",
"+X c #6A5064",
"@X c #6B5064",
"#X c #6B5164",
"$X c #6C5164",
"%X c #6C5165",
"&X c #6F5365",
"*X c #705364",
"=X c #705464",
"-X c #715464",
";X c #725564",
":X c #725565",
">X c #755664",
",X c #755765",
"<X c #745666",
"1X c #755766",
"2X c #795963",
"3X c #7B5A63",
"4X c #7E5C60",
"5X c #7F5C61",
"6X c #7A5A64",
"7X c #785866",
"8X c #7B5B66",
"9X c #7E5D68",
"0X c #7F5D68",
"qX c #7F5E68",
"wX c #805D62",
"eX c #825E62",
"rX c #805E67",
"tX c #856062",
"yX c #866162",
"uX c #876263",
"iX c #876264",
"pX c #886263",
"aX c #886264",
"sX c #886364",
"dX c #896364",
"fX c #836069",
"gX c #846169",
"hX c #856169",
"jX c #85616A",
"kX c #86626B",
"lX c #87636B",
"zX c #896469",
"xX c #8E676A",
"cX c #8F686B",
"vX c #90686B",
"bX c #91696B",
"nX c #946B6B",
"mX c #956B6B",
"MX c #926A6C",
"NX c #926A6D",
"BX c #946B6D",
"VX c #966C6C",
"CX c #966C6D",
"ZX c #996E6D",
"AX c #996F6F",
"SX c #9A6F6E",
/* pixels */
"- - - - - - - - - - - - - - - - - - - - - - - - - - - - - - - - - - - - - - - - - - - - - - - - ",
"n i - * i n n n n n n n n n n n i - * i n n n n n n n n i - - - * * i n n n n n n n n i > l n n ",
"] n - 3 B ] ] ] ] ( ] ] ] ] ] ] n - 3 B ] ] ] ] ( Q ( ] J 3 > > 3 3 B ] ] ] Q Q Q ( ] n 3 Q ] ( ",
"] n 3 P ] ] ] ] ( i B ] ] ] ] ] n 3 P ] ] ] ] ( i 3 i ( ] P 3 l Q Q ] ] ] B 3 3 3 i ( n 3 Q J 3 ",
"] n 3 ( ] ] ] ] ] B Q ] ] ] ] ] n 3 ( } ] ] ] ] B l B ] Q l > n ] ] ] ] ] Q n n n n n i 3 Q Q n ",
"] n 3 Q ] ] ] ] Q Q ] ] ] ] ] ] n 3 P ( Q Q ] ] ] ] ] ] B 3 - n ] ] ] ] ] ] ] ] ] Q 3 > i ( ] ] ",
"] n 3 Q ] ] ] B 3 3 B ] ] ] ] ] n - 3 3 3 3 B ] ] ] ] ] ] P 3 n ] ] ] ] ] ] ] ] ] Q 3 l ( ] ] ] ",
"] n > l Q ] ] Q n n Q ] ] ] ] B n n n n n n Q ] ] ] ] ] } ( 3 n ] ] ] ] ] ] ] ] ] ( 3 n ] ] Q n ",
"] n > 3 J ] ] ] ] ] ] ] ] ] Q 3 n ] ] ] ] ] ] ] ] ] ] ] ] P 3 l ( ] ] ] ] ] ] ] ] P 3 n ] ] B 3 ",
"] n 3 P ] ] ] ] ] ] ] ] ] ] Q 3 n ] ] ] ] ] ] ] ] ] ] ] B 3 > > i ( ] ] ] ] ] ] J 3 - n ] ] ] Q ",
"] n > l Q ] ] ] ] ] ] ] ] } ( 3 n ] ] ] ] ] ] ] ] ] ] ] Q l > i J ] ] ] ] ] ] ] Q l > n ] ] ] } ",
"Q l - - l Q Q Q Q Q Q Q Q Q J 3 l ( Q Q Q Q Q Q Q Q Q Q ( P 3 l ( Q ( Q Q Q Q Q Q J 3 l Q Q Q Q ",
"3 > - - > 3 3 3 3 3 3 3 3 3 3 > > 3 3 3 3 3 3 3 3 3 3 3 3 3 > > 3 3 3 3 3 3 3 3 3 3 - > 3 3 3 3 ",
"M.W o o . w y.V.M.M.M.M.M.V.e.r o a y.V.M.M.M.M.M.V.e.3   o * - * o   3 e.M.M.M.M.V.C.E r y.V.M.",
"vXA.L L A %.eXMXcXcXcXcXcXCXdX%.3 A 5XMXcXcXcXcXcXMXeX%.A A 3 * 3 A A %.dXSXCXvXcXxXiXi...eXMXvX",
"-X3XtXtXtXeX>X-X-X-X-X-X-XhXmXdXw.Z J.>X-X-X-X-X-X-X>XeXdXW.A . j W.tXdXmXSXvX6X-XE.#.,.P..X-X-X",
").>XhXhXhX0X.X^.).).^.).).>XlXAXM.a x.@X).).).).).^..X0XlX>XA Z t.6XhXfXrXrX8X.X@Xx.q +.@X).).).",
").).).).).).).).).).).^.F.x.J.5Xp.I s.T.).).).).).).).).@Xc.V =.}.}.).).).).).).T.h.E 6.).).).).",
").).).).).).).).).).@XF.U a h A 5.f.I 3.}.}.).).).).).).@Xx.V =.}.).).).).).).).,.E !.6X).).).).",
").).).).).).).).).).}.U.3.$.=.$.k.^.6.s.}.}.).).).).).).@Xx.a $.).}.).).).).}.}.+.j pXhX).).).).",
").).).).).).).).).).).).).).).).U.F.).).).).).).).).).).@XF.U 3.}.}.).).).).).).,...eX0X).).).).",
").).).).).).).).).).).).).).}.}.3.U F.@X).).).).).).).).).^.F.U.).).).).).).).).U.F..X.X).).).).",
").).).).).).).).).).).).).}.@X@X=.a F.%X).).).).).).).).).P.6.h.}.}.).).).).).).}.@X).).).).}.@X",
"}.}.).).).).).}.}.}.}.}.).T.c.c...a a.T.).).).}.}.).}.-X>XJ.h =.}.}.).).).).).).).}.).).).).T.c.",
"}.}.).).).).).).).).).}.).6.V V 3 > a 6.}.}.).).).).-XzXBX5XA $.).).).).).).).).).).).).).).6.a ",
",.h.@X@X@X@X@Xh.:.:.:.,.,.A * * * - * A ,.,.,.:.,.:.5.b.V.y.a :.@X@X@X@X@X@X-XrXJ.6.T.%X@X@X:.o ",
"- +.F.F.c.F.c.+.* * - - - - - - - - - - - - - - - - - - - * - +.c.c.c.c.c.x.J.5Xe.a a.F.F.F...- ",
"- w Z Z V V V w - - - - - - - - - - - - - - - - - - - - - * - w V V g V V V Z L a > a Z V V 3 - ",
"- * * * * * * * - - - - - - - - - - - - - - - - - - - - - - - * * * * * * * * o * - * * * * * - ",
"- - - - - - - - - - - - - - - - - - - - - - - - - - - - - - - - - - - - - - - - - - - - - - - - ",
"- - - - - - - - - - - - - - - - - - - - - - - - - - - - - - - - - - - - - - - - - - - - - - - - ",
"- - - - - - - - - - - - - - - - - - - - - - - - - - - - - - - - - - - - - - - - - - - - - - - - ",
"- - - - - - - - - - - - - - - - - - - - - - - - - - - - - - - - - - - - - - - - - - - - - - - - ",
"- - - - - - - - - - - - - - - - - - - - - - - - - - - - - - - - - - - - - - - - - - - - - - - - ",
"- - - - - - - - - - - - - - - - - - - - - - - - - - - - - - - - - - - - - - - - - - - - - - - - ",
"- - - - - - - - - - - - - - - - - - - - - - - - - - - - - - - - - - - - - - - - - - - - - - - - ",
"- - - - - - - - - - - - - - - - - - - - - - - - - - - - - - - - - - - - - - - - - - - - - - - - ",
"- - - - - - - - - - - - - - - - - - - - - - - - - - - - - - - - - - - - - - - - - - - - - - - - ",
"- - - - - - - - - - - - - - - - - - - - - - - - - - - - - - - - - - - - - - - - - - - - - - - - ",
"- - - - - - - - - - - - - - - - - - - - - - - - - - - - - - - - - - - - - - - - - - - - - - - - ",
"- - - - - - - - - - - - - - - - - - - - - - - - - - - - - - - - - - - - - - - - - - - - - - - - ",
"- - - - - - - - - - - - - - - - - - - - - - - - - - - - - - - - - - - - - - - - - - - - - - - - ",
"- - - - - - - - - - - - - - - - - - - - - - - - - - - - - - - - - - - - - - - - - - - - - - - - ",
"- - - - - - - - - - - - - - - - - - - - - - - - - - - - - - - - - - - - - - - - - - - - - - - - ",
"- - - - - - - - - - - - - - - - - - - - - - - - - - - - - - - - - - - - - - - - - - - - - - - - ",
"- - - - - - - - - - - - - - - - - - - - - - - - - - - - - - - - - - - - - - - - - - - - - - - - ",
"- - - - - - - - - - - - - - - - - - - - - - - - - - - - - - - - - - - - - - - - - - - - - - - - ",
"- - - - - - - - - - - - - - - - - - - - - - - - - - - - - - - - - - - - - - - - - - - - - - - - "
};
