/* XPM */
static char *w[] = {
/* columns rows colors chars-per-pixel */
"48 48 129 2 ",
"   c #2D232E",
".  c #312631",
"X  c #352934",
"o  c #3A2C37",
"O  c #3C2E38",
"+  c #3F3039",
"@  c #41313A",
"#  c #453544",
"$  c #483746",
"%  c #4B3945",
"&  c #44394A",
"*  c #4C3B49",
"=  c #553F46",
"-  c #503C49",
";  c #574047",
":  c #584147",
">  c #56404A",
",  c #5C444B",
"<  c #544254",
"1  c #5E4759",
"2  c #5E485A",
"3  c #61474C",
"4  c #63484D",
"5  c #674B51",
"6  c #6A4E53",
"7  c #644B5C",
"8  c #73545B",
"9  c #7A595C",
"0  c #674E61",
"q  c #694F62",
"w  c #6C5164",
"e  c #6F5364",
"r  c #6F5365",
"t  c #6C5163",
"y  c #705364",
"u  c #705464",
"i  c #715464",
"p  c #725564",
"a  c #735664",
"s  c #715466",
"d  c #745664",
"f  c #755664",
"g  c #755764",
"h  c #755665",
"j  c #755765",
"k  c #715464",
"l  c #775862",
"z  c #775865",
"x  c #765866",
"c  c #775866",
"v  c #7B5A63",
"b  c #7E5B60",
"n  c #7C5B63",
"m  c #7E5C60",
"M  c #7F5C61",
"N  c #785866",
"B  c #785967",
"V  c #7B5B66",
"C  c #7C5B66",
"Z  c #7C5B67",
"A  c #7E5C65",
"S  c #7D5C66",
"D  c #7E5C67",
"F  c #7E5D67",
"G  c #7B5A66",
"H  c #7E5D68",
"J  c #7F5D68",
"K  c #7F5E68",
"L  c #825E62",
"P  c #825E63",
"I  c #825F63",
"U  c #805E67",
"Y  c #815E67",
"T  c #815F67",
"R  c #825E62",
"E  c #815E68",
"W  c #815F68",
"Q  c #805E69",
"!  c #825F68",
"~  c #846061",
"^  c #856061",
"/  c #846062",
"(  c #856062",
")  c #866162",
"_  c #876162",
"`  c #876263",
"'  c #886263",
"]  c #886363",
"[  c #896364",
"{  c #8F6767",
"}  c #886264",
"|  c #836069",
" . c #846069",
".. c #846169",
"X. c #856169",
"o. c #85616A",
"O. c #87636B",
"+. c #896369",
"@. c #896469",
"#. c #89646A",
"$. c #8C666A",
"%. c #8F676A",
"&. c #8E676B",
"*. c #8F676B",
"=. c #8A646A",
"-. c #8F686A",
";. c #8F686B",
":. c #8F686B",
">. c #926969",
",. c #90686B",
"<. c #91696B",
"1. c #92696B",
"2. c #956B6B",
"3. c #91696D",
"4. c #926A6C",
"5. c #936A6D",
"6. c #936A6E",
"7. c #956C6C",
"8. c #966C6C",
"9. c #976C6C",
"0. c #976D6C",
"q. c #966C6D",
"w. c #976D6D",
"e. c #926A6C",
"r. c #986D6C",
"t. c #986D6D",
"y. c #9A6F6E",
"u. c #9A6E6E",
"i. c #9C706F",
/* pixels */
"  3 9.9.9.9.9.9.9.9.U q q U $.u F 9.9.t.^ +         + ^ t.9.9.9.9.9.t.$.u 0 u $.t.9.9.4         ",
"3 9 9.t.$.U U U U U d q q d C t d U U W v 5 @     @ 6 { $.U U U U U U C t 0 t F U U U 8 ; X     ",
"9.9.9.,.V q q q q q q q q q q q q q q 0 u ,.4 . o 6 9.,.V q q q q q q q q q q q q q q J P % X   ",
"9.t.,.z t q q q q q q q q q q q q q q 0 u ,.3 O 8 ,.,.z t q q q q q q q q q q q q q q t d P ;   ",
"9.$.V t 0 q q q q q q q q q q q q q q 0 u ,.3 @ ^ 3.V t q q q q q q q q q q q q q q q 0 u 3.4   ",
"9.U q q q q q q q q q q q q q q q q q q u @., + ^ | q q q q q q q q q q q q q q q q q q u +.,   ",
"9.U q q q q q q q q q q q q q q q q q q t y % + ^ | q q q q q q q q q q q q q q q q q q t r *   ",
"F d q q q q q q q q q q q q q q q q q q q 0 # @ ^ ..q q q q q q q q q q q q q q q q q q t V >   ",
"u t q q q q q q q q q q q q q q q q q q t y % O m J q q q q q q q q q q q q q q q q q 0 u ,.4   ",
"$.C q q q q q q q q q q q q q q q q q q y +., o 7 r q q q q q q q q q q q q q q q q q q u ,.4   ",
"U d q q q q q q q q q q q q q q q q q 0 u ,.4 o 1 w q q q q q q q q q q q q q q q q q q t F >   ",
"q q q q q q q q q q q q q q q q q q q q y +., o 1 w q q q q q q q q q q q q q q q q q q q q $   ",
"q q q q q q q q q q q q q q q q q q q q t y * o 1 w q q q q q q q q q q q q q q q q q q q q $   ",
"U d q q q q q q q q q q q q q q q q q q q q $ o 1 w q q q q q q q q q q q q q q q q q q t F >   ",
"-.F q q q q q q q q q q q q q q q q q q q q $ o 1 w q q q q q q q q q q q q q q q q q 0 u ,.4   ",
"u t q q q q q q q q q q q q q q q q q q q q $ o 1 w q q q q q q q q q q q q q q q q q 0 u ,.4   ",
"0 0 q q q q q q q q q q q q q q q q q q q q $ O 8 z q q q q q q q q q q q q q q q q q q t F >   ",
"u t q q q q q q q q q q q q q q q q q q t y % @ ^ ..q q q q q q q q q q q q q q q q q q q q $   ",
"$.C q q q q q q q q q q q q q q q q q q u @., @ ^ | q q q q q q q q q q q q q q q q q q q q $   ",
"i.W 0 q q q q 0 q q q q q 0 q q q q q 0 u 3.4 X : 8 | W u 0 0 0 q q q q q q q q q q q 0 t J :   ",
"^ n u t q t u u u t q t u u u t q t u u d P :     : [ 2...u u u u u t q q t u t q t u u d P ;   ",
"+ 5 @.u 0 y @.,.@.y 0 y +.,.@.y 0 y @.3.P % X     . % [ 9.-.-.-.-.-.C q q F @.u 0 y @.3.P % X   ",
"  @ , * # * , 3 , * $ * , 4 , * $ * , 4 : X         . = 4 4 4 3 3 3 > $ $ > , * # % , 4 ; .     ",
"  o @ @ o o O @ O . . o O @ O .                   o @ + o o o O O o o o o o o o o + + + O .     ",
"  ; ^ ^ 8 7 n ' 8 o # 7 m [ 8 O                   : ^ ^ 8 1 1 8 m 7 1 1 1 1 1 1 8 ^ ^ ^ 8 O     ",
"4 8 ..| z r J ..l # * u J ..F 6 4 , * > : X   o : 8 | | z w w V J r w w w w w w z | | 3.' O     ",
"9.U q q q q q 0 1 * < 7 0 0 t +.,.+.t J P % . O m J q q q q q q q q q q q q q q q q q J P % X   ",
"9.U q q q q q < * 2 < * 7 q t u u u t t d P ; o 7 r q q q q q q q q q q q q q q q q q t d P ;   ",
"U d q q q q q < & 7 7 < < 2 q q q q q 0 u 3.4 o 1 q q q q q q q q q q q q q q q q q q 0 u 3.4   ",
"q q q q q q q < & 7 r 7 * < q q q q q q u @., o 7 r q q q q q q q q q q q q q q q q q 0 u -.4   ",
"q q q q q q q < & 7 t q 7 7 q q q q q q t y % O m J q q q q q q q q q q q q q q q q q 0 u -.4   ",
"q q q q t 0 < < < 0 q q t t q q q q q q q 0 # @ ^ ..q q q q q q q q q q q q q q q q q 0 u -.4   ",
"q q q q 0 1 * < q q q q q q q q q q q q t u % O m J q q q q q q q q q q q q q q q q q 0 u -.4   ",
"q q q q < * 1 0 q q q q q q q q q q q q u @., o 7 r q q q q q q q q q q q q q q q q q 0 u -.4   ",
"q q q q 2 < 0 t q q q q q q q q q q q q t F > o 1 w q q q q q q q q q q q q q q q q q 0 u ,.4   ",
"q q q q q q q q q q q q q q q q q q q q q q $ o 2 w q q q q q q q q q q q q q q q q q q u @.,   ",
"q q q q q q q q q q q q q q q q q q q q q q $ o 2 w q q q q q q q q q q q q q q q q q q t y *   ",
"U d q q q q q q q q q q q q q q q q q q t F > . # 7 C t q q q q q q q q q q q q q q q q q 0 $   ",
"9.U q q q q q q q q q q q q q q q q q q u ,.4     4 ,.u 0 q q q q q q q q q q q q q q q t y *   ",
"9.U q q q q q q q q q q q q q q q q q q u ,.4     4 ,.u q q q q q q q q q q q q q q q q u @.,   ",
"4 8 C t q q q q q q q q q q q q q q q 0 u $.4     > C t q q q q q q q q q q q q q q q 0 u ,.4   ",
"  4 -.u q q q q q q q q q q q q q q q t V ,.4     $ q q q q q q q q q q q q q q q q q 0 u -.4   ",
"  4 -.u q q q q q q q q q q q q q q q V ,.9.4     $ q q q q q q q q q q q q q q q q q 0 u -.4   ",
"  4 3.u 0 q q 0 q q q q q 0 0 0 0 t V $.t.t.4     : C t q q q q q q q q q 0 q q q q 0 0 u 3.4   ",
"  ; P d u u u u u t q t u u u u u V ,.t.2.[ :     4 3.V t t u t t u t t u u u t t u u u d P ;   ",
"  X % P 3.-.-.,.@.y 0 y @.,.-.-.$.,.9.t.[ % X     4 9.3.V u @.F y @.C r @.,.+.y V -.-.3.P % X   ",
"    . ; 4 4 4 4 , * $ * , 4 4 4 4 4 3 4 ; X       @ 4 4 > * , > * , > * , 4 , * > 4 4 4 ; X     ",
"                                                                                                "
};
