/* XPM */
static char *floor_4[] = {
/* columns rows colors chars-per-pixel */
"32 32 5 1 ",
"  c #2E242F",
". c #3E3546",
"X c #966C6C",
"o c #694F62",
"O c white",
/* pixels */
"              ....              ",
"            ..........          ",
"         .. .  .........        ",
"       ....  ......   .         ",
"    ....  .. ........ . ...     ",
"   .... ....  ........  ...     ",
"  .... ...... XXoooXX  .....    ",
"  ..........X  oooooX ......    ",
" ..........XoXX oooooXX......   ",
" ..... ..XXoooo ooooooo.......  ",
"  ... ...XoooooooX  oooX...  .  ",
"     ...XoooooXX   oooooX... .  ",
" ..   ..XooooX      oooooX..... ",
" .. .   ooooo       oooooo..... ",
"..  ...X   oo       XoooooX.... ",
".. ....Xooooo        XoX    ... ",
".. ...Xoooooo          oooX     ",
".......Xoooooo      ooooooX.  . ",
" ......XoooooX    oooooooX.. .. ",
" .......XoooXX oooooooooXX.  .. ",
" .... ...Xoo  oooX ooooo... ... ",
" ..... .. XoooooX XoooX.......  ",
" ..... .  .Xoooo  XoX.........  ",
"  .....  ...XooX XX..........   ",
"  ....  ......XX ...........    ",
"   ..    ....... ....   ...     ",
"      .. ....... ..   ...       ",
"     .......  .  .. ....        ",
"      .......    ......         ",
"        ........ ...            ",
"           ....                 ",
"                                "
};
