/* XPM */
static char *Y[] = {
/* columns rows colors chars-per-pixel */
"32 32 5 1 ",
"  c #2E242F",
". c #3E3546",
"X c #966C6C",
"o c #694F62",
"O c white",
/* pixels */
" ........ Xoooo                 ",
". ...... Xoooooo                ",
"..  .... Xoooooo                ",
".... .. Xooooooo                ",
".....  XoooooooX                ",
".....  ooooooooX                ",
"..   X   oooooX                 ",
"  XXoooo  o                     ",
"XoooooooX                       ",
"ooooooooo                       ",
"oo ooooooX                      ",
"oo XXooo                        ",
"ooo  Xo                         ",
"XooX                            ",
"     oooo          ooooX  ooooo ",
"   XXooooooX  XooooooooX ooooooo",
"oooooooooooooo Xoooooooooooooooo",
"ooooooX ooooooo oooooooooooooooo",
"oooooo  ooooooooXooooooo ooooooo",
"oooooo oooooooooXooooooo ooooooo",
"oo ooX ooooooooo XoooooX ooooooo",
"X ooXX XXXooooXX XXXXXX  XoooXXX",
"  XX      XXX             XXXXX ",
".   .. ...   .. ........ .     .",
"...... ........ ........ ...... ",
" ....  ........  .......  ......",
"..... .......... .......  ......",
"..... .......... .  ....  ......",
"..... ...    ...   ...... ..... ",
"..... .. ....... ........ ......",
"   .. .........   .....    .....",
"                                "
};
