/* XPM */
static char *k1[] = {
/* columns rows colors chars-per-pixel */
"64 64 96 2 ",
"   c None",
".  c #1E182F",
"X  c #211629",
"o  c #23182A",
"O  c #251A2B",
"+  c #271D2E",
"@  c #281D2C",
"#  c #2B222F",
"$  c #2D232F",
"%  c #2E242F",
"&  c #33282F",
"*  c #372B2E",
"=  c #382C2F",
"-  c #372F34",
";  c #4F3D2D",
":  c #513F2E",
">  c #52402E",
",  c #55422E",
"<  c #59462E",
"1  c #5F4A2E",
"2  c #4F493F",
"3  c #5F4E33",
"4  c #5F553F",
"5  c #604B2E",
"6  c #614C2E",
"7  c #524B40",
"8  c #564F41",
"9  c #565042",
"0  c #5A5443",
"q  c #5B5544",
"w  c #5C5644",
"e  c #5E5945",
"r  c #605A45",
"t  c #84652B",
"y  c #83652C",
"u  c #84662C",
"i  c #87692D",
"p  c #88692C",
"a  c #87743E",
"s  c #A07C2B",
"d  c #A17D2C",
"f  c #847D4E",
"g  c #847D50",
"h  c #A5812D",
"j  c #C6992A",
"k  c #C69A2C",
"l  c #C89C2C",
"z  c #CC9F2C",
"x  c #CEA12C",
"c  c #D3A32A",
"v  c #D4A329",
"b  c #D4A42A",
"n  c #D0A22C",
"m  c #D4A52C",
"M  c #D8A729",
"N  c #D9A82A",
"B  c #D8A82B",
"V  c #D8A82C",
"C  c #CBAA3D",
"Z  c #D8AC31",
"A  c #EDB627",
"S  c #EDB729",
"D  c #EDB92B",
"F  c #F1BA29",
"G  c #F2BC2B",
"H  c #FCC228",
"J  c #FEC529",
"K  c #FFC92A",
"L  c #FEC92F",
"P  c #FBC730",
"I  c #F2C83D",
"U  c #FBCE3A",
"Y  c #FED13B",
"T  c #FFD23C",
"R  c #A1A062",
"E  c #A7A664",
"W  c #A7A866",
"Q  c #A8A865",
"!  c #FFD541",
"~  c #FFD842",
"^  c #F1D34F",
"/  c #CCC161",
"(  c #D7CE67",
")  c #D9CD62",
"_  c #D7CF68",
"`  c #D8D069",
"'  c #C7C972",
"]  c #C9CB73",
"[  c #CACC73",
"{  c #CBCD74",
"}  c #FFEA60",
"|  c #FFED61",
" . c #FFF672",
".. c #FFFA73",
"X. c #FFFA74",
"o. c #FFFC74",
/* pixels */
"                                                                                                                                ",
"                                                                                                                                ",
"                                                                                                                                ",
"                                                                                                                                ",
"                                                                                                                                ",
"                                                                                                                                ",
"                                                                                                                                ",
"                                                                                                                                ",
"                                                                                                                                ",
"                                                                                                                                ",
"                                                                                                                                ",
"                                                                                                                                ",
"                                                                                                                                ",
"                                                                                                                                ",
"                                                                                                                                ",
"                                                                                                                                ",
"                                                                                                                                ",
"                                                                                                                                ",
"                                                                                                                                ",
"                                                                                                                                ",
"                                                                                                                                ",
"                                                                                                                                ",
"                                                                                                                                ",
"                                                                                                                                ",
"                                            @ @ @ @ @ @ @ @                                                                     ",
"                                            0 e e e e e e 0                                                                     ",
"                                        X 8 E [ ] ' ' ] [ E 8 X                                                                 ",
"                                        8 f ( ............( g 9                                                                 ",
"                                    @ 0 E ( ^ ! ! ~ ~ ! ! ^ _ W 9 o O @ @ @ @ @ @ @ @ @ @ @ @ @ @ @                             ",
"                                    @ e [ ..! A v j j v A Y | ` g q w e e e e e e e e e e e e e e 0                             ",
"                                    @ e ] ..! v t < < u b L Y ^ ( ' ' ' ' ' ' ' ' ' ' ' ' ' ' ] [ Q 0 @                         ",
"                                    @ e ' ..~ j < . . < k J H U } X....... . . . . . . . . . ...o./ 4 @                         ",
"                                    @ e ' ..~ j < . . < k J H P T ~ ~ ~ ~ ! ! ! ! ! ! ! ! ! ! ! ~ C 3 @                         ",
"                                    @ e [ ..~ b u < < u m J J D b j j j j b F F b c D D c c D F M s : #                         ",
"                                    @ r { X.! S b k k m D J K B u < 1 1 < p B B u y b b y y b B p ; * $                         ",
"                                    @ 7 R ) I J J K K K J G V d ; + + + + > h d ; 1 z l < < l x 1 + # %                         ",
"                                    $ - 2 a Z K K K K K K V i ; * # # # # = > : & 5 x x 1 1 x n 6 + # %                         ",
"                                    % # + ; d z l l l l z d ; + # % % % % $ # @ # , h d > > d h , # # %                         ",
"                                    % $ # * > 5 5 1 1 5 5 > * #             # # $ = > > = = > > = $                             ",
"                                    % % % $ # # # # # # # # $ %             % % % $ # # $ $ # # $ %                             ",
"                                            # # # # # # # #                                                                     ",
"                                            % % % % % % % %                                                                     ",
"                                                                                                                                ",
"                                                                                                                                ",
"                                                                                                                                ",
"                                                                                                                                ",
"                                                                                                                                ",
"                                                                                                                                ",
"                                                                                                                                ",
"                                                                                                                                ",
"                                                                                                                                ",
"                                                                                                                                ",
"                                                                                                                                ",
"                                                                                                                                ",
"                                                                                                                                ",
"                                                                                                                                ",
"                                                                                                                                ",
"                                                                                                                                ",
"                                                                                                                                ",
"                                                                                                                                ",
"                                                                                                                                ",
"                                                                                                                                ",
"                                                                                                                                ",
"                                                                                                                                "
};
