/* XPM */
static char *k2[] = {
/* columns rows colors chars-per-pixel */
"64 64 176 2 ",
"   c None",
".  c #1E182F",
"X  c #211629",
"o  c #23182A",
"O  c #251A2B",
"+  c #271D2E",
"@  c #261D2F",
"#  c #261E2F",
"$  c #271F2F",
"%  c #281D2C",
"&  c #281E2D",
"*  c #291F2D",
"=  c #281F2E",
"-  c #281F2F",
";  c #29202F",
":  c #2B212E",
">  c #2A212F",
",  c #2B212F",
"<  c #2B222F",
"1  c #2C222E",
"2  c #2C232F",
"3  c #2D232F",
"4  c #2E242F",
"5  c #33282F",
"6  c #352A2F",
"7  c #372B2E",
"8  c #372B2F",
"9  c #382C2F",
"0  c #392D2F",
"q  c #3A2D2F",
"w  c #3A2E2F",
"e  c #372F34",
"r  c #4F3D2D",
"t  c #4D3C2E",
"y  c #4E3D2E",
"u  c #4F3D2E",
"i  c #4F3E2E",
"p  c #513F2E",
"a  c #523F2E",
"s  c #52402E",
"d  c #53412E",
"f  c #55422E",
"g  c #59452D",
"h  c #5B462D",
"j  c #59462E",
"k  c #5A462E",
"l  c #5B472E",
"z  c #5D472D",
"x  c #5C482E",
"c  c #5F4A2E",
"v  c #4F493F",
"b  c #5F4E33",
"n  c #5F553F",
"m  c #604B2E",
"M  c #614C2E",
"N  c #524B40",
"B  c #564F41",
"V  c #565042",
"C  c #5A5443",
"Z  c #5B5443",
"A  c #5B5543",
"S  c #5B5544",
"D  c #5C5644",
"F  c #5E5945",
"G  c #5F5945",
"H  c #605A45",
"J  c #84652B",
"K  c #83652C",
"L  c #84662C",
"P  c #85672C",
"I  c #84672D",
"U  c #87692D",
"Y  c #88692C",
"T  c #87743E",
"R  c #A07C2B",
"E  c #A17D2C",
"W  c #A07D2D",
"Q  c #A17D2D",
"!  c #A27F2D",
"~  c #847D4E",
"^  c #847D50",
"/  c #857E51",
"(  c #A4802D",
")  c #A5802D",
"_  c #A5812D",
"`  c #C6992A",
"'  c #C7992A",
"]  c #C79A2A",
"[  c #C69A2C",
"{  c #C89C2C",
"}  c #CA9E2C",
"|  c #CB9E2C",
" . c #CC9F2C",
".. c #CDA02C",
"X. c #CEA12C",
"o. c #CFA12C",
"O. c #D3A32A",
"+. c #D4A328",
"@. c #D4A329",
"#. c #D4A42A",
"$. c #D5A52A",
"%. c #D0A22C",
"&. c #D4A52C",
"*. c #D8A729",
"=. c #D8A82A",
"-. c #D9A82A",
";. c #D8A82B",
":. c #DBAA2A",
">. c #D8A82C",
",. c #D8A92C",
"<. c #CBAA3D",
"1. c #D8AC31",
"2. c #EDB627",
"3. c #EDB729",
"4. c #EEB829",
"5. c #EDB92B",
"6. c #F0BA29",
"7. c #F1BA29",
"8. c #F0BA2B",
"9. c #F2BC2B",
"0. c #FCC228",
"q. c #FCC329",
"w. c #FEC529",
"e. c #FEC52A",
"r. c #FFC72A",
"t. c #FEC62B",
"y. c #FFC72B",
"u. c #FFC92A",
"i. c #FFC82B",
"p. c #FFC92B",
"a. c #FEC92F",
"s. c #FBC730",
"d. c #F2C83D",
"f. c #FBCE3A",
"g. c #FED13B",
"h. c #FFD13B",
"j. c #FFD23C",
"k. c #A1A062",
"l. c #A7A664",
"z. c #A7A866",
"x. c #A8A865",
"c. c #FFD541",
"v. c #FFD741",
"b. c #FED542",
"n. c #FFD742",
"m. c #FFD643",
"M. c #FFD743",
"N. c #FFD842",
"B. c #FFD843",
"V. c #FFDB43",
"C. c #F1D34E",
"Z. c #F0D24F",
"A. c #F1D34F",
"S. c #CCC161",
"D. c #D4CC67",
"F. c #D7CD66",
"G. c #D7CE67",
"H. c #D9CD62",
"J. c #D7CF68",
"K. c #D8D069",
"L. c #C7C972",
"P. c #C6C973",
"I. c #C7C973",
"U. c #C9CB73",
"Y. c #CACC73",
"T. c #CBCD74",
"R. c #FFEA60",
"E. c #FFED61",
"W. c #FFF672",
"Q. c #FFF772",
"!. c #FFF872",
"~. c #FFF973",
"^. c #FFFA73",
"/. c #FFF974",
"(. c #FFFA74",
"). c #FFFC74",
/* pixels */
"                                                                                                                                ",
"                                                                                                                                ",
"                                                                                                                                ",
"                                                                                                                                ",
"                                                                                                                                ",
"                                                                                                                                ",
"                                                                                                                                ",
"                                                                                                                                ",
"                                                                                                                                ",
"                                                                                                                                ",
"                                                                                                                                ",
"                                                                                                                                ",
"                                                                                                                                ",
"                                                                                                                                ",
"                                                                                                                                ",
"                                                                                                                                ",
"                                                                                                                                ",
"                                                                                                                                ",
"                                                                                                                                ",
"                                                                                                                                ",
"                            % % % % % % % %                                                                                     ",
"                            C F F F F F F C                                                                                     ",
"                        X B l.Y.U.L.L.U.Y.l.B X                                                                                 ",
"                        B ~ G.^.^.^.^.^.^.G.~ V                                                                                 ",
"                    % C l.G.Z.n.n.N.N.n.n.Z.J.z.V o O % % + + % % % % % % % % % % %                                             ",
"                    % F Y.^.n.2.@.' ' @.2.h.E.K./ S D F F F F F F F F F F F F F F C                                             ",
"                    % F U.^.n.@.J h h P $.a.h.Z.G.L.L.L.L.L.L.L.L.L.L.L.L.L.L.U.Y.x.C %                                         ",
"                    % F L.^.N.' h . . h [ t.q.f.R./.^.^.^.W.W.W.W.W.W.W.W.W.W.^.).S.n %                                         ",
"                    % F L.^.N.' h . . h [ t.q.s.j.N.N.N.N.n.n.n.n.n.n.n.n.n.n.N.N.<.b %                                         ",
"                    % F Y.^.N.O.P h h P &.t.t.5.$.' ' ' ' $.6.6.$.O.5.5.O.O.5.6.*.R p ,                                         ",
"                    + F T./.n.3.#.[ [ &.5.t.i.:.P h z z h Y :.:.P K $.$.K K $.:.Y y 7 3                                         ",
"                    % N k.H.d.t.t.i.i.t.t.9.>.! y + + + + s _ ! y h  .{ h h { o.c + , 4                                         ",
"                    3 e v T 1.i.i.i.i.i.i.>.U y 7 , , , , 9 s p 5 m o.o.c c o.%.M + , 4                                         ",
"                    4 , + y !  .{ { { {  .! y + , 4 4 4 4 3 , % , f _ ! p p ! _ f , , 4                                         ",
"                    4 3 , 7 s m m c c m m s 7 ,             , , 3 9 s s 9 9 s s 9 3                                             ",
"                    4 4 4 3 , , , , , , , , 3 4             4 4 4 3 , , 3 3 , , 3 4                                             ",
"                            , , , , , , , ,                                                                                     ",
"                            4 4 4 4 4 4 4 4                                                                                     ",
"                                                                                                                                ",
"                                                                                                                                ",
"                                                                                                                                ",
"                                                                                                                                ",
"                                                                                                                                ",
"                                                                                                                                ",
"                                                                                                                                ",
"                                                                                                                                ",
"                                                                                                                                ",
"                                                                                                                                ",
"                                                                                                                                ",
"                                                                                                                                ",
"                                                                                                                                ",
"                                                                                                                                ",
"                                                                                                                                ",
"                                                                                                                                ",
"                                                                                                                                ",
"                                                                                                                                ",
"                                                                                                                                ",
"                                                                                                                                ",
"                                                                                                                                ",
"                                                                                                                                ",
"                                                                                                                                ",
"                                                                                                                                ",
"                                                                                                                                ",
"                                                                                                                                "
};
