/* XPM */
static char * key_xpm[] = {
"64 64 168 2",
"  	c #3C3445",
". 	c #453847",
"+ 	c #54404C",
"@ 	c #7F5E62",
"# 	c #946B6B",
"$ 	c #996D6D",
"% 	c #976C6C",
"& 	c #8A646A",
"* 	c #775866",
"= 	c #694F62",
"- 	c #936A6A",
"; 	c #7B595D",
"> 	c #49363F",
", 	c #312631",
"' 	c #2D232E",
") 	c #75555A",
"! 	c #4C3941",
"~ 	c #634A54",
"{ 	c #886369",
"] 	c #805E67",
"^ 	c #725665",
"/ 	c #876268",
"( 	c #78575C",
"_ 	c #513C43",
": 	c #43333C",
"< 	c #342832",
"[ 	c #5C444C",
"} 	c #63484E",
"| 	c #3F313D",
"1 	c #513E4C",
"2 	c #6B4F56",
"3 	c #785A61",
"4 	c #785964",
"5 	c #6D5263",
"6 	c #765765",
"7 	c #5F4855",
"8 	c #775863",
"9 	c #564152",
"0 	c #826068",
"a 	c #6B5063",
"b 	c #674E62",
"c 	c #7F5D66",
"d 	c #815E68",
"e 	c #8C656B",
"f 	c #785864",
"g 	c #725357",
"h 	c #846167",
"i 	c #493740",
"j 	c #443441",
"k 	c #705364",
"l 	c #725563",
"m 	c #6E5057",
"n 	c #3D2F3B",
"o 	c #4B3A48",
"p 	c #745663",
"q 	c #5B4554",
"r 	c #634B5B",
"s 	c #6D5264",
"t 	c #7D5C66",
"u 	c #392C36",
"v 	c #7D5B63",
"w 	c #8F686A",
"x 	c #281D2C",
"y 	c #5A5443",
"z 	c #5E5945",
"A 	c #211629",
"B 	c #564F41",
"C 	c #A7A664",
"D 	c #CACC73",
"E 	c #C9CB73",
"F 	c #C7C972",
"G 	c #4B383F",
"H 	c #847D4E",
"I 	c #D7CE67",
"J 	c #FFFA73",
"K 	c #847D50",
"L 	c #565042",
"M 	c #F1D34F",
"N 	c #FFD541",
"O 	c #FFD842",
"P 	c #D7CF68",
"Q 	c #A7A866",
"R 	c #23182A",
"S 	c #251A2B",
"T 	c #2F2430",
"U 	c #EDB627",
"V 	c #D4A329",
"W 	c #C6992A",
"X 	c #FED13B",
"Y 	c #FFED61",
"Z 	c #D8D069",
"` 	c #5B5544",
" .	c #5C5644",
"..	c #84652B",
"+.	c #59462E",
"@.	c #84662C",
"#.	c #D4A42A",
"$.	c #FEC92F",
"%.	c #A8A865",
"&.	c #1E182F",
"*.	c #C69A2C",
"=.	c #FEC529",
"-.	c #FCC228",
";.	c #FBCE3A",
">.	c #FFEA60",
",.	c #FFFA74",
"'.	c #FFF672",
").	c #FFFC74",
"!.	c #CCC161",
"~.	c #5F553F",
"{.	c #FBC730",
"].	c #FFD23C",
"^.	c #CBAA3D",
"/.	c #5F4E33",
"(.	c #956B6C",
"_.	c #D4A52C",
":.	c #EDB92B",
"<.	c #F1BA29",
"[.	c #D3A32A",
"}.	c #D8A729",
"|.	c #A07C2B",
"1.	c #513F2E",
"2.	c #2B222F",
"3.	c #825E61",
"4.	c #8C666A",
"5.	c #605A45",
"6.	c #CBCD74",
"7.	c #EDB729",
"8.	c #FFC92A",
"9.	c #D8A82B",
"0.	c #5F4A2E",
"a.	c #88692C",
"b.	c #83652C",
"c.	c #4F3D2D",
"d.	c #372B2E",
"e.	c #2D232F",
"f.	c #946B6C",
"g.	c #524B40",
"h.	c #A1A062",
"i.	c #D9CD62",
"j.	c #F2C83D",
"k.	c #F2BC2B",
"l.	c #D8A82C",
"m.	c #A17D2C",
"n.	c #271D2E",
"o.	c #52402E",
"p.	c #A5812D",
"q.	c #CC9F2C",
"r.	c #C89C2C",
"s.	c #CEA12C",
"t.	c #2E242F",
"u.	c #906869",
"v.	c #372F34",
"w.	c #4F493F",
"x.	c #87743E",
"y.	c #D8AC31",
"z.	c #87692D",
"A.	c #382C2F",
"B.	c #33282F",
"C.	c #604B2E",
"D.	c #D0A22C",
"E.	c #614C2E",
"F.	c #55422E",
"G.	c #5F495B",
"H.	c #836068",
"I.	c #705463",
"J.	c #6E5259",
"K.	c #6C4F58",
"    . + @ # $ % % & * = = = = = = * & % % $ - ; > , ' ' ' ' ' ' ' ' , > ; - $ % % % % % % % % % % ) ! ' ' ' ' ' ' ' ' ' ' ' ' ' ",
"  . + ~ @ { & & & ] ^ = = = = = = ^ ] & & & / ( _ > > : < ' ' ' ' < : [ ; { & & & & & & & & & & & ; } ! ! > : | | : > : < ' ' ' ",
". 1 2 3 4 * * * * ^ 5 = = = = = = 5 ^ * * * 6 5 7 ~ 2 } : , ' ' , : } ( 8 * * * * * * * * * * * * 3 ( ) ) 2 ~ 9 9 ~ 2 } : , ' ' ",
"+ ~ 3 0 ^ a b = = = = = = = = = = = = = = = = = = 6 c ; [ : < < : [ ( 0 ^ a = = = = = = = = = = = ^ d e e d ^ = = 6 c ; [ : < ' ",
"@ @ 4 ^ 5 a = = = = = = = = = = = = = = = = = = = 5 ^ f ; } > : ~ ( 4 ^ 5 a = = = = = = = = = = = 5 ^ 6 6 ^ 5 = = 5 ^ 4 ; } : ' ",
"# { * a a = = = = = = = = = = = = = = = = = = = = = a 6 & g _ > ( h 4 a a = = = = = = = = = = = = = a a a = = = = = a 6 & g > ' ",
"$ & * = = = = = = = = = = = = = = = = = = = = = = = a 6 e ) _ i ; / 4 = = = = = = = = = = = = = = = = b b = = = = b a 6 e ) ! ' ",
"% & * = = = = = = = = = = = = = = = = = = = = = = = a ^ 0 2 ! > ; / 4 = = = = = = = = = = = = = = = = = = = = = = b a 6 & ) ! ' ",
"% & * = = = = = = = = = = = = = = = = = = = = = = = a 5 ^ 7 j > ; / 4 = = = = = = = = = = = = = = = = = = = = = = b a 6 & ) ! ' ",
"& ] ^ = = = = = = = = = = = = = = = = = = = = = = = = a = 9 : | } ( 3 6 5 = = = = = = = = = = = = = = = = = = = = = a ^ c 2 > ' ",
"* ^ 5 = = = = = = = = = = = = = = = = = = = = = = = = a = 9 : < : [ ( c k = = = = = = = = = = = = = = = = = = = = = a 5 l ~ : ' ",
"= = = = = = = = = = = = = = = = = = = = = = = = = = a 5 ^ ~ > ' ' : } ( 5 = = = = = = = = = = = = = = = = = = = = = a 5 ^ 7 : ' ",
"= = = = = = = = = = = = = = = = = = = = = = = = = = a ^ 0 m i ' ' < : 1 ~ = a = = = = = = = = = = = = = = = = = = = a ^ d 2 > ' ",
"= = = = = = = = = = = = = = = = = = = = = = = = = = a ^ ] 2 > ' ' , n o ~ = a = = = = = = = = = = = = = = = = = = = a 6 & ) i ' ",
"= = = = = = = = = = = = = = = = = = = = = = = = = = = 5 p ~ > ' , n o q r = a = = = = = = = = = = = = = = = = = = = a 6 & ) i ' ",
"= = = = = = = = = = = = = = = = = = = = = = = = = = = = = 9 : < : _ ~ a = = = = = = = = = = = = = = = = = = = = = = a ^ 0 m > ' ",
"= = = = = = = = = = = = = = = = = = = = = = = = = = = = = 9 j : ~ ( l = = = = = = = = = = = = = = = = = = = = = = = a s ^ 7 : ' ",
"= = = = = = = = = = = = = = = = = = = = = = = = = = = 5 ^ 7 j > m t 6 = = = = = = = = = = = = = = = = = = = = = = = = a a 9 n ' ",
"= = = = = = = = = = = = = = = = = = = = = = = = = = a ^ d 2 i : ~ l ^ = = = = = = = = = = = = = = = = = = = = = = = = = = 9 n ' ",
"= = = = = = = = = = = = = = = = = = = = = = = = = b a 6 & ) ! u q = 5 = = = = = = = = = = = = = = = = = = = = = = = = = = 9 | ' ",
"= = = = = = = = = = = = = = = = = = = = = = = = = b = 6 & ) ! u q = 5 = = = = = = = = = = = = = = = = = = = = = = = = = = 9 | ' ",
"b = = = = = = = = = = = = = = = = = = = = = = = = b = 6 & g _ : ~ l l = = = = = = = = = = = = = = = = = = = = = = = = = = 9 n ' ",
"a a = = = = = = = = = = = = a a a = = = = = = = = = 5 * & g _ > m v 6 = = = = = = = = = = = = = = = = = = = = = = = = a a 9 n ' ",
"6 ^ 5 = = = = = = = = = = 5 ^ ^ 5 = = = = = = = = a ^ ] w ) ! : ~ ( 8 s 5 a = = = = = = = = = = = = = = = = = = = = a 5 ^ 7 : ' ",
"& ] 6 = = = = = = = = = = 6 ] ] s = = = = = x x x x x x x x ! < : [ ( d ^ a = = = = = = = = = = = = = = = = = = = = a ^ ] 2 > ' ",
") ( 3 6 5 = b b b b = 5 6 3 ; ( 8 ^ s b b b y z z z z z z y ! ' , _ ) e 6 a = = = = = b b = = = = = = b b = = = = = a 6 e ) i ' ",
"! [ ( c ^ a = a a a a ^ c ) } [ ( t 6 a A B C D E F F E D C B A ' G g & 6 a = = = = a a = = = = = = a a a = = a a a 5 6 & g G ' ",
"' : } ; 4 6 6 6 6 6 6 4 ; } > : ~ ( 4 6 B H I J J J J J J I K L ' : } ; 6 ^ 5 = = 5 ^ 6 6 ^ 5 = = 5 ^ 6 6 ^ 5 5 ^ 6 6 6 ; } : ' ",
"' < : [ ; & e & & e & ; [ : < < : [ x y C I M N N O O N N M P Q L R S x x x x x x x x x x x x x x x d e e ] l s ] e & ; [ : < ' ",
"' ' , | } g ) g g ) g } | T ' ' , : x z D J N U V W W V U X Y Z K `  .z z z z z z z z z z z z z z y 2 ) ) 2 7 7 2 ) g } : , ' ' ",
"' ' T < > ! _ _ _ _ _ > u ' ' , , < x z E J N V ..+.+.@.#.$.X M I F F F F F F F F F F F F F F E D %.y x ! i : : > ! ! > < ' ' ' ",
"' < | > > > > > > > > > i > : : : n x z F J O W +.&.&.+.*.=.-.;.>.,.J J J '.'.'.'.'.'.'.'.'.'.J ).!.~.x < ' ' ' ' < n : < ' ' ' ",
"' : } ; ; ; ; ; ; ; ; ; ; ) ~ q q q x z F J O W +.&.&.+.*.=.-.{.].O O O O N N N N N N N N N N N O ^./.x : , ' ' ' : [ ~ : , ' ' ",
"! } ; # (.- & h / h h / / c l = = = x z D J O #.@.+.+.@._.=.=.:.#.W W W W #.<.<.#.[.:.:.[.[.:.<.}.|.1.2.> u : ! ! [ g ( [ : < ' ",
") 3.4.$ $ w d 4 4 4 4 4 4 6 k 5 a a x 5.6.,.N 7.#.*.*._.:.=.8.9.@.+.0.0.+.a.9.9.@.b.#.#.b.b.#.9.a.c.d.e.i > [ ) ) ( 3 4 ; } : ' ",
"% % % f.e ] l = = = = = = = = = = = x g.h.i.j.=.=.8.8.8.=.k.l.m.c.n.n.n.n.o.p.m.c.0.q.r.+.+.r.s.0.n.2.t.> ! g f.u.] p 6 e ) ! ' ",
"% $ % e c ^ 5 = = = = = = = = = = = e.v.w.x.y.8.8.8.8.8.8.l.z.c.d.2.2.2.2.A.o.1.B.C.s.s.0.0.s.D.E.n.2.t.: ! ) u.] ^ 5 6 e ) ! ' ",
"% # e ] ^ a = = = = = = = = = = = = t.2.n.c.m.q.r.r.r.r.q.m.c.n.2.t.t.t.t.e.2.x 2.F.p.m.o.o.m.p.F.2.2.t.o _ 2 3 l a a 6 e ) ! ' ",
"% e ] l 5 = = = = = = = = = = = = = t.e.2.d.o.C.C.0.0.C.C.o.d.2.; / 4 = = = 2.2.e.A.o.o.A.A.o.o.A.e.= r 7 q [ 7 r b a 6 & ) i ' ",
"% & * = = = = = = = = = = = = = = = t.t.t.e.2.2.2.2.2.2.2.2.e.t.; h 4 = = = t.t.t.e.2.2.e.e.2.2.e.t.= = = G.9 1 ~ = a ^ d 2 > ' ",
"% & * = = = = = = = = = = = = = = = = = = = 2.2.2.2.2.2.2.2.j > ; / 4 = = = = = = = = = = = = = = = = = = b r ~ b = a s ^ 7 : ' ",
"$ & * = = = = = = = = = = = = = = = = = = = t.t.t.t.t.t.t.t.j > ; / 4 = = = = = = = = = = = = = = = = = = = = = = = = a = 9 n ' ",
"% { 6 = = = = = = = = = = = = = = = = = = = = = = = a ^ c 2 i > ; / 4 a = = = = = = = = = = = = = = = = = = a a = = = a = 9 n ' ",
"& d ^ = = = = = = = = = = = = = = = = = = = = = = = a ^ d 2 ! > ; / 4 5 s s 5 = = = = = = = = = = = = = = = = = = = a s ^ 7 : ' ",
"6 ^ 5 = = = = = = = = = = = = = = = = = = = = = = = a 5 ^ 7 j > ; h 4 k ] ] 6 = = = = = = = = = = = = = = = = = = = a ^ H.m > ' ",
"a a = = = = = = = = = = = = = = = = = = = = = = = = = 5 6 7 j i ; e / * 3 ( 5 = = = = = = = = = = = = = = = = = = = a 6 & ) G ' ",
"= = = = = = = = = = = = = = = = = = = = = = = = = = a ^ c 2 i > ( e e 3 ~ 7 r = = = = = = = = = = = = = = = = = = b = 6 e ) ! ' ",
"= = = = = = = = = = = = = = = = = = = = = = = = = = a ^ 0 2 i : ~ ; ; m + 9 G.= = = = = = = = = = = = = = = = = = b a 6 & ) ! ' ",
"= = = = = = = = = = = = = = = = = = = = = = = = = = a 5 ^ 7 : < : > > ! 9 r b = = = = = = = = = = = = = = = = = = b a 6 & ) ! ' ",
"* ^ 5 = = = = = = = = = = = = = = = = = = = = = = = = a a q : , n : j o 7 = a = = = = = = = = = = = = = = = = = = b a 6 & ) ! ' ",
"/ c ^ = = = = = = = = = = = = = = = = = = = = = = = = = = 9 : u o 9 9 q r = a = = = = = = = = = = = = = = = = = = b a 6 & ) ! ' ",
"{ ] 6 = = = = = = = = = = = = = = = = = = = = = = = = = = 9 : : ~ I.^ a = = = = = = = = = = = = = = = = = = = = = b a 6 & ) ! ' ",
"6 ^ 5 = = = = = = = = = = = = = = = = = = = = = = = = = = 9 : > g ] * = = = = = = = = = = = = = = = = = = = = = = b a 6 & ) ! ' ",
"= = = = = = = = = = = = = = = = = = = = = = = = = = = = = 9 j > ; / 4 = = = = = = = = = = = = = = = = = = = = = = b a 6 & ) ! ' ",
"= = = = = = = = = = = = = = = = = = = = = = = = = = = a a 9 j > ; / 4 = = = = = = = = = = = = = = = = = = = = = = b a 6 & ) ! ' ",
"6 ^ 5 = = = = = = = = = = = = = = = = = = = = = = = a 5 ^ 7 j > g c 6 = = = = = = = = = = = = = = = = = = = = = = b a 6 e ) ! ' ",
"& d ^ = = = = = = = = = = = = = = = = = = = = = = = a ^ d 2 ! : ~ 5 s = = = = = = = = = = = = = = = = = = = = = = b a 6 e ) ! ' ",
"% & 6 b = = = = = = = = = = = = = = = b b = = = = b a 6 e ) _ : 2 l s b b = = = = = = b b = = = = = = b b s ^ l r r l 4 ; } : ' ",
"(.{ * a a = = a a a a a a = = = = = a a = = a a a a 5 6 & g ! : m 4 6 a a = = = = = a a a = = = = = a a a 6 c 8 7 r ( ( [ : < ' ",
"; ; 3 ^ s a = s ^ 6 6 ^ s a = = = 5 ^ 6 6 ^ 5 5 ^ 6 6 4 ; } > : ~ ( 4 6 6 ^ 5 = = 5 ^ 6 6 ^ 5 = = 5 ^ 6 6 4 ; g 7 r J.~ : , ' ' ",
"> [ ) H.^ = = ^ 0 & & 0 ^ a = = = ^ d e e ] l ^ d e & ; [ : < < : [ ; e e ] l = = ^ d e e d ^ = = ^ d e e ( [ + g m [ : < ' ' ' ",
", : [ m 7 9 9 7 m ) ) m 7 9 9 9 9 ~ K.) ) 2 ~ 7 2 ) g } : , ' ' , : } ) ) m ~ 9 9 ~ K.) ) K.~ 9 9 7 K.) ) [ > : } [ > , ' ' ' ' ",
"' < : > : n n : > i i > : n n | | : > ! ! i : : > i > : < ' ' ' ' < : ! ! > : | | : > ! ! i : | n : > ! ! : < < : : u ' ' ' ' ' ",
"' ' ' ' ' ' ' ' ' ' ' ' ' ' ' ' ' ' ' ' ' ' ' ' ' ' ' ' ' ' ' ' ' ' ' ' ' ' ' ' ' ' ' ' ' ' ' ' ' ' ' ' ' ' ' ' ' ' ' ' ' ' ' ' "};
