/* XPM */
static char *xpm__[] = {
/* columns rows colors chars-per-pixel */
"48 48 131 2 ",
"   c #251E29",
".  c #2E242F",
"X  c #2F2531",
"o  c #302632",
"O  c #342935",
"+  c #3A2C37",
"@  c #362C3A",
"#  c #3A2D39",
"$  c #3B303D",
"%  c #41323E",
"&  c #48363E",
"*  c #3D3445",
"=  c #3F3648",
"-  c #453542",
";  c #483744",
":  c #4B3944",
">  c #4C3A49",
",  c #513D4C",
"<  c #594147",
"1  c #56404D",
"2  c #5B434B",
"3  c #574252",
"4  c #5B4556",
"5  c #5E4759",
"6  c #5F485A",
"7  c #60474D",
"8  c #65494E",
"9  c #634B53",
"0  c #694D52",
"q  c #634A5C",
"w  c #684E5B",
"e  c #6D535B",
"r  c #6D525A",
"t  c #6E535B",
"y  c #6C5159",
"u  c #6F545C",
"i  c #6C525A",
"p  c #765659",
"a  c #775659",
"s  c #74555B",
"d  c #77565A",
"f  c #72545D",
"g  c #76565B",
"h  c #78575A",
"j  c #664D60",
"k  c #674E61",
"l  c #674E62",
"z  c #674E61",
"x  c #684E61",
"c  c #684E62",
"v  c #684F62",
"b  c #694F62",
"n  c #684F63",
"m  c #694F63",
"M  c #6A4F62",
"N  c #6A4F63",
"B  c #694F62",
"V  c #6A5063",
"C  c #6B5063",
"Z  c #6C5163",
"A  c #6D5263",
"S  c #6E5262",
"D  c #6F5263",
"F  c #6F5363",
"G  c #6A5064",
"H  c #6B5064",
"J  c #6B5164",
"K  c #6C5165",
"L  c #6D5264",
"P  c #6C5265",
"I  c #6E5264",
"U  c #6F5365",
"Y  c #6B5163",
"T  c #705364",
"R  c #705464",
"E  c #715464",
"W  c #705465",
"Q  c #725564",
"!  c #725565",
"~  c #735665",
"^  c #755664",
"/  c #755764",
"(  c #755765",
")  c #745666",
"_  c #765766",
"`  c #715464",
"'  c #775866",
"]  c #785862",
"[  c #7B5A63",
"{  c #7F5C60",
"}  c #7F5C61",
"|  c #7A5A64",
" . c #785967",
".. c #7C5B66",
"X. c #7E5C65",
"o. c #7B5A63",
"O. c #7E5D68",
"+. c #7F5D68",
"@. c #7F5E68",
"#. c #7F5D68",
"$. c #805D62",
"%. c #815E62",
"&. c #825E62",
"*. c #815E64",
"=. c #805E69",
"-. c #815F6A",
";. c #856062",
":. c #856162",
">. c #866163",
",. c #876263",
"<. c #896364",
"1. c #896366",
"2. c #886263",
"3. c #836069",
"4. c #84616A",
"5. c #85616A",
"6. c #85616A",
"7. c #896469",
"8. c #89646A",
"9. c #8A646A",
"0. c #8D6668",
"q. c #8D6669",
"w. c #8E676A",
"e. c #8F686B",
"r. c #8F686B",
"t. c #90686B",
"y. c #926A6C",
"u. c #926A6D",
"i. c #936B6D",
"p. c #936A6C",
"a. c #9A6E6E",
/* pixels */
". @ * * * * * * * * * * * O $ ;.3.v v v v v G 5 + : v v v v v v v v k ! t.r * * * * * * * * @ . ",
"@ @ @ * * * * * * * * * @ : 9 [ / v v v v v G 5 O # , q C v v k S +.w , 2 : @ @ @ @ @ @ @ @ O . ",
"* @ O $ * * * * * * * * X 8 t.! v v v v v v C q % X + 6 G v v S / %.< o + + o . X o o o o . . . ",
"* * $ O o O * * * * * * X 8 t.! k v v v v v v v q - O 6 G v v +.%.: o # a 9 # X @ * * * $ o . . ",
"* * * @ @ @ @ * * * @ # 2 a ..S v v v v v v k I =.< + 5 G v v ' [ , - 2 w.u * @ * * * * * # O . ",
"* * * * * * O @ * * # : %.+.v v v v v v v v S / %.< + 5 G v v v v v v ! e.r * * * * * * * * @ . ",
"* * * * * * * @ o o 2 %./ S v v v v v v v v +.%.: o + 6 G v v v v v v ! e.r * * * * * * * * @ . ",
"* * * * * * * @ . . 2 =.I v v v v v v v v v 6.<.#   O 6 G v v v v v v ! e.y * * * @ * * * * @ . ",
"* * * * * * * $ # o - 6 6 q v v v v v v C T X.a # X % q C v v v v v q w w.r * * @ o * * * * @ . ",
"* * * O o o o 2 a # X O + , v v v v v v ! 7.0 # o - q v v v v v v v > ; ;.r * * @ o * @ O * @ . ",
"O O $ 2 8 2 > w | 1 : - . + , k 4 > > > , 7 & . . > G C v v v v v v 3 1 1.r * * * @ * * @ * @ . ",
"% + - %.i.7.T v v v C q - o O 3 ; . . . . . . . . , ! C v v v v v v v ! e.r * * * * * * * * @ . ",
";.f q S ! ! C v v v v S %.< X O o . . . . . . . . 7 7.! v v v v v v v ! e.r * * * * * * * * @ . ",
"3.' G G v v v v v v v I =.< . . . . . . . . . . . & 9 q v v v v v v k ! y.r * * * * * * * * @ . ",
"v v k q q v v v v v v v v 1 # o . . . . . . . . . . # w ! v v v v v v S %.9 * * * * * * * * @ . ",
"v C q % > v v v v v v v v | a # . . . . . . . . . . # } =.v v v v v G q - O o o @ * * * * * @ . ",
"v G 5 O , 6.6./ v v G q , 2 2 + . . . . . . . . . . O < 1 > q G q > : - . X @ @ @ @ @ @ @ @ O . ",
"v C q % 2 ;.;.[ ! C q 3 O . . . . . . . . . . . . . X O O % q I q % O + # * * * @ . o o o . . . ",
"v v v q > # $ 0 7.! , O X . . . . . . . . . . . . . O 3 q q v C k q 5 w } 9 * * @ o $ * $ o . . ",
"v v v C 4 - X & 7 , # . . . . . . . . . . . . . . # , q I C v v v C G / y.r * * @ o * = * @ O . ",
"v v v v k 3 O . . . . . . . . . . . . . . . . . . > C v v v v v v v k ! e.r * * @ o * * * * @ . ",
"v v C C , O X . . . . . . . . . . . . . . . . . . > C v v v v v v v k ! e.r * * @ o * * * * @ . ",
"> > > > # . . . . . . . . . . . . . . . . . . . . > v v v v v v v v k ! e.r * * * @ * * * * @ . ",
". . . . . . . . . . . . . . . . . . . . . . . . . > v v v v v v v v k ! e.r * * * * * * * * @ . ",
". . . . . . . . . . . . . . . . . . . . . . . . . > v v v v v v v v v ! w.r * * * * * @ O * @ . ",
". . . . . . . . . . . . . . . . . . . . . . . . . > v v v v v v v v k ! y.r * * * * * @ X * @ . ",
". . . . . . . . . . . . . . . . . . . . . . . . . > T C v v v v v v S / %.9 * * * * * @ O * @ . ",
". . . . . . . . . . . . . . . . . . . . . . . . . 2 7.! v v v v v v +.%.: $ * * * * * * * * @ . ",
". . . . . . . . . . . . . . . . . . . . . . . . . 8 i./ v v C G C C 6.<.# X @ * = * @ * * # O . ",
". . . . . . . . . . . . . . . . . . . . . . . . . < } w q v q 5 5 5 f a # . o $ * $ o @ $ o . . ",
". . . . . . . . . . . . . . . . . . . . . . . . . O # + , q % O O O # # o . . o o o . X o X . . ",
". . . . . . . . . . . . . . . . . . . . . . . O - > ; : 4 q > ; : : + . . . X @ @ @ @ @ @ X . . ",
". . . . . . . . . . . . . . . . . . . . . . . + 6 G v v v v v v C C 1 # o X O * * * * * * o . . ",
". . . . . . . . . . . . . . . . . . . . . . . + 6 G v v v v v C v v | a # O * * * * * * * o . . ",
". . . . . . . . . . . . . . . . . . . . . . . + 6 G v v v v v v v v 6.;.# O * * * * * * * @ O . ",
". . . . . . . . . . . . . . . . . . . . . . . + 6 G v v v v v v v v 3.<.: $ * * * * * * * * @ . ",
". . . . . . . . . . . . . . . . . . . . . . . + 6 G v v v v v v v v =.p.<.9 * * * * * * * * @ . ",
". . . . . . . . . . . . . . . . . . . . . . . + 5 G v v v v v v v v =.a.a.r * * * * * * @ * @ . ",
". . . . . . . . . . . . . . . . . . . . . . . # w T v v v v v C v v ..t.i.y * * * * * @ o * @ . ",
". . . . . . . . . . . . . . . . . . . . . . . $ } =.v v v v v v v v S | t.y * * * * * @ o * @ . ",
". . . . . . . . . . . . . . . . . . . . . . . O < w v v C q > - > q G ! e.0 @ * * * * @ o * @ . ",
". . . . . . . . . . . . . . . . . . . . . . . X O , v v C q - # & 4 5 w w.8 X # * * * @ O * @ . ",
". . . . . . . . . . . . . . . . . . . . . . . O 3 q v v v S %.<.h & o ; ,.9 . X o o o @ * * @ . ",
". . . . . . . . . . . . . . . . . . . . . . . # q I v v v S +.6.| , - > 2 : @ @ @ @ X o @ @ O . ",
". . . . . . . . . . . . . . . . . . . . . . . + q G v v v v v v v v G q - $ * * * * O o o o X . ",
". . . . . . . . . . . . . . . . . . . . . . . + q G v v v v v v v v v S %.9 * * * * * * * * @ . ",
". . . . . . . . . . . . . . . . . . . . . . . o - 4 v v v v v v v v k ! y.r * * * * * * * * @ . ",
". . . . . . . . . . . . . . . . . . . . . . . . . > v v v v v v v v k ! w.y * * * * * * * * @ . "
};
