/* XPM */
static char *f[] = {
/* columns rows colors chars-per-pixel */
"48 48 205 2 ",
"   c #29212C",
".  c #2A212C",
"X  c #2A212D",
"o  c #2B222D",
"O  c #2C222D",
"+  c #2C232D",
"@  c #2C232E",
"#  c #2D232E",
"$  c #2D232F",
"%  c #2D242E",
"&  c #2D242F",
"*  c #2E242F",
"=  c #2E2430",
"-  c #2F2530",
";  c #2F2531",
":  c #2F2632",
">  c #302630",
",  c #312630",
"<  c #302632",
"1  c #332833",
"2  c #342831",
"3  c #342832",
"4  c #322935",
"5  c #322936",
"6  c #332936",
"7  c #342834",
"8  c #372A34",
"9  c #362A36",
"0  c #372B37",
"q  c #382B35",
"w  c #382B37",
"e  c #392C37",
"r  c #3C2E37",
"t  c #3D2E37",
"y  c #322938",
"u  c #322A38",
"i  c #342B3A",
"p  c #352C39",
"a  c #352C3A",
"s  c #362C3A",
"d  c #372E3C",
"f  c #372E3D",
"g  c #372F3F",
"h  c #382B38",
"j  c #392C38",
"k  c #3A2D3A",
"l  c #3B2D3B",
"z  c #3B2E3A",
"x  c #3D2E38",
"c  c #3F2F38",
"v  c #3E2F39",
"b  c #3A2F3C",
"n  c #3B2F3C",
"m  c #3F3038",
"M  c #3F3039",
"N  c #39303F",
"B  c #3C303C",
"V  c #3E323E",
"C  c #403039",
"Z  c #40313E",
"A  c #47353D",
"S  c #48363D",
"D  c #3A3140",
"F  c #3A3142",
"G  c #3A3242",
"H  c #3B3242",
"J  c #3C3343",
"K  c #3C3344",
"L  c #3D3445",
"P  c #3E3545",
"I  c #3E3546",
"U  c #3E3547",
"Y  c #3F3647",
"T  c #3F3648",
"R  c #423342",
"E  c #463540",
"W  c #473540",
"Q  c #473640",
"!  c #443442",
"~  c #443443",
"^  c #453543",
"/  c #463544",
"(  c #473644",
")  c #483746",
"_  c #483747",
"`  c #4A3942",
"'  c #4D3A41",
"]  c #4D3942",
"[  c #493847",
"{  c #4A3847",
"}  c #4B3948",
"|  c #4C3A49",
" . c #4D3A49",
".. c #4F3B48",
"X. c #4F3C49",
"o. c #4F3C4B",
"O. c #503C4A",
"+. c #503D4A",
"@. c #543F48",
"#. c #503D4C",
"$. c #503D4D",
"%. c #513D4D",
"&. c #513E4D",
"*. c #55404E",
"=. c #5A4248",
"-. c #5A4348",
";. c #58414B",
":. c #5B434A",
">. c #5B444A",
",. c #5C444A",
"<. c #5C444B",
"1. c #59434C",
"2. c #5A434D",
"3. c #5E454C",
"4. c #5F464C",
"5. c #5F464D",
"6. c #574252",
"7. c #574253",
"8. c #5B4556",
"9. c #5C4557",
"0. c #5C4657",
"q. c #5D4759",
"w. c #5E4758",
"e. c #5F4759",
"r. c #5F4859",
"t. c #5F485A",
"y. c #60474D",
"u. c #63484D",
"i. c #654A4E",
"p. c #664B4F",
"a. c #664B51",
"s. c #694D52",
"d. c #694D53",
"f. c #60485A",
"g. c #60495B",
"h. c #61495B",
"j. c #624A5B",
"k. c #674D59",
"l. c #664C5B",
"z. c #634A5C",
"x. c #644B5D",
"c. c #644B5E",
"v. c #644C5E",
"b. c #664D5F",
"n. c #684D59",
"m. c #765659",
"M. c #775659",
"N. c #74555B",
"B. c #77565A",
"V. c #72545D",
"C. c #664D60",
"Z. c #664D61",
"A. c #674E61",
"S. c #674E62",
"D. c #684E61",
"F. c #684E62",
"G. c #684F62",
"H. c #694F62",
"J. c #684F63",
"K. c #694F63",
"L. c #6A4F62",
"P. c #6A4F63",
"I. c #6A5063",
"U. c #6B5063",
"Y. c #6C5163",
"T. c #6D5263",
"R. c #6E5262",
"E. c #6F5363",
"W. c #6A5064",
"Q. c #6B5064",
"!. c #6B5164",
"~. c #6C5164",
"^. c #6E5264",
"/. c #6F5365",
"(. c #705364",
"). c #705464",
"_. c #715464",
"`. c #725565",
"'. c #755764",
"]. c #755765",
"[. c #765766",
"{. c #7B5A63",
"}. c #7F5C60",
"|. c #7A5A64",
" X c #785967",
".X c #7C5B66",
"XX c #7E5C65",
"oX c #7F5D68",
"OX c #7F5E68",
"+X c #805D62",
"@X c #815E62",
"#X c #825E62",
"$X c #815F6A",
"%X c #856062",
"&X c #856162",
"*X c #896364",
"=X c #836069",
"-X c #84616A",
";X c #85616A",
":X c #896469",
">X c #89646A",
",X c #8A646A",
"<X c #90686B",
"1X c #936A6D",
"2X c #936B6D",
/* pixels */
"& s I I I I I I I I I I I y M %X=XH.H.H.H.H.W.r.w + & & & & & & & & & & & & & & & & & & & & & & ",
"s s d I I I I I I I I I d ` a.{.'.H.H.H.H.H.U.x.&.z & & & & & & & & & & & & & & & & & & & & & & ",
"I d 4 N J J I I I I I D : u.<X`.A.H.H.H.H.H.H.H.H...& & & & & & & & & & & & & & & & & & & & & & ",
"I I N 4 < 4 J I I I I D : u.<X`.A.H.H.H.H.H.H.H.U...& & & & & & & & & & & & & & & & & & & & & & ",
"I I I d s s s D I I d n >.M..XR.H.H.H.H.H.H.H.H.W...& & & & & & & & & & & & & & & & & & & & & & ",
"I I I I I J 4 s D D n ' +XOXH.H.H.H.H.H.H.H.R.R.z.^ & & & & & & & & & & & & & & & & & & & & & & ",
"I I I I I I J s < < >.+X'.R.H.H.H.H.H.H.H.H.OX+XE < & & & & & & & & & & & & & & & & & & & & & & ",
"I I I I I I T s o + 2.$X^.H.H.H.H.H.H.H.H.A.;X*XM o & & & & & & & & & & & & & & & & & & & & & & ",
"I I I D D D D B r < ^ r.r.x.H.H.H.H.H.H.U.`.XXM.x o & & & & & & & & & & & & & & & & & & & & & & ",
"I I J 4 : : < 4.M.x : 0 0 &.H.H.H.H.H.H.`.:Xd.r < & & & & & & & & & & & & & & & & & & & & & & & ",
"y y B >.i.4...n. X*.} E & h &.A.0.} } } +.y.S o + & & & & & & & & & & & & & & & & & & & & & & & ",
"C e E +X2X:X(.H.H.H.W.z.E 2 0 7.) & + & & & & & & & & & & & & & & & & & & & & & & & & & & & & & ",
"%XV.g.R.`.`.U.H.H.H.H.R.+X=.: 0 1 & & & & & & & & & & & & & & & & & & & & & & & & & & & & & & & ",
"=X XW.W.H.H.H.H.H.H.H.^.OX=.o o + & & & & & & & & & & & & & & & & & & & & & & & & & & & & & & & ",
"H.H.A.g.x.H.H.H.H.H.H.H.H.*.x < & & & & & & & & & & & & & & & & & & & & & & & & & & & & & & & & ",
"H.U.g.Z o.H.H.H.H.H.H.H.H. XM.x o & & & & & & & & & & & & & & & & & & & & & & & & & & & & & & & ",
"H.W.w.0 @.;X;X'.A.H.W.b.&.2.,.w + & & & & & & & & & & & & & & & & & & & & & & & & & & & & & & & ",
"H.U.g.Z ,.%X%X{.(.U.b.7.0 + & & & & & & & & & & & & & & & & & & & & & & & & & & & & & & & & & & ",
"H.H.A.g.o.x M d.:X`.&.0 : + & & & & & & & & & & & & & & & & & & & & & & & & & & & & & & & & & & ",
"H.H.H.W.0.E : A y.+.z + & & & & & & & & & & & & & & & & & & & & & & & & & & & & & & & & & & & & ",
"H.H.H.H.A.7.0 + + & & & & & & & & & & & & & & & & & & & & & & & & & & & & & & & & & & & & & & & ",
"H.H.U.U.&.0 : + + & & & & & & & & & & & & & & & & & & & & & & & & & & & & & & & & & & & & & & & ",
"[ [ [ ) z + & & & & & & & & & & & & & & & & & & & & & & & & & & & & & & & & & & & & & & & & & & ",
"w 0 z x 0 & & & & & & & & & & & & & & & & & & & & & & & & & & & & & & & & & & & & & & & & & & & ",
"r.w.l.}.=.+ + & & & & & & & & & & & & & & & & & & & & & & & & & & & & & & & & & & & & & & & & & ",
"W.W.(.OXl.o.4.i.=.2 o & & & & & & & & & & & & & & & & & & & & & & & & & & & & & & & & & & & & & ",
"H.H.H.H.H.(.:X2X+X' 2 & & & & & & & & & & & & & & & & & & & & & & & & & & & & & & & & & & & & & ",
"H.H.H.H.H.U.`.`.'.+X=.& & & & & & & & & & & & & & & & & & & & & & & & & & & & & & & & & & & & & ",
"H.H.H.H.H.H.H.A.`.2Xi.+ & & & & & & & & & & & & & & & & & & & & & & & & & & & & & & & & & & & & ",
"H.H.H.H.H.H.H.H.`.:X4.+ & & & & & & & & & & & & & & & & & & & & & & & & & & & & & & & & & & & & ",
"H.H.H.H.H.H.H.H.U.(.+.& & & & & & & & & & & & & & & & & & & & & & & & & & & & & & & & & & & & & ",
"=X'.A.A.H.H.H.H.H.H.0.) 4 + & o + & & & & & & & & & & & & & & & & & & & & & & & & & & & & & & & ",
"%X{.`.`.R.H.H.H.H.H.A.7.0 o < r 0 & & & & & & & & & & & & & & & & & & & & & & & & & & & & & & & ",
"M a.<X<X.XH.H.H.H.H.&.0 : o r M.,.& + & & & & & & & & & & & & & & & & & & & & & & & & & & & & & ",
"y ` u.u.N.OXR.H.b.&.h 2 =.;.*. X2.+ + & & & & & & & & & & & & & & & & & & & & & & & & & & & & & ",
"I d : : >.+X'.^.r.0 : E +XOXH.H.&.0 : & & & & & & & & & & & & & & & & & & & & & & & & & & & & & ",
"I K D D n ' +X$Xr.0 E g.R.R.H.H.b.7.0 + & & & & & & & & & & & & & & & & & & & & & & & & & & & & ",
"I I I I d n >.2.E : [ W.H.H.H.H.W.b.&.z & & & & & & & & & & & & & & & & & & & & & & & & & & & & ",
"I I I I I D < + < x *.H.H.H.H.H.H.U.`.+.& & & & & & & & & & & & & & & & & & & & & & & & & & & & ",
"I I I I I D < o r M. XH.H.H.H.H.H.`.:Xy.& & & & & & & & & & & & & & & & & & & & & & & & & & & & ",
"I I I I D s s s B 4.n.H.H.H.H.H.'.{.d.A + + + & & & & & & & & & & & & & & & & & & & & & & & & & ",
"I I I J s 4 J T D < ..(.U.H.H.H.;X%XM : h h < & & & & & & & & & & & & & & & & & & & & & & & & & ",
"I I J 4 s J I I D : 4.:X`.H.H.H.;X%Xx R g.g.^ & & & & & & & & & & & & & & & & & & & & & & & & & ",
"I I D < s I I I D : i.2X`.H.x.o.@.,.o.8.^.^...& & & & & & & & & & & & & & & & & & & & & & & & & ",
"I I N 4 d I I I D 4 =.+XR.U.g.Z 0 Z g.W.H.H...& & & & & & & & & & & & & & & & & & & & & & & & & ",
"I d 4 N I I I I I J B E g.W.A.g.w.g.H.H.H.H...& & & & & & & & & & & & & & & & & & & & & & & & & ",
"s s d I I I I I I I y e V. XH.U.W.W.H.H.H.H...& & & & & & & & & & & & & & & & & & & & & & & & & ",
"& s I I I I I I I I y C %X=XH.H.H.H.H.H.H.H...& & & & & & & & & & & & & & & & & & & & & & & & & "
};
