/* XPM */
static char *H[] = {
/* columns rows colors chars-per-pixel */
"48 48 131 2 ",
"   c #271F2B",
".  c #2E242F",
"X  c #2F2531",
"o  c #302732",
"O  c #342935",
"+  c #392C37",
"@  c #362C3A",
"#  c #3A2E3A",
"$  c #3B303E",
"%  c #42323B",
"&  c #4B383F",
"*  c #3D3445",
"=  c #3F3648",
"-  c #453542",
";  c #483745",
":  c #473947",
">  c #4B3945",
",  c #403749",
"<  c #443949",
"1  c #4C3C4A",
"2  c #553F46",
"3  c #513D4C",
"4  c #574046",
"5  c #55404D",
"6  c #5B434A",
"7  c #574253",
"8  c #5A4454",
"9  c #5E4759",
"0  c #5F4859",
"q  c #60474D",
"w  c #64494E",
"e  c #654B52",
"r  c #694E53",
"t  c #644B5D",
"y  c #684E5C",
"u  c #6A5057",
"i  c #6C525A",
"p  c #74555C",
"a  c #78575A",
"s  c #77585C",
"d  c #78585B",
"f  c #674E62",
"g  c #694F62",
"h  c #6A5063",
"j  c #6B5063",
"k  c #6B5163",
"l  c #6A5062",
"z  c #6C5163",
"x  c #6D5163",
"c  c #6D5263",
"v  c #6E5262",
"b  c #6E5263",
"n  c #6F5363",
"m  c #6B5064",
"M  c #6B5164",
"N  c #6B5065",
"B  c #6C5163",
"V  c #745663",
"C  c #705364",
"Z  c #705464",
"A  c #715464",
"S  c #725565",
"D  c #735665",
"F  c #735666",
"G  c #755764",
"H  c #765765",
"J  c #745666",
"K  c #765766",
"L  c #715464",
"P  c #775867",
"I  c #7B5B60",
"U  c #785863",
"Y  c #795963",
"T  c #7E5C60",
"R  c #7A5A64",
"E  c #785966",
"W  c #7B5B66",
"Q  c #7C5B64",
"!  c #7C5B66",
"~  c #7E5C65",
"^  c #7D5C66",
"/  c #7F5D66",
"(  c #7E5C67",
")  c #7B5B65",
"_  c #795A68",
"`  c #7E5D68",
"'  c #7F5D68",
"]  c #7F5D68",
"[  c #815E62",
"{  c #825E62",
"}  c #815E62",
"|  c #825F68",
" . c #835F68",
".. c #815F6A",
"X. c #856062",
"o. c #866162",
"O. c #846065",
"+. c #876264",
"@. c #876265",
"#. c #846166",
"$. c #856062",
"%. c #886263",
"&. c #886366",
"*. c #8B6567",
"=. c #836068",
"-. c #836069",
";. c #846069",
":. c #846169",
">. c #85626A",
",. c #846069",
"<. c #886369",
"1. c #8A6568",
"2. c #89646A",
"3. c #8E676A",
"4. c #8F676A",
"5. c #8F676B",
"6. c #8E676A",
"7. c #8F686B",
"8. c #8F686B",
"9. c #926968",
"0. c #90686B",
"q. c #91696B",
"w. c #946B6B",
"e. c #90686C",
"r. c #92696C",
"t. c #926A6D",
"y. c #936A6D",
"u. c #956B6E",
"i. c #976C6D",
"p. c #976D6D",
"a. c #91696C",
/* pixels */
". . . . . . . . . . . . . . . . . . . . . . . . . . . . . . . . . . . . . . . . . . . . . . . . ",
"@ @ @ @ @ @ @ @ @ X . . . . . . O @ @ @ @ @ @ @ @ @ @ X . X @ @ @ @ @ @ @ @ @ X . . . . . . . . ",
"* * * * * * * * * O o o . . . o @ * * * * * * * * * * o . O * * * * * * * * * O o o o X . . . . ",
"o @ * * * * * * * * * $ o . o $ * * * * * * * * * * * o @ * * * * * * * * * * * * * * @ . . . . ",
"@ * * * * * * * * * * * @ o o * = * * * * * * * * * * o @ * * * * * * * * * * * = * @ @ @ X . . ",
"* * * * * * * * * * * * * @ o $ * * * * * * * * * * * o @ * * * * * * * * * * * * $ O @ * o . . ",
"* * * O o O * * * * * * * @ . o @ * * * * * @ O * * * o @ * * * * O o O * * * * @ O $ * * o . . ",
"@ @ @ @ @ @ * * * * * * * * @ X @ * * * @ @ @ @ * * * o @ * * * * @ o X @ * * @ @ @ * * * @ O . ",
"o o O * * * * * * * * * * * * o @ * * @ o o @ * * * * o @ * * * * * @ o . @ $ O @ * * * * * @ . ",
"* * * * * * * * * * @ o o @ * o @ * * * * * * * * * * o @ * * * * * * $ o X O * * * * * * * @ . ",
"* * * * * * * * * * * @ @ @ @ X @ * * * * * * * * = * o @ * * * * * = * o o @ * * * * * * * @ . ",
"* * * * * * * * * * * * * @ o . @ * * * * * * * * * @ o @ * * * * * * $ O @ * * * * * * * * @ . ",
"* * * * * * * * * * * * * * $ o @ * * * * * * * O o o X X O * * * * @ O * * * * * * * * * * @ . ",
"* * * @ O O O O @ * * * * * * o > i i i i i i u w w 6 O % e u 1 O @ @ @ * * * * * * * * * * @ . ",
"1 1 1 % $ % $ $ % 1 1 1 1 1 : O q p.9.5.5.5.7.7.7.r.T # 6 r.p.r # o @ * * * * * * * * * * * @ . ",
"@.&.@.o.o.o.o.o.o.@.&.&.@.1.s # q r.E C A A A A A J t + > E 9.9.s : * * * * * * * * * @ O * @ . ",
"| | | -.-.-.-.-.-.| | | | r.%.# $ e Q J f f f f f g t 3 7 j Q r.w.p 5 * * * * @ * * * @ o * @ . ",
"g g g g g g g g g g g g g ' [ > + > d Y g g g g g g g g g g g Q 7.9.i 1 , * * o @ * * @ o * @ . ",
"g g g g g g g g g g g g g c V [ %.a > 3 g g g g g g g g g g g c A A ^ Y 1 * * o @ * * @ o * @ . ",
"g g g g g g g g g g g g g f c ' >.Y 3 7 g g g g g g g g g g g g f f >.*.1 * * o @ * * * @ @ O . ",
"g g g g g g g g g g g g g g g g c C j g g g g g g g g g g g g g g g ^ @.8 < * O @ * * * * o . . ",
"g g g g g g g g g g g g g g g g ^ <.A g g g g g g g g g g g g g g g c J @.e * * * * * * * o . . ",
"m m m m g g g g g g g g g g g g J ^ c g g g g g g g g g g g g g g g f A y.r @ * = * * * @ X . . ",
"0 0 9 9 y A j g g g g g g g g g g g g g g g g g g g g g g g g g j C y t T 6 o @ * * * @ . . . . ",
"+ + O O e 1.A g g g g g g g g g g g g g g g g g g g g g g g g g C 1.e + # O . o o o o X . . . . ",
". + > > 5 6 1 ; 5 E E j g g g g g g g g g g g g g g g g g g g P ^ r % o 2 > @ X O @ @ @ @ @ O . ",
"O 3 j j 3 O O X # a p t c c g g g g g g g g g g g g g g g g g Y a % O - &.i * o @ * * * * * @ . ",
"0 t g g t 9 0 - o # + - [ ' g g g g g g g g g g g g g g g g g 3 % 8 9 y 5.i * o @ * * * * * @ . ",
"m j g g j m m 8 > ; + O 6 p >.>.P j g f g g g g g g g g g g g 7 1 y m A 7.i * @ * * * * * * @ . ",
"g g g g g g g g j g 1 . . 6 o.o.p t c A A j g g g g g g g g g g g g f A 7.i * * * * * * * * @ . ",
"g g g g g g g g g g > . . O % % + - [ r.<.c g g g g g g g g g g g g f A 7.i * * * * * @ O * @ . ",
"-.J f f g g g g g g 8 ; o . .     O 6 w e y g g g g g g g g g g g g f A 7.i * * * * * @ o * @ . ",
"o.Y A A c g g g g g f 7 O . o # O . . . + t n g g g g g g g g g g g f A 7.i * * * * * @ O * @ . ",
"$ e 9.9.Q g g g g g 3 O X . # a 6 . . . # T ' g g g g g g g g g g g f A 7.i * * * * * * * * @ . ",
"O > q q a ' c g y 3 + O 6 6 5 E 6 . . . O 6 y g g g g g g g g g g g f A 7.i * * * * * * * * @ . ",
"* @ X o 6 [ J n 0 O X - [ ' g g 3 O X . . . > g g g g g g g g g g g f A 7.i * * * * * * * * @ . ",
"* * * * @ > [ | 0 O - t c c g g y 7 O . . . > g g g g g g g g g g g f A 7.i * * @ O * * * O X . ",
"* * * * @ $ 6 6 - X > m g g g g m y 1 + . . 6 Q c J ^ c g g g g g g f A 7.r @ @ o o * , * o . . ",
"* * * * * * o . o # 5 g g g g g g j A 2 . . w 9.A Q <.C g g g g g g f A 7.q . X X o $ * $ o . . ",
"* * * * * * o . # a E g g g g g f C 1.q . . w 7.A c C j g g g g g g f A 7.q o @ @ . o o o X . . ",
"* * * * * @ @ @ $ 6 y g g g g g J Y r % . . % e y g g g g g g g g g f A 5.r @ * * @ @ @ @ X . . ",
"* * * * @ O * = * o 1 C j g g g >.o.# o % % O O 0 m g g g g g g g g f A 5.i * * * * * * * o . . ",
"* * * O @ * * * * o 6 <.C g g g >.o.# 2 o.o.4 O 9 m g g g g g g g g f A 5.i * * * * * * * o . . ",
"* * * o @ * * * * o w y.A g t 1 2 q q p >.>.5 + 9 m g g g g g g g g f A 5.i * * * @ * * * @ O . ",
"* * $ O @ * * * * O 6 [ c g t % O - [ ' g g > O 9 m g g g g g g g g f A 7.i * * O o * * * * @ . ",
"* @ O * * * * * * * $ - t m f t 9 t c n g g > + 9 m g g g g g g g g f A 7.i * O . o * * * * @ . ",
"@ @ @ * * * * * * * O + p P g j m m g g g g > + 9 m g g g g g g g g f A 5.i * X o @ * * @ * @ . ",
". @ * * * * * * * * O $ o.-.g g g g g g g g > + 9 m g g g g g g g g f A 5.i * o @ * * @ o * @ . "
};
