/* XPM */
static char *m[] = {
/* columns rows colors chars-per-pixel */
"48 48 203 2 ",
"   c #2A212C",
".  c #2A212D",
"X  c #2B222D",
"o  c #2C222D",
"O  c #2C232D",
"+  c #2C232E",
"@  c #2D232E",
"#  c #2D232F",
"$  c #2D242E",
"%  c #2D242F",
"&  c #2E242F",
"*  c #2E2430",
"=  c #2F2530",
"-  c #2F2531",
";  c #2F2632",
":  c #302530",
">  c #302630",
",  c #312630",
"<  c #302632",
"1  c #332833",
"2  c #342831",
"3  c #322935",
"4  c #322936",
"5  c #332936",
"6  c #342834",
"7  c #362A34",
"8  c #372A34",
"9  c #362A36",
"0  c #372B37",
"q  c #382B35",
"w  c #382B37",
"e  c #392C37",
"r  c #3C2E37",
"t  c #322938",
"y  c #322A38",
"u  c #342B3A",
"i  c #352C39",
"p  c #352C3A",
"a  c #362C3A",
"s  c #372E3C",
"d  c #372E3D",
"f  c #372F3F",
"g  c #382B38",
"h  c #392C38",
"j  c #3B2D38",
"k  c #3A2D3A",
"l  c #3B2D3B",
"z  c #3D2E38",
"x  c #3F2F38",
"c  c #3A2F3C",
"v  c #3B2F3C",
"b  c #3F3039",
"n  c #39303F",
"m  c #3C303C",
"M  c #3E323E",
"N  c #403039",
"B  c #40313E",
"V  c #47353D",
"C  c #48363D",
"Z  c #3A3140",
"A  c #3A3142",
"S  c #3A3242",
"D  c #3B3242",
"F  c #3C3343",
"G  c #3C3344",
"H  c #3D3445",
"J  c #3E3545",
"K  c #3E3546",
"L  c #3E3547",
"P  c #3F3647",
"I  c #3F3648",
"U  c #423342",
"Y  c #463540",
"T  c #473640",
"R  c #443442",
"E  c #443443",
"W  c #453543",
"Q  c #473644",
"!  c #483746",
"~  c #483747",
"^  c #4A3942",
"/  c #4D3A41",
"(  c #493847",
")  c #4A3847",
"_  c #4C3A49",
"`  c #4D3A49",
"'  c #4F3B48",
"]  c #4F3C49",
"[  c #4F3C4B",
"{  c #503C49",
"}  c #503D4A",
"|  c #543F48",
" . c #503D4D",
".. c #513D4D",
"X. c #513E4D",
"o. c #55404E",
"O. c #594248",
"+. c #5A4248",
"@. c #5A4349",
"#. c #58414B",
"$. c #5B434A",
"%. c #5B444A",
"&. c #5C444A",
"*. c #5C444B",
"=. c #59434C",
"-. c #5A434D",
";. c #5E454C",
":. c #5F464C",
">. c #5E464D",
",. c #574252",
"<. c #574253",
"1. c #5B4556",
"2. c #5C4557",
"3. c #5E4758",
"4. c #5E4759",
"5. c #5F4859",
"6. c #5F485A",
"7. c #60464D",
"8. c #60474D",
"9. c #63484D",
"0. c #64494E",
"q. c #654A4E",
"w. c #664B51",
"e. c #684C52",
"r. c #694D52",
"t. c #694D53",
"y. c #60485A",
"u. c #60495B",
"i. c #61495B",
"p. c #624A5B",
"a. c #674C59",
"s. c #664C5B",
"d. c #634A5C",
"f. c #644B5D",
"g. c #644C5E",
"h. c #664D5F",
"j. c #684D59",
"k. c #6E5054",
"l. c #765659",
"z. c #775659",
"x. c #74555B",
"c. c #77565A",
"v. c #71535D",
"b. c #72545D",
"n. c #74555C",
"m. c #664D60",
"M. c #674E61",
"N. c #674E62",
"B. c #684E61",
"V. c #684E62",
"C. c #684F62",
"Z. c #694F62",
"A. c #684F63",
"S. c #694F63",
"D. c #6A4F62",
"F. c #6A4F63",
"G. c #6A5063",
"H. c #6B5063",
"J. c #6C5163",
"K. c #6D5163",
"L. c #6D5263",
"P. c #6E5262",
"I. c #6F5363",
"U. c #6A5064",
"Y. c #6B5064",
"T. c #6B5164",
"R. c #6C5164",
"E. c #6E5264",
"W. c #6F5365",
"Q. c #705364",
"!. c #705464",
"~. c #715464",
"^. c #725564",
"/. c #725565",
"(. c #755764",
"). c #755765",
"_. c #765766",
"`. c #765866",
"'. c #775866",
"]. c #7B5A63",
"[. c #7F5C61",
"{. c #7A5A64",
"}. c #785967",
"|. c #7C5B66",
" X c #7E5C65",
".X c #7E5D65",
"XX c #7F5D68",
"oX c #7F5E68",
"OX c #805D62",
"+X c #815E62",
"@X c #825E62",
"#X c #815F6A",
"$X c #856062",
"%X c #856162",
"&X c #836069",
"*X c #846069",
"=X c #84616A",
"-X c #896469",
";X c #89646A",
":X c #8A646A",
">X c #936A69",
",X c #90686B",
"<X c #936B6D",
/* pixels */
"& & & & & & & & & & & & & & & & & & & & & & & & & & & & & & & & & & & & & & & & & & & & & & & & ",
"& & & & & & & & & & & & & & & & & & & & & & & & & & & & & & & & & & & & & & & & & & & & & & & & ",
"& & & & & & & & & & & & & & & & & & & & & & & & & & & & & & & & & & & & & & & & & & & & & & & & ",
"& & & & & & & & & & & & & & & & & & & & & & & & & & & & & & & & & & & & & & & & & & & & & & & & ",
"& & & & & & & & & & & & & & & & & & & & & & & & & & & & & & & & & & & & & & & & & & & & & & & & ",
"& & & & & & & & & & & & & & & & & & & & & & & & & & & & & & & & & & & & & & & & & & & & & & & & ",
"& & & & & & & & & & & & & & & & & & & & & & & & & & & & & & & & & & & & & & & & & & & & & & & & ",
"& & & & & & & & & & & & & & & & & & & & & & & & & & & & & & & & & & & & & & & & & & & & & & & & ",
"& & & & & & & & & & & & & & & & & & & & & & & & & & & & & & & & & & & & & & & & & & & & & & & & ",
"& & & & & & & & & & & & & & & & & & & & & & & & & & & & & & & & & & & & & & & & & & & & & & & & ",
"& & & & & & & & & & & & & & & & & & & & & & & & & & & & & & & & & & & & & & & & & & & & & & & & ",
"& & & & & & & & & & & & & & & & & & & & & & & & & & & & & & & & & & & & & & & & & & & & & & & & ",
"& & & & & & & & & & & & & & & & & & & & & & & & & & & & & & & & & & & & & & & & & & & & & & & & ",
"& & & & & & & & & & & & & & & & & & & & & & & & & & & & & & & & & & & & & & & & & & & & & & & & ",
"& & & & & & & & & & & & & & & & & & & & & & & & & & & & & & & & & & & & & & & & & & & & & & & & ",
"& & & & & & & & & & & & & & & & & & & & & & & & & & & & & & & & & & & & & & & & & & & & & & & & ",
"& & & & & & & & & & & & & & & & & & & & & & & & & & & & & & & & & & & & & & & & & & & & & & & & ",
"& & & & & & & & & & & & & & & & & & & & & & & & & & & & & & & & & & & & & & & & & & & & & & & & ",
"& & & & & & & & & & & & & & & & & & & & & & & & & & & & & & & & & & & & & & & & & & & & & & & & ",
"& & & & & & & & & & & & & & & & & & & & & & & & & & & & & & & & & & & & & & & & & & & & & & & & ",
"& & & & & & & & & & & & & & & & & & & & & & & & & & & & & & & & & & & & & & & & & & & & & & & & ",
"& & & & & & & & & & & & & & & & & & & & & & & & & & & & & & & & & & & & & & & & & & & & & & & & ",
"+ + + X + & & & & & & & & & & & & & & & & & & & & & & & & & & & & & & & & & & & & & & & & & & & ",
"g w h b 8 + + & & & & & & & & & & & & & & & & & & & & & & & & & & & & & & & & & & & & & & & & & ",
"6.4.s.[.@.+ + & & & & & & & & & & & & & & & & & & & & & & & & & & & & & & & & & & & + + & & & & ",
"U.U.W.oXn.0.0.V X + & & & & & & & & & & & & & & & & & & & & & & & & & & & & & & + : W ' ' ' ' ) ",
"V.V.V.V.|.,X,Xt.r : + & & & & & & & & & & & & & & & & & & & & & & & & & & & & + X g p.W.H.H.V.V.",
"V.V.V.V.L.!.!..Xl.r X & & & & & & & & & & & & & & & & & & & & & & & & & & & & & X g p.W.H.H.V.V.",
"V.V.V.V.V.N.N.`..Xt.C & & & & & & & & & & & & & & & & & & & & & & & & & + h { 7.V * U 1.U.V.V.V.",
"V.V.V.V.V.V.V.V.!.;X7.+ + & & & & & & & & & & & & & & & & & & & & & + * 8 ..!.;Xt.b b [ p.N.V.V.",
"V.V.V.V.V.V.V.V.H.!.{ + & & & & & & & & & & & & & & & & & & & & & & + 8 <.g.H.!.].$X$X*.B p.U.V.",
"*X`.V.N.V.V.V.V.V.V.2.! 1 + & X + & & & & & & & & & & & & & & + w *.-...g.U.V.N.(.*X*X| 8 4.U.V.",
"$X].!.!.L.V.V.V.V.V.N.<.8 X : z w & & & & & & & & & & & & & & X z l.{.V.V.V.V.V.V.V.V.[ B p.H.V.",
"b w.,X,X|.V.V.V.V.V...8 * X z l.*.& & & & & & & & & & & & & & & : z o.V.V.V.V.V.V.V.V.f.p.V.V.V.",
"y ^ 9.0.n.oXL.V.g...g 2 @.@.o.{.-.+ + & & & & & & & & & & & & + X X @.oXW.V.V.V.V.V.V.V.U.U.{.*X",
"L c : : %.@X(.W.6.w * T @XoXV.V...8 * & & & & & & & & & & + & 1 8 * @.@XL.V.V.V.V.H.!.!.L.p.b.$X",
"L L A A h / @X#X6.8 T d.L.W.V.V.g.<.8 + & & & & & & & & & + + ! <.8 2 T d.U.V.V.V.Q.;X<X@XT e N ",
"L L L L f c %.-.W : ) U.V.V.V.V.U.g...h & & & & & & + X C 7.{ 2.N...g * T ) o.{.j.' ;.0.@.M y y ",
"L L L L L A : + : z o.V.V.V.V.V.V.H.!.{ & & & & & + : r t.;X!.V.V.V...w 8 * z l.;.: * * 4 F L L ",
"L L L L L A : X r l.{.V.V.V.V.V.V.!.;X7.& + & & & X r l..X!.H.V.V.V.g.6.6.W : r M A A A A L L L ",
"L L L L A a a u M ;.j.V.V.V.V.V.(.].t.V + + & & & V k.,X*XV.V.V.V.V.V.W.#X-.+ X a I L L L L L L ",
"L L L F a 4 F L A : ' !.H.V.V.V.*X$Xb * 8 * & + + ;.,X,X|.V.V.V.V.V.L.(.@X%.: : a F L L L L L L ",
"L L F 4 a F L L A : ;.;X!.V.V.V.*X$Xb T <.8 + & + { !.!.L.V.V.V.V.V.oX@X/ c A A a 4 F L L L L L ",
"L L A : u L L L A * 0.<X!.V.f.[ | *.[ 2.N...h 8 @.s.V.V.V.V.V.V.L.|.l.%.c f L L A a a a f L L L ",
"L L n 4 f L L L A 4 @.@XL.U.p.B 8 B p.U.V.H.! N $X*XV.V.V.V.V.N.!.,X9.* A L L L L F 4 : 4 n L L ",
"L f 4 n L L L L L F M T p.U.V.p.4.p.V.H.V.H.! N $X*XV.V.V.V.V.N.!.,X9.* A L L L L L F A n 4 f L ",
"a a f L L L L L L L y e b.{.V.H.U.U.V.V.V.V.) z v.`.V.V.V.V.V.(.].w.^ c G L L L L L L L L f a a ",
"& a L L L L L L L L y N $X&XV.V.V.V.V.V.V.V.) w 4.U.V.V.V.V.V.&X$Xb y L L L L L L L L L L L a & "
};
