/* XPM */
static char *Q[] = {
/* columns rows colors chars-per-pixel */
"48 48 133 2 ",
"   c #2D242F",
".  c #2F2531",
"X  c #312732",
"o  c #342935",
"O  c #3B2D37",
"+  c #362C3A",
"@  c #3B2E39",
"#  c #3B303E",
"$  c #41323D",
"%  c #49363E",
"&  c #3D3445",
"*  c #3F3648",
"=  c #463543",
"-  c #483745",
";  c #473A47",
":  c #4B3944",
">  c #433848",
",  c #4D3C4A",
"<  c #533E47",
"1  c #513D4C",
"2  c #574046",
"3  c #594147",
"4  c #55404D",
"5  c #5A434A",
"6  c #564253",
"7  c #5A4454",
"8  c #5E4759",
"9  c #5F4859",
"0  c #60474D",
"q  c #64494E",
"w  c #634B53",
"e  c #684D52",
"r  c #644B5C",
"t  c #684E5B",
"y  c #6E535C",
"u  c #6F545C",
"i  c #6C525A",
"p  c #765659",
"a  c #75565B",
"s  c #78575B",
"d  c #78585C",
"f  c #78585C",
"g  c #664D61",
"h  c #674E61",
"j  c #674E62",
"k  c #674E62",
"l  c #684E61",
"z  c #684E62",
"x  c #684F62",
"c  c #694F62",
"v  c #684F63",
"b  c #694F63",
"n  c #694F62",
"m  c #6A5063",
"M  c #6B5063",
"N  c #6C5163",
"B  c #6D5163",
"V  c #6D5263",
"C  c #6E5262",
"Z  c #6E5263",
"A  c #6F5263",
"S  c #6A5064",
"D  c #6B5064",
"F  c #6B5164",
"G  c #6C5165",
"H  c #6C5265",
"J  c #6F5365",
"K  c #6C5163",
"L  c #765761",
"P  c #705464",
"I  c #715464",
"U  c #705465",
"Y  c #725564",
"T  c #725565",
"R  c #735665",
"E  c #735666",
"W  c #755764",
"Q  c #755765",
"!  c #745666",
"~  c #715464",
"^  c #775866",
"/  c #775967",
"(  c #785862",
")  c #7A5963",
"_  c #7E5C60",
"`  c #7F5C60",
"'  c #7F5C61",
"]  c #7A5964",
"[  c #7A5A64",
"{  c #7C5B67",
"}  c #7C5C65",
"|  c #7E5C67",
" . c #7E5D67",
".. c #7C5B64",
"X. c #7A5A69",
"o. c #7E5D68",
"O. c #7F5D68",
"+. c #7F5E68",
"@. c #7F5D68",
"#. c #805D62",
"$. c #815E62",
"%. c #825E62",
"&. c #825F63",
"*. c #815E63",
"=. c #805E69",
"-. c #825F68",
";. c #866162",
":. c #866163",
">. c #846065",
",. c #846166",
"<. c #866163",
"1. c #886263",
"2. c #886366",
"3. c #896366",
"4. c #886365",
"5. c #836069",
"6. c #846069",
"7. c #84616A",
"8. c #8B6668",
"9. c #89646A",
"0. c #8D6668",
"q. c #8D6669",
"w. c #8C666A",
"e. c #8F686B",
"r. c #8F686A",
"t. c #90686B",
"y. c #91696C",
"u. c #926A6C",
"i. c #926A6D",
"p. c #936A6D",
"a. c #956B6E",
"s. c #936A6C",
"d. c #996E6D",
/* pixels */
"    X & * * * * & X   $ ;.5.x x x x x x x x ,     , x x x x x x x x h E t.y * * * * * * * * +   ",
"    X & * * * * & + . X 3 t M x x x x ] ) 4 @ X = 7 x x x x x h N O.t < 5 : + + + + + + + + o   ",
"    X & * * * * * * & O O - r h x x x ) p O   O 9 D x x x x x N W &.3 X @ @ X   . X X X X       ",
"    X & * * * * * * w _ r - # r D x x 4 O X   O r D x x x x x O.&.: X O p w + . o & & & + X     ",
"  X + & * * * * * * u a.E 6 , r M x x r 2 X   O 8 D x x x x x ^ ) 1 - 4 0.u & + & * * * & + o   ",
"  + * * * * * * * * w >.W N x x x x x O.&.: X @ r E x x x x x x x x x E 0.i * * * * * * * * +   ",
"  + * * * * * * * * > 7 >.| x x x x x N W &.2 O _ -.x x x x x x x x h E 0.i * * * * * * * * +   ",
"  X + + + + + + + + + , 0.p.O.J D D x h N O.4 X 3 t x x x x x x x x x E 0.i * * & + & * * * +   ",
"  . X X X X X X X   o ; d 1._ r 8 r N J x x 1 o   , x x x x x x x x r t 0.y * * + X & * & * +   ",
"  + & & & & & & + X   X O $ O @ o = &.O.x x t 6 o - x x x x x x x x , = ;.y * * + X & + o & +   ",
"  + * * * * * * * + + # 3 < - - + X 3 r x x X.L O - x x x x x x x x 6 4 8.y * * # + & & + * +   ",
"  + * & & * * * * * & , 2.5.x x 1 o o 1 x x ] p O , E M x x x x x x x E e.y * * * * * * * * +   ",
"  + & o + * * * * * & , 2.-.x x t 9 8 r x x 4 O X 5 9.E x x x x x x h E 0.i * * * * * * * * +   ",
"  + * + + + & * * * & , 2.5.x x M M D x N { 4     % w t x x x x x x h E p.y * * * * * * * * +   ",
"  + * * + X & * * * > 7 >.| x x x x x x E t.q       @ r E x x x x x x N &.w & & & * * * * * +   ",
"  + * * + X & * * * w >.W N x x x x x x E e.q       O _ -.x x x x x M r = o X X + * * * * * +   ",
"  + * * + X & * * * y p.E h x x x x x h E p.q       o 3 4 , r D r , - =   . + + + + + + + + o   ",
"  + * * + X & * * * y e.E h x x x x x x N &.3       . o o $ r J r $ o @ O & * * +   X X X       ",
"  + * * + X & * * * y e.E h x x x x x M r = X       o 6 r r h x h r 8 r _ w * * + X + & + X     ",
"  + * * # + & * * * 4 y | W x x x x x J r X       @ 1 t J M x x x M M W p.y * * + X & * * + X   ",
"  + * * * * * * * * & , 2.-.x x x x x t 7 % X X O 4 x x x x x x x x h E 0.i * * + X & * * * +   ",
"  + * * * * * * * * & , 2.-.x x x x M , % s 3 O p ] x x x x x x x x h E 0.i * * + X & * * * +   ",
"  o + * * * * * * * & , 8.p.| N x r , < e | 4 $ ;.7.x x x x x x x x h P 0.i * * & + & * * * +   ",
"    X # & & & & & & & ; d ;.&.L E t $ w 9.P - # ;.5.x x x x x x x x h P 0.i * * * * * & & * +   ",
"      X X X X X X X X o O O : &.p.>.t t E M - # ;.5.x x x x x x x x x E 0.y * * * * * + o & +   ",
"    . + o . + + + + + # 4 5 w ..5.| J x x x - $ 1.7.h x x x x x x x h E p.y * * * * * + X & +   ",
"  . o & + X + * * * & , 2.a.9.N x x x x x x - O p | J M x x x x x x N W &.w * * * * * + o & +   ",
"  + & * +   X + * * & , 2.7.P M x x x x x x , X O e 9.E x x x x x x O.&.: # * * * * * * & * +   ",
"  + * * & +   + * * & , 2.-.h x x x x x N | 3     q p.W x x M D D D 7.1.O . + * * * + & * + o   ",
"  + * * * & o + * * & , 2.5.x x x x x x P 9.5     3 _ r r h r 8 8 8 a p O   X + & + . + # X     ",
"  + * * * * & & * * & , 2.-.x x x x x x M P <     o O @ 1 r $ o o o O O X     X X X   . X .     ",
"  + * * * * * * * * & , 2.-.x x x x x x x h ,     @ - - 7 r , - - - +       . + + + + + + .     ",
"  + * * * * * * * * & , >.-.x x x x x x M E , X O 4 x x x x x x M M 4 O X   o & * * * * & X     ",
"  + * * * * * * * * + $ ;.5.x x x x x h P 9.5 O p ] x x x x x M x x ] p O o & * * * * * & X     ",
"  o + * * * * * * * + X 3 a O.J D D x x t w % $ 2.7.x x x x x x x x 7.;.O o * * * * * * & + X   ",
"    X & * * & & & & +     3 _ r 8 r h J 9 o   O _ O.x x x x x x x x 5.2.: # * * * * * * * * +   ",
"    X & * & o X X X X     X O @ o $ r J 9 o   @ r J x x x x x x x x =.s.2.w * * * * * * * * +   ",
"    . + + + + X   + . X 3 3 - - - , r D r , @ o 8 x x x x x x x x x =.d.d.y * * * * * & + * +   ",
"      X X o & + o & # : &.O.x x x x x x M E , @ r P x x x x x x x x { t.a.i * * * * * + X & +   ",
"    X + & & * * & * w &.W J x x x x x x E 9.5 O _ -.x x x x x x x x N ] t.i * * * * * + X & +   ",
"  X + * * * * * * * y p.P h x x x x x h E t.q X 3 t x x M r , - , t D E 0.e + & * * * + X & +   ",
"  + * * * * * * * * i 0.P h x x x x x h E e.q     , x x M r = O % 7 8 t 0.q . + & & & + o & +   ",
"  + * * * * * * * * i 0.E h x x x x x x E e.q     , x x x N &.1.s % X = ;.q   . X X X + & * +   ",
"  + * * * * * * * * i t.7.E x x x x x x E t.q     , x x x N O.7.] 1 - , 3 : + + + o   X + + X   ",
"  + * * * * * * * * i d.a.| x x x x x x P 9.w o . , x x x x x x x x D r % # * * * & o X X X .   ",
"  + * * * * * * * * i d.a.| x x x x x x M P x 6 o - x x x x x x x x x N _ w * * * * & & & & +   ",
"  X + * & + & * * * 4 a e.0.{ N x x x x x x 7 - X - x x x x x x x x h E p.y * * * * * * * * +   ",
"    X & + X & * * * & , >.d.0.P x x x x x x ,     , x x x x x x x x h E 0.i * * * * * * * * +   "
};
