/* XPM */
static char *R[] = {
/* columns rows colors chars-per-pixel */
"48 48 132 2 ",
"   c #271F2A",
".  c #2E242F",
"X  c #2F2531",
"o  c #312632",
"O  c #342935",
"+  c #3A2D37",
"@  c #362C3A",
"#  c #3B2D39",
"$  c #3C303D",
"%  c #41323D",
"&  c #48363E",
"*  c #3D3445",
"=  c #3F3648",
"-  c #463542",
";  c #483746",
":  c #473A47",
">  c #4B3945",
",  c #433848",
"<  c #4C3C4A",
"1  c #533E47",
"2  c #513D4C",
"3  c #574046",
"4  c #584147",
"5  c #55414E",
"6  c #5A434A",
"7  c #574253",
"8  c #5A4555",
"9  c #5D4758",
"0  c #5F485A",
"q  c #60474D",
"w  c #64494E",
"e  c #644B53",
"r  c #694D52",
"t  c #634B5C",
"y  c #684D59",
"u  c #6C525A",
"i  c #75565B",
"p  c #78575B",
"a  c #78585C",
"s  c #674E61",
"d  c #674E61",
"f  c #684E61",
"g  c #684E62",
"h  c #684F62",
"j  c #694F62",
"k  c #684F63",
"l  c #694F63",
"z  c #6A4F63",
"x  c #694F62",
"c  c #6A5062",
"v  c #6A5063",
"b  c #6B5063",
"n  c #6C5163",
"m  c #6D5163",
"M  c #6D5263",
"N  c #6E5262",
"B  c #6E5263",
"V  c #6F5363",
"C  c #6A5064",
"Z  c #6B5064",
"A  c #6B5164",
"S  c #6C5165",
"D  c #6F5364",
"F  c #6F5365",
"G  c #6C5164",
"H  c #775761",
"J  c #745663",
"K  c #705364",
"L  c #705464",
"P  c #715464",
"I  c #725565",
"U  c #715567",
"Y  c #735666",
"T  c #755764",
"R  c #755765",
"E  c #725564",
"W  c #775967",
"Q  c #7A5963",
"!  c #7C5A63",
"~  c #7E5C60",
"^  c #7F5C61",
"/  c #7A5964",
"(  c #7A5A64",
")  c #7C5B67",
"_  c #7C5C65",
"`  c #7E5C65",
"'  c #7D5C67",
"]  c #7E5C67",
"[  c #7E5D67",
"{  c #7C5B64",
"}  c #7A5A69",
"|  c #7E5D68",
" . c #7F5D68",
".. c #7F5D68",
"X. c #805D62",
"o. c #815E62",
"O. c #825F63",
"+. c #815E63",
"@. c #805E69",
"#. c #825F68",
"$. c #835F68",
"%. c #825F69",
"&. c #866162",
"*. c #876162",
"=. c #846065",
"-. c #846166",
";. c #876267",
":. c #866163",
">. c #886263",
",. c #886366",
"<. c #886365",
"1. c #836068",
"2. c #836069",
"3. c #846069",
"4. c #87636A",
"5. c #84616A",
"6. c #896369",
"7. c #8A6568",
"8. c #8B6668",
"9. c #8A646A",
"0. c #8D666A",
"q. c #8F686B",
"w. c #8F6869",
"e. c #90686B",
"r. c #91696C",
"t. c #926A6C",
"y. c #926A6D",
"u. c #936A6D",
"i. c #956B6E",
"p. c #976D6D",
"a. c #946B6C",
"s. c #996E6D",
/* pixels */
". . o * = = = = * o . % &.1.h h h h h h h h < . . . . . . . . . . . . . . . . . . . . . . . . . ",
". . o * = = = = = @ X O 4 y b h h h h W / 5 + . . . . . . . . . . . . . . . . . . . . . . . . . ",
". . o * = = = = = = * # + ; t d h h h Q i + . . . . . . . . . . . . . . . . . . . . . . . . . . ",
". . o * = = = = = = e ~ t ; $ t b h h 5 + o . . . . . . . . . . . . . . . . . . . . . . . . . . ",
". o @ * = = = = = = u i.Y 7 < t b h h t 3 O . . . . . . . . . . . . . . . . . . . . . . . . . . ",
". @ = = = = = = = = e =.T n h h h h h  .O.> O . . . . . . . . . . . . . . . . . . . . . . . . . ",
". @ = = = = = = = = , 7 =.] h h h h h n T O.4 . . . . . . . . . . . . . . . . . . . . . . . . . ",
". o @ @ @ @ @ @ @ @ @ < 8.u. .F C b h d n  .4 . . . . . . . . . . . . . . . . . . . . . . . . . ",
". X o o o o o o o . O : a >.~ t 9 t n F h h 2 O X . . . . . . . . . . . . . . . . . . . . . . . ",
". @ * * * * * * @ o . O # % # + O - O. .h h t 7 O . . . . . . . . . . . . . . . . . . . . . . . ",
". @ = = = = = = = @ @ $ 4 1 ; ; + o 4 t h h } H # . . . . . . . . . . . . . . . . . . . . . . . ",
". @ = * * = = = = = * < ,.1.h h 2 O O 2 h h / i # . . . . . . . . . . . . . . . . . . . . . . . ",
". @ * O @ = = = = = * < ,.1.h h t 0 9 t h h 5 + o . . . . . . . . . . . . . . . . . . . . . . . ",
". @ = @ @ @ * = = = * < ,.1.h h b C C h n ) 3 . . . . . . . . . . . . . . . . . . . . . . . . . ",
". @ = = @ o * = = = , 7 =.] h h h h h h Y q.w . . . . . . . . . . . . . . . . . . . . . . . . . ",
". @ = = @ o * = = = e =.T n h h h h h h Y q.w . . . . . . . . . . . . . . . . . . . . . . . . . ",
". @ = = @ o * = = = u u.Y d h h h h h d Y u.w . . . . . . . . . . . . . . . . . . . . . . . . . ",
". @ = = @ o * = = = u e.Y d h h h h h h n O.4 . . . . . . . . . . . . . . . . . . . . . . . . . ",
". @ = = @ o * = = = u q.Y d h h h h h b t - O . . . . . . . . . . . . . . . . . . . . . . . . . ",
". @ = = $ @ * = = = 5 u ] T h h h h h F 0 o . . . . . . . . . . . . . . . . . . . . . . . . . . ",
". @ = = = = = = = = * < ,.1.h h h h h t 8 & O . . . . . . . . . . . . . . . . . . . . . . . . . ",
". @ = = = = = = = = * < ,.#.h h h h b < & p 6 . . . . . . . . . . . . . . . . . . . . . . . . . ",
". O @ = = = = = = = * < 7.u. .n h t < 1 r ] 6 . . . . . . . . . . . . . . . . . . . . . . . . . ",
". . o $ * * * * * * * : a &.O.H Y t % e 9.Y ; . . . . . . . . . . . . . . . . . . . . . . . . . ",
". . . o o o o o o o o O # + > O.u.=.t t Y b ; . . . . . . . . . . . . . . . . . . . . . . . . . ",
". . X @ o X @ @ @ @ @ $ 3 6 e ! 1.] F h h h < . . . . . . . . . . . . . . . . . . . . . . . . . ",
". X O * @ o @ = = = * < ,.i.6.n h h h h h h ; . . . . . . . . . . . . . . . . . . o O + + $ O . ",
". @ * = @ . o @ = = * < ,.4.K b h h h h b h ; . . . . . . . . . . . . . . . . . . O 7 t t ~ 4 . ",
". @ = = * @ . @ = = * < ,.#.h h h h h h h h 8 - o . . . . . . . . . . . . + 2 q & X - 9 Y #.t ; ",
". @ = = = * O @ = = * < ,.1.h h h h h h h h C 0 + . . . . . . . . . . X O 2 Y 9.r $ # < t d h h ",
". @ = = = = * * = = * < ,.1.h h h h h h h h C 0 + . . . . . . . . . . O 7 t b K Q &.&.6 % t C h ",
". @ = = = = = = = = * < ,.1.h h h h h h h h C 0 + . . . . . . . O 6 6 2 t C h h T 4.4.1 O 9 C h ",
". @ = = = = = = = = * < =.#.h h h h h h h h C 0 + . . . . . . . + i / h h h h h h h h < % t b h ",
". @ = = = = = = = = @ % &.1.h h h h h h h h C 0 + . . . . . . . o # 5 h h h h h h h h t t d h h ",
". O @ * = = = = = = @ O 4 i  .F C C h h n  .4.i # . . . . . . . . . 4  .F h h h h h h h l C W 1.",
". . o * = = * * * * @ . . 4 ~ t 9 t d h n O.,.i + . . . . . . O O X 4 O.n h h h h b Y Y n t i &.",
". . o * = * O o o o X . . O # + O % t F t - $ # o . . . . . . ; 7 O O - t C h h d n 6.u.O.- + % ",
". . X @ @ @ @ o . @ X O 4 4 ; ; ; < t F 9 O   . . & q 2 ; ; ; 8 d 2 + . - ; 5 / y < 6 w 4 $ @ @ ",
". . . o o O * @ O * $ > O. .h h h h h b t % o o + r 9.Y h h h h h h 2 + O X # i 6 X X X O * = = ",
". . o @ * * = = * = e O.T F h h h h h h h t - + i ] K b h h h h h h t 0 0 - o + $ * * * * = = = ",
". o @ = = = = = = = u u.K d h h h h h h b C ; % 7.4.h h h h h h h h h F #.6 . . @ = = = = = = = ",
". @ = = = = = = = = u 8.L d h h h h h h h h ; + i / h h h h h h h h F T O.4 X X @ * = = = = = = ",
". @ = = = = = = = = u 8.Y d h h h h h h h h ; o + 5 h h h h h h h h  .O.> + * * @ O * = = = = = ",
". @ = = = = = = = = u e.4.T h h h h h h h h 8 - o ; h h h h h h n ) i 4 + @ = = * @ @ @ @ = = = ",
". @ = = = = = = = = u s.i.] h h h h h h h h F t + ; h h h h h d Y e.w X * = = = = * O X O $ = = ",
". @ = = = = = = = = u s.i.@.h h h h h h h h F t + ; h h h h h d Y e.w X * = = = = = * * @ O @ = ",
". o @ = * @ * = = = 5 i 8.8.) n h h h h h h 8 - o ; h h h h h T Q e > @ * = = = = = = = = @ @ @ ",
". . o * @ o * = = = * < =.s.8.Y d h h h h h ; . . < h h h h h 1.&.$ @ = = = = = = = = = = = @ . "
};
