/* XPM */
static char *U[] = {
/* columns rows colors chars-per-pixel */
"48 48 131 2 ",
"   c #2D242F",
".  c #2F2531",
"X  c #312632",
"o  c #342935",
"O  c #3A2D37",
"+  c #362C3A",
"@  c #3B2D39",
"#  c #3C303D",
"$  c #42323C",
"%  c #4A373F",
"&  c #3D3445",
"*  c #3F3648",
"=  c #453542",
"-  c #483746",
";  c #473A47",
":  c #4B3944",
">  c #433848",
",  c #4C3B4A",
"<  c #533E47",
"1  c #513D4C",
"2  c #574046",
"3  c #584147",
"4  c #55414E",
"5  c #5B434A",
"6  c #574252",
"7  c #5A4555",
"8  c #5E4759",
"9  c #5F4859",
"0  c #60474D",
"q  c #64494E",
"w  c #644B53",
"e  c #684D52",
"r  c #634B5C",
"t  c #684E5B",
"y  c #6E5054",
"u  c #6C525A",
"i  c #775659",
"p  c #765659",
"a  c #74555B",
"s  c #77565A",
"d  c #72545D",
"f  c #75565C",
"g  c #78575B",
"h  c #78585C",
"j  c #78585C",
"k  c #664D61",
"l  c #674E61",
"z  c #674E62",
"x  c #674E61",
"c  c #684E61",
"v  c #684E62",
"b  c #684F62",
"n  c #694F62",
"m  c #684F63",
"M  c #694F63",
"N  c #6A4F63",
"B  c #694F62",
"V  c #6A5063",
"C  c #6B5063",
"Z  c #6C5163",
"A  c #6D5163",
"S  c #6D5263",
"D  c #6E5262",
"F  c #6E5263",
"G  c #6F5363",
"H  c #6A5064",
"J  c #6B5064",
"K  c #6B5164",
"L  c #6C5164",
"P  c #6E5264",
"I  c #6F5365",
"U  c #6C5163",
"Y  c #775761",
"T  c #705364",
"R  c #705464",
"E  c #715464",
"W  c #725565",
"Q  c #735666",
"!  c #755764",
"~  c #755765",
"^  c #725564",
"/  c #775967",
"(  c #7A5963",
")  c #7B5A63",
"_  c #7E5C60",
"`  c #7F5C61",
"'  c #7A5964",
"]  c #7A5A64",
"[  c #785967",
"{  c #7C5B66",
"}  c #7C5B67",
"|  c #7E5C67",
" . c #7E5D67",
".. c #7C5B65",
"X. c #7A5A69",
"o. c #7F5D68",
"O. c #7F5E68",
"+. c #7F5D68",
"@. c #805D62",
"#. c #815E62",
"$. c #825E62",
"%. c #825F63",
"&. c #815E63",
"*. c #815F6A",
"=. c #825F69",
"-. c #856062",
";. c #856162",
":. c #866162",
">. c #846065",
",. c #846166",
"<. c #866163",
"1. c #886263",
"2. c #886366",
"3. c #886365",
"4. c #836069",
"5. c #846069",
"6. c #84616A",
"7. c #846169",
"8. c #896469",
"9. c #8B6668",
"0. c #8A646A",
"q. c #8C656A",
"w. c #8F686B",
"e. c #8F686A",
"r. c #936A69",
"t. c #90686B",
"y. c #936A6D",
"u. c #936B6D",
"i. c #956B6E",
"p. c #936A6C",
"a. c #996E6D",
/* pixels */
"    X & * * * * & X   $ ;.5.b b b b b b b C ,     , b b b b b b b b 4.;.$ + * * * * * * * * +   ",
"    X & * * * * * + . X 3 t C b b b b / ' 4 @     , b b b b C H C b / d O + * * * * * * * + + + ",
"    X & * * * * * * & @ O - r l b b b ( p O       , b b b b r 8 r l H r = # & * * * * & # o + * ",
"    X & * * * * * * w _ r - # r C b b 4 O X       , b b H r $ o $ r C Z %.3 o & * * * + o + * * ",
"  X + & * * * * * * u i.Q 6 , r C b b r 2 X       , I I 7 , 5 < , r b Q u.q . & * * * + . & * * ",
"  + * * * * * * * * w >.! Z b b b b b o.%.: X     = r r = @ ;.5.b b b Q 0.5 . & * * & + o & * * ",
"  + * * * * * * * * > 6 >.| b b b b b Z ! %.3     X O O . # ;.5.b b b C T , X & * & o + & * * * ",
"  X + + + + + + + + + , 9.y.o.I H C b l Z o.3           % e ( ! b b b b b t 5 # + + + & * * * * ",
"  . X X X X X X X   o ; h 1._ r 8 r Z I b b 1 o .       0 0.T l b b b b b ' p O   X & * * * * * ",
"  + & & & & & & + X   X @ $ @ O o = %.o.b b r 6 o       1 Q C b b b b b b 4 @ X   X & * * * * * ",
"  + * * * * * * * + + # 3 < - - O X 3 r b b X.Y @       O 1 r H b b b b H , X = 5 5 O + * * * * ",
"  + * & & * * * * * & , 2.4.b b 1 o o 1 b b ' p O         o 6 r b b I Z r = o 9 =.%.: O & & & * ",
"  + & o + * * * * * & , 2.4.b b r 9 8 r b b 4 O X         . o 1 b b =.%.= . o 9 I ! %.3 X . + * ",
"  + * + + + & * * * & , 2.4.b b C H H b Z } 2                 5 ' 4 3 3 X $ w t l Z o.a q q : + ",
"  + * * + X & * * * > 6 >.| b b b b b l Q w.q                 5 p O   X @ y t.Q l b b ' t.t.w # ",
"  + * * + X & * * * w >.! Z b b b b b b Q t.q                 O O X   O p t.w.Q l b b Z Q Q ) ;.",
"  + * * + X & * * * u y.Q l b b b b b b Q y.q                         o 5 f } Z b b b b l l ! 5.",
"  + * * + X & * * * u w.Q l b b b b b b Z %.3                             , b b b b b b b b b b ",
"  + * * + X & * * * u w.Q l b b b b b H r = X                             , b b b b b b b b b b ",
"  + * * # + & * * * 4 u | ! b b b b b I 9 X                               3 } Z b b b b b b b b ",
"  + * * * * * * * * & , 2.4.b b b b b r 7 % X                             q t.Q l b b b b b b b ",
"  + * * * * * * * * & , 2.=.b b b b C , % g 5                             q t.Q l b b b b b b b ",
"  o + * * * * * * * & , 9.y.o.Z b r , 1 e | 5                             % e | 5.4.4.' r 1 , , ",
"    X # & & & & & & & ; h ;.%.Y Q r $ w 0.Q ,                               O p 2.;.;.f 6 o     ",
"      X X X X X X X X o @ O : %.y.>.r r Q C ,                               X @ $ $ $ @ o .     ",
"    . + o . + + + + + # 2 5 w ) 4.| I b b b ,                                                   ",
"  . o & + X + * * * & , 2.i.8.Z b b b b b b ,                                     X o O O @ o   ",
"  + & * +   X + * * & , 2.5.T C b b b b b b ,                                     o 6 r r _ 3   ",
"  + * * & +   + * * & , 2.=.b b b b b b b b 7 = X                         O 1 0 % . = 7 Q =.r , ",
"  + * * * & o + * * & , 2.4.b b b b b b b b H 9 O                     . o 1 Q 0.e @ @ , r l b b ",
"  + * * * * & & * * & , 2.4.b b b b b b b b H r O                     o 6 r C T ( ;.;.5 $ r H b ",
"  + * * * * * * * * & , 2.=.b b b b b b b b H 9 O               o 5 5 1 r H b l ! 5.5.< o 8 H b ",
"  + * * * * * * * * & , >.=.b b b b b b b b H 9 O               @ p ' b b b b b b b b , $ r C b ",
"  + * * * * * * * * + $ ;.4.b b b b b b b b H 9 O               X @ 4 b b b b b b b b r r l b b ",
"  o + * * * * * * * + X 3 f o.I H H b b Z o.5.f @                   3 o.I b b b b b b b M H / 4.",
"    X & * * & & & & +     3 _ r 8 r b b Z %.1.p @             X o . 3 %.Z b b b b C Q Q Z r d ;.",
"    X & * & o X X X .     X @ O o $ r I r = # @ X             - 6 o X = r H b b l Z 8.y.%.= O $ ",
"    . + + + + X . + . X 3 3 - - - , r I r , +     % 0 1 , , , 8 l 1 O   = , 4 ' t , 5 q 3 # + + ",
"      X X o & + o & # : %.o.b b b b b b b C 1 o   0 0.Q b b b b b b 1 O o . @ p 5 . . . o & * * ",
"    X + & & * * & * w %.! I b C b b b b b b r 6 o , Q C b b b b b b r 9 9 = X O # & & & & * * * ",
"  X + * * * * * * * u y.T l b b b b b b b b H l 1 , , r C b b b b b b I =.5     + * * * * * * * ",
"  + * * * * * * * * u 9.R l b b b b b b b b b b r = o 9 H b b b b b I ! %.3 . . + & * * * * * * ",
"  + * * * * * * * * u 9.Q l b b b b b b b b H r $ . o 9 H b b b b b o.%.: O & & + o & * * * * * ",
"  + * * * * * * * * u t.5.! b b b b b b b b H 9 o O 1 r C b b b Z } p 3 O + * * & + + + + * * * ",
"  + * * * * * * * * u a.i.| b b b b b b b b H 9 O - C b b b b l Q t.q . & * * * * & o . o # * * ",
"  + * * * * * * * * u a.i.| b b b b b b b b H 9 O - b b b b b l Q t.q . & * * * * * & & + o + * ",
"  X + * & + & * * * 4 d w.9.} Z b b b b b b 7 = X , b b b b b ! ( w : + & * * * * * * * * + + + ",
"    X & + X & * * * & , 2.a.9.Q b b b b b b ,     , b b b b b 4.;.# + * * * * * * * * * * * +   "
};
