/* XPM */
static char *y[] = {
/* columns rows colors chars-per-pixel */
"48 48 126 2 ",
"   c #2D232E",
".  c #302631",
"X  c #362935",
"o  c #3B2D37",
"O  c #3C2E38",
"+  c #3F3039",
"@  c #43323B",
"#  c #443644",
"$  c #483746",
"%  c #4B3946",
"&  c #45394A",
"*  c #4D3B48",
"=  c #533E49",
"-  c #4E3E52",
";  c #574047",
":  c #584147",
">  c #56404A",
",  c #5C444B",
"<  c #544352",
"1  c #594556",
"2  c #5E4956",
"3  c #5E4759",
"4  c #60474C",
"5  c #63484D",
"6  c #664C53",
"7  c #694D52",
"8  c #644B5C",
"9  c #684E5E",
"0  c #6B5159",
"q  c #74555C",
"w  c #7D5B5D",
"e  c #674E62",
"r  c #694F62",
"t  c #6C5163",
"y  c #715464",
"u  c #775865",
"i  c #775866",
"p  c #765862",
"a  c #7B5A63",
"s  c #7E5B60",
"d  c #7D5D61",
"f  c #7E5C60",
"g  c #7F5C61",
"h  c #7E5D61",
"j  c #7A5A65",
"k  c #785866",
"l  c #785966",
"z  c #785967",
"x  c #7B5B66",
"c  c #7C5B66",
"v  c #7C5B67",
"b  c #7E5C65",
"n  c #7E5D65",
"m  c #7D5C66",
"M  c #7D5C67",
"N  c #7E5D66",
"B  c #7F5D67",
"V  c #7D5B65",
"C  c #7E5C68",
"Z  c #7F5D68",
"A  c #7F5E68",
"S  c #805D5E",
"D  c #805C5F",
"F  c #825E62",
"G  c #825E63",
"H  c #825F63",
"J  c #845F61",
"K  c #805E67",
"L  c #815E67",
"P  c #815F67",
"I  c #815E62",
"U  c #825F68",
"Y  c #846061",
"T  c #846062",
"R  c #856062",
"E  c #866162",
"W  c #876162",
"Q  c #876263",
"!  c #836065",
"~  c #856062",
"^  c #886263",
"/  c #896364",
"(  c #896467",
")  c #8D6667",
"_  c #836069",
"`  c #846068",
"'  c #846168",
"]  c #846169",
"[  c #856169",
"{  c #84616A",
"}  c #85616A",
"|  c #886369",
" . c #896369",
".. c #896469",
"X. c #89646A",
"o. c #8C666A",
"O. c #8E676A",
"+. c #8F676A",
"@. c #896469",
"#. c #8F686A",
"$. c #8F686B",
"%. c #8F686C",
"&. c #90686B",
"*. c #91696B",
"=. c #92696B",
"-. c #946A6B",
";. c #946B6B",
":. c #956B6B",
">. c #91696C",
",. c #926A6C",
"<. c #936A6C",
"1. c #936A6D",
"2. c #936B6D",
"3. c #956C6C",
"4. c #966C6C",
"5. c #976C6C",
"6. c #976D6C",
"7. c #966C6D",
"8. c #976D6D",
"9. c #926A6C",
"0. c #986D6C",
"q. c #986D6D",
"w. c #996E6D",
"e. c #9A6F6E",
"r. c #9B706F",
"t. c #9C706F",
/* pixels */
"        5 6.6.6.6.6.K r r _ R +                   5 6.6.K r r K $.y e y $.K y +.e.6.6.e.R +     ",
"    X : q K K K K K u r r u a 6 4 5 5 5 ; X   X : q K K u r r u m t e t m u t c K [ :.e.) 7 @   ",
"  X % G Z r r r r r r r r e t  .&.+.+.6./ % . O g Z r r r r r r r r r r r r r r e t  .:.6.6.4   ",
"  : G u t r r r r r r r r r t y y y y [ :./ ; o 8 t r r r r r r r r r r r r r r r r t [ 6.e.4   ",
"  5 1.y e r r r r r r r r r r r e e e y [ 6.5 X 3 r r r r r r r r r r r r r r r r r e y [ 1.4   ",
"+ 6  .y r r r r r r r r r r r r r r r e y $.4 o 8 t r r r r r r r r r r r r r r r r r e y $.5   ",
"R a t t r r r r r r r r r r r r r r r e y $.4 O g Z r r r r r r r r r r r r r r r r r e y $.5   ",
"t.U e r r r r r r r r r r r r r r r r e y $.4 @ R [ r r r r r r r r r r r r r r r r r e y &.5   ",
"+.c r r r r r r r r r r r r r r r r r r y $.4 O s Z r r r r r r r r r r r r r r r r r r y  .,   ",
"y t r r r r r r r r r r r r r r r r r e y $.4 o 8 t r r r r r r r r r r r r r r r r r r t t *   ",
"e e r r r r r r r r r r r r r r r r r r y $.5 X 3 t r r r r r r r r r r r r r r r r r r t m >   ",
"y t r r r r r r r r r r r r r r r r r r y &.5 X 3 t r r r r r r r r r r r r r r r r r r y X.,   ",
"+.m r r r r r r r r r r r r r r r r r e y &.5 X 3 t r r r r r r r r r r r r r r r r r r t y *   ",
"K u r r r r r r r r r r r r r r r r r r t c = O q z e r r r r e r r r r r r r r r r r r r e $   ",
"r r r r r r r r r r r r r r r r r r r r r r $ o q m y t r t y y y t r r r r r r r r r r t y *   ",
"r r r r r r r r r r r r r r r r r r r r r r % . o 7 X.y e y  .&. .t r r r r r r r r r r y  .,   ",
"e e r r r r r r r r r r r r r r r r r r r r %     @ , < < < 6 0 0 m z t r r r r r r r e y &.5   ",
"y y t t r r r r r r r r r r r r r r r r t y *     X @ & & & & & < g p 8 t t r r r r r r y $.5   ",
"$.&. .t r r r r r r r r r r r r r r r r y  .4     , g 9 8 8 8 p g < & < ! m r r r r r e y +.5   ",
"5 D 1.y e r r r e e r r r r r r r r r e y 1.5 X , q Z t r t t z z 1 - < 6 2 1 e t e e e y 1.5   ",
"  : G u t r r t y y t r r t y y t t y y u G ; o q m y y t r r r r t t t < # # 1 r y y y u G :   ",
"  X % G Z r r c &.&.c r r c &.&.z t  .1.G % X . O 7 &.&.c r r r r r m $.( , . X 6 &.&.1.G % X   ",
"    . ; > $ $ = 4 4 = $ $ > 4 4 = % , 5 ; X       @ 4 4 = $ $ $ $ $ = 5 5 @     @ 4 4 5 , X     ",
"  X + + + @ @ + + + o X X X o O + + + @ o .       X + + + + + + + + o X X o @ @ + + + X         ",
"  ; R R J R R R R R q 3 3 3 8 s R R R R q o       , R R J R R R R R q 3 3 q R R R R R ,         ",
"5 w e.r.%._ _ _ _ _ u t t t t Z [ _ _ [ m 7 @ X , D e.r.+._ _ _ _ _ u t t u _ _ _ _ _ q 5 5 @   ",
"6.6.3.&.z r r r r r r r r r r r r r r e y &.4 + R e.6.&.z r r r r r r r r r r r r r r c 1.6.4   ",
"6.e.&.u t r r r r r r r r r r r r r r e y &.4 + R r.&.u t r r r r r r r r r r r r r r t z 1.5   ",
"6.+.z t e r r r r r r r r r r r r r r e y &.4 + J %.z t e r r r r r r r r r r r r r r e y &.5   ",
"6.K r r r r r r r r r r r r r r r r r r y  ., + R _ r r r r r r r r r r r r r r r r r r y  .,   ",
"6.K r r r r r r r r r r r r r r r r r r t t % + R _ r r r r r r r r r r r r r r r r r r t y *   ",
"e.K r r r r r r r r r r r r r r r r r r t z = + R [ r r r r r r r r r r r r r r r r r r t c >   ",
"+.c r r r r r r r r r r r r r r r r r e y &.4 O g Z r r r r r r r r r r r r r r r r r r y X.,   ",
"y t r r r r r r r r r r r r r r r r r e y &.5 o 8 t r r r r r r r r r r r r r r r r r r t y *   ",
"e r r r r r r r r r r r r r r r r r r r t c > X 3 t r r r r r r r r r r r r r r r r r r r r $   ",
"r r r r r r r r r r r r r r r r r r r r r r $ X 3 t r r r r r r r r r r r r r r r r r r r r %   ",
"r r r r r r r r r r r r r r r r r r r r r r $ X 3 t r r r r r r r r r r r r r r r r r r r r %   ",
"K u r r r r r r r r r r r r r r r r r r r r $ O q z r r r r r r r r r r r r r r r r r r r r %   ",
"+.m r r r r r r r r r r r r r r r r r r r r $ O g Z r r r r r r r r r r r r r r r r r r r r %   ",
"y t r r r r r r r r r r r r r r r r r r r r $ o 8 t r r r r r r r r r r r r r r r r r r r r %   ",
"e e r r r r r r r r r r r r r r r r r r r r $ X 3 r r r r r r r r r r r r r r r r r r r r r $   ",
"y t r r r r r r r r r r r r r r r r r r t y * o 8 t r r r r r r r r r r r r r r r r r r t y *   ",
"+.c r r r r r r r r r r r r r r r r r r y  ., O g Z r r r r r r r r r r r r r r r r r r y X.,   ",
"t.U e r r r r e r r r r r r r r r r r e y 1.5 @ ^ [ e r r r r e r r r r r e r r r r r e y 1.5   ",
"R s y t r t y y y t r t y t t y t t y y u G ; o q m y t r t y y y t r t y y y t t y t r t G ,   ",
"+ 7 X.y e y X.&.X.y e y X.c y  .c y  .1.G % X . o 7 X.y e y X.&.X.y e y X.&.X.y m X.y r 8 # X   ",
"  @ , * $ * , 5 , * $ * , > * , > * , 5 : X       @ , * $ * , 5 , * $ * , 5 , * > , * % # .     ",
"                                                                                                "
};
