/* XPM */
static char *xpm__[] = {
/* columns rows colors chars-per-pixel */
"32 32 5 1 ",
"  c #2E242F",
". c #3E3546",
"X c #966C6C",
"o c #694F62",
"O c white",
/* pixels */
" ........ Xooooo oooooooX...... ",
". ...... Xoooooo  ooooX         ",
"..  .... Xooooooo oooX  X. ...  ",
".... .. XoooooooX ooooooX...... ",
".....  XoooooooX  ooooooX...... ",
".....  ooooooooX  ooooooX.. ... ",
"..   X   oooooX  oooooo X.. . . ",
"  XXoooo  o      oooooooX...... ",
"XoooooooX        XooooooX...... ",
"ooooooooo         ooooooX...... ",
"oo ooooooX        Xooooo   .... ",
"oo XXooo            oo   ..     ",
"ooo  Xo           ooooooX.. ..  ",
"oooo             oooooooX.. ... ",
"ooo              oooooooX.. ... ",
"                 oooooooX...... ",
"                 oooooooX.... . ",
"                 oooooooX.... . ",
"                 XoooooX ...... ",
"                 XoooooX  .. .  ",
"                   o            ",
"                ooooooo   ....  ",
"                oooooooX .....  ",
"                oooooooX ...... ",
"                oooooooXX...... ",
"                oooooooXX.... . ",
"                XoooooooX.... . ",
"                 ooo  ooX ... . ",
"                ooooXX  X    .. ",
"                oooooooo ...    ",
"                ooooooooX...... ",
"                 oooooooX...... "
};
