/* XPM */
static char *a[] = {
/* columns rows colors chars-per-pixel */
"32 32 5 1 ",
"  c #2E242F",
". c #3E3546",
"X c #966C6C",
"o c #694F62",
"O c white",
/* pixels */
" ........ XooooX ooooooX ...... ",
". ...... XooooX  ooooooo ..... .",
"..  .... Xooooo  Xoo  ooX ... ..",
".... .. Xooooooo  X XoooX ... ..",
".....  XoooooooX    Xoooo .. ...",
".....  ooooooooX   XoooooX  ....",
"..   X   oooooX    oooooo   ....",
"  XXoooo  o         ooooo oX ...",
"XoooooooX            ooX  ooX  .",
"ooooooooo            X   XoooXX ",
"oo ooooooX              XXoooooX",
"oo XXooo                 ooooooo",
"ooo  Xo                  ooooooo",
"oooo                     Xoooooo",
"ooo                      Xoooooo",
"                          XXXo  ",
"ooX                             ",
"ooooXX                          ",
"ooooooX                     ooX ",
"ooooooX                  oX  ooo",
"ooooooo                 oooXX oo",
"Xooooooo              Xoooooo oo",
" XXoooo   X            ooooooooo",
".  Xoo  Xoo            XoooooooX",
"... Xo ooooo         o  ooooXX  ",
"....   oooooo    Xooooo   X   ..",
"....  XoooooX   Xoooooooo  .....",
"... .. ooooX    XoooooooX  .....",
".. ... XoooX oo oooooooX .. ....",
".. ... Xoo  ooo  oooooX ....  ..",
". ..... ooooooo  oooooX ...... .",
" ...... Xoooooo  ooooX ........ "
};
