/* XPM */
static char *b[] = {
/* columns rows colors chars-per-pixel */
"32 32 5 1 ",
"  c #2E242F",
". c #3E3546",
"X c #966C6C",
"o c #694F62",
"O c white",
/* pixels */
" ........ Xoooo  ooooooX ...... ",
". ...... Xoooooo ooooooo ..... .",
"..  .... Xoooooo ooo  ooX ... ..",
".... .. Xooooooo  o XoooX ... ..",
".....  XoooooooX    Xoooo .. ...",
".....  ooooooooX   XoooooX  ....",
"..   X   oooooX    oooooo   ....",
"  XXoooo  o         ooooo oX ...",
"XoooooooX            ooX  ooX  .",
"ooooooooo            X   XoooXX ",
"oo ooooooX              XXoooooX",
"oo XXooo                 ooooooo",
"ooo  Xo                  ooooooo",
"oooo                     Xoooooo",
"ooo                      Xooooo ",
"                          XX    ",
"ooX                             ",
"ooooXX                          ",
"ooooooX                         ",
"ooooooX                         ",
"ooooooo                         ",
"Xooooooo                        ",
" XXoooo   X                     ",
".  Xoo  Xoo                     ",
"... Xo ooooo                    ",
"....   oooooo                   ",
"....  XoooooX                   ",
"... .. ooooX                    ",
".. ... XoooX oo                 ",
".. ... Xoo  ooo                 ",
". ..... ooooooo                 ",
" ...... Xoooooo                 "
};
