/* XPM */
static char *G[] = {
/* columns rows colors chars-per-pixel */
"32 32 5 1 ",
"  c #2E242F",
". c #3E3546",
"X c #966C6C",
"o c #694F62",
"O c white",
/* pixels */
"                                ",
".  ........  ......    ...... ..",
". .... .... ....  .. ....   . . ",
". ......... .......  .......  ..",
". ...  ....  ....... ....... ...",
".  ....... ......... ....... .. ",
". ........ ...   . .  .....  ...",
".  ......   ........ ....... ...",
"                                ",
"X   XXXXXX  XXXXXX      XXXXX XX",
"oXXXooooooX ooooooXX  XXXXoo ooo",
"ooooooooooo oooooooo ooooooo ooo",
"oooooooooo o ooooooo oooooo Xooo",
"oooooooooooo  ooooo   ooooo Xooo",
"    o   ooo    ooo     ooo  oooo",
"o                            o  ",
"ooo                             ",
" ooXX                oooooX ooo ",
"oooooo  XXooooooXooooooo ooooooo",
"oooooo oooooooooXooooooo ooooooo",
"oo ooX ooooooooo XoooooX ooooooo",
"X ooXX XXXooooXX XXXXXX  XoooXXX",
"  XX      XXX             XXXXX ",
".   .. ...   .. ........ .     .",
"...... ........ ........ ...... ",
" ....  ........  .......  ......",
"..... .......... .......  ......",
"..... .......... .  ....  ......",
"..... ...    ...   ...... ..... ",
"..... .. ....... ........ ......",
"   .. .........   .....    .....",
"                                "
};
