/* XPM */
static char *m[] = {
/* columns rows colors chars-per-pixel */
"32 32 5 1 ",
"  c #2E242F",
". c #694F62",
"X c #966C6C",
"o c #3E3546",
"O c white",
/* pixels */
"                                ",
"                                ",
"                                ",
"                                ",
"                                ",
"                                ",
"                                ",
"                                ",
"                                ",
"                                ",
"                                ",
"                                ",
"                                ",
"                                ",
"                                ",
"                                ",
"..X                             ",
"...XX                       ....",
".....X                      ....",
"......X                  .X  ...",
".......                 ...XX ..",
"X.......              X...... ..",
" XX....   X            .........",
"o  X..  X..            X.......X",
"ooo X. .....         .  ....XX  ",
"oooo   ......      X...   X   oo",
"oooo  X.....X     X......  ooooo",
"ooo oo ....X     XX.....X  ooooo",
"oo ooo X...X .   ......X oo oooo",
"oo ooo X..  ... X.....X oooo  oo",
"o ooooo ....... X.....X oooooo o",
" oooooo X...... .....X oooooooo "
};
