/* XPM */
static char *_[] = {
/* columns rows colors chars-per-pixel */
"64 64 195 2 ",
"   c #2D232E",
".  c #2F2430",
"X  c #312631",
"o  c #342932",
"O  c #3D2F3B",
"+  c #392C36",
"@  c #3F313D",
"#  c #412F3A",
"$  c #43333D",
"%  c #49363F",
"&  c #4B383F",
"*  c #243E45",
"=  c #3C3444",
"-  c #3B3F4A",
";  c #2F3E52",
":  c #343C57",
">  c #443441",
",  c #4A3740",
"<  c #4C3941",
"1  c #4B3A48",
"2  c #453847",
"3  c #513C44",
"4  c #513E4C",
"5  c #2A474B",
"6  c #35494E",
"7  c #39464A",
"8  c #2F4951",
"9  c #3D4E5D",
"0  c #364A50",
"q  c #2B5150",
"w  c #34565B",
"e  c #3B5C5C",
"r  c #355659",
"t  c #35665E",
"y  c #3C625E",
"u  c #395F60",
"i  c #3A6562",
"p  c #366C62",
"a  c #3A6A60",
"s  c #386669",
"d  c #3B7369",
"f  c #3C7869",
"g  c #36716B",
"h  c #397672",
"j  c #3B777A",
"k  c #43454C",
"l  c #4E464B",
"z  c #54404C",
"x  c #5C444C",
"c  c #504B4F",
"v  c #464951",
"b  c #554152",
"n  c #5B4554",
"m  c #5E4956",
"M  c #534E5B",
"N  c #5F4A5C",
"B  c #534E50",
"V  c #435155",
"C  c #495456",
"Z  c #435359",
"A  c #47585B",
"S  c #54525E",
"D  c #5A5657",
"F  c #60464C",
"G  c #63484E",
"H  c #634A55",
"J  c #6B4F56",
"K  c #634B5C",
"L  c #6C4F58",
"P  c #6D5057",
"I  c #67565C",
"U  c #725357",
"Y  c #75555A",
"T  c #78575D",
"R  c #7B595D",
"E  c #43615D",
"W  c #484C68",
"Q  c #435761",
"!  c #5C5462",
"~  c #555A68",
"^  c #674E62",
"/  c #694F62",
"(  c #625261",
")  c #6B5063",
"_  c #6C5F63",
"`  c #645B60",
"'  c #745664",
"]  c #775865",
"[  c #775866",
"{  c #775864",
"}  c #7E5D63",
"|  c #795965",
" . c #7B5A64",
".. c #456062",
"X. c #436C64",
"o. c #496867",
"O. c #566864",
"+. c #42766A",
"@. c #517469",
"#. c #466B74",
"$. c #437974",
"%. c #587D70",
"&. c #536A74",
"*. c #666165",
"=. c #805D67",
"-. c #815E66",
";. c #815F68",
":. c #825F68",
">. c #836167",
",. c #836068",
"<. c #876268",
"1. c #856168",
"2. c #896469",
"3. c #8A6469",
"4. c #8B656A",
"5. c #8C666A",
"6. c #8B656A",
"7. c #89686A",
"8. c #976C6C",
"9. c #956B6C",
"0. c #996E6D",
"q. c #438374",
"w. c #498476",
"e. c #448875",
"r. c #41857E",
"t. c #498D79",
"y. c #5B877B",
"u. c #49937D",
"i. c #53917B",
"p. c #3E7F80",
"a. c #646D82",
"s. c #3A8084",
"d. c #438C83",
"f. c #4D9B83",
"g. c #469184",
"h. c #559A82",
"j. c #468F93",
"k. c #449392",
"l. c #669F87",
"z. c #4DA08E",
"x. c #50A186",
"c. c #51A48B",
"v. c #55AA8D",
"b. c #4FA392",
"n. c #4FA89F",
"m. c #55AC91",
"M. c #5AAF90",
"N. c #53AC9B",
"B. c #59B493",
"V. c #5CBA96",
"C. c #56B39E",
"Z. c #5EBF99",
"A. c #58B394",
"S. c #6DA68F",
"D. c #64A086",
"F. c #70AD8F",
"G. c #61B091",
"H. c #74B392",
"J. c #75BD9C",
"K. c #4A9EA6",
"L. c #50ABA0",
"P. c #54B4AB",
"I. c #58BCAD",
"U. c #56B5A3",
"Y. c #4FABB0",
"T. c #55B8B4",
"R. c #4EA9A8",
"E. c #5FC19A",
"W. c #61C49C",
"Q. c #63C99F",
"!. c #75C09E",
"~. c #5AC1B2",
"^. c #5BC5BD",
"/. c #64CBA0",
"(. c #6ACEA3",
"). c #7BC8A2",
"_. c #76D7AB",
"`. c #57BFC0",
"'. c #83D1A9",
"]. c #9BDDAE",
"[. c #82DCB0",
"{. c #85CBA6",
"}. c #89E6B6",
"|. c #8FECBB",
" X c #91E6B8",
".X c #94ECBC",
"XX c #99E5B6",
"oX c #A3E5B4",
"OX c #A2ECB9",
"+X c #AAF4BE",
"@X c #BEFABF",
"#X c #9AF2C0",
"$X c #A4F6C1",
"%X c #AEF9C1",
"&X c #BCFBC1",
/* pixels */
"= = 2 z } 9.0.8.8.3.[ / / / / / / [ 3.8.8.0.9.R % X                 X % R 9.0.8.8.8.8.8.8.8.8.8.8.Y <                           ",
"= 2 4 H } 2.3.3.3.=.' / / / / / / ' =.3.3.3.<.T 3 > % $ o         X $ x R 2.3.3.3.3.3.3.3.3.3.3.3.R G < < % $ @ @ $ % $ o       ",
"2 4 J { | [ [ [ [ ' ) / / / / / / ) ' [ [ [ ] ) m H J G $ X     X $ G T { [ [ [ [ [ [ [ [ [ [ [ [ { T Y Y J H b b H J G $ X     ",
"z H { ,.' ) / / / / / / / / / / / / / / / / / / / ] } R x $ o o $ x T ,.' ) / / / / / / / / / / / ' ;.5.5.;.' / / ] } R x $ o   ",
"} } | ' ) ) / / / / / / / / / / / / / / / / / / / ) ' { R G % $ H T | ' ) ) / / / / / / / / / / / ) ' ] ] ' ) / / ) ' ] R G $   ",
"9.2.[ ) ) / / / / / / / / / / / / / / / / / / / / / ) ] 3.U 3 % T <.| ) ) / / / / / / / / / / / / / ) ) ) / / / / / ) ] 3.U %   ",
"0.3.[ / / / / / / / / / / / / / / / / / / / / / / / ) ] 5.Y 3 , R <.| / / / / / / / / / / / / / / / / ^ ^ / / / / ^ ) ] 5.Y <   ",
"8.3.[ / / / / / / / / / / / / / / / / / / / / / / / ) ' ,.J < % R <.| / / / / / / / / / / / / / / / / / / / / / / ^ ) ] 3.Y <   ",
"8.3.[ / / / / / / / / / / / / / / / / / / / / / / / ) ) ' m > % R <.| / / / / / / / / / / / / / / / / / / / / / / ^ ) ] 3.Y <   ",
"3.=.' / / / / / / / / / / / / / / / / / / / / / / / / ) / b $ $ G T { ] ) / / / / / / / / / / / / / / / / / / / / / ) ' } J ,   ",
"[ ' ) / / / / / / / / / / / / / / / / / / / / / / / / ) / b $ o $ x T } ' / / / / / / / / / / / / / / / / / / / / / ) ) ' H $   ",
"/ / / / / / / / / / / / / / / / / / / / / / / / / / ) ) ' H %     $ G T ) / / / / / / / K ^ / / / / / / / / / / / / ) ) ' m $   ",
"/ / / / / / / / / / / / / / / / / / / / / / / / / / ) ' ,.P ,     o $ 4 H / ) / / / / K 6 M / / / / / / / / / / / / ) ' ;.J %   ",
"/ / / / / / / / / / / / / / / / / / / / / / / / / / ) ' =.J %     X O 1 H / ) / / / / ^ M N / / / / / / / / / / / / ) ] 3.Y ,   ",
"/ / / / / / / / / / / / / / / / / / / / / / / / / / / ) ' H %   X O 1 n K / ) / / / / / / / / / / / / / / / / / / / ) ] 3.Y ,   ",
"/ / / / / / / / / / / / / / / / / / / / / / / / / / / / / b $ o $ 3 H ) / / / / / / / / / / / / / / / / / / / / / / ) ' ,.P %   ",
"/ / / / / / / / / / / / / / / / / / / / / / / / / / / / / b > $ H T ' / / / / / / / / / / / / / / / / / / / / / / / ) ) ' m $   ",
"/ / / / / / / / / / / / / / / / / / / / / / / / / / / ) ' m > % P  .] / / / / / / / / / / / / / / / / / / / / / / / / ) ) b O   ",
"/ / / / / / / / / / / / / / / / / / / / / / / / / / ) ' ;.J , $ H ' ' / / / / / / / / / / / / / / / / / / / / / / / / / / b O   ",
"/ / / / / / / / / / / / / / / / / / / / / / / / / ^ ) ] 3.Y < + n / ) / / / / / / / / / / / / / / / / / / / / / / / / / / b @   ",
"/ / / / / / / / / / / / / / / / / / / / / / / / ) / ) ] 3.Y < + b / ) / ) ) / ) / / / / / / / / / / / / / / / / / / / / / b @   ",
"^ / / / / / / / / / / / / / / / / / / / / / / / ) / ) ] 3.U 3 # H ' I V Z Z S / / / / / / / / / / / / / / / / / / / / / / b O   ",
") ) / / / / / / / / / / / / ) ) ) / / / / / / / ) / ) | 5.I k 7 D I O.p f f X.S ^ / / / / / / / / / / / / / / / / / / ) ) b O   ",
"] ' ) / / / / / / / / / / ) ' ' ) / / / / / / / / ) ) { 7.O.X.X.t a $.f.v.v.e.e ( / / / / / / / / / / / / / / / / / ) ) ' m $   ",
"3.=.] / / / / / / / / / / ] =.=.) / / / / / / / / ' ` E @.l.J.J.G.v.v.V.V.B.u.y ( / / / / / / / / / / / / / / / / / ) ' ;.J %   ",
"Y T { ] ) / ^ ^ ^ ^ / ) ] { R T { ' ) ^ / / / ) ' *.%.D.H.'. X X[.(.W.W.E.B.f.+...! / ^ ^ / / / / / / ^ ^ / / / / / ) ] 5.Y ,   ",
"< x T } ' ) / ) ) ) ) ' } Y G x T  .] ) ) ) ) ' *.y.H.].OX.X#X#X|._.(.Q.W.B.x.u.q.o.( ) / / / / / / ) ) ) / / ) ) ) ) ] 3.U %   ",
"  $ G R | ] ] ] ] ] ] | R G % $ H T | ] ] ] ' _ %.H.oX@X&X$X#X.X}._.(.Q.W.A.c.c.c.e.o.) ] ' ) / / ) ' ] ] ' ) ) ' ] ] ] R G $   ",
"  o $ x R 3.5.3.3.5.3.R x $ o o $ x R 5.5.5._ o.F.XX&X&X%X$X.X}._.(./.Q.W.B.c.v.B.x.+.A ,.;.' / / ' ;.5.5.=.' ) =.5.3.R x $ o   ",
"    X @ G U Y U U Y U G @       X $ x Y Y U D +.).OX+XOXXX X}._.(./.Q.W.V.v.c.c.v.u.X.B U J m b b m J Y Y J m m J Y U G $ X     ",
"    . o % < 3 3 3 3 3 % +     X X o $ 3 3 l A i.'. X{.S.S.!._.(.Q.Q./.W.m.c.x.x.x.g.X.c 3 , > $ > > < < < , $ $ % < < % o       ",
"  o @ % % % % % % % % % , % $ $ $ O O $ % 7 t h.).J.y.Q o.y.M.W.Q././.W.m.c.x.x.c.b.r.r = O O $ % % % $ o         o O $ o       ",
"  $ G R R R R R R R R R R Y H n n n n H U k 5 i h.$.9 W a.&.w.B.Q./.W.Z.m.x.x.x.m.N.d.w n n n H U R R H $ X       $ x H $ X     ",
"< G R 9.9.9.3.<.<.<.<.<.<.} ' / / / / ) } v * r t.i ; : W Z +.B.Q.Q.Z.B.v.x.x.x.m.U.g.e ( / ^ ) } 5.5.R , + $ < < x U T x $ o   ",
"Y -.5.0.0.5.;.| | | | | | ] ) ) ) ) ) ) ] v q d x.e.w ; ; w w.V.W.E.B.v.x.x.x.c.U.P.k.u ( / ) ) ] <.5.R , % x Y Y T { | R G $   ",
"8.8.8.9.5.=.' / / / / / / / / / / / / / / V p x.E.B.e.w w e.B.E.Z.B.c.x.x.x.m.C.I.T.j...( / / / / ] } U % < U 9.9.=.' ] 5.Y <   ",
"8.0.8.5.} ' ) / / / / / / / / / / / / / / Z d v.W.W.v.u.f.v.V.B.v.c.x.x.x.v.C.I.T.k.#.( / / / / / ) ) H $ < Y 9.=.' ) ] 5.Y <   ",
"8.9.5.=.' ) / / / / / / / / / / / / / / / Z g b.A.m.f.t.x.m.m.c.x.c.c.c.m.C.~.^.T.p.Q / / / / / / ) / H 1 3 J { ' ) ) ] 5.Y <   ",
"8.5.=.' ) / / / / / / / / / / / / / / / / S X.d.f.g.q.e.f.c.c.c.c.N.C.C.C.I.^.`.K.#.S / / / / / / / / K m b x m K ^ ) ] 3.Y ,   ",
"8.3.[ / / / / / / / / / / / / / / / / / / / ! s r.q.q.u.f.c.m.m.N.I.~.T.L.n.R.K.$.~ / / / / / / / / / / / N b 4 H / ) ' ;.J %   ",
"8.3.[ / / / / / / / / / / / / / / / / / / / ) ! i d e.u.f.b.N.N.N.P.T.Y.p.s s s ! ) / / / / / / / / / / / ^ K H ^ / ) ) ' m $   ",
"0.3.[ / / / / / / / / / / / / / / / / / / / / / S e t p p g h h h h j j ~ S M M ^ / / / / / / / / / / / / / / / / / / ) / b O   ",
"8.2.] / / / / / / / / / / / / / / / / / / / / / / M 0 5 C V 6 6 C 0 8 C ^ / / / / / / / / / / / / / / / / / ) ) / / / ) / b O   ",
"3.;.' / / / / / / / / / / / / / / / / / / / / / / ) b - { P < % R c k ) ' ) ) / / / / / / / / / / / / / / / / / / / ) ) ' m $   ",
"] ' ) / / / / / / / / / / / / / / / / / / / / / / / ^ ^ ' m > % R } ' ' =.=.] / / / / / / / / / / / / / / / / / / / ) ' ,.P %   ",
") ) / / / / / / / / / / / / / / / / / / / / / / / / ) ) ] m > , R 5.<.[ { T ) / / / / / / / / / / / / / / / / / / / ) ] 3.Y ,   ",
"/ / / / / / / / / / / / / / / / / / / / / / / / / / ) ' } J , % T 5.5.{ H m K / / / / / / / / / / / / / / / / / / ^ / ] 5.Y <   ",
"/ / / / / / / / / / / / / / / / / / / / / / / / / / ) ] ,.J , $ H R R P z b N / / / / / / / / / / / / / / / / / / ^ ) ] 3.Y <   ",
"/ / / / / / / / / / / / / / / / / / / / / / / / / / ) ) ' m $ o $ % % < b K ^ / / / / / / / / / / / / / / / / / / ^ / ] 3.Y <   ",
"[ ' ) / / / / / / / / / / / / / / / / / / / / / / / / ) ) n $ X O $ > 1 m ^ ) / / / / / / / / / / / / / / / / / / ^ / ] 3.Y <   ",
"<.} ' / / / / / / / / / / / / / / / / / / / / / / / / / / b $ + 1 b b n K / ) / / / / / / / / / / / / / / / / / / ^ ) ] 3.Y <   ",
"2.=.] / / / / / / / / / / / / / / / / / / / / / / / / / / b $ $ H ' ' ) / / / / / / / / / / / / / / / / / / / / / ^ ) ] 3.Y <   ",
"] ' ) / / / / / / / / / / / / / / / / / / / / / / / / / / b $ % U =.[ / / / / / / / / / / / / / / / / / / / / / / ^ ) ] 3.Y <   ",
") / / / / / / / / / / / / / / / / / / / / / / / / / / / / b > % R <.| / / / / / / / / / / / / / / / / / / / / / / ^ ) ] 3.Y <   ",
") / / / / / / / / / / / / / / / / / / / / / / / / / / ) ) b > % R <.| / / / / / / / / / / / / / / / / / / / / / / ^ ) ] 3.Y <   ",
"] ' ) / / / / / / / / / / / / / / / / / / / / / / / / ) ' m > % U } ] / / / / / / / / / / / / / / / / / / / / / / ^ ) ] 5.Y <   ",
"3.;.' / / / / / / / / / / / / / / / / / / / / / / / ) ' ;.J < $ H ) ) / / / / / / / / / / / / / / / / / / / / / / ^ ) ] 5.Y <   ",
"8.3.] ^ / / / / / / / / / / / / / / / ^ ^ / / / / ^ ) ] 5.Y 3 $ H ' ) ^ ^ / / / / / / ^ ^ / / / / / / ^ ^ ) ' ' K K ' | R G $   ",
"9.2.[ / ) / / ) ) ) ) ) ) / / / / / ) ) / / ) ) ) ) ) ] 3.U < $ P | ] ) ) / / / / / ) ) ) / / / / / ) ) ) ] } { m K T T x $ o   ",
"R R { ' ) ) / ) ' ] ] ' ) ) / / / ) ' ] ] ' ) ) ' ] ] | R G % $ H T | ] ] ' ) / / ) ' ] ] ' ) / / ) ' ] ] | R U m K P H $ X     ",
"% x Y ,.' / / ' ,.3.3.,.' ) / / / ' ;.5.5.=.' ' ;.5.3.R x $ o o $ x R 5.5.=.' / / ' ;.5.5.;.' / / ' ;.5.5.T x z U P x $ o       ",
"X $ x P m b b m P Y Y P m b b b b H L Y Y J H m J Y U G $ X     X $ G Y Y P H b b H L Y Y L H b b m L Y Y x % $ G x % X         ",
"  o $ % $ O O $ % , , % $ O O @ @ $ % < < , $ $ % , % $ o         o $ < < % $ @ @ $ % < < , $ @ O $ % < < $ o o $ $ +           ",
"                                                                                                                                "
};
