/* XPM */
static char * 2_xpm[] = {
"48 48 202 2",
"  	c #3C3445",
". 	c #4C3B49",
"+ 	c #876366",
"@ 	c #996E6D",
"# 	c #976C6C",
"$ 	c #805E67",
"% 	c #694F62",
"& 	c #856062",
"* 	c #3F3039",
"= 	c #2D232E",
"- 	c #62484D",
"; 	c #56404B",
"> 	c #6C525B",
", 	c #7D5C65",
"' 	c #815E68",
") 	c #755665",
"! 	c #775862",
"~ 	c #533E4A",
"{ 	c #584147",
"] 	c #352933",
"^ 	c #43323B",
"/ 	c #674B51",
"( 	c #7C5B63",
"_ 	c #75555B",
": 	c #896469",
"< 	c #705464",
"[ 	c #674E62",
"} 	c #7F5D68",
"| 	c #825E62",
"1 	c #4C3945",
"2 	c #302630",
"3 	c #3B2D37",
"4 	c #694D52",
"5 	c #7C5B67",
"6 	c #91696B",
"7 	c #6C5163",
"8 	c #574046",
"9 	c #715464",
"0 	c #936A6D",
"a 	c #84616A",
"b 	c #5C444B",
"c 	c #836069",
"d 	c #8F686B",
"e 	c #483747",
"f 	c #7A5A64",
"g 	c #60474C",
"h 	c #453543",
"i 	c #644B5C",
"j 	c #896369",
"k 	c #244144",
"l 	c #3C2E38",
"m 	c #795A68",
"n 	c #5D4759",
"o 	c #8C666A",
"p 	c #2F5854",
"q 	c #2E5754",
"r 	c #305A56",
"s 	c #38625B",
"t 	c #3A645D",
"u 	c #396D63",
"v 	c #50A185",
"w 	c #4D9982",
"x 	c #385F5A",
"y 	c #4A796C",
"z 	c #81C49F",
"A 	c #8ED7AC",
"B 	c #86D4AB",
"C 	c #7FCEA7",
"D 	c #67BE9A",
"E 	c #60C49C",
"F 	c #4F9E85",
"G 	c #2D5653",
"H 	c #775866",
"I 	c #48786B",
"J 	c #7AC29F",
"K 	c #97DEB0",
"L 	c #BEF9BF",
"M 	c #BAFCC1",
"N 	c #A1F5C1",
"O 	c #9AF2C0",
"P 	c #8BE9B8",
"Q 	c #6AD0A4",
"R 	c #34615B",
"S 	c #427367",
"T 	c #7BC7A2",
"U 	c #9DF2BF",
"V 	c #BAFBC1",
"W 	c #BFFBC0",
"X 	c #A6F3BE",
"Y 	c #98F1BF",
"Z 	c #8BE6B7",
"` 	c #6ACFA4",
" .	c #62C89F",
"..	c #5DBD98",
"+.	c #49907D",
"@.	c #36665F",
"#.	c #5AAB8C",
"$.	c #9BF4C1",
"%.	c #8EE8B9",
"&.	c #71D6A9",
"*.	c #65CDA2",
"=.	c #63CAA0",
"-.	c #5FC09A",
";.	c #53A88C",
">.	c #48907B",
",.	c #281F2B",
"'.	c #5DB995",
").	c #6FD2A6",
"!.	c #7ECBA5",
"~.	c #84D1AA",
"{.	c #91ECBC",
"].	c #6ECFA5",
"^.	c #56AD8E",
"/.	c #56AE90",
"(.	c #3D786D",
"_.	c #53A78A",
":.	c #56A58A",
"<.	c #496368",
"[.	c #3B545B",
"}.	c #59A489",
"|.	c #6BCDA3",
"1.	c #68CBA1",
"2.	c #415E63",
"3.	c #304952",
"4.	c #448577",
"5.	c #51A289",
"6.	c #4B9D92",
"7.	c #2F5B5B",
"8.	c #845F61",
"9.	c #5F4859",
"0.	c #7E5B60",
"a.	c #58B291",
"b.	c #57B08F",
"c.	c #72778E",
"d.	c #3B3E5D",
"e.	c #2B464F",
"f.	c #57B190",
"g.	c #72788E",
"h.	c #3C3E5D",
"i.	c #283C4A",
"j.	c #498F7D",
"k.	c #55AD94",
"l.	c #51AC9F",
"m.	c #305D5C",
"n.	c #7E5C60",
"o.	c #886363",
"p.	c #7B5A5E",
"q.	c #9B706F",
"r.	c #8F686C",
"s.	c #53A88A",
"t.	c #333858",
"u.	c #2E4B53",
"v.	c #333758",
"w.	c #2B404E",
"x.	c #55B19A",
"y.	c #51AB9E",
"z.	c #946B6E",
"A.	c #886264",
"B.	c #4C9985",
"C.	c #448174",
"D.	c #2C4551",
"E.	c #55AB8E",
"F.	c #51A68E",
"G.	c #5ABFAE",
"H.	c #54B4AC",
"I.	c #4A998D",
"J.	c #53AC96",
"K.	c #488D7B",
"L.	c #4B9580",
"M.	c #478B7A",
"N.	c #5CC8C2",
"O.	c #51B0B8",
"P.	c #2F5B61",
"Q.	c #356665",
"R.	c #4C9E91",
"S.	c #3C7468",
"T.	c #468977",
"U.	c #54AB91",
"V.	c #5BC4BC",
"W.	c #53B5BD",
"X.	c #386D77",
"Y.	c #4E9D88",
"Z.	c #4A9584",
"`.	c #3A716B",
" +	c #54AD97",
".+	c #58BBA8",
"++	c #54B5AB",
"@+	c #51AFB7",
"#+	c #564354",
"$+	c #2D5354",
"%+	c #346460",
"&+	c #4B9D94",
"*+	c #52AFA2",
"=+	c #4DA398",
"-+	c #366A6A",
";+	c #2E575F",
">+	c #2E5658",
",+	c #23333E",
"'+	c #694F5B",
")+	c #5A4657",
"!+	c #9C706F",
"~+	c #49363E",
"    . + @ # # $ % % % % % $ # # @ & * = = = = = = = * & @ # # # # # # # # - = = = = = = = = = = ",
"  ; > , ' ' $ ) % % % % % ) $ $ ' ! ~ ; { ] = = = ^ / ( ' $ $ $ $ $ $ $ $ _ - - ; . . { { ] = = ",
". > : < [ % % % % % % % % % % % % % % } | 1 ] 2 3 4 : < [ % % % % % % % % 5 6 6 5 % % } | 1 ] = ",
"+ , < 7 % % % % % % % % % % % % % % % 7 ) | 8 3 _ , < 7 % % % % % % % % % 7 9 9 7 % % 7 ) | { = ",
"@ ' [ % % % % % % % % % % % % % % % % [ 9 0 - ^ & a [ % % % % % % % % % % % [ [ % % % [ 9 0 - = ",
"# $ % % % % % % % % % % % % % % % % % % 9 : b * & c % % % % % % % % % % % % % % % % % [ 9 d - = ",
"# $ % % % % % % % % % % % % % % % % % % 7 < . * & c % % % % % % % % % % % % % % % % % [ 9 d - = ",
"$ ) % % % % % % % % % % % % % % % % % % % [ e ] { _ } 7 % % % % % % % % % % % % % % % % 7 f ; = ",
"% % % % % % % % % % % % % % % % % % % % 7 9 ~ = = { | 7 % % % % % % % % % % % % % % % % 7 < . = ",
"% % % % % % % % % % % % % % % % % % % % 9 : g = = ] h i 7 % % % % % % % % % % % % % % % 9 j b = ",
"% % % % % % % % % % % % % % % % % % % % 7 , { = = 3 . i 7 % % % % k % % % % % % % % % [ 9 6 - = ",
"% % % % % % % % % % % % % % % % % % % % % % . 2 3 ; 7 % % % % % % % % % % % % % % % % % 9 : b = ",
"% % % % % % % % % % % % % % % % % % % % % % e l _ f % % % % % % % % % % % % % % % % % % 7 < . = ",
"% % % % % % % % % % % % % % % % % % % % 7 5 ~ l _ m % % % % % % % % % % % % % % % % % % % % e = ",
"% % % % % % % % % % % % % % % % % % % [ 9 d - ] n 7 % % % % % % % % % % % % % % % % % % % % . = ",
"% % % % % % % % % % % % % % % % % % % [ 9 d - ] n 7 % % % % % % % % % % % % % % % % % % % % . = ",
"[ % % % % % % % % % % % % % % % % % % [ 9 o g l _ f [ p q r % % % % % % % % % % % % % % % % e = ",
"9 7 % % % % % % % % 7 < 7 % % % % % % 7 f 6 s t t s u v v w r % % % % % % % % % % % % % 7 < . = ",
"d , % % % % % % % % , : 7 [ % % % % % f x y z A B C D E E F G % % % % % % % % % % % % % 9 j b = ",
"- _ } 7 [ [ [ [ 7 } _ 4 , H [ [ [ 7 f I J K L M N O P Q E v R % [ [ % % % % [ [ % % % [ 9 0 - = ",
"= { | ) 9 9 9 9 ) | 8 3 _ , 9 9 9 f S T U V W X Y Y Z `  ...+.@.9 9 7 % % 7 9 9 7 7 9 9 ) | { = ",
"= ] 1 | 0 o d 0 | 1 ] 2 3 4 6 6 o p #.Z $.N N O Y %.&.*.=.-.;.>.p 6 5 % % 5 6 6 f 7 j 0 | 1 ] = ",
"= = 2 8 - g g - 8 2 ,.= = ^ g g g u '.).!.~.%.{.P ].^.^.../.F (.g - ; e e ~ g - ; . b - 8 ] = = ",
"= ] * * l * * * * ^ l 3 3 ] 3 l r _.E :.<.[.}.|.1.:.2.3.4.5.;.6.7.3 ] 3 l ^ 3 2 = = = ] 3 2 = = ",
"= 8 & & 8.8.& 8.& & _ 9.9.n i 0.r a.b.2.c.d.e.a.f.2.g.h.i.j.k.l.m.i n i n.o._ 3 = = = { _ l = = ",
"- p.@ q.r.c c c c c H 7 7 7 7 } G F s.3.h.t.u.a.^.3.h.v.w.+.x.y.m.7 % 7 } z.A.^ ^ - - _ , 4 ^ = ",
"# # # 6 f % % % % % % % % % % % q B.;.C.i.D.B...E.C.i.w.C.F.G.H.m.% % % % } n.l b # 0 f 9 6 - = ",
"# @ 6 H 7 % % % % % % % % % % % q I.J.5.j.K.F ;.5.L.M.j.5.x.N.O.P.% % % % 7 i 3 g 0 f 7 9 6 - = ",
"# o f 7 [ % % % % % % % % % % % % Q.R.J.;.w S.T.T.S.w U.x.V.W.X.% % % % % % i ~ b > % [ 9 6 - = ",
"# $ % % % % % % % % % % % % % % % % Q.I.Y.F.Z.`.`.L. +.+++@+X.% % % % % % % % % #+. i % < j b = ",
"# $ % % % % % % % % % % % % % % % % % $+%+R.y.&+&+y.*+=+-+;+% % % % % % % % % % [ i [ % 7 < . = ",
"@ $ % % % % % % % % % % % % % % % % % % 7 q >+>+>+>+>+q % % % % % % % % % % % % % 7 % % % [ e = ",
"o 5 % % % % % % % % % % % % % % % % % % < j ,+* & c ,+7 7 % % % % % % % % % % % % % % % 7 < . = ",
"9 7 % % % % % % % % % % % % % % % % % % 7 < . * & ' 7 j , % % % % % % % % % % % % % % % 9 : b = ",
"% % % % % % % % % % % % % % % % % % % % 7 5 ~ ^ & 0 , > '+% % % % % % % % % % % % % % [ 9 6 - = ",
"% % % % % % % % % % % % % % % % % % % % 9 : b 3 _ A.p.. #+% % % % % % % % % % % % % % [ 9 d - = ",
"% % % % % % % % % % % % % % % % % % % % 7 < . 2 3 * ^ )+[ % % % % % % % % % % % % % % [ 9 d - = ",
"$ ) % % % % % % % % % % % % % % % % % % % % . 2 h e . i 7 % % % % % % % % % % % % % % [ 9 d - = ",
"o , % % % % % % % % % % % % % % % % % % % % e 3 i 9 7 % % % % % % % % % % % % % % % % [ 9 d - = ",
"9 7 % % % % % % % % % % % % % % % % % % % % e l n.' % % % % % % % % % % % % % % % % % [ 9 d - = ",
"[ [ % % % % % % % % % % % % % % % % % % % % e ^ & a % % % % % % % % % % % % % % % % % [ 9 d - = ",
"9 7 % % % % % % % % % % % % % % % % % % 7 < . l n.} % % % % % % % % % % % % % % % % % [ 9 6 - = ",
"o 5 % % % % % % % % % % % % % % % % % % 9 j b 3 i 7 % % % % % % % % % % % % % % % % % [ 9 6 - = ",
"!+' [ % % % % % % % % % % % [ [ % % % [ 9 0 - 3 _ H [ [ % % % % [ [ % % % % [ [ H f )+> , 4 ^ = ",
"& 0.9 7 % 7 9 9 9 7 % % % 7 9 9 7 7 9 9 ) | 8 3 _ , 9 9 7 % % 7 9 9 7 % % 7 9 9 , p.#+> _ 3 = = ",
"* / : 9 [ < : 6 : < % % % 5 6 6 f < j 0 | 1 ] 2 3 4 6 6 , % % 5 6 6 5 % % 5 6 6 / 1 p./ 3 2 = = ",
"= ^ b . e . b - b . e . . ; - - ; . b - { ] = = = ^ - - ; . . ; - - ; . e ; - - ^ ] { ~+= = = = ",
"= = = = = = = = = = = = = = = = = = = = = = = = = = = = = = = = = = = = = = = = = = = = = = = = "};
