/* XPM */
static char *walking_up7[] = {
/* columns rows colors chars-per-pixel */
"64 64 137 2 ",
"   c None",
".  c #24333D",
"X  c #24333E",
"o  c #284148",
"O  c #2C5351",
"+  c #2D5451",
"@  c #2E5454",
"#  c #2E5555",
"$  c #2E5755",
"%  c #2E5557",
"&  c #2E5658",
"*  c #2E5759",
"=  c #2F5958",
"-  c #2F585A",
";  c #2F5B5A",
":  c #2F5B5B",
">  c #2F585F",
",  c #305A55",
"<  c #305A56",
"1  c #305B56",
"2  c #315C57",
"3  c #305D5E",
"4  c #35625C",
"5  c #34625F",
"6  c #35665F",
"7  c #38625B",
"8  c #39625B",
"9  c #3A625B",
"0  c #305C62",
"q  c #346561",
"w  c #376B62",
"e  c #376C62",
"r  c #366B67",
"t  c #386D63",
"y  c #366B68",
"u  c #376E72",
"i  c #386D77",
"p  c #386D78",
"a  c #47776A",
"s  c #507B6B",
"d  c #448672",
"f  c #468A78",
"g  c #4A947D",
"h  c #4C9985",
"j  c #4D9C87",
"k  c #4F9F89",
"l  c #49988C",
"z  c #4A998C",
"x  c #4B9B8E",
"c  c #4B9D91",
"v  c #4C9F92",
"b  c #4C9E93",
"n  c #50A185",
"m  c #50A286",
"M  c #51A387",
"N  c #51A388",
"B  c #51A488",
"V  c #52A589",
"C  c #52A58A",
"Z  c #52A68A",
"A  c #53A78A",
"S  c #54A78A",
"D  c #52A78C",
"F  c #52A68D",
"G  c #52A78E",
"H  c #54A98A",
"J  c #53A88F",
"K  c #54AA8E",
"L  c #55AC8E",
"P  c #56AD8E",
"I  c #56AD8F",
"U  c #59AA8C",
"Y  c #53A990",
"T  c #53AA90",
"R  c #53AA91",
"E  c #54AB92",
"W  c #53AB94",
"Q  c #53AB95",
"!  c #55AE97",
"~  c #55AF98",
"^  c #51AB9E",
"/  c #51AC9E",
"(  c #51AC9F",
")  c #56B096",
"_  c #58B391",
"`  c #5CBA96",
"'  c #55B09A",
"]  c #55B19A",
"[  c #5EBF99",
"{  c #66BB98",
"}  c #53AFA3",
"|  c #52B1A8",
" . c #53B1A8",
".. c #54B6AF",
"X. c #51B0B7",
"o. c #51B0B8",
"O. c #53B5BE",
"+. c #5FC09A",
"@. c #5FC19A",
"#. c #5FC29B",
"$. c #60C49C",
"%. c #61C59C",
"&. c #61C59D",
"*. c #62C99F",
"=. c #63CA9F",
"-. c #7BC39F",
";. c #5AC0B0",
":. c #5AC2B7",
">. c #5BC5BD",
",. c #5BC6BD",
"<. c #63CAA0",
"1. c #64CAA0",
"2. c #64CBA0",
"3. c #69CDA2",
"4. c #6ACDA3",
"5. c #6ACFA4",
"6. c #6BCFA4",
"7. c #70D3A7",
"8. c #83C6A0",
"9. c #82D0A8",
"0. c #81D4AA",
"q. c #93D8AB",
"w. c #89E5B6",
"e. c #8BE7B8",
"r. c #8BE8B8",
"t. c #90EABA",
"y. c #98EDBB",
"u. c #99F0BF",
"i. c #9AF1BF",
"p. c #9EF0BE",
"a. c #9FF1BE",
"s. c #AFE2AF",
"d. c #B8F7BE",
"f. c #A1F4C1",
"g. c #A8F5C0",
"h. c #BBFCC2",
"j. c #C1FDC2",
/* pixels */
"                                                                                                                                ",
"                                                                                                                                ",
"                                                                                                                                ",
"                                                                                                                                ",
"                                                                                                                                ",
"                                                                                                                                ",
"                                                                                                                                ",
"                                                                                                                                ",
"                                                                                                                                ",
"                                                                                                                                ",
"                                                                                                                                ",
"                                                                                                                                ",
"                                                                                                                                ",
"                                                                                                                                ",
"                                                                                                                                ",
"                                                                                                                                ",
"                                                                                                                                ",
"                                                                                                                                ",
"                                                                                                                                ",
"                                                                                                                                ",
"                                                                                                                                ",
"                                                                                                                                ",
"                                                                                                                                ",
"                                                                                                                                ",
"                                                                                                                                ",
"                                                                          <                                                     ",
"                                                                        < d <                                                   ",
"                                                                          <                                                     ",
"                                                            < 2 8 8                                                             ",
"                                                        O w S { 9.8.s 8 8                                                       ",
"                                                    = 4 g _ 3.r.f.d.s.q.-.a <                                                   ",
"                                                  y x k ` <.5.w.i.g.j.h.a.0.U e                                                 ",
"                                                r b Q C I @.1.7.w.t.y.a.i.e.3.H t                                               ",
"                                              = b Q N n C I @.1.5.5.7.w.w.7.1.*.C 6                                             ",
"                                              3  .] n n n N I [ &.*.1.5.3.<.*.@.I f +                                           ",
"                                              0 X.,.~ C n n n C I [ &.*.*.&.[ I G h %                                           ",
"                                                p O.,.] Y J G n n C I [ [ I K G j x =                                           ",
"                                                  p o. .} :.;.~ Y Y E ) ) G j x 4 %                                             ",
"                                                    > = u X...( ( ( ( ^ ( c q % o                                               ",
"                                                          > * * * * * * * %                                                     ",
"                                                            .           .                                                       ",
"                                                                                                                                ",
"                                                                                                                                ",
"                                                                                                                                ",
"                                                                                                                                ",
"                                                                                                                                ",
"                                                                                                                                ",
"                                                                                                                                ",
"                                                                                                                                ",
"                                                                                                                                ",
"                                                                                                                                ",
"                                                                                                                                ",
"                                                                                                                                ",
"                                                                                                                                ",
"                                                                                                                                ",
"                                                                                                                                ",
"                                                                                                                                ",
"                                                                                                                                ",
"                                                                                                                                ",
"                                                                                                                                ",
"                                                                                                                                ",
"                                                                                                                                ",
"                                                                                                                                ",
"                                                                                                                                "
};
