/* XPM */
static char *dying_down5[] = {
/* columns rows colors chars-per-pixel */
"64 64 115 2 ",
"   c None",
".  c #24333E",
"X  c #294348",
"o  c #28424B",
"O  c #2E4C4E",
"+  c #2C514F",
"@  c #2C5351",
"#  c #2D5553",
"$  c #2E5854",
"%  c #2F5955",
"&  c #2E5759",
"*  c #2E5859",
"=  c #2F5A5C",
"-  c #315B56",
";  c #335D57",
":  c #335D58",
">  c #375E59",
",  c #33625B",
"<  c #34635C",
"1  c #35675F",
"2  c #39615A",
"3  c #38635C",
"4  c #39675F",
"5  c #2F5A60",
"6  c #2F5C62",
"7  c #306065",
"8  c #366860",
"9  c #356865",
"0  c #36696C",
"q  c #376D6F",
"w  c #397065",
"e  c #397168",
"r  c #3B7568",
"t  c #3E7769",
"y  c #3E7B6C",
"u  c #376E70",
"i  c #44635A",
"p  c #42665D",
"a  c #45665C",
"s  c #407065",
"d  c #417568",
"f  c #407E6F",
"g  c #4F7A6B",
"h  c #487B6D",
"j  c #407E70",
"k  c #41806F",
"l  c #458876",
"z  c #448978",
"x  c #4A917B",
"c  c #49917C",
"v  c #4A947E",
"b  c #4F967F",
"n  c #499481",
"m  c #4F9680",
"M  c #4A9786",
"N  c #4E9A81",
"B  c #4C9982",
"V  c #4E9D83",
"C  c #4C9A84",
"Z  c #4F9E84",
"A  c #49998D",
"S  c #4E9F8C",
"D  c #509F85",
"F  c #51A085",
"G  c #56A488",
"H  c #59A288",
"J  c #57AE8F",
"K  c #58A98B",
"L  c #5AAC8D",
"P  c #4DA398",
"I  c #4CA29D",
"U  c #55AD94",
"Y  c #52AD9D",
"T  c #5EB493",
"R  c #5FB794",
"E  c #56B29F",
"W  c #5FBE99",
"Q  c #65A98C",
"!  c #60B090",
"~  c #67B291",
"^  c #62B794",
"/  c #6AB394",
"(  c #6AB595",
")  c #6FB696",
"_  c #67BE9A",
"`  c #6DBB99",
"'  c #499BA4",
"]  c #4A9FA8",
"[  c #53AFA0",
"{  c #52AFA6",
"}  c #56B3A0",
"|  c #53B3AC",
" . c #50ACB1",
".. c #67C79F",
"X. c #69CAA2",
"o. c #76CEA6",
"O. c #98CAA0",
"+. c #83D1A9",
"@. c #8BD9AF",
"#. c #93D7AB",
"$. c #ABDEAC",
"%. c #ADDDAC",
"&. c #B3DEAB",
"*. c #85E1B2",
"=. c #8EEABA",
"-. c #91EBBB",
";. c #97EDBB",
":. c #99EEBB",
">. c #9FF0BE",
",. c #A4EEB8",
"<. c #A7F7C2",
"1. c #ABF8C3",
"2. c #BBFCC2",
"3. c #C3FDC2",
"4. c #C8FFC3",
/* pixels */
"                                                                                                                                ",
"                                                                                                                                ",
"                                                                                                                                ",
"                                                                                                                                ",
"                                                                                                                                ",
"                                                                                                                                ",
"                                                                                                                                ",
"                                                                                                                                ",
"                                                                                                                                ",
"                                                                                                                                ",
"                                                                                                                                ",
"                                                                                                                                ",
"                                                                                                                                ",
"                                                                                                                                ",
"                                                                                                                                ",
"                                                                                                                                ",
"                                                                                                                                ",
"                                                                                                                                ",
"                                                                                                                                ",
"                                                                                                                                ",
"                                                                                                                                ",
"                                                                                                                                ",
"                                                                                                                                ",
"                                                                                                                                ",
"                                                                                                                                ",
"                                                                                                                                ",
"                                                              2                                                                 ",
"                                        2 :                 h Q 3                     2 :                                       ",
"                                      2 ( G %             2 ` ^ ;                   2 ( G %                                     ",
"                                      ; K D #             : K Z #                   : G b #                                     ",
"                                        1 j #               8 j #                     % #                                       ",
"                                          @                   @       :                                                         ",
"                                                                    # k #         2 :         2 :                               ",
"                              2 ;               2 ;         i a a a p s 3 -     d ` G %     d ` G %                             ",
"                            2 ( K 1           > / ! 1 O > g O.$.&.&.%.#.+.~ 1 % F R x @   # b T v #                             ",
"                            : G D f @       + < H o.m 4 ) @.>.1.3.4.4.2.<.,.~ w l r , % # X # ; #                               ",
"                              % # #     7 9 n V t b N t _ =.-.-.;.:.:.;.-.;.*.L y N n S P 0 X                                   ",
"                                      6 ' I Y } M e w c J ..X.X.X.X.X.X.X.X.X.W F U E [ | ] 5                                   ",
"                                        5 = u  .{ A z c v n N N N N N N N N N N C [  .q * 5                                     ",
"                                              5 & & @ @ @ @ @ @ @ @ @ O @ @ @ @ @ & 5                                           ",
"                                                .                                 .                                             ",
"                                                                                                                                ",
"                                                                                                                                ",
"                                                                                                                                ",
"                                                                                                                                ",
"                                                                                                                                ",
"                                                                                                                                ",
"                                                                                                                                ",
"                                                                                                                                ",
"                                                                                                                                ",
"                                                                                                                                ",
"                                                                                                                                ",
"                                                                                                                                ",
"                                                                                                                                ",
"                                                                                                                                ",
"                                                                                                                                ",
"                                                                                                                                ",
"                                                                                                                                ",
"                                                                                                                                ",
"                                                                                                                                ",
"                                                                                                                                ",
"                                                                                                                                ",
"                                                                                                                                ",
"                                                                                                                                "
};
