/* XPM */
static char *dying_left1[] = {
/* columns rows colors chars-per-pixel */
"64 64 123 2 ",
"   c None",
".  c #24333D",
"X  c #253440",
"o  c #284A4B",
"O  c #2A4D4D",
"+  c #2C504F",
"@  c #2C5352",
"#  c #2D5452",
"$  c #2E5656",
"%  c #2F5955",
"&  c #2E5659",
"*  c #2F5C5B",
"=  c #2F5B5C",
"-  c #2F585F",
";  c #2F5C5C",
":  c #305A56",
">  c #315C57",
",  c #315D58",
"<  c #355E58",
"1  c #305D5E",
"2  c #3E5A5C",
"3  c #33615C",
"4  c #34645F",
"5  c #38625B",
"6  c #2F5A60",
"7  c #305C62",
"8  c #305F64",
"9  c #356764",
"0  c #376B62",
"q  c #386D62",
"w  c #3A726A",
"e  c #376F72",
"r  c #386E78",
"t  c #387072",
"y  c #41635B",
"u  c #416462",
"i  c #456D62",
"p  c #416E67",
"a  c #427468",
"s  c #47776A",
"d  c #48786B",
"f  c #418173",
"g  c #458978",
"h  c #49937E",
"j  c #4E9780",
"k  c #4B9784",
"l  c #4D9A82",
"z  c #4D9B87",
"x  c #4D9C87",
"c  c #4A998D",
"v  c #579783",
"b  c #519C83",
"n  c #4B9E92",
"m  c #4C9D90",
"M  c #52A186",
"N  c #51A28A",
"B  c #51A48B",
"V  c #52A78F",
"C  c #58A78A",
"Z  c #5DA689",
"A  c #53A88C",
"S  c #54AA8E",
"D  c #56AE8F",
"F  c #53AA92",
"G  c #54AA93",
"H  c #57AF90",
"J  c #53AA95",
"K  c #50A899",
"L  c #55AF9B",
"P  c #51AB9E",
"I  c #51AC9E",
"U  c #5AB693",
"Y  c #5EB694",
"T  c #5CBA97",
"R  c #5EBC97",
"E  c #5EBF99",
"W  c #65BA98",
"Q  c #61BE99",
"!  c #68BE99",
"~  c #73BF9D",
"^  c #53AFA2",
"/  c #52AFA7",
"(  c #54B5AD",
")  c #51AFB6",
"_  c #56BAB3",
"`  c #59BFB3",
"'  c #51B1B9",
"]  c #5FC09A",
"[  c #60C39C",
"{  c #63C99F",
"}  c #74C19E",
"|  c #79C29F",
" . c #5AC1B1",
".. c #63CAA0",
"X. c #67CBA1",
"o. c #6BCEA3",
"O. c #6ACFA4",
"+. c #7DC8A2",
"@. c #7DC9A4",
"#. c #6CD2A6",
"$. c #70D2A7",
"%. c #71D4A8",
"&. c #5DCCC6",
"*. c #84C099",
"=. c #89CDA7",
"-. c #80CFA8",
";. c #80D9AE",
":. c #8BDBB1",
">. c #8FDDB1",
",. c #89E5B6",
"<. c #8CE7B8",
"1. c #8EEAB9",
"2. c #90EABB",
"3. c #97EFBF",
"4. c #9AF1BF",
"5. c #9EF1BF",
"6. c #A5F3BF",
"7. c #A5F4BF",
"8. c #A1F5C1",
"9. c #A8F7C1",
"0. c #B9FAC0",
"q. c #BDFFC5",
"w. c #C1FDC1",
/* pixels */
"                                                                                                                                ",
"                                                                                                                                ",
"                                                                                                                                ",
"                                                                                                                                ",
"                                                                                                                                ",
"                                                                                                                                ",
"                                                                                                                                ",
"                                                                                                                                ",
"                                                                                                                                ",
"                                                                                                                                ",
"                                                                                                                                ",
"                                                                                                                                ",
"                                                                                                                                ",
"                                                                                                                                ",
"                                                                                                                                ",
"                                                                                                                                ",
"                                                                                                                                ",
"                                                                                                                                ",
"                                                                                                                                ",
"                                                                                                                                ",
"                                                                                                                                ",
"                                                                                                                                ",
"                                                          5 5 > : #     y <                                                     ",
"                                                        d | -.W D h , i *.Z %                                                   ",
"                                                      s +.5.8.1.%.] x b ! j #                                                   ",
"                                                    d +.6.w.0.5.,.O.] H x w                                                     ",
"                                                  5 | 7.w.w.7.4.2.#.{ E G c %                                                   ",
"                                                  a >.q.w.9.4.3.,.O.{ [ S z 0                                                   ",
"                                                % C @.=.=.:.3.<.$.X.{ [ S V n *                                                 ",
"                                                , M p 2 u v ;.%.{ { { [ S G P 1                                                 ",
"                                                > D Y ~ } Q X.X.{ { ..E A F P ;                                                 ",
"                                                % M R o.#.X.{ { { { ] D B L / 1                                                 ",
"                                                o % q U ..{ { { { ] D N V ` ' 8                                                 ",
"                                                O 3 0 U X.{ { { ] D N N F ^ t                                                   ",
"                                                @ f l T [ [ [ E D N N N L / -                                                   ",
"                                                  4 x S S S S S B N N J ` ) 7                                                   ",
"                                                  $ c J B N N N N N J  ._ e                                                     ",
"                                                    9 m V B V F G L  .&.' 6                                                     ",
"                                                      3 g h k K P I ( ' r                                                       ",
"                                                        + @ @ $ $ $ & -                                                         ",
"                                                          X         .                                                           ",
"                                                                                                                                ",
"                                                                                                                                ",
"                                                                                                                                ",
"                                                                                                                                ",
"                                                                                                                                ",
"                                                                                                                                ",
"                                                                                                                                ",
"                                                                                                                                ",
"                                                                                                                                ",
"                                                                                                                                ",
"                                                                                                                                ",
"                                                                                                                                ",
"                                                                                                                                ",
"                                                                                                                                ",
"                                                                                                                                ",
"                                                                                                                                ",
"                                                                                                                                ",
"                                                                                                                                ",
"                                                                                                                                ",
"                                                                                                                                ",
"                                                                                                                                ",
"                                                                                                                                ",
"                                                                                                                                "
};
