/* XPM */
static char *dying_down9[] = {
/* columns rows colors chars-per-pixel */
"64 64 80 1 ",
"  c None",
". c #24333E",
"X c #29424C",
"o c #2D5050",
"O c #2D5151",
"+ c #2D5452",
"@ c #2E5557",
"# c #2E5856",
"$ c #2F5758",
"% c #2F575E",
"& c #2F585B",
"* c #2F585E",
"= c #2F5C5D",
"- c #305B56",
"; c #305C57",
": c #325E58",
"> c #305C5D",
", c #33625C",
"< c #39625C",
"1 c #3A635C",
"2 c #3B645D",
"3 c #3C645C",
"4 c #3E645C",
"5 c #305960",
"6 c #305D63",
"7 c #366A6F",
"8 c #366B70",
"9 c #43655C",
"0 c #45665C",
"q c #468B78",
"w c #4A947F",
"e c #4B9683",
"r c #4D9982",
"t c #4F9E85",
"y c #53A68B",
"u c #55AB8F",
"i c #56AE8E",
"p c #4FA392",
"a c #4CA19A",
"s c #4FA799",
"d c #54AA90",
"f c #56AE90",
"g c #51AB9F",
"h c #56B095",
"j c #58B290",
"k c #5EB694",
"l c #5CBB97",
"z c #57B299",
"x c #55B09E",
"c c #58B69E",
"v c #5EBF99",
"b c #52B0A7",
"n c #53B1A9",
"m c #54B4AB",
"M c #50ABB1",
"N c #50ACB2",
"B c #51B0B6",
"V c #56B9B0",
"C c #5FC09A",
"Z c #60C39B",
"A c #60C39C",
"S c #63C69E",
"D c #5AC0B3",
"F c #6ACBA2",
"G c #76C8A2",
"H c #7ECEA6",
"J c #6BD0A5",
"K c #74D6AA",
"L c #74D8AB",
"P c #83D2AA",
"I c #8BD5AB",
"U c #92D6AB",
"Y c #9DDAAB",
"T c #A4DBAC",
"R c #ABDDAC",
"E c #8CEAB9",
"W c #92EDBC",
"Q c #94EFBD",
"! c #9AEFBD",
"~ c #9CF0BD",
/* pixels */
"                                                                ",
"                                                                ",
"                                                                ",
"                                                                ",
"                                                                ",
"                                                                ",
"                                                                ",
"                                                                ",
"                                                                ",
"                                                                ",
"                                                                ",
"                                                                ",
"                                                                ",
"                                                                ",
"                                                                ",
"                                                                ",
"                                                                ",
"                                                                ",
"                                                                ",
"                                                                ",
"                                                                ",
"                                                                ",
"                                                                ",
"                                                                ",
"                                                                ",
"                                                                ",
"                                                                ",
"                                                                ",
"                                                                ",
"                                                                ",
"                                                                ",
"                                                                ",
"                                                                ",
"                                                                ",
"                   ++++-:121390933939311:;-++++                 ",
"                 #,qrrtilGHPITRTIIYUYIHGkjitrrq,#               ",
"                =apdlvvZSFKEQ!~!WW!Q!ELJSSAvvlypa>              ",
"                6NVDchhhufCFFFFFFFFFFFSvfihhhzxmN6              ",
"                 %8BnggsewrrrrrrrrrrrrrrwesggbM7*               ",
"                  X5&$$@OOOOOOOOOOOOOOOOOO@$$&5X                ",
"                    .                        .                  ",
"                                                                ",
"                                                                ",
"                                                                ",
"                                                                ",
"                                                                ",
"                                                                ",
"                                                                ",
"                                                                ",
"                                                                ",
"                                                                ",
"                                                                ",
"                                                                ",
"                                                                ",
"                                                                ",
"                                                                ",
"                                                                ",
"                                                                ",
"                                                                ",
"                                                                ",
"                                                                ",
"                                                                ",
"                                                                ",
"                                                                "
};
