/* XPM */
static char *dying_down1[] = {
/* columns rows colors chars-per-pixel */
"64 64 198 2 ",
"   c None",
".  c #24323E",
"X  c #24333F",
"o  c #2E4E53",
"O  c #2D5451",
"+  c #2E5653",
"@  c #2D5654",
"#  c #2E5755",
"$  c #2E5557",
"%  c #2E5757",
"&  c #2F5A56",
"*  c #2E5658",
"=  c #2F5659",
"-  c #2F565A",
";  c #2F5858",
":  c #2F5B5B",
">  c #2F5B5C",
",  c #2F585F",
"<  c #2F5C5C",
"1  c #305A56",
"2  c #305B56",
"3  c #305B57",
"4  c #305C57",
"5  c #315C57",
"6  c #385558",
"7  c #32585A",
"8  c #305C5C",
"9  c #305D5E",
"0  c #3A5E5E",
"q  c #33605B",
"w  c #33615B",
"e  c #34625C",
"r  c #38625C",
"t  c #3B635D",
"y  c #2F5860",
"u  c #2F5960",
"i  c #2F5A60",
"p  c #2F5B62",
"a  c #305C63",
"s  c #305F65",
"d  c #356662",
"f  c #366762",
"g  c #376960",
"h  c #386B62",
"j  c #386C62",
"k  c #386D63",
"l  c #396D63",
"z  c #366968",
"x  c #366A69",
"c  c #3C756A",
"v  c #376E72",
"b  c #376F72",
"n  c #386F70",
"m  c #446E68",
"M  c #4E756E",
"N  c #468A77",
"B  c #468B78",
"V  c #478A79",
"C  c #488E7B",
"Z  c #498E7B",
"A  c #4B957F",
"S  c #4B9681",
"D  c #4B9784",
"F  c #4D9A84",
"G  c #4D9B84",
"H  c #4D9B87",
"J  c #4E9D85",
"K  c #4A998D",
"L  c #4A9A8D",
"P  c #4C9E92",
"I  c #50A087",
"U  c #51A38A",
"Y  c #52A588",
"T  c #51A48A",
"R  c #51A48B",
"E  c #52A68C",
"W  c #52A68D",
"Q  c #54A88B",
"!  c #54A88D",
"~  c #55AB8C",
"^  c #55AA8D",
"/  c #55AB8D",
"(  c #54A98E",
")  c #55AA8E",
"_  c #56AC8D",
"`  c #56AD8E",
"'  c #56AD8F",
"]  c #56AE8F",
"[  c #57AF8F",
"{  c #59A98C",
"}  c #5AAC8E",
"|  c #52A790",
" . c #53A991",
".. c #53AA92",
"X. c #55AB91",
"o. c #54AB93",
"O. c #57AF90",
"+. c #53AA94",
"@. c #53AB95",
"#. c #54AD95",
"$. c #5EAF90",
"%. c #50A99C",
"&. c #50AA9C",
"*. c #51AB9C",
"=. c #51AB9D",
"-. c #51AB9E",
";. c #51AC9F",
":. c #54AF9D",
">. c #57B090",
",. c #56B096",
"<. c #57B096",
"1. c #59B291",
"2. c #5AB594",
"3. c #5AB695",
"4. c #5BB894",
"5. c #5BB895",
"6. c #5CB895",
"7. c #5CBA96",
"8. c #5DBC97",
"9. c #56B19B",
"0. c #55B19C",
"q. c #56B19C",
"w. c #5EBF99",
"e. c #62B192",
"r. c #61B392",
"t. c #61BB98",
"y. c #65BA98",
"u. c #63BC99",
"i. c #52AEA6",
"p. c #52B0A7",
"a. c #53B1A7",
"s. c #53B1A8",
"d. c #4FAAB2",
"f. c #4FABB2",
"g. c #50ACB2",
"h. c #51AFB6",
"j. c #51B0B6",
"k. c #56BAB2",
"l. c #5FC19A",
"z. c #5FC19B",
"x. c #60C29B",
"c. c #60C39B",
"v. c #60C39C",
"b. c #64C29C",
"n. c #61C49C",
"m. c #63C99F",
"M. c #5AC0B3",
"N. c #5AC2B2",
"B. c #64CBA0",
"V. c #64CCA1",
"C. c #65CDA2",
"Z. c #66CEA2",
"A. c #6ACDA3",
"S. c #6ACEA3",
"D. c #6CCFA4",
"F. c #76C5A1",
"G. c #7CC7A3",
"H. c #6DD1A5",
"J. c #6ED0A5",
"K. c #6CD2A5",
"L. c #71D5A8",
"P. c #82C9A6",
"I. c #80CCA6",
"U. c #81CFA7",
"Y. c #80CFA8",
"T. c #84CFA9",
"R. c #84D5AC",
"E. c #8CD5AB",
"W. c #8BDAB0",
"Q. c #88E2B4",
"!. c #89E5B6",
"~. c #8AE6B7",
"^. c #8CE7B7",
"/. c #8BE8B8",
"(. c #8DEAB9",
"). c #91EABB",
"_. c #95EABB",
"`. c #96EBBC",
"'. c #91EDBC",
"]. c #92EEBD",
"[. c #97F0BF",
"{. c #98F0BF",
"}. c #99F0BF",
"|. c #98F1BF",
" X c #9FF2BF",
".X c #A5F3BF",
"XX c #99F1C0",
"oX c #99F2C0",
"OX c #9DF4C2",
"+X c #A0F3C0",
"@X c #A1F3C0",
"#X c #A0F4C1",
"$X c #A1F5C1",
"%X c #A8F6C1",
"&X c #B9FAC0",
"*X c #BFFBC0",
"=X c #BBFCC2",
"-X c #C0FBC0",
/* pixels */
"                                                                                                                                ",
"                                                                                                                                ",
"                                                                                                                                ",
"                                                                                                                                ",
"                                                                                                                                ",
"                                                                                                                                ",
"                                                                                                                                ",
"                                                                                                                                ",
"                                                                                                                                ",
"                                                                                                                                ",
"                                                                                                                                ",
"                                                                                                                                ",
"                                                                                                                                ",
"                                                                                                                                ",
"                                                                                                                                ",
"                                                                                                                                ",
"                                                                                                                                ",
"                                                                                                                                ",
"                                                                                                                                ",
"                                                                                                                                ",
"                                                                                                                                ",
"                                                                                                                                ",
"                                                          3 r r r 5 & + +                                                       ",
"                                                        j $.Y.E.U.y.' J B w                                                     ",
"                                                      j r.^.%X=X#X(.L.c.~ C f                                                   ",
"                                                    # { !.+X-X*X X[.!.A.w.o.L :                                                 ",
"                                                    h u.'.+X&X.X}.oX).J.c.~ G f                                                 ",
"                                                  3 Y D.'.OX#X}.}.oX/.J.n.' | P :                                               ",
"                                                  5 >.b.G.P.T._.`.P.r.' 4.8.,.-.8                                               ",
"                                                  5 Q Z 0 6 M W.R.m o 7 B 3.,.-.8                                               ",
"                                                  3 ~ 7.~ } F.Q.J.} Q ~ O.~ o.-.<                                               ",
"                                                  + J v.Z.Z.A.t.7.m.Z.c.O.U @.i.8                                               ",
"                                                  + B ~ l.B.4.j g 1.l.' U Y :.g.s                                               ",
"                                                    w A O.l.3.c e G ~ U U ..-.n                                                 ",
"                                                    # D W ~ W G S J U U U q.s.,                                                 ",
"                                                    # L @.U U U Y U U Y #.M.h.a                                                 ",
"                                                      x a.9.Y U U U U #.M.k.v                                                   ",
"                                                      p d.a.@.o.....q.M.k.d.p                                                   ",
"                                                        p x P ;.-.-.s.j.v ,                                                     ",
"                                                            # * * * * p                                                         ",
"                                                              X     X                                                           ",
"                                                                                                                                ",
"                                                                                                                                ",
"                                                                                                                                ",
"                                                                                                                                ",
"                                                                                                                                ",
"                                                                                                                                ",
"                                                                                                                                ",
"                                                                                                                                ",
"                                                                                                                                ",
"                                                                                                                                ",
"                                                                                                                                ",
"                                                                                                                                ",
"                                                                                                                                ",
"                                                                                                                                ",
"                                                                                                                                ",
"                                                                                                                                ",
"                                                                                                                                ",
"                                                                                                                                ",
"                                                                                                                                ",
"                                                                                                                                ",
"                                                                                                                                ",
"                                                                                                                                ",
"                                                                                                                                "
};
