/* XPM */
static char *dying_right1[] = {
/* columns rows colors chars-per-pixel */
"64 64 129 2 ",
"   c None",
".  c #24333D",
"X  c #253440",
"o  c #284A4B",
"O  c #2A4D4D",
"+  c #2C4F4F",
"@  c #2D5251",
"#  c #2D5552",
"$  c #2E5557",
"%  c #2F5955",
"&  c #2E5659",
"*  c #2F5B5B",
"=  c #2F5C5B",
"-  c #305A56",
";  c #305C57",
":  c #325E59",
">  c #355E58",
",  c #305C5C",
"<  c #3E5A5C",
"1  c #33605B",
"2  c #33625E",
"3  c #34635D",
"4  c #38605A",
"5  c #2F5A60",
"6  c #305B62",
"7  c #305F64",
"8  c #356764",
"9  c #366861",
"0  c #386C62",
"q  c #3A726A",
"w  c #376F72",
"e  c #386E78",
"r  c #387172",
"t  c #41635B",
"y  c #416462",
"u  c #456D62",
"i  c #416E67",
"p  c #427468",
"a  c #47776A",
"s  c #48786B",
"d  c #418172",
"f  c #458978",
"g  c #4A937D",
"h  c #4E967F",
"j  c #4B9784",
"k  c #4D9A82",
"l  c #4D9B87",
"z  c #4E9D86",
"x  c #4A998C",
"c  c #579783",
"v  c #519C83",
"b  c #4C9F92",
"n  c #52A086",
"m  c #51A38A",
"M  c #51A48A",
"N  c #57A68A",
"B  c #52A68E",
"V  c #5DA689",
"C  c #53A88C",
"Z  c #55AB8F",
"A  c #56AD8F",
"S  c #53AA92",
"D  c #54AA90",
"F  c #57AF90",
"G  c #53AA94",
"H  c #50A899",
"J  c #54AE98",
"K  c #50A99C",
"L  c #51AC9E",
"P  c #59B493",
"I  c #5EB694",
"U  c #5CBA97",
"Y  c #55B09B",
"T  c #5EBF99",
"R  c #65BA98",
"E  c #61BE99",
"W  c #67BD99",
"Q  c #73BF9D",
"!  c #53AFA2",
"~  c #52B0A7",
"^  c #54B5AD",
"/  c #51AFB6",
"(  c #56BAB3",
")  c #59BEB2",
"_  c #51B1B8",
"`  c #5FC09A",
"'  c #60C39C",
"]  c #61C49D",
"[  c #62C89E",
"{  c #63CA9F",
"}  c #74C19E",
"|  c #7AC29F",
" . c #5AC0AF",
".. c #5AC0B0",
"X. c #63CAA0",
"o. c #64CAA0",
"O. c #64CCA1",
"+. c #6ACFA4",
"@. c #6BCFA4",
"#. c #7DC7A2",
"$. c #7DC8A3",
"%. c #7EC9A4",
"&. c #6DD0A5",
"*. c #70D2A7",
"=. c #71D4A8",
"-. c #5DCCC6",
";. c #84C099",
":. c #89CCA6",
">. c #80CFA8",
",. c #80D9AE",
"<. c #8BDAB0",
"1. c #90DEB1",
"2. c #89E5B6",
"3. c #8BE7B8",
"4. c #8EEAB9",
"5. c #90EABB",
"6. c #94ECBC",
"7. c #97F0BF",
"8. c #99F0BF",
"9. c #9DF2BF",
"0. c #A5F3BE",
"q. c #A5F3BF",
"w. c #9AF1C0",
"e. c #A1F5C1",
"r. c #A8F6C1",
"t. c #B7F9C0",
"y. c #BDFFC4",
"u. c #C2FBC0",
"i. c #C0FCC0",
/* pixels */
"                                                                                                                                ",
"                                                                                                                                ",
"                                                                                                                                ",
"                                                                                                                                ",
"                                                                                                                                ",
"                                                                                                                                ",
"                                                                                                                                ",
"                                                                                                                                ",
"                                                                                                                                ",
"                                                                                                                                ",
"                                                                                                                                ",
"                                                                                                                                ",
"                                                                                                                                ",
"                                                                                                                                ",
"                                                                                                                                ",
"                                                                                                                                ",
"                                                                                                                                ",
"                                                                                                                                ",
"                                                                                                                                ",
"                                                                                                                                ",
"                                                                                                                                ",
"                                                                                                                                ",
"                                                      > t     # - ; 4 4                                                         ",
"                                                    % V ;.u : g A R >.| s                                                       ",
"                                                    # h W v z ` =.4.e.9.$.a                                                     ",
"                                                      q z F ` +.2.9.t.i.q.#.s                                                   ",
"                                                    % x D T [ &.5.w.q.u.i.q.| 4                                                 ",
"                                                    9 l Z ' [ +.2.7.8.r.i.y.1.p                                                 ",
"                                                  = b B Z ' [ o.*.3.6.<.:.:.%.N %                                               ",
"                                                  , L D Z ' [ [ [ =.,.c y < i n :                                               ",
"                                                  , K D C T [ [ [ o.o.E } Q I A ;                                               ",
"                                                  , ~ Y M A ` [ [ [ [ o.&.+.U z $                                               ",
"                                                  7 _ ) B m A ` [ [ [ [ X.P 0 % o                                               ",
"                                                    r ! S m m A ` [ X.[ O.P 9 1 O                                               ",
"                                                    * ~ Y m m m A T ' ' ] U k d @                                               ",
"                                                    6 / ) G m m M Z Z Z Z Z z 3                                                 ",
"                                                      w (  .G m m m m m M G x $                                                 ",
"                                                      5 _ -...J D S B m B b 8                                                   ",
"                                                        e _ ^ L L H j g f 2                                                     ",
"                                                          5 & $ & $ @ @ +                                                       ",
"                                                            .         X                                                         ",
"                                                                                                                                ",
"                                                                                                                                ",
"                                                                                                                                ",
"                                                                                                                                ",
"                                                                                                                                ",
"                                                                                                                                ",
"                                                                                                                                ",
"                                                                                                                                ",
"                                                                                                                                ",
"                                                                                                                                ",
"                                                                                                                                ",
"                                                                                                                                ",
"                                                                                                                                ",
"                                                                                                                                ",
"                                                                                                                                ",
"                                                                                                                                ",
"                                                                                                                                ",
"                                                                                                                                ",
"                                                                                                                                ",
"                                                                                                                                ",
"                                                                                                                                ",
"                                                                                                                                ",
"                                                                                                                                "
};
