/* XPM */
static char *dying_up3[] = {
/* columns rows colors chars-per-pixel */
"64 64 170 2 ",
"   c None",
".  c #5C2639",
"X  c #5C2739",
"o  c #682B3E",
"O  c #712C3C",
"+  c #7F2E3D",
"@  c #7F2F3E",
"#  c #7F303E",
"$  c #7F303F",
"%  c #7E3243",
"&  c #7D3244",
"*  c #7E3244",
"=  c #7F3244",
"-  c #892F3E",
";  c #8A313F",
":  c #8A323F",
">  c #803140",
",  c #803141",
"<  c #843244",
"1  c #8A3240",
"2  c #8B3341",
"3  c #8C3441",
"4  c #8D3441",
"5  c #8E3440",
"6  c #8E3441",
"7  c #8F3541",
"8  c #8C3643",
"9  c #8C3744",
"0  c #883A45",
"q  c #893A46",
"w  c #8D3844",
"e  c #8D3945",
"r  c #8F3944",
"t  c #8D3847",
"y  c #8E3B46",
"u  c #8F3B46",
"i  c #863949",
"p  c #843A4A",
"a  c #903541",
"s  c #913641",
"d  c #903B46",
"f  c #913C47",
"g  c #953D46",
"h  c #913E48",
"j  c #983F48",
"k  c #914049",
"l  c #92424B",
"z  c #93464F",
"x  c #94454E",
"c  c #98434B",
"v  c #934651",
"b  c #944850",
"n  c #954850",
"m  c #944950",
"M  c #954950",
"N  c #954A50",
"B  c #954A51",
"V  c #964A50",
"C  c #974A50",
"Z  c #944952",
"A  c #964A52",
"S  c #964B52",
"D  c #974B52",
"F  c #974C52",
"G  c #974D52",
"H  c #974E53",
"J  c #964B54",
"K  c #944B57",
"L  c #974F55",
"P  c #974E57",
"I  c #994C52",
"U  c #984F54",
"Y  c #994F54",
"T  c #974F58",
"R  c #934D5F",
"E  c #995055",
"W  c #995155",
"Q  c #985056",
"!  c #985057",
"~  c #995157",
"^  c #9A5156",
"/  c #995256",
"(  c #995257",
")  c #9A5256",
"_  c #9A5357",
"`  c #9C5256",
"'  c #9C5357",
"]  c #9A5457",
"[  c #97505A",
"{  c #985059",
"}  c #995258",
"|  c #995359",
" . c #9A5358",
".. c #98515B",
"X. c #99535A",
"o. c #9A5458",
"O. c #9B5659",
"+. c #9A555A",
"@. c #9A555B",
"#. c #9B565A",
"$. c #9E5458",
"%. c #9E5658",
"&. c #9F5659",
"*. c #9F5759",
"=. c #9D565A",
"-. c #9C575A",
";. c #9D575A",
":. c #98525C",
">. c #98525D",
",. c #98535F",
"<. c #99555C",
"1. c #9A555C",
"2. c #9B565C",
"3. c #99545E",
"4. c #9A565E",
"5. c #9A575E",
"6. c #9C585A",
"7. c #9D585A",
"8. c #9D595A",
"9. c #9F585B",
"0. c #9E5A5B",
"q. c #9E5B5B",
"w. c #9F5B5B",
"e. c #9F5C5B",
"r. c #A05457",
"t. c #AC5556",
"y. c #A15658",
"u. c #A7595B",
"i. c #A05B5C",
"p. c #A15D5C",
"a. c #A15E5D",
"s. c #A25E5D",
"d. c #A25F5D",
"f. c #A35F5E",
"g. c #A55C5D",
"h. c #A55D5E",
"j. c #AB5C5C",
"k. c #AC5C5C",
"l. c #B15E5D",
"z. c #B55F5C",
"x. c #A3605E",
"c. c #A4605F",
"v. c #A5615F",
"b. c #AC605F",
"n. c #965363",
"m. c #985460",
"M. c #9A5760",
"N. c #9A5860",
"B. c #9A5963",
"V. c #9A5B6A",
"C. c #AB6261",
"Z. c #AC6362",
"A. c #AB6563",
"S. c #AD6663",
"D. c #AC6764",
"F. c #AE6865",
"G. c #AE6965",
"H. c #AF6966",
"J. c #B16966",
"K. c #B06A67",
"L. c #B06B67",
"P. c #B16B67",
"I. c #B26B67",
"U. c #B26C68",
"Y. c #B46D69",
"T. c #B76E6A",
"R. c #BA6F6A",
"E. c #C16F67",
"W. c #C1716A",
"Q. c #C47269",
/* pixels */
"                                                                                                                                ",
"                                                                                                                                ",
"                                                                                                                                ",
"                                                                                                                                ",
"                                                                                                                                ",
"                                                                                                                                ",
"                                                                                                                                ",
"                                                                                                                                ",
"                                                                                                                                ",
"                                                                                                                                ",
"                                                                                                                                ",
"                                                                                                                                ",
"                                                                                                                                ",
"                                                                                                                                ",
"                                                                                                                                ",
"                                                                                                                                ",
"                                                                                                                                ",
"                                                                                                                                ",
"                                                  :                                                                             ",
"                                                : l :                                                                           ",
"                                                  :                                                                             ",
"                                                                                                                                ",
"                                                                                                                                ",
"                                                              6 a                                                               ",
"                                                            d k.z.j                                                             ",
"                                                          e y.E.Q.j.6                                                           ",
"                                                        : ^ J.W.R.C.e   a                                                       ",
"                                                        : *.U.T.I.p.n c t.a                                                     ",
"                                                        e *.F.T.J.p.w.Z.b.6                                                     ",
"                                                      2 H o.f.J.J.v.A.F.*.2                                                     ",
"                                                    : e ^ ^ p.F.J.x.p.i.n -   a 6                                               ",
"                                                  2 n z L ^ w.v.D.p.w.Y h   g l.u.6                                             ",
"                                                  : H o.<.| w.e.p.w.^ ^ y.f ' D.*.2                                             ",
"                                                6 l n ^ B.| ^ w.w.w.^ | *.x | H 6                                               ",
"                                              : I f.n v V.B.| w.w.^ ^ w.w.Q n e                                                 ",
"                                                0 ' f.*.<.N.| ^ o.^ ^ o.o.| n H 9                                               ",
"                                                O 0 Y w.*.o.<.Y ^ Y Y | <.| o.w.n e                                             ",
"                                                p K n ^ o.w.| ^ ^ ^ | m.<.| o.<.<.R <                                           ",
"                                              & R m.[ T n n n L J T :.>.| | :.n.p %                                             ",
"                                                & , , , @ @ # , # % , , , - , & o                                               ",
"                                                  .                         .                                                   ",
"                                                                                                                                ",
"                                                                                                                                ",
"                                                                                                                                ",
"                                                                                                                                ",
"                                                                                                                                ",
"                                                                                                                                ",
"                                                                                                                                ",
"                                                                                                                                ",
"                                                                                                                                ",
"                                                                                                                                ",
"                                                                                                                                ",
"                                                                                                                                ",
"                                                                                                                                ",
"                                                                                                                                ",
"                                                                                                                                ",
"                                                                                                                                ",
"                                                                                                                                ",
"                                                                                                                                ",
"                                                                                                                                ",
"                                                                                                                                ",
"                                                                                                                                ",
"                                                                                                                                ",
"                                                                                                                                "
};
