/* XPM */
static char *dying_right6[] = {
/* columns rows colors chars-per-pixel */
"64 64 156 2 ",
"   c None",
".  c #24333E",
"X  c #244144",
"o  c #2C5050",
"O  c #2D5151",
"+  c #2C5250",
"@  c #2C5351",
"#  c #2D5451",
"$  c #2D5452",
"%  c #2E5452",
"&  c #2E5653",
"*  c #2E5654",
"=  c #2E5657",
"-  c #2F5955",
";  c #2F5A55",
":  c #2F5956",
">  c #2E5658",
",  c #2E575A",
"<  c #2F575A",
"1  c #2F585F",
"2  c #2F595F",
"3  c #305955",
"4  c #305B56",
"5  c #335E58",
"6  c #335F59",
"7  c #375F59",
"8  c #305D5C",
"9  c #305D5D",
"0  c #33625B",
"q  c #36645D",
"w  c #36665E",
"e  c #39625B",
"r  c #3A625B",
"t  c #3A635C",
"y  c #3A645C",
"u  c #3E645C",
"i  c #2F5960",
"p  c #2F5A61",
"a  c #305D63",
"s  c #3B7166",
"d  c #3F7166",
"f  c #3F7266",
"g  c #3F7B6C",
"h  c #3F7C6D",
"j  c #376D71",
"k  c #376E72",
"l  c #42635B",
"z  c #42655C",
"x  c #44655C",
"c  c #45665C",
"v  c #457367",
"b  c #407669",
"n  c #407D6E",
"m  c #4F7A6B",
"M  c #428272",
"N  c #448672",
"B  c #448675",
"V  c #468B78",
"C  c #4B8D79",
"Z  c #488F7B",
"A  c #4A907C",
"S  c #49927D",
"D  c #4A927E",
"F  c #4A937F",
"G  c #50967E",
"H  c #4B9783",
"J  c #4C9882",
"K  c #4C9983",
"L  c #4C9A83",
"P  c #4D9A83",
"I  c #4C9884",
"U  c #4F9E86",
"Y  c #519880",
"T  c #51A286",
"R  c #55A186",
"E  c #53A689",
"W  c #53A78A",
"Q  c #53A68B",
"!  c #57A589",
"~  c #53A88D",
"^  c #55AA8E",
"/  c #54AA8F",
"(  c #55AC8F",
")  c #4FA390",
"_  c #4FA391",
"`  c #4CA19A",
"'  c #56AE90",
"]  c #56AF91",
"[  c #56AE94",
"{  c #50A798",
"}  c #50A898",
"|  c #50AB9D",
" . c #51AB9D",
".. c #57B295",
"X. c #58B291",
"o. c #5EB794",
"O. c #5CBA97",
"+. c #5CBB97",
"@. c #56B198",
"#. c #55B19E",
"$. c #58B59D",
"%. c #5CBB98",
"&. c #5DBC98",
"*. c #5EBF9A",
"=. c #63A48A",
"-. c #64A88C",
";. c #66AF91",
":. c #72BE9B",
">. c #52AFA6",
",. c #52B0A8",
"<. c #55B4A9",
"1. c #55B8AF",
"2. c #4FACB3",
"3. c #50ABB1",
"4. c #50ACB2",
"5. c #51AFB7",
"6. c #59BFB2",
"7. c #5FC19A",
"8. c #5FC19B",
"9. c #61C69E",
"0. c #62C79E",
"q. c #67C9A0",
"w. c #68CAA1",
"e. c #68CAA2",
"r. c #69CBA2",
"t. c #6BCFA4",
"y. c #7BCDA5",
"u. c #71D5A8",
"i. c #72D5A9",
"p. c #80C5A0",
"a. c #94CAA0",
"s. c #90D6AB",
"d. c #93D8AC",
"f. c #9CD9AB",
"g. c #A1DBAB",
"h. c #A3DCAC",
"j. c #AADCAB",
"k. c #B0DDAB",
"l. c #B2DDAB",
"z. c #89E6B7",
"x. c #8AE6B7",
"c. c #8FEABA",
"v. c #90EABA",
"b. c #91EBBB",
"n. c #92EBBA",
"m. c #95E9B8",
"M. c #96ECBA",
"N. c #95EEBD",
"B. c #98EDBB",
"V. c #9FF5C2",
"C. c #A0F5C1",
"Z. c #A1F5C1",
"A. c #A2F6C2",
"S. c #AAF8C2",
"D. c #C3FEC3",
"F. c #CBFFC3",
/* pixels */
"                                                                                                                                ",
"                                                                                                                                ",
"                                                                                                                                ",
"                                                                                                                                ",
"                                                                                                                                ",
"                                                                                                                                ",
"                                                                                                                                ",
"                                                                                                                                ",
"                                                                                                                                ",
"                                                                                                                                ",
"                                                                                                                                ",
"                                                                                                                                ",
"                                                                                                                                ",
"                                                                                                                                ",
"                                                                                                                                ",
"                                                                                                                                ",
"                                                                                                                                ",
"                                                                                                                                ",
"                                                                                                                                ",
"                                                                                                                                ",
"                                                                                                                                ",
"                                                                                                                                ",
"                                                                                                                                ",
"                                                                                                                                ",
"                                                                                                                                ",
"                                                                  e                                                             ",
"                                        4                       y =.y                     e                                     ",
"                                      4 N 4                     5 G 5                   d -.y                                   ",
"                                        4                         :                   O B R 5                                   ",
"                                                                                        = :                                     ",
"                                                          X                                                                     ",
"                                4                                                                                               ",
"                              4 N 4       5 e                                     e                                             ",
"                                4       # Y ;.7     l u z u x x x x x x x e     d -.e               4                           ",
"                                      O # s Z w 4 m a.d.f.s.g.j.k.k.k.j.h.p.v # D ! w O #         4 N 4                         ",
"                                  : 0 V P Z h Q o.y.m.N.A.V.A.S.D.F.D.S.A.b.:.b M n D P V 0 :       4                           ",
"                                9 ` ) Q O.O.X.7.0.r.t.u.x.b.c.b.M.B.M.b.x.u.q.Q g T *.O.^ ) ` 9                                 ",
"                                a 2.<.#.@.....( ^ ' *.0.r.r.r.r.r.r.r.r.r.7.' ~ U [ ..$.6.1.4.a                                 ",
"                                  1 j 3.>. .{ H D D P P P P P P P P P P P P D D I }  .,.5.j 1                                   ",
"                                      p > > = O O O O O o o O o O O O O o O O O O = > > p                                       ",
"                                        .                                             .                                         ",
"                                                                                                                                ",
"                                                                                                                                ",
"                                                                                                                                ",
"                                                                                                                                ",
"                                                                                                                                ",
"                                                                                                                                ",
"                                                                                                                                ",
"                                                                                                                                ",
"                                                                                                                                ",
"                                                                                                                                ",
"                                                                                                                                ",
"                                                                                                                                ",
"                                                                                                                                ",
"                                                                                                                                ",
"                                                                                                                                ",
"                                                                                                                                ",
"                                                                                                                                ",
"                                                                                                                                ",
"                                                                                                                                ",
"                                                                                                                                ",
"                                                                                                                                ",
"                                                                                                                                ",
"                                                                                                                                "
};
