/* XPM */
static char *dying_left7[] = {
/* columns rows colors chars-per-pixel */
"64 64 80 1 ",
"  c None",
". c #24333E",
"X c #244144",
"o c #29424C",
"O c #2C5050",
"+ c #2D5151",
"@ c #2D5451",
"# c #2E5657",
"$ c #2F5956",
"% c #2E5759",
"& c #2E575E",
"* c #305B56",
"= c #305C56",
"- c #325D58",
"; c #305C5C",
": c #34615B",
"> c #34625C",
", c #39635C",
"< c #3B645D",
"1 c #3C645D",
"2 c #2F5960",
"3 c #305D63",
"4 c #366A6F",
"5 c #42655C",
"6 c #44665C",
"7 c #448672",
"8 c #468B78",
"9 c #4A947F",
"0 c #4B9783",
"q c #4C9983",
"w c #4E9E85",
"e c #53A78C",
"r c #55AB8F",
"t c #57AF8F",
"y c #4FA391",
"u c #4CA199",
"i c #54AA90",
"p c #56AF90",
"a c #50A798",
"s c #50AB9D",
"d c #51AC9E",
"f c #57B094",
"g c #59B392",
"h c #5FB794",
"j c #5CBA97",
"k c #56B198",
"l c #55B19E",
"z c #58B69E",
"x c #5CBA98",
"c c #5EBE99",
"v c #52AFA6",
"b c #53B1A8",
"n c #55B4AA",
"m c #4FABB2",
"M c #50ABB1",
"N c #51B0B7",
"B c #56B8B0",
"V c #5FC19B",
"C c #60C39B",
"Z c #60C39C",
"A c #63C69E",
"S c #5AC0B3",
"D c #69CBA2",
"F c #75C8A1",
"G c #76C8A1",
"H c #7ECEA6",
"J c #73D6AA",
"K c #74D8AB",
"L c #84D2AA",
"P c #8AD4AA",
"I c #8BD5AB",
"U c #92D6AB",
"Y c #9DDAAB",
"T c #A3DBAC",
"R c #ABDDAC",
"E c #8CEAB9",
"W c #92EDBC",
"Q c #94EFBD",
"! c #9AEFBD",
"~ c #9CF0BD",
/* pixels */
"                                                                ",
"                                                                ",
"                                                                ",
"                                                                ",
"                                                                ",
"                                                                ",
"                                                                ",
"                                                                ",
"                                                                ",
"                                                                ",
"                                                                ",
"                                                                ",
"                                                                ",
"                                                                ",
"                                                                ",
"                                                                ",
"                                                                ",
"                                                                ",
"                                                                ",
"                                                                ",
"                                                                ",
"                                                                ",
"                                                                ",
"                                                                ",
"                               *                                ",
"                  *           *7*                               ",
"                 *7*           *             X                  ",
"                  *                                             ",
"                                                                ",
"                                                                ",
"                                                                ",
"                       *                   *     X              ",
"                      =7=                 =7=                   ",
"             X         @                   @                    ",
"                   @@@@$-,1<16661151511,-=*+@@@                 ",
"                 $:8qqwthGHLITRTIIYUYIHGhgtwqq8>$               ",
"                ;uyixccCADJEQ!~!WW!Q!EKDAAZccjeyu;              ",
"                3mBSzfffrpVDDDDDDDDDDDAcptfffklnm3              ",
"                 &4Nbsda09qqqqqqqqqqqqqq90adsvM4&               ",
"                  o2%%%#++++++++++++++++++#%%%2o                ",
"                    .                        .                  ",
"                                                                ",
"                                                                ",
"                                                                ",
"                                                                ",
"                                                                ",
"                                                                ",
"                                                                ",
"                                                                ",
"                                                                ",
"                                                                ",
"                                                                ",
"                                                                ",
"                                                                ",
"                                                                ",
"                                                                ",
"                                                                ",
"                                                                ",
"                                                                ",
"                                                                ",
"                                                                ",
"                                                                ",
"                                                                ",
"                                                                "
};
