/* XPM */
static char *idling_left1[] = {
/* columns rows colors chars-per-pixel */
"64 64 125 2 ",
"   c None",
".  c #24333E",
"X  c #253641",
"o  c #243D43",
"O  c #253D44",
"+  c #333758",
"@  c #3B3E5C",
"#  c #3C3F5D",
"$  c #28474A",
"%  c #2C474F",
"&  c #2B4E4F",
"*  c #2F4F52",
"=  c #2F4C54",
"-  c #334E55",
";  c #2F5052",
":  c #2D5552",
">  c #2E5757",
",  c #2F5854",
"<  c #2E5658",
"1  c #2F5859",
"2  c #2F585F",
"3  c #305B56",
"4  c #315C57",
"5  c #3F575E",
"6  c #335E58",
"7  c #305D5C",
"8  c #385F5A",
"9  c #39625B",
"0  c #3B635D",
"q  c #305C62",
"w  c #346561",
"e  c #356765",
"r  c #376B64",
"t  c #366B68",
"y  c #376C6A",
"u  c #3F7B6D",
"i  c #376E70",
"p  c #386E78",
"a  c #405C63",
"s  c #496368",
"d  c #48786B",
"f  c #48786C",
"g  c #407E70",
"h  c #448672",
"j  c #468B7A",
"k  c #4C957E",
"l  c #71778D",
"z  c #458F85",
"x  c #4B9581",
"c  c #4D9880",
"v  c #4F9E85",
"b  c #4A9A8F",
"n  c #509F84",
"m  c #559D84",
"M  c #4B9F93",
"N  c #51A086",
"B  c #51A388",
"V  c #51A48A",
"C  c #57A689",
"Z  c #51A38C",
"A  c #53A88B",
"S  c #54A88B",
"D  c #54A98C",
"F  c #56AE8E",
"G  c #5EAB8D",
"H  c #4DA49A",
"J  c #53AA92",
"K  c #54AB93",
"L  c #55AC92",
"P  c #53AC96",
"I  c #54AD95",
"U  c #50A89A",
"Y  c #54AE98",
"T  c #50AB9E",
"R  c #51AC9F",
"E  c #56B196",
"W  c #58B190",
"Q  c #55B09A",
"!  c #5EBF99",
"~  c #6AB695",
"^  c #65BA97",
"/  c #77BA9C",
"(  c #51ADA0",
")  c #53B0A3",
"_  c #53B4AC",
"`  c #54B5AE",
"'  c #58BBAA",
"]  c #51B0B8",
"[  c #5FC19A",
"{  c #60C29B",
"}  c #60C39C",
"|  c #60C49E",
" . c #63C99F",
".. c #64CA9F",
"X. c #75C09D",
"o. c #79C29F",
"O. c #5AC1B1",
"+. c #5AC3B7",
"@. c #63CAA0",
"#. c #64CAA0",
"$. c #64CCA1",
"%. c #6BCFA4",
"&. c #7FCEA7",
"*. c #6CD1A5",
"=. c #70D3A7",
"-. c #71D4A8",
";. c #5ECDC7",
":. c #84D0A9",
">. c #86D4AC",
",. c #8DD4AB",
"<. c #91DCAF",
"1. c #8FDBB0",
"2. c #88E2B4",
"3. c #8BE7B7",
"4. c #8CE8B8",
"5. c #98EFBE",
"6. c #98F0BF",
"7. c #9EF0BD",
"8. c #A6F3BF",
"9. c #9AF3C1",
"0. c #9CF4C1",
"q. c #A8F7C2",
"w. c #B7F9C0",
"e. c #BCFDC2",
"r. c #C2FEC2",
/* pixels */
"                                                                                                                                ",
"                                                                                                                                ",
"                                                                                                                                ",
"                                                                                                                                ",
"                                                                                                                                ",
"                                                                                                                                ",
"                                                                                                                                ",
"                                                                                                                                ",
"                                                                                                                                ",
"                                                                                                                                ",
"                                                                                                                                ",
"                                                                                                                                ",
"                                                                                                                                ",
"                                                                                                                                ",
"                                                                                                                                ",
"                                                                                                                                ",
"                                                                                                                                ",
"                                                                                                                                ",
"                                                                            9 6                                                 ",
"                                                                          9 ~ C ,                                               ",
"                                                                          6 C k :                                               ",
"                                                                            , :                                                 ",
"                                                                                                                                ",
"                                                                                  3                                             ",
"                                                                                3 h 3                                           ",
"                                                                                  3                                             ",
"                                                          9 0 9 4 4 3 : :                                                       ",
"                                                      8 f o.>.&.^ W F v j w                                                     ",
"                                                    d o.<.7.0.9.4.*.@.[ L M t                                                   ",
"                                                  8 o.8.r.w.7.6.3.%. .| F P M 1                                                 ",
"                                                  f 1.e.r.q.6.3.=.#. .! A J ) y                                                 ",
"                                                9 X.5.7.,.:.2.-... .| F V J ' H 1                                               ",
"                                                , G 2./ 5 s G |  . .| D B V Q ( 7                                               ",
"                                                o * m - # l a F $. .! D B B K T 7                                               ",
"                                                O ; c = + @ - W $.[ F V B V Y T 7                                               ",
"                                                : c } N * % n { [ F B B B I O._ 7                                               ",
"                                                , Z | ! n S ! L V V J J Y O.;.] q                                               ",
"                                                > b Y x g V E L J Y O.+.) _ ] p                                                 ",
"                                                  e z r u x U R R R ` ] i 1 2                                                   ",
"                                                    ; $ & ; > < < < < 2                                                         ",
"                                                      X             .                                                           ",
"                                                                                                                                ",
"                                                                                                                                ",
"                                                                                                                                ",
"                                                                                                                                ",
"                                                                                                                                ",
"                                                                                                                                ",
"                                                                                                                                ",
"                                                                                                                                ",
"                                                                                                                                ",
"                                                                                                                                ",
"                                                                                                                                ",
"                                                                                                                                ",
"                                                                                                                                ",
"                                                                                                                                ",
"                                                                                                                                ",
"                                                                                                                                ",
"                                                                                                                                ",
"                                                                                                                                ",
"                                                                                                                                ",
"                                                                                                                                ",
"                                                                                                                                ",
"                                                                                                                                ",
"                                                                                                                                "
};
