/* XPM */
static char *idling_up4[] = {
/* columns rows colors chars-per-pixel */
"64 64 155 2 ",
"   c None",
".  c #24333E",
"X  c #2C5351",
"o  c #2D5452",
"O  c #2D5552",
"+  c #2D5553",
"@  c #2E5653",
"#  c #2D5454",
"$  c #2E5654",
"%  c #2E5556",
"&  c #2E5557",
"*  c #2E5656",
"=  c #2F5A55",
"-  c #2E5658",
";  c #2F5B5B",
":  c #2F585F",
">  c #2F5A5F",
",  c #305A55",
"<  c #305B56",
"1  c #305C56",
"2  c #335D58",
"3  c #375F59",
"4  c #305D5E",
"5  c #385F59",
"6  c #35635C",
"7  c #35635D",
"8  c #36675F",
"9  c #39605A",
"0  c #38625B",
"q  c #39625B",
"w  c #3A645C",
"e  c #3B645C",
"r  c #305F64",
"t  c #346460",
"y  c #356660",
"u  c #356765",
"i  c #3B6F64",
"p  c #366B69",
"a  c #3B7367",
"s  c #3C7267",
"d  c #386E78",
"f  c #387275",
"g  c #407367",
"h  c #48796B",
"j  c #49796B",
"k  c #448472",
"l  c #458977",
"z  c #488F7B",
"x  c #49917D",
"c  c #49927D",
"v  c #4B957E",
"b  c #4A947F",
"n  c #4A9580",
"m  c #4B9681",
"M  c #4E9881",
"N  c #4D9B86",
"B  c #4D9C88",
"V  c #4A998D",
"C  c #4A9A8D",
"Z  c #4B9D91",
"A  c #4C9E92",
"S  c #50A088",
"D  c #51A38A",
"F  c #53A689",
"G  c #51A48A",
"H  c #52A48B",
"J  c #57A588",
"K  c #52A58C",
"L  c #52A68F",
"P  c #52A78F",
"I  c #53A88D",
"U  c #54A88D",
"Y  c #54A98D",
"T  c #54AA8E",
"R  c #56AD8F",
"E  c #4DA398",
"W  c #52A790",
"Q  c #54AB93",
"!  c #56AE90",
"~  c #57AF90",
"^  c #53AB96",
"/  c #54AE99",
"(  c #55AF9A",
")  c #51AC9E",
"_  c #51AC9F",
"`  c #58B291",
"'  c #59B391",
"]  c #59B492",
"[  c #5EB794",
"{  c #5CB895",
"}  c #5DBB97",
"|  c #55B09B",
" . c #5DBD98",
".. c #5EBF99",
"X. c #69B494",
"o. c #65BA98",
"O. c #51ADA1",
"+. c #53B1A8",
"@. c #54B5AC",
"#. c #55B6AC",
"$. c #58BAA8",
"%. c #51AFB7",
"&. c #52B1B7",
"*. c #59BDB0",
"=. c #51B0B8",
"-. c #5FC19A",
";. c #60C39B",
":. c #60C39C",
">. c #61C59C",
",. c #61C59D",
"<. c #62C89F",
"1. c #63C99F",
"2. c #63CA9F",
"3. c #64CA9F",
"4. c #79C29F",
"5. c #7AC29E",
"6. c #5BC4BC",
"7. c #63CAA0",
"8. c #64CAA0",
"9. c #64CBA0",
"0. c #65CCA1",
"q. c #6ACFA4",
"w. c #6BCFA4",
"e. c #7FCEA7",
"r. c #6CD0A5",
"t. c #6CD1A5",
"y. c #6FD1A6",
"u. c #70D2A6",
"i. c #81C49F",
"p. c #82D4AB",
"a. c #86D4AB",
"s. c #8DD6AB",
"d. c #97DEB0",
"f. c #89E5B6",
"g. c #8AE5B6",
"h. c #8AE5B7",
"j. c #8BE6B7",
"k. c #8CE8B9",
"l. c #8FEABA",
"z. c #90EABB",
"x. c #90EBBB",
"c. c #97EFBF",
"v. c #97F0BF",
"b. c #98F0BF",
"n. c #9EF2BF",
"m. c #A6F3BF",
"M. c #BDF8BE",
"N. c #99F1C0",
"B. c #9AF2C1",
"V. c #9BF3C1",
"C. c #A0F3C0",
"Z. c #A1F3C0",
"A. c #A0F5C1",
"S. c #BFFBC0",
"D. c #BBFCC2",
/* pixels */
"                                                                                                                                ",
"                                                                                                                                ",
"                                                                                                                                ",
"                                                                                                                                ",
"                                                                                                                                ",
"                                                                                                                                ",
"                                                                                                                                ",
"                                                                                                                                ",
"                                                                                                                                ",
"                                                                                                                                ",
"                                                                                                                                ",
"                                                                                                                                ",
"                                                                                                                                ",
"                                                                                                                                ",
"                                                                                                                                ",
"                                                                                                                                ",
"                                                                                                                                ",
"                                                                                                                                ",
"                                                                                                                                ",
"                                                                                                                                ",
"                                                                                                                                ",
"                                                                                                                                ",
"                                                      2 q                                                                       ",
"                                                    = J X.5                                                                     ",
"                                                    @ M [ i , q e e q                                                           ",
"                                                      a ` { o.e.a.s.i.j 3                                                       ",
"                                                  @ $ v ;.t.k.B.A.D.M.d.5.j                                                     ",
"                                                1 k s ` 7.q.g.v.b.m.S.D.n.5.q                                                   ",
"                                                  6 c ..2.8.u.g.c.b.C.C.B.p.g                                                   ",
"                                                  @ v ~ -.2.3.u.g.x.k.x.g.y.H ,                                                 ",
"                                                  @ c H R -.2.8.q.y.y.y.q.0.` ,                                                 ",
"                                                  y m D D R ..>.2.2.2.2.2.8.] 8                                                 ",
"                                                ; A L D D H I ~ -.2.2.2.2.>.{ z X                                               ",
"                                                4 +.| D D D D D R ..:.:...~ Y m @                                               ",
"                                                r &.*.L D D D D H Y Y Y Y D D l @                                               ",
"                                                  f #.( D D D D D D D D D L N 6                                                 ",
"                                                  > %.6.( W D D D D D D L ^ C $                                                 ",
"                                                    d =.@.$.( Q Q Q Q L B C u                                                   ",
"                                                      > p E O.) ) ) ) Z y $                                                     ",
"                                                          $ - - - - - $                                                         ",
"                                                            .       .                                                           ",
"                                                                                                                                ",
"                                                                                                                                ",
"                                                                                                                                ",
"                                                                                                                                ",
"                                                                                                                                ",
"                                                                                                                                ",
"                                                                                                                                ",
"                                                                                                                                ",
"                                                                                                                                ",
"                                                                                                                                ",
"                                                                                                                                ",
"                                                                                                                                ",
"                                                                                                                                ",
"                                                                                                                                ",
"                                                                                                                                ",
"                                                                                                                                ",
"                                                                                                                                ",
"                                                                                                                                ",
"                                                                                                                                ",
"                                                                                                                                ",
"                                                                                                                                ",
"                                                                                                                                ",
"                                                                                                                                "
};
