/* XPM */
static char *idling_right4[] = {
/* columns rows colors chars-per-pixel */
"64 64 132 2 ",
"   c None",
".  c #24333E",
"X  c #253540",
"o  c #253F44",
"O  c #333758",
"+  c #3B3E5C",
"@  c #3C3F5E",
"#  c #294349",
"$  c #2C4750",
"%  c #2C4F52",
"&  c #324E54",
"*  c #344E56",
"=  c #2D5252",
"-  c #2E5652",
";  c #2E5557",
":  c #2F5A55",
">  c #2E5759",
",  c #2F5B5B",
"<  c #2F5C5B",
"1  c #2F5C5C",
"2  c #315656",
"3  c #305B56",
"4  c #305C57",
"5  c #3F575E",
"6  c #335E58",
"7  c #375F5A",
"8  c #385F5A",
"9  c #38605A",
"0  c #39635C",
"q  c #2F5860",
"w  c #305C62",
"e  c #346460",
"r  c #366A64",
"t  c #386960",
"y  c #3A7269",
"u  c #376E72",
"i  c #3C7972",
"p  c #405C63",
"a  c #486468",
"s  c #47786C",
"d  c #407D6E",
"f  c #48796B",
"g  c #4E7A6B",
"h  c #438573",
"j  c #478B79",
"k  c #478C7A",
"l  c #48907B",
"z  c #4A937E",
"x  c #71778D",
"c  c #448B82",
"v  c #4D9780",
"b  c #4B9784",
"n  c #4D9881",
"m  c #4D9B84",
"M  c #49978B",
"N  c #4E9E89",
"B  c #509C84",
"V  c #549E85",
"C  c #4B9D92",
"Z  c #50A086",
"A  c #51A289",
"S  c #52A48B",
"D  c #57A589",
"F  c #52A58C",
"G  c #54A88B",
"H  c #54A88C",
"J  c #57AE8E",
"K  c #5DA88E",
"L  c #4EA69B",
"P  c #53AA92",
"I  c #54AB91",
"U  c #55AD93",
"Y  c #54AC96",
"T  c #50A89A",
"R  c #55AF99",
"E  c #50AA9D",
"W  c #51AC9F",
"Q  c #57B196",
"!  c #59B291",
"~  c #5DB292",
"^  c #55B19C",
"/  c #5FBF9A",
"(  c #6AB595",
")  c #65BA97",
"_  c #79BD9E",
"`  c #52AFA2",
"'  c #53B0A4",
"]  c #52B0A8",
"[  c #54B5AE",
"{  c #57BAAA",
"}  c #4FABB3",
"|  c #51AFB6",
" . c #56BAB3",
".. c #59BFB3",
"X. c #51B0B8",
"o. c #5FC09A",
"O. c #60C39C",
"+. c #60C49C",
"@. c #63CA9F",
"#. c #64CA9F",
"$. c #5AC2B3",
"%. c #5AC3B8",
"&. c #63CAA0",
"*. c #64CAA0",
"=. c #64CCA1",
"-. c #6BCFA4",
";. c #7AC4A0",
":. c #7DC5A1",
">. c #7ECDA6",
",. c #6CD1A5",
"<. c #70D3A7",
"1. c #71D4A8",
"2. c #80C49F",
"3. c #86C69F",
"4. c #81D1A9",
"5. c #84D0A9",
"6. c #8DD4AB",
"7. c #91DCB0",
"8. c #88E2B4",
"9. c #8BE6B7",
"0. c #8CE9B9",
"q. c #98EEBE",
"w. c #9DEDBC",
"e. c #97F0BF",
"r. c #99F1BF",
"t. c #AAE2B0",
"y. c #9EF3C0",
"u. c #9AF4C2",
"i. c #A9F7C1",
"p. c #BFFAC0",
"a. c #BBFCC2",
"s. c #C3FFC4",
/* pixels */
"                                                                                                                                ",
"                                                                                                                                ",
"                                                                                                                                ",
"                                                                                                                                ",
"                                                                                                                                ",
"                                                                                                                                ",
"                                                                                                                                ",
"                                                                                                                                ",
"                                                                                                                                ",
"                                                                                                                                ",
"                                                                                                                                ",
"                                                                                                                                ",
"                                                                                                                                ",
"                                                                                                                                ",
"                                                                                                                                ",
"                                                                                                                                ",
"                                                                                                                                ",
"                                                                                                                                ",
"                                                                                                                                ",
"                                                                                                                                ",
"                                                                                                                                ",
"                                                                                                                                ",
"                                                      6 9                                                                       ",
"                                                    : D ( 9                                                                     ",
"                                                    - v ~ t : 4 4 9 9                                                           ",
"                                                      y m Z J ! ) 4.;.s 7                                                       ",
"                                                  - < C I / &.,.0.u.q.7.2.f                                                     ",
"                                                3 h i ` Q +.@.-.9.e.y.a.p.3.8                                                   ",
"                                                  r L { U / @.*.<.9.r.i.s.t.g                                                   ",
"                                                  , W R S J +.@.#.1.8.5.6.w.:.9                                                 ",
"                                                  1 E P A H +.@.@.+.K a 5 _ >.0                                                 ",
"                                                  1 E I A H / @.=.J p x @ * V 3                                                 ",
"                                                  1 E I A A J o.*.! & + O & n 2 o                                               ",
"                                                  1 E I A A A J / O.B $ & Z O.n -                                               ",
"                                                  1 ] ^ A A A S F U / G B / +.A :                                               ",
"                                                  w | ..Y A A A A A H Z d l N M ,                                               ",
"                                                    u  .$.R P P S A A Z j t e > #                                               ",
"                                                    q } [ ' %.$.R P P F A m c %                                                 ",
"                                                      q > u X.[ W E T b z k e                                                   ",
"                                                            q > > > ; = = =                                                     ",
"                                                              .         X                                                       ",
"                                                                                                                                ",
"                                                                                                                                ",
"                                                                                                                                ",
"                                                                                                                                ",
"                                                                                                                                ",
"                                                                                                                                ",
"                                                                                                                                ",
"                                                                                                                                ",
"                                                                                                                                ",
"                                                                                                                                ",
"                                                                                                                                ",
"                                                                                                                                ",
"                                                                                                                                ",
"                                                                                                                                ",
"                                                                                                                                ",
"                                                                                                                                ",
"                                                                                                                                ",
"                                                                                                                                ",
"                                                                                                                                ",
"                                                                                                                                ",
"                                                                                                                                ",
"                                                                                                                                ",
"                                                                                                                                "
};
