/* XPM */
static char *idling_up3[] = {
/* columns rows colors chars-per-pixel */
"64 64 148 2 ",
"   c None",
".  c #24333E",
"X  c #244144",
"o  c #2D5353",
"O  c #2D5552",
"+  c #2D5653",
"@  c #2E5753",
"#  c #2E5654",
"$  c #2E5456",
"%  c #2E5557",
"&  c #2E5757",
"*  c #2F5854",
"=  c #2F5955",
"-  c #2F5A55",
";  c #2E5658",
":  c #2E575E",
">  c #2F5B5B",
",  c #2F5C5C",
"<  c #305B56",
"1  c #375F59",
"2  c #305D5C",
"3  c #305D5E",
"4  c #34615B",
"5  c #34645F",
"6  c #36675F",
"7  c #38605A",
"8  c #38625B",
"9  c #3A645C",
"0  c #3B645C",
"q  c #2F5B61",
"w  c #346665",
"e  c #396D62",
"r  c #396D63",
"t  c #366A69",
"y  c #3C786D",
"u  c #386D77",
"i  c #427367",
"p  c #48786B",
"a  c #4A796B",
"s  c #49907B",
"d  c #4A937E",
"f  c #4C987F",
"g  c #4E9C83",
"h  c #4B9884",
"j  c #4D9B84",
"k  c #4E9C84",
"l  c #4D9C87",
"z  c #4F9F87",
"x  c #4A9A8D",
"c  c #4B9D91",
"v  c #4B9D92",
"b  c #4C9E91",
"n  c #51A286",
"m  c #51A387",
"M  c #51A289",
"N  c #51A389",
"B  c #51A28A",
"V  c #51A38A",
"C  c #53A689",
"Z  c #51A48A",
"A  c #51A48B",
"S  c #52A48B",
"D  c #52A58B",
"F  c #52A68F",
"G  c #53A88C",
"H  c #53A88D",
"J  c #54A88C",
"K  c #54A98D",
"L  c #54AA8E",
"P  c #56AD8F",
"I  c #56AE8F",
"U  c #5AAB8D",
"Y  c #57B08F",
"T  c #4DA399",
"R  c #53A890",
"E  c #54AA92",
"W  c #54AB93",
"Q  c #53AB95",
"!  c #55AF98",
"~  c #55AF99",
"^  c #51AB9D",
"/  c #51AB9E",
"(  c #51AC9E",
")  c #51AC9F",
"_  c #5DB995",
"`  c #55B09A",
"'  c #5EBE98",
"]  c #5EBF99",
"[  c #5EBF9A",
"{  c #67BF9A",
"}  c #52AEA2",
"|  c #54B5AB",
" . c #54B4AE",
".. c #58BAA8",
"X. c #5ABFAF",
"o. c #51AFB7",
"O. c #51B0B8",
"+. c #53B5BD",
"@. c #5EC09A",
"#. c #5FC19A",
"$. c #60C39B",
"%. c #60C39C",
"&. c #61C59C",
"*. c #60C49D",
"=. c #61C59D",
"-. c #62C79E",
";. c #63C79E",
":. c #62C89F",
">. c #63C99F",
",. c #64CA9F",
"<. c #7AC29E",
"1. c #5BC5BC",
"2. c #64CAA0",
"3. c #64CBA0",
"4. c #6ACFA4",
"5. c #6BCFA4",
"6. c #7BC7A2",
"7. c #7FCEA7",
"8. c #6CD0A5",
"9. c #70D2A7",
"0. c #70D3A7",
"q. c #71D4A8",
"w. c #5CC9C2",
"e. c #81C49F",
"r. c #86D4AB",
"t. c #8ED6AB",
"y. c #97DEB0",
"u. c #89E5B6",
"i. c #8AE6B7",
"p. c #8AE7B7",
"a. c #8BE8B8",
"s. c #8FEABA",
"d. c #8FEBBB",
"f. c #90EBBB",
"g. c #97F0BF",
"h. c #98F0BF",
"j. c #9DF2BF",
"k. c #A5F3BF",
"l. c #BEF8BE",
"z. c #97F1C0",
"x. c #98F1C0",
"c. c #99F1C0",
"v. c #99F3C1",
"b. c #9FF5C1",
"n. c #A0F3C0",
"m. c #A1F4C0",
"M. c #BFFBC0",
"N. c #BBFCC2",
/* pixels */
"                                                                                                                                ",
"                                                                                                                                ",
"                                                                                                                                ",
"                                                                                                                                ",
"                                                                                                                                ",
"                                                                                                                                ",
"                                                                                                                                ",
"                                                                                                                                ",
"                                                                                                                                ",
"                                                                                                                                ",
"                                                                                                                                ",
"                                                                                                                                ",
"                                                                                                                                ",
"                                                                                                                                ",
"                                                                                                                                ",
"                                                                                                                                ",
"                                                                                                                                ",
"                                                                                                                                ",
"                                              X                                                                                 ",
"                                                                                                                                ",
"                                                                                                                                ",
"                                                                                                                                ",
"                                                                                                                                ",
"                                                                                                                                ",
"                                                      - O -                                                                     ",
"                                                    - f m m r 7 9 9 7                                                           ",
"                                                    O z ;.;.{ 7.r.t.e.a 1                                                       ",
"                                                    4 z ;.5.a.v.b.N.l.y.<.a                                                     ",
"                                                  6 d ' :.5.p.z.h.k.M.N.j.6.i                                                   ",
"                                                - s H #.:.2.0.p.g.h.k.m.v.p.U -                                                 ",
"                                                  y j P #.:.,.0.p.d.d.d.p.q._ r                                                 ",
"                                                > v F V P #.:.2.4.8.8.8.4.2.;.A <                                               ",
"                                                2 / W V V P ' ;.:.:.:.:.:.:.2.Y <                                               ",
"                                                , / ! A V A H P #.:.:.:.:.;.#.g O                                               ",
"                                                2  .X.R V V V V P ' $.%.' P K h $                                               ",
"                                                q O.w.! V V V V A K K K H A Q x $                                               ",
"                                                  u +.1.` R A V V V V V A Q b w                                                 ",
"                                                    u o.| ..` W W W W F l x w                                                   ",
"                                                      : t T } / ( ( ( v w o                                                     ",
"                                                          $ ; ; ; ; ; $                                                         ",
"                                                            .       .                                                           ",
"                                                                                                                                ",
"                                                                                                                                ",
"                                                                                                                                ",
"                                                                                                                                ",
"                                                                                                                                ",
"                                                                                                                                ",
"                                                                                                                                ",
"                                                                                                                                ",
"                                                                                                                                ",
"                                                                                                                                ",
"                                                                                                                                ",
"                                                                                                                                ",
"                                                                                                                                ",
"                                                                                                                                ",
"                                                                                                                                ",
"                                                                                                                                ",
"                                                                                                                                ",
"                                                                                                                                ",
"                                                                                                                                ",
"                                                                                                                                ",
"                                                                                                                                ",
"                                                                                                                                ",
"                                                                                                                                "
};
