/* XPM */
static char *idling_left2[] = {
/* columns rows colors chars-per-pixel */
"64 64 121 2 ",
"   c None",
".  c #24333E",
"X  c #253641",
"o  c #253D44",
"O  c #333758",
"+  c #3B3E5C",
"@  c #3C3F5D",
"#  c #274547",
"$  c #274448",
"%  c #2B4D4E",
"&  c #2D4750",
"*  c #2F4F52",
"=  c #2F4C55",
"-  c #324D55",
";  c #2F5052",
":  c #2D5653",
">  c #2E5657",
",  c #2F5854",
"<  c #2E5658",
"1  c #2F5B5A",
"2  c #305B56",
"3  c #315C57",
"4  c #305D5C",
"5  c #385F5A",
"6  c #39625B",
"7  c #3B645D",
"8  c #2F5960",
"9  c #305F65",
"0  c #346561",
"q  c #386C62",
"w  c #366C69",
"e  c #3B7366",
"r  c #386E70",
"t  c #38717A",
"y  c #40585E",
"u  c #405D63",
"i  c #486368",
"p  c #427569",
"a  c #47786B",
"s  c #48786B",
"d  c #448672",
"f  c #49917B",
"g  c #49917D",
"h  c #4C947D",
"j  c #71778D",
"k  c #499380",
"l  c #4D9880",
"z  c #4C9882",
"x  c #4F9E83",
"c  c #4B9884",
"v  c #4D9B84",
"b  c #4B9B8E",
"n  c #519F85",
"m  c #4C9F91",
"M  c #4C9F94",
"N  c #51A186",
"B  c #51A38A",
"V  c #51A48A",
"C  c #52A68E",
"Z  c #55AA8C",
"A  c #55AD8E",
"S  c #5FAA8F",
"D  c #53AA92",
"F  c #54AB93",
"G  c #53AB95",
"H  c #53AC96",
"J  c #56AF94",
"K  c #50A899",
"L  c #55AF98",
"P  c #51AB9E",
"I  c #51AC9F",
"U  c #57B091",
"Y  c #58B090",
"T  c #5AB594",
"R  c #58B497",
"E  c #55B19C",
"W  c #5FBF9A",
"Q  c #65BA98",
"!  c #72B799",
"~  c #53B1A4",
"^  c #53B2AA",
"/  c #53B4AC",
"(  c #51B0B7",
")  c #59BFB3",
"_  c #51B0B9",
"`  c #5FC19B",
"'  c #60C39C",
"]  c #62C69E",
"[  c #63C99F",
"{  c #79C29F",
"}  c #5AC1B0",
"|  c #63CAA0",
" . c #64CBA1",
".. c #64CCA1",
"X. c #69CBA1",
"o. c #6DCAA2",
"O. c #6BCFA4",
"+. c #7DC7A2",
"@. c #6CD1A5",
"#. c #70D2A7",
"$. c #5DCCC6",
"%. c #80CEA7",
"&. c #83D5AC",
"*. c #87D5AD",
"=. c #8AD1A8",
"-. c #8DD4AB",
";. c #91DBAF",
":. c #8AE6B7",
">. c #8BE6B7",
",. c #8FE8B8",
"<. c #98EEBE",
"1. c #97F0BF",
"2. c #98F0BF",
"3. c #9EF0BE",
"4. c #A7F3BE",
"5. c #99F3C1",
"6. c #9BF4C1",
"7. c #A7F5C0",
"8. c #B9FAC0",
"9. c #BBFDC2",
"0. c #C2FEC2",
/* pixels */
"                                                                                                                                ",
"                                                                                                                                ",
"                                                                                                                                ",
"                                                                                                                                ",
"                                                                                                                                ",
"                                                                                                                                ",
"                                                                                                                                ",
"                                                                                                                                ",
"                                                                                                                                ",
"                                                                                                                                ",
"                                                                                                                                ",
"                                                                                                                                ",
"                                                                                                                                ",
"                                                                                                                                ",
"                                                                                                                                ",
"                                                                                                                                ",
"                                                                                                                                ",
"                                                                                2                                               ",
"                                                                              2 d 2                                             ",
"                                                                                2                                               ",
"                                                                                                                                ",
"                                                                                                                                ",
"                                                                                                                                ",
"                                                                                      $                                         ",
"                                                                                                                                ",
"                                                                                                                                ",
"                                                                      2 3 3                                                     ",
"                                                          6 7 6 3 , q N R x ,                                                   ",
"                                                      5 s { *.%.Q Y Y R W B 0                                                   ",
"                                                    a { ;.3.6.5.,.@.| W A C m w                                                 ",
"                                                  a +.4.0.8.3.1.>.O.[ ] Z V H M 1                                               ",
"                                                6 { 3.9.0.7.2.>.#. .[ W Z B D P w                                               ",
"                                                p &.<.-.=.,.>.#.[ [ ] A V B V G M 1                                             ",
"                                              : h o.! y i S X. .[ [ ' Z B B B D P 4                                             ",
"                                              o ; l - @ j u A  .[ | W Z B B V L P 4                                             ",
"                                              o * l = O + - Y ..[ ` A V B V J } / 4                                             ",
"                                              : l W n - & n ] ] W A B B D L } $._ 9                                             ",
"                                              : g R W N Z ' ` U J F D E ) ~ / _ t                                               ",
"                                                0 b k e f v l c K I P ^ ( r < 8                                                 ",
"                                                  1 ; # % ; ; ; > < < < 8                                                       ",
"                                                      X               .                                                         ",
"                                                                                                                                ",
"                                                                                                                                ",
"                                                                                                                                ",
"                                                                                                                                ",
"                                                                                                                                ",
"                                                                                                                                ",
"                                                                                                                                ",
"                                                                                                                                ",
"                                                                                                                                ",
"                                                                                                                                ",
"                                                                                                                                ",
"                                                                                                                                ",
"                                                                                                                                ",
"                                                                                                                                ",
"                                                                                                                                ",
"                                                                                                                                ",
"                                                                                                                                ",
"                                                                                                                                ",
"                                                                                                                                ",
"                                                                                                                                ",
"                                                                                                                                ",
"                                                                                                                                ",
"                                                                                                                                "
};
