/* XPM */
static char *idling_down2[] = {
/* columns rows colors chars-per-pixel */
"64 64 128 2 ",
"   c None",
".  c #23333F",
"X  c #24333E",
"o  c #263948",
"O  c #283D4A",
"+  c #333758",
"@  c #333858",
"#  c #3B3F5D",
"$  c #3C3F5D",
"%  c #264347",
"&  c #2B414E",
"*  c #2A464E",
"=  c #2F4C55",
"-  c #304A52",
";  c #314D54",
":  c #2C5351",
">  c #2E5755",
",  c #2D5456",
"<  c #2E5658",
"1  c #2F5A5A",
"2  c #2F5B5B",
"3  c #2F595F",
"4  c #305855",
"5  c #305955",
"6  c #335C57",
"7  c #3A5359",
"8  c #305D5B",
"9  c #375E5A",
"0  c #39615B",
"q  c #3A635C",
"w  c #305F63",
"e  c #366760",
"r  c #366A67",
"t  c #386B63",
"y  c #3F7166",
"u  c #386F77",
"i  c #3E7A70",
"p  c #387079",
"a  c #415E63",
"s  c #4A6468",
"d  c #407266",
"f  c #407B6F",
"g  c #48786B",
"h  c #4A796C",
"j  c #448572",
"k  c #458477",
"l  c #478E7B",
"z  c #45887C",
"x  c #468C7F",
"c  c #4A8D7B",
"v  c #498F7C",
"b  c #4A937F",
"n  c #4B947F",
"m  c #72778D",
"M  c #72788D",
"N  c #478E80",
"B  c #4A9483",
"V  c #4B9886",
"C  c #4C9885",
"Z  c #4F9D84",
"A  c #469289",
"S  c #4B9889",
"D  c #4B9B8E",
"F  c #4B9E92",
"G  c #4C9F93",
"H  c #53A688",
"J  c #54A689",
"K  c #53A78F",
"L  c #59A489",
"P  c #53A88B",
"I  c #56AF8E",
"U  c #5DA98E",
"Y  c #5AAD8D",
"T  c #56B08F",
"R  c #58B08F",
"E  c #4CA094",
"W  c #55AC92",
"Q  c #54AD96",
"!  c #50A99A",
"~  c #54AD98",
"^  c #51AD9F",
"/  c #58B192",
"(  c #5AB693",
")  c #5AB794",
"_  c #5CBA97",
"`  c #55B09B",
"'  c #5DBD98",
"]  c #63B896",
"[  c #6BB897",
"{  c #53B1A8",
"}  c #51B0B8",
"|  c #53B5BD",
" . c #5EC09A",
".. c #62C79E",
"X. c #63C99F",
"o. c #75C29E",
"O. c #7AC29E",
"+. c #5BC4BD",
"@. c #64CBA0",
"#. c #6BCDA3",
"$. c #6BCFA4",
"%. c #7CC8A3",
"&. c #6BD0A5",
"*. c #71D3A7",
"=. c #71D4A7",
"-. c #71D5A8",
";. c #81C49F",
":. c #83CFA9",
">. c #83D0A9",
",. c #86D3AB",
"<. c #8DD6AB",
"1. c #97DDB0",
"2. c #89E3B5",
"3. c #89E6B7",
"4. c #8EE7B8",
"5. c #8DE9B9",
"6. c #90EBBB",
"7. c #96EEBE",
"8. c #9AF1BF",
"9. c #9DF1BF",
"0. c #A6F3BE",
"q. c #BEF9BE",
"w. c #99F1C0",
"e. c #9CF4C2",
"r. c #A1F3C0",
"t. c #A2F5C1",
"y. c #BBFDC2",
"u. c #C0FCC0",
/* pixels */
"                                                                                                                                ",
"                                                                                                                                ",
"                                                                                                                                ",
"                                                                                                                                ",
"                                                                                                                                ",
"                                                                                                                                ",
"                                                                                                                                ",
"                                                                                                                                ",
"                                                                                                                                ",
"                                                                                                                                ",
"                                                                                                                                ",
"                                                                                                                                ",
"                                                                                                                                ",
"                                                                                                                                ",
"                                                                                                                                ",
"                                                                                                                                ",
"                                                                                                                                ",
"                                                                                                                                ",
"                                                                                5                                               ",
"                                                                              5 j 5                                             ",
"                                                                                5                                               ",
"                                                                                                                                ",
"                                                                                                                                ",
"                                                                                                                                ",
"                                                                                      %                                         ",
"                                                                                                                                ",
"                                                                      6 0                                                       ",
"                                                            0 q q q d Y [ d                                                     ",
"                                                        9 h ;.<.,.,.>.*.#.J 5                                                   ",
"                                                      g O.1.q.y.t.w.w.3.&.) t                                                   ",
"                                                    g %.9.y.u.0.8.8.8.3.$...P e                                                 ",
"                                                  y o.7.e.t.r.8.w.8.5.-.@.@...c :                                               ",
"                                                5 H =.2.:.>.4.6.6.2.] R ..@. .Z e                                               ",
"                                                e ( X.U s 7 L #.#.U a ; Z ' I K F 1                                             ",
"                                              : l  .I a m # * / T a M # & n H ` { 8                                             ",
"                                              > C / H - # @ = ( / - $ + & v ~ +.} w                                             ",
"                                              1 D Q W k O & c  ._ f o & z ~ +.| p                                               ",
"                                                r G ! V B N f b b i x S ! { } u                                                 ",
"                                                  > < e G ^ A 8 8 A ^ E r 1 3                                                   ",
"                                                        > < > % % > < >                                                         ",
"                                                          X         .                                                           ",
"                                                                                                                                ",
"                                                                                                                                ",
"                                                                                                                                ",
"                                                                                                                                ",
"                                                                                                                                ",
"                                                                                                                                ",
"                                                                                                                                ",
"                                                                                                                                ",
"                                                                                                                                ",
"                                                                                                                                ",
"                                                                                                                                ",
"                                                                                                                                ",
"                                                                                                                                ",
"                                                                                                                                ",
"                                                                                                                                ",
"                                                                                                                                ",
"                                                                                                                                ",
"                                                                                                                                ",
"                                                                                                                                ",
"                                                                                                                                ",
"                                                                                                                                ",
"                                                                                                                                ",
"                                                                                                                                "
};
