/* XPM */
static char *idling_right3[] = {
/* columns rows colors chars-per-pixel */
"64 64 181 2 ",
"   c None",
".  c #24333E",
"X  c #253540",
"o  c #253D44",
"O  c #333758",
"+  c #3B3E5C",
"@  c #3C3F5D",
"#  c #274448",
"$  c #2C474F",
"%  c #2F4C53",
"&  c #2F4C54",
"*  c #324D54",
"=  c #334E55",
"-  c #2C5050",
";  c #2D5251",
":  c #2F5053",
">  c #2D5252",
",  c #2D5451",
"<  c #2D5552",
"1  c #2E5552",
"2  c #2E5557",
"3  c #2E5757",
"4  c #2F5955",
"5  c #2E5856",
"6  c #2E5658",
"7  c #2F5758",
"8  c #2E5659",
"9  c #2F5B5B",
"0  c #2F585F",
"q  c #325254",
"w  c #305A55",
"e  c #305B56",
"r  c #315B56",
"t  c #3F575E",
"y  c #375E59",
"u  c #305C5C",
"i  c #325E5C",
"p  c #305D5E",
"a  c #385F5A",
"s  c #35655E",
"d  c #36665E",
"f  c #39615B",
"g  c #39625B",
"h  c #2F5A60",
"j  c #315F64",
"k  c #356765",
"l  c #3A6F64",
"z  c #3D786D",
"x  c #3E796D",
"c  c #386E70",
"v  c #386E78",
"b  c #387174",
"n  c #405C62",
"m  c #486368",
"M  c #447669",
"N  c #407D6D",
"B  c #48786B",
"V  c #49786B",
"C  c #418071",
"Z  c #478D79",
"A  c #478E7B",
"S  c #4A937D",
"D  c #4A937E",
"F  c #4A947F",
"G  c #4C977F",
"H  c #71778D",
"J  c #469187",
"K  c #4D9780",
"L  c #4B9883",
"P  c #4E9C82",
"I  c #4F9F86",
"U  c #4A9A8E",
"Y  c #529881",
"T  c #509D84",
"R  c #509F84",
"E  c #559E84",
"W  c #4B9D92",
"Q  c #51A186",
"!  c #50A187",
"~  c #52A086",
"^  c #51A289",
"/  c #51A389",
"(  c #50A38A",
")  c #51A38A",
"_  c #51A38B",
"`  c #52A589",
"'  c #51A48A",
"]  c #51A48B",
"[  c #52A48A",
"{  c #53A78D",
"}  c #52A68E",
"|  c #54A98B",
" . c #53A88C",
".. c #54A88C",
"X. c #54A98D",
"o. c #54AA8D",
"O. c #54A98E",
"+. c #56AC8D",
"@. c #56AE8D",
"#. c #56AD8F",
"$. c #56AE8E",
"%. c #56AE8F",
"&. c #5DA98E",
"*. c #53A890",
"=. c #53A991",
"-. c #53AA92",
";. c #54AB93",
":. c #57AF90",
">. c #54AC95",
",. c #54AD95",
"<. c #50A89A",
"1. c #55AF98",
"2. c #51AB9E",
"3. c #51AC9E",
"4. c #58B190",
"5. c #5AB492",
"6. c #5CBA96",
"7. c #55B19B",
"8. c #5CBB98",
"9. c #5EBE98",
"0. c #5EBE99",
"q. c #5FBF99",
"w. c #65BA97",
"e. c #77BB9D",
"r. c #53B0A3",
"t. c #52B0A8",
"y. c #54B4AC",
"u. c #54B5AE",
"i. c #56B9B3",
"p. c #51B0B8",
"a. c #51B1B8",
"s. c #51B1B9",
"d. c #52B1B8",
"f. c #5FC099",
"g. c #5FC09A",
"h. c #5FC19A",
"j. c #60C39B",
"k. c #60C39C",
"l. c #60C49C",
"z. c #61C49C",
"x. c #60C49D",
"c. c #62C69D",
"v. c #63C99F",
"b. c #63CA9F",
"n. c #64CA9F",
"m. c #7FC39E",
"M. c #5AC0B0",
"N. c #5AC1B0",
"B. c #59C0B3",
"V. c #5AC3B7",
"C. c #63CBA0",
"Z. c #64CAA0",
"A. c #64CCA1",
"S. c #6BCFA4",
"D. c #7AC3A0",
"F. c #6BD1A5",
"G. c #70D3A7",
"H. c #71D3A8",
"J. c #5DCCC6",
"K. c #81C49E",
"L. c #8BCBA3",
"P. c #81CFA8",
"I. c #84D1A9",
"U. c #8DD4AB",
"Y. c #84DBB0",
"T. c #8BDBB0",
"R. c #91DCB0",
"E. c #88E2B4",
"W. c #8BE6B7",
"Q. c #8CE9B9",
"!. c #98EFBE",
"~. c #97F0BF",
"^. c #99F0BF",
"/. c #A1F3BF",
"(. c #BFFABF",
"). c #9EF2C0",
"_. c #9AF4C1",
"`. c #A9F7C1",
"'. c #B9F9C0",
"]. c #BBFCC1",
"[. c #C2FFC2",
/* pixels */
"                                                                                                                                ",
"                                                                                                                                ",
"                                                                                                                                ",
"                                                                                                                                ",
"                                                                                                                                ",
"                                                                                                                                ",
"                                                                                                                                ",
"                                                                                                                                ",
"                                                                                                                                ",
"                                                                                                                                ",
"                                                                                                                                ",
"                                                                                                                                ",
"                                                                                                                                ",
"                                                                                                                                ",
"                                                                                                                                ",
"                                                                                                                                ",
"                                                                                                                                ",
"                                              #                                                                                 ",
"                                                                                                                                ",
"                                                                                                                                ",
"                                                                                                                                ",
"                                                                                                                                ",
"                                                                                                                                ",
"                                                                                                                                ",
"                                                        w w <                                                                   ",
"                                                      w Q +.S s w g g                                                           ",
"                                                      s +.8.0.5.w.P.D.V y                                                       ",
"                                                    s A o.h.b.F.Q._.!.R.K.V                                                     ",
"                                                  l ' } o.z.C.S.W.~.).].(.L.V                                                   ",
"                                                4 G 6.o. .h.b.Z.G.W.^.`.[.'.m.a                                                 ",
"                                                  x I ' ' +.z.b.n.H.E.I.U./.T.M                                                 ",
"                                                9 W } ) ) o.k.b.b.z.&.m t e.Y.Y <                                               ",
"                                                u 2.;.) ) o.h.b.A.+.n H @ * E q o                                               ",
"                                                u t.7.) ) ' +.h.A.4.* + O % K > o                                               ",
"                                                j d.B.>.' ) ) +.h.k.T $ % Q z.P <                                               ",
"                                                  b i.B.>.) ) )  .:.0.| T 0.z.) 4                                               ",
"                                                  h d.J.B.1.=.=.) ) o.Q N S >.U 2                                               ",
"                                                    v d.y.r.V.B.1.;.=.) A x J k                                                 ",
"                                                      0 7 c d.y.2.2.<.L S C u                                                   ",
"                                                            0 7 7 7 2 > > >                                                     ",
"                                                              .         X                                                       ",
"                                                                                                                                ",
"                                                                                                                                ",
"                                                                                                                                ",
"                                                                                                                                ",
"                                                                                                                                ",
"                                                                                                                                ",
"                                                                                                                                ",
"                                                                                                                                ",
"                                                                                                                                ",
"                                                                                                                                ",
"                                                                                                                                ",
"                                                                                                                                ",
"                                                                                                                                ",
"                                                                                                                                ",
"                                                                                                                                ",
"                                                                                                                                ",
"                                                                                                                                ",
"                                                                                                                                ",
"                                                                                                                                ",
"                                                                                                                                ",
"                                                                                                                                ",
"                                                                                                                                ",
"                                                                                                                                "
};
