/* XPM */
static char *idling_down0[] = {
/* columns rows colors chars-per-pixel */
"64 64 185 2 ",
"   c None",
".  c #23333E",
"X  c #23323F",
"o  c #283C4A",
"O  c #283D4B",
"+  c #293D4B",
"@  c #333758",
"#  c #333858",
"$  c #3B3E5D",
"%  c #3C3E5D",
"&  c #3C3F5D",
"*  c #2B404E",
"=  c #2B464F",
"-  c #2C4551",
";  c #2E4B53",
":  c #304952",
">  c #304A53",
",  c #2C5250",
"<  c #2D5353",
"1  c #2D5552",
"2  c #2E5654",
"3  c #2E5457",
"4  c #2E5557",
"5  c #2E5757",
"6  c #2F5854",
"7  c #2F5855",
"8  c #2F5955",
"9  c #2E5658",
"0  c #2E5659",
"q  c #2E5759",
"w  c #2E575F",
"e  c #2F5B5B",
"r  c #305A56",
"t  c #305B56",
"y  c #315B56",
"u  c #3B545B",
"i  c #335D58",
"p  c #375E5A",
"a  c #305C5C",
"s  c #305D5C",
"d  c #305D5E",
"f  c #36675F",
"g  c #39625B",
"h  c #3A645C",
"j  c #3B645C",
"k  c #2F5B61",
"l  c #346460",
"z  c #356661",
"x  c #356665",
"c  c #386B61",
"v  c #396C62",
"b  c #396D63",
"n  c #366A69",
"m  c #3A726B",
"M  c #3C7468",
"N  c #3C7568",
"B  c #386D77",
"V  c #415E63",
"C  c #496368",
"Z  c #417367",
"A  c #47786B",
"S  c #4A796C",
"D  c #448572",
"F  c #438174",
"G  c #448274",
"H  c #448374",
"J  c #448577",
"K  c #458977",
"L  c #468A77",
"P  c #478B7A",
"I  c #478D7B",
"U  c #478E7B",
"Y  c #498F7C",
"T  c #498F7D",
"R  c #49907D",
"E  c #4B957F",
"W  c #4C947D",
"Q  c #72778E",
"!  c #72788E",
"~  c #4A9583",
"^  c #4A9584",
"/  c #4D9982",
"(  c #4C9983",
")  c #4D9A83",
"_  c #4C9985",
"`  c #4F9B84",
"'  c #4E9C84",
"]  c #4F9E85",
"[  c #4E9D88",
"{  c #4A998D",
"}  c #4C9E91",
"|  c #4C9E92",
" . c #4C9F93",
".. c #4B9D94",
"X. c #52A487",
"o. c #51A289",
"O. c #51A389",
"+. c #53A789",
"@. c #57A589",
"#. c #56A48A",
"$. c #56A58A",
"%. c #52A68E",
"&. c #58A489",
"*. c #53A889",
"=. c #54A88A",
"-. c #53A88C",
";. c #53A88E",
":. c #54A88D",
">. c #55AB8E",
",. c #56AD8D",
"<. c #57AF8F",
"1. c #59AB8C",
"2. c #57B08F",
"3. c #4DA398",
"4. c #53A890",
"5. c #54AB92",
"6. c #57AF90",
"7. c #53AC96",
"8. c #55AD94",
"9. c #5FAF90",
"0. c #54AD98",
"q. c #50AA9D",
"w. c #51AB9E",
"e. c #51AC9F",
"r. c #57B190",
"t. c #58B291",
"y. c #59B291",
"u. c #58B391",
"i. c #5DB995",
"p. c #56B099",
"a. c #55B09A",
"s. c #55B19B",
"d. c #5DBD98",
"f. c #5EBF99",
"g. c #6AB695",
"h. c #62BC98",
"j. c #52AFA2",
"k. c #54B5AB",
"l. c #54B4AC",
"z. c #58BBA8",
"x. c #5ABFAE",
"c. c #51AFB7",
"v. c #51B0B8",
"b. c #53B5BD",
"n. c #60C49C",
"m. c #62C89F",
"M. c #79C29F",
"N. c #5BC4BC",
"B. c #63CBA0",
"V. c #65CDA2",
"C. c #68CAA1",
"Z. c #6BCDA3",
"A. c #6ECFA5",
"S. c #7BC7A2",
"D. c #7ECBA5",
"F. c #7FCFA8",
"G. c #6BD1A5",
"H. c #6FD2A6",
"J. c #71D6A9",
"K. c #5CC8C2",
"L. c #81C49F",
"P. c #84D1AA",
"I. c #86D4AB",
"U. c #8DD6AC",
"Y. c #97DEB0",
"T. c #8AE4B6",
"R. c #8AE6B7",
"E. c #8BE7B8",
"W. c #8EE7B8",
"Q. c #8DE8B8",
"!. c #91ECBC",
"~. c #98F0BF",
"^. c #99F0BF",
"/. c #9DF1BF",
"(. c #A6F3BF",
"). c #BEF9BF",
"_. c #9AF1C0",
"`. c #99F3C1",
"'. c #9BF4C1",
"]. c #A1F3C0",
"[. c #A2F5C1",
"{. c #A0F5C2",
"}. c #BAFBC1",
"|. c #BBFDC2",
" X c #C0FBC0",
/* pixels */
"                                                                                                                                ",
"                                                                                                                                ",
"                                                                                                                                ",
"                                                                                                                                ",
"                                                                                                                                ",
"                                                                                                                                ",
"                                                                                                                                ",
"                                                                                                                                ",
"                                                                                                                                ",
"                                                                                                                                ",
"                                                                                                                                ",
"                                                                                                                                ",
"                                                                                                                                ",
"                                                                                                                                ",
"                                                                                                                                ",
"                                                                                                                                ",
"                                                                                                                                ",
"                                                                                                                                ",
"                                                                                                                                ",
"                                                                                                                                ",
"                                                                          g i                                                   ",
"                                                                        g g.$.6                                                 ",
"                                                                        i $.W 1                                                 ",
"                                                                          6 1                                                   ",
"                                                                                  r                                             ",
"                                                            g h h g r           r D r                                           ",
"                                                        p S L.U.I.F.9.b 6         r                                             ",
"                                                      A M.Y.).|.[._.R.h.X.c                                                     ",
"                                                    Z S./.}. X(.~.~.R.G.m.*.f                                                   ",
"                                                  6 1.R.'.[.]._.~.Q.J.V.B.d.I <                                                 ",
"                                                  b i.H.D.P.W.!.E.A.,.2.d.6./ l                                                 ",
"                                                r +.n.$.C u &.Z.C.$.V : J o.4.} e                                               ",
"                                                r t.2.V Q $ = t.r.V ! % o T 8.e.s                                               ",
"                                                1 ] =.: $ # ; t.,.: % @ * R s.w.s                                               ",
"                                                2 _ :.F o - _ d.:.H o * H %.x.l.s                                               ",
"                                                2 { 7.o.T I ] ;.o.E I T o.s.K.v.k                                               ",
"                                                  x } 7.;./ M K K M / 5.s.N.b.B                                                 ",
"                                                    x { [ %.^ m m ~ 0.z.k.c.B                                                   ",
"                                                      < l } w.....w.j.3.n w                                                     ",
"                                                          2 9 9 9 9 9 2                                                         ",
"                                                            .       .                                                           ",
"                                                                                                                                ",
"                                                                                                                                ",
"                                                                                                                                ",
"                                                                                                                                ",
"                                                                                                                                ",
"                                                                                                                                ",
"                                                                                                                                ",
"                                                                                                                                ",
"                                                                                                                                ",
"                                                                                                                                ",
"                                                                                                                                ",
"                                                                                                                                ",
"                                                                                                                                ",
"                                                                                                                                ",
"                                                                                                                                ",
"                                                                                                                                ",
"                                                                                                                                ",
"                                                                                                                                ",
"                                                                                                                                ",
"                                                                                                                                ",
"                                                                                                                                ",
"                                                                                                                                ",
"                                                                                                                                "
};
