/* XPM */
static char *idling_up3[] = {
/* columns rows colors chars-per-pixel */
"64 64 100 2 ",
"   c None",
".  c #24333E",
"X  c #244144",
"o  c #2D5353",
"O  c #2D5552",
"+  c #2E5456",
"@  c #2F5A55",
"#  c #2E5658",
"$  c #2E575E",
"%  c #2F5B5B",
"&  c #2F5C5C",
"*  c #305B56",
"=  c #375F59",
"-  c #305D5C",
";  c #34615B",
":  c #36675F",
">  c #38605A",
",  c #3A645C",
"<  c #2F5B61",
"1  c #346665",
"2  c #396D63",
"3  c #366A69",
"4  c #3C786D",
"5  c #386D77",
"6  c #427367",
"7  c #4A796B",
"8  c #49907B",
"9  c #4A937E",
"0  c #4C987F",
"q  c #4E9C83",
"w  c #4B9884",
"e  c #4D9B84",
"r  c #4D9C87",
"t  c #4F9F87",
"y  c #4A9A8D",
"u  c #4B9D92",
"i  c #4C9E91",
"p  c #51A387",
"a  c #51A38A",
"s  c #51A48B",
"d  c #52A68F",
"f  c #53A88D",
"g  c #54A98D",
"h  c #56AD8F",
"j  c #5AAB8D",
"k  c #57B08F",
"l  c #4DA399",
"z  c #53A890",
"x  c #54AB93",
"c  c #53AB95",
"v  c #55AF98",
"b  c #51AB9E",
"n  c #51AC9E",
"m  c #5DB995",
"M  c #55B09A",
"N  c #5EBE98",
"B  c #67BF9A",
"V  c #52AEA2",
"C  c #54B5AB",
"Z  c #54B4AE",
"A  c #58BAA8",
"S  c #5ABFAF",
"D  c #51AFB7",
"F  c #51B0B8",
"G  c #53B5BD",
"H  c #5FC19A",
"J  c #60C39B",
"K  c #60C39C",
"L  c #63C79E",
"P  c #62C89F",
"I  c #64CA9F",
"U  c #7AC29E",
"Y  c #5BC5BC",
"T  c #64CAA0",
"R  c #6ACFA4",
"E  c #6BCFA4",
"W  c #7BC7A2",
"Q  c #7FCEA7",
"!  c #6CD0A5",
"~  c #70D3A7",
"^  c #71D4A8",
"/  c #5CC9C2",
"(  c #81C49F",
")  c #86D4AB",
"_  c #8ED6AB",
"`  c #97DEB0",
"'  c #8AE7B7",
"]  c #8BE8B8",
"[  c #8FEBBB",
"{  c #97F0BF",
"}  c #98F0BF",
"|  c #9DF2BF",
" . c #A5F3BF",
".. c #BEF8BE",
"X. c #97F1C0",
"o. c #99F3C1",
"O. c #9FF5C1",
"+. c #A1F4C0",
"@. c #BFFBC0",
"#. c #BBFCC2",
/* pixels */
"                                                                                                                                ",
"                                                                                                                                ",
"                                                                                                                                ",
"                                                                                                                                ",
"                                                                                                                                ",
"                                                                                                                                ",
"                                                                                                                                ",
"                                                                                                                                ",
"                                                                                                                                ",
"                                                                                                                                ",
"                                                                                                                                ",
"                                                                                                                                ",
"                                                                                                                                ",
"                                                                                                                                ",
"                                                                                                                                ",
"                                                                                                                                ",
"                                                                                                                                ",
"                                                                                                                                ",
"                                              X                                                                                 ",
"                                                                                                                                ",
"                                                                                                                                ",
"                                                                                                                                ",
"                                                                                                                                ",
"                                                                                                                                ",
"                                                      @ O @                                                                     ",
"                                                    @ 0 p p 2 > , , >                                                           ",
"                                                    O t L L B Q ) _ ( 7 =                                                       ",
"                                                    ; t L E ] o.O.#...` U 7                                                     ",
"                                                  : 9 N P E ' X.}  .@.#.| W 6                                                   ",
"                                                @ 8 f H P T ~ ' { }  .+.o.' j @                                                 ",
"                                                  4 e h H P I ~ ' [ [ [ ' ^ m 2                                                 ",
"                                                % u d a h H P T E ! ! ! E T L s *                                               ",
"                                                - b x a a h N L P P P P P P T k *                                               ",
"                                                & b v s a s f h H P P P P L H q O                                               ",
"                                                - Z S z a a a a h N J K N h g w +                                               ",
"                                                < F / v a a a a s g g g f s c y +                                               ",
"                                                  5 G Y M z s a a a a a s c i 1                                                 ",
"                                                    5 D C A M x x x x d t y 1                                                   ",
"                                                      $ 3 l V b n n n u 1 o                                                     ",
"                                                          + # # # # # +                                                         ",
"                                                            .       .                                                           ",
"                                                                                                                                ",
"                                                                                                                                ",
"                                                                                                                                ",
"                                                                                                                                ",
"                                                                                                                                ",
"                                                                                                                                ",
"                                                                                                                                ",
"                                                                                                                                ",
"                                                                                                                                ",
"                                                                                                                                ",
"                                                                                                                                ",
"                                                                                                                                ",
"                                                                                                                                ",
"                                                                                                                                ",
"                                                                                                                                ",
"                                                                                                                                ",
"                                                                                                                                ",
"                                                                                                                                ",
"                                                                                                                                ",
"                                                                                                                                ",
"                                                                                                                                ",
"                                                                                                                                ",
"                                                                                                                                "
};
