/* XPM */
static char *idling_left5[] = {
/* columns rows colors chars-per-pixel */
"64 64 180 2 ",
"   c None",
".  c #24333E",
"X  c #253540",
"o  c #333758",
"O  c #3B3E5C",
"+  c #3C3F5D",
"@  c #264648",
"#  c #28414C",
"$  c #2C474F",
"%  c #2C4F4F",
"&  c #2F4B54",
"*  c #324D54",
"=  c #344F56",
"-  c #2B5050",
";  c #2C5150",
":  c #2D5151",
">  c #2C5250",
",  c #2C5351",
"<  c #2D5452",
"1  c #2E5557",
"2  c #2E5757",
"3  c #2F5A55",
"4  c #2E5658",
"5  c #2E5659",
"6  c #2E565D",
"7  c #2E575E",
"8  c #2F5B5B",
"9  c #2F585F",
"0  c #305B56",
"q  c #315B57",
"w  c #315C57",
"e  c #325D58",
"r  c #335D59",
"t  c #335E59",
"y  c #325F5A",
"u  c #365F5A",
"i  c #305C5C",
"p  c #305D5E",
"a  c #385F5A",
"s  c #33605A",
"d  c #33615B",
"f  c #35605A",
"g  c #34605B",
"h  c #37605A",
"j  c #37615B",
"k  c #34625F",
"l  c #38615B",
"z  c #3E6059",
"x  c #305C62",
"c  c #376760",
"v  c #376A63",
"b  c #3A6E64",
"n  c #376D6A",
"m  c #366A6F",
"M  c #3F7C6D",
"N  c #376D71",
"B  c #386D78",
"V  c #40585E",
"C  c #405C62",
"Z  c #486367",
"A  c #407E6F",
"S  c #48796C",
"D  c #4B7B6D",
"F  c #527B6B",
"G  c #597C6B",
"H  c #458975",
"J  c #458A78",
"K  c #478C78",
"L  c #478D79",
"P  c #468D7C",
"I  c #488D7A",
"U  c #4A927D",
"Y  c #4A937D",
"T  c #4A957F",
"R  c #71778D",
"E  c #469287",
"W  c #4D9880",
"Q  c #4D9981",
"!  c #4B9884",
"~  c #4D9B85",
"^  c #4F9D84",
"/  c #4E9D85",
"(  c #4F9E84",
")  c #4C9C8A",
"_  c #4A9A8D",
"`  c #509D84",
"'  c #50A187",
"]  c #57A186",
"[  c #50A088",
"{  c #52A188",
"}  c #51A289",
"|  c #51A38A",
" . c #52A488",
".. c #51A48A",
"X. c #52A48A",
"o. c #52A58B",
"O. c #53A68B",
"+. c #56A589",
"@. c #52A68C",
"#. c #54A98B",
"$. c #53A88C",
"%. c #54A88C",
"&. c #54A98D",
"*. c #54A98E",
"=. c #56AD8F",
"-. c #56AE8E",
";. c #5DA88E",
":. c #53A890",
">. c #53AA92",
",. c #54AB93",
"<. c #57AF90",
"1. c #54AE97",
"2. c #50A899",
"3. c #50A99B",
"4. c #55AF99",
"5. c #50AA9D",
"6. c #52AC9D",
"7. c #51AC9F",
"8. c #58B190",
"9. c #59B191",
"0. c #59B392",
"q. c #5CB393",
"w. c #5AB794",
"e. c #55B19B",
"r. c #5DBD99",
"t. c #5EBF99",
"y. c #5EBF9A",
"u. c #69B494",
"i. c #66BD99",
"p. c #74B79A",
"a. c #72BB9A",
"s. c #74BF9C",
"d. c #52B0A7",
"f. c #54B5AF",
"g. c #55B6AE",
"h. c #5ABFAF",
"j. c #51AFB6",
"k. c #51AFB7",
"l. c #51B0B7",
"z. c #56B9B3",
"x. c #59BEB1",
"c. c #51B0B9",
"v. c #5FC09A",
"b. c #60C39B",
"n. c #60C49C",
"m. c #61C49D",
"M. c #61C79F",
"N. c #62C69E",
"B. c #62C79E",
"V. c #63C99F",
"C. c #63CA9F",
"Z. c #64CA9F",
"A. c #5AC0B0",
"S. c #5AC4B8",
"D. c #63CBA0",
"F. c #64CAA0",
"G. c #64CCA1",
"H. c #6BCFA4",
"J. c #6CD1A5",
"K. c #70D3A7",
"L. c #71D4A8",
"P. c #5DC9C3",
"I. c #81C39F",
"U. c #9AC99F",
"Y. c #83CFA8",
"T. c #8AD9AF",
"R. c #8FD9AE",
"E. c #90D7AD",
"W. c #A4D0A3",
"Q. c #88E2B4",
"!. c #8AE6B7",
"~. c #8BE6B7",
"^. c #8DE9B9",
"/. c #97EEBE",
"(. c #98F0BF",
"). c #99F1BF",
"_. c #B8F8BF",
"`. c #A0F5C1",
"'. c #A9F8C2",
"]. c #C1FBC1",
/* pixels */
"                                                                                                                                ",
"                                                                                                                                ",
"                                                                                                                                ",
"                                                                                                                                ",
"                                                                                                                                ",
"                                                                                                                                ",
"                                                                                                                                ",
"                                                                                                                                ",
"                                                                                                                                ",
"                                                                                                                                ",
"                                                                                                                                ",
"                                                                                                                                ",
"                                                                                                                                ",
"                                                                                                                                ",
"                                                                                                                                ",
"                                                                                                                                ",
"                                                                                                                                ",
"                                                                                                                                ",
"                                                                                                                                ",
"                                                                                                                                ",
"                                                                                                                                ",
"                                                                          l t                                                   ",
"                                                                        a u.+.3                                                 ",
"                                                              h t w 0   b q.Q <                                                 ",
"                                                          u S s.i.8...M ( U h                                                   ",
"                                                        F I.T./.^.J.N.w.( s                                                     ",
"                                                      G W._.`.(.~.H.D.N.~ t     0                                               ",
"                                                    z U.].'.(.~.K.F.V.r...K s v H 0                                             ",
"                                                    S R.E.Y.Q.L.D.V.N.<...{ ) E v                                               ",
"                                                  h a.p.V Z ;.N.D.D.N.*.{ :.6.n                                                 ",
"                                                  h ] = + R C -.G.V.r.$.{ ,.5.8                                                 ",
"                                                  t Q & o O * 8.G.v.-...{ ,.5.p                                                 ",
"                                                  t 8.{ & $ ` b.r.-.{ { { :.2.8                                                 ",
"                                                  w 8.v.( #.r.<.$...{ { ..e.d.p                                                 ",
"                                                  > K U A { *...{ { { { :.x.k.x                                                 ",
"                                                  @ > c I { { { { { @.:.e.g.m #                                                 ",
"                                                    - P ..{ { { @.:.1.h.P.k.7                                                   ",
"                                                    2 _ :...@.:.e.A.S.z.c.B                                                     ",
"                                                      k J T ! 2.7.z.c.N 7                                                       ",
"                                                        % > > 2 5 5 9                                                           ",
"                                                          X       .                                                             ",
"                                                                                                                                ",
"                                                                                                                                ",
"                                                                                                                                ",
"                                                                                                                                ",
"                                                                                                                                ",
"                                                                                                                                ",
"                                                                                                                                ",
"                                                                                                                                ",
"                                                                                                                                ",
"                                                                                                                                ",
"                                                                                                                                ",
"                                                                                                                                ",
"                                                                                                                                ",
"                                                                                                                                ",
"                                                                                                                                ",
"                                                                                                                                ",
"                                                                                                                                ",
"                                                                                                                                ",
"                                                                                                                                ",
"                                                                                                                                ",
"                                                                                                                                ",
"                                                                                                                                ",
"                                                                                                                                "
};
