/* XPM */
static char *idling_right5[] = {
/* columns rows colors chars-per-pixel */
"64 64 187 2 ",
"   c None",
".  c #24323E",
"X  c #253540",
"o  c #333758",
"O  c #3B3E5C",
"+  c #3C3F5D",
"@  c #264648",
"#  c #28414C",
"$  c #2C474F",
"%  c #2F4B54",
"&  c #324D54",
"*  c #344F56",
"=  c #2B5050",
"-  c #2C5050",
";  c #2C5150",
":  c #2C5250",
">  c #2D5251",
",  c #2C5351",
"<  c #2D5452",
"1  c #2E5557",
"2  c #2E5757",
"3  c #2F5A55",
"4  c #2E5558",
"5  c #2E5659",
"6  c #2E565D",
"7  c #2E575E",
"8  c #2F5B5B",
"9  c #2F585F",
"0  c #305B56",
"q  c #305B57",
"w  c #315C57",
"e  c #315D58",
"r  c #335D58",
"t  c #325E59",
"y  c #365F5A",
"u  c #305C5C",
"i  c #305D5E",
"p  c #385F5A",
"a  c #33605B",
"s  c #346059",
"d  c #34605B",
"f  c #34615B",
"g  c #36605A",
"h  c #37615B",
"j  c #34625F",
"k  c #36675F",
"l  c #38615B",
"z  c #3E6059",
"x  c #305C62",
"c  c #376A62",
"v  c #376A63",
"b  c #3A6E64",
"n  c #376D6A",
"m  c #366A6F",
"M  c #3F7C6D",
"N  c #376D71",
"B  c #386F78",
"V  c #40585F",
"C  c #415D63",
"Z  c #496368",
"A  c #417E6F",
"S  c #48796C",
"D  c #4A7B6D",
"F  c #527B6B",
"G  c #597C6B",
"H  c #458975",
"J  c #458978",
"K  c #468B78",
"L  c #468C78",
"P  c #478C79",
"I  c #468D7C",
"U  c #4A927D",
"Y  c #49937E",
"T  c #4A937E",
"R  c #71778D",
"E  c #469287",
"W  c #4D9880",
"Q  c #4B9884",
"!  c #4D9B85",
"~  c #4F9D84",
"^  c #4E9D86",
"/  c #4C9C89",
"(  c #4A9A8D",
")  c #509C84",
"_  c #509F84",
"`  c #50A187",
"'  c #52A187",
"]  c #57A186",
"[  c #50A088",
"{  c #50A189",
"}  c #51A289",
"|  c #51A389",
" . c #51A38A",
".. c #52A488",
"X. c #51A48A",
"o. c #57A589",
"O. c #52A58C",
"+. c #52A68C",
"@. c #52A78F",
"#. c #54A88A",
"$. c #53A88C",
"%. c #54A88C",
"&. c #54A98D",
"*. c #54A98E",
"=. c #56AC8F",
"-. c #56AD8F",
";. c #56AE8E",
":. c #5DA98E",
">. c #57B08F",
",. c #52A790",
"<. c #53AA91",
"1. c #53AA92",
"2. c #53AB92",
"3. c #54AB93",
"4. c #56AE90",
"5. c #54AD96",
"6. c #50A899",
"7. c #54AE98",
"8. c #50AA9C",
"9. c #50AA9D",
"0. c #52AC9D",
"q. c #51AC9F",
"w. c #57B090",
"e. c #58B190",
"r. c #59B392",
"t. c #5CB393",
"y. c #5AB694",
"u. c #55B09B",
"i. c #5DBC98",
"p. c #5EBF99",
"a. c #5EBF9A",
"s. c #69B494",
"d. c #66BC98",
"f. c #74B79A",
"g. c #72BB9A",
"h. c #74BF9C",
"j. c #52B0A7",
"k. c #54B5AF",
"l. c #55B6AE",
"z. c #59BEAE",
"x. c #5ABFAF",
"c. c #51AFB6",
"v. c #51AFB7",
"b. c #51B0B7",
"n. c #56B9B2",
"m. c #59BEB1",
"M. c #51B0B9",
"N. c #5FC09A",
"B. c #5FC19A",
"V. c #5FC29B",
"C. c #60C49C",
"Z. c #61C49C",
"A. c #61C69E",
"S. c #62C69E",
"D. c #62C79E",
"F. c #62C89E",
"G. c #63C99F",
"H. c #63CA9F",
"J. c #64CA9F",
"K. c #5AC4B8",
"L. c #63CAA0",
"P. c #64CAA0",
"I. c #64CBA1",
"U. c #64CDA1",
"Y. c #6BCFA4",
"T. c #6CD1A5",
"R. c #70D3A7",
"E. c #71D4A8",
"W. c #5CC9C2",
"Q. c #82C49F",
"!. c #9AC99F",
"~. c #84CFA8",
"^. c #8ADAAF",
"/. c #8FD9AE",
"(. c #90D7AD",
"). c #A4D0A3",
"_. c #88E2B4",
"`. c #8AE6B7",
"'. c #8BE6B7",
"]. c #8DE9B9",
"[. c #97EEBE",
"{. c #99F1BF",
"}. c #B8F8BF",
"|. c #98F1C0",
" X c #A0F5C1",
".X c #A9F8C2",
"XX c #C1FBC1",
/* pixels */
"                                                                                                                                ",
"                                                                                                                                ",
"                                                                                                                                ",
"                                                                                                                                ",
"                                                                                                                                ",
"                                                                                                                                ",
"                                                                                                                                ",
"                                                                                                                                ",
"                                                                                                                                ",
"                                                                                                                                ",
"                                                                                                                                ",
"                                                                                                                                ",
"                                                                                                                                ",
"                                                                                                                                ",
"                                                                                                                                ",
"                                                                                                                                ",
"                                                                                                                                ",
"                                                                                                                                ",
"                                                                                                                                ",
"                                                                                                                                ",
"                                                                                                                                ",
"                                                    r l                                                                         ",
"                                                  3 o.s.p                                                                       ",
"                                                  < W t.b   q q w d                                                             ",
"                                                    d T ~ M ..r.d.h.D y                                                         ",
"                                                      d ~ y.D.T.].[.^.Q.F                                                       ",
"                                                q     r ! D.H.Y.'.|. X}.).G                                                     ",
"                                              q H c a K +.a.H.P.R.'.{..XXX!.z                                                   ",
"                                                c E / } ..-.D.H.J.E._.~.(./.D                                                   ",
"                                                  n 0.2.} &.D.L.H.D.:.Z V f.g.d                                                 ",
"                                                  8 9.3.} $.a.H.U.-.C R + * ] d                                                 ",
"                                                  8 9.2.} } -.N.P.r.& O o % W r                                                 ",
"                                                  i 9.2.} } ..-.a.N.) $ % ' w.w                                                 ",
"                                                  i j.u.} } } ..$.4.a.#.) N.>.q                                                 ",
"                                                  x c.m.+.} } } } ..&.} A T K >                                                 ",
"                                                  # m l.u.+.} } } } } } P k > @                                                 ",
"                                                    6 c.W.z.5.+.} } } } ..I =                                                   ",
"                                                      B M.n.K.m.7.2.+...,.( 5                                                   ",
"                                                        6 N b.l.0.6.Q T K j                                                     ",
"                                                            9 5 5 1 > > >                                                       ",
"                                                              .       X                                                         ",
"                                                                                                                                ",
"                                                                                                                                ",
"                                                                                                                                ",
"                                                                                                                                ",
"                                                                                                                                ",
"                                                                                                                                ",
"                                                                                                                                ",
"                                                                                                                                ",
"                                                                                                                                ",
"                                                                                                                                ",
"                                                                                                                                ",
"                                                                                                                                ",
"                                                                                                                                ",
"                                                                                                                                ",
"                                                                                                                                ",
"                                                                                                                                ",
"                                                                                                                                ",
"                                                                                                                                ",
"                                                                                                                                ",
"                                                                                                                                ",
"                                                                                                                                ",
"                                                                                                                                ",
"                                                                                                                                "
};
