/* XPM */
static char *idling_left3[] = {
/* columns rows colors chars-per-pixel */
"64 64 124 2 ",
"   c None",
".  c #24333E",
"X  c #253540",
"o  c #253D44",
"O  c #333758",
"+  c #3B3E5C",
"@  c #3C3F5D",
"#  c #274448",
"$  c #2C474F",
"%  c #2F4F52",
"&  c #2F4C54",
"*  c #334E55",
"=  c #2D5151",
"-  c #2D5451",
";  c #2E5757",
":  c #2E5856",
">  c #2E5658",
",  c #2F575F",
"<  c #2F5859",
"1  c #2F585F",
"2  c #315254",
"3  c #325B56",
"4  c #325C57",
"5  c #3F575E",
"6  c #375E59",
"7  c #305D5C",
"8  c #325D5C",
"9  c #385F5A",
"0  c #36665E",
"q  c #39625B",
"w  c #366665",
"e  c #3A6F64",
"r  c #3D786D",
"t  c #376E70",
"y  c #386E78",
"u  c #387174",
"i  c #415D63",
"p  c #486368",
"a  c #447669",
"s  c #407D6D",
"d  c #49786B",
"f  c #418072",
"g  c #478D79",
"h  c #49937E",
"j  c #4A947F",
"k  c #4C977F",
"l  c #71778D",
"z  c #469187",
"x  c #4E9C82",
"c  c #4B9884",
"v  c #4F9F86",
"b  c #4A9A8E",
"n  c #529880",
"m  c #509D84",
"M  c #559F85",
"N  c #4B9D92",
"B  c #52A086",
"V  c #50A188",
"C  c #51A48B",
"Z  c #52A68E",
"A  c #54A88A",
"S  c #53A88C",
"D  c #54A98E",
"F  c #56AE8E",
"G  c #5DA98E",
"H  c #53AA92",
"J  c #54AB93",
"K  c #54AD95",
"L  c #50A89A",
"P  c #55AF98",
"I  c #51AB9E",
"U  c #51AC9F",
"Y  c #57B091",
"T  c #58B190",
"R  c #5AB492",
"E  c #5CBA96",
"W  c #55B09B",
"Q  c #5EBE99",
"!  c #65BA97",
"~  c #77BB9C",
"^  c #52AFA7",
"/  c #53B0A3",
"(  c #54B5AE",
")  c #51B1B7",
"_  c #56B9B3",
"`  c #59BFB3",
"'  c #51B1B9",
"]  c #5FC19A",
"[  c #60C39C",
"{  c #62C79E",
"}  c #63CA9F",
"|  c #64CA9F",
" . c #7FC39E",
".. c #5AC0B0",
"X. c #5AC3B7",
"o. c #64CBA0",
"O. c #64CCA1",
"+. c #6BCFA4",
"@. c #7AC3A0",
"#. c #6BD0A5",
"$. c #70D3A7",
"%. c #71D4A8",
"&. c #5DCCC6",
"*. c #81C49E",
"=. c #8BCBA3",
"-. c #81CFA8",
";. c #84D0A9",
":. c #8DD4AB",
">. c #8BDAAF",
",. c #84DBB0",
"<. c #91DCB0",
"1. c #88E2B4",
"2. c #8BE7B7",
"3. c #8CE9B9",
"4. c #97EEBE",
"5. c #97F1BF",
"6. c #A0F2BF",
"7. c #BFFABF",
"8. c #9AF3C1",
"9. c #9EF3C0",
"0. c #A9F7C1",
"q. c #B9F9C0",
"w. c #BBFCC1",
"e. c #C2FFC2",
/* pixels */
"                                                                                                                                ",
"                                                                                                                                ",
"                                                                                                                                ",
"                                                                                                                                ",
"                                                                                                                                ",
"                                                                                                                                ",
"                                                                                                                                ",
"                                                                                                                                ",
"                                                                                                                                ",
"                                                                                                                                ",
"                                                                                                                                ",
"                                                                                                                                ",
"                                                                                                                                ",
"                                                                                                                                ",
"                                                                                                                                ",
"                                                                                                                                ",
"                                                                                                                                ",
"                                                                                  #                                             ",
"                                                                                                                                ",
"                                                                                                                                ",
"                                                                                                                                ",
"                                                                                                                                ",
"                                                                                                                                ",
"                                                                                                                                ",
"                                                                    - 4 4                                                       ",
"                                                            q q 3 0 j F B 3                                                     ",
"                                                        6 d @.-.! R Q Q F 0                                                     ",
"                                                      d *.<.4.8.3.#.} ] D g 0                                                   ",
"                                                    d =.7.w.9.5.2.+.} { D Z C e                                                 ",
"                                                  9  .q.e.0.8.2.$.o.} ] S D E k :                                               ",
"                                                  a >.6.:.;.1.%.| } { F C C v r                                                 ",
"                                                - n ,.~ 5 p G { } o.{ D V V Z N <                                               ",
"                                                o 2 M * @ l i F O.} ] D V V J I 8                                               ",
"                                                o % k & O + * T O.] F C V V W ^ 8                                               ",
"                                                - x { B & $ m [ ] F V V C K ` ) w                                               ",
"                                                : C { Q m A Q Y S V V V K .._ u                                                 ",
"                                                ; b K j s V D V V H H P ..&.' 1                                                 ",
"                                                  w z r g V H J P ..X./ ( ' y                                                   ",
"                                                    8 f h c L U U ( ' t < ,                                                     ",
"                                                      = = = ; > > > ,                                                           ",
"                                                        X         .                                                             ",
"                                                                                                                                ",
"                                                                                                                                ",
"                                                                                                                                ",
"                                                                                                                                ",
"                                                                                                                                ",
"                                                                                                                                ",
"                                                                                                                                ",
"                                                                                                                                ",
"                                                                                                                                ",
"                                                                                                                                ",
"                                                                                                                                ",
"                                                                                                                                ",
"                                                                                                                                ",
"                                                                                                                                ",
"                                                                                                                                ",
"                                                                                                                                ",
"                                                                                                                                ",
"                                                                                                                                ",
"                                                                                                                                ",
"                                                                                                                                ",
"                                                                                                                                ",
"                                                                                                                                ",
"                                                                                                                                "
};
