/* XPM */
static char *walking_left2[] = {
/* columns rows colors chars-per-pixel */
"64 64 133 2 ",
"   c None",
".  c #24333D",
"X  c #253440",
"o  c #333758",
"O  c #3B3F5E",
"+  c #3C3F5E",
"@  c #28494A",
"#  c #2B504F",
"$  c #2F4952",
"%  c #2C4F50",
"&  c #304C54",
"*  c #2C5251",
"=  c #2D5451",
"-  c #2D5455",
";  c #2F5A55",
":  c #2F5558",
">  c #2F5959",
",  c #2F5B5C",
"<  c #305B56",
"1  c #315C57",
"2  c #3F565D",
"3  c #335D58",
"4  c #305D5C",
"5  c #39625B",
"6  c #39625C",
"7  c #2F5A62",
"8  c #305A61",
"9  c #305F64",
"0  c #346460",
"q  c #366862",
"w  c #366A67",
"e  c #3D6D63",
"r  c #3B7266",
"t  c #397169",
"y  c #3D796D",
"u  c #386E76",
"i  c #387072",
"p  c #4A5C60",
"a  c #4E676C",
"s  c #586A6C",
"d  c #407166",
"f  c #47786B",
"g  c #407C6F",
"h  c #49786B",
"j  c #458774",
"k  c #458876",
"l  c #478D78",
"z  c #478E7D",
"x  c #498F7A",
"c  c #49937F",
"v  c #4B947E",
"b  c #71778D",
"n  c #4B9680",
"m  c #4B9784",
"M  c #4E9A82",
"N  c #4D9B86",
"B  c #4A988C",
"V  c #4B9C8F",
"C  c #4C9D90",
"Z  c #51A186",
"A  c #52A487",
"S  c #50A28A",
"D  c #52A58A",
"F  c #55A488",
"G  c #52A68E",
"H  c #54A88C",
"J  c #54A98D",
"K  c #56AD8D",
"L  c #58AE8E",
"P  c #4DA499",
"I  c #53AA92",
"U  c #54AA93",
"Y  c #56AE90",
"T  c #53AA94",
"R  c #55AC94",
"E  c #52AB9A",
"W  c #55AF98",
"Q  c #51AA9C",
"!  c #51AC9E",
"~  c #57B191",
"^  c #59B291",
"/  c #5CBB96",
"(  c #56B09B",
")  c #5EBF99",
"_  c #6AA48C",
"`  c #69B194",
"'  c #65BA98",
"]  c #62BE9A",
"[  c #6CB998",
"{  c #6FBC9A",
"}  c #53AFA2",
"|  c #52B0A6",
" . c #52B0A7",
".. c #54B5AD",
"X. c #59BEB2",
"o. c #52B1B8",
"O. c #5FC29B",
"+. c #60C29B",
"@. c #60C39C",
"#. c #61C49C",
"$. c #63C99F",
"%. c #7DC09C",
"&. c #7FC49F",
"*. c #5AC0B0",
"=. c #5BC4B8",
"-. c #6AC7A0",
";. c #64CAA0",
":. c #64CBA0",
">. c #6ACEA3",
",. c #6BCFA4",
"<. c #7FCCA6",
"1. c #6FD0A5",
"2. c #70D2A7",
"3. c #71D5A8",
"4. c #52B5C0",
"5. c #58C3CB",
"6. c #5ECDCA",
"7. c #86C4A2",
"8. c #8DCDA5",
"9. c #82D0A8",
"0. c #85D0AA",
"q. c #A6D8AA",
"w. c #B1DBAB",
"e. c #8BE6B7",
"r. c #8BE8B8",
"t. c #8EEBBA",
"y. c #97EDBD",
"u. c #99F1BF",
"i. c #B6F5BD",
"p. c #9AF3C1",
"a. c #9EF3C0",
"s. c #A8F7C2",
"d. c #BCFAC1",
/* pixels */
"                                                                                                                                ",
"                                                                                                                                ",
"                                                                                                                                ",
"                                                                                                                                ",
"                                                                                                                                ",
"                                                                                                                                ",
"                                                                                                                                ",
"                                                                                                                                ",
"                                                                                                                                ",
"                                                                                                                                ",
"                                                                                                                                ",
"                                                                                                                                ",
"                                                                                                                                ",
"                                                                                                                                ",
"                                                                                                                                ",
"                                                                                                                                ",
"                                                                                                                                ",
"                                                                                                                                ",
"                                                                                                                                ",
"                                                                                                                                ",
"                                                          5 3                                                                   ",
"                                                        f [ F ;                                                                 ",
"                                            5 6 1 1 ; e { -.v =                                                                 ",
"                                          h &.9.' ^ K F ] D t   <                                                               ",
"                                        h 8.d.s.t.3.:.O.~ G V y j <                                                             ",
"                                      5 %.q.w.i.a.e.2.$.O.Y R S q                                                               ",
"                                      d _ p s 7.y.u.e.,.$.) Y E w                                                               ",
"                                    3 x $ O b a 0.p.e.,.$.#.Y T C w                                                             ",
"                                    3 M & o + 2 <.r.2.:.$.$.) J T P i                                                           ",
"                                    1 ~ Z & & ` 1.>.:.$.$.$.@.J I *.o.9                                                         ",
"                                    < ^ #.Z L :.:.$.$.$.$.$.@.J S (  .,                                                         ",
"                                    * c A l / :.$.$.$.$.$.$.) J S I } i                                                         ",
"                                    @ 3 r D #.:.$.$.$.$.$.O.K D S I X.o.9                                                       ",
"                                    # g N K O.@.+.+.@.@.) K D S S D (  .4                                                       ",
"                                      q C G J J J J J J J D S S S S I Q 4                                                       ",
"                                        0 z G G S S S S S S S S S S W ! >                                                       ",
"                                          0 B N S D D S S S S S S R *...: .                                                     ",
"                                            - 3 k c n S D G I U ( =.6.o.7                                                       ",
"                                                % * 3 k c m E !  .5.4.u                                                         ",
"                                                      % * * : : : 8 7                                                           ",
"                                                        X         .                                                             ",
"                                                                                                                                ",
"                                                                                                                                ",
"                                                                                                                                ",
"                                                                                                                                ",
"                                                                                                                                ",
"                                                                                                                                ",
"                                                                                                                                ",
"                                                                                                                                ",
"                                                                                                                                ",
"                                                                                                                                ",
"                                                                                                                                ",
"                                                                                                                                ",
"                                                                                                                                ",
"                                                                                                                                ",
"                                                                                                                                ",
"                                                                                                                                ",
"                                                                                                                                ",
"                                                                                                                                ",
"                                                                                                                                ",
"                                                                                                                                ",
"                                                                                                                                ",
"                                                                                                                                ",
"                                                                                                                                "
};
