/* XPM */
static char *walking_up6[] = {
/* columns rows colors chars-per-pixel */
"64 64 84 1 ",
"  c None",
". c #24323C",
"X c #254345",
"o c #2C5351",
"O c #2D5552",
"+ c #2E5555",
"@ c #2F5A56",
"# c #2E5659",
"$ c #2E5958",
"% c #305955",
"& c #315C57",
"* c #325D58",
"= c #33625E",
"- c #34625C",
"; c #39605A",
": c #2F5A61",
"> c #305B64",
", c #356863",
"< c #386C62",
"1 c #366A69",
"2 c #386D77",
"3 c #47786B",
"4 c #4F7A6B",
"5 c #458A78",
"6 c #488E7B",
"7 c #49917D",
"8 c #4A947F",
"9 c #4C957E",
"0 c #4B9580",
"q c #4D9B86",
"w c #4D9C88",
"e c #4B9B8D",
"r c #4B9F96",
"t c #4C9F94",
"y c #51A289",
"u c #51A48A",
"i c #55A78A",
"p c #52A68D",
"a c #53A88E",
"s c #54AA8C",
"d c #56AD8F",
"f c #58A88B",
"g c #54AB93",
"h c #56AF90",
"j c #54AB94",
"k c #54AC94",
"l c #51AB9E",
"z c #51AC9F",
"x c #56B096",
"c c #5AB693",
"v c #55B09A",
"b c #5DBE98",
"n c #6AB695",
"m c #67BD99",
"M c #52AEA1",
"N c #53B3AB",
"B c #54B4AB",
"V c #51AFB7",
"C c #5FC19A",
"Z c #60C19A",
"A c #62C69D",
"S c #67C89F",
"D c #5AC0AE",
"F c #68CCA1",
"G c #7CC4A0",
"H c #7BCFA7",
"J c #70D3A7",
"K c #72D5A8",
"L c #53B7C3",
"P c #5ECEC5",
"I c #58C1CA",
"U c #5AC8D6",
"Y c #60D5D6",
"T c #80C49F",
"R c #80D0A8",
"E c #85E4B5",
"W c #89E6B6",
"Q c #8BE8B8",
"! c #94ECBB",
"~ c #98F0BE",
"^ c #9EF0BE",
"/ c #A1E0B0",
"( c #98F2C0",
") c #A0F5C1",
/* pixels */
"                                                                ",
"                                                                ",
"                                                                ",
"                                                                ",
"                                                                ",
"                                                                ",
"                                                                ",
"                                                                ",
"                                                                ",
"                                                                ",
"                                                                ",
"                                                                ",
"                                                                ",
"                                                                ",
"                                                                ",
"                                                                ",
"                                                                ",
"                                                                ",
"                                                                ",
"                                                                ",
"                                                                ",
"                                                                ",
"                                                                ",
"                                                                ",
"                                                                ",
"                                                                ",
"                                                                ",
"                                      *;                        ",
"                                     @in;                       ",
"                                     O9i*                       ",
"                                      O@                        ",
"                               @&;;                             ",
"                            O@<imRG4;                           ",
"                          $-6scFE(^/T3%                         ",
"                        +,eqyhCAJW!)~Hf-X                       ",
"                      :1ewppyuadZFKWQKb7*oo                     ",
"                     2VBvayyyyyydbZSSbdy085=                    ",
"                    :LYPDvgjgjjgkxxxxxkjkkvt+                   ",
"                    :LUINzzllzzlllllllzzzzMr+                   ",
"                     :>:###################+                    ",
"                      .                   .                     ",
"                                                                ",
"                                                                ",
"                                                                ",
"                                                                ",
"                                                                ",
"                                                                ",
"                                                                ",
"                                                                ",
"                                                                ",
"                                                                ",
"                                                                ",
"                                                                ",
"                                                                ",
"                                                                ",
"                                                                ",
"                                                                ",
"                                                                ",
"                                                                ",
"                                                                ",
"                                                                ",
"                                                                ",
"                                                                ",
"                                                                "
};
