/* XPM */
static char *walking_down0[] = {
/* columns rows colors chars-per-pixel */
"64 64 135 2 ",
"   c None",
".  c #23333E",
"X  c #283C4A",
"o  c #333758",
"O  c #333858",
"+  c #3B3E5D",
"@  c #3C3E5D",
"#  c #244144",
"$  c #2A404E",
"%  c #2B464F",
"&  c #2C4551",
"*  c #2E4B53",
"=  c #304952",
"-  c #2C5351",
";  c #2D5553",
":  c #2D5354",
">  c #2E5654",
",  c #2F5855",
"<  c #2E5658",
"1  c #2E575F",
"2  c #2F5B5B",
"3  c #305B56",
"4  c #315C57",
"5  c #3B545B",
"6  c #305D5C",
"7  c #385F5A",
"8  c #34605B",
"9  c #38625B",
"0  c #39625C",
"q  c #3A645D",
"w  c #2F5B61",
"e  c #346460",
"r  c #356665",
"t  c #396D63",
"y  c #366A6A",
"u  c #3A716B",
"i  c #3C7468",
"p  c #386D77",
"a  c #415E63",
"s  c #496368",
"d  c #427367",
"f  c #48786B",
"g  c #4A796C",
"h  c #438174",
"j  c #448374",
"k  c #448577",
"l  c #458976",
"z  c #478B7A",
"x  c #488D7B",
"c  c #498F7D",
"v  c #49907D",
"b  c #4B957F",
"n  c #72778E",
"m  c #72788E",
"M  c #4A9583",
"N  c #4C9782",
"B  c #4A9584",
"V  c #4D9982",
"C  c #4C9985",
"Z  c #4F9E85",
"A  c #4E9D88",
"S  c #4A998D",
"D  c #4C9E91",
"F  c #4B9D94",
"G  c #51A487",
"H  c #51A289",
"J  c #53A68A",
"K  c #56A58A",
"L  c #53A78D",
"P  c #59A489",
"I  c #53A88E",
"U  c #55AB8E",
"Y  c #56AD8E",
"T  c #5AAB8C",
"R  c #57B08F",
"E  c #4DA398",
"W  c #53A890",
"Q  c #54AB92",
"!  c #56AE90",
"~  c #53AC96",
"^  c #55AD94",
"/  c #54AD98",
"(  c #51AB9E",
")  c #51AC9F",
"_  c #57B190",
"`  c #58B291",
"'  c #5DB995",
"]  c #55B19B",
"[  c #5DBD98",
"{  c #65BB98",
"}  c #52AFA2",
"|  c #54B5AB",
" . c #54B4AC",
".. c #58BBA8",
"X. c #5ABFAE",
"o. c #51AFB7",
"O. c #51B0B8",
"+. c #53B5BD",
"@. c #5FC29B",
"#. c #60C39C",
"$. c #60C49C",
"%. c #62C99F",
"&. c #7AC29F",
"*. c #5BC4BC",
"=. c #63CAA0",
"-. c #65CDA2",
";. c #68CBA1",
":. c #6BCDA3",
">. c #6ACFA4",
",. c #7BC7A2",
"<. c #7ECBA5",
"1. c #7FCEA7",
"2. c #6BD2A5",
"3. c #6FD2A6",
"4. c #71D6A9",
"5. c #5CC8C2",
"6. c #81C49F",
"7. c #84D1AA",
"8. c #86D4AB",
"9. c #8ED7AC",
"0. c #97DEB0",
"q. c #8BE7B7",
"w. c #8AE8B8",
"e. c #8EE8B9",
"r. c #91ECBC",
"t. c #98F1BF",
"y. c #9DF2BF",
"u. c #A6F3BE",
"i. c #BEF9BF",
"p. c #9AF2C0",
"a. c #9BF4C1",
"s. c #A1F5C1",
"d. c #BAFBC1",
"f. c #BFFBC0",
"g. c #BAFCC1",
/* pixels */
"                                                                                                                                ",
"                                                                                                                                ",
"                                                                                                                                ",
"                                                                                                                                ",
"                                                                                                                                ",
"                                                                                                                                ",
"                                                                                                                                ",
"                                                                                                                                ",
"                                                                                                                                ",
"                                                                                                                                ",
"                                                                                                                                ",
"                                                                                                                                ",
"                                                                                                                                ",
"                                                                                                                                ",
"                                                                                                                                ",
"                                                                                                                                ",
"                                                                                                                                ",
"                                                                                                                                ",
"                                                                                                                                ",
"                                                                                                                                ",
"                                                                                                                                ",
"                                                                                                                                ",
"                                                                                                                                ",
"                                                                                                                                ",
"                                                      #                                                                         ",
"                                                            9 q q 0 4 4 3                                                       ",
"                                                        7 g 6.9.8.1.{ ` G e                                                     ",
"                                                      f &.0.i.g.s.p.w.2.$.N 8                                                   ",
"                                                    d ,.y.d.f.u.t.t.q.>.%.[ x -                                                 ",
"                                                  , T q.a.s.s.p.t.e.4.-.=.@.V -                                                 ",
"                                                  t ' 3.<.7.e.r.w.3.Y R [ ! N e                                                 ",
"                                                3 J #.K s 5 P :.;.K a = k H W D 2                                               ",
"                                                3 ` R a n + % ` _ a m @ X c ^ ) 6                                               ",
"                                                ; Z J = @ O * ` Y = @ o $ v ] ( 6                                               ",
"                                                > C L h X & C [ U j X $ h L X. .6                                               ",
"                                                > S ~ H c x C I H b z c H ] 5.O.w                                               ",
"                                                  r D ~ I V i l l i V Q ] *.+.p                                                 ",
"                                                    r S A L B u u M / ..| o.p                                                   ",
"                                                      : e D ( F F ( } E y 1                                                     ",
"                                                          > < < < < < >                                                         ",
"                                                            .       .                                                           ",
"                                                                                                                                ",
"                                                                                                                                ",
"                                                                                                                                ",
"                                                                                                                                ",
"                                                                                                                                ",
"                                                                                                                                ",
"                                                                                                                                ",
"                                                                                                                                ",
"                                                                                                                                ",
"                                                                                                                                ",
"                                                                                                                                ",
"                                                                                                                                ",
"                                                                                                                                ",
"                                                                                                                                ",
"                                                                                                                                ",
"                                                                                                                                ",
"                                                                                                                                ",
"                                                                                                                                ",
"                                                                                                                                ",
"                                                                                                                                ",
"                                                                                                                                ",
"                                                                                                                                ",
"                                                                                                                                "
};
