/* XPM */
static char *walking_right5[] = {
/* columns rows colors chars-per-pixel */
"64 64 150 2 ",
"   c None",
".  c #24333E",
"X  c #243540",
"o  c #333758",
"O  c #3C3F5D",
"+  c #3C3F5E",
"@  c #2A4349",
"#  c #2A424D",
"$  c #2B434F",
"%  c #2C424F",
"&  c #2F4851",
"*  c #2C4F50",
"=  c #324D55",
"-  c #2C5050",
";  c #2C5151",
":  c #2D5252",
">  c #2D5452",
",  c #2F5654",
"<  c #2E5657",
"1  c #2F5955",
"2  c #2F5A55",
"3  c #2E5658",
"4  c #2E5758",
"5  c #2E575A",
"6  c #2F5B5D",
"7  c #2F585F",
"8  c #2F595F",
"9  c #305955",
"0  c #305A56",
"q  c #315C57",
"w  c #325D59",
"e  c #35665E",
"r  c #35665F",
"t  c #38615B",
"y  c #39615B",
"u  c #3B625C",
"i  c #3A635D",
"p  c #305F65",
"a  c #346560",
"s  c #3A6D63",
"d  c #3C6D63",
"f  c #376F70",
"g  c #386E78",
"h  c #42635B",
"j  c #435A60",
"k  c #476267",
"l  c #57696B",
"z  c #407166",
"x  c #477064",
"c  c #49796C",
"v  c #428173",
"b  c #458375",
"n  c #448675",
"m  c #448776",
"M  c #478B77",
"N  c #4A937D",
"B  c #4A937E",
"V  c #4A947F",
"C  c #72788E",
"Z  c #4B9883",
"A  c #4C9881",
"S  c #4C9983",
"D  c #4C9A83",
"F  c #4E9A82",
"G  c #4D9B84",
"H  c #569E85",
"J  c #4C9F92",
"K  c #52A489",
"L  c #53A88B",
"P  c #53A88F",
"I  c #54A98C",
"U  c #54AA8C",
"Y  c #55AB8E",
"T  c #57AE8E",
"R  c #56AE8F",
"E  c #5AAB8D",
"W  c #58B08F",
"Q  c #54AB93",
"!  c #57AF90",
"~  c #54AD95",
"^  c #50A799",
"/  c #51AB9E",
"(  c #51AC9F",
")  c #57B196",
"_  c #58B090",
"`  c #59B492",
"'  c #5AB493",
"]  c #5BB996",
"[  c #57B198",
"{  c #57B298",
"}  c #56B19B",
"|  c #55B09D",
" . c #56B29C",
".. c #5EBF99",
"X. c #67A48C",
"o. c #62B997",
"O. c #64B996",
"+. c #67BC99",
"@. c #76BE9C",
"#. c #53B1A9",
"$. c #50ACB0",
"%. c #54B5B0",
"&. c #51B0B7",
"*. c #51B0B8",
"=. c #5FC09B",
"-. c #5FC29B",
";. c #60C29B",
":. c #60C39B",
">. c #60C39C",
",. c #61C39C",
"<. c #60C49C",
"1. c #61C49C",
"2. c #60C49D",
"3. c #68C09B",
"4. c #63C99F",
"5. c #63CA9F",
"6. c #64C99F",
"7. c #79C09C",
"8. c #5BC5BD",
"9. c #66C9A0",
"0. c #64CAA0",
"q. c #64CBA0",
"w. c #64CCA0",
"e. c #6ECBA2",
"r. c #69CFA3",
"t. c #6BCFA4",
"y. c #7CC5A0",
"u. c #7FCEA6",
"i. c #6BD1A5",
"p. c #6DD0A5",
"a. c #72D4A8",
"s. c #91C79F",
"d. c #85C3A1",
"f. c #8BD3AA",
"g. c #8DD6AB",
"h. c #90D9AE",
"j. c #87DDB0",
"k. c #A6DBAC",
"l. c #85E3B4",
"z. c #89E4B5",
"x. c #8BE7B7",
"c. c #8BE8B8",
"v. c #90E9B9",
"b. c #91EBBB",
"n. c #92EEBC",
"m. c #97F0BF",
"M. c #99F1BF",
"N. c #B7F8BF",
"B. c #9BF3C1",
"V. c #9FF5C1",
/* pixels */
"                                                                                                                                ",
"                                                                                                                                ",
"                                                                                                                                ",
"                                                                                                                                ",
"                                                                                                                                ",
"                                                                                                                                ",
"                                                                                                                                ",
"                                                                                                                                ",
"                                                                                                                                ",
"                                                                                                                                ",
"                                                                                                                                ",
"                                                                                                                                ",
"                                                                                                                                ",
"                                                                                                                                ",
"                                                                                                                                ",
"                                                                                                                                ",
"                                                                                                                                ",
"                                                            @                                                                   ",
"                                                                                                                                ",
"                                                                                                                                ",
"                                                                                                                                ",
"                                                                                                                                ",
"                                                                                                                                ",
"                                                                                                                                ",
"                                                                                                                                ",
"                                                                                                                                ",
"                                                                                                                                ",
"                                                                                                                                ",
"                                                                                                                                ",
"                                                                                                                                ",
"                                                                                                                                ",
"                                                      u h               2 9 q y u u y                                           ",
"                                                    d 7.s.x       > 9 s E o.+.u.g.h.y.c                                         ",
"                                                  a B e.j.H e 9 e B R +.x.n.n.V.N.k.f.@.y                                       ",
"                                                f J P ' q.:.' W ' -.r.l.m.B.M.v.d.l j X.z                                       ",
"                                              p $.| I ] :.4.q.w.q.4.q.a.x.v.c.O.k C + & M q                                     ",
"                                              7 %.| K L R ..:.:.:.:.1.6.t.p.i.W = + o $ m <                                     ",
"                                              7 &.8.} Q ~ } } ) I I ! -.1.1.1.:.S $ % b m *                                     ",
"                                                g *.#./ ( / ( ^ Z B V S S S S G S v v m w                                       ",
"                                                  7 5 5 5 5 5 < : : : : : : : : : : : :                                         ",
"                                                    .                               X                                           ",
"                                                                                                                                ",
"                                                                                                                                ",
"                                                                                                                                ",
"                                                                                                                                ",
"                                                                                                                                ",
"                                                                                                                                ",
"                                                                                                                                ",
"                                                                                                                                ",
"                                                                                                                                ",
"                                                                                                                                ",
"                                                                                                                                ",
"                                                                                                                                ",
"                                                                                                                                ",
"                                                                                                                                ",
"                                                                                                                                ",
"                                                                                                                                ",
"                                                                                                                                ",
"                                                                                                                                ",
"                                                                                                                                ",
"                                                                                                                                ",
"                                                                                                                                ",
"                                                                                                                                ",
"                                                                                                                                "
};
