/* XPM */
static char *walking_left7[] = {
/* columns rows colors chars-per-pixel */
"64 64 101 2 ",
"   c None",
".  c #212E3F",
"X  c #23333E",
"o  c #242D41",
"O  c #243143",
"+  c #243440",
"@  c #243645",
"#  c #253B43",
"$  c #253D44",
"%  c #343959",
"&  c #3A3D5C",
"*  c #2B4E4F",
"=  c #2D4551",
"-  c #3C415E",
";  c #2D5152",
":  c #2E5753",
">  c #2D5654",
",  c #2F5854",
"<  c #2E5758",
"1  c #2F5B5A",
"2  c #2F585F",
"3  c #305251",
"4  c #305B56",
"5  c #315D57",
"6  c #335F5A",
"7  c #365F5A",
"8  c #305D5E",
"9  c #37605A",
"0  c #34625D",
"q  c #305B62",
"w  c #366B67",
"e  c #3D736B",
"r  c #376D77",
"t  c #476066",
"y  c #4F676B",
"u  c #49776A",
"i  c #49786B",
"p  c #497B6D",
"a  c #448673",
"s  c #478F7E",
"d  c #49907B",
"f  c #49907D",
"g  c #747A8F",
"h  c #4B9580",
"j  c #4B9784",
"k  c #4D9882",
"l  c #4C9986",
"z  c #49978B",
"x  c #4B9C8E",
"c  c #4B9E93",
"v  c #51A48B",
"b  c #53A78C",
"n  c #53A88E",
"m  c #55AA8C",
"M  c #56AD8F",
"N  c #58B08F",
"B  c #53AA93",
"V  c #54AB93",
"C  c #55AD91",
"Z  c #50A899",
"A  c #54AE98",
"S  c #51AB9E",
"D  c #51AC9E",
"F  c #56B096",
"G  c #59B291",
"H  c #55B09B",
"J  c #5EBE99",
"K  c #68A88D",
"L  c #66BC99",
"P  c #77BD9E",
"I  c #53B1A9",
"U  c #51AFB7",
"Y  c #51B0B7",
"T  c #53B5BE",
"R  c #5FC19A",
"E  c #60C29B",
"W  c #60C29C",
"Q  c #61C59D",
"!  c #63C99F",
"~  c #5BC5BC",
"^  c #64CAA0",
"/  c #6ACFA4",
"(  c #6BD0A4",
")  c #6CD1A5",
"_  c #70D3A7",
"`  c #80C39E",
"'  c #83C9A3",
"]  c #8BCBA3",
"[  c #91DCAF",
"{  c #8AE5B6",
"}  c #8CE7B7",
"|  c #8BE8B9",
" . c #94EABB",
".. c #97ECBA",
"X. c #9AEFBC",
"o. c #A0F1BF",
"O. c #A7F4BF",
"+. c #B8F8BF",
"@. c #BFFABF",
"#. c #BBFCC1",
"$. c #C1FDC1",
/* pixels */
"                                                                                                                                ",
"                                                                                                                                ",
"                                                                                                                                ",
"                                                                                                                                ",
"                                                                                                                                ",
"                                                                                                                                ",
"                                                                                                                                ",
"                                                                                                                                ",
"                                                                                                                                ",
"                                                                                                                                ",
"                                                                                                                                ",
"                                                                                                                                ",
"                                                                                                                                ",
"                                                                                                                                ",
"                                                                                                                                ",
"                                                                                                                                ",
"                                                                                                                                ",
"                                                                                                                                ",
"                                                                                                                                ",
"                                                                                                                                ",
"                                                                                                                                ",
"                                                                                                                                ",
"                                                                                                                                ",
"                                                                                                                                ",
"                                                                                                                                ",
"                                                                                                                                ",
"                                                                            5                                                   ",
"                                                                          5 a 5                                                 ",
"                                                                            :                                                   ",
"                                                                      9 5 4 , :                                                 ",
"                                                                  7 p P L G N f 0 1                                             ",
"                                                                i ` [ X.| ) ^ J b x w                                           ",
"                                                              u ] @.#.o.{ / ! ! W H c 1                                         ",
"                                                            p ' +.$.O.} _ ^ ! ! J F S 8                                         ",
"                                                          3 K  .X...{ _ ^ ! ! R M V S 8                                         ",
"                                                    : : # o y P _ ( / ^ W W J M v H I 8                                         ",
"                                                  6 d f @ & g t m Q E J M m b v A ~ U q                                         ",
"                                                > s n k = % - = h C A A V B B H ~ T r                                           ",
"                                                < z l f e O . e f j Z D D D S I Y r                                             ",
"                                                  > ; ; * $ $ * ; ; > < < < < < 2                                               ",
"                                                    +                         X                                                 ",
"                                                                                                                                ",
"                                                                                                                                ",
"                                                                                                                                ",
"                                                                                                                                ",
"                                                                                                                                ",
"                                                                                                                                ",
"                                                                                                                                ",
"                                                                                                                                ",
"                                                                                                                                ",
"                                                                                                                                ",
"                                                                                                                                ",
"                                                                                                                                ",
"                                                                                                                                ",
"                                                                                                                                ",
"                                                                                                                                ",
"                                                                                                                                ",
"                                                                                                                                ",
"                                                                                                                                ",
"                                                                                                                                ",
"                                                                                                                                ",
"                                                                                                                                ",
"                                                                                                                                ",
"                                                                                                                                "
};
