/* XPM */
static char *walking_right0[] = {
/* columns rows colors chars-per-pixel */
"64 64 123 2 ",
"   c None",
".  c #24333E",
"X  c #253541",
"o  c #253D43",
"O  c #253F44",
"+  c #333757",
"@  c #3B3E5C",
"#  c #3C3F5D",
"$  c #274748",
"%  c #2B4C4F",
"&  c #2D4850",
"*  c #304C55",
"=  c #324D54",
"-  c #2D5253",
";  c #2E5552",
":  c #2E5657",
">  c #2F5856",
",  c #2E5759",
"<  c #2F5A5A",
"1  c #2F595F",
"2  c #315B57",
"3  c #315C57",
"4  c #3F575E",
"5  c #305B5A",
"6  c #305D5E",
"7  c #385F5A",
"8  c #316064",
"9  c #356765",
"0  c #366B68",
"q  c #376D6A",
"w  c #366A6E",
"e  c #3D786E",
"r  c #376C70",
"t  c #376E70",
"y  c #466266",
"u  c #4F686C",
"i  c #417368",
"p  c #427569",
"a  c #407D6E",
"s  c #48786B",
"d  c #417F71",
"f  c #458978",
"g  c #478D79",
"h  c #49937E",
"j  c #4B947D",
"k  c #73788E",
"l  c #469187",
"z  c #4B9784",
"x  c #4F9981",
"c  c #4C9A86",
"v  c #4A9A8E",
"b  c #519E84",
"n  c #4B9F93",
"m  c #4C9F92",
"M  c #50A18A",
"N  c #51A48B",
"B  c #52A58C",
"V  c #54A88B",
"C  c #54AA8E",
"Z  c #57AE8E",
"A  c #5CAD8F",
"S  c #57B08F",
"D  c #4DA092",
"F  c #4DA49A",
"G  c #53A890",
"H  c #54AA93",
"J  c #53AB96",
"K  c #55AF97",
"L  c #50A899",
"P  c #55AF99",
"I  c #51AB9E",
"U  c #51AC9E",
"Y  c #57B092",
"T  c #59B392",
"R  c #5BB996",
"E  c #5CB996",
"W  c #55B09B",
"Q  c #58B49A",
"!  c #5FBF9A",
"~  c #60B896",
"^  c #71B799",
"/  c #78BC9E",
"(  c #4EA7A0",
")  c #52AFA1",
"_  c #52B0A7",
"`  c #53B1A8",
"'  c #58BAA9",
"]  c #51AFB6",
"[  c #51B1B7",
"{  c #59BEB2",
"}  c #5FC09B",
"|  c #60C29B",
" . c #60C39C",
".. c #61C49C",
"X. c #63C89F",
"o. c #7FC39F",
"O. c #5AC1B4",
"+. c #63CAA0",
"@. c #64CBA1",
"#. c #6BCAA2",
"$. c #6BCFA4",
"%. c #6FCFA5",
"&. c #70D2A7",
"*. c #71D4A8",
"=. c #81C49F",
"-. c #8BCBA3",
";. c #84D0A9",
":. c #85D6AC",
">. c #8DD4AB",
",. c #8FDAAE",
"<. c #8AE6B7",
"1. c #8BE8B8",
"2. c #8CE8B8",
"3. c #91E9B9",
"4. c #95ECBC",
"5. c #97F0BF",
"6. c #99F1BF",
"7. c #9FF1BE",
"8. c #9FF3C0",
"9. c #A8F6C0",
"0. c #B9F9C0",
"q. c #BFFAC0",
"w. c #C2FFC3",
/* pixels */
"                                                                                                                                ",
"                                                                                                                                ",
"                                                                                                                                ",
"                                                                                                                                ",
"                                                                                                                                ",
"                                                                                                                                ",
"                                                                                                                                ",
"                                                                                                                                ",
"                                                                                                                                ",
"                                                                                                                                ",
"                                                                                                                                ",
"                                                                                                                                ",
"                                                                                                                                ",
"                                                                                                                                ",
"                                                                                                                                ",
"                                                                                                                                ",
"                                                                                                                                ",
"                                                                                                                                ",
"                                                                                                                                ",
"                                                                                                                                ",
"                                                                                                                                ",
"                                                                                                                                ",
"                                                                                                                                ",
"                                                                                                                                ",
"                                                                                                                                ",
"                                                  $       < > 2 3 3 2                                                           ",
"                                                        0 v M Z T ~ A i 7                                                       ",
"                                                      0 D Q  .@.*.1.3.,.=.s                                                     ",
"                                                    0 m K } X.$.<.5.8.0.q.-.s                                                   ",
"                                                  0 m J C  .X.$.<.5.6.9.w.0.o.7                                                 ",
"                                                < n J N C | X.@.&.2.4.;.>.7.:.p                                                 ",
"                                                q ) H M C | X.X.@.%./ u 4 ^ #.j ;                                               ",
"                                              5 F ' G M C  .@.X.@.S y k # = x - O                                               ",
"                                              6 I P N M C ! +.X.@.S = @ + = j % o                                               ",
"                                              6 _ W M M N Z } +.+...b & = b R f -                                               ",
"                                              8 [ O.K M M M Z !  ...} V b E Y c :                                               ",
"                                                r ( O.W G G N C C C C M a h J v ,                                               ",
"                                                  w ] _ ) { W G G G B M g e l 9                                                 ",
"                                                    1 < r [ ` I U L z h h d 6                                                   ",
"                                                          1 , : : , - - - -                                                     ",
"                                                            .           X                                                       ",
"                                                                                                                                ",
"                                                                                                                                ",
"                                                                                                                                ",
"                                                                                                                                ",
"                                                                                                                                ",
"                                                                                                                                ",
"                                                                                                                                ",
"                                                                                                                                ",
"                                                                                                                                ",
"                                                                                                                                ",
"                                                                                                                                ",
"                                                                                                                                ",
"                                                                                                                                ",
"                                                                                                                                ",
"                                                                                                                                ",
"                                                                                                                                ",
"                                                                                                                                ",
"                                                                                                                                ",
"                                                                                                                                ",
"                                                                                                                                ",
"                                                                                                                                ",
"                                                                                                                                ",
"                                                                                                                                "
};
