/* XPM */
static char *walking_up1[] = {
/* columns rows colors chars-per-pixel */
"64 64 104 2 ",
"   c None",
".  c #24323D",
"X  c #273F46",
"o  c #2D5351",
"O  c #2D5552",
"+  c #2D5355",
"@  c #2E5456",
"#  c #2F5A56",
"$  c #2E5659",
"%  c #2F5B5B",
"&  c #2F595F",
"*  c #305A56",
"=  c #325D57",
"-  c #335D5A",
";  c #305D5C",
":  c #35665E",
">  c #39615B",
",  c #3A635C",
"<  c #2F5A61",
"1  c #305F64",
"2  c #346560",
"3  c #346665",
"4  c #386C62",
"5  c #376F73",
"6  c #387275",
"7  c #47786B",
"8  c #48786A",
"9  c #468977",
"0  c #48907C",
"q  c #4A947D",
"w  c #4C9883",
"e  c #4E9D87",
"r  c #4A9A8E",
"t  c #4B9D92",
"y  c #4C9E92",
"u  c #51A289",
"i  c #51A48B",
"p  c #57A88B",
"a  c #53A88C",
"s  c #54A98D",
"d  c #56AD8F",
"f  c #59AA8D",
"g  c #57B08F",
"h  c #53A890",
"j  c #54AB91",
"k  c #54AB93",
"l  c #53AB95",
"z  c #53AC96",
"x  c #51AB9D",
"c  c #51AC9F",
"v  c #59B491",
"b  c #5CB593",
"n  c #55B09B",
"m  c #56B29D",
"M  c #5EBF99",
"N  c #60AF8F",
"B  c #60B392",
"V  c #60B996",
"C  c #61BB98",
"Z  c #6CBA98",
"A  c #52B0A7",
"S  c #53B1A8",
"D  c #54B5AD",
"F  c #58BDAF",
"G  c #4FAAB1",
"H  c #51AEB5",
"J  c #52B1B7",
"K  c #59BEB1",
"L  c #5FC19A",
"P  c #61C59D",
"I  c #62C89F",
"U  c #64C99F",
"Y  c #63CAA0",
"T  c #64CAA0",
"R  c #69C9A1",
"E  c #69CDA3",
"W  c #6BCFA4",
"Q  c #6DD0A5",
"!  c #70D3A7",
"~  c #71D4A8",
"^  c #77D8AB",
"/  c #81C59F",
"(  c #86D3AA",
")  c #83D4AB",
"_  c #8DD6AB",
"`  c #90D9AC",
"'  c #8AE6B6",
"]  c #8BE8B8",
"[  c #8CE9B9",
"{  c #92E8B7",
"}  c #90EBBA",
"|  c #91ECBB",
" . c #97F0BF",
".. c #98F1BF",
"X. c #9FF2BF",
"o. c #A0F3BF",
"O. c #A5F4BF",
"+. c #C0F9BE",
"@. c #98F2C0",
"#. c #A2F5C1",
"$. c #BFFBC0",
"%. c #C0FBC0",
"&. c #C1FDC1",
"*. c #CFFFC0",
/* pixels */
"                                                                                                                                ",
"                                                                                                                                ",
"                                                                                                                                ",
"                                                                                                                                ",
"                                                                                                                                ",
"                                                                                                                                ",
"                                                                                                                                ",
"                                                                                                                                ",
"                                                                                                                                ",
"                                                                                                                                ",
"                                                                                                                                ",
"                                                                                                                                ",
"                                                                                                                                ",
"                                                                                                                                ",
"                                                                                                                                ",
"                                                                                                                                ",
"                                                                                                                                ",
"                                                                                                                                ",
"                                                                                                                                ",
"                                                                                                                                ",
"                                                                                                                                ",
"                                                                                                                                ",
"                                                        = >                                                                     ",
"                                                      # p Z 7 > , >                                                             ",
"                                                      * b ^ ) ( _ / 8 #                                                         ",
"                                                      : V ] @.#.&.+.` N 4                                                       ",
"                                                    o q R | ..X.%.*.&.{ B 4                                                     ",
"                                                    : g Q } @...O.&.$.o.' f #                                                   ",
"                                                  o 0 L W ' ......X.o...[ C 4                                                   ",
"                                                  2 e P T ! ' }  .@. .[ ~ P i *                                                 ",
"                                                % t k M I T E ! ' } ' ! U T v =                                                 ",
"                                                ; x k d L I I U W Q W T I Y d *                                                 ",
"                                                ; A n i d L I I I I I I I P e O                                                 ",
"                                                1 J K h u d M P I I I I I L w O                                                 ",
"                                                  6 D n u i a d M P P P M s 9 o                                                 ",
"                                                  < H F h u u i s s s s s e - X                                                 ",
"                                                    5 D m h i u u u u i l r +                                                   ",
"                                                    < G D K n k k k k z y 3                                                     ",
"                                                      & 5 J S x x x c t 3                                                       ",
"                                                          < $ $ $ $ $ @                                                         ",
"                                                            .       .                                                           ",
"                                                                                                                                ",
"                                                                                                                                ",
"                                                                                                                                ",
"                                                                                                                                ",
"                                                                                                                                ",
"                                                                                                                                ",
"                                                                                                                                ",
"                                                                                                                                ",
"                                                                                                                                ",
"                                                                                                                                ",
"                                                                                                                                ",
"                                                                                                                                ",
"                                                                                                                                ",
"                                                                                                                                ",
"                                                                                                                                ",
"                                                                                                                                ",
"                                                                                                                                ",
"                                                                                                                                ",
"                                                                                                                                ",
"                                                                                                                                ",
"                                                                                                                                ",
"                                                                                                                                ",
"                                                                                                                                "
};
