/* XPM */
static char *walking_up3[] = {
/* columns rows colors chars-per-pixel */
"64 64 108 2 ",
"   c None",
".  c #24333D",
"X  c #2C5250",
"o  c #2D5552",
"O  c #2E5556",
"+  c #2F5A55",
"@  c #2E5759",
"#  c #2E5959",
"$  c #2E585E",
"%  c #305B56",
"&  c #315C57",
"*  c #335E58",
"=  c #305D5E",
"-  c #33605A",
";  c #34615B",
":  c #33615E",
">  c #38625B",
",  c #3B635C",
"<  c #3B645C",
"1  c #2F5A60",
"2  c #305F64",
"3  c #356660",
"4  c #356664",
"5  c #386D62",
"6  c #376E72",
"7  c #386E79",
"8  c #387275",
"9  c #417366",
"0  c #47786B",
"q  c #48786B",
"w  c #448672",
"e  c #458977",
"r  c #468C7A",
"t  c #488F7B",
"y  c #4A937D",
"u  c #4B967F",
"i  c #4C957E",
"p  c #4E9E87",
"a  c #4D9B88",
"s  c #4A9A8D",
"d  c #4B9E91",
"f  c #4C9D90",
"g  c #51A38A",
"h  c #52A588",
"j  c #57A589",
"k  c #52A68E",
"l  c #53A88C",
"z  c #54AA8E",
"x  c #57AF8F",
"c  c #5BAC8D",
"v  c #53AA93",
"b  c #54AB91",
"n  c #56AF95",
"m  c #55AF9A",
"M  c #51AB9D",
"N  c #51AC9F",
"B  c #56B096",
"V  c #59B391",
"C  c #55B09B",
"Z  c #5EBF99",
"A  c #68B291",
"S  c #69B695",
"D  c #65BB98",
"F  c #64BE9A",
"G  c #53B1A8",
"H  c #55B6AE",
"J  c #51AFB7",
"K  c #51AFB8",
"L  c #51B1B7",
"P  c #59BEB1",
"I  c #5FC09A",
"U  c #60C29B",
"Y  c #60C39C",
"T  c #61C59D",
"R  c #63C99F",
"E  c #64CA9F",
"W  c #5BC4BD",
"Q  c #64CAA0",
"!  c #65CCA1",
"~  c #6ACCA2",
"^  c #6BCFA4",
"/  c #7FCEA7",
"(  c #6CD0A5",
")  c #70D3A7",
"_  c #71D3A8",
"`  c #72D5A9",
"'  c #81C8A2",
"]  c #88CAA2",
"[  c #86D3AB",
"{  c #8AE6B7",
"}  c #8EEABA",
"|  c #90EABA",
" . c #92ECBC",
".. c #97EFBF",
"X. c #97F0BF",
"o. c #98F0BF",
"O. c #9FF2BF",
"+. c #A6F4BF",
"@. c #B9F5BC",
"#. c #B9F8BF",
"$. c #C1FBBF",
"%. c #99F2C0",
"&. c #A7F6C0",
"*. c #A8F7C1",
"=. c #BAFAC0",
"-. c #C1FBC0",
";. c #C1FDC1",
":. c #CDFFC0",
/* pixels */
"                                                                                                                                ",
"                                                                                                                                ",
"                                                                                                                                ",
"                                                                                                                                ",
"                                                                                                                                ",
"                                                                                                                                ",
"                                                                                                                                ",
"                                                                                                                                ",
"                                                                                                                                ",
"                                                                                                                                ",
"                                                                                                                                ",
"                                                                                                                                ",
"                                                                                                                                ",
"                                                                                                                                ",
"                                                                                                                                ",
"                                                                                                                                ",
"                                                                                                                                ",
"                                                                                                                                ",
"                                                    * >                                                                         ",
"                                                  + j S >                                                                       ",
"                                                  o i j *                                                                       ",
"                                                    o +                                                                         ",
"                                              %                                                                                 ",
"                                            % w %                                                                               ",
"                                              %         o % & > < , > %                                                         ",
"                                                      ; y x D / [ [ [ A 9                                                       ",
"                                                    - u I ` } %.%.*.;.@.] 0                                                     ",
"                                                  ; i Z ^ { o.X.O.=.:.:.$.] q                                                   ",
"                                                X t Z R ( | o.o.o.+.-.:.:.#.' 9                                                 ",
"                                                3 p T R ( | %.o.o.o.+.-.$.&.| c +                                               ",
"                                              # s b U R ^ { o.o.o.o.o.O.O.o. .F 5                                               ",
"                                              3 a z Z R Q ) { o.%.o.o.X.X.o.{ ~ h %                                             ",
"                                            # d k g x I R E _ { | ..o.%.o.{ ) ! V &                                             ",
"                                            = G C g g x I R Q ^ _ { | | { ) E Q x %                                             ",
"                                            2 L P k g g x I R R Q ^ ( ( ^ Q R I p o                                             ",
"                                              8 H m g g g x Z Y T R R R R R I z e X                                             ",
"                                              1 J W m k g g l l x Z U U U I B r *                                               ",
"                                                7 K H P m v v v b n B B B C f :                                                 ",
"                                                  $ 6 J G M M M M M M M N d 4                                                   ",
"                                                      $ @ @ @ @ @ @ @ @ @ O                                                     ",
"                                                        .               .                                                       ",
"                                                                                                                                ",
"                                                                                                                                ",
"                                                                                                                                ",
"                                                                                                                                ",
"                                                                                                                                ",
"                                                                                                                                ",
"                                                                                                                                ",
"                                                                                                                                ",
"                                                                                                                                ",
"                                                                                                                                ",
"                                                                                                                                ",
"                                                                                                                                ",
"                                                                                                                                ",
"                                                                                                                                ",
"                                                                                                                                ",
"                                                                                                                                ",
"                                                                                                                                ",
"                                                                                                                                ",
"                                                                                                                                ",
"                                                                                                                                ",
"                                                                                                                                ",
"                                                                                                                                ",
"                                                                                                                                "
};
