/* XPM */
static char *walking_left0[] = {
/* columns rows colors chars-per-pixel */
"64 64 121 2 ",
"   c None",
".  c #24333E",
"X  c #253541",
"o  c #253D43",
"O  c #253F44",
"+  c #333758",
"@  c #3B3E5C",
"#  c #3C3F5D",
"$  c #274748",
"%  c #2C474F",
"&  c #2B4C4F",
"*  c #2F4C53",
"=  c #324D54",
"-  c #324D55",
";  c #2F5153",
":  c #2E5552",
">  c #2E5754",
",  c #2E575B",
"<  c #2F5859",
"1  c #2F595F",
"2  c #305B57",
"3  c #315C57",
"4  c #3F575E",
"5  c #305B5A",
"6  c #325E5C",
"7  c #385F5A",
"8  c #2F5960",
"9  c #316064",
"0  c #356866",
"q  c #366B68",
"w  c #376D6A",
"e  c #366A6E",
"r  c #3D786E",
"t  c #376E70",
"y  c #466266",
"u  c #4F686C",
"i  c #417367",
"p  c #427569",
"a  c #407D6E",
"s  c #48786B",
"d  c #407F71",
"f  c #458978",
"g  c #478D79",
"h  c #49937E",
"j  c #4C947D",
"k  c #73788E",
"l  c #469187",
"z  c #4D9780",
"x  c #4B9784",
"c  c #4F9981",
"v  c #4C9A85",
"b  c #4A9A8E",
"n  c #519F86",
"m  c #4B9F93",
"M  c #4C9F92",
"N  c #50A188",
"B  c #52A48B",
"V  c #52A58C",
"C  c #54A88A",
"Z  c #53A88C",
"A  c #54AA8F",
"S  c #56AD8F",
"D  c #5CAD8E",
"F  c #57B08F",
"G  c #4DA092",
"H  c #4DA49A",
"J  c #53A992",
"K  c #54AA93",
"L  c #52A994",
"P  c #54AC95",
"I  c #50A899",
"U  c #55AF99",
"Y  c #51AB9D",
"T  c #51AC9E",
"R  c #57B092",
"E  c #59B291",
"W  c #5BB996",
"Q  c #5CB996",
"!  c #55B09B",
"~  c #58B49A",
"^  c #5FBF99",
"/  c #60B896",
"(  c #71B799",
")  c #78BC9E",
"_  c #53AFA2",
"`  c #53B1A9",
"'  c #58BAA9",
"]  c #51AFB6",
"[  c #51B0B6",
"{  c #59BEB2",
"}  c #5FC09B",
"|  c #60C39C",
" . c #61C49C",
".. c #63C99F",
"X. c #5AC1B4",
"o. c #64CAA0",
"O. c #64CBA1",
"+. c #6DCAA2",
"@. c #6BCFA4",
"#. c #6FCFA5",
"$. c #70D2A7",
"%. c #71D4A8",
"&. c #81C49F",
"*. c #8BCBA3",
"=. c #84D0A9",
"-. c #85D6AC",
";. c #8DD4AB",
":. c #8FDAAE",
">. c #8AE6B7",
",. c #8CE6B7",
"<. c #8BE8B8",
"1. c #91E9B9",
"2. c #95EBBC",
"3. c #98F0BF",
"4. c #9FF1BF",
"5. c #BFFABF",
"6. c #A0F3C0",
"7. c #A8F6C1",
"8. c #B9F9C0",
"9. c #BBFCC2",
"0. c #C2FFC3",
/* pixels */
"                                                                                                                                ",
"                                                                                                                                ",
"                                                                                                                                ",
"                                                                                                                                ",
"                                                                                                                                ",
"                                                                                                                                ",
"                                                                                                                                ",
"                                                                                                                                ",
"                                                                                                                                ",
"                                                                                                                                ",
"                                                                                                                                ",
"                                                                                                                                ",
"                                                                                                                                ",
"                                                                                                                                ",
"                                                                                                                                ",
"                                                                                                                                ",
"                                                                                                                                ",
"                                                                                                                                ",
"                                                                                                                                ",
"                                                                                                                                ",
"                                                                                                                                ",
"                                                                                                                                ",
"                                                                                                                                ",
"                                                                                                                                ",
"                                                                                                                                ",
"                                                            2 2 3 2 > <       $                                                 ",
"                                                        7 i D / E S N b q                                                       ",
"                                                      s &.:.1.<.%.O.| ~ G q                                                     ",
"                                                    s *.5.9.6.3.>.@...} P M q                                                   ",
"                                                  7 &.8.0.7.3.3.>.@...| A L M q                                                 ",
"                                                  p -.4.;.=.2.,.$.O.O.| A B L m <                                               ",
"                                                : j +.( 4 u ) #.O.....| A N K _ w                                               ",
"                                                O ; c - # k y F O.....| A N J ' H 5                                             ",
"                                                o & z - + @ - F O.....^ A N B U T 6                                             ",
"                                                ; f W n * % n  .O...} S B N N ! ` 6                                             ",
"                                                > v R Q n C }  .| ^ S N N N P X.[ 9                                             ",
"                                                > b L h a N A A A Z B J J ! X.H t                                               ",
"                                                  0 l r g N V J J J ! { _ ` ] e                                                 ",
"                                                    6 d h h x I T Y ` [ t < 1                                                   ",
"                                                      ; ; ; ; > > > , 8                                                         ",
"                                                        X           .                                                           ",
"                                                                                                                                ",
"                                                                                                                                ",
"                                                                                                                                ",
"                                                                                                                                ",
"                                                                                                                                ",
"                                                                                                                                ",
"                                                                                                                                ",
"                                                                                                                                ",
"                                                                                                                                ",
"                                                                                                                                ",
"                                                                                                                                ",
"                                                                                                                                ",
"                                                                                                                                ",
"                                                                                                                                ",
"                                                                                                                                ",
"                                                                                                                                ",
"                                                                                                                                ",
"                                                                                                                                ",
"                                                                                                                                ",
"                                                                                                                                ",
"                                                                                                                                ",
"                                                                                                                                ",
"                                                                                                                                "
};
