/* XPM */
static char *walking_left1[] = {
/* columns rows colors chars-per-pixel */
"64 64 124 2 ",
"   c None",
".  c #24333D",
"X  c #253440",
"o  c #323757",
"O  c #3C3F5D",
"+  c #294A4B",
"@  c #2B504F",
"#  c #2C504F",
"$  c #2C5150",
"%  c #2E5753",
"&  c #2D5455",
"*  c #2F5954",
"=  c #2E5658",
"-  c #2E5959",
";  c #2F585F",
":  c #2F5C5F",
">  c #3F5057",
",  c #325D57",
"<  c #3A5159",
"1  c #3D565C",
"2  c #3E575E",
"3  c #335F5A",
"4  c #33625F",
"5  c #34655D",
"6  c #38625B",
"7  c #39635C",
"8  c #3C665E",
"9  c #3D685F",
"0  c #305B62",
"q  c #305F65",
"w  c #346561",
"e  c #3D6D63",
"r  c #366B68",
"t  c #366C69",
"y  c #3F7A6B",
"u  c #386D77",
"i  c #387173",
"p  c #40575E",
"a  c #4F5D60",
"s  c #50676C",
"d  c #50686C",
"f  c #417266",
"g  c #4D7769",
"h  c #4A796B",
"j  c #417F70",
"k  c #468A77",
"l  c #458A79",
"z  c #488F7C",
"x  c #4B967F",
"c  c #50927C",
"v  c #71778D",
"b  c #4B9884",
"n  c #4D9B86",
"m  c #4A998C",
"M  c #4B9E93",
"N  c #4C9E91",
"B  c #4C9F94",
"V  c #52A186",
"C  c #50A288",
"Z  c #51A48B",
"A  c #54A689",
"S  c #52A68C",
"D  c #55A98B",
"F  c #53A88E",
"G  c #54A98D",
"H  c #57AD8E",
"J  c #58A98B",
"K  c #5CAD8E",
"L  c #53AA92",
"P  c #54AA93",
"I  c #55AD92",
"U  c #52AA95",
"Y  c #56AF94",
"T  c #50A899",
"R  c #54AD98",
"E  c #51AB9E",
"W  c #51AC9E",
"Q  c #57B090",
"!  c #57B094",
"~  c #5BB493",
"^  c #55B09B",
"/  c #5EBF9A",
"(  c #6AA58B",
")  c #6CB295",
"_  c #61BA97",
"`  c #6CBA98",
"'  c #74B698",
"]  c #77BC9C",
"[  c #53B1A4",
"{  c #53B1A9",
"}  c #54B4AE",
"|  c #5ABFAF",
" . c #59BEB1",
".. c #51B0B8",
"X. c #53B5BD",
"o. c #5FC19A",
"O. c #60C29B",
"+. c #65C29B",
"@. c #60C39C",
"#. c #62C79E",
"$. c #68C09B",
"%. c #62C89E",
"&. c #5BC4BC",
"*. c #67C8A0",
"=. c #64CAA0",
"-. c #65CCA1",
";. c #6BCFA4",
":. c #77C5A1",
">. c #7FC2A2",
",. c #78C8A3",
"<. c #7CCBA5",
"1. c #6DD0A5",
"2. c #71D4A8",
"3. c #5CC8C2",
"4. c #84AB8D",
"5. c #84C29D",
"6. c #84CAA3",
"7. c #8CD4AB",
"8. c #A0D7AB",
"9. c #88E2B4",
"0. c #8AE7B8",
"q. c #8EE7B8",
"w. c #8CE9B9",
"e. c #95ECBC",
/* pixels */
"                                                                                                                                ",
"                                                                                                                                ",
"                                                                                                                                ",
"                                                                                                                                ",
"                                                                                                                                ",
"                                                                                                                                ",
"                                                                                                                                ",
"                                                                                                                                ",
"                                                                                                                                ",
"                                                                                                                                ",
"                                                                                                                                ",
"                                                                                                                                ",
"                                                                                                                                ",
"                                                                                                                                ",
"                                                                                                                                ",
"                                                                                                                                ",
"                                                                                                                                ",
"                                                                                                                                ",
"                                                                                                                                ",
"                                                                                                                                ",
"                                                                                                                                ",
"                                                                                                                                ",
"                                                            6 ,                                                                 ",
"                                                    * , * e ` J *                                                               ",
"                                                  f K _ H A *.~ 5                                                               ",
"                                                h 6.e.w.2.#.@.Q z w                                                             ",
"                                              6 5.8.7.e.0.;.%.o.! N r                                                           ",
"                                              g 4.a s >.q.1.%.%.o.^ M -                                                         ",
"                                            8 ( > O v d <.1.%.%.O.Y E t                                                         ",
"                                            9 ' 2 o O p ,.1.%.%.O.G U B -                                                       ",
"                                            7 <.>.2 < ) 1.*.%.%.O.G L [ i                                                       ",
"                                            , $.9.] :.1.*.%.%.*.@.G S  ...q                                                     ",
"                                            % V K c +.-.%.%.%.%./ G Z ^ { :                                                     ",
"                                            + 5 y D #.%.%.%.%.o.H Z C P E :                                                     ",
"                                            @ j D #.*.%.%.%.o.H Z C Z R E :                                                     ",
"                                              5 C o.O.O.@./ H C C C S | } :                                                     ",
"                                              $ l I H G G F Z C C C R 3...0                                                     ",
"                                                4 m n C Z Z S L P R &.X.u                                                       ",
"                                                  & 3 k x x b T W { ..u                                                         ",
"                                                      # $ $ $ & = = ;                                                           ",
"                                                        X         .                                                             ",
"                                                                                                                                ",
"                                                                                                                                ",
"                                                                                                                                ",
"                                                                                                                                ",
"                                                                                                                                ",
"                                                                                                                                ",
"                                                                                                                                ",
"                                                                                                                                ",
"                                                                                                                                ",
"                                                                                                                                ",
"                                                                                                                                ",
"                                                                                                                                ",
"                                                                                                                                ",
"                                                                                                                                ",
"                                                                                                                                ",
"                                                                                                                                ",
"                                                                                                                                ",
"                                                                                                                                ",
"                                                                                                                                ",
"                                                                                                                                ",
"                                                                                                                                ",
"                                                                                                                                ",
"                                                                                                                                "
};
