/* XPM */
static char *walking_down3[] = {
/* columns rows colors chars-per-pixel */
"64 64 148 2 ",
"   c None",
".  c #24333F",
"X  c #323758",
"o  c #333758",
"O  c #3B3E5D",
"+  c #3B3F5D",
"@  c #2B474E",
"#  c #2C474F",
"$  c #2F4A52",
"%  c #334D55",
"&  c #2C5250",
"*  c #2E5653",
"=  c #2E5557",
"-  c #2F5854",
";  c #2E5659",
":  c #2F5958",
">  c #2E585E",
",  c #305B56",
"<  c #315C56",
"1  c #395158",
"2  c #3D545C",
"3  c #335F58",
"4  c #305D5E",
"5  c #33605A",
"6  c #34615B",
"7  c #33615E",
"8  c #38625B",
"9  c #38625C",
"0  c #2F5960",
"q  c #305F64",
"w  c #346662",
"e  c #356664",
"r  c #376960",
"t  c #386C62",
"y  c #3C7467",
"u  c #3E796B",
"i  c #376E72",
"p  c #386E78",
"a  c #387175",
"s  c #40575E",
"d  c #49595E",
"f  c #4E666B",
"g  c #4F686C",
"h  c #50686C",
"j  c #596A6C",
"k  c #417166",
"l  c #48786A",
"z  c #448672",
"x  c #458977",
"c  c #478D7A",
"v  c #488E7B",
"b  c #4F907B",
"n  c #49927C",
"m  c #4B947F",
"M  c #4D947D",
"N  c #71778D",
"B  c #72788E",
"V  c #4D9681",
"C  c #4E9D85",
"Z  c #4E9F88",
"A  c #4A9A8E",
"S  c #509E84",
"D  c #4B9D92",
"F  c #4C9D90",
"G  c #50A185",
"H  c #51A38A",
"J  c #52A688",
"K  c #57A589",
"L  c #52A78F",
"P  c #58A488",
"I  c #54AB8B",
"U  c #54AA8D",
"Y  c #57AF8F",
"T  c #5AAB8D",
"R  c #5CAD8D",
"E  c #53AA92",
"W  c #54AB93",
"Q  c #55AD91",
"!  c #54AD94",
"~  c #55AF9A",
"^  c #51AB9D",
"/  c #51AC9E",
"(  c #57B194",
")  c #58B191",
"_  c #5AB593",
"`  c #5CB894",
"'  c #56B199",
"]  c #5EBF99",
"[  c #67B291",
"{  c #60B694",
"}  c #6CB295",
"|  c #6AB695",
" . c #65BB98",
".. c #7BBE9F",
"X. c #53B1A8",
"o. c #55B6AD",
"O. c #51AFB6",
"+. c #51B1B7",
"@. c #59BEB1",
"#. c #51B0B8",
"$. c #5FC19A",
"%. c #5FC29C",
"&. c #60C39B",
"*. c #66C19B",
"=. c #60C39C",
"-. c #67C39C",
";. c #61C69D",
":. c #63C99F",
">. c #5BC4BD",
",. c #63CAA0",
"<. c #64CAA0",
"1. c #65CDA2",
"2. c #6ACCA2",
"3. c #6BCFA4",
"4. c #6ECFA4",
"5. c #7EC2A2",
"6. c #78C8A2",
"7. c #7CC8A3",
"8. c #7DCAA4",
"9. c #7ECDA6",
"0. c #6DD3A6",
"q. c #73D7AA",
"w. c #80BD9C",
"e. c #88C5A3",
"r. c #81C9A2",
"t. c #8BCBA3",
"y. c #85D3AA",
"u. c #87D7AD",
"i. c #B2DCAB",
"p. c #B3DCAB",
"a. c #87E2B4",
"s. c #89E5B6",
"d. c #8CEAB9",
"f. c #90E7B7",
"g. c #92EDBC",
"h. c #97EDBD",
"j. c #99F0BF",
"k. c #A6F5BF",
"l. c #B4F3BC",
"z. c #B9F5BC",
"x. c #BEF7BD",
"c. c #99F2C0",
"v. c #9CF7C3",
"b. c #A8F7C1",
"n. c #BAFAC0",
"m. c #C0FDC1",
"M. c #CEFFC0",
"N. c #D2FFC3",
/* pixels */
"                                                                                                                                ",
"                                                                                                                                ",
"                                                                                                                                ",
"                                                                                                                                ",
"                                                                                                                                ",
"                                                                                                                                ",
"                                                                                                                                ",
"                                                                                                                                ",
"                                                                                                                                ",
"                                                                                                                                ",
"                                                                                                                                ",
"                                                                                                                                ",
"                                                                                                                                ",
"                                                                                                                                ",
"                                                                                                                                ",
"                                                                                                                                ",
"                                                                                                                                ",
"                                                                                                                                ",
"                                                                          8 <                                                   ",
"                                                                        8 | K -                                                 ",
"                                                                        3 K M *                                                 ",
"                                                                          - *                                                   ",
"                                                                                  ,                                             ",
"                                                                                , z ,                                           ",
"                                                          < 9 9 9 8 3 < *         ,                                             ",
"                                                        k [ y.y.y.9. .Y n 6                                                     ",
"                                                      l t.z.m.b.c.c.d.q.$.m 5                                                   ",
"                                                    l t.m.N.M.n.j.h.c.d.0.] m 6                                                 ",
"                                                  k r.l.i.i.x.k.j.c.h.8.{ ;.$.v &                                               ",
"                                                - R f.e.j d w.h.c.h.5.f % S =.Z w                                               ",
"                                                t *.9.h N O 1 y.v.y.g B O # U ! A :                                             ",
"                                              < J 3.6.s O X 2 y.v.y.1 O X $ J Q C w                                             ",
"                                              3 _ 1.4.} 1 2 ..h.g.a.P @ $ V U J L D >                                           ",
"                                              < Y ,.<.4.6.7.u.s.q.2.` Y I U J J ' X.4                                           ",
"                                              * C %.:.<.0.-.b T _ J x _ ) J H L @.+.q                                           ",
"                                              & x Y $.:.:.;.I u r y G U J H H ~ o.a                                             ",
"                                                3 c ( $.&.&.$.Y m m J J J L ~ >.O.0                                             ",
"                                                  7 F ' ( ( ( ( ! W W E ' @.o.#.p                                               ",
"                                                    e D / ^ ^ ^ ^ ^ ^ ^ X.O.i >                                                 ",
"                                                      = ; ; ; ; ; ; ; ; ; 0                                                     ",
"                                                        .               .                                                       ",
"                                                                                                                                ",
"                                                                                                                                ",
"                                                                                                                                ",
"                                                                                                                                ",
"                                                                                                                                ",
"                                                                                                                                ",
"                                                                                                                                ",
"                                                                                                                                ",
"                                                                                                                                ",
"                                                                                                                                ",
"                                                                                                                                ",
"                                                                                                                                ",
"                                                                                                                                ",
"                                                                                                                                ",
"                                                                                                                                ",
"                                                                                                                                ",
"                                                                                                                                ",
"                                                                                                                                ",
"                                                                                                                                ",
"                                                                                                                                ",
"                                                                                                                                ",
"                                                                                                                                ",
"                                                                                                                                "
};
