/* XPM */
static char *walking_down6[] = {
/* columns rows colors chars-per-pixel */
"64 64 104 2 ",
"   c None",
".  c #24333F",
"X  c #283C4A",
"o  c #323657",
"O  c #3B3E5C",
"+  c #3C3F5E",
"@  c #254346",
"#  c #2A404D",
"$  c #2E434E",
"%  c #2B4550",
"&  c #2A4454",
"*  c #2D4857",
"=  c #2D4858",
"-  c #304B53",
";  c #324D54",
":  c #2C5150",
">  c #2D5452",
",  c #2D5355",
"<  c #2E5557",
"1  c #2F5A55",
"2  c #2E5658",
"3  c #2F5859",
"4  c #325C57",
"5  c #335E58",
"6  c #33615D",
"7  c #34625E",
"8  c #34645D",
"9  c #39625B",
"0  c #39625C",
"q  c #3D635C",
"w  c #2F5A61",
"e  c #305B64",
"r  c #366963",
"t  c #366A69",
"y  c #3B7165",
"u  c #386D77",
"i  c #415C62",
"p  c #485C60",
"a  c #426064",
"s  c #4A6368",
"d  c #4F666A",
"f  c #437468",
"g  c #517E6E",
"h  c #438173",
"j  c #458877",
"k  c #44857A",
"l  c #46877C",
"z  c #478C79",
"x  c #45897E",
"c  c #488E7B",
"v  c #4A937E",
"b  c #4B957E",
"n  c #4C957E",
"m  c #73798F",
"M  c #4A9280",
"N  c #4B9680",
"B  c #4D9B82",
"V  c #4C9984",
"C  c #4E9C85",
"Z  c #4D9C88",
"A  c #4A9B8D",
"S  c #489790",
"D  c #499992",
"F  c #4C9F93",
"G  c #4B9F95",
"H  c #52A48A",
"J  c #57A589",
"K  c #52A68D",
"L  c #55A88A",
"P  c #54A98C",
"I  c #57AE8E",
"U  c #53A992",
"Y  c #54AB93",
"T  c #54AC93",
"R  c #54AC94",
"E  c #54AF98",
"W  c #50A99D",
"Q  c #51AB9E",
"!  c #51AC9F",
"~  c #6CA589",
"^  c #68A68D",
"/  c #6AB695",
"(  c #61B895",
")  c #66BD99",
"_  c #79BB9C",
"`  c #52AEA0",
"'  c #53B3AB",
"]  c #54B5AC",
"[  c #51AFB7",
"{  c #66C89F",
"}  c #5AC0AF",
"|  c #7CC4A0",
" . c #70D2A7",
".. c #52B4C3",
"X. c #5ECFC6",
"o. c #58C2CA",
"O. c #5AC8D6",
"+. c #60D5D6",
"@. c #8FC29C",
"#. c #80D0A8",
"$. c #86E6B6",
"%. c #8AE4B6",
"&. c #9CEDBC",
"*. c #98F3C1",
/* pixels */
"                                                                                                                                ",
"                                                                                                                                ",
"                                                                                                                                ",
"                                                                                                                                ",
"                                                                                                                                ",
"                                                                                                                                ",
"                                                                                                                                ",
"                                                                                                                                ",
"                                                                                                                                ",
"                                                                                                                                ",
"                                                                                                                                ",
"                                                                                                                                ",
"                                                                                                                                ",
"                                                                                                                                ",
"                                                                                                                                ",
"                                                                                                                                ",
"                                                                                                                                ",
"                                                                                                                                ",
"                                                                                                                                ",
"                                                                                                                                ",
"                                                                                                                                ",
"                                                                                                                                ",
"                                                                                                                                ",
"                                                                                                                                ",
"                                                                                                                                ",
"                                                                                                                                ",
"                                                                                                                                ",
"                                                  9 5                                                                           ",
"                                                9 / J 1                                                                         ",
"                                                5 J n >                                                                         ",
"                                                  1 >                                                                           ",
"                                                            0 0 5 4                                                             ",
"                                                        q g | #.) L y 5 >                                                       ",
"                                                    4 f ~ @.&.*.$.{ B b z 7 3                                                   ",
"                                                @ 8 J ^ d p _ %. .J a - h V A r <                                               ",
"                                            : : 5 v J s m + ; ( I i m O X M K Z A t w                                           ",
"                                          7 j v N H v $ O o % P C $ O o # c H K E ] [ u                                         ",
"                                        < F E R R T U x & = l V N k & * x U Y E } X.+...w                                       ",
"                                        < G ` Q ! ! ! Q S D D 6 6 D D S Q ! Q ! ' o.O...w                                       ",
"                                          < 2 2 2 2 2 2 3 3 , @ @ , 3 3 2 2 2 2 2 w e w                                         ",
"                                            .                                       .                                           ",
"                                                                                                                                ",
"                                                                                                                                ",
"                                                                                                                                ",
"                                                                                                                                ",
"                                                                                                                                ",
"                                                                                                                                ",
"                                                                                                                                ",
"                                                                                                                                ",
"                                                                                                                                ",
"                                                                                                                                ",
"                                                                                                                                ",
"                                                                                                                                ",
"                                                                                                                                ",
"                                                                                                                                ",
"                                                                                                                                ",
"                                                                                                                                ",
"                                                                                                                                ",
"                                                                                                                                ",
"                                                                                                                                ",
"                                                                                                                                ",
"                                                                                                                                ",
"                                                                                                                                ",
"                                                                                                                                "
};
