/* XPM */
static char *walking_down5[] = {
/* columns rows colors chars-per-pixel */
"64 64 183 2 ",
"   c None",
".  c #24333E",
"X  c #24343F",
"o  c #243E43",
"O  c #283D4A",
"+  c #323758",
"@  c #333858",
"#  c #3A3F5D",
"$  c #3B3F5D",
"%  c #3C3F5E",
"&  c #244144",
"*  c #264447",
"=  c #29414C",
"-  c #2A404D",
";  c #2B414D",
":  c #2A414E",
">  c #2C514F",
",  c #2C4651",
"<  c #314C55",
"1  c #324D56",
"2  c #334D57",
"3  c #344E56",
"4  c #2C5051",
"5  c #2C5250",
"6  c #2C5351",
"7  c #2D5456",
"8  c #2E5556",
"9  c #2E5557",
"0  c #2E5658",
"q  c #2E5758",
"w  c #2E5759",
"e  c #2F575F",
"r  c #2F5C5B",
"t  c #315B56",
"y  c #335C57",
"u  c #385058",
"i  c #325A58",
"p  c #375F5A",
"a  c #315E5C",
"s  c #33605B",
"d  c #35645E",
"f  c #38615B",
"g  c #3A615B",
"h  c #39625B",
"j  c #3B625C",
"k  c #3A635D",
"l  c #3B635D",
"z  c #3B645D",
"x  c #2F5862",
"c  c #305861",
"v  c #305C62",
"b  c #305E63",
"n  c #346561",
"m  c #356565",
"M  c #386B63",
"N  c #396D63",
"B  c #366B68",
"V  c #376C69",
"C  c #386F72",
"Z  c #47595D",
"A  c #43645B",
"S  c #496267",
"D  c #4E666C",
"F  c #51686C",
"G  c #49786B",
"H  c #417F72",
"J  c #407F73",
"K  c #438274",
"L  c #468B7A",
"P  c #478C79",
"I  c #478E7D",
"U  c #488B78",
"Y  c #498D7A",
"T  c #548D79",
"R  c #4A937D",
"E  c #4A937F",
"W  c #73788E",
"Q  c #478E80",
"!  c #4A9380",
"~  c #4B9581",
"^  c #4D9781",
"/  c #4E9B84",
"(  c #4F9F87",
")  c #469289",
"_  c #4C9988",
"`  c #4C9A88",
"'  c #4B9C8F",
"]  c #509D85",
"[  c #4B9E90",
"{  c #4B9E93",
"}  c #51A187",
"|  c #51A287",
" . c #50A189",
".. c #51A38A",
"X. c #52A689",
"o. c #52A58A",
"O. c #55A78A",
"+. c #52A68E",
"@. c #54A88C",
"#. c #55AC8E",
"$. c #56AD8E",
"%. c #4DA397",
"&. c #52A890",
"*. c #54AA91",
"=. c #54AB91",
"-. c #54AB92",
";. c #57AF90",
":. c #53AB95",
">. c #54AB94",
",. c #54AC95",
"<. c #55AE95",
"1. c #54AC96",
"2. c #55AE97",
"3. c #51AB9E",
"4. c #51AC9E",
"5. c #51AC9F",
"6. c #51AD9F",
"7. c #57B090",
"8. c #56B096",
"9. c #59B491",
"0. c #5EB593",
"q. c #5FB593",
"w. c #5EBD98",
"e. c #5EBE99",
"r. c #5EBF99",
"t. c #60B694",
"y. c #66BC99",
"u. c #64BE99",
"i. c #79BF9C",
"p. c #4EA8A1",
"a. c #51AEA0",
"s. c #54B5AC",
"d. c #59BEAF",
"f. c #51B0B6",
"g. c #55B8B0",
"h. c #59BFB0",
"j. c #5FC19A",
"k. c #61C59D",
"l. c #61C79E",
"z. c #62C79E",
"x. c #62C89E",
"c. c #63C99F",
"v. c #7CC39F",
"b. c #5AC1B1",
"n. c #5BC4B9",
"m. c #7DC0A1",
"M. c #7DC1A2",
"N. c #79C8A3",
"B. c #7ECBA5",
"V. c #7FCDA5",
"C. c #7FCEA7",
"Z. c #66D0A3",
"A. c #6BD0A4",
"S. c #74D9AB",
"D. c #52B4C2",
"F. c #59C4CE",
"G. c #5AC6CF",
"H. c #60D2CD",
"J. c #80BE9D",
"K. c #81C49F",
"L. c #8EC49C",
"P. c #88CEA7",
"I. c #85D2AA",
"U. c #86D2AA",
"Y. c #83D4AB",
"T. c #8DD6AC",
"R. c #A8DCAD",
"E. c #82E0B1",
"W. c #82E1B2",
"Q. c #8FE7B8",
"!. c #8DECBA",
"~. c #99E0B1",
"^. c #92EDBC",
"/. c #95ECBC",
"(. c #97EDBD",
"). c #BEF8BE",
"_. c #BEF9BF",
"`. c #99F1C0",
"'. c #99F2C0",
"]. c #9AF3C1",
"[. c #9FF4C1",
"{. c #A7F5C0",
"}. c #BAFBC2",
/* pixels */
"                                                                                                                                ",
"                                                                                                                                ",
"                                                                                                                                ",
"                                                                                                                                ",
"                                                                                                                                ",
"                                                                                                                                ",
"                                                                                                                                ",
"                                                                                                                                ",
"                                                                                                                                ",
"                                                                                                                                ",
"                                                                                                                                ",
"                                                                                                                                ",
"                                                                                                                                ",
"                                                                                                                                ",
"                                                                                                                                ",
"                                                                                                                                ",
"                                                                                                                                ",
"                                                                                &                                               ",
"                                                                                                                                ",
"                                                                                                                                ",
"                                                                                                                                ",
"                                                                                                                                ",
"                                                                                                                                ",
"                                                                                                                                ",
"                                                                                                                                ",
"                                                                                                                                ",
"                                                                                                                                ",
"                                                                                                                                ",
"                                                                                                                                ",
"                                                          f l l z f y t                                                         ",
"                                                A l   p G K.T.U.U.V.u.O.M 4                                                     ",
"                                              A L.i.T v.~._.}.[.`.`.!.A.9.E s 4                                                 ",
"                                              f V.W.Y.P.R._.{.`.`./.B.t.c.j.( L n                                               ",
"                                              N u.W.M.F Z J./.^.Q.M.D 3 ] k.w.*.[ B                                             ",
"                                            d X.c.0.S W # u N.S.0.S W # , @.;.X.:.%.V                                           ",
"                                          i P #.k.7.1 % @ 1 0.Z.7.1 % + = ~ X.| >.b.p.r                                         ",
"                                        4 I ..| #.w.^ = = Y w.k.w.U O = K ..+.>.d.H.G.b                                         ",
"                                        9 ' 1.*.*.8.1.` Q J ! / E J Q ` &.1.h.n.g.G.D.c                                         ",
"                                          m { 6.6.3.3.a.6.) a > a ) 6.a.6.6.s.f.C b x                                           ",
"                                            9 w w w w w w 9 * o * 9 w w w w w e                                                 ",
"                                              X                             .                                                   ",
"                                                                                                                                ",
"                                                                                                                                ",
"                                                                                                                                ",
"                                                                                                                                ",
"                                                                                                                                ",
"                                                                                                                                ",
"                                                                                                                                ",
"                                                                                                                                ",
"                                                                                                                                ",
"                                                                                                                                ",
"                                                                                                                                ",
"                                                                                                                                ",
"                                                                                                                                ",
"                                                                                                                                ",
"                                                                                                                                ",
"                                                                                                                                ",
"                                                                                                                                ",
"                                                                                                                                ",
"                                                                                                                                ",
"                                                                                                                                ",
"                                                                                                                                ",
"                                                                                                                                ",
"                                                                                                                                "
};
