/* XPM */
static char *walking_up0[] = {
/* columns rows colors chars-per-pixel */
"64 64 100 2 ",
"   c None",
".  c #24333E",
"X  c #244144",
"o  c #2C5351",
"O  c #2D5653",
"+  c #2E5456",
"@  c #2F5854",
"#  c #2E5658",
"$  c #2E575E",
"%  c #2F5B5B",
"&  c #2F5C5C",
"*  c #305B56",
"=  c #315C57",
"-  c #305D5C",
";  c #385F5A",
":  c #34605B",
">  c #36675F",
",  c #38625B",
"<  c #3A645C",
"1  c #2F5B61",
"2  c #356660",
"3  c #356665",
"4  c #396D62",
"5  c #366A69",
"6  c #386D77",
"7  c #427367",
"8  c #4A796B",
"9  c #488F7B",
"0  c #4B9681",
"q  c #4C9780",
"w  c #4C9881",
"e  c #4E9C83",
"r  c #4B9884",
"t  c #4D9C88",
"y  c #4A9A8D",
"u  c #4B9D91",
"i  c #4C9E92",
"p  c #52A487",
"a  c #51A38A",
"s  c #51A48B",
"d  c #52A68F",
"f  c #53A88C",
"g  c #54A98D",
"h  c #56AD8F",
"j  c #5AAB8D",
"k  c #4DA399",
"l  c #53A890",
"z  c #54AB93",
"x  c #53AB96",
"c  c #55AF99",
"v  c #51AB9E",
"b  c #51AC9E",
"n  c #59B292",
"m  c #5DB995",
"M  c #55B09A",
"N  c #5FBF9A",
"B  c #65BA97",
"V  c #52AEA2",
"C  c #54B5AB",
"Z  c #54B4AE",
"A  c #58BAA8",
"S  c #5ABFAF",
"D  c #51AFB7",
"F  c #51B0B8",
"G  c #53B5BD",
"H  c #5FC09A",
"J  c #60C39C",
"K  c #61C49C",
"L  c #63C99F",
"P  c #7AC29F",
"I  c #5BC5BC",
"U  c #63CAA0",
"Y  c #64CAA0",
"T  c #6ACFA4",
"R  c #7BC7A2",
"E  c #7FCFA7",
"W  c #6BD1A5",
"Q  c #6FD2A6",
"!  c #70D2A7",
"~  c #71D5A8",
"^  c #5CC9C2",
"/  c #81C49F",
"(  c #86D4AB",
")  c #8ED6AB",
"_  c #97DEB0",
"`  c #8AE7B7",
"'  c #8BE7B8",
"]  c #8BE9B9",
"[  c #8FEBBA",
"{  c #90EBBB",
"}  c #96F0BF",
"|  c #98F0BF",
" . c #9EF2BF",
".. c #A6F3BE",
"X. c #BEF8BE",
"o. c #99F3C1",
"O. c #A0F4C0",
"+. c #BBFBC1",
"@. c #BBFCC2",
"#. c #C0FBC0",
/* pixels */
"                                                                                                                                ",
"                                                                                                                                ",
"                                                                                                                                ",
"                                                                                                                                ",
"                                                                                                                                ",
"                                                                                                                                ",
"                                                                                                                                ",
"                                                                                                                                ",
"                                                                                                                                ",
"                                                                                                                                ",
"                                                                                                                                ",
"                                                                                                                                ",
"                                                                                                                                ",
"                                                                                                                                ",
"                                                                                                                                ",
"                                                                                                                                ",
"                                                                                                                                ",
"                                                                                                                                ",
"                                                                                                                                ",
"                                                                                                                                ",
"                                                                                                                                ",
"                                                                                                                                ",
"                                                                                                                                ",
"                                                                                                                                ",
"                                                                          X                                                     ",
"                                                        * * = , < < ,                                                           ",
"                                                      > p n B E ( ) / 8 ;                                                       ",
"                                                    : q J W ] o.o.+.X._ P 8                                                     ",
"                                                  o 9 N L T ` o.| ..#.@. .R 7                                                   ",
"                                                  o w H L Y ! ' } | O.O.o.` j @                                                 ",
"                                                  2 0 h H L L Q ` [ [ { ` ~ m 4                                                 ",
"                                                % i d a h H L Y T Q Q Q T Y K s *                                               ",
"                                                - v z a a h N K K L L L L L Y h *                                               ",
"                                                & v c s a s f h H L L U L K H e O                                               ",
"                                                - Z S l a a a a h N J J N h g r +                                               ",
"                                                1 F ^ c a a a a s g g g g s x y +                                               ",
"                                                  6 G I M l s a a a a a s x i 3                                                 ",
"                                                    6 D C A M z z z z d t y 3                                                   ",
"                                                      $ 5 k V v b b b u 2 o                                                     ",
"                                                          + # # # # # +                                                         ",
"                                                            .       .                                                           ",
"                                                                                                                                ",
"                                                                                                                                ",
"                                                                                                                                ",
"                                                                                                                                ",
"                                                                                                                                ",
"                                                                                                                                ",
"                                                                                                                                ",
"                                                                                                                                ",
"                                                                                                                                ",
"                                                                                                                                ",
"                                                                                                                                ",
"                                                                                                                                ",
"                                                                                                                                ",
"                                                                                                                                ",
"                                                                                                                                ",
"                                                                                                                                ",
"                                                                                                                                ",
"                                                                                                                                ",
"                                                                                                                                ",
"                                                                                                                                ",
"                                                                                                                                ",
"                                                                                                                                ",
"                                                                                                                                "
};
