/* XPM */
static char *walking_left5[] = {
/* columns rows colors chars-per-pixel */
"64 64 110 2 ",
"   c None",
".  c #24333E",
"X  c #243540",
"o  c #333758",
"O  c #3C3F5E",
"+  c #2A4349",
"@  c #2A424E",
"#  c #2C424F",
"$  c #2F4851",
"%  c #2C4F50",
"&  c #324E55",
"*  c #2C5150",
"=  c #2D5452",
"-  c #2F5654",
";  c #2F5A55",
":  c #2E5758",
">  c #2F595F",
",  c #305A56",
"<  c #315C57",
"1  c #325D59",
"2  c #35665F",
"3  c #38615B",
"4  c #3A635D",
"5  c #305F65",
"6  c #346560",
"7  c #3A6D63",
"8  c #3C6D63",
"9  c #376F70",
"0  c #386E78",
"q  c #42635B",
"w  c #445A60",
"e  c #476267",
"r  c #57696C",
"t  c #407166",
"y  c #477064",
"u  c #49796B",
"i  c #428173",
"p  c #458375",
"a  c #448776",
"s  c #478B77",
"d  c #4A937E",
"f  c #4A947F",
"g  c #72788E",
"h  c #4C9781",
"j  c #4B9883",
"k  c #4E9982",
"l  c #4D9A84",
"z  c #569F85",
"x  c #4C9F92",
"c  c #52A489",
"v  c #53A88C",
"b  c #53A88F",
"n  c #55AB8E",
"m  c #56AE8F",
"M  c #5AAB8D",
"N  c #54AB90",
"B  c #54AC92",
"V  c #50A798",
"C  c #51AB9E",
"Z  c #57B196",
"A  c #59B190",
"S  c #59B492",
"D  c #5BB996",
"F  c #56B199",
"G  c #56B29C",
"H  c #5EBF99",
"J  c #67A48C",
"K  c #61B896",
"L  c #64B997",
"P  c #67BC99",
"I  c #68BF9B",
"U  c #76BE9C",
"Y  c #53B1A8",
"T  c #50ACB0",
"R  c #54B5B0",
"E  c #51B0B7",
"W  c #51B0B8",
"Q  c #5FC09A",
"!  c #60C29B",
"~  c #60C39C",
"^  c #61C59D",
"/  c #63C99F",
"(  c #79C09C",
")  c #5BC5BD",
"_  c #64CAA0",
"`  c #65CCA1",
"'  c #6ECBA3",
"]  c #69CFA3",
"[  c #6BCFA4",
"{  c #7CC5A0",
"}  c #7FCEA6",
"|  c #6CD1A5",
" . c #72D4A8",
".. c #91C79F",
"X. c #85C3A1",
"o. c #8BD3AA",
"O. c #8DD6AB",
"+. c #90D9AE",
"@. c #87DDB0",
"#. c #A6DBAC",
"$. c #85E3B4",
"%. c #89E4B5",
"&. c #8BE8B8",
"*. c #91EBBB",
"=. c #92EEBC",
"-. c #97EFBE",
";. c #99F1BF",
":. c #B7F8BF",
">. c #9BF2C0",
",. c #9FF5C1",
/* pixels */
"                                                                                                                                ",
"                                                                                                                                ",
"                                                                                                                                ",
"                                                                                                                                ",
"                                                                                                                                ",
"                                                                                                                                ",
"                                                                                                                                ",
"                                                                                                                                ",
"                                                                                                                                ",
"                                                                                                                                ",
"                                                                                                                                ",
"                                                                                                                                ",
"                                                                                                                                ",
"                                                                                                                                ",
"                                                                                                                                ",
"                                                                                                                                ",
"                                                                                                                                ",
"                                                                  +                                                             ",
"                                                                                                                                ",
"                                                                                                                                ",
"                                                                                                                                ",
"                                                                                                                                ",
"                                                                                                                                ",
"                                                                                                                                ",
"                                                                                                                                ",
"                                                                                                                                ",
"                                                                                                                                ",
"                                                                                                                                ",
"                                                                                                                                ",
"                                                                                                                                ",
"                                                                                                                                ",
"                                          3 4 4 3 < , ;               q 4                                                       ",
"                                        u { +.O.} P K M 7 ; =       y ..( 8                                                     ",
"                                      3 U o.#.:.,.=.=.%.I m f 2 , 2 z @.' d 6                                                   ",
"                                      t J w r X.*.;.>.-.$.] Q S A S ^ _ S v x 9                                                 ",
"                                    < s $ O g e L &.*.%. ._ _ ` ` ` / ! D n G T 5                                               ",
"                                    - a @ o O & A | | [ / ^ ~ ~ ! ! H m v c G R >                                               ",
"                                    * a p # @ k ! ^ ~ ^ Q m n n Z Z Z B N F ) E >                                               ",
"                                      1 a i i h k l k k k f d j V C C C C Y W 0                                                 ",
"                                        * * * * % * * * * * * * - : : : : : >                                                   ",
"                                          X                               .                                                     ",
"                                                                                                                                ",
"                                                                                                                                ",
"                                                                                                                                ",
"                                                                                                                                ",
"                                                                                                                                ",
"                                                                                                                                ",
"                                                                                                                                ",
"                                                                                                                                ",
"                                                                                                                                ",
"                                                                                                                                ",
"                                                                                                                                ",
"                                                                                                                                ",
"                                                                                                                                ",
"                                                                                                                                ",
"                                                                                                                                ",
"                                                                                                                                ",
"                                                                                                                                ",
"                                                                                                                                ",
"                                                                                                                                ",
"                                                                                                                                ",
"                                                                                                                                ",
"                                                                                                                                ",
"                                                                                                                                "
};
