/* XPM */
static char *idling_left4[] = {
/* columns rows colors chars-per-pixel */
"64 64 187 2 ",
"   c None",
".  c #24333E",
"X  c #253541",
"o  c #253F44",
"O  c #333758",
"+  c #3B3E5C",
"@  c #3C3F5E",
"#  c #294349",
"$  c #2C4750",
"%  c #2C4F52",
"&  c #304C55",
"*  c #324E54",
"=  c #344E56",
"-  c #2C5050",
";  c #2D5051",
":  c #2D5152",
">  c #2D5451",
",  c #2D5552",
"<  c #2E5652",
"1  c #2E5754",
"2  c #2E5557",
"3  c #2F5855",
"4  c #2F5955",
"5  c #2E5857",
"6  c #2E5658",
"7  c #2F5758",
"8  c #2E5659",
"9  c #2F5B5B",
"0  c #2F5C5B",
"q  c #2F5C5C",
"w  c #2F5D5E",
"e  c #305655",
"r  c #315755",
"t  c #305B56",
"y  c #305C57",
"u  c #315C57",
"i  c #3F575E",
"p  c #335D58",
"a  c #375F5A",
"s  c #385F5A",
"d  c #38605A",
"f  c #39615B",
"g  c #39625B",
"h  c #39635C",
"j  c #2F5860",
"k  c #2F5A60",
"l  c #305C62",
"z  c #346360",
"x  c #356661",
"c  c #376B63",
"v  c #366A64",
"b  c #386860",
"n  c #3A7269",
"m  c #376E70",
"M  c #376E72",
"N  c #3C7972",
"B  c #415D63",
"V  c #496368",
"C  c #47786C",
"Z  c #407D6E",
"A  c #49796B",
"S  c #4E7A6B",
"D  c #438573",
"F  c #468C7A",
"G  c #478D7A",
"H  c #488F7B",
"J  c #4A947E",
"K  c #71778D",
"L  c #438B82",
"P  c #4B9783",
"I  c #4D9780",
"U  c #4D9881",
"Y  c #4E9B81",
"T  c #4D9A86",
"R  c #4E9C84",
"E  c #49978B",
"W  c #4E9D88",
"Q  c #509C84",
"!  c #509F84",
"~  c #549E84",
"^  c #4B9D92",
"/  c #50A087",
"(  c #50A187",
")  c #52A086",
"_  c #50A188",
"`  c #51A289",
"'  c #51A389",
"]  c #51A38A",
"[  c #51A48A",
"{  c #51A48B",
"}  c #52A58B",
"|  c #57A589",
" . c #53A78D",
".. c #54A88B",
"X. c #53A88C",
"o. c #54A88C",
"O. c #54A88D",
"+. c #54A98E",
"@. c #56AD8F",
"#. c #56AE8E",
"$. c #57AE8E",
"%. c #5DA98E",
"&. c #4EA69B",
"*. c #53A991",
"=. c #53AA92",
"-. c #54AB91",
";. c #54AA93",
":. c #54AB93",
">. c #57AF90",
",. c #55AE93",
"<. c #54AB94",
"1. c #54AD96",
"2. c #50A89A",
"3. c #55AF99",
"4. c #50A99C",
"5. c #50AA9D",
"6. c #50AB9E",
"7. c #51AB9E",
"8. c #51AC9E",
"9. c #57B096",
"0. c #58B190",
"q. c #59B292",
"w. c #5DB292",
"e. c #55B09B",
"r. c #55B19C",
"t. c #5DBC98",
"y. c #5EBE99",
"u. c #5EBF9A",
"i. c #6AB594",
"p. c #65BA98",
"a. c #79BD9E",
"s. c #51ADA0",
"d. c #52AFA1",
"f. c #53B0A3",
"g. c #52B0A8",
"h. c #54B5AE",
"j. c #54B6AF",
"k. c #57BAAA",
"l. c #4FABB2",
"z. c #51AFB6",
"x. c #56BBB4",
"c. c #51B0B8",
"v. c #5FC09A",
"b. c #5FC19A",
"n. c #60C29B",
"m. c #60C39C",
"M. c #60C49C",
"N. c #61C59F",
"B. c #62C69E",
"V. c #62C89E",
"C. c #63C99F",
"Z. c #63CA9F",
"A. c #64CA9F",
"S. c #5AC0B1",
"D. c #5BC3B3",
"F. c #59C0B4",
"G. c #5AC3B8",
"H. c #63CAA0",
"J. c #64CAA0",
"K. c #64CCA1",
"L. c #6BCFA4",
"P. c #7AC4A0",
"I. c #7DC5A1",
"U. c #7DCCA6",
"Y. c #6CD1A5",
"T. c #70D3A7",
"R. c #71D4A8",
"E. c #80C49F",
"W. c #86C59F",
"Q. c #80D0A9",
"!. c #84D0A8",
"~. c #8DD4AB",
"^. c #91DCB0",
"/. c #88E2B4",
"(. c #8BE6B7",
"). c #8CE8B8",
"_. c #97EEBE",
"`. c #9EEDBC",
"'. c #97F0BF",
"]. c #99F1BF",
"[. c #AAE2B0",
"{. c #9AF3C1",
"}. c #9EF3C0",
"|. c #A8F7C1",
" X c #B9FBC2",
".X c #BFFAC0",
"XX c #C3FFC4",
/* pixels */
"                                                                                                                                ",
"                                                                                                                                ",
"                                                                                                                                ",
"                                                                                                                                ",
"                                                                                                                                ",
"                                                                                                                                ",
"                                                                                                                                ",
"                                                                                                                                ",
"                                                                                                                                ",
"                                                                                                                                ",
"                                                                                                                                ",
"                                                                                                                                ",
"                                                                                                                                ",
"                                                                                                                                ",
"                                                                                                                                ",
"                                                                                                                                ",
"                                                                                                                                ",
"                                                                                                                                ",
"                                                                                                                                ",
"                                                                                                                                ",
"                                                                                                                                ",
"                                                                                                                                ",
"                                                                        d p                                                     ",
"                                                                      s i.| 5                                                   ",
"                                                            d d u t 5 b w.I ,                                                   ",
"                                                        a C P.Q.p.0.#.) R n                                                     ",
"                                                      A E.^._.{.).Y.H.b.:.^ 0 ,                                                 ",
"                                                    d W..X X}.'.(.L.Z.m.9.s.N D t                                               ",
"                                                    S [.XX|.{.(.T.J.Z.y.>.k.&.v                                                 ",
"                                                  d I.`.~.!./.R.J.Z.m.#.{ e.s.9                                                 ",
"                                                  h U.a.i V %.B.Z.H.m.+._ *.7.w                                                 ",
"                                                  r ~ = @ K B #.K.H.y.X._ :.7.w                                                 ",
"                                                o r Y & O + & 0.K.b.#.{ _ :.7.w                                                 ",
"                                                , Y m.) & $ ! n.y.#._ _ _ :.7.w                                                 ",
"                                                1 { B.y.! ..y.>.X.{ _ _ _ r.g.w                                                 ",
"                                                5 E W H Z ) +.{ _ _ _ { 1.F.z.l                                                 ",
"                                                # 7 x c F _ _ _  .*.*.3.S.x.M                                                   ",
"                                                  % L T _  .:.:.e.S.G.f.j.l.j                                                   ",
"                                                    z F J P 2.7.8.j.c.m 7 j                                                     ",
"                                                      - - - 1 7 7 7 j                                                           ",
"                                                        X         .                                                             ",
"                                                                                                                                ",
"                                                                                                                                ",
"                                                                                                                                ",
"                                                                                                                                ",
"                                                                                                                                ",
"                                                                                                                                ",
"                                                                                                                                ",
"                                                                                                                                ",
"                                                                                                                                ",
"                                                                                                                                ",
"                                                                                                                                ",
"                                                                                                                                ",
"                                                                                                                                ",
"                                                                                                                                ",
"                                                                                                                                ",
"                                                                                                                                ",
"                                                                                                                                ",
"                                                                                                                                ",
"                                                                                                                                ",
"                                                                                                                                ",
"                                                                                                                                ",
"                                                                                                                                ",
"                                                                                                                                "
};
