/* XPM */
static char *g[] = {
/* columns rows colors chars-per-pixel */
"48 48 200 2 ",
"   c #29212C",
".  c #2A212C",
"X  c #2A212D",
"o  c #2B222D",
"O  c #2C222D",
"+  c #2C232D",
"@  c #2C232E",
"#  c #2D232E",
"$  c #2D232F",
"%  c #2D242E",
"&  c #2D242F",
"*  c #2E242F",
"=  c #2E2430",
"-  c #2F2530",
";  c #2F2531",
":  c #2F2632",
">  c #302630",
",  c #312630",
"<  c #302632",
"1  c #332833",
"2  c #342831",
"3  c #342832",
"4  c #322935",
"5  c #322936",
"6  c #332936",
"7  c #342834",
"8  c #372A34",
"9  c #362A36",
"0  c #372B37",
"q  c #382B35",
"w  c #382B37",
"e  c #392C37",
"r  c #3C2E37",
"t  c #3D2E37",
"y  c #322938",
"u  c #322A38",
"i  c #342B3A",
"p  c #352C39",
"a  c #352C3A",
"s  c #362C3A",
"d  c #372E3C",
"f  c #372E3D",
"g  c #372F3F",
"h  c #382B38",
"j  c #3B2D3B",
"k  c #3D2E38",
"l  c #3F2F38",
"z  c #3A2F3C",
"x  c #3B2F3C",
"c  c #3F3038",
"v  c #3F3039",
"b  c #39303F",
"n  c #3C303C",
"m  c #3E323E",
"M  c #403039",
"N  c #40313E",
"B  c #46353D",
"V  c #47353D",
"C  c #48363D",
"Z  c #3A3140",
"A  c #3A3142",
"S  c #3A3242",
"D  c #3B3242",
"F  c #3C3343",
"G  c #3C3344",
"H  c #3D3445",
"J  c #3E3545",
"K  c #3E3546",
"L  c #3E3547",
"P  c #3F3647",
"I  c #3F3648",
"U  c #423342",
"Y  c #463540",
"T  c #473540",
"R  c #473640",
"E  c #443442",
"W  c #453543",
"Q  c #463544",
"!  c #473644",
"~  c #483746",
"^  c #4A3942",
"/  c #4D3A41",
"(  c #4D3A42",
")  c #4A3847",
"_  c #4B3948",
"`  c #4C3A49",
"'  c #4D3A49",
"]  c #4F3B48",
"[  c #4F3C49",
"{  c #4F3C4B",
"}  c #4F3C4C",
"|  c #503C4A",
" . c #503D4A",
".. c #543F48",
"X. c #503D4D",
"o. c #513D4D",
"O. c #513E4D",
"+. c #554049",
"@. c #55404E",
"#. c #5A4248",
"$. c #58414B",
"%. c #5B434A",
"&. c #5B444A",
"*. c #5C444A",
"=. c #5C444B",
"-. c #59434C",
";. c #5A434C",
":. c #5A434D",
">. c #5E454C",
",. c #5F464C",
"<. c #5F464D",
"1. c #574252",
"2. c #5B4556",
"3. c #5C4657",
"4. c #5E4758",
"5. c #5F4859",
"6. c #5F485A",
"7. c #60474D",
"8. c #62484D",
"9. c #63484D",
"0. c #654A4E",
"q. c #664B4F",
"w. c #664B51",
"e. c #694D52",
"r. c #684D53",
"t. c #694D53",
"y. c #60485A",
"u. c #60495B",
"i. c #61495B",
"p. c #624A5B",
"a. c #634A5C",
"s. c #644B5D",
"d. c #644B5E",
"f. c #644C5E",
"g. c #664D5F",
"h. c #684D59",
"j. c #684D5A",
"k. c #765659",
"l. c #775659",
"z. c #74555B",
"x. c #77565A",
"c. c #72545D",
"v. c #664D60",
"b. c #664D61",
"n. c #674E61",
"m. c #674E62",
"M. c #684E61",
"N. c #684E62",
"B. c #684F62",
"V. c #694F62",
"C. c #684F63",
"Z. c #694F63",
"A. c #6A4F63",
"S. c #6A5063",
"D. c #6B5063",
"F. c #6C5163",
"G. c #6D5163",
"H. c #6D5263",
"J. c #6E5262",
"K. c #6F5363",
"L. c #6B5064",
"P. c #6B5164",
"I. c #6C5164",
"U. c #6E5264",
"Y. c #6F5365",
"T. c #705364",
"R. c #705464",
"E. c #715464",
"W. c #725565",
"Q. c #755764",
"!. c #755765",
"~. c #765766",
"^. c #775866",
"/. c #7B5A63",
"(. c #7A5A64",
"). c #785967",
"_. c #7C5B66",
"`. c #7C5B67",
"'. c #7E5C65",
"]. c #7F5D68",
"[. c #7F5E68",
"{. c #805D62",
"}. c #815E62",
"|. c #825E62",
" X c #825E63",
".X c #825F63",
"XX c #815F6A",
"oX c #856062",
"OX c #856162",
"+X c #896364",
"@X c #836069",
"#X c #84616A",
"$X c #85616A",
"%X c #85626B",
"&X c #896469",
"*X c #89646A",
"=X c #8A646A",
"-X c #90686B",
";X c #936A6D",
":X c #936B6D",
/* pixels */
"& s K K K K K K K K K K K y v oX%X5.0 o & + & & & & & & & & & & & & & & & & & & & & & & & & & & ",
"s s d K K K K K K K K K d ^ w./.^.s.} ..9.9.B o + & & & & & & & & & & & & & & & & & & & & & & & ",
"K d 4 b F F K K K K K Z : 9.-XW.n.V.V._.-X-Xr.k < & & & & & & & & & & & & & & & & & & & & & & & ",
"K K b 4 < 4 F K K K K Z : 9.-XW.n.V.V.J.W.W.'.l.k o & & & & & & & & & & & & & & & & & & & & & & ",
"K K K d s s s Z K K d x &.l._.J.V.V.V.V.n.n.j.*.q + & & & & & & & & & & & & & & & & & & & & & & ",
"K K K K K F 4 s Z Z x ( {.[.V.V.V.V.V.V.S.T.{ + & & & & & & & & & & & & & & & & & & & & & & & & ",
"K K K K K K F s < < &.{.Q.J.V.V.V.V.V.V.W.&X,.+ & & & & & & & & & & & & & & & & & & & & & & & & ",
"K K K K K K I s o + :.XXU.V.V.V.V.V.V.n.W.:X0.+ & & & & & & & & & & & & & & & & & & & & & & & & ",
"K K K Z Z Z Z n r < Y 5.5.s.V.V.V.V.V.U.Q.{.#.& & & & & & & & & & & & & & & & & & & & & & & & & ",
"K K F 4 : : < ,.l.k : 0 0 O.V.V.V.V.V.[.{.( 2 & & & & & & & & & & & & & & & & & & & & & & & & & ",
"y y n &.0.,.] h.).@._ Y & h O.n.3._ _ :.#.2 o & & & & & & & & & & & & & & & & & & & & & & & & & ",
"M e Y {.:X&XT.V.V.V.L.a.Y 2 0 1.~ & & & & & & & & & & & & & & & & & & & & & & & & & & & & & & & ",
"oXc.u.J.W.W.S.V.V.V.V.J.{.#.: 0 1 & & & & & & & & & & & & & & & & & & & & & & & & & & & & & & & ",
"@X).L.S.V.V.V.V.V.V.V.U.[.#.o o + & & & & & & & & & & & & & & & & & & & & & & & & & & & & & & & ",
"V.V.n.u.s.V.V.V.V.V.V.V.V.@.k < & & & & & & & & & & & & & & & & & & & & & & & & & & & & & & & & ",
"V.S.u.N { V.V.V.V.V.V.V.V.).l.k o & & & & & & & & & & & & & & & & & & & & & & & & & & & & & & & ",
"V.L.4.0 ..%X%XQ.n.V.L.g.O.:.*.q + & & & & & & & & & & & & & & & & & & & & & & & & & & & & & & & ",
"V.S.u.N *.oXoX/.T.S.g.1.0 + & & & & & & & & & & & & & & & & & & & & & & & & & & & & & & & & & & ",
"V.V.V.u.{ k v r.=XW.O.0 : + & & & & & & & & & & & & & & & & & & & & & & & & & & & & & & & & & & ",
"V.V.V.L.2.U : B 7. .j + & & & & & & & & & & & & & & & & & & & & & & & & & & & & & & & & & & & & ",
"V.V.V.V.U.u.h + & & & & & & & & & & & & & & & & & & & & & & & & & & & & & & & & & & & & & & & & ",
"V.V.V.V.U.u.h + + & & & & & & & & & & & & & & & & & & & & & & & & & & & & & & & & & & & & & & & ",
"_ ] ] ] ] ! 1 + & & & & & & & & & & & & & & & & & & & & & & & & & & & & & & & & & & & & & & & & ",
"& & & & & & & & & & & & & & & & & & & & & & & & & & & & & & & & & & & & & & & & & & & & & & & & ",
"& & & & & & & & & & & & & & & & & & & & & & & & & & & & & & & & & & & & & & & & & & & & & & & & ",
"& & & & & & & & & & & & & & & & & & & & & & & & & & & & & & & & & & & & & & & & + 1 ! ] ] _ _ _ ",
"& & & & & & & & & & & & & & & & & & & & & & & & & & & & & & & & & & & & & & & & o h u.U.V.V.V.V.",
"& & & & & & & & & & & & & & & & & & & & & & & & & & & & & & & & & & & & & & & & o h u.U.V.V.V.V.",
"& & & & & & & & & & & & & & & & & & & & & & & & & & & & & & & & & & & & + j  .7.B : U 2.L.V.V.V.",
"& & & & & & & & & & & & & & & & & & & & & & & & & & & & & & & & & + + : 0 O.W.=Xr.v v { u.V.V.V.",
"& & & & & & & & & & & & & & & & & & & & & & & & & & & & & & & & & + + 0 1.g.S.T./.oXoX*.N u.S.V.",
"& & & & & & & & & & & & & & & & & & & & & & & & & & & & & & & + 0 *.:.O.g.L.V.n.Q.%X%X..0 4.L.V.",
"& & & & & & & & & & & & & & & & & & & & & & & & & & & & & & & o k l.).V.V.V.V.V.V.V.V.{ N u.S.V.",
"& & & & & & & & & & & & & & & & & & & & & & & & & & & & & & & & < k @.V.V.V.V.V.V.V.V.s.u.n.V.V.",
"& & & & & & & & & & & & & & & & & & & & & & & & & & & & & & & + o o #.[.U.V.V.V.V.V.V.V.S.L.^.@X",
"& & & & & & & & & & & & & & & & & & & & & & & & & & & & & & & 1 0 : #.{.J.V.V.V.V.S.W.W.J.u.c.oX",
"& & & & & & & & & & & & & & & & & & & & & & & & & & & & & + & ~ 1.0 1 Y u.L.V.V.V.T.=X:X{.Y e M ",
"& & & & & & & & & & & & & & & & & & & & & & & + o C 7. ._ _ _ 3.n.O.h & Y ) @.).h.] ,.0.#.n y y ",
"& & & & & & & & & & & & & & & & & & & & & & & < r r.=XW.V.V.V.V.V.V.O.0 0 : r l.,.< : < 4 F K K ",
"& & & & & & & & & & & & & & & & & & & & & & o k l.'.W.S.V.V.V.V.V.V.g.5.5.Y < r n Z Z Z Z K K K ",
"& & & & & & & & & & & & & & & & & & & & & & o v +X%Xn.V.V.V.V.V.V.V.V.U.XX:.+ o s I K K K K K K ",
"& & & & & & & & & & & & & & & & & & & & & & < Y {.[.V.V.V.V.V.V.V.V.J.Q.{.*.< < s F K K K K K K ",
"& & & & & & & & & & & & & & & & & & & & & & ! a.J.J.V.V.V.V.V.V.V.V.[.{.( x Z Z s 4 F K K K K K ",
"& & & & & & & & & & & & & & & & & & & & & & ] L.V.V.V.V.V.V.V.V.J._.z.&.x d K K Z s s s d K K K ",
"& & & & & & & & & & & & & & & & & & & & & & _ V.V.V.V.V.V.V.V.n.W.-X9.: Z K K K K F 4 < 4 b K K ",
"& & & & & & & & & & & & & & & & & & & & & & _ V.V.V.V.V.V.V.V.n.W.-X9.: Z K K K K K F Z b 4 d K ",
"& & & & & & & & & & & & & & & & & & & & & & _ V.V.V.V.V.V.V.V.^./.w.^ d G K K K K K K K K d s s ",
"& & & & & & & & & & & & & & & & & & & & & & _ V.V.V.V.V.V.V.V.%XoXv y K K K K K K K K K K K s & "
};
