/* XPM */
static char *I[] = {
/* columns rows colors chars-per-pixel */
"48 48 125 2 ",
"   c #2E242F",
".  c #2F2530",
"X  c #302732",
"o  c #332935",
"O  c #392C37",
"+  c #362C3A",
"@  c #392D3A",
"#  c #3B303E",
"$  c #42323C",
"%  c #4B383F",
"&  c #3D3445",
"*  c #3F3648",
"=  c #433646",
"-  c #483741",
";  c #473947",
":  c #4C3944",
">  c #403749",
",  c #443949",
"<  c #4C3B4A",
"1  c #553F46",
"2  c #523E4D",
"3  c #52424F",
"4  c #5B434A",
"5  c #574253",
"6  c #584353",
"7  c #5E4759",
"8  c #5F485A",
"9  c #61474C",
"0  c #64494E",
"q  c #654B53",
"w  c #6A4E53",
"e  c #644B5D",
"r  c #694E5D",
"t  c #6A5057",
"y  c #6C525A",
"u  c #75565D",
"i  c #78575A",
"p  c #77585C",
"a  c #78585B",
"s  c #674E62",
"d  c #664D60",
"f  c #674E62",
"g  c #684E61",
"h  c #684E62",
"j  c #684F62",
"k  c #694F62",
"l  c #684F63",
"z  c #6A4F62",
"x  c #6A4F63",
"c  c #694F62",
"v  c #6A5062",
"b  c #6A5063",
"n  c #6B5063",
"m  c #6B5163",
"M  c #6C5163",
"N  c #6D5163",
"B  c #6D5263",
"V  c #6B5064",
"C  c #6B5164",
"Z  c #6B5065",
"A  c #6C5165",
"S  c #6C5164",
"D  c #745663",
"F  c #705364",
"G  c #705464",
"H  c #715464",
"J  c #735665",
"K  c #735666",
"L  c #755764",
"P  c #745666",
"I  c #765766",
"U  c #715464",
"Y  c #775867",
"T  c #7B5B60",
"R  c #785863",
"E  c #795963",
"W  c #7E5C60",
"Q  c #785966",
"!  c #7B5B66",
"~  c #7C5B64",
"^  c #7C5B66",
"/  c #7E5C65",
"(  c #7D5C67",
")  c #7F5D66",
"_  c #7E5C67",
"`  c #7E5C64",
"'  c #7E5D68",
"]  c #7F5D68",
"[  c #7F5E68",
"{  c #825E62",
"}  c #825F63",
"|  c #825F68",
" . c #835F68",
".. c #856062",
"X. c #846065",
"o. c #876264",
"O. c #876265",
"+. c #846166",
"@. c #886263",
"#. c #886366",
"$. c #8B6567",
"%. c #836068",
"&. c #836069",
"*. c #846169",
"=. c #85626A",
"-. c #896469",
";. c #8A6568",
":. c #89646A",
">. c #8E676A",
",. c #8F676A",
"<. c #8F676B",
"1. c #8F676A",
"2. c #8F686B",
"3. c #8F686B",
"4. c #926968",
"5. c #90686B",
"6. c #91696B",
"7. c #946B6B",
"8. c #90686C",
"9. c #92696C",
"0. c #926A6D",
"q. c #936A6D",
"w. c #956B6E",
"e. c #976C6D",
"r. c #976D6D",
/* pixels */
"                                                                                                ",
"+ + + + + + + + + .             o + + + + + + + + + + .   . + + + + + + + + + .                 ",
"& & & & & & & & & o X X       X + & & & & & & & & & & X   o & & & & & & & & & o X X X .         ",
"X + & & & & & & & & & # X   X # & & & & & & & & & & & X + & & & & & & & & & & & & & & +         ",
"+ & & & & & & & & & & & + X X & * & & & & & & & & & & X + & & & & & & & & & & & * & + + + .     ",
"& & & & & & & & & & & & & + X # & & & & & & & & & & & X + & & & & & & & & & & & & # o + & X     ",
"& & & o X o & & & & & & & +   X @ & & & & & + o & & & X + & & & & o X o & & & & + o # & & X     ",
"+ + + + + + & & & & & & & & + . + & & & + + + + & & & X + & & & & + X . + & & + + + & & & + o   ",
"X X o & & & & & & & & & & & & X + & & + X X + & & & & X + & & & & & @ X   + # o + & & & & & +   ",
"& & & & & & & & & & @ X X @ & X + & & & & & & & & & & X + & & & & & & # X . o & & & & & & & +   ",
"& & & & & & & & & & & + + + + . + & & & & & & & & * & X + & & & & & * & X X + & & & & & & & +   ",
"& & & & & & & & & & & & & + X   + & & & & & & & & & @ X + & & & & & & # o + & & & & & & & & +   ",
"& & & & & & & & & & & & & & # X + & & & & & & & o X X . . o & & & & + o & & & & & & & & & & +   ",
"& & & + o o o o + & & & & & & X : y y y y y y t 0 0 4 o $ q t < o + + + & & & & & & & & & & +   ",
"< < < $ # $ $ # $ < < < < 3 ; o 9 r.4.<.<.<.2.2.2.9.W @ 4 9.r.w @ X + & & & & & & & & & & & +   ",
"O.#.O.............O.#.#.O.;.p @ 9 9.Q F H H H H H P e O : Q 4.4.p ; & & & & & & & & & + o & +   ",
"%. .%.%.=.=.%.%.%.%. . . .9.@.@ # q ~ P h h h h h h e 2 6 B ~ 9.7.u 3 & & & & + & & & + X & +   ",
"h h h h h h h h h h h h h ] } : O - a E h h h h h h h h h h h ~ 2.4.y < > & & X + & & + X & +   ",
"h h h h h h h h h h h h h B D } @.i - 2 n n h h h h h h h h h B H H ( E < & & X + & & + X & +   ",
"h h h h h h h h h h h h h d B ] =.E 2 5 h n h h h h h h h h h h d d =.$.< & & X + & & & + + o   ",
"h h h h h h h h h h h h h h h h B H n h h h h h h h h h h h h h h h ( O.6 , & o + & & & & X     ",
"h h h h h h h h h h h h h h h h ( ;.H h h h h h h h h h h h h h h h B P O.q & & & & & & & X     ",
"V V V V V V V n h h h h h d B ] u 4 : 6 h h h h h h h h h h h h h d d H w.w + & * & & & + .     ",
"8 e e 8 8 8 8 e n n n n h B P } 4   o 2 h h h h h h h h h h h h n F e e W 4 X @ & & & +         ",
"O O O O O o O 2 n n h h h ] } : X o 5 e h h h h h h h h h h h h F ;.q @ @ o   X X X X .         ",
"              @ < < < < < 4 4 o @ 2 h A h h h h h h h h h h h Q ( w $ X 1 : + . o + + + + + o   ",
"                                = e e e h h h h h h h h h h h E i $ o - #.y & X + & & & & & +   ",
"                                o O O 2 n h h h h h h h h n n 2 $ 6 7 r <.y & X + & & & & & +   ",
"                                      @ 2 e V h V n h h h h h 5 < e V H 2.y & + & & & & & & +   ",
"                                        o 5 d h e e h h h h h h h h h H 2.y & & & & & & & & +   ",
"                                        . o 2 e $ < n n h h h h h h d H 2.y & & & & & + o & +   ",
"                                            @ < ; 6 h n h h h h h h d H 2.y & & & & & + X & +   ",
"                                              O 8 V h h h h h h h h h H 2.y & & & & & + o & +   ",
"                                              O 8 V h h h h h h h h h H 2.y & & & & & & & & +   ",
"                                              O 7 n h h h h h h h h h H 2.y & & & & & & & & +   ",
"                                              @ e A h h h h h h h h h H 2.y & & & & & & & & +   ",
"                                              # W ] h h h h h h h h h H 2.y & & + o & & & o .   ",
"                                              o 4 u ( B h h h h h h h H 2.w + + X X & > & X     ",
"                                                  9 ;.H d h h h h h h H 2.9   . . X # & # X     ",
"                                                  2 H n h h h h h h h H 2.9 X @ +   X X X       ",
"                                                  < h h h h h h h h h H <.q + & & + + + + .     ",
"                                                  < n n h h h h h h d H <.y & & & & & & & X     ",
"                                                  < n n h h h h h h d H <.y & & & & & & & X     ",
"                                                  < n n h h h h h h d H <.y & & & + & & & + o   ",
"                                                  < h h h h h h h h h H 2.y & & o X & & & & +   ",
"                                                  < h h h h h h h h h H 2.y & o   X & & & & +   ",
"                                                  < h h h h h h h h h H <.y & . X @ & & + & +   ",
"                                                  < h h h h h h h h h H <.y & X + & & + X & +   "
};
