/* XPM */
static char *T[] = {
/* columns rows colors chars-per-pixel */
"48 48 130 2 ",
"   c #2E242F",
".  c #2F2531",
"X  c #312732",
"o  c #342935",
"O  c #3A2D37",
"+  c #362C3A",
"@  c #3B2D39",
"#  c #3B303D",
"$  c #41323D",
"%  c #3D3445",
"&  c #3F3648",
"*  c #463542",
"=  c #483746",
"-  c #473A47",
";  c #4B3944",
":  c #433848",
">  c #4C3C4B",
",  c #533E47",
"<  c #513E4C",
"1  c #574046",
"2  c #584147",
"3  c #54414E",
"4  c #5A424A",
"5  c #574253",
"6  c #5A4554",
"7  c #5D4759",
"8  c #5F485A",
"9  c #644A4E",
"0  c #634B53",
"q  c #684C51",
"w  c #644B5C",
"e  c #684D59",
"r  c #6C525A",
"t  c #75565B",
"y  c #78575B",
"u  c #78585C",
"i  c #674E61",
"p  c #684E62",
"a  c #684F62",
"s  c #694F62",
"d  c #684F63",
"f  c #694F63",
"g  c #6A4F63",
"h  c #684E61",
"j  c #694F62",
"k  c #6A5062",
"l  c #6A5063",
"z  c #6B5063",
"x  c #6C5163",
"c  c #6D5163",
"v  c #6D5263",
"b  c #6E5262",
"n  c #6E5263",
"m  c #6F5363",
"M  c #6A5064",
"N  c #6B5064",
"B  c #6B5164",
"V  c #6C5165",
"C  c #6F5364",
"Z  c #6F5365",
"A  c #6B5164",
"S  c #775761",
"D  c #745663",
"F  c #705364",
"G  c #705464",
"H  c #715464",
"J  c #725565",
"K  c #735666",
"L  c #755764",
"P  c #755765",
"I  c #725564",
"U  c #775967",
"Y  c #7A5963",
"T  c #7C5A63",
"R  c #7E5C60",
"E  c #7F5C60",
"W  c #7F5C61",
"Q  c #7A5964",
"!  c #7A5A64",
"~  c #7C5B67",
"^  c #7C5C65",
"/  c #7E5C65",
"(  c #7D5C67",
")  c #7E5C67",
"_  c #7E5D67",
"`  c #7E5C67",
"'  c #7A5A69",
"]  c #7E5D68",
"[  c #7F5D68",
"{  c #7F5E68",
"}  c #7F5D68",
"|  c #805D62",
" . c #815E62",
".. c #825F63",
"X. c #815E64",
"o. c #825F68",
"O. c #835F68",
"+. c #866162",
"@. c #876162",
"#. c #866163",
"$. c #846065",
"%. c #846166",
"&. c #876267",
"*. c #876366",
"=. c #886263",
"-. c #896363",
";. c #886365",
":. c #886366",
">. c #836068",
",. c #836069",
"<. c #846069",
"1. c #87636A",
"2. c #87636B",
"3. c #846068",
"4. c #896369",
"5. c #8A6568",
"6. c #8B6668",
"7. c #8A646A",
"8. c #8F676A",
"9. c #8F686B",
"0. c #8F6869",
"q. c #90686B",
"w. c #91696C",
"e. c #926A6C",
"r. c #926A6D",
"t. c #936A6D",
"y. c #956B6E",
"u. c #976D6D",
"i. c #956C6C",
"p. c #996E6D",
/* pixels */
"    X % & & & & % X   $ +.<.a a a a a a a a >                                                   ",
"    X % & & & & % + . o 2 e z a a a a U Q 3 O                                                   ",
"    X % & & & & & & % @ O = w h a a a Y t O                                                     ",
"    X % & & & & & & 0 R w = # w z a a 3 O X                                                     ",
"  X + % & & & & & & r y.K 5 > w z a a w 1 o                                                     ",
"  + & & & & & & & & 0 $.L x a a a a a { ..; o                                                   ",
"  + & & & & & & & & : 6 $.) a a a a a x L ..2                                                   ",
"  X + + + + + + + + + > 6.t.{ Z M z a h x { 2                                                   ",
"  . X X X X X X X   o - u =.R w 7 w x Z a a < o .                                               ",
"  + % % % % % % + X   o @ $ @ O o * ..{ a a w 5 o                                               ",
"  + & & & & & & & + + # 2 , = = O X 2 w a a ' S @                                               ",
"  + & % % & & & & & % > ;.>.a a < o o < a a Y t @                                               ",
"  + % o + & & & & & % > ;.O.a a w 8 7 w a a 3 O X                                               ",
"  + & + + + % & & & % > ;.>.a a z z M a x ~ 1                                                   ",
"  + & & + X % & & & : 6 $.) a a a a a h K 9.9                                                   ",
"  + & & + X % & & & 0 $.L x a a a a a a K 9.9                                                   ",
"  + & & + X % & & & r t.K h a a a a a h K t.9                                                   ",
"  + & & + X % & & & r 9.K h a a a a a a x ..2                                                   ",
"  + & & + X % & & & r 9.K h a a a a a M w * o                                                   ",
"  + & & # + % & & & 3 r ) L a a a a a Z 8 X                                                     ",
"  + & & & & & & & & % > ;.O.a a a a a w 6 $ o                                                   ",
"  + & & & & & & & & % > ;.O.a a a a z > $ y 4                                                   ",
"  o + & & & & & & & % > 5.t.{ x a w > , q ) 4                                                   ",
"    X + % % % % % % % - u +...S K w $ 0 6.K =                                                   ",
"      X X X X X X X X o @ O ; ..t.$.w w K z =                                                   ",
"    . + X . + + + + + # 1 4 q T >.) Z a a a >                                                   ",
"  . o % + X + & & & % > ;.y.4.x a a a a a a =                                                   ",
"  + % & +   X + & & % > ;.<.F z a a a a a a =                                                   ",
"  + & & % +   + & & % > ;.O.a a a a a a a a 6 * X                                               ",
"  + & & & % o + & & % > ;.>.a a a a a a a a M 8 O                                               ",
"  + & & & & % % & & % > ;.>.a a a a a a a a M 8 O                                               ",
"  + & & & & & & & & % > ;.O.a a a a a a a a M 8 O                                               ",
"  + & & & & & & & & % > $.O.a a a a a a a a M 8 O                                               ",
"  + & & & & & & & & + $ +.O.a a a a a a a a M 8 O                                               ",
"  o + % & & & & & & + o 2 t { Z M M a a x { <.t @                                               ",
"    X % & & % % % % +     2 R w 7 w a a x ..=.t O                                               ",
"    X % & % o X X X .     o @ O o $ w Z w * # @ X                                               ",
"    . + + + + X   + . o 2 2 = = = > w Z w > +                                                   ",
"      X X o % + o % # ; ..{ a a a a a a a z < o .                                               ",
"    X + % % & & % & 0 ..L Z a a a a a a a a w 5 o                                               ",
"  X + & & & & & & & r t.F h a a a a a a a a M w < @                                             ",
"  + & & & & & & & & r 8.G h a a a a a a a a a z z >                                             ",
"  + & & & & & & & & r 8.K h a a a a a a a a a z z >                                             ",
"  + & & & & & & & & r e.<.K a a a a a a a a z w < @                                             ",
"  + & & & & & & & & r p.y.) a a a a a a a a M 8 O                                               ",
"  + & & & & & & & & r p.y.) a a a a a a a a M 8 O                                               ",
"  X + & % + % & & & 3 t 9.8.~ x a a a a a a 6 * X                                               ",
"    X % + X % & & & % > $.p.8.G a a a a a a =                                                   "
};
