/* XPM */
static char *dd6[] = {
/* columns rows colors chars-per-pixel */
"64 64 188 2 ",
"   c None",
".  c #25253F",
"X  c #423636",
"o  c #514536",
"O  c #251C41",
"+  c #281F42",
"@  c #262642",
"#  c #2B2646",
"$  c #2D284B",
"%  c #2C274B",
"&  c #332D4D",
"*  c #35324C",
"=  c #3A354A",
"-  c #2C2A53",
";  c #2F2E59",
":  c #332E53",
">  c #3A2F5A",
",  c #2F3257",
"<  c #313256",
"1  c #31375D",
"2  c #32385E",
"3  c #3D375C",
"4  c #2E3162",
"5  c #363D65",
"6  c #333B6D",
"7  c #383767",
"8  c #343E72",
"9  c #453A71",
"0  c #4C3D78",
"q  c #5A3D7C",
"w  c #523B75",
"e  c #46366A",
"r  c #364167",
"t  c #35436B",
"y  c #3C476B",
"u  c #374274",
"i  c #384376",
"p  c #364B74",
"a  c #394578",
"s  c #3D4A79",
"d  c #3C4D71",
"f  c #37537E",
"g  c #3C547C",
"h  c #3E5177",
"j  c #4F4949",
"k  c #534E4A",
"l  c #544A42",
"z  c #5C5040",
"x  c #4A4C56",
"c  c #6E6558",
"v  c #706659",
"b  c #464663",
"n  c #49586B",
"m  c #585B60",
"M  c #47457F",
"N  c #455575",
"B  c #485777",
"V  c #41577C",
"C  c #465C7B",
"Z  c #4E667F",
"A  c #686065",
"S  c #656E74",
"D  c #807C71",
"F  c #8B8375",
"G  c #8F8778",
"H  c #928A7B",
"J  c #3E4D80",
"K  c #3A5682",
"L  c #3B5884",
"P  c #3D5D8A",
"I  c #415586",
"U  c #445D84",
"Y  c #4A5B85",
"T  c #425488",
"R  c #455988",
"E  c #49558F",
"W  c #4B5B94",
"Q  c #485991",
"!  c #56599C",
"~  c #535697",
"^  c #4D4584",
"/  c #7B4C9E",
"(  c #694B99",
")  c #466287",
"_  c #4D6583",
"`  c #44628A",
"'  c #4C6689",
"]  c #536B8A",
"[  c #436693",
"{  c #446995",
"}  c #476E9A",
"|  c #4C6B9C",
" . c #4C6696",
".. c #506B9F",
"X. c #4B729B",
"o. c #5E7E9B",
"O. c #547199",
"+. c #64748B",
"@. c #75768C",
"#. c #6558AA",
"$. c #6954A7",
"%. c #7D52A6",
"&. c #735AB4",
"*. c #4F6BA1",
"=. c #526DA2",
"-. c #4D7AA5",
";. c #4B75A0",
":. c #5777A0",
">. c #597BA9",
",. c #5578A8",
"<. c #5B7DB3",
"1. c #7961BB",
"2. c #885DBE",
"3. c #9A5EC5",
"4. c #8460C2",
"5. c #9062C7",
"6. c #5384AE",
"7. c #5D81B6",
"8. c #5B8BB3",
"9. c #5E91B8",
"0. c #638AA9",
"q. c #618AB1",
"w. c #6697BB",
"e. c #648CC2",
"r. c #6D9FC3",
"t. c #6B97CC",
"y. c #6D9CCE",
"u. c #629EC5",
"i. c #6F9ED3",
"p. c #709FD6",
"a. c #6DA0C3",
"s. c #75A7C3",
"d. c #76A9C6",
"f. c #79ACC5",
"g. c #75ABCC",
"h. c #7DB0C8",
"j. c #73A5DC",
"k. c #7CBDDC",
"l. c #78BADB",
"z. c #6AAED5",
"x. c #7DB5ED",
"c. c #79B8E7",
"v. c #7FB8F0",
"b. c #76A9E1",
"n. c #7FC1DE",
"m. c #948D80",
"M. c #968F8C",
"N. c #A39C8B",
"B. c #AEA99A",
"V. c #AAA496",
"C. c #AAA7A4",
"Z. c #B9B3A3",
"A. c #C9C6B8",
"S. c #80B4CB",
"D. c #80BBD4",
"F. c #8EC2D6",
"G. c #A6D1DD",
"H. c #8BCFE6",
"J. c #86C7E8",
"K. c #91CBE2",
"L. c #8DD3EC",
"P. c #91D9EF",
"I. c #85C3FA",
"U. c #8BCBFF",
"Y. c #8DD1FA",
"T. c #89D4F5",
"R. c #91DAF2",
"E. c #91D6FF",
"W. c #93DBFF",
"Q. c #96E3FE",
"!. c #98E6FD",
"~. c #9CECFF",
"^. c #9FF1FF",
"/. c #A0ECFF",
"(. c #A1E1F2",
"). c #B0EBF5",
"_. c #A5F2FF",
"`. c #AFF5FF",
"'. c #AEFCFF",
"]. c #B2F1FB",
"[. c #B0FFFF",
"{. c #BBFAFF",
"}. c #B9F5FD",
"|. c #D0CEC8",
" X c #D6D4C7",
".X c #CAFEFE",
"XX c #C4FCFE",
"oX c #F5F4E5",
/* pixels */
"                                                                                                                                ",
"                                                                                                                                ",
"                                                                                                                                ",
"                                                                                        Y R T                                   ",
"                                                                                      Y G.(.r.i                                 ",
"                                                                                      R (._.y.i                                 ",
"                                                                                      T r.y.<.i                                 ",
"                                                                                        i i i                                   ",
"                                                                                                                                ",
"                                                                                                                                ",
"                                                                                                                                ",
"                                                                                                                                ",
"                                                                                                                                ",
"                                                                                                                                ",
"                                                                                                                                ",
"                                                                                                                                ",
"                                                                                                                                ",
"                                                                                                                                ",
"                                                                                                                                ",
"                                                          T R R R                                                               ",
"                        i i i i                         i a.L.L.L.:.6                                 i i i i                   ",
"                      R a.g.g.a.R                     6 ; s.[.{._.O.- i                             O.g.g.g.q.6                 ",
"                    4 s R.'.'.R.s 4                   s ] 0.F.).f.o.Y i                           O.0.f.~.'.K.>.                ",
"                  i 6 N D.].].D.N 6 i                 R H.o.o.L.C s.g.i                         i g.s.N D.].].k.T               ",
"                  6 :.D.B h.h.B D.:.6                 T v.T.P.!.L.Y.t.i                         i t.E.D.N h.S.y u               ",
"                  6 >.Y.s.H.H.s.U.>.6                 T x.E.Q.R.w.c.t.i                       - 6 t.E.Y.s.L.g.4                 ",
"                     .i.W.Q.Q.Q.U.=.6                 I e.x.E.J.I ,.7.i                       5 =.e.b.U.Q.J.q.a                 ",
"                      T j.I.I.v.I.<.J                   i e.I.x.T 8 i                         I j.=.| x.x.=.6                   ",
"                        T p.i. .x.I.e.i                   J 7.x.T                             a I s s T T                       ",
"                          | W a *.,...                      Q =.        $                                                       ",
"                            8 u 3 5                           6         $                                                       ",
"                                c                                                               c         < <                   ",
"                              v  Xm.o   $                                                 $ # b |.m.o   $ h h $                 ",
"                #           F A.oXH X < ) y         # + O O O O O O O O O + # # #       $ V ` U @.C.V.l   5 5                   ",
"                r 2         G A.Z.N.A , -.g ,     r h ' +.+.+.+.+.+.+.+.] ' V d ) d     % U X.h = M.B.z                         ",
"              < U r #         l k B.C.b ` P r $ < X.z.T.}..X.X.X.XXXXX{.~.T.l.u.c. .: < & r r * j k k                           ",
"                <         $ $ * d m G C.b u t < X.l.Q.!./.{..X.X.X]././.~.!.!.L.u.6.;.) k = = j N g y $ $                       ",
"                        $ 0 M t f V S D C r r U -.9.k.~.~._.`.`.`._.~.~.~.^.L.w.-.-.-.X._ x x Z [ P p t ^ 7                     ",
"                        $ ( 1.W E [ C x ` p y { [ { 8.k.k.k.k.k.k.k.k.k.k.n.a.} X.{ [ [ { n n [ [ L K ! 4.0 #                   ",
"                        $ / 2.$.&.! K T T L L L L [ } } } } } } } } } } } } } } } P f L L K T T T R ~ $.3.q @                   ",
"                          > > e 3.2.#.#.#.E f f L L L L L L L L L L L L L L L L L L f f L ! #.#.#.5.%.> > :                     ",
"                          . . & q w 9 9 9 7 2 2 2 1 1 1 1 1 1 1 1 1 1 1 1 1 1 1 1 2 2 2 2 7 9 9 9 q w @ @                       ",
"                                @ @ # # # # # # # # # # # # # # # # # # # # # # # # # # # # # # # @ @                           ",
"                                                                                                                                ",
"                                                                                                                                ",
"                                                                                                                                ",
"                                                                                                                                ",
"                                                                                                                                ",
"                                                                                                                                ",
"                                                                                                                                ",
"                                                                                                                                ",
"                                                                                                                                ",
"                                                                                                                                ",
"                                                                                                                                ",
"                                                                                                                                ",
"                                                                                                                                ",
"                                                                                                                                ",
"                                                                                                                                ",
"                                                                                                                                ",
"                                                                                                                                ",
"                                                                                                                                ",
"                                                                                                                                ",
"                                                                                                                                ",
"                                                                                                                                "
};
