/* XPM */
static char *dd7[] = {
/* columns rows colors chars-per-pixel */
"64 64 171 2 ",
"   c None",
".  c #24253D",
"X  c #3B3239",
"o  c #433838",
"O  c #504437",
"+  c #262641",
"@  c #2B2646",
"#  c #2C274B",
"$  c #2E284B",
"%  c #332E4B",
"&  c #3A344B",
"*  c #373043",
"=  c #2F2E52",
"-  c #332D53",
";  c #3B2F5A",
":  c #352E58",
">  c #313256",
",  c #31375C",
"<  c #3D305D",
"1  c #32385E",
"2  c #2F396E",
"3  c #393B62",
"4  c #323A6D",
"5  c #3E396A",
"6  c #353E71",
"7  c #453566",
"8  c #453A71",
"9  c #493C76",
"0  c #5C3E7E",
"q  c #503C78",
"w  c #3C4263",
"e  c #36436A",
"r  c #374376",
"t  c #394376",
"y  c #344972",
"u  c #394578",
"i  c #3D5277",
"p  c #3A537C",
"a  c #37537E",
"s  c #484148",
"d  c #534D4B",
"f  c #524C46",
"g  c #5B5041",
"h  c #464F5B",
"j  c #585A5F",
"k  c #645B54",
"l  c #67615B",
"z  c #6D6355",
"x  c #706659",
"c  c #424563",
"v  c #455468",
"b  c #47457E",
"n  c #445874",
"m  c #4A627C",
"M  c #586A7A",
"N  c #7B7161",
"B  c #646D74",
"V  c #767772",
"C  c #827D71",
"Z  c #8A8274",
"A  c #918979",
"S  c #3F4F80",
"D  c #3B5683",
"F  c #3B5884",
"G  c #3D608A",
"H  c #4E4383",
"J  c #415487",
"K  c #4B5B87",
"L  c #425588",
"P  c #48568E",
"I  c #455A88",
"U  c #4A5B88",
"Y  c #4C5691",
"T  c #4A5892",
"R  c #55569B",
"E  c #624388",
"W  c #694B99",
"Q  c #7A4C9D",
"!  c #466285",
"~  c #41628D",
"^  c #506881",
"/  c #436692",
"(  c #436995",
")  c #4C6B94",
"_  c #476E9A",
"`  c #4A6898",
"'  c #516D98",
"]  c #4A719D",
"[  c #6559AA",
"{  c #6455A6",
"}  c #6F5AB1",
"|  c #7D59B5",
" . c #7F5EBB",
".. c #526EA3",
"X. c #4D7AA5",
"o. c #4F7DA9",
"O. c #4C76A1",
"+. c #5573A7",
"@. c #547BA4",
"#. c #5A7EA6",
"$. c #5574A9",
"%. c #597AB0",
"&. c #7A61BC",
"*. c #9358B9",
"=. c #8F5CC0",
"-. c #945EC0",
";. c #A164D1",
":. c #5888AF",
">. c #5384AE",
",. c #6A82A4",
"<. c #618AB0",
"1. c #6494B9",
"2. c #658DC3",
"3. c #6D9FC2",
"4. c #6D9DCC",
"5. c #649DC3",
"6. c #6E9DD2",
"7. c #6BA7CA",
"8. c #72A5CE",
"9. c #75B0CE",
"0. c #6EACD0",
"q. c #73A5DC",
"w. c #7CBDDC",
"e. c #78ACE4",
"r. c #7DB5EC",
"t. c #7FB8EF",
"y. c #7AB2E2",
"u. c #7DC0DE",
"i. c #958E81",
"p. c #979081",
"a. c #9A9388",
"s. c #A0998A",
"d. c #A59F92",
"f. c #AAA596",
"g. c #B2AC9C",
"h. c #B6B09F",
"j. c #B9B3A3",
"k. c #C6C2B3",
"l. c #CAC6B8",
"z. c #81BFDC",
"x. c #81BBF2",
"c. c #83C3DD",
"v. c #A6D1DD",
"b. c #8ACBE3",
"n. c #84CCE9",
"m. c #8CD0E8",
"M. c #91D1E6",
"N. c #93D6ED",
"B. c #9BD6E6",
"V. c #8ACCFF",
"C. c #84C1F2",
"Z. c #8ED4FB",
"A. c #95DDFF",
"S. c #AEDEE6",
"D. c #A7DCE7",
"F. c #9BEAFF",
"G. c #9DE3F6",
"H. c #9FF2FF",
"J. c #B5E2E6",
"K. c #B0E2EC",
"L. c #A2E3F4",
"P. c #A2EBFF",
"I. c #A4F3FF",
"U. c #ABF2FF",
"Y. c #ADFAFF",
"T. c #B1FAFF",
"R. c #BCF7FD",
"E. c #D4D2C6",
"W. c #E0DDD0",
"Q. c #E6E4D5",
"!. c #F5F4E5",
/* pixels */
"                                                                                                                                ",
"                                                                                              4                                 ",
"                                                                                            ) #.                                ",
"                                                                                          4 #.z.I                               ",
"                                                                                              I                                 ",
"                                                                                                                                ",
"                                                                                                                                ",
"                                                                                                                                ",
"                                                                                                                                ",
"                                                                                                                                ",
"                                                                                                                                ",
"                                                                                                                                ",
"                                                                                                                                ",
"                                                                                                                                ",
"                                                                                                                                ",
"                                                                                                                                ",
"                                                                                                                                ",
"                                                              4                                                                 ",
"                                                            / @.                                                                ",
"                      I U                                 S 1.N.'                                         J I K                 ",
"                  4 @.N.K.,.2                           r 3.L.R.N.@.4                                   t 3.L.v.K               ",
"                  4 +.A.U.b.<.r                         r 4.P.U.A.+.4                                 J 2.C.I.L.I               ",
"                  4 +.V.A.F.8.r                         r %.y.Z.6.`                                   L x.e.4.3.J               ",
"                  4 ..r.r.t.2.r                           4 +.q.L                                     J q.$.6 r                 ",
"                      L L L J                                 J                                       u J                       ",
"                                                                                                                                ",
"                                                                                                                                ",
"                                                                                                                                ",
"                                                                                                                                ",
"                                                                                                                                ",
"                                                                                                                                ",
"                                x       >                                                     & k             $                 ",
"                              x E.p.o > I e @                                             # * k E.i.O                           ",
"              $             Z l.!.A o   e 1                                                 X z Q.W.d.g                         ",
"              $             Z k.j.a.Z   # @                                                 N p.g.k.a.s                         ",
"                              d d f.h.k & - > > > 3 w w c c c c w w w c w c c w , > > > % d p.k.l f s =                         ",
"                        $ # 1 i i j A g.k n ] @.@.9.m.M.S.J.J.S.M.b.B.S.M.D.D.c.:.X.O.! d a.f.l n i i y = # $                   ",
"                      : H t y D / ! B C M ) X.o.o.5.n.I.T.T.T.T.I.H.I.T.I.Y.G.0.>.o.X.] ^ V V m / ( G a e b 9 $                 ",
"                      < | [ T T / ( n h ~ ( / / ] X.1.w.w.w.w.w.w.w.w.w.w.u.7.o.] ] _ / ( v v ( / / G D T &.W $                 ",
"                      < *.| [ } P F J J J D D F ( _ _ _ _ _ _ _ _ _ _ _ _ _ _ _ _ _ / D D F J J J J L Y { =.Q $                 ",
"                      $ < : E ;.} [ [ [ [ P a D D F F D D D D D D D D D D D D F D F D D D R [ [ [ [  .-.7 ; ;                   ",
"                        + . 7 0 9 8 8 8 8 3 1 , , , , , , , , , , , , , , , , , , , , 1 1 5 8 8 8 8 q 0 - .                     ",
"                              + @ @ @ @ @ @ @ @ @ @ @ @ @ @ @ @ @ @ @ @ @ @ @ @ @ @ @ @ @ @ @ @ @ @ + +                         ",
"                                                                                                                                ",
"                                                                                                                                ",
"                                                                                                                                ",
"                                                                                                                                ",
"                                                                                                                                ",
"                                                                                                                                ",
"                                                                                                                                ",
"                                                                                                                                ",
"                                                                                                                                ",
"                                                                                                                                ",
"                                                                                                                                ",
"                                                                                                                                ",
"                                                                                                                                ",
"                                                                                                                                ",
"                                                                                                                                ",
"                                                                                                                                ",
"                                                                                                                                ",
"                                                                                                                                ",
"                                                                                                                                ",
"                                                                                                                                ",
"                                                                                                                                "
};
