/* XPM */
static char *dl2[] = {
/* columns rows colors chars-per-pixel */
"64 64 138 2 ",
"   c None",
".  c #591C3D",
"X  c #4F213E",
"o  c #51223F",
"O  c #723435",
"+  c #5B1F40",
"@  c #4D2645",
"#  c #552241",
"$  c #5C2242",
"%  c #54274A",
"&  c #5D2648",
"*  c #5E2B4E",
"=  c #5E2F55",
"-  c #5E2E5B",
";  c #62274D",
":  c #64294B",
">  c #6C3444",
",  c #66344B",
"<  c #753A43",
"1  c #703C49",
"2  c #632C53",
"3  c #682850",
"4  c #6D2E5D",
"5  c #623356",
"6  c #6A3D56",
"7  c #64375A",
"8  c #623A5F",
"9  c #623561",
"0  c #6D3462",
"q  c #633D63",
"w  c #6B3E63",
"e  c #693E6A",
"r  c #7C3266",
"t  c #74356B",
"y  c #7D3F7C",
"u  c #79444F",
"i  c #6A405A",
"p  c #724556",
"a  c #634167",
"s  c #6B4066",
"d  c #654269",
"f  c #6A436D",
"g  c #67486E",
"h  c #6A496F",
"j  c #794E62",
"k  c #70446A",
"l  c #744C6E",
"z  c #75516E",
"x  c #6E4373",
"c  c #6A4C73",
"v  c #724376",
"b  c #77437B",
"n  c #7A437D",
"m  c #6D5077",
"M  c #6F547B",
"N  c #775270",
"B  c #71567C",
"V  c #853670",
"C  c #843A77",
"Z  c #823E7F",
"A  c #913B7C",
"S  c #844A4C",
"D  c #884A48",
"F  c #965B5A",
"G  c #995D5B",
"H  c #9C605D",
"J  c #9E447E",
"K  c #815B7C",
"L  c #9D6264",
"P  c #A26460",
"I  c #A46867",
"U  c #AB706E",
"Y  c #B57C7B",
"T  c #BA7F7D",
"R  c #BA817E",
"E  c #7E4381",
"W  c #745B83",
"Q  c #7A5C81",
"!  c #7B6289",
"~  c #7D6A8D",
"^  c #7E6A93",
"/  c #813F80",
"(  c #834385",
")  c #844488",
"_  c #8C458D",
"`  c #974997",
"'  c #9B4997",
"]  c #8F5F93",
"[  c #A64797",
"{  c #A54999",
"}  c #846383",
"|  c #82658F",
" . c #806C97",
".. c #926491",
"X. c #817092",
"o. c #8C7191",
"O. c #84729B",
"+. c #8B739E",
"@. c #A36B99",
"#. c #AC4CA0",
"$. c #8A7AA6",
"%. c #8D7EAB",
"&. c #9F839C",
"*. c #9183AD",
"=. c #968CA8",
"-. c #9F92AB",
";. c #9384B3",
":. c #978EB2",
">. c #9589B8",
",. c #998FBE",
"<. c #9A91B2",
"1. c #9E99B3",
"2. c #9B91BC",
"3. c #A092AB",
"4. c #A39DB5",
"5. c #A19FB8",
"6. c #A6A5BF",
"7. c #ABAABF",
"8. c #CF9693",
"9. c #D29A9A",
"0. c #DAA2A0",
"q. c #C0B3BF",
"w. c #9D94C1",
"e. c #9F99C0",
"r. c #A29CC3",
"t. c #A6A5C0",
"y. c #A7A9C0",
"u. c #AAAAC0",
"i. c #BEB3C0",
"p. c #BCB4C3",
"a. c #BAB2C1",
"s. c #C1B5C0",
"d. c #C0B6C2",
"f. c #C6B7C0",
"g. c #C7B8C1",
"h. c #C1B8C5",
"j. c #C9B9C1",
"k. c #C9B8C0",
/* pixels */
"                                                                                                                                ",
"                                                                                                                                ",
"                                                                                                                                ",
"                                                                                                                                ",
"                                                                                                                                ",
"                                                                                                                                ",
"                                                                                                                                ",
"                                                                                                                                ",
"                                                                                                                                ",
"                                                                                                                                ",
"                                                                                                                                ",
"                                                                                                                                ",
"                                                                                                                                ",
"                                                                                - -                                             ",
"                                                                                Q } K                                           ",
"                                                                              s =.a.&.9                                         ",
"                                                                              * g *.+.9                                         ",
"                                                        . . . . + + $ $       $ * w f                                           ",
"                                                        l z N l 7 5 5 *       $ $ .                                             ",
"                                                      B 5.u.u.5.~ B c a *                                                       ",
"                                                  - Q 4.q.g.a.7.5.X.m m a * $                                                   ",
"                                                - ! -.s.j.i.u.y.y.:. .m g q = $ O                                               ",
"                                                Q 3.h.j.i.u.y.y.y.r.%.m i 6 , > L F                                             ",
"                                              f 1.p.f.s.u.y.y.y.t.r.$.z S D D F 9.I O                                           ",
"                                              f 1.u.u.u.y.y.y.t.w.w.o.S R 8.0.9.F                                               ",
"                                              f 1.@.J J J ..*.e.w.$.Q j G P I U T G                                             ",
"                                              f <.@.J J J ] %.,.%.! m M p 1 > u Y H                                             ",
"                                              e ;.t.t.t.6.2.>.*.W M M M M g d s <                                               ",
"                                              5 *.w.w.w.w.O.W W B M M M M g v y :                                               ",
"                                              & k l | w.w.^ m M M M M M c d v / ;                                               ",
"                                              $ $ . w %.2. .m M M M M m d a v / ;                                               ",
"                                              & 5 = 7 W *.^ m M M M M m d a v / ;                                               ",
"                                              & c m m B W W M M M M c d d a v / ;                                               ",
"                                              & d m B M M M M M M c g d d a v / ;                                               ",
"                                              & q c m M M M M M c g a d d f n Z ;                                               ",
"                                              & q d g m m m m m d d d d d n _ ( ;                                               ",
"                                              & q d d d d d d d d d d d d n ` [ 3                                               ",
"                                              @ = 8 a a a a d d d d a d b ( Z r %                                               ",
"                                                $ 0 x a d d d a a a d v ) ` C #                                                 ",
"                                                # t n f d d d f f f v ) _ { A #                                                 ",
"                                                  % 0 E f a x ( ( ( ( _ #.V &                                                   ",
"                                                    * 4 2 * 2 4 4 4 4 4 r 2                                                     ",
"                                                      o # # # o o o o o X                                                       ",
"                                                                                                                                ",
"                                                                                                                                ",
"                                                                                                                                ",
"                                                                                                                                ",
"                                                                                                                                ",
"                                                                                                                                ",
"                                                                                                                                ",
"                                                                                                                                ",
"                                                                                                                                ",
"                                                                                                                                ",
"                                                                                                                                ",
"                                                                                                                                ",
"                                                                                                                                ",
"                                                                                                                                ",
"                                                                                                                                ",
"                                                                                                                                ",
"                                                                                                                                ",
"                                                                                                                                ",
"                                                                                                                                ",
"                                                                                                                                ",
"                                                                                                                                "
};
