/* XPM */
static char *dl4[] = {
/* columns rows colors chars-per-pixel */
"64 64 166 2 ",
"   c None",
".  c #591C3D",
"X  c #561D3D",
"o  c #46223E",
"O  c #48233F",
"+  c #51213F",
"@  c #5D213F",
"#  c #692B37",
"$  c #74373F",
"%  c #7A3D3C",
"&  c #743534",
"*  c #5A1F42",
"=  c #4A2441",
"-  c #532140",
";  c #5B2243",
":  c #5D2749",
">  c #572B4B",
",  c #5E2A4C",
"<  c #5F2D51",
"1  c #5E2E5B",
"2  c #5F305C",
"3  c #622740",
"4  c #642A43",
"5  c #612C4C",
"6  c #6C3746",
"7  c #763B42",
"8  c #783F43",
"9  c #612D51",
"0  c #6C2E5C",
"q  c #732F5F",
"w  c #623254",
"e  c #683451",
"r  c #653856",
"t  c #6B3D54",
"y  c #63365A",
"u  c #6A355F",
"i  c #643A5E",
"p  c #732F60",
"a  c #623561",
"s  c #6D3163",
"d  c #643C62",
"f  c #6D3E61",
"g  c #673E69",
"h  c #6A3E6A",
"j  c #7B3166",
"k  c #713C6E",
"l  c #723C70",
"z  c #7B424E",
"x  c #6D405C",
"c  c #724055",
"v  c #674165",
"b  c #684065",
"n  c #66446A",
"m  c #6A436C",
"M  c #6B4A6E",
"N  c #714563",
"B  c #71486E",
"V  c #6E4472",
"C  c #6C4C73",
"Z  c #714972",
"A  c #784279",
"S  c #724F7C",
"D  c #6D5076",
"F  c #6E5279",
"G  c #6E587E",
"H  c #705076",
"J  c #785271",
"K  c #72547C",
"L  c #7A567B",
"P  c #73597E",
"I  c #7F5D7B",
"U  c #844746",
"Y  c #8A4D4C",
"T  c #874B52",
"R  c #894E53",
"E  c #8E5255",
"W  c #8B5259",
"Q  c #955857",
"!  c #825C7C",
"~  c #80607B",
"^  c #8F667A",
"/  c #A16564",
"(  c #A56A67",
")  c #A56C6C",
"_  c #AA6F6E",
"`  c #AC716E",
"'  c #A16B78",
"]  c #B07674",
"[  c #B67B77",
"{  c #B57B7A",
"}  c #BB817E",
"|  c #7C4580",
" . c #765482",
".. c #795486",
"X. c #725C82",
"o. c #795983",
"O. c #7C5C8A",
"+. c #756186",
"@. c #766288",
"#. c #7C618F",
"$. c #7D6A8C",
"%. c #7E6191",
"&. c #7C6D92",
"*. c #923F80",
"=. c #824283",
"-. c #A04896",
";. c #A14B9A",
":. c #846182",
">. c #80678A",
",. c #81698B",
"<. c #93718A",
"1. c #816695",
"2. c #826996",
"3. c #846B9A",
"4. c #8E7B96",
"5. c #87749E",
"6. c #8A759E",
"7. c #84789B",
"8. c #8D7C9B",
"9. c #9C7E96",
"0. c #876EA0",
"q. c #8972A4",
"w. c #867EA2",
"e. c #8C79A3",
"r. c #8D76A9",
"t. c #8D79AA",
"y. c #927FB3",
"u. c #92819D",
"i. c #9C839B",
"p. c #9D8194",
"a. c #BD8382",
"s. c #9282A4",
"d. c #968AA2",
"f. c #9282AD",
"g. c #978FAE",
"h. c #9B8DAB",
"j. c #9991AD",
"k. c #9384B3",
"l. c #9688B1",
"z. c #9888B5",
"x. c #988BBA",
"c. c #9C93B2",
"v. c #9F99B8",
"b. c #9C94B9",
"n. c #A29BB3",
"m. c #A99EB3",
"M. c #A19DBD",
"N. c #A99BBA",
"B. c #A5A5BC",
"V. c #A9A5BE",
"C. c #ACA2B5",
"Z. c #B6A2B2",
"A. c #BDA8B3",
"S. c #BFB1BD",
"D. c #D39B99",
"F. c #DCA5A4",
"G. c #E5AEAD",
"H. c #9F98C2",
"J. c #A19DC3",
"K. c #A4A2C5",
"L. c #ACA0C2",
"P. c #B5A7C0",
"I. c #AEB1C6",
"U. c #B3B5C8",
"Y. c #BBB8CC",
"T. c #B6B3C4",
/* pixels */
"                                                                                                                                ",
"                                                                                                                                ",
"                                                                                                                                ",
"                                                                                                                                ",
"                                                                                  a a a a                                       ",
"                                                                                1 >.8.8.8.K                                     ",
"                                                                                o.j.U.T.I.4.K                                   ",
"                                                                              m c.n.C.S.n.B.8.a                                 ",
"                                                                              m l.L ~ n.N u.u.a                                 ",
"                                                                              m k.s.d.B.4.c.6.a                                 ",
"                                                                              h 2.b.v.s.M.f.O.a                                 ",
"                                                                                a 3.1.m k.o.1                                   ",
"                                                                                  m d m k.o.1                                   ",
"                                                                                         .C                                     ",
"                                                                                        1                                       ",
"                                                                                                                                ",
"                                                                                                                                ",
"                                                                                                                                ",
"                                                                                                                                ",
"                                                                                                                                ",
"                                                                                                                                ",
"                                                                                                                                ",
"                                                                                                                                ",
"                                                                                                                                ",
"                                                                                                                                ",
"                                                                                                                                ",
"                                                                                                                                ",
"                                      m m                                                                                       ",
"                                  1  .z.Z.:.1             a a a                       a a                                       ",
"                                  2 S z.L.h.>.a         a ,.u.9.m                   ! i.6.S     &                               ",
"                                    V %.k.K.4.e         a 6.Y.A.f                 1 :.P.e.S 9   / E                             ",
"                                      g 1.f.<.Y   Y Y   a 1.N.Z.N       w         1  .t.m     Y F.] U                           ",
"                                        g c ) D.Y a.a.%   9 I V.l.B . w 7.M .         m       Y D.G.a.%                         ",
"                                          3 z _ } ] W 4 @ > P J.K.s.Z 5 &.i.^ ;     ;       Q } ( ( /                           ",
"                                          * 3 z { ` T 4 w g ..e.M.H.1.y P m.p.;   w w     E ` { 7 # #                           ",
"                                          ; < v 8 a.a.8 M | A K k.k.#.n P g.4.: 5 m m 5 w ' _ $ 5 , 5                           ",
"                              ; ;         - < v 7 [ { 7 r y Z 0.r.t.#.C 3.x.5.n 1.C v @.w.J 4 5 M X.M ;                         ",
"                            y C m w X + - s l v x W R t $.+.C Z Z 1.q.1.r.y.t.%.S D P X.@.n i v y i y                           ",
"                            y C m d i y y k k d d t 6 t $.&.P v d H O.O.O.O.O.o.i C G C d y d b : .                             ",
"                              ; ; M P C C h u y y g x 7 r M X.+.P v y y y y y y n V m d w : ; ;                                 ",
"                                  > 5 , , *.-.=.=.=.A v d n n M F F C D D D M g | ;.*.: ; =                                     ",
"                                    o o O p j 0 0 0 0 < < < , 9 w y y y y y w 9 0 j q = =                                       ",
"                                          o + + + + - - - - - - - - - - - - - - + + o                                           ",
"                                                                                                                                ",
"                                                                                                                                ",
"                                                                                                                                ",
"                                                                                                                                ",
"                                                                                                                                ",
"                                                                                                                                ",
"                                                                                                                                ",
"                                                                                                                                ",
"                                                                                                                                ",
"                                                                                                                                ",
"                                                                                                                                ",
"                                                                                                                                ",
"                                                                                                                                ",
"                                                                                                                                ",
"                                                                                                                                ",
"                                                                                                                                ",
"                                                                                                                                ",
"                                                                                                                                ",
"                                                                                                                                ",
"                                                                                                                                ",
"                                                                                                                                "
};
