/* XPM */
static char *du3[] = {
/* columns rows colors chars-per-pixel */
"64 64 110 2 ",
"   c None",
".  c #771E39",
"X  c #781E39",
"o  c #63213A",
"O  c #682039",
"+  c #79213F",
"@  c #702340",
"#  c #7A2948",
"$  c #811C37",
"%  c #881C37",
"&  c #871C39",
"*  c #891D3B",
"=  c #8B213E",
"-  c #962632",
";  c #9B2B36",
":  c #A3343F",
">  c #812140",
",  c #8C2443",
"<  c #8C264A",
"1  c #8E2C4D",
"2  c #922246",
"3  c #932944",
"4  c #932449",
"5  c #9A264E",
"6  c #912D4E",
"7  c #95314D",
"8  c #8F2F50",
"9  c #922E53",
"0  c #9A2C56",
"q  c #972F58",
"w  c #9B2F5B",
"e  c #8F3051",
"r  c #923455",
"t  c #943658",
"y  c #98325A",
"u  c #953B5C",
"i  c #993B5E",
"p  c #A43540",
"a  c #A73842",
"s  c #A83944",
"d  c #A1354A",
"f  c #A4384C",
"g  c #AC3D48",
"h  c #A32E5E",
"j  c #A92D5F",
"k  c #973F60",
"l  c #993E61",
"z  c #A02F60",
"x  c #A13061",
"c  c #AB3268",
"v  c #B4336C",
"b  c #9F415D",
"n  c #AF414C",
"m  c #B1434E",
"M  c #B54752",
"N  c #BA4D57",
"B  c #BF535C",
"V  c #9A4364",
"C  c #9D4867",
"Z  c #9D4568",
"A  c #9E4C6C",
"S  c #9F4D6E",
"D  c #9F4E6E",
"F  c #9D496A",
"G  c #A24964",
"H  c #A44C67",
"J  c #A44D6A",
"K  c #A1496E",
"L  c #A2486F",
"P  c #A54F6C",
"I  c #A7516C",
"U  c #A8526E",
"Y  c #AF566E",
"T  c #A34970",
"R  c #A44E71",
"E  c #A54D72",
"W  c #A64D73",
"Q  c #A64E73",
"!  c #A64D75",
"~  c #A15172",
"^  c #A75370",
"/  c #A85379",
"(  c #A9547A",
")  c #A9557A",
"_  c #A65B7A",
"`  c #AF5F79",
"'  c #AF5F7A",
"]  c #AD5A7F",
"[  c #A85D7C",
"{  c #A85E7E",
"}  c #AF5F7E",
"|  c #AF5E7F",
" . c #B0617F",
".. c #BA677B",
"X. c #BA687B",
"o. c #C0535C",
"O. c #C0535D",
"+. c #C1555F",
"@. c #C25560",
"#. c #C25660",
"$. c #C35660",
"%. c #C65A63",
"&. c #C75B65",
"*. c #CC606A",
"=. c #CC616B",
"-. c #D76C76",
";. c #AD5B80",
":. c #AE5C81",
">. c #AF5E80",
",. c #B36684",
/* pixels */
"                                                                                                                                ",
"                                                                                                                                ",
"                                                                                                                                ",
"                                                                                                                                ",
"                                                                                                                                ",
"                                                                                                                                ",
"                                                                                                                                ",
"                                                                                                                                ",
"                                        < < < <                                                                                 ",
"                                      r P Y Y P 9                                                                               ",
"                                      6 G X...H b t                                                                             ",
"                                      < , U I 7 ` V <                                                                           ",
"                                      9 E ] } ` >.i <                                                                           ",
"                                        i l E } i 6                                                                             ",
"                                        < , t Z =                                                                               ",
"                                          & , 1 *                                                                               ",
"                                              *                                                                                 ",
"                                                                                                                                ",
"                                                                                                                                ",
"                                                                              p   : :                                           ",
"                                                              & &         - m *.p +.@.;                                         ",
"                                                            , t V 6         s M B N n                                           ",
"                                                          , r ~ [ i ,       a m O.g                                             ",
"                                          : :           = r F [ _ D r &   - n *.:                                               ",
"                                        ; @.@.;       = r i D _ F V r &   % f %.:                                               ",
"                                      : @.-.@.;       = t V F D V V r , & u b d                                                 ",
"                                      : @.@.N m       = r V V V V i r 1 1 F V &                                                 ",
"                                        ; ; m &.s     , r l V V V i r r V C r &                                                 ",
"                                              s O.d , r e t k V V i i V ( F 6 &                                                 ",
"                                                d 3 1 u e r i V V i u V Z u 1 &     < <                                         ",
"                                                , , 1 r e r i V V i u u r 1 , &   i i i                                         ",
"                                              = r 6 1 9 8 r u i V i u t 8 , =   9 ^ ,./ 9                                       ",
"                                              = 1 r y y 9 r u u u u r 8 1 u r , E >.] T 9                                       ",
"                                            , , 1 e y x 9 e r u u u r 1 1 u r 1 E K i y                                         ",
"                                          i l i 1 < 0 c w 9 r u u t r 1 r t r 1 l r , <                                         ",
"                                        < J  .( r 1 0 v x q e u u r 1 e u u r 9 1 , =                                           ",
"                                          9 i ! T l r q z q 1 r u r 1 8 u r r w < r 6 &                                         ",
"                                            # 9 u Z V r q w q 1 r e 1 1 e y w q r u r , &                                       ",
"                                            @ 2 1 u l r r y q 1 1 1 1 1 q w q 1 r r r 0 0 4                                     ",
"                                          > 5 h 6 6 9 8 t r 8 9 8 9 9 9 x w 9 9 9 9 0 h v 5 $                                   ",
"                                        X j v x h z w 1 8 1 q w 9 w x x x x x x x v j , , @                                     ",
"                                        o 4 5 4 4 4 2 , , , , 4 , 2 4 4 4 4 4 4 4 5 4 o o                                       ",
"                                          O . . . X X X X X X X X X . . . . X X X . o                                           ",
"                                                                                                                                ",
"                                                                                                                                ",
"                                                                                                                                ",
"                                                                                                                                ",
"                                                                                                                                ",
"                                                                                                                                ",
"                                                                                                                                ",
"                                                                                                                                ",
"                                                                                                                                ",
"                                                                                                                                ",
"                                                                                                                                ",
"                                                                                                                                ",
"                                                                                                                                ",
"                                                                                                                                ",
"                                                                                                                                ",
"                                                                                                                                ",
"                                                                                                                                ",
"                                                                                                                                ",
"                                                                                                                                ",
"                                                                                                                                ",
"                                                                                                                                "
};
