/* XPM */
static char *id0[] = {
/* columns rows colors chars-per-pixel */
"64 64 170 2 ",
"   c None",
".  c #24243E",
"X  c #483C2F",
"o  c #504437",
"O  c #53483B",
"+  c #281F40",
"@  c #262640",
"#  c #2A2545",
"$  c #2C2649",
"%  c #2D294B",
"&  c #2C2947",
"*  c #2F2F53",
"=  c #342D55",
"-  c #2F345B",
";  c #313256",
":  c #33345A",
">  c #3F305E",
",  c #353B5B",
"<  c #383044",
"1  c #333D64",
"2  c #373B6B",
"3  c #43386E",
"4  c #4F376E",
"5  c #453A71",
"6  c #483D77",
"7  c #364066",
"8  c #3A496F",
"9  c #38456D",
"0  c #374275",
"q  c #384376",
"w  c #3D4D75",
"e  c #3C537C",
"r  c #594E41",
"t  c #585052",
"y  c #494B5B",
"u  c #61564B",
"i  c #6C6255",
"p  c #6F6558",
"a  c #766D5F",
"s  c #46497D",
"d  c #46587E",
"f  c #5E657E",
"g  c #786F61",
"h  c #696069",
"j  c #941D7B",
"k  c #952479",
"l  c #AF287B",
"z  c #B02F78",
"x  c #B1327A",
"c  c #81776F",
"v  c #8B8375",
"b  c #928B7D",
"n  c #7D3E97",
"m  c #3C5A86",
"M  c #4F4D8E",
"N  c #554689",
"B  c #425985",
"V  c #435D8A",
"C  c #445788",
"Z  c #465E91",
"A  c #59549A",
"S  c #6B5A86",
"D  c #43628B",
"F  c #476996",
"G  c #51639E",
"H  c #49719E",
"J  c #5A769B",
"K  c #5C57A2",
"L  c #5F58A5",
"P  c #7B4EA2",
"I  c #6254A3",
"U  c #695CAF",
"Y  c #6659AC",
"T  c #6A5FB2",
"R  c #7958B5",
"E  c #7B52A4",
"W  c #4C74A0",
"Q  c #4E7AA5",
"!  c #4E7DA8",
"~  c #5573A4",
"^  c #527DA6",
"/  c #5B72AD",
"(  c #517CAA",
")  c #6B60B4",
"_  c #686CB6",
"`  c #7B6CB8",
"'  c #7A73BC",
"]  c #842682",
"[  c #983B95",
"{  c #A5308C",
"}  c #A42E8A",
"|  c #C73D91",
" . c #9C4F8F",
".. c #AA4684",
"X. c #A15797",
"o. c #844BA1",
"O. c #8C55B3",
"+. c #8362B2",
"@. c #CD5D85",
"#. c #DE549D",
"$. c #E57B8F",
"%. c #F575A1",
"&. c #8B5EC3",
"*. c #9763CD",
"=. c #8B7BC4",
"-. c #61809B",
";. c #5280A9",
":. c #5A84B6",
">. c #5E89BE",
",. c #5689B4",
"<. c #5A92BB",
"1. c #6182BD",
"2. c #6389BE",
"3. c #6792B6",
"4. c #79A5BA",
"5. c #678CC8",
"6. c #748CCE",
"7. c #6A93CD",
"8. c #689BC6",
"9. c #6C97D2",
"0. c #6F9CD8",
"q. c #739CDA",
"w. c #7398D7",
"e. c #6CA9CC",
"r. c #6DA7DA",
"t. c #72A1DE",
"y. c #75AAD2",
"u. c #75B2D3",
"i. c #74A4E1",
"p. c #77ABE4",
"a. c #7DB8EF",
"s. c #7EBAF1",
"d. c #6DB9E3",
"f. c #948E87",
"g. c #989183",
"h. c #A39D91",
"j. c #A6A08F",
"k. c #AAA597",
"l. c #BAB5A9",
"z. c #F8829D",
"x. c #C2BEB0",
"c. c #C6C2B2",
"v. c #C8C4B4",
"b. c #8583CC",
"n. c #9098CB",
"m. c #81BCDB",
"M. c #85ADED",
"N. c #80BDEF",
"B. c #82BCF4",
"V. c #8ABCF6",
"C. c #92C7EE",
"Z. c #96D7ED",
"A. c #86C6FE",
"S. c #88C6FF",
"D. c #8ACDFF",
"F. c #88CBF2",
"G. c #8AD4F7",
"H. c #94DDFE",
"J. c #93DEF6",
"K. c #94E1FE",
"L. c #9BEAFF",
"P. c #9BF1FF",
"I. c #B0E2EC",
"U. c #A2E8F8",
"Y. c #B4F5FF",
"T. c #B6EEF6",
"R. c #D5D2C4",
"E. c #E0DED0",
"W. c #E5E3D6",
"Q. c #C7FFFF",
/* pixels */
"                                                                                                                                ",
"                                                                                                                                ",
"                                                                                                                                ",
"                                                                                                                                ",
"                                                                                                                                ",
"                                                                                                                                ",
"                                                                                                                                ",
"                                                                                                                                ",
"                                                                                                                                ",
"                                                                                                                                ",
"                                                                                                                                ",
"                                                                                                                                ",
"                                                                                                                                ",
"                                                                                                                                ",
"                                                                                                                                ",
"                                                                              C C C C                                           ",
"                                                                          2 ^ Z.I.Z.8.q                                         ",
"                                                                        q 3.3.-.U.4.d q                                         ",
"                                                                        q y.m.J F.3.s q                                         ",
"                                                                        q 2.F.H.B.a.5.q                                         ",
"                                          r r                             : J N.W C C                                           ",
"                                        o h.j.r                           + 9 ~ 1 -     # #                                     ",
"                                        g.E.x.O                             - 1 %       8 9 1                                   ",
"                                      p R.W.k.i           : : : : : : ;       %       : Q ! e %                                 ",
"                                        p i g.v.i     % % D ;.^ ^ ^ W D ; $ %         ; F F 9 %                                 ",
"                                            a b j.h 1 D D <.d.r.<.,.,.Q B e 8 #         7 1 :                                   ",
"                                              u f.f V <.u.Z.K.G.u.e.u.e.Q W D 7         # $                                     ",
"                                                ; F <.e.T.Q.Y.L.L.L.L.G.,.W H F :                                               ",
"                                              ; V ! e.J.L.U.L.L.L.L.H.D.B.>.H F e : $         r                                 ",
"                                              * D 8.F.P.P.L.L.L.L.H.D.D.D.a.>.m m - < o o X v l.p                               ",
"                                            : w :.s.V.n.n.C.K.H.H.D.M.b.b.M.r.H m , t v b b k.l.p                               ",
"                                          # 7 ( s.V.=.k j =.V.S.S.V.=.k j +.q.7.V y c c.R.W.l.p                                 ",
"                                          # 7 ( B.+...$.#.{ +.S.S.+...$.#.} E 9.V A S i i i g.v.i                               ",
"                                          $ , H s.o.l %.z.z o.S.S.o.l %.z.x n 7.m K N <     g v                                 ",
"                                          $ - D p.' [ | @.X.=.A.B.' [ | @. .` 9.G I N %       o                                 ",
"                                          $ : Z 5.t.' ] ] b.A.B.i.t.' ] ] ' t.5.) R N %                                         ",
"                                          # 3 L Z >.q.6.6.q.i.i.t.t.w.6.6.q.>.Z Y *.P %                                         ",
"                                            : 6 A G :.t.i.t.q.i.i.t.t.i.t.:.G I *.P 4 &                                         ",
"                                              * N M / q.>.9.7.~ ~ 7.9.>.0./ I &.O.4 .                                           ",
"                                                % N _ 2.Z 1./ = = / 1.Z 5._ R O.> @                                             ",
"                                                  = : 2 A ) U I I U T Y ) s = > %                                               ",
"                                                    . % 3 5 5 5 5 5 3 5 3 = . @                                                 ",
"                                                        # # # # # # # # #                                                       ",
"                                                                                                                                ",
"                                                                                                                                ",
"                                                                                                                                ",
"                                                                                                                                ",
"                                                                                                                                ",
"                                                                                                                                ",
"                                                                                                                                ",
"                                                                                                                                ",
"                                                                                                                                ",
"                                                                                                                                ",
"                                                                                                                                ",
"                                                                                                                                ",
"                                                                                                                                ",
"                                                                                                                                ",
"                                                                                                                                ",
"                                                                                                                                ",
"                                                                                                                                ",
"                                                                                                                                ",
"                                                                                                                                ",
"                                                                                                                                ",
"                                                                                                                                "
};
