/* XPM */
static char *id1[] = {
/* columns rows colors chars-per-pixel */
"64 64 176 2 ",
"   c None",
".  c #26233E",
"X  c #483D35",
"o  c #4E4337",
"O  c #2A2545",
"+  c #2C2648",
"@  c #2D294B",
"#  c #252640",
"$  c #2E2E52",
"%  c #352C56",
"&  c #352E58",
"*  c #2F355C",
"=  c #303155",
"-  c #31365B",
";  c #3E305D",
":  c #36385F",
">  c #363957",
",  c #363D63",
"<  c #323A6D",
"1  c #3E3768",
"2  c #443C71",
"3  c #364066",
"4  c #3B446C",
"5  c #33416A",
"6  c #384376",
"7  c #3B4F76",
"8  c #394E78",
"9  c #3D547D",
"0  c #594E41",
"q  c #45455A",
"w  c #665C56",
"e  c #675C4F",
"r  c #6B6154",
"t  c #6E6558",
"y  c #70675A",
"u  c #464C7C",
"i  c #49597B",
"p  c #4D5769",
"a  c #7D7569",
"s  c #6D657B",
"d  c #931D7B",
"f  c #952479",
"g  c #B02E7A",
"h  c #AE277A",
"j  c #857C6E",
"k  c #8B8375",
"l  c #8F887A",
"z  c #90887A",
"x  c #7D3E97",
"c  c #3F4F80",
"v  c #3A5783",
"b  c #3F608C",
"n  c #57498B",
"m  c #425588",
"M  c #405E8C",
"N  c #475988",
"B  c #525182",
"V  c #5C4B95",
"C  c #4A5992",
"Z  c #744D9F",
"A  c #6A448B",
"S  c #44638C",
"D  c #4A638D",
"F  c #446692",
"G  c #476E9A",
"H  c #4B6799",
"J  c #506B9F",
"K  c #4B729E",
"L  c #5A58A2",
"P  c #6D5BB4",
"I  c #7452A9",
"U  c #4E6CA0",
"Y  c #526FA3",
"T  c #4B75A1",
"R  c #4D7AA6",
"E  c #5675A9",
"W  c #587DAC",
"Q  c #6C6DBC",
"!  c #6768B4",
"~  c #7769B5",
"^  c #7969B5",
"/  c #6374B8",
"(  c #7C78C6",
")  c #872B87",
"_  c #893087",
"`  c #983B95",
"'  c #A42D89",
"]  c #C63C90",
"[  c #9D439D",
"{  c #A94583",
"}  c #A15696",
"|  c #844AA1",
" . c #815CAD",
".. c #8B59BB",
"X. c #8063AF",
"o. c #8360B2",
"O. c #CC5C84",
"+. c #DE549E",
"@. c #E57B8F",
"#. c #F575A1",
"$. c #877CC6",
"%. c #9263CD",
"&. c #5581AB",
"*. c #568CB6",
"=. c #5A8FBC",
"-. c #5484B1",
";. c #5D94BC",
":. c #638DB3",
">. c #6499BE",
",. c #698FC8",
"<. c #648CC5",
"1. c #738ECF",
"2. c #619CC3",
"3. c #6A99C7",
"4. c #728AD1",
"5. c #6D95D2",
"6. c #6E9CD4",
"7. c #7293D5",
"8. c #7398D7",
"9. c #7297D8",
"0. c #739DDB",
"q. c #7997D8",
"w. c #63A2CA",
"e. c #74A8C8",
"r. c #7DB0C8",
"t. c #72A2DE",
"y. c #70A4D8",
"u. c #64A7D1",
"i. c #72A4E0",
"p. c #78AAE6",
"a. c #75ADE1",
"s. c #7CB3EB",
"d. c #7BB7E5",
"f. c #7FB9F1",
"g. c #7BC4E9",
"h. c #948D80",
"j. c #9F988B",
"k. c #A59F91",
"l. c #B1AB9D",
"z. c #AEA89A",
"x. c #B0ABA1",
"c. c #B8B3A6",
"v. c #F8829D",
"b. c #C2BEB2",
"n. c #C4C0AF",
"m. c #CDC9BD",
"M. c #888ED3",
"N. c #8889CF",
"B. c #87ADEC",
"V. c #88BDF8",
"C. c #84BDF6",
"Z. c #87CDE8",
"A. c #82C1E1",
"S. c #97CCEC",
"D. c #8DD2E9",
"F. c #86C2FA",
"G. c #88C6FF",
"H. c #8BCCFD",
"J. c #87C9FF",
"K. c #8DD2FF",
"L. c #83D4F8",
"P. c #92DEF6",
"I. c #94DBFC",
"U. c #96E3FC",
"Y. c #98E5FF",
"T. c #9AEBFF",
"R. c #9CF1FF",
"E. c #A8EFFE",
"W. c #B0ECF6",
"Q. c #ADFAFF",
"!. c #B0F3FF",
"~. c #ADE2ED",
"^. c #D5D2C5",
"/. c #E6E4D7",
"(. c #C1F8FC",
"). c #F5F4E5",
/* pixels */
"                                                                                                                                ",
"                                                                                                                                ",
"                                                                                                                                ",
"                                                                                                                                ",
"                                                                                                                                ",
"                                                                                                                                ",
"                                                                                                                                ",
"                                                                                                                                ",
"                                                                                                                                ",
"                                                                                                                                ",
"                                                                                                                                ",
"                                                                                                                                ",
"                                                                                6 6 6 6                                         ",
"                                                                              c 3.e.e.3.c                                       ",
"                                                                            D :.U.Q.Q.U.:.D                                     ",
"                                                                          < W U.D.W.W.D.U.W <                                   ",
"                                                                          < E d.i r.r.i D.&.<                                   ",
"                                                                          < E F.e.D.D.e.H.E <                                   ",
"                                                                            H 6.I.A.A.I.y.H                                     ",
"                                                                              m t.J E s.m                                       ",
"                                                                                m 6 E s.m     @                                 ",
"                                                                                    H Y   @ , 9 =                               ",
"                                          k k                                         <     , 9 =                               ",
"                                        y m.b.0         - = $                                 @                                 ",
"                                      t ^.).c.0       - K S 5 @ @ @ @ @ @ @ @                                                   ",
"                                        h.l j.l.e     $ M K G S S S M 9 9 9 4 +                                                 ",
"                                        o X j l.l w * 7 b *.u.w.=.*.-.R T T S 3                                                 ",
"                                              e x.s 8 *.>.d.L.g.2.;.2.;.T K K F -                                               ",
"                                                q D -.>.~.(.!.U.P.P.U.Z.&.G K G 9 - +                                           ",
"                                              $ 8 K w.Z.E.!.E.T.T.T.Y.K.a.-.G G v - O         o                                 ",
"                                              = F =.g.R.T.T.T.T.T.U.K.J.H.y.W S v 5 >       a h.                                ",
"                                              , K a.H.S.S.I.U.U.U.K.V.B.B.V.6.M v 9 p r r r j.^.t                               ",
"                                          O , K p.J.M._ _ M.K.H.H.H.M.) ) ( i.<.M q a n.^./.c.y                                 ",
"                                          O 3 W C.N.} O.] [ $.G.G.$.} O.] ` ^ 5.M B s k l h.k.z.r                               ",
"                                          + , T f.| g v.#.h | G.G.| g v.#.g x 5.M L n X o X j l.r                               ",
"                                          + * F s.o.' +.@.{ o.G.F. .' +.@.{ I 5.C L n @       0                                 ",
"                                          + - M 6.0.X.d f $.V.F.p.8.X.d f X.8.7.! P n @                                         ",
"                                          O 1 L U ,.7.~ ~ q.s.p.t.t.1.~ ~ 7.5.Q P %.Z @                                         ",
"                                            1 n C / 7.i.i.t.0.t.i.t.t.i.i.7.( ..V Z A @                                         ",
"                                            O & V L Q 0.9.0.6.,.,.6.0.9.0./ I ..; + @                                           ",
"                                              @ & % N 7.Q 4.W : : W 4.Q 7.N % ; @                                               ",
"                                                O . , u 2 u 4 O O 4 u 2 u , . #                                                 ",
"                                                      O O O O @ @ O O O O                                                       ",
"                                                                                                                                ",
"                                                                                                                                ",
"                                                                                                                                ",
"                                                                                                                                ",
"                                                                                                                                ",
"                                                                                                                                ",
"                                                                                                                                ",
"                                                                                                                                ",
"                                                                                                                                ",
"                                                                                                                                ",
"                                                                                                                                ",
"                                                                                                                                ",
"                                                                                                                                ",
"                                                                                                                                ",
"                                                                                                                                ",
"                                                                                                                                ",
"                                                                                                                                ",
"                                                                                                                                ",
"                                                                                                                                ",
"                                                                                                                                ",
"                                                                                                                                "
};
