/* XPM */
static char *id2[] = {
/* columns rows colors chars-per-pixel */
"64 64 164 2 ",
"   c None",
".  c #26213D",
"X  c #54483B",
"o  c #51463C",
"O  c #262642",
"+  c #2A2444",
"@  c #2D284B",
"#  c #322D4C",
"$  c #2D2C54",
"%  c #362F59",
"&  c #362D52",
"*  c #2F3258",
"=  c #313256",
"-  c #333359",
";  c #36385E",
":  c #3E305E",
">  c #2F376D",
",  c #363C61",
"<  c #32396D",
"1  c #42345A",
"2  c #41386C",
"3  c #463C74",
"4  c #5C3E7D",
"5  c #364066",
"6  c #35446C",
"7  c #3B436A",
"8  c #3B4A6F",
"9  c #364175",
"0  c #3A4B72",
"q  c #3F4D79",
"w  c #3D5078",
"e  c #594E41",
"r  c #544A44",
"t  c #404B5E",
"y  c #635054",
"u  c #6D6356",
"i  c #6F6558",
"p  c #424F68",
"a  c #445064",
"s  c #464C7C",
"d  c #475478",
"f  c #6E6E68",
"g  c #706E6A",
"h  c #797062",
"j  c #6A6472",
"k  c #AF3A7B",
"l  c #8F8779",
"z  c #8A8274",
"x  c #91897C",
"c  c #5E3E81",
"v  c #3E4D81",
"b  c #395382",
"n  c #3D5E8A",
"m  c #3F608D",
"M  c #4B4682",
"N  c #534C8F",
"B  c #425D8B",
"V  c #455884",
"C  c #4A5993",
"Z  c #52599A",
"A  c #7B439A",
"S  c #664287",
"D  c #42618C",
"F  c #4C608E",
"G  c #546483",
"H  c #456793",
"J  c #466894",
"K  c #4A6C99",
"L  c #486D97",
"P  c #49719D",
"I  c #5E7A98",
"U  c #607F9B",
"Y  c #6653A5",
"T  c #5667A5",
"R  c #4C76A2",
"E  c #4E79A5",
"W  c #527BA6",
"Q  c #527EAC",
"!  c #5C7BAF",
"~  c #5879A2",
"^  c #6D6CBC",
"/  c #6578B9",
"(  c #6C7FC6",
")  c #AB2681",
"_  c #AC2883",
"`  c #8E5A9E",
"'  c #884EA3",
"]  c #8351A5",
"[  c #8A5DA6",
"{  c #8553A8",
"}  c #8859B8",
"|  c #955DB2",
" . c #9669AC",
".. c #9567AC",
"X. c #ED65A2",
"o. c #875FC1",
"O. c #995DC4",
"+. c #8865C8",
"@. c #5182AE",
"#. c #568BB5",
"$. c #5985B4",
"%. c #5B92BB",
"&. c #6982A3",
"*. c #6E9ABC",
"=. c #5D98C1",
"-. c #698FC9",
";. c #638AC1",
":. c #7683CA",
">. c #7785C9",
",. c #6A94CF",
"<. c #6597CA",
"1. c #728BD1",
"2. c #6D97D2",
"3. c #6D9CD4",
"4. c #7196D6",
"5. c #7E90D4",
"6. c #729DDB",
"7. c #6BAAD4",
"8. c #6CA0D3",
"9. c #71A1DD",
"0. c #76B6D7",
"q. c #7ABBDA",
"w. c #739FE0",
"e. c #77B6E9",
"r. c #7FB9F1",
"t. c #78ACE6",
"y. c #77C7EF",
"u. c #968F82",
"i. c #AAA594",
"p. c #B1AC9F",
"a. c #B4AFA3",
"s. c #BBB6AA",
"d. c #BDB8AA",
"f. c #B8B3A3",
"g. c #F38696",
"h. c #C3BEB1",
"j. c #C8C3B4",
"k. c #C4C0B3",
"l. c #869EE1",
"z. c #89A3E4",
"x. c #8EAEE3",
"c. c #87A0E3",
"v. c #80BBED",
"b. c #82BCF6",
"n. c #83C9E6",
"m. c #81C6E3",
"M. c #98CEE0",
"N. c #8ED5EE",
"B. c #91D3EB",
"V. c #85C4FC",
"C. c #88C6FF",
"Z. c #8ACAFF",
"A. c #87CCF9",
"S. c #8FD3FF",
"D. c #8EDCFD",
"F. c #94DEFF",
"G. c #96E3FD",
"H. c #9BEAFF",
"J. c #AFE2EC",
"K. c #A7E7F7",
"L. c #AFF3FF",
"P. c #B9F6FD",
"I. c #D5D2C6",
"U. c #F0EFE1",
/* pixels */
"                                                                                                                                ",
"                                                                                                                                ",
"                                                                                                                                ",
"                                                                                                                                ",
"                                                                                                                                ",
"                                                                                                                                ",
"                                                                                                                                ",
"                                                                                                                                ",
"                                                                                                                                ",
"                                                                                                                                ",
"                                                                                                                                ",
"                                                                                      V V                                       ",
"                                                                                  > &.J.B.~ <                                   ",
"                                                                                9 $ I K.U q 9                                   ",
"                                                                                9 V *.N.I q 9                                   ",
"                                                                                9 ;.A.G.N.~ <                                   ",
"                                                                                  v $.v.K                                       ",
"                                                                                    C T                                         ",
"                                                                                      <                                         ",
"                                                                                                                                ",
"                                                          @ @                                   @                               ",
"                                                        @ 0 0 @                                                                 ",
"                                                        @ 0 0 @                                                                 ",
"                                          u u             @ @                                                                   ",
"                                        e s.s.e                         @ @ @                                                   ",
"                                      u s.U.d.X             + + + + + $ w D d +                                                 ",
"                                      u s.d.i.l           5 8 8 0 0 8 w L @.L 5                                                 ",
"                                        e X l j.h     - - P =.%.#.#.#.#.R P P H =                                               ",
"                                              h a.j 6 W W 7.y.e.%.#.#.#.#.E P H =                                               ",
"                                                j G P %.M.K.K.D.n.m.n.q.%.E P L V ,                                             ",
"                                                6 P =.0.L.P.L.H.H.H.H.G.7.Q L P P 0 *                                           ",
"                                              , E %.0.H.H.H.H.H.H.H.H.G.Z.<.R P P m 6 #       i                                 ",
"                                          + 5 J R 0.G.H.H.H.H.H.H.H.F.Z.C.V.3.P P n p r e X u.I.i                               ",
"                                          + 5 E 8.A.x.[ [ x.D.S.S.D.z.] ] z.V.3.J a g i.f.h.a.x                                 ",
"                                          = 0 Q b.z...k ) | l.C.C.l...k ) | l.t.D t f i.f.k.p.z                                 ",
"                                        @ 6 n W r.{ k g.X.) ] C.C.] k g.X._ A ,.B b d y r o x j.u                               ",
"                                        @ 6 b J r.{ ) X.g.k ] C.C.] ) X.g.k A ,.B Z } | 1     u                                 ",
"                                        @ M C D 9.>.' _ k  .c.C.C.5.' _ k ` :.2.T o.} c                                         ",
"                                        @ 3 N Z ( w.:.A A 5.V.b.b.t.:.A A :.9.:.+.} S O                                         ",
"                                          + 2 Y Y / 2.6.4.6.3.-.-.3.6.4.6.2./ Y O.4 O                                           ",
"                                            # % % - F 4.^ 1.! ; ; ! 1.^ 4.F - % : &                                             ",
"                                              + + . , s 3 s 7 + + 7 s 3 s , . + O                                               ",
"                                                      + + + + @ @ + + + +                                                       ",
"                                                                                                                                ",
"                                                                                                                                ",
"                                                                                                                                ",
"                                                                                                                                ",
"                                                                                                                                ",
"                                                                                                                                ",
"                                                                                                                                ",
"                                                                                                                                ",
"                                                                                                                                ",
"                                                                                                                                ",
"                                                                                                                                ",
"                                                                                                                                ",
"                                                                                                                                ",
"                                                                                                                                ",
"                                                                                                                                ",
"                                                                                                                                ",
"                                                                                                                                ",
"                                                                                                                                ",
"                                                                                                                                ",
"                                                                                                                                ",
"                                                                                                                                "
};
