/* XPM */
static char *il4[] = {
/* columns rows colors chars-per-pixel */
"64 64 155 2 ",
"   c None",
".  c #25253E",
"X  c #42393E",
"o  c #4A403A",
"O  c #262541",
"+  c #2A2545",
"@  c #2B264A",
"#  c #2D294B",
"$  c #322B4C",
"%  c #3C3448",
"&  c #2F2E54",
"*  c #342E57",
"=  c #362F59",
"-  c #2F3357",
";  c #313256",
":  c #323559",
">  c #3D305D",
",  c #32385F",
"<  c #3C3353",
"1  c #333D64",
"2  c #333B6C",
"3  c #3A3765",
"4  c #333E70",
"5  c #453D4B",
"6  c #433569",
"7  c #433666",
"8  c #512D71",
"9  c #443B71",
"0  c #4C3B75",
"q  c #4A3F7C",
"w  c #5B3E7D",
"e  c #374369",
"r  c #3B4A6F",
"t  c #3A4566",
"y  c #384574",
"u  c #3B4C73",
"i  c #344A77",
"p  c #37547E",
"a  c #38537E",
"s  c #43464F",
"d  c #484950",
"f  c #48505D",
"g  c #5B5358",
"h  c #575A5E",
"j  c #635D57",
"k  c #6C6254",
"l  c #404E67",
"z  c #534C67",
"x  c #4B5567",
"c  c #424E7B",
"v  c #455878",
"b  c #576878",
"n  c #756E6D",
"m  c #7C746A",
"M  c #AE397B",
"N  c #837C72",
"B  c #868276",
"V  c #938A7A",
"C  c #7D3288",
"Z  c #395481",
"A  c #3D5A86",
"S  c #3D5D89",
"D  c #375483",
"F  c #4B4E88",
"G  c #415585",
"H  c #445987",
"J  c #49558E",
"K  c #435B89",
"L  c #47598B",
"P  c #5C4D98",
"I  c #4C5693",
"U  c #4A5C93",
"Y  c #545796",
"T  c #624388",
"R  c #44648B",
"E  c #496C94",
"W  c #476E9A",
"Q  c #496E9C",
"!  c #456794",
"~  c #49719D",
"^  c #47719E",
"/  c #5C58A2",
"(  c #6353A4",
")  c #6955AA",
"_  c #6558AA",
"`  c #6856A2",
"'  c #6F5AB0",
"]  c #735AB5",
"[  c #7D58B4",
"{  c #516FA4",
"}  c #4C76A2",
"|  c #4D7AA5",
" . c #5677A1",
".. c #507EA7",
"X. c #537BAC",
"o. c #587DB2",
"O. c #6D6BBC",
"+. c #7D5EC0",
"@. c #AB2681",
"#. c #8351A6",
"$. c #895DA6",
"%. c #8454A9",
"&. c #935BB4",
"*. c #9668AC",
"=. c #9B6BB0",
"-. c #ED65A2",
";. c #865FC2",
":. c #9B5EC6",
">. c #A164D1",
",. c #5181AB",
"<. c #5586B2",
"1. c #568BB5",
"2. c #598EB9",
"3. c #6181A2",
"4. c #5D98C3",
"5. c #6192C4",
"6. c #659AC8",
"7. c #6C99D3",
"8. c #749BDB",
"9. c #71A4C6",
"0. c #6BB5DF",
"q. c #74ABE0",
"w. c #7DB4EC",
"e. c #78BEE0",
"r. c #A1998B",
"t. c #B4AF9F",
"y. c #B9B6AA",
"u. c #F38696",
"i. c #C9C4B5",
"p. c #D3CFBE",
"a. c #898DD4",
"s. c #93BDD1",
"d. c #869EE2",
"f. c #89A3E5",
"g. c #88A9E5",
"h. c #94BBE3",
"j. c #81BBF3",
"k. c #86BEF8",
"l. c #82C1DE",
"z. c #88CAE9",
"x. c #8FD6EF",
"c. c #84C3FB",
"v. c #88C6FF",
"b. c #8AC8FF",
"n. c #8AD1FF",
"m. c #8BD9FC",
"M. c #93DBFE",
"N. c #9CEBFF",
"B. c #99E3FA",
"V. c #9EF9FF",
"C. c #A1ECFF",
"Z. c #BEFAFF",
"A. c #D7D5C8",
"S. c #E2DFD1",
"D. c #C9FFFF",
/* pixels */
"                                                                                                                                ",
"                                                                                                                                ",
"                                                                                                                                ",
"                                                                                                                                ",
"                                                                                                                                ",
"                                                                                                                                ",
"                                                                                                                                ",
"                                                                                          H H                                   ",
"                                                                                        y 9.9.y                                 ",
"                                                                                           . .                                  ",
"                                                                                                                                ",
"                                                                                                                                ",
"                                                                                                                                ",
"                                                                                                                                ",
"                                                                                                                                ",
"                                                                                                                                ",
"                                                                                                                                ",
"                                                                                                                                ",
"                                                                                                                                ",
"                                                                          : : ;                                                 ",
"                                                                        # R | K ;                                               ",
"                                                            + + + + + + @ K | A &                                               ",
"                                                          e u r e e e e , Z A e &                                               ",
"                                                      : : E 2.<.} ~ ~ W A Z y =                                                 ",
"                                                  + r ....<.1.1.<.| ~ ~ W S J P = @ #                                           ",
"                                                @ u ,.0.0.4.<.1.1.| ~ ~ ~ S I ( * e u #                                         ",
"                                                & 3.z.B.m.e.6.<.,.} ~ ~ ~ S I ) q c u #                                         ",
"                                                H s.D.Z.C.N.z.2.} ~ ~ ~ W S J _ ` 6 +                                           ",
"                                              H l.B.C.C.N.N.M.w...Q ~ W A Z Z v g % @                                           ",
"                                              H x.V.h.$.$.g.m.c.q.<.^ E f d s h y.m X                                           ",
"                                              H z.h.=.@.M *.d.v.b.5.R b N V V r.y.n X                                           ",
"                                              F w.%.@.-.u.M #.v.v.5.v j t.p.S.A.m 5 $                                           ",
"                                          y 8 C g.%.M u.-.@.#.v.c.5.R v j k k m i.N o                                           ",
"                                          4 Y a.k.f.*.M @.&.f.c.6.~ A a l l t x B g %                                           ",
"                                          2 { c.v.n.f.#.%.f.c.6.W Z a Z Z Z D a z < @                                           ",
"                                          2 U 8.j.j.j.k.w.j.5.Z Z Z Z Z Z Z Z J ' 9 +                                           ",
"                                          # 9 O.8.X.X.7.Q R K Z Z Z Z Z Z p J ' >.w O                                           ",
"                                            = 9 c 1 L 7.S i a Z Z a p p p I _ ) T 7                                             ",
"                                            O # 6 3 G o.A p a a p L I I I _ +.[ * .                                             ",
"                                            O * P J p Z Z Z G G G / ] ] ( ( [ &.> O                                             ",
"                                              # = y Z Z Z Y _ _ _ _ ;.:.6 * > > #                                               ",
"                                                O - , , , 3 9 9 9 9 0 w $ . O O                                                 ",
"                                                  + + + + + + + + + + O                                                         ",
"                                                                                                                                ",
"                                                                                                                                ",
"                                                                                                                                ",
"                                                                                                                                ",
"                                                                                                                                ",
"                                                                                                                                ",
"                                                                                                                                ",
"                                                                                                                                ",
"                                                                                                                                ",
"                                                                                                                                ",
"                                                                                                                                ",
"                                                                                                                                ",
"                                                                                                                                ",
"                                                                                                                                ",
"                                                                                                                                ",
"                                                                                                                                ",
"                                                                                                                                ",
"                                                                                                                                ",
"                                                                                                                                ",
"                                                                                                                                ",
"                                                                                                                                "
};
