/* XPM */
static char *ir0[] = {
/* columns rows colors chars-per-pixel */
"64 64 181 2 ",
"   c None",
".  c #24253E",
"X  c #41383B",
"o  c #271D41",
"O  c #262542",
"+  c #2A2545",
"@  c #2C2648",
"#  c #2D294B",
"$  c #332E49",
"%  c #3B3344",
"&  c #2E2C53",
"*  c #362F59",
"=  c #3B2F5A",
"-  c #342D56",
";  c #2F3259",
":  c #313256",
">  c #31355B",
",  c #3B315E",
"<  c #353C62",
"1  c #32396C",
"2  c #3A3E65",
"3  c #68176A",
"4  c #43396F",
"5  c #46366A",
"6  c #453971",
"7  c #4C3D78",
"8  c #573C79",
"9  c #682E7C",
"0  c #39466B",
"q  c #39456B",
"w  c #374274",
"e  c #384376",
"r  c #3E4B79",
"t  c #364972",
"y  c #37537D",
"u  c #39537E",
"i  c #3E5177",
"p  c #564B42",
"a  c #534B4E",
"s  c #4E4153",
"d  c #635E58",
"f  c #6E6558",
"g  c #706659",
"h  c #404F69",
"j  c #4E5869",
"k  c #414E70",
"l  c #435876",
"z  c #515E74",
"x  c #576878",
"c  c #756C68",
"v  c #636C73",
"b  c #951674",
"n  c #817C70",
"m  c #918A79",
"M  c #3A5481",
"N  c #3D5A86",
"B  c #3E5C88",
"V  c #54498E",
"C  c #425587",
"Z  c #425884",
"A  c #45568C",
"S  c #49568F",
"D  c #465988",
"F  c #4A5B88",
"G  c #5E5387",
"H  c #5C4D98",
"J  c #4D5693",
"K  c #4D5895",
"L  c #55579A",
"P  c #545899",
"I  c #585797",
"U  c #7B4C9E",
"Y  c #694A91",
"T  c #44638D",
"R  c #4A6685",
"E  c #506887",
"W  c #446692",
"Q  c #466994",
"!  c #476E9A",
"~  c #4B6C9D",
"^  c #496E97",
"/  c #526A9D",
"(  c #4A729D",
")  c #56729A",
"_  c #5F57A4",
"`  c #6453A4",
"'  c #6558AA",
"]  c #6957AC",
"[  c #6B5AB1",
"{  c #725AB4",
"}  c #526FA3",
"|  c #4A75A1",
" . c #537DAC",
".. c #5775A4",
"X. c #5C7EB5",
"o. c #872180",
"O. c #933788",
"+. c #BD3B94",
"@. c #884298",
"#. c #B45C8D",
"$. c #817580",
"%. c #894FA5",
"&. c #8951A8",
"*. c #8D5CBE",
"=. c #815EBE",
"-. c #955CA5",
";. c #8764B3",
":. c #8B69B7",
">. c #CE5286",
",. c #DA758B",
"<. c #E6639A",
"1. c #825FC1",
"2. c #8F5CC0",
"3. c #9B5EC6",
"4. c #9863CE",
"5. c #847DC7",
"6. c #61809B",
"7. c #5182AC",
"8. c #5E81A0",
"9. c #558AB4",
"0. c #5D86BB",
"q. c #5B8CBB",
"w. c #5886B5",
"e. c #6488B8",
"r. c #6B95B4",
"t. c #77A1B7",
"y. c #6593C7",
"u. c #6E9CC5",
"i. c #669ECB",
"p. c #6B9FD2",
"a. c #788ED8",
"s. c #6BA3C9",
"d. c #6BA4D7",
"f. c #74A8DB",
"g. c #7CB5EC",
"h. c #7FB7F1",
"j. c #77AAE5",
"k. c #7AC4E8",
"l. c #979082",
"z. c #A19B89",
"x. c #B4AF9F",
"c. c #ABA599",
"v. c #B9B4A4",
"b. c #FE85A1",
"n. c #C3BEB2",
"m. c #CCC9BC",
"M. c #8A82CC",
"N. c #8E92C8",
"B. c #8A9CDD",
"V. c #858BD3",
"C. c #90A1D3",
"Z. c #92B7DF",
"A. c #87ABEA",
"S. c #88A0E3",
"D. c #89B3EE",
"F. c #87B1EE",
"G. c #81BCF4",
"H. c #87B6F3",
"J. c #97CFEE",
"K. c #95D6EB",
"L. c #84C3FA",
"P. c #88C5FE",
"I. c #8ACBFF",
"U. c #89CCF2",
"Y. c #90C6F7",
"T. c #8DD4FD",
"R. c #83D4F8",
"E. c #91D6FA",
"W. c #91DDF6",
"Q. c #97E3FD",
"!. c #9BEDFF",
"~. c #9CF1FF",
"^. c #B0E2EC",
"/. c #A3E4F2",
"(. c #A7F7FF",
"). c #ADF4FF",
"_. c #B0F5FF",
"`. c #B4ECF4",
"'. c #D6D4C7",
"]. c #C0F7FB",
"[. c #F5F4E6",
/* pixels */
"                                                                                                                                ",
"                                                                                                                                ",
"                                                                                                                                ",
"                                                                                                                                ",
"                                                                                                                                ",
"                                                                                                                                ",
"                                                                                                                                ",
"                                                                                                                                ",
"                                                                                                                                ",
"                                                                                                                                ",
"                                                                                                                                ",
"                                                                                                                                ",
"                                                                                                                                ",
"                                                                                                                                ",
"                                                                                                                                ",
"                                              D F D C                                                                           ",
"                                          1 ..K.^.K.u.e                                                                         ",
"                                          1 r 6./.t.8.s.D                                                                       ",
"                                          w r ) U.r.r.U.D                                                                       ",
"                                          1 } g.h.T.E.f.C                                                                       ",
"                                      # #     C W f.u.2                                                                         ",
"                                    < Z T 0     > z j +                                                                         ",
"                                  @ < ! 7.0 +   % c c %                                                                         ",
"                                  @ > u T q @   g m.n.p   : : : : > > >                                                         ",
"                                      & :     f '.[.v.p $ i Q W W ( 7.( > @ #                                                   ",
"                                                l.m z.c.a l | | 7.9.q.9.Q T i +                                                 ",
"                                                X s $.x.m v R | 9.9.9.9.s.d.7.0                                                 ",
"                                                * V G d x.n j | 7.9.q.i.k.R.k.e.k                                               ",
"                                              * H J M l d x ^ ( | 7.s.W.Q._.].`.K.E o                                           ",
"                                              - ` K y u h T | ( ! y.U.!.~.(._.).!.) &                                           ",
"                                            , 7 ] J y M M W ( | q.g.T.E.C.N.Z.!.!.s.~                                           ",
"                                          + 4 [ ' S y M M W (  .h.I.L.B.O.b -.J.Q.Y.e.w                                         ",
"                                          + 6 ' A M M M M W (  .G.I.V.O.,.<.+.@.D.:.9 e                                         ",
"                                          + 6 ' M y M M M N T  .G.T.5.b <.b.>.o.A.%.3 e                                         ",
"                                          + 7 =.P M y M M u N ! p.L.S.%.+.>.#.;.H.M.Y e                                         ",
"                                          O 8 3.{ J M M M M u M Q p.L.F.@.o.;.P.P.P.y.e                                         ",
"                                              5 ` [ P M M M M M M B 0.L.F.A.H.P.P.h.X.w                                         ",
"                                            . = *.1.' P M y y y u y T  .w.d.d.0.j.a.L >                                         ",
"                                            . = U *.1.[ P J J S M y y y y 0.X.t / I 6 @                                         ",
"                                                # U 2.` ` [ { ' A M C M M w...& # # #                                           ",
"                                                  = , * * &.4.[ ' ' ' _ M N N t & +                                             ",
"                                                    O O O 8 8 6 6 6 6 4 < > > > #                                               ",
"                                                          O O + + + + + + @ @ +                                                 ",
"                                                                                                                                ",
"                                                                                                                                ",
"                                                                                                                                ",
"                                                                                                                                ",
"                                                                                                                                ",
"                                                                                                                                ",
"                                                                                                                                ",
"                                                                                                                                ",
"                                                                                                                                ",
"                                                                                                                                ",
"                                                                                                                                ",
"                                                                                                                                ",
"                                                                                                                                ",
"                                                                                                                                ",
"                                                                                                                                ",
"                                                                                                                                ",
"                                                                                                                                ",
"                                                                                                                                ",
"                                                                                                                                ",
"                                                                                                                                ",
"                                                                                                                                "
};
