/* XPM */
static char *ir2[] = {
/* columns rows colors chars-per-pixel */
"64 64 176 2 ",
"   c None",
".  c #25253E",
"X  c #3C323F",
"o  c #262542",
"O  c #2A2445",
"+  c #2D284B",
"@  c #2B264B",
"#  c #383143",
"$  c #2F2C51",
"%  c #332D53",
"&  c #372F5A",
"*  c #313256",
"=  c #32365C",
"-  c #36395F",
";  c #3E305E",
":  c #363E64",
">  c #393C64",
",  c #323A6E",
"<  c #323764",
"1  c #7B1A75",
"2  c #453764",
"3  c #443A72",
"4  c #483C75",
"5  c #5B3E7D",
"6  c #374168",
"7  c #3C446B",
"8  c #384067",
"9  c #374273",
"0  c #384376",
"q  c #3C4B71",
"w  c #3E4C7C",
"e  c #384578",
"r  c #37547E",
"t  c #3B547D",
"y  c #42454C",
"u  c #544F4A",
"i  c #57534D",
"p  c #47485B",
"a  c #635E57",
"s  c #6F6559",
"d  c #404F69",
"f  c #4D5967",
"g  c #414B76",
"h  c #495979",
"j  c #435472",
"k  c #5D6469",
"l  c #576878",
"z  c #746C69",
"x  c #636B72",
"c  c #747372",
"v  c #941D7B",
"b  c #952479",
"n  c #AF2A79",
"m  c #817C70",
"M  c #928978",
"N  c #3A5481",
"B  c #3B5885",
"V  c #424B81",
"C  c #55478C",
"Z  c #524486",
"A  c #415486",
"S  c #45558C",
"D  c #48558E",
"F  c #445888",
"G  c #4B5693",
"H  c #58559C",
"J  c #67448B",
"K  c #6B5D85",
"L  c #744D9F",
"P  c #4B6684",
"I  c #41628D",
"U  c #49688C",
"Y  c #426592",
"T  c #446893",
"R  c #476D99",
"E  c #486D98",
"W  c #4A729D",
"Q  c #47719E",
"!  c #5D59A3",
"~  c #5B57A1",
"^  c #6B56A9",
"/  c #6458AA",
"(  c #6555A8",
")  c #6E5AB2",
"_  c #735BB8",
"`  c #4A74A0",
"'  c #4F7EA8",
"]  c #517CA9",
"[  c #5879A8",
"{  c #5C7DB2",
"}  c #7D74BB",
"|  c #7E7EC3",
" . c #872B87",
".. c #A7328C",
"X. c #C63C90",
"o. c #9E459E",
"O. c #A05596",
"+. c #AA4684",
"@. c #854CA3",
"#. c #8854A0",
"$. c #8957B5",
"%. c #8B72B2",
"&. c #8664B7",
"*. c #CC5C84",
"=. c #DE549D",
"-. c #E57B8F",
";. c #F575A1",
":. c #875FC3",
">. c #995DC4",
",. c #9163CC",
"<. c #8D7BC1",
"1. c #A164D1",
"2. c #5383AE",
"3. c #568AB5",
"4. c #5683B2",
"5. c #6182B8",
"6. c #6C98B5",
"7. c #7B98B3",
"8. c #71A0BC",
"9. c #628CC3",
"0. c #639DC2",
"q. c #6695CA",
"w. c #709BD8",
"e. c #73A6C5",
"r. c #7BB2CB",
"t. c #6FA3D8",
"y. c #71A9DC",
"u. c #72A2D6",
"i. c #7FBAD6",
"p. c #74ADE2",
"a. c #76A7E1",
"s. c #7BB1E6",
"d. c #7EBEE0",
"f. c #7FC3E1",
"g. c #818482",
"h. c #938A84",
"j. c #A29A8A",
"k. c #ADA99D",
"l. c #B4AF9E",
"z. c #B9B3A2",
"x. c #F8829D",
"c. c #C9C5B8",
"v. c #968AC3",
"b. c #868AD1",
"n. c #8989D1",
"m. c #8487D0",
"M. c #8A90D6",
"N. c #8A8AC8",
"B. c #8CB9D0",
"V. c #8AB3C8",
"C. c #87ADEC",
"Z. c #80BBE5",
"A. c #82BDF4",
"S. c #85BDF9",
"D. c #8AB5F1",
"F. c #83C7E4",
"G. c #99D3E6",
"H. c #85C4FD",
"J. c #89C3FD",
"K. c #8ACAFF",
"L. c #8FD8FF",
"P. c #8FD4FF",
"I. c #93D9FB",
"U. c #A3D7E6",
"Y. c #96E4FC",
"T. c #9BEBFF",
"R. c #A0ECFF",
"E. c #A9E7F2",
"W. c #A0F0FF",
"Q. c #ADF5FF",
"!. c #BBFAFF",
"~. c #B5F6FF",
"^. c #D6D4C7",
"/. c #C5FEFF",
"(. c #CAFFFF",
"). c #F5F4E6",
/* pixels */
"                                                                                                                                ",
"                                                                                                                                ",
"                                                                                                                                ",
"                                                                                                                                ",
"                                                                                                                                ",
"                                                                                                                                ",
"                                                                                                                                ",
"                                                                                                                                ",
"                                        0 0 0                                                                                   ",
"                                      F e.B.7.e                                                                                 ",
"                                      w 6.E.V.<                                                                                 ",
"                                      9 7 r.r.8 9                                                                               ",
"                                      A i.Y.I.u.A                                                                               ",
"                                        [ Z.s.[                                                                                 ",
"                                        , { { ,                                                                                 ",
"                                          0 0                                                                                   ",
"                                                                                                                                ",
"                                                                                                                                ",
"                                                                                                                                ",
"                                  + +                                                                                           ",
"                                                                        +                                                       ",
"                                                                      * t :                                                     ",
"                                                                      * t :                                                     ",
"                                                                        +                                                       ",
"                                                  + + + +                                                                       ",
"                                                @ X p N t : O O O O O O O                                                       ",
"                                                # z g.P T w 8 8 8 7 q q q :                                                     ",
"                                                s c.c.u t T W W W 2.3.3.3.t * =                                                 ",
"                                              s ^.).z.i U W W ` 2.3.3.3.3.2.] W =                                               ",
"                                            2 K h.M j.k.k P ` ` 3.3.0.F.G.U.G.f.e.h                                             ",
"                                          o 3 ^ p y c l.M x P W ' 0.F.R.!.(./.Q.W.6.h                                           ",
"                                          % 4 ! B N d a l.m f W ] d.T.T.T.~./.!.R.T.8.$                                         ",
"                                        + Z H B N N t j a l E ] s.H.L.T.T.T.R.R.T.W.e.9                                         ",
"                                        + C ! r N N N t d U Q ] A.K.K.P.L.N.#.%.I.Y.A.q.A                                       ",
"                                        + C ~ r N N N N N T W ] A.K.H.S.b.O.n ..v.D.D.| V                                       ",
"                                        + C ! B N N N N N Y R ] s.H.K.C. .*.x.=.v b.n.1 3                                       ",
"                                        + C ) ! B r N N N N I W ] p.K.C. .X.;.-.b m.n.1 3                                       ",
"                                        + L ,.^ ~ S r r r t N I R 4.y.J.M.o.n +.<.D.D.| V                                       ",
"                                        + J $.:._ ~ G D N r r N I I ] y.p.} @.&.S.H.S.p.w                                       ",
"                                          o 5 >.^ ( ^ ) D B A A A N B R R t.S.s.s.a.w.5.-                                       ",
"                                            % ; & % J 1.) / / / / D N N B 9.5.> > { { -                                         ",
"                                              o o . 2 5 4 3 3 3 3 > = = = q 7 O O 7 g                                           ",
"                                                      o O O O O O O O O O O O + + O                                             ",
"                                                                                                                                ",
"                                                                                                                                ",
"                                                                                                                                ",
"                                                                                                                                ",
"                                                                                                                                ",
"                                                                                                                                ",
"                                                                                                                                ",
"                                                                                                                                ",
"                                                                                                                                ",
"                                                                                                                                ",
"                                                                                                                                ",
"                                                                                                                                ",
"                                                                                                                                ",
"                                                                                                                                ",
"                                                                                                                                ",
"                                                                                                                                ",
"                                                                                                                                ",
"                                                                                                                                ",
"                                                                                                                                ",
"                                                                                                                                ",
"                                                                                                                                "
};
