/* XPM */
static char *ir3[] = {
/* columns rows colors chars-per-pixel */
"64 64 167 2 ",
"   c None",
".  c #24253E",
"X  c #42393E",
"o  c #271D41",
"O  c #262542",
"+  c #2A2545",
"@  c #2C2649",
"#  c #2D294B",
"$  c #3C374C",
"%  c #2D2C53",
"&  c #362F59",
"*  c #3B2F5A",
"=  c #313256",
"-  c #31355A",
";  c #3C305D",
":  c #343A61",
">  c #3B3060",
",  c #68176A",
"<  c #44386C",
"1  c #453A71",
"2  c #4F3C77",
"3  c #573C79",
"4  c #682E7C",
"5  c #374369",
"6  c #374375",
"7  c #384376",
"8  c #364972",
"9  c #3A4F7D",
"0  c #37537D",
"q  c #39547E",
"w  c #3E5177",
"e  c #56514C",
"r  c #464A53",
"t  c #4B515B",
"y  c #58595E",
"u  c #635E57",
"i  c #6E6558",
"p  c #706659",
"a  c #404F69",
"s  c #4D5966",
"d  c #414E70",
"f  c #435472",
"g  c #576878",
"h  c #756E6C",
"j  c #636C73",
"k  c #737372",
"l  c #951674",
"z  c #817C70",
"x  c #8B8375",
"c  c #948C7C",
"v  c #918877",
"b  c #3A5481",
"n  c #3D5A86",
"m  c #3E5D8A",
"M  c #3F618F",
"N  c #405487",
"B  c #445887",
"V  c #44568A",
"C  c #49598A",
"Z  c #4C5693",
"A  c #55579A",
"S  c #545899",
"D  c #585797",
"F  c #694A91",
"G  c #7B4C9E",
"H  c #44638D",
"J  c #486586",
"K  c #506887",
"L  c #446792",
"P  c #466994",
"I  c #4B6C9D",
"U  c #486E98",
"Y  c #526A9D",
"T  c #4A729D",
"R  c #567499",
"E  c #5F57A4",
"W  c #6453A4",
"Q  c #6558AA",
"!  c #6B5AB1",
"~  c #725AB4",
"^  c #4A74A1",
"/  c #537DAC",
"(  c #5672A5",
")  c #5C7EB5",
"_  c #872180",
"`  c #933788",
"'  c #BD3B94",
"]  c #884298",
"[  c #B45C8D",
"{  c #894FA5",
"}  c #8951A8",
"|  c #955CA5",
" . c #8D5CBE",
".. c #815EBE",
"X. c #8764B3",
"o. c #8B69B7",
"O. c #CE5286",
"+. c #DA758B",
"@. c #E6639A",
"#. c #825FC1",
"$. c #8F5CC0",
"%. c #9B5EC6",
"&. c #9863CE",
"*. c #847DC7",
"=. c #5181AC",
"-. c #558AB4",
";. c #5D86BB",
":. c #5B8CBB",
">. c #5886B5",
",. c #618EB2",
"<. c #6882BE",
"1. c #648CC3",
"2. c #6593C7",
"3. c #669ECB",
"4. c #788ED8",
"5. c #6B9FD2",
"6. c #69A4CC",
"7. c #71A4CD",
"8. c #6BA4D7",
"9. c #7BB4EB",
"0. c #7FB7F1",
"q. c #77AAE5",
"w. c #7AC4E8",
"e. c #A29A8A",
"r. c #ACA89C",
"t. c #B4AF9E",
"y. c #B9B3A3",
"u. c #FE85A1",
"i. c #C9C5B7",
"p. c #8A82CC",
"a. c #8E92C8",
"s. c #858BD3",
"d. c #8A9CDD",
"f. c #8BADC3",
"g. c #83B3CD",
"h. c #90A1D3",
"j. c #92B7DF",
"k. c #87ABEA",
"l. c #88A0E3",
"z. c #89B3EE",
"x. c #87B1EE",
"c. c #81BCF4",
"v. c #87B6F3",
"b. c #82C0DD",
"n. c #97CFEE",
"m. c #91D2E7",
"M. c #84C3FA",
"N. c #88C5FE",
"B. c #8ACBFF",
"V. c #86C7F2",
"C. c #90C6F7",
"Z. c #8DD3FF",
"A. c #83D4F8",
"S. c #92DAF9",
"D. c #97E3FD",
"F. c #9BEDFF",
"G. c #9CF1FF",
"H. c #ACE6F2",
"J. c #B4ECF4",
"K. c #A7F7FF",
"L. c #AFFCFF",
"P. c #ADF4FF",
"I. c #B0F8FF",
"U. c #B0F2FE",
"Y. c #D6D3C7",
"T. c #C0F7FB",
"R. c #F5F4E5",
/* pixels */
"                                                                                                                                ",
"                                                                                                                                ",
"                                                                                                                                ",
"                                                                                                                                ",
"                                                                                                                                ",
"                                                                                                                                ",
"                                                                                                                                ",
"                                                                                                                                ",
"                                        7 7 7                                                                                   ",
"                                      C f.g.,.7                                                                                 ",
"                                      C H.L.7.7                                                                                 ",
"                                      B b.V.1.7                                                                                 ",
"                                        B B N                                                                                   ",
"                                                                                                                                ",
"                                                                                                                                ",
"                                                                                                                                ",
"                                                                                                                                ",
"                                                                                                                                ",
"                                                                                                                                ",
"                                                                                                                                ",
"                                                                      #                                                         ",
"                                                    X @ + @                                                                     ",
"                                                  x h $ 5 : =                                                                   ",
"                                                p i.i.e H M 8 = = - - -                                                         ",
"                                              i Y.R.y.e w L U L L T =.T - @ #                                                   ",
"                                                c v e.r.y J ^ ^ =.-.:.-.P J w +                                                 ",
"                                                t r k t.v j J ^ -.-.-.-.6.8.=.5                                                 ",
"                                              : P M a u t.z s T =.-.:.3.w.A.w.,.d                                               ",
"                                          + 5 P U m q f u g U T ^ =.6.S.D.U.T.J.m.K o                                           ",
"                                            - 5 n n b q a J ^ T U 2.V.F.G.K.L.P.F.R %                                           ",
"                                            > 1 9 b b b b L T ^ :.9.Z.S.h.a.j.F.F.7.I                                           ",
"                                          + 1 Q N 0 b b b L T / 0.B.M.d.` l | n.D.C.<.7                                         ",
"                                          + 1 Q N q b b b L T / c.B.s.` +.@.' ] z.o.4 7                                         ",
"                                          + 1 Q n 0 b b b n H / c.Z.*.l @.u.O._ k.{ , 7                                         ",
"                                          + 2 ..S n q b b q n U 5.M.l.{ ' O.[ X.v.p.F 7                                         ",
"                                          O 3 %.~ Z b b b b q b P 5.M.x.] _ X.N.N.N.2.7                                         ",
"                                              < W ! S b b b b b b m ;.M.x.k.v.N.N.0.) 7                                         ",
"                                            . *  .#.Q S b 0 0 0 q 0 H / >.8.8.;.q.4.A =                                         ",
"                                            . * G  .#.! S Z Z Z b 0 0 0 0 ;.) 8 Y D 1 @                                         ",
"                                                # G $.W W ! ~ Q V n N n b >.( % # # #                                           ",
"                                                  * ; & & } &.! Q Q Q E n n n 8 % +                                             ",
"                                                    O O O 2 3 1 1 1 1 1 : - - - #                                               ",
"                                                          O O + + + + + + @ @ +                                                 ",
"                                                                                                                                ",
"                                                                                                                                ",
"                                                                                                                                ",
"                                                                                                                                ",
"                                                                                                                                ",
"                                                                                                                                ",
"                                                                                                                                ",
"                                                                                                                                ",
"                                                                                                                                ",
"                                                                                                                                ",
"                                                                                                                                ",
"                                                                                                                                ",
"                                                                                                                                ",
"                                                                                                                                ",
"                                                                                                                                ",
"                                                                                                                                ",
"                                                                                                                                ",
"                                                                                                                                ",
"                                                                                                                                ",
"                                                                                                                                ",
"                                                                                                                                "
};
