/* XPM */
static char *md1[] = {
/* columns rows colors chars-per-pixel */
"64 64 182 2 ",
"   c None",
".  c #24243D",
"X  c #54483B",
"o  c #2A1F42",
"O  c #262442",
"+  c #2A2645",
"@  c #2D274A",
"#  c #2E294B",
"$  c #2B2A46",
"%  c #393143",
"&  c #2E2E52",
"*  c #362E57",
"=  c #313256",
"-  c #333559",
";  c #3E305D",
":  c #32385F",
">  c #332D49",
",  c #2F376D",
"<  c #323C63",
"1  c #31396D",
"2  c #3C3464",
"3  c #43386D",
"4  c #453362",
"5  c #453A71",
"6  c #493B75",
"7  c #5B3E7E",
"8  c #374166",
"9  c #36436B",
"0  c #384376",
"q  c #374B75",
"w  c #36537D",
"e  c #3B537D",
"r  c #594E41",
"t  c #544943",
"y  c #6D6356",
"u  c #6D6459",
"i  c #414C77",
"p  c #4F5B7B",
"a  c #546179",
"s  c #797062",
"d  c #6B6674",
"f  c #7B6E74",
"g  c #951973",
"h  c #841D7C",
"j  c #8F8779",
"k  c #8D8577",
"l  c #918A7E",
"z  c #3B5582",
"x  c #3E5C89",
"c  c #3E5C87",
"v  c #405587",
"b  c #48568E",
"n  c #4C5D8B",
"m  c #45588A",
"M  c #554E92",
"N  c #4A5591",
"B  c #4F5897",
"V  c #5E529F",
"C  c #504685",
"Z  c #66448A",
"A  c #625086",
"S  c #744C9E",
"D  c #44638C",
"F  c #476994",
"G  c #4A6A9A",
"H  c #476694",
"J  c #4B739C",
"K  c #53739D",
"L  c #647094",
"P  c #6558AA",
"I  c #6955AA",
"U  c #7E53AD",
"Y  c #6D5BB0",
"T  c #7C58B3",
"R  c #4D7AA5",
"E  c #4B75A2",
"W  c #5379A5",
"Q  c #537BAC",
"!  c #5676A7",
"~  c #5E7EB8",
"^  c #5869A9",
"/  c #786DB8",
"(  c #6F78C6",
")  c #7075C5",
"_  c #882480",
"`  c #872280",
"'  c #922F8B",
"]  c #82368E",
"[  c #AE3D99",
"{  c #8A4997",
"}  c #884297",
"|  c #B04098",
" . c #855FAF",
".. c #9056A2",
"X. c #9358B9",
"o. c #8F73B3",
"O. c #8F63AB",
"+. c #CC458B",
"@. c #C35F86",
"#. c #D1479C",
"$. c #C46087",
"%. c #E97395",
"&. c #847CC8",
"*. c #916BD0",
"=. c #A063D0",
"-. c #5383AD",
";. c #568AB4",
":. c #5D87B8",
">. c #5E96BE",
",. c #5F98BF",
"<. c #6682A5",
"1. c #649ABF",
"2. c #5F8EC0",
"3. c #5A95C0",
"4. c #7585C9",
"5. c #6B95CD",
"6. c #748ED0",
"7. c #6C9BD3",
"8. c #6B96D1",
"9. c #729EDB",
"0. c #7696D6",
"q. c #6D87CB",
"w. c #62A4CF",
"e. c #6CA6CD",
"r. c #6CA6D3",
"t. c #71ACDF",
"y. c #76B7D8",
"u. c #71A5CA",
"i. c #73ACE2",
"p. c #72A5E1",
"a. c #79B3E9",
"s. c #7DB9F0",
"d. c #7EB5F0",
"f. c #968F82",
"g. c #AAA495",
"h. c #B1AC9F",
"j. c #B4AFA3",
"k. c #B7B1A2",
"l. c #BBB6AA",
"z. c #BBB6A8",
"x. c #FD80A3",
"c. c #C3BFB1",
"v. c #C8C3B4",
"b. c #8680CB",
"n. c #868DD4",
"m. c #899ADD",
"M. c #869CE0",
"N. c #8AA4E2",
"B. c #8AB4ED",
"V. c #87B1EF",
"C. c #91BFEB",
"Z. c #81BBF4",
"A. c #85BFF9",
"S. c #89B8F6",
"D. c #96CBDE",
"F. c #82C2EC",
"G. c #97CEEE",
"H. c #98CFEE",
"J. c #88C5FE",
"K. c #89CAFF",
"L. c #85C6FD",
"P. c #89D0FF",
"I. c #8CDAFF",
"U. c #88D5F4",
"Y. c #92DCFF",
"T. c #95DAF4",
"R. c #92D4EC",
"E. c #95E2FE",
"W. c #99E5FE",
"Q. c #9AEAFF",
"!. c #97E9FE",
"~. c #B0E2EC",
"^. c #A2EAFC",
"/. c #B4EFF8",
"(. c #AFF7FF",
"). c #B3F5FF",
"_. c #BEF9FE",
"`. c #B0FBFF",
"'. c #D5D2C6",
"]. c #C5FBFD",
"[. c #D2FFFF",
"{. c #F0EFE1",
/* pixels */
"                                                                                                                                ",
"                                                                                                                                ",
"                                                                                                                                ",
"                                                                                                                                ",
"                                                                                                                                ",
"                                                                                                                                ",
"                                                                                                                                ",
"                                                                                                                                ",
"                                                                                                                                ",
"                                                                                                                                ",
"                                                                                                                                ",
"                                                                                                                                ",
"                                                                                                                                ",
"                                                                                                                                ",
"                                                                                                                                ",
"                                                                                                                                ",
"                                                                                                                                ",
"                        , 1                                                                                                     ",
"                        <.<.K                                                                                                   ",
"                      n ~.(.u.0           y y                           - = =                                                   ",
"                      m R.E.5.0         r l.l.r               # @ # @ - J J e @                                                 ",
"                        W ! G         y l.{.l.X         + o 8 D D D D F R R e @                                                 ",
"                        1 1           y l.l.g.j         < 9 F w.w.3.;.;.R E e @                                                 ",
"                                        r X j v.s     < F ;.y.U.U.r.>.1.,.-.e &                                                 ",
"                                              s k.d < F -.D.]._._.^.T.T.T.1.D q &                                               ",
"                                                d p D ;.y./.[.].).^.Q.Q.Q.F.2.c &                                               ",
"                                                O e ;.y.!.`._.).Q.Q.Q.Q.Q.Y.s.:.9 &                                             ",
"                                                = m e.E.H.G.T.Q.Q.Q.Q.W.H.B.S.s.G : @         u                                 ",
"                                              = D 7.L.B.} _ o.W.Q.Q.Q.H.{ `  .A.7.i % r r X f.'.u                               ",
"                                              = F i.N...@.+.| o.T.E.N.O.$.+.[  .0.a u g.k.c.j.l                                 ",
"                                              = F i.b.g %.x.+._ C.I.&.g %.x.+.h 6.L f g.k.c.h.k                                 ",
"                                              = D i.n.' #.%.$.} V.P.n.' #.%.@.] 6.( A t r X j v.y                               ",
"                                              & e r.J.m.' g ..V.J.J.J.m.' g { 6.9.) C >       y                                 ",
"                                              & q W t.J.n.&.M.K.J.J.K.A./ / 4.9.( *.S @                                         ",
"                                              & w x Q i.K.P.K.J.K.J.Z.d.i.p.7.~ Y U Z #                                         ",
"                                              & q e c R d.Z.Z.A.a.7.5.9.8.9.:.b Y 6 +                                           ",
"                                              $ & 9 z D 7.Q Q 8.i - n 8.G :.q.Y =.7 O                                           ",
"                                                @ C B z G x x G 9 < e G z H ^ I Z 4                                             ",
"                                                @ 6 M N e w w w z z w e b N P T * .                                             ",
"                                                  + 3 V m z v v v v z b Y I T X.; O                                             ",
"                                                    # 2 V P P P P P P Y =.Z * ; @                                               ",
"                                                      # 3 5 5 5 5 5 5 6 7 4 . O                                                 ",
"                                                        + + + + + + + + O                                                       ",
"                                                                                                                                ",
"                                                                                                                                ",
"                                                                                                                                ",
"                                                                                                                                ",
"                                                                                                                                ",
"                                                                                                                                ",
"                                                                                                                                ",
"                                                                                                                                ",
"                                                                                                                                ",
"                                                                                                                                ",
"                                                                                                                                ",
"                                                                                                                                ",
"                                                                                                                                ",
"                                                                                                                                ",
"                                                                                                                                ",
"                                                                                                                                ",
"                                                                                                                                ",
"                                                                                                                                ",
"                                                                                                                                ",
"                                                                                                                                ",
"                                                                                                                                "
};
