/* XPM */
static char *md4[] = {
/* columns rows colors chars-per-pixel */
"64 64 191 2 ",
"   c None",
".  c #21163C",
"X  c #24243D",
"o  c #493C2F",
"O  c #4E4338",
"+  c #52473A",
"@  c #262641",
"#  c #292644",
"$  c #2C264A",
"%  c #2D294B",
"&  c #332D42",
"*  c #2E2E52",
"=  c #332D55",
"-  c #362F59",
";  c #313256",
":  c #33345A",
">  c #3F305E",
",  c #32396D",
"<  c #343C62",
"1  c #443B40",
"2  c #453959",
"3  c #44386F",
"4  c #453362",
"5  c #453A71",
"6  c #483A72",
"7  c #573C79",
"8  c #39476C",
"9  c #384376",
"0  c #374E78",
"q  c #384E79",
"w  c #36527D",
"e  c #3B537D",
"r  c #3C5176",
"t  c #594E41",
"y  c #4F4B52",
"u  c #6C6255",
"i  c #6F6558",
"p  c #49597B",
"a  c #5C507F",
"s  c #49516E",
"d  c #5E657E",
"f  c #5D6368",
"g  c #786E60",
"h  c #736C6B",
"j  c #941A76",
"k  c #952479",
"l  c #B1317A",
"z  c #AF287B",
"x  c #8B8475",
"c  c #928A7C",
"v  c #7C3D96",
"b  c #3F4F80",
"n  c #3A5581",
"m  c #3C5886",
"M  c #524485",
"N  c #405587",
"B  c #43558A",
"V  c #415E8C",
"C  c #455A86",
"Z  c #4B5592",
"A  c #485F93",
"S  c #455792",
"D  c #545295",
"F  c #58559B",
"G  c #624388",
"H  c #44628A",
"J  c #49618F",
"K  c #456A96",
"L  c #496798",
"P  c #506B9F",
"I  c #537396",
"U  c #6351A2",
"Y  c #6559AA",
"T  c #685CAF",
"R  c #6457A7",
"E  c #6B5DB2",
"W  c #775AB5",
"Q  c #7F58A9",
"!  c #526FA4",
"~  c #4C74A1",
"^  c #4F7BA5",
"/  c #5771A3",
"(  c #5675A9",
")  c #5278A8",
"_  c #5B79A8",
"`  c #6B61B4",
"'  c #607FBA",
"]  c #7872BB",
"[  c #7968B6",
"{  c #852381",
"}  c #94348B",
"|  c #983B94",
" . c #A6318D",
".. c #AE3C98",
"X. c #C73D91",
"o. c #9C4F8F",
"O. c #884297",
"+. c #AA4684",
"@. c #8B53AA",
"#. c #8763B3",
"$. c #9663A2",
"%. c #CC468A",
"&. c #DE549D",
"*. c #CF5391",
"=. c #C46187",
"-. c #E97295",
";. c #E57B8F",
":. c #F575A1",
">. c #8B5EC3",
",. c #8878C1",
"<. c #9563CB",
"1. c #A264D2",
"2. c #5D84BB",
"3. c #5D8BBD",
"4. c #5889B4",
"5. c #5C81AA",
"6. c #6181BB",
"7. c #638DB3",
"8. c #649ABF",
"9. c #668BC7",
"0. c #748CCE",
"q. c #6194C4",
"w. c #6E9FC2",
"e. c #6992CC",
"r. c #6B97D1",
"t. c #6E9CD4",
"y. c #6F9CD8",
"u. c #7399D8",
"i. c #6EACCF",
"p. c #76AAC8",
"a. c #7DB0C8",
"s. c #6EA0D7",
"d. c #72A2DE",
"f. c #70A6D6",
"g. c #75B5D7",
"h. c #74A4E1",
"j. c #79AEEA",
"k. c #7CB3EC",
"l. c #7FB8E9",
"z. c #7EBAF0",
"x. c #7CB5F0",
"c. c #7CC0DF",
"v. c #948D81",
"b. c #979080",
"n. c #989184",
"m. c #8D888A",
"M. c #A39D91",
"N. c #A7A18F",
"B. c #AAA597",
"V. c #BAB5A9",
"C. c #F8829D",
"Z. c #FD80A3",
"A. c #C2BEB0",
"S. c #C6C2B2",
"D. c #C8C4B4",
"F. c #8682CA",
"G. c #8E92C8",
"H. c #91A4D2",
"J. c #82BAD4",
"K. c #97B4DD",
"L. c #859BE0",
"P. c #87ABEB",
"I. c #88B1EE",
"U. c #8AB7EF",
"Y. c #87B9F5",
"T. c #96BAE2",
"R. c #82C1E1",
"E. c #8DD2E9",
"W. c #86C3FC",
"Q. c #88C6FE",
"!. c #89CAFE",
"~. c #88C4F5",
"^. c #8BD2FF",
"/. c #8ED8FF",
"(. c #92DAFE",
"). c #90DAF3",
"_. c #95CBEF",
"`. c #96E4FD",
"'. c #9AEAFF",
"]. c #98E5FE",
"[. c #A4EDFE",
"{. c #B0ECF6",
"}. c #A4F7FF",
"|. c #ACF2FF",
" X c #ADF9FF",
".X c #BCF9FF",
"XX c #D6D3C4",
"oX c #E0DED0",
"OX c #E6E4D6",
"+X c #C4FDFF",
"@X c #CAFFFF",
/* pixels */
"                                                                                                                                ",
"                                                                                                                                ",
"                                                                                                                                ",
"                                                                                                                                ",
"                                                                                                                                ",
"                                                                                                                                ",
"                                                                                                                                ",
"                                                                                                                                ",
"                                                                                9 9 9 9                                         ",
"                                                                              b w.p.p.w.b                                       ",
"                                                                            J 7.`. X X`.7.J                                     ",
"                                                                          , _ `.E.{.{.E.`._ ,                                   ",
"                                                                          , ( l.p a.a.p E.5.,                                   ",
"                                                                          , ( W.p.E.E.p.!.( ,                                   ",
"                                                                            L t.(.R.R.(.s.L                                     ",
"                                                                              N d.P / k.N                                       ",
"                                                                                N 9 ( k.N                                       ",
"                                                                                    J !   %                                     ",
"                                                                                      ,   8 8                                   ",
"                                                                                        % H H %                                 ",
"                                          t t                                             : :                                   ",
"                                        O M.N.t                                                                                 ",
"                                        v.oXA.+                                                                                 ",
"                                      i XXOXB.u                                                                                 ",
"                                        i u b.D.u       % % % % % % % % %                                                       ",
"                                            g b.N.f . * C H H H H H C e e < # $                                                 ",
"                                              y m.d r I a.J.J.J.g.g.i.8.~ e < :                                                 ",
"                                              ; : I g.[.+X@X@X.X'.'.'.).4.~ K w : = -                                           ",
"                                          # 8 K ^ g.[.+X@X@X.X[.'.'.'.].~.3.K K w D M %       t                                 ",
"                                        % 8 H 4.c.`.}. X|.|.[.'.'.'.]./.^.x.q.K m S s 1 O o x V.i                               ",
"                                        $ e 4.f.].T.G.H.`.'.'.'.'.].U.F.F.Y.z.3.m 8 f x c c B.V.i                               ",
"                                        ; e q.Q._.$.j } K.`.'.].].~.,.k j ,.Y.k.H y h S.XXOXV.i                                 ",
"                                      ; V K q.I.O.=.-.*.} H.].!.Q.#.+.;.&. .Q y.V e s u u u n.D.u                               ",
"                                      * m K q.P.{ %.Z.-.j F.^.W.Q.O.z :.C.l v e.V n r s a 2 y x                                 ",
"                                      * 0 m 3.Y.#...%.=.@.L.Q.Q.Q.,.| X.=.o.[ r.V w w m Y 5 & O                                 ",
"                                      * 0 w ) z.W.#.{ O.I.Q.W.W.W.k.] { { ] d.9.V w w N Y 5 #                                   ",
"                                      * q n n ~ z.Y.P.I.W.Q.Y.h.h.d.u.0.0.u.9.V n n w N Y 5 #                                   ",
"                                    @ = D B w n ) s.x.k.j.k.j.h.h.d.d.h.d.2.J w w w N R <.7 #                                   ",
"                                    @ = M D B w w 2.r.2.y.6./ / / e.r.3.y.P n Z Z Z Y >.@.7 @                                   ",
"                                        % M F N N 6.' A e.Z = - : _ 6.A e.! Z E W R W #.> @                                     ",
"                                          = 6 Y Y E E Y ` Y U U U T E Y ` T Y W 1.G - > %                                       ",
"                                            : 5 5 3 3 5 3 5 5 5 5 5 3 5 3 5 5 6 7 4 X @                                         ",
"                                              # # # # # # # # # # # # # # # # # @                                               ",
"                                                                                                                                ",
"                                                                                                                                ",
"                                                                                                                                ",
"                                                                                                                                ",
"                                                                                                                                ",
"                                                                                                                                ",
"                                                                                                                                ",
"                                                                                                                                ",
"                                                                                                                                ",
"                                                                                                                                ",
"                                                                                                                                ",
"                                                                                                                                ",
"                                                                                                                                ",
"                                                                                                                                ",
"                                                                                                                                ",
"                                                                                                                                ",
"                                                                                                                                ",
"                                                                                                                                ",
"                                                                                                                                ",
"                                                                                                                                ",
"                                                                                                                                "
};
