/* XPM */
static char *md5[] = {
/* columns rows colors chars-per-pixel */
"64 64 180 2 ",
"   c None",
".  c #24183C",
"X  c #26263F",
"o  c #493C2F",
"O  c #443B3F",
"+  c #504437",
"@  c #4D4239",
"#  c #262641",
"$  c #2A2544",
"%  c #2C2548",
"&  c #2D294B",
"*  c #2E2E55",
"=  c #392F5A",
"-  c #312C51",
";  c #33355B",
":  c #33395F",
">  c #3E305E",
",  c #333B6D",
"<  c #353A65",
"1  c #343D71",
"2  c #413941",
"3  c #43356A",
"4  c #453A71",
"5  c #553B77",
"6  c #394468",
"7  c #374276",
"8  c #384376",
"9  c #374D78",
"0  c #38527D",
"q  c #35517C",
"w  c #49404B",
"e  c #594E41",
"r  c #534940",
"t  c #56504C",
"y  c #444956",
"u  c #665F59",
"i  c #6C6255",
"p  c #6F6558",
"a  c #454C7B",
"s  c #434478",
"d  c #475878",
"f  c #48506A",
"g  c #5E6269",
"h  c #7D7567",
"j  c #941E7B",
"k  c #952479",
"l  c #AE2A7A",
"z  c #AF3A7B",
"x  c #8B8375",
"c  c #928A7C",
"v  c #7B3B93",
"b  c #3D4C81",
"n  c #3B5582",
"m  c #3D5C89",
"M  c #514385",
"N  c #425486",
"B  c #465A8B",
"V  c #5F5082",
"C  c #475B91",
"Z  c #4E5C97",
"A  c #57569D",
"S  c #615184",
"D  c #7C449B",
"F  c #794C9D",
"G  c #7D5496",
"H  c #47638E",
"J  c #476E9A",
"K  c #486796",
"L  c #506A90",
"P  c #4A719E",
"I  c #59789B",
"U  c #516A89",
"Y  c #647C9D",
"T  c #6558AA",
"R  c #6D56AC",
"E  c #6A5AB0",
"W  c #735BB8",
"Q  c #7C53A7",
"!  c #536EA3",
"~  c #5778A6",
"^  c #5C7EB6",
"/  c #4D75A3",
"(  c #6D68BA",
")  c #7E72BC",
"_  c #6F7AC5",
"`  c #872B87",
"'  c #AB2782",
"]  c #AC2883",
"[  c #A5318C",
"{  c #C63C90",
"}  c #9E459E",
"|  c #8E5A9E",
" . c #A8538E",
".. c #946E94",
"X. c #8452A6",
"o. c #8957A5",
"O. c #945EB0",
"+. c #9058A8",
"@. c #9F7BB2",
"#. c #9D76AC",
"$. c #DE549D",
"%. c #CC5C84",
"&. c #E57B8F",
"*. c #ED65A2",
"=. c #F575A1",
"-. c #995DC4",
";. c #9863CE",
":. c #8D7CC2",
">. c #8860C7",
",. c #A861CF",
"<. c #AF69E3",
"1. c #5C86B5",
"2. c #6081A0",
"3. c #6289B8",
"4. c #6E9BBB",
"5. c #6893B0",
"6. c #729EBB",
"7. c #70A0BB",
"8. c #698FC9",
"9. c #638AC1",
"0. c #7485CB",
"q. c #6095C5",
"w. c #669ACB",
"e. c #699BC8",
"r. c #718BD0",
"t. c #6C9DD4",
"y. c #6C96D1",
"u. c #7196D6",
"i. c #739DDB",
"p. c #7E92D5",
"a. c #6AA2CD",
"s. c #75A9C7",
"d. c #7CB0CB",
"f. c #6DA1D5",
"g. c #75AADD",
"h. c #7FADEB",
"j. c #79B1E7",
"k. c #7DBBF3",
"l. c #948D81",
"z. c #989183",
"x. c #A39D91",
"c. c #A8A296",
"v. c #B2AC9B",
"b. c #BAB5A9",
"n. c #F48499",
"m. c #C3BFB1",
"M. c #C5C1AF",
"N. c #C6C2B3",
"B. c #8F96CB",
"V. c #8D8CCB",
"C. c #90B6CB",
"Z. c #94A4D3",
"A. c #88A6E7",
"S. c #93B8E2",
"D. c #82BBF6",
"F. c #84B8F4",
"G. c #82C4DF",
"H. c #8DD1E9",
"J. c #97D0EE",
"K. c #82C3FB",
"L. c #88C5FE",
"P. c #89CBFF",
"I. c #89CBF5",
"U. c #8CD0FD",
"Y. c #93DDFF",
"T. c #95D7FB",
"R. c #98E5FE",
"E. c #9AEAFF",
"W. c #94E1FB",
"Q. c #9DF1FF",
"!. c #A6E8F9",
"~. c #AAF3FF",
"^. c #A0F2FF",
"/. c #B2F3FD",
"(. c #B3FCFF",
"). c #D6D3C4",
"_. c #E0DED0",
"`. c #E6E4D6",
"'. c #C4FCFF",
"]. c #C9FEFF",
/* pixels */
"                                                                                                                                ",
"                                                                                                                                ",
"                                                                                                                                ",
"                                                                                                                                ",
"                                                                                                                                ",
"                                                                                                                                ",
"                                                                                                                                ",
"                                                                                                                                ",
"                                                                                      8 7                                       ",
"                                                                                    Y C.d./                                     ",
"                                                                                  * Y /.d.H 1                                   ",
"                                                                                7 < 2.H.d , 7                                   ",
"                                                                                8 3.I.R.H.I ,                                   ",
"                                                                                  K y.I.3.K                                     ",
"                                                                                    K 9.b                                       ",
"                                                                                      8                                         ",
"                                                                                                                                ",
"                                                                                              &                                 ",
"                                                                                              &                                 ",
"                                                                                                                                ",
"                                                                                                                                ",
"                                                                                                                                ",
"                                                                                                                                ",
"                                                                                                                                ",
"                                                                                                                                ",
"                                                                                                                                ",
"                                                                                                                                ",
"                                                                                                                                ",
"                                  e e                   & & & & & & & & &                                                       ",
"                                + x.c.e     , ,     . ; 5.7.4.6.6.7.4.1.N : $ %                                                 ",
"                                l._.m.r   / ~ !   d U I !.(.~.Q.Q.Q.E.U.w.B : ;                                                 ",
"                              p ).`.v.u f s.Y.g.d s.Q.~.'.]./.E.E.E.E.R.P.w.J 0 ; - -                                           ",
"                                p i z.N.u 6.j.1.G.W.~.'.]./.E.E.E.E.E.R.P.K.t.K 0 9 6 &       e                                 ",
"                                    h x w L a.G.E.B.| @.!.^.E.E.E.Q.S.o.X.A.K.f.P m 6 O @ o x b.p                               ",
"                                      2 6 m e.T.Z. .l [ V.J.R.Y.Y.S.#.z ' O.A.D./ d g x c c c.b.p                               ",
"                                    & ; H J q.A.` %.n.$.j B.W.L.L.X.z n.*.' X.j.H y h M.).`.b.p                                 ",
"                                  % ; 9 n H q.A.` { =.&.k V.P.L.L.X.' *.n.z D y.B 0 f i i i z.N.i                               ",
"                                & : 9 n 0 n 1.L.V.} l  .:.F.P.L.L.A.O.] z | 0.y.m q N S V G ..x t                               ",
"                                & s C 0 0 q J f.k.) v Q h.D.D.D.D.K.p.D D 0.t.^ Z C A W >.<.+.2                                 ",
"                                & M A N N N n C 8.i.i.u.i.y.8.8.8.t.i.u.i.i.^ B T W R R -.,.F &                                 ",
"                                  - 4 T T T T T ( r.r.( u.C ; : : ^ r.( u._ E T E ;.X.= > 3 =                                   ",
"                                    ; 4 4 4 4 4 4 a a 4 a : $ % % 6 a 4 a s 4 4 4 5 5 $ # # X                                   ",
"                                      % % % % % % $ $ % $ % & & & % $ % $ $ % % % # #                                           ",
"                                                                                                                                ",
"                                                                                                                                ",
"                                                                                                                                ",
"                                                                                                                                ",
"                                                                                                                                ",
"                                                                                                                                ",
"                                                                                                                                ",
"                                                                                                                                ",
"                                                                                                                                ",
"                                                                                                                                ",
"                                                                                                                                ",
"                                                                                                                                ",
"                                                                                                                                ",
"                                                                                                                                ",
"                                                                                                                                ",
"                                                                                                                                ",
"                                                                                                                                ",
"                                                                                                                                ",
"                                                                                                                                ",
"                                                                                                                                ",
"                                                                                                                                "
};
