/* XPM */
static char *ml3[] = {
/* columns rows colors chars-per-pixel */
"64 64 172 2 ",
"   c None",
".  c #261B3C",
"X  c #23233F",
"o  c #291F42",
"O  c #271D41",
"+  c #262542",
"@  c #2A2545",
"#  c #2C2648",
"$  c #2D294B",
"%  c #312A42",
"&  c #2E2C52",
"*  c #322D54",
"=  c #342E58",
"-  c #31355A",
";  c #31385E",
":  c #3A3A55",
">  c #343C64",
",  c #323B6D",
"<  c #3A3564",
"1  c #403740",
"2  c #44366B",
"3  c #463464",
"4  c #453A71",
"5  c #493A73",
"6  c #5C3E7E",
"7  c #573A76",
"8  c #364268",
"9  c #3A4B6D",
"0  c #3C4B63",
"q  c #374275",
"w  c #384376",
"e  c #364972",
"r  c #3D4E74",
"t  c #3B4E7D",
"y  c #37547E",
"u  c #39537E",
"i  c #4A424E",
"p  c #4C545C",
"a  c #515051",
"s  c #6B6154",
"d  c #69645E",
"f  c #405066",
"g  c #5C5D61",
"h  c #505F6C",
"j  c #424E76",
"k  c #425373",
"l  c #4A597A",
"z  c #4E647D",
"x  c #566779",
"c  c #7D776C",
"v  c #646B73",
"b  c #787B79",
"n  c #941574",
"m  c #8C8476",
"M  c #948B7B",
"N  c #3A5481",
"B  c #3C5A86",
"V  c #3F5E8A",
"C  c #375480",
"Z  c #514485",
"A  c #425586",
"S  c #46578B",
"D  c #5C4890",
"F  c #4C5693",
"G  c #4C5997",
"H  c #525496",
"J  c #54579A",
"K  c #5D519C",
"L  c #6B448B",
"P  c #664995",
"I  c #476085",
"U  c #42638E",
"Y  c #4C6B8B",
"T  c #526989",
"R  c #446695",
"E  c #456995",
"W  c #496C94",
"Q  c #476E9A",
"!  c #4D6596",
"~  c #516B98",
"^  c #49719D",
"/  c #47709E",
"(  c #52719C",
")  c #597B9F",
"_  c #5F58A5",
"`  c #794EA1",
"'  c #6558AA",
"]  c #6655A8",
"[  c #6E5AB2",
"{  c #745BB6",
"}  c #506BA1",
"|  c #4B75A1",
" . c #4E79A5",
".. c #4E7DA8",
"X. c #5371A6",
"o. c #5475AA",
"O. c #507AA8",
"+. c #872180",
"@. c #963B88",
"#. c #BE3C95",
"$. c #894396",
"%. c #B45C8D",
"&. c #965EA6",
"*. c #815AB7",
"=. c #8864B3",
"-. c #CE5286",
";. c #DA768B",
":. c #E6639A",
">. c #9B5EC6",
",. c #8962C4",
"<. c #9663CD",
"1. c #A164D1",
"2. c #5A82A7",
"3. c #5B8EBA",
"4. c #5986B1",
"5. c #5E94BC",
"6. c #6189AD",
"7. c #6288BA",
"8. c #6791BA",
"9. c #5F90C1",
"0. c #628FC2",
"q. c #6599C8",
"w. c #6F9FD2",
"e. c #6FA0C3",
"r. c #6AA6CA",
"t. c #73ABCA",
"y. c #7CB0CB",
"u. c #6EA5D8",
"i. c #7AA7D7",
"p. c #7ABDDC",
"a. c #75B3D3",
"s. c #74ABE0",
"d. c #77B8EA",
"f. c #9F998C",
"g. c #AAA497",
"h. c #BEB9AB",
"j. c #FE85A1",
"k. c #C5C1AF",
"l. c #8F92C7",
"z. c #90B7CB",
"x. c #91A3D3",
"c. c #88B8D7",
"v. c #97B6DD",
"b. c #B1A2C7",
"n. c #ADAFD3",
"m. c #88ADEC",
"M. c #88B1EF",
"N. c #96BCE2",
"B. c #87B6F3",
"V. c #83BEF3",
"C. c #93CBDC",
"Z. c #8BCEE9",
"A. c #80C4E2",
"S. c #95CBEF",
"D. c #8ED5EF",
"F. c #88C6FE",
"G. c #8BCDFB",
"H. c #85C3FB",
"J. c #8FDAF2",
"K. c #8DD1FA",
"L. c #91DCF5",
"P. c #ACC9E5",
"I. c #95E3FA",
"U. c #9AE5FC",
"Y. c #9DEEFF",
"T. c #9DF4FF",
"R. c #A3E3F2",
"E. c #B9FFFF",
"W. c #B4F2FA",
"Q. c #D4D1C4",
"!. c #E7E5D7",
"~. c #C1FFFF",
/* pixels */
"                                                                                                                                ",
"                                                                                                                                ",
"                                                                                                                                ",
"                                                                                                                                ",
"                                                                                                                                ",
"                                                                                                                                ",
"                                                                                                                                ",
"                                                                                                                                ",
"                                                              w w w w                                                           ",
"                                                            ( y.z.c.8.w                                                         ",
"                                                          ( 6.y.W.C.) q                                                         ",
"                                                        w t.t.l Z.2.> q                                                         ",
"                                                        w q.K.Z.G.V.7.q                                                         ",
"                                                          A 8.G.3.o.}                                                           ",
"                                                          . j 0.r >                                                             ",
"                                                          # ; e &                                                               ",
"                                                              &                                                                 ",
"                                                                      o @                                                       ",
"                                                                    r I r >                                                     ",
"                                                                  o I d.3.9 @                                                   ",
"                                                                  @ r 3. .8 @                                                   ",
"                                        O @ @ @ @ @                 > 9 8 -                                                     ",
"                                        T k > 8 8 > -                 @ @                                                       ",
"                                  A A ~ D.t. .^ ^ U e * =                                                                       ",
"                                w e.D.D.U.I.a.^ ^ ^ U t K 4 @ $                                                                 ",
"                              A e.R.~.E.Y.Y.A...^ ^ Q R G t : 1 $                                                               ",
"                              A J.P.b.n.U.Y.D.r. .^ W l f 0 v m i %                                                             ",
"                              ! c.&.n @.v.U.Y.J.4.W x s s s f.Q.d : =                                                           ",
"                          , X.i.$.#.:.;.@.x.T.L.5.h c k.Q.!.h.d k H Z $                                                         ",
"                          , o.m.+.-.j.:.n l.T.I.q.Y v m M M g.g.g l H Z =                                                       ",
"                          , o.B.=.%.-.#.&.N.I.p.4.| Y p p p b g.g 9 G ] *                                                       ",
"                          , X.F.F.=.+.$.S.I.p.4.^ ^ ^ ^ ^ | z a u C F ] 2                                                       ",
"                          , X.F.F.B.m.M.F.q. .| ^ ^ ^ ^ ^ ^ U u u y F { >.6 +                                                   ",
"                          & ~ H.q.d.d.0.0.O.Q ^ ^ ^ ^ ^ ^ R B N N y N J *.5 X                                                   ",
"                          @ j 4.A w.s.Q Q ^ ^ ^ ^ ^ ^ ^ E B u N N N y N ' P 7                                                   ",
"                          # * = * 7.u.^ ^ ^ ^ ^ ^ ^ ^ E B N N N N N y N _ <.` $                                                 ",
"                          @ 2 K t E  .^ ^ ^ ^ ^ ^ ^ E B N N N N N N N N N ' D $                                                 ",
"                            < 4 N B V V V V V V V V B u N N N N N N y N J ,.` $                                                 ",
"                              $ 8 A S N u u u u u u u y y y y y y y N H ' *.L $                                                 ",
"                                $ Z H t u N N N N N N A A A A A A N H [ { 5 @                                                   ",
"                                  * * - t N N N N y F ' ' ' ' ' ' ' ' { 1.6 +                                                   ",
"                                  + + $ - ; ; ; ; ; < 4 4 4 4 4 4 4 4 5 6 3                                                     ",
"                                        @ @ @ @ @ @ @ @ @ @ @ @ @ @ @ @ +                                                       ",
"                                                                                                                                ",
"                                                                                                                                ",
"                                                                                                                                ",
"                                                                                                                                ",
"                                                                                                                                ",
"                                                                                                                                ",
"                                                                                                                                ",
"                                                                                                                                ",
"                                                                                                                                ",
"                                                                                                                                ",
"                                                                                                                                ",
"                                                                                                                                ",
"                                                                                                                                ",
"                                                                                                                                ",
"                                                                                                                                ",
"                                                                                                                                ",
"                                                                                                                                ",
"                                                                                                                                ",
"                                                                                                                                ",
"                                                                                                                                ",
"                                                                                                                                "
};
