/* XPM */
static char *ml5[] = {
/* columns rows colors chars-per-pixel */
"64 64 159 2 ",
"   c None",
".  c #372B3B",
"X  c #3D343A",
"o  c #42393F",
"O  c #2B2646",
"+  c #2D294B",
"@  c #292647",
"#  c #3E3747",
"$  c #2D2E55",
"%  c #392D57",
"&  c #2F355B",
"*  c #313256",
"=  c #31365C",
"-  c #38305D",
";  c #32395E",
":  c #343B63",
">  c #323A6D",
",  c #323764",
"<  c #433B40",
"1  c #433668",
"2  c #453A71",
"3  c #4B3D77",
"4  c #5C3E7F",
"5  c #3C4365",
"6  c #35416B",
"7  c #3D466B",
"8  c #374274",
"9  c #384376",
"0  c #3A4A79",
"q  c #37537D",
"w  c #3A537D",
"e  c #594E41",
"r  c #474E5B",
"t  c #6C6254",
"y  c #69655F",
"u  c #485F77",
"i  c #455C7B",
"p  c #4B617A",
"a  c #556675",
"s  c #61686E",
"d  c #746D6C",
"f  c #7E7A6E",
"g  c #677178",
"h  c #6A787E",
"j  c #841D7B",
"k  c #941574",
"l  c #8B8477",
"z  c #938B7B",
"x  c #7D3187",
"c  c #3B5482",
"v  c #3B5884",
"b  c #3E5E8A",
"n  c #434E81",
"m  c #415586",
"M  c #48558F",
"N  c #425A89",
"B  c #455A89",
"V  c #68448C",
"C  c #674B98",
"Z  c #684B98",
"A  c #7B4D9E",
"S  c #4F6A87",
"D  c #41628E",
"F  c #4C6A88",
"G  c #5D7586",
"H  c #436692",
"J  c #4C6296",
"K  c #456995",
"L  c #466D99",
"P  c #4A6D9A",
"I  c #4B6997",
"U  c #49719D",
"Y  c #4D7297",
"T  c #54779B",
"R  c #5F57A4",
"E  c #7D4CA0",
"W  c #6558AA",
"Q  c #6D5DAE",
"!  c #7F54A6",
"~  c #6F5AB1",
"^  c #755EB6",
"/  c #4F6DA2",
"(  c #516DA3",
")  c #4973A0",
"_  c #4D7BA7",
"`  c #597AA7",
"'  c #517FA9",
"]  c #5677A7",
"[  c #5B7DB3",
"{  c #6379B5",
"}  c #953B88",
"|  c #BF3D98",
" . c #BE3C95",
".. c #884295",
"X. c #B2588A",
"o. c #975FA8",
"O. c #9153A8",
"+. c #825DB5",
"@. c #CF5387",
"#. c #D05488",
"$. c #DA768B",
"%. c #E6639A",
"&. c #9760C8",
"*. c #A164D1",
"=. c #5283AD",
"-. c #578AB8",
";. c #5A91BB",
":. c #5F98BF",
">. c #6797B8",
",. c #7B98B3",
"<. c #5E97C0",
"1. c #5E99C3",
"2. c #7A8DCD",
"3. c #6A94CD",
"4. c #6195C6",
"5. c #7896D7",
"6. c #69A6CC",
"7. c #71A8C7",
"8. c #72A6C9",
"9. c #70A2C5",
"0. c #7BB2CB",
"q. c #7DA1DD",
"w. c #72A2D6",
"e. c #7FBAD6",
"r. c #7DB6E5",
"t. c #7FC5E4",
"y. c #7EC0F0",
"u. c #979081",
"i. c #999284",
"p. c #ADA799",
"a. c #BCB6A9",
"s. c #B4B2A8",
"d. c #FE85A1",
"f. c #C5C1AF",
"g. c #C5C2B4",
"h. c #8680CC",
"j. c #9B99C7",
"k. c #878ED3",
"l. c #8AB3C8",
"z. c #8CBAD7",
"x. c #97B6DD",
"c. c #B1B1D3",
"v. c #80BBEA",
"b. c #97BFE5",
"n. c #8DD4ED",
"m. c #88CFF1",
"M. c #8FDAF2",
"N. c #91DCF5",
"B. c #92DBFD",
"V. c #97E3FC",
"C. c #98E0FB",
"Z. c #9AE9FF",
"A. c #A9E7F2",
"S. c #A3F0FF",
"D. c #AAF6FF",
"F. c #BCFEFF",
"G. c #B9F2FB",
"H. c #D6D2C2",
"J. c #E7E5D7",
/* pixels */
"                                                                                                                                ",
"                                                                                                                                ",
"                                                                                                                                ",
"                                                                                                                                ",
"                                                                  9 9 9                                                         ",
"                                                                9 ,.z.8.B                                                       ",
"                                                                , l.A.>.w                                                       ",
"                                                              8 : 0.0.5 8                                                       ",
"                                                              m w.B.V.e.m                                                       ",
"                                                                ] r.v.`                                                         ",
"                                                                > [ [ >                                                         ",
"                                                                  8 8                                                           ",
"                                                                                                                                ",
"                                                                                                                                ",
"                                                                                                                                ",
"                                                                                                                                ",
"                                                                              +                                                 ",
"                                                                                                                                ",
"                                                                                                                                ",
"                                                                                                                                ",
"                                                                                                                                ",
"                                                                                                                                ",
"                                                                                                                                ",
"                                                                                                                                ",
"                                                                                                                                ",
"                                                                                                                                ",
"                                                                                                                                ",
"                                                                                                                                ",
"                                                                                                                                ",
"                                    > >                                                                                         ",
"                                  T ` (                                                                                         ",
"                                8 8.V.v.I 7 ; * * * *                   : ; *                                                   ",
"                                9 3.B.V.n.n.7.H H K w + + + # e       : 6.<.N +                                                 ",
"                              m 9.m.S.F.F.D.m.=.=.-.F < o X d a.t . $ w 1.;.H 6 +                                               ",
"                              m M.n.j.c.G.D.n.6.;.T h l z u.p.s.s 5 0 H _ U b q 2 -                                             ",
"                              J z.o.k } x.B.Z.N.>.a f f.H.J.a.y S P U U U D c c R 3 %                                           ",
"                          > ( q... .%.$.} k.B.N.:.=.G t t t i.g.y p ) U U U D c m +.E +                                         ",
"                          > / 5.j @.d.%.k h.y.>.' _ Y p p u g l a I ) U D b b q q Q Z +                                         ",
"                          , I 5.! X.#.| O.2.4.L U U U U K K i r D K H D c q q c M ^ C +                                         ",
"                          , J 3.3.E j x q.;.K L L L L K v c c c c m m m m m c M ~ &.A +                                         ",
"                            6 c N { { n D b c v v v v c c q q c R W W W W W W ~ *.V %                                           ",
"                              & = m N ; & = = = = = = = ; ; ; : 2 2 2 2 2 2 2 2 4 1                                             ",
"                                O = = O O O O O O O O O O O O O O O O O O O O O @                                               ",
"                                                                                                                                ",
"                                                                                                                                ",
"                                                                                                                                ",
"                                                                                                                                ",
"                                                                                                                                ",
"                                                                                                                                ",
"                                                                                                                                ",
"                                                                                                                                ",
"                                                                                                                                ",
"                                                                                                                                ",
"                                                                                                                                ",
"                                                                                                                                ",
"                                                                                                                                ",
"                                                                                                                                ",
"                                                                                                                                ",
"                                                                                                                                ",
"                                                                                                                                ",
"                                                                                                                                ",
"                                                                                                                                ",
"                                                                                                                                ",
"                                                                                                                                "
};
