/* XPM */
static char *mr5[] = {
/* columns rows colors chars-per-pixel */
"64 64 158 2 ",
"   c None",
".  c #2B2646",
"X  c #2D294C",
"o  c #262542",
"O  c #302741",
"+  c #332E49",
"@  c #2D2F55",
"#  c #392D57",
"$  c #2F3056",
"%  c #2F355B",
"&  c #313256",
"*  c #31365C",
"=  c #38305D",
"-  c #32395E",
";  c #343B63",
":  c #323A6D",
">  c #323764",
",  c #433668",
"<  c #453A71",
"1  c #4B3D77",
"2  c #5C3E7F",
"3  c #3A4067",
"4  c #35416A",
"5  c #3B4468",
"6  c #3D486E",
"7  c #374274",
"8  c #384376",
"9  c #384578",
"0  c #3C4D79",
"q  c #37537D",
"w  c #39527D",
"e  c #49404C",
"r  c #584D41",
"t  c #544B48",
"y  c #4A515B",
"u  c #65625B",
"i  c #6E6458",
"p  c #706659",
"a  c #4B637D",
"s  c #526370",
"d  c #69777D",
"f  c #777A79",
"g  c #841D7B",
"h  c #941574",
"j  c #827D71",
"k  c #898175",
"l  c #8D847A",
"z  c #928A79",
"x  c #7D3187",
"c  c #3B5482",
"v  c #3B5884",
"b  c #3E5E8A",
"n  c #434E81",
"m  c #415586",
"M  c #48558F",
"N  c #425A89",
"B  c #455A89",
"V  c #68448C",
"C  c #674B98",
"Z  c #684B98",
"A  c #7B4D9E",
"S  c #4F6A87",
"D  c #41628E",
"F  c #496685",
"G  c #5E7584",
"H  c #436692",
"J  c #4C6296",
"K  c #456995",
"L  c #476E9A",
"P  c #4A6D9A",
"I  c #4C669D",
"U  c #49719D",
"Y  c #4D7296",
"T  c #54779B",
"R  c #5F57A4",
"E  c #7D4CA0",
"W  c #6558AA",
"Q  c #6D5DAE",
"!  c #7F54A6",
"~  c #6F5AB1",
"^  c #755EB6",
"/  c #4F6DA2",
"(  c #516DA3",
")  c #4C79A5",
"_  c #597AA7",
"`  c #517FA9",
"'  c #5B7FA8",
"]  c #5372A7",
"[  c #5B7DB3",
"{  c #6379B5",
"}  c #953B88",
"|  c #BF3D98",
" . c #BE3C95",
".. c #884295",
"X. c #B2588A",
"o. c #975FA8",
"O. c #9153A8",
"+. c #825DB5",
"@. c #CF5387",
"#. c #D05488",
"$. c #DA768B",
"%. c #E6639A",
"&. c #9760C8",
"*. c #A164D1",
"=. c #5283AD",
"-. c #578AB8",
";. c #5A91BB",
":. c #5F98BF",
">. c #6797B8",
",. c #7B98B3",
"<. c #5E97C0",
"1. c #5E99C3",
"2. c #7A8DCD",
"3. c #6A94CD",
"4. c #6195C6",
"5. c #7896D7",
"6. c #69A6CC",
"7. c #71A8C7",
"8. c #72A6C9",
"9. c #70A2C5",
"0. c #7BB2CB",
"q. c #7DA1DD",
"w. c #72A2D6",
"e. c #7FBAD6",
"r. c #7DB6E5",
"t. c #7FC5E4",
"y. c #7EC0F0",
"u. c #A29A8A",
"i. c #ABA599",
"p. c #B4AF9E",
"a. c #B9B4A4",
"s. c #FE85A1",
"d. c #C3BFB2",
"f. c #CDC9BD",
"g. c #8680CC",
"h. c #9B99C7",
"j. c #878ED3",
"k. c #8AB3C8",
"l. c #8CBAD7",
"z. c #97B6DD",
"x. c #B1B1D3",
"c. c #80BBEA",
"v. c #97BFE5",
"b. c #8DD4ED",
"n. c #88CFF1",
"m. c #8FDAF2",
"M. c #91DCF5",
"N. c #92DBFD",
"B. c #97E3FC",
"V. c #98E0FB",
"C. c #9AE9FF",
"Z. c #A9E7F2",
"A. c #A3F0FF",
"S. c #AAF6FF",
"D. c #BCFEFF",
"F. c #B9F2FB",
"G. c #D6D3C7",
"H. c #F5F4E5",
/* pixels */
"                                                                                                                                ",
"                                                                                                                                ",
"                                                                                                                                ",
"                                                                                                                                ",
"                                                        8 8 8                                                                   ",
"                                                      B 8.l.,.9                                                                 ",
"                                                      0 >.Z.k.>                                                                 ",
"                                                      7 5 0.0.3 7                                                               ",
"                                                      m e.B.N.w.m                                                               ",
"                                                        ' c.r.]                                                                 ",
"                                                        : [ [ :                                                                 ",
"                                                          8 8                                                                   ",
"                                                                                                                                ",
"                                                                                                                                ",
"                                                                                                                                ",
"                                                                                                                                ",
"                                                X                                                                               ",
"                                                                                                                                ",
"                                                                                                                                ",
"                                                                                                                                ",
"                                                                                                                                ",
"                                                                                                                                ",
"                                                                                                                                ",
"                                                                                                                                ",
"                                                                                                                                ",
"                                                                                                                                ",
"                                                                                                                                ",
"                                                                                                                                ",
"                                                                                                                                ",
"                                                                                        : :                                     ",
"                                                                  k k                   ( _ T                                   ",
"                                                  & - ;         p f.d.r   $ & & & - 6 I c.B.8.7                                 ",
"                                                X N <.6.;     i G.H.a.r + w K H K 7.b.b.B.N.3.8                                 ",
"                                              X 4 H ;.1.w @ O e l z u.i.t F -.=.=.t.S.D.D.A.n.9.m                               ",
"                                            = < w b U ) H 0 4 5 y y f p.z d T ;.6.b.S.F.x.h.v.m.m                               ",
"                                          # 1 R c c D U U U U U U U a u p.j s :.M.C.V.z.} h o.l.J                               ",
"                                        X E +.m c D L U U U U U U U L S u G =.:.M.N.j.} $.%. ...q.] :                           ",
"                                        X Z Q q q b b D U U U U U U ) U a Y ) ` >.y.g.h %.s.@.g 5./ :                           ",
"                                        X C ^ M c q q c D H H H H H H K U U U U L 4.2.O.| #.X.! 5.I >                           ",
"                                        X A &.~ M c m m m m m c c c c v K L L L L K ;.q.x g A 3.3.J >                           ",
"                                          # V *.~ W W W W W W R c q c c c v v v v c b D n { { N c 4                             ",
"                                            , 2 < < < < < < < < ; - - - * * * * * * * % - N m * %                               ",
"                                              o . . . . . . . . . . . . . . . . . . . . . * * .                                 ",
"                                                                                                                                ",
"                                                                                                                                ",
"                                                                                                                                ",
"                                                                                                                                ",
"                                                                                                                                ",
"                                                                                                                                ",
"                                                                                                                                ",
"                                                                                                                                ",
"                                                                                                                                ",
"                                                                                                                                ",
"                                                                                                                                ",
"                                                                                                                                ",
"                                                                                                                                ",
"                                                                                                                                ",
"                                                                                                                                ",
"                                                                                                                                ",
"                                                                                                                                ",
"                                                                                                                                ",
"                                                                                                                                ",
"                                                                                                                                ",
"                                                                                                                                "
};
