/* XPM */
static char *mr6[] = {
/* columns rows colors chars-per-pixel */
"64 64 225 2 ",
"   c None",
".  c #504437",
"X  c #554A3D",
"o  c #262542",
"O  c #292241",
"+  c #292343",
"@  c #292644",
"#  c #2A2645",
"$  c #2B2646",
"%  c #2C2647",
"&  c #2C274B",
"*  c #2D294C",
"=  c #2C2A4E",
"-  c #393243",
";  c #39374C",
":  c #2C2D50",
">  c #2C2D52",
",  c #2D2D52",
"<  c #2F2D52",
"1  c #2F2E52",
"2  c #312B50",
"3  c #332E57",
"4  c #352E58",
"5  c #352F58",
"6  c #30355B",
"7  c #31375D",
"8  c #31375E",
"9  c #31385E",
"0  c #31385F",
"q  c #2F376D",
"w  c #2F386D",
"e  c #323960",
"r  c #323967",
"t  c #3A3F66",
"y  c #31386D",
"u  c #31396D",
"i  c #323A6D",
"p  c #323B6D",
"a  c #30386E",
"s  c #333B6E",
"d  c #343D6F",
"f  c #3E396A",
"g  c #383F6C",
"h  c #463463",
"j  c #512E74",
"k  c #512F74",
"l  c #4B3474",
"z  c #453A71",
"x  c #453D75",
"c  c #493A73",
"v  c #5C3E7F",
"b  c #642172",
"n  c #642174",
"m  c #742978",
"M  c #31406C",
"N  c #304372",
"B  c #364070",
"V  c #374275",
"C  c #374376",
"Z  c #374277",
"A  c #384376",
"S  c #384477",
"D  c #374D78",
"F  c #374E79",
"G  c #384E79",
"H  c #3F4E7D",
"J  c #3C5378",
"K  c #3B557E",
"L  c #594E41",
"P  c #535355",
"I  c #6A6051",
"U  c #6D6356",
"Y  c #6B605B",
"T  c #545E6A",
"R  c #424E79",
"E  c #49487C",
"W  c #49487D",
"Q  c #485D75",
"!  c #4A5F77",
"~  c #5B6165",
"^  c #4A627C",
"/  c #56617A",
"(  c #6A6660",
")  c #6A6761",
"_  c #646E77",
"`  c #747470",
"'  c #941D7B",
"]  c #952379",
"[  c #968D7D",
"{  c #3E4D81",
"}  c #395480",
"|  c #3B5782",
" . c #3B5783",
".. c #3D5484",
"X. c #3F5586",
"o. c #3E5983",
"O. c #3B5884",
"+. c #395A84",
"@. c #3D5A87",
"#. c #514384",
"$. c #524486",
"%. c #514886",
"&. c #455782",
"*. c #425488",
"=. c #425588",
"-. c #43568B",
";. c #48568E",
":. c #455988",
">. c #475C8B",
",. c #4A5B88",
"<. c #495F94",
"1. c #4A5E95",
"2. c #525193",
"3. c #555296",
"4. c #57549A",
"5. c #55569A",
"6. c #486687",
"7. c #49698E",
"8. c #506B89",
"9. c #436793",
"0. c #4A6097",
"q. c #436894",
"w. c #446895",
"e. c #446995",
"r. c #456A96",
"t. c #4C639A",
"y. c #4D659D",
"u. c #4E679D",
"i. c #456C99",
"p. c #476D99",
"a. c #476E9A",
"s. c #476E9B",
"d. c #496F9A",
"f. c #4A6C9C",
"g. c #596E96",
"h. c #516C9F",
"j. c #49719D",
"k. c #49729E",
"l. c #4A729E",
"z. c #4A739F",
"x. c #53739D",
"c. c #62799C",
"v. c #6458AA",
"b. c #6E5AB0",
"n. c #6F5AB0",
"m. c #526EA3",
"M. c #526FA4",
"N. c #4973A1",
"B. c #4974A4",
"V. c #5676A7",
"C. c #5779A3",
"Z. c #5C7EB5",
"A. c #5C7FB5",
"S. c #657EA1",
"D. c #A32D8A",
"F. c #B02E87",
"G. c #A84482",
"H. c #B54181",
"J. c #815CAF",
"K. c #8061AF",
"L. c #8064AD",
"P. c #8260B0",
"I. c #DE549E",
"U. c #E57B90",
"Y. c #A164D1",
"T. c #6B8C9E",
"R. c #5A89BB",
"E. c #6282A7",
"W. c #6982A3",
"Q. c #6C86A7",
"!. c #6E89A9",
"~. c #6E89AA",
"^. c #798FA1",
"/. c #6289BE",
"(. c #71A1BC",
"). c #6B99C5",
"_. c #6A96CA",
"`. c #6B94CF",
"'. c #6B97CE",
"]. c #6E9BD5",
"[. c #7499D8",
"{. c #7499D9",
"}. c #77AAC2",
"|. c #71A5CA",
" X c #75AAC9",
".X c #74A2DE",
"XX c #7BB4E4",
"oX c #7BB0E9",
"OX c #7DB4EB",
"+X c #7DB5EC",
"@X c #7EB9F0",
"#X c #7FB9F0",
"$X c #958E81",
"%X c #979081",
"&X c #9F9A8B",
"*X c #A69F8F",
"=X c #A39D91",
"-X c #A6A094",
";X c #AFAA9B",
":X c #8485AE",
">X c #B784AF",
",X c #83A3BA",
"<X c #C2BEB0",
"1X c #C9C4B5",
"2X c #8ABDD1",
"3X c #83B6DA",
"4X c #92D4EC",
"5X c #85C0F9",
"6X c #95DDFF",
"7X c #ABC3E5",
"8X c #94E0FF",
"9X c #98E1FF",
"0X c #98E4FF",
"qX c #99E5FF",
"wX c #99E6FF",
"eX c #B6E3E8",
"rX c #B0E2EC",
"tX c #B8E6EA",
"yX c #A4E6F5",
"uX c #AFF7FF",
"iX c #D4D2C6",
"pX c #E0DED0",
"aX c #E6E4D5",
"sX c #C1F2F3",
"dX c #C7FBFB",
/* pixels */
"                                                                                                                                ",
"                                                                                                                                ",
"                                                                                                                                ",
"                                                      :.,.                                                                      ",
"                                                  y C.4XrXW.q                                                                   ",
"                                                  y V.9XuXE.y                                                                   ",
"                                                    u._.|.x.                                                                    ",
"                                                      A A                                                                       ",
"                                                                                                                                ",
"                                                                                                                                ",
"                                                                                                                                ",
"                                                                                                                                ",
"                                                                                                                                ",
"                                                                                                                                ",
"                                                                                                                                ",
"                                                                                                                                ",
"                                                                                                                                ",
"                                                                                                                                ",
"                                                                                                                                ",
"                                                                                                                                ",
"                                                                                                                                ",
"                                                                                                                                ",
"                                                                                                                                ",
"                                                                                                                                ",
"                                                                                                                                ",
"                                                                                              w q w                             ",
"                                                                                            g.!.Q.!.S.                          ",
"                                                                                          y c.eXdXsX,XA                         ",
"                                                                                          V B / tX^.t V                         ",
"                                                                                        A A.).}.yX3Xh.V                         ",
"                                                                                        A '.6XqX8XXXA.A                         ",
"                                                                                        V /.@X+XOXM.y                           ",
"                                                          L L                           V { -.-.-.                              ",
"                                                        . =X-XL                                                                 ",
"                                                        $XpX<XX                                                                 ",
"                                          4 3 1 1 1 ; ( iXaX;XU                                                                 ",
"                                        * $.3.G F F o.8.( I %X1XU - & 1 B S A A V                                               ",
"                                      2 #.2.1.e.q.9.a.d.^ Q _ [ *XY T (. X2X:Xn b l N y                                         ",
"                                    6 x 5.-.O.e.j.j.j.j.N.B.6.~ &X` T.qXqX7X>XH.F.m %.m.                                        ",
"                                  @ c n.;.....O.e.a.a.a.a.a.a.7.P Q R.@X5XJ.G.U.I.D.P.oX1.                                      ",
"                                  o v Y.n.v.5.| | O.O.O.O.O.O.| J K @.f.].[.L.] ' K.[..X`.0.d                                   ",
"                                    h v c z f 9 7 7 7 7 7 7 7 7 9 7 7 e R &.E k k E >.t.u.H                                     ",
"                                      o @ @ @ % % % % % % % % % % % @ @ + + 1 M M 1 * r r                                       ",
"                                                                                                                                ",
"                                                                                                                                ",
"                                                                                                                                ",
"                                                                                                                                ",
"                                                                                                                                ",
"                                                                                                                                ",
"                                                                                                                                ",
"                                                                                                                                ",
"                                                                                                                                ",
"                                                                                                                                ",
"                                                                                                                                ",
"                                                                                                                                ",
"                                                                                                                                ",
"                                                                                                                                ",
"                                                                                                                                ",
"                                                                                                                                ",
"                                                                                                                                ",
"                                                                                                                                ",
"                                                                                                                                ",
"                                                                                                                                ",
"                                                                                                                                "
};
