/* XPM */
static char *mr7[] = {
/* columns rows colors chars-per-pixel */
"64 64 159 2 ",
"   c None",
".  c #262642",
"X  c #292544",
"o  c #2B2648",
"O  c #2D284B",
"+  c #312B4E",
"@  c #322C54",
"#  c #2E335B",
"$  c #323559",
"%  c #303054",
"&  c #343761",
"*  c #323B62",
"=  c #32396D",
"-  c #3A3160",
";  c #413D48",
":  c #741E75",
">  c #42396D",
",  c #512C73",
"<  c #443A72",
"1  c #4E3870",
"2  c #4E3878",
"3  c #5B3D7C",
"4  c #503C78",
"5  c #742879",
"6  c #34416B",
"7  c #3B4769",
"8  c #374376",
"9  c #384376",
"0  c #3D4B7D",
"q  c #384B75",
"w  c #37537E",
"e  c #3C527B",
"r  c #3E5277",
"t  c #4D545C",
"y  c #65615B",
"u  c #4D5966",
"i  c #515D64",
"p  c #46537F",
"a  c #4B637E",
"s  c #566778",
"d  c #6B757C",
"f  c #861F7F",
"g  c #971A77",
"h  c #86207C",
"j  c #837B6F",
"k  c #827C70",
"l  c #8C877E",
"z  c #908777",
"x  c #3B5582",
"c  c #3B5985",
"v  c #3F5F8B",
"b  c #56478C",
"n  c #524385",
"m  c #425485",
"M  c #415488",
"N  c #435A89",
"B  c #445F86",
"V  c #4B5B92",
"C  c #535799",
"Z  c #58549B",
"A  c #69438A",
"S  c #42638B",
"D  c #496687",
"F  c #506B88",
"G  c #5D7383",
"H  c #426591",
"J  c #4A6195",
"K  c #4B6C96",
"L  c #4C6499",
"P  c #476D99",
"I  c #506C98",
"U  c #47709F",
"Y  c #4A719D",
"T  c #4B7097",
"R  c #537693",
"E  c #5C7B98",
"W  c #5C59A3",
"Q  c #764EA1",
"!  c #6458AA",
"~  c #7C5CBA",
"^  c #516DA3",
"/  c #5371A6",
"(  c #597BA4",
")  c #5375A9",
"_  c #597CA9",
"`  c #5876AE",
"'  c #5C7EB4",
"]  c #676CAB",
"[  c #7670BB",
"{  c #797EC2",
"}  c #82368F",
"|  c #913284",
" . c #BB3892",
".. c #884399",
"X. c #B6608C",
"o. c #865BBA",
"O. c #8D6EB3",
"+. c #9175B4",
"@. c #CF5287",
"#. c #D05489",
"$. c #DA758B",
"%. c #E6649B",
"&. c #835FC0",
"*. c #9C5EC7",
"=. c #8A62C5",
"-. c #837AC6",
";. c #5C81A9",
":. c #5986AA",
">. c #5A86B6",
",. c #5A92BC",
"<. c #6288BE",
"1. c #6199BB",
"2. c #7693BE",
"3. c #5C97C1",
"4. c #748ECF",
"5. c #6396C5",
"6. c #748FD0",
"7. c #6D9BD3",
"8. c #6E9FDA",
"9. c #729DDB",
"0. c #69A7D3",
"q. c #73A0DD",
"w. c #7FBCD4",
"e. c #73B5DA",
"r. c #76ABE2",
"t. c #72A4E0",
"y. c #75B6E6",
"u. c #7EBBF5",
"i. c #75C4EC",
"p. c #78C9F2",
"a. c #8D8A80",
"s. c #978F80",
"d. c #988F81",
"f. c #96958E",
"g. c #AFA695",
"h. c #B3AF9F",
"j. c #FE85A1",
"k. c #81BFDC",
"l. c #809FE0",
"z. c #80BBEE",
"x. c #86BCF6",
"c. c #8CC0D4",
"v. c #8ACCED",
"b. c #8ED5EE",
"n. c #85C3FB",
"m. c #88C7FE",
"M. c #8BCCFF",
"N. c #8CCFF1",
"B. c #8DD0FF",
"V. c #84D4F5",
"C. c #92DBF1",
"Z. c #97DCFA",
"A. c #97E3FF",
"S. c #98E5FE",
"D. c #9AE9FF",
"F. c #A0EEFF",
"G. c #B6F7FF",
"H. c #E9E7DA",
"J. c #EEECDD",
/* pixels */
"                                                                                                                                ",
"                                                      =                                                                         ",
"                                                    K (                                                                         ",
"                                                  = ( k.N                                                                       ",
"                                                      N                                                                         ",
"                                                                                                                                ",
"                                                                                                                                ",
"                                                                                                                                ",
"                                                                                                                                ",
"                                                                                                                                ",
"                                                                                                                                ",
"                                                                                                                                ",
"                                                                                                                                ",
"                                                                                                                                ",
"                                                                                                                                ",
"                                                                                                                                ",
"                                                                                                                                ",
"                                                                                                                                ",
"                                                                                                                                ",
"                                                                                                                                ",
"                                                                                                                                ",
"                                                                                                = = = =                         ",
"                                                                                                ( ( ( (                         ",
"                                                                                              I b.F.F.b.I                       ",
"                                                                                          = ( b.S.G.G.S.b.( =                   ",
"                                                                                          = ;.C.E c.c.E C.;.=                   ",
"                                                                                          = _ v.E w.w.E N._ =                   ",
"                                                                                          = / M.A.S.S.Z.z.^ =                   ",
"                                          O O O O O O O                                   = / m.M.M.M.z.L                       ",
"                                      X o * q r ; 7 B B % X                             9 ' y.x.' r.r.^                         ",
"                                    - > & w S s a.d R :.r 7 6                           9 >.7.<.0 ) ' =                         ",
"                                  @ < W N S s j H.s.i >.,.3.K $                           9 9 9 9 9 9                           ",
"                                O n Z N P u l H.J.z i ,.y.i.0.Y $                                                               ",
"                                O b W c P D d d.z g.f.s 5.i.p.0.K *                                                             ",
"                                O b W c H U D t t f.g.k G 1.i.V.e.:.D                                                           ",
"                                O b W c c H P Y Y u k h.y R e.S.D.Z.2.<                                                         ",
"                                O b W c c c S Y Y K s y F 0.n.B.S.+.h : < 8 9 9                                                 ",
"                                O Q =.C c w c v v v S a Y q.M.x.O.X.#. .5 ] 5.` 0                                               ",
"                                O A o.&.C x w w w w c H H 7.n.l.f @.j.%.g -.u.7.^ M                                             ",
"                                  . 3 *.~ C x M M M M M M ' 8.6.}  .%.$.| [ t.q.9.L =                                           ",
"                                    + 1 *.o.! ! ! ! ! ! ! V ) 9.4...g | { 9.9.9.9.L =                                           ",
"                                      + 3 4 < < < < < < < & 6 p m 4 , 2 m J V m J 0                                             ",
"                                        . X X X X X X X X X X X X # 6 * o # # X &                                               ",
"                                                                                                                                ",
"                                                                                                                                ",
"                                                                                                                                ",
"                                                                                                                                ",
"                                                                                                                                ",
"                                                                                                                                ",
"                                                                                                                                ",
"                                                                                                                                ",
"                                                                                                                                ",
"                                                                                                                                ",
"                                                                                                                                ",
"                                                                                                                                ",
"                                                                                                                                ",
"                                                                                                                                ",
"                                                                                                                                ",
"                                                                                                                                ",
"                                                                                                                                ",
"                                                                                                                                ",
"                                                                                                                                ",
"                                                                                                                                ",
"                                                                                                                                "
};
