/* XPM */
static char *mu3[] = {
/* columns rows colors chars-per-pixel */
"64 64 152 2 ",
"   c None",
".  c #24243D",
"X  c #4F4336",
"o  c #504437",
"O  c #554A3D",
"+  c #252541",
"@  c #2A2545",
"#  c #2C2648",
"$  c #2D294B",
"%  c #3A344B",
"&  c #2E2E52",
"*  c #332D54",
"=  c #3C2E59",
"-  c #2F3257",
";  c #2F3358",
":  c #313154",
">  c #32355B",
",  c #3F305E",
"<  c #34395E",
"1  c #2F386D",
"2  c #343C62",
"3  c #333A6D",
"4  c #343E71",
"5  c #453362",
"6  c #453A71",
"7  c #493A73",
"8  c #523971",
"9  c #533E7C",
"0  c #5C3E7F",
"q  c #364268",
"w  c #38456C",
"e  c #3B4A6F",
"r  c #374376",
"t  c #3B4A70",
"y  c #394E79",
"u  c #37537E",
"i  c #3A527C",
"p  c #4F4A4A",
"a  c #574B40",
"s  c #594E41",
"d  c #554948",
"f  c #5A4F4D",
"g  c #514F51",
"h  c #5A5B5E",
"j  c #61564A",
"k  c #655C54",
"l  c #6C6255",
"z  c #6F6558",
"x  c #766C5F",
"c  c #4B5B7A",
"v  c #5D637B",
"b  c #696069",
"n  c #7A7265",
"m  c #8D8677",
"M  c #948D7F",
"N  c #375480",
"B  c #3A5581",
"V  c #3B5A85",
"C  c #3F5E8A",
"Z  c #444F86",
"A  c #534583",
"S  c #54468E",
"D  c #405587",
"F  c #425D84",
"G  c #44558A",
"H  c #48568E",
"J  c #445B89",
"K  c #4A5691",
"L  c #4A5D94",
"P  c #595698",
"I  c #624388",
"U  c #684B97",
"Y  c #7B4C9F",
"T  c #486381",
"R  c #42628D",
"E  c #426691",
"W  c #456994",
"Q  c #4C6B95",
"!  c #476E9A",
"~  c #486F9B",
"^  c #49719D",
"/  c #54739E",
"(  c #587694",
")  c #5959A4",
"_  c #6159A5",
"`  c #6558AA",
"'  c #6955AA",
"]  c #6F5AB1",
"[  c #775EB7",
"{  c #7C58B3",
"}  c #506BA0",
"|  c #4B75A1",
" . c #4E7AA5",
".. c #4F7DA8",
"X. c #507FAA",
"o. c #8552AC",
"O. c #9358B9",
"+. c #8B5EC3",
"@. c #935FC6",
"#. c #9563CB",
"$. c #A164D1",
"%. c #61819D",
"&. c #5182AD",
"*. c #5F82AA",
"=. c #5486B1",
"-. c #568BB5",
";. c #588EB8",
":. c #5A93BC",
">. c #6785A8",
",. c #6285B5",
"<. c #5D97C0",
"1. c #5E9AC4",
"2. c #6C96C7",
"3. c #6796C9",
"4. c #619FC8",
"5. c #6B9BD1",
"6. c #6EA0C1",
"7. c #64A3CB",
"8. c #67A9D2",
"9. c #68ABD5",
"0. c #6EB7DF",
"q. c #7FB8D7",
"w. c #7BB3D3",
"e. c #6FB9E1",
"r. c #70BBE4",
"t. c #75C4ED",
"y. c #79CBF3",
"u. c #948D80",
"i. c #938E8D",
"p. c #979081",
"a. c #9F9A8B",
"s. c #9B9488",
"d. c #A39D91",
"f. c #A6A08F",
"g. c #A6A094",
"h. c #AFA99B",
"j. c #B8B29F",
"k. c #B6B1A0",
"l. c #BFBAAD",
"z. c #C1BDAE",
"x. c #C2BEB0",
"c. c #C7C2B4",
"v. c #81BFDD",
"b. c #92D4E9",
"n. c #87C6F3",
"m. c #89CCF4",
"M. c #8BCDFA",
"N. c #A3E3F2",
"B. c #BBF5FB",
"V. c #D6D3C7",
"C. c #E0DED0",
"Z. c #E5E3D4",
/* pixels */
"                                                                                                                                ",
"                                                                                                                                ",
"                                                                                                                                ",
"                                                                                                                                ",
"                                                                                                                                ",
"                                                                                                                                ",
"                                                                                                                                ",
"                                                                                                                                ",
"                                                                                                                                ",
"                                              3 1 3                                                                             ",
"                                            Q *.>.>./                                                                           ",
"                                          3 / b.B.N.6.J                                                                         ",
"                                          r 3 c b.%.( v.J                                                                       ",
"                                          4 J 2.M.w.q.n.G                                                                       ",
"                                            } 5.5.M.n.,.D                                                                       ",
"                                              r y 3.,.$                                                                         ",
"                                                & i y $                                                         r               ",
"                                                  - ;                                                                           ",
"                                                                                                                                ",
"                                          > < 2                                         z                                       ",
"                                        $ F <.7.2                                     z V.u.o                                   ",
"                                        $ F <.<.<       # # @ @ @ @ @ @ @ @           l Z.C.d.s                                 ",
"                                        $ e F F >       > 2 q q e t t t e q <       x p.h.x.g.s                                 ",
"                                          $ $ $       > i W ^ | =.-.-.-.:.=.R >   j M c.l O s                                   ",
"                                                  # > i W ^  .=.-.-.-.:.r.t.8.^ > i.f.l                                         ",
"                                                # 2 i W ^  .=.-.-.-.1.e.y.y.t.9.Q v b                                           ",
"                                                > i W ^ ^ &.-.-.-.-.1.e.y.y.y.y.9.W 2                                           ",
"                                      z       : y W ^ ^ ^ &.-.-.-.-.-.:.r.y.y.y.t.7.R :                                         ",
"                                  X u.V.z O O p i W ^ ^ ^ &.-.-.-.-.-.-.:.e.y.t.1.;.X.R :                                       ",
"                                    n s.l.l.k.a.h T | ^ ^ &.-.-.-.-.-.-.-.1.7.4.-.-.&.W :                                       ",
"                                    x M z.z.j.a.h T | ^ ^  .=.-.-.-.-.-.-.-.=.=.-.-.&.W t >                                     ",
"                                  o m c.k d f g i E ^ ^ ^ ^  .=.-.-.-.-.-.-.-.-.-.-.X.^ ^ q @                                   ",
"                                      k % A P i u N R ^ ^ ^ ^ | =.-.-.-.-.-.-.-.-...^ ^ ^ q @                                   ",
"                                        $ S ) N N i N R ^ ^ ^ ^  . .&.-.-.-.-.-...^ ^ ^ ^ q @                                   ",
"                                        $ U [ K B u i N E ! ^ ^ ^ ^ | &.&.&.&.X.^ ^ ^ ^ W 2 #                                   ",
"                                        $ Y @.` D u N N N E ~ ^ ^ ^ ^ ^ ^ ^ ^ ^ ^ ^ ^ W V > #                                   ",
"                                          = 9 ` G u N N N N R ^ ^ ^ ^ ^ ^ ^ ^ ^ ^ ^ W V N > #                                   ",
"                                          . 9 #._ G u u N i N C C C E ^ ^ ^ ^ ^ ^ E V i 2 &                                     ",
"                                          + 8 o.+.` K H N u u u u u V E E E E E E L Z q $                                       ",
"                                            + , O.{ ' ] H V D D D D D D D D D D D P A $                                         ",
"                                              $ , * I $.] ` ` ` ` ` ` ` ` ` ` ` ` 7 *                                           ",
"                                                + . 5 0 7 6 6 6 6 6 6 6 6 6 6 6 6 >                                             ",
"                                                      + @ @ @ @ @ @ @ @ @ @ @ @ @                                               ",
"                                                                                                                                ",
"                                                                                                                                ",
"                                                                                                                                ",
"                                                                                                                                ",
"                                                                                                                                ",
"                                                                                                                                ",
"                                                                                                                                ",
"                                                                                                                                ",
"                                                                                                                                ",
"                                                                                                                                ",
"                                                                                                                                ",
"                                                                                                                                ",
"                                                                                                                                ",
"                                                                                                                                ",
"                                                                                                                                ",
"                                                                                                                                ",
"                                                                                                                                ",
"                                                                                                                                ",
"                                                                                                                                ",
"                                                                                                                                ",
"                                                                                                                                "
};
