/* XPM */
static char *mu6[] = {
/* columns rows colors chars-per-pixel */
"64 64 253 2 ",
"   c None",
".  c #403735",
"X  c #4A3E30",
"o  c #43393F",
"O  c #4F4336",
"+  c #4F4437",
"@  c #282642",
"#  c #2B2244",
"$  c #2B2346",
"%  c #292545",
"&  c #2B2445",
"*  c #292644",
"=  c #2A2646",
"-  c #2A2649",
";  c #29264A",
":  c #2C2649",
">  c #2C2849",
",  c #2D284A",
"<  c #2D284B",
"1  c #2D294B",
"2  c #2F294A",
"3  c #352E41",
"4  c #352F4B",
"5  c #302C4F",
"6  c #373143",
"7  c #393143",
"8  c #393244",
"9  c #322D55",
"0  c #332D55",
"q  c #362F59",
"w  c #2D3159",
"e  c #313256",
"r  c #303359",
"t  c #323458",
"y  c #323559",
"u  c #33365A",
"i  c #36345E",
"p  c #313A5F",
"a  c #2F376D",
"s  c #383764",
"d  c #343A66",
"f  c #30386D",
"g  c #31386D",
"h  c #31396D",
"j  c #323A6D",
"k  c #433A40",
"l  c #423D59",
"z  c #403762",
"x  c #41386C",
"c  c #42386C",
"v  c #43386E",
"b  c #453A71",
"n  c #453A74",
"m  c #31406A",
"M  c #33416A",
"N  c #33426A",
"B  c #374268",
"V  c #374369",
"C  c #33426C",
"Z  c #34446D",
"A  c #36466E",
"S  c #3B436D",
"D  c #3C486D",
"F  c #3C506D",
"G  c #374275",
"H  c #374376",
"J  c #384375",
"K  c #384376",
"L  c #3B4B70",
"P  c #3D4977",
"I  c #364378",
"U  c #364D78",
"Y  c #3D4B7B",
"T  c #394F7B",
"R  c #37537E",
"E  c #37547E",
"W  c #3E5278",
"Q  c #38537F",
"!  c #38547E",
"~  c #38547F",
"^  c #3D547C",
"/  c #3E557D",
"(  c #454044",
")  c #484240",
"_  c #594E41",
"`  c #594E42",
"'  c #554D48",
"]  c #5A5358",
"[  c #685D4E",
"{  c #625951",
"}  c #635B53",
"|  c #645B5D",
" . c #696053",
".. c #696054",
"X. c #6B6154",
"o. c #6B6256",
"O. c #6C6255",
"+. c #6E6558",
"@. c #6F6558",
"#. c #706659",
"$. c #4D4D61",
"%. c #4A4D77",
"&. c #4F5D7A",
"*. c #5D6368",
"=. c #5C6A7D",
"-. c #656274",
";. c #897D6B",
":. c #817770",
">. c #827B71",
",. c #887F70",
"<. c #8B8373",
"1. c #8D8577",
"2. c #8F8877",
"3. c #8F887A",
"4. c #938B7B",
"5. c #395480",
"6. c #395580",
"7. c #385581",
"8. c #395581",
"9. c #385681",
"0. c #3A5682",
"q. c #3B5783",
"w. c #3C5583",
"e. c #3F5485",
"r. c #3F5586",
"t. c #3B5884",
"y. c #3B5985",
"u. c #3D5B87",
"i. c #3E5D89",
"p. c #3E5F8A",
"a. c #524486",
"s. c #405587",
"d. c #415388",
"f. c #455988",
"g. c #425F89",
"h. c #4A5B88",
"j. c #4A5691",
"k. c #465892",
"l. c #555296",
"z. c #5D529E",
"x. c #525899",
"c. c #695A84",
"v. c #40618D",
"b. c #40648E",
"n. c #54648A",
"m. c #416590",
"M. c #426490",
"N. c #426691",
"B. c #426792",
"V. c #436793",
"C. c #456791",
"Z. c #456792",
"A. c #466B97",
"S. c #4E679D",
"D. c #476D99",
"F. c #476E9A",
"G. c #486F9B",
"H. c #48719D",
"J. c #49719D",
"K. c #49729E",
"L. c #4A739F",
"P. c #4C739C",
"I. c #4C749D",
"U. c #4F769D",
"Y. c #4C759F",
"T. c #53739D",
"R. c #6352A3",
"E. c #6857A7",
"W. c #6558AA",
"Q. c #695AAF",
"!. c #4A73A0",
"~. c #4A74A0",
"^. c #4B74A0",
"/. c #4B75A1",
"(. c #4C77A3",
"). c #4D78A4",
"_. c #4E7AA6",
"`. c #4F7CA7",
"'. c #5676A7",
"]. c #5779A3",
"[. c #5675AA",
"{. c #507FAA",
"}. c #647DA0",
"|. c #6D849F",
" X c #5180A9",
".X c #5180AB",
"XX c #5182AD",
"oX c #5283AE",
"OX c #5384AF",
"+X c #5488B2",
"@X c #5588B2",
"#X c #5589B3",
"$X c #568AB4",
"%X c #568BB5",
"&X c #578CB6",
"*X c #5C8EB5",
"=X c #578EB8",
"-X c #588EB8",
";X c #5A92BC",
":X c #6282A7",
">X c #6982A3",
",X c #7089A1",
"<X c #6084B9",
"1X c #759AB3",
"2X c #7D9CB7",
"3X c #7498BB",
"4X c #648CC3",
"5X c #6A94C8",
"6X c #6A96CA",
"7X c #6A96CE",
"8X c #6B98CF",
"9X c #62A2CC",
"0X c #71A5CA",
"qX c #6BB3DC",
"wX c #948D80",
"eX c #968E80",
"rX c #999284",
"tX c #9F988A",
"yX c #8A9192",
"uX c #ABA598",
"iX c #ADA99F",
"pX c #B2AC9D",
"aX c #B5B09F",
"sX c #B6B1A2",
"dX c #B7B2A7",
"fX c #BAB6A9",
"gX c #BBB6AA",
"hX c #C5C1B0",
"jX c #C5C1B3",
"kX c #C6C2B3",
"lX c #CDC9BD",
"zX c #9BBDC7",
"xX c #93B8CB",
"cX c #96BDCF",
"vX c #97BED0",
"bX c #AFD8DC",
"nX c #84C1ED",
"mX c #8ED2E9",
"MX c #92D4EC",
"NX c #8BCBF3",
"BX c #90D8FF",
"VX c #93DAFF",
"CX c #94DDFF",
"ZX c #98E1FF",
"AX c #9DE8FB",
"SX c #B1E2E9",
"DX c #B0E2EC",
"FX c #AFF7FF",
"GX c #D6D3C3",
"HX c #D6D3C7",
"JX c #E7E5D8",
"KX c #C8FBFA",
"LX c #F5F4E5",
/* pixels */
"                                                                                                                                ",
"                                                                                                                                ",
"                                                                                                                                ",
"                                                                                                                                ",
"                                                                                                                                ",
"                                                                                                                                ",
"                                                                                                                                ",
"                                      f.h.                                                                                      ",
"                                  g ].MXDX>Xa                                                                                   ",
"                                  g '.ZXFX:Xg                                                                                   ",
"                                    S.6X0XT.                                                                                    ",
"                                      K K                                                                                       ",
"                                                                                                                                ",
"                                                                                                                                ",
"                                                                                                                                ",
"                                                                                                                                ",
"                                                                                                                                ",
"                                                                                                                                ",
"                                                                                                                                ",
"                                                                                                                                ",
"                                                                                                                                ",
"                                                                                                                                ",
"                                                                                                                                ",
"                                                                                                                                ",
"                                                                                      K K K K                                   ",
"                                                                                    }.cXxXvX2XK                                 ",
"                                                                                  g n.zXKXbX|.H                                 ",
"                                                                                  d.P &.SX,Xd H                                 ",
"                                                                                H 4XnXmXAXNX<XH                                 ",
"                                                                                K 8XBXCXBX1X=.                                  ",
"                                                                                H [.7X6X3XyX;.                                  ",
"                                                              e e u u u         H H I S ' kXlX#.                                ",
"                                                      1 < : B C.C.Y. XP.u : 1           _ sXLXHX@.                              ",
"                                                * * r A / / g.^.XX%X=X-X*XY.W $ $     [ pXtX3.eX                                ",
"                                                v s N t.M.H.!.^. X@X%X;XqX9XY.L V w | 2.aX,.X O                                 ",
"                                          0 0 i z.j.E 8.8.M.D.D.H. X@X@X%X&X%XOXH.N -.iX}                                       ",
"                                _ )   1 1 a.l.T e.w.8.8.8.8.8.u.D.^.^.(.@X&XXX^.H.u.D l 4 1 >                                   ",
"                              @.gX>.. o k %.k.8.~ 8.8.8.8.Q Q 8.i.A.H.H._.`._.G.v.t.U N C A p *                                 ",
"                              } dXuXeX4.<.*.F ~ ~ ~ ~ ~ ~ ~ ~ R R i.M.M.M.M.M.b.8.R ~ 8.8.8.Y v 5                               ",
"                              ( ..gXJXGXkX:.$.s.s.s.s.s.s.s.s.s.s.s.s.s.s.s.s.s.s.s.s.s.s.e.x.R.q @                             ",
"                              ..kXrX..O. .c.E.W.W.W.W.W.W.W.W.W.W.W.W.W.W.W.W.W.W.W.W.W.W.W.Q.R.q @                             ",
"                                1.] 3 7 8 z n b b b b b b b b b b b b b b b b b b b b b b b b v 5                               ",
"                                + 6 - - - * * * * * * * * * * * * * * * * * * * * * * * * * * *                                 ",
"                                                                                                                                ",
"                                                                                                                                ",
"                                                                                                                                ",
"                                                                                                                                ",
"                                                                                                                                ",
"                                                                                                                                ",
"                                                                                                                                ",
"                                                                                                                                ",
"                                                                                                                                ",
"                                                                                                                                ",
"                                                                                                                                ",
"                                                                                                                                ",
"                                                                                                                                ",
"                                                                                                                                ",
"                                                                                                                                ",
"                                                                                                                                ",
"                                                                                                                                ",
"                                                                                                                                ",
"                                                                                                                                ",
"                                                                                                                                ",
"                                                                                                                                "
};
