/* XPM */
static char *E[] = {
/* columns rows colors chars-per-pixel */
"64 64 192 2 ",
"   c #281D29",
".  c #2D232E",
"X  c #32232D",
"o  c #39242D",
"O  c #2F2430",
"+  c #312631",
"@  c #352934",
"#  c #392B35",
"$  c #3D2E3C",
"%  c #352D38",
"&  c #3F323D",
"*  c #691D1E",
"=  c #45252C",
"-  c #4A272D",
";  c #55262A",
":  c #5F2A2B",
">  c #442C35",
",  c #402F3D",
"<  c #4B2931",
"1  c #542E31",
"2  c #592E30",
"3  c #43333D",
"4  c #48363F",
"5  c #4B383F",
"6  c #6D2425",
"7  c #6F2827",
"8  c #6D2B2B",
"9  c #672F2F",
"0  c #712625",
"q  c #742B29",
"w  c #7B2F2C",
"e  c #772A27",
"r  c #76302D",
"t  c #7E312C",
"y  c #723635",
"u  c #793C3B",
"i  c #74393A",
"p  c #683C3E",
"a  c #7A403E",
"s  c #3D3443",
"d  c #3F3943",
"f  c #433441",
"g  c #493742",
"h  c #433B45",
"j  c #4C3941",
"k  c #4E3B4B",
"l  c #513C44",
"z  c #523E4E",
"x  c #513F50",
"c  c #54414C",
"v  c #5C444C",
"b  c #4F4C54",
"n  c #564152",
"m  c #5B4554",
"M  c #5F4855",
"N  c #5D4B5A",
"B  c #57565D",
"V  c #60464C",
"C  c #63484E",
"Z  c #7D4C4C",
"A  c #634A55",
"S  c #6B4F56",
"D  c #624A5B",
"F  c #6C4F58",
"G  c #794E51",
"H  c #6D5057",
"J  c #6D515D",
"K  c #655D5F",
"L  c #725357",
"P  c #75555A",
"I  c #78575C",
"U  c #7B595D",
"Y  c #7B5052",
"T  c #555760",
"R  c #565962",
"E  c #5B5E66",
"W  c #674E62",
"Q  c #694F62",
"!  c #6B5063",
"~  c #735564",
"^  c #735665",
"/  c #715565",
"(  c #755765",
")  c #765765",
"_  c #745665",
"`  c #775865",
"'  c #775866",
"]  c #775864",
"[  c #7E5D62",
"{  c #795965",
"}  c #7A5A64",
"|  c #7C5B68",
" . c #5E6368",
".. c #65696C",
"X. c #64656A",
"o. c #696C72",
"O. c #6E7274",
"+. c #802E29",
"@. c #82332E",
"#. c #8A352D",
"$. c #8E3D2E",
"%. c #87382E",
"&. c #913E2E",
"*. c #8A3731",
"=. c #8C3A32",
"-. c #843834",
";. c #923D33",
":. c #9A3E33",
">. c #974135",
",. c #994136",
"<. c #9D4539",
"1. c #8A463F",
"2. c #A14634",
"3. c #A54B33",
"4. c #A1473A",
"5. c #A44A3A",
"6. c #AA4E3A",
"7. c #AD4D34",
"8. c #AC5135",
"9. c #AF523A",
"0. c #B6553B",
"q. c #B3543A",
"w. c #B9563A",
"e. c #B55838",
"r. c #BB5B3B",
"t. c #A6492E",
"y. c #C05F3B",
"u. c #C6633C",
"i. c #C8643D",
"p. c #854641",
"a. c #8B534E",
"s. c #975045",
"d. c #825C5E",
"f. c #A1574C",
"g. c #BE6C4F",
"h. c #805D67",
"j. c #805E66",
"k. c #825F68",
"l. c #856166",
"z. c #836068",
"x. c #876268",
"c. c #856168",
"v. c #8A6469",
"b. c #8A646A",
"n. c #8B656A",
"m. c #8F686B",
"M. c #976C6C",
"N. c #956B6B",
"B. c #996E6D",
"V. c #88787E",
"C. c #88777C",
"Z. c #967874",
"A. c #8F706E",
"S. c #A6776C",
"D. c #AE7E73",
"F. c #C1704F",
"G. c #C89377",
"H. c #C18B72",
"J. c #7D7B83",
"K. c #827B81",
"L. c #9E908C",
"P. c #928F95",
"I. c #8A979E",
"U. c #869096",
"Y. c #94989E",
"T. c #A79B93",
"R. c #A89E97",
"E. c #A18C84",
"W. c #8F9CA3",
"Q. c #939EA3",
"!. c #9A9CA1",
"~. c #99A7A9",
"^. c #96A2A8",
"/. c #9FAEB3",
"(. c #A3A7A7",
"). c #A3B2AF",
"_. c #AAB7B7",
"`. c #ADBCB6",
"'. c #A4B7BA",
"]. c #A6B8BA",
"[. c #AEBFB9",
"{. c #B6BCB4",
"}. c #B4C2BA",
"|. c #BBC3B9",
" X c #BBC1B7",
".X c #C6CBBB",
"XX c #A9BEC1",
"oX c #AFC6C6",
"OX c #BACFC9",
"+X c #B4CAC8",
"@X c #BDD4CF",
"#X c #BDD5D0",
/* pixels */
"s s f c [ N.B.M.M.b.' Q Q Q Q Q Q ' b.M.M.B.N.U 4 + . . . . . . . . + 4 U N.B.M.M.M.M.M.M.M.M.M.M.P j . . . . . . . . . . . . . ",
"s h c A [ v.b.b.b.h.^ Q Q Q Q Q Q ^ h.b.b.b.x.I l 4 4 3 @ . . . . + 3 v U v.b.b.b.b.b.b.b.b.b.b.b.U C j j 4 3 & & 3 4 3 @ . . . ",
"f z S ] { ' ' ' ' ^ ! Q Q Q Q Q Q ! ^ ' ' ' ) ! M A S C 3 + . . + 3 C I ] ' ' ' ' ' ' ' ' ' ' ' ' ] I P P S A n n A S C 3 + . . ",
"c A ] z.^ ! Q Q Q Q Q Q Q Q Q Q Q Q Q Q Q Q Q Q Q ) [ U v 3 @ @ 3 v I z.^ ! Q Q Q Q Q Q Q Q Q Q Q ^ k.n.n.k.^ Q Q ) [ U v 3 @ . ",
"[ [ { ^ ! ! Q Q Q Q Q Q Q Q Q Q Q Q Q Q Q Q Q Q Q ! ^ ) U C 4 3 A I { ^ ! ! Q Q Q Q Q Q Q Q Q Q Q ! ^ ) ) ^ ! Q Q ! ^ { U C 3 . ",
"N.v.' ! ! Q Q Q Q Q Q Q Q Q Q Q Q Q Q Q Q Q Q Q Q Q ! ) b.L l 4 I x.{ ! ! Q Q Q Q Q Q Q Q Q Q Q Q Q ! ! ! Q Q Q Q Q ! ) b.L 4 . ",
"B.b.' Q Q Q Q Q Q Q Q Q Q Q Q Q Q Q Q Q Q Q Q Q Q Q ! ) n.P l j U x.{ Q Q Q Q Q Q Q Q Q Q Q Q Q Q Q Q W W Q Q Q Q Q ! ) n.P j . ",
"M.b.' Q Q Q Q Q Q Q Q Q Q Q Q Q Q Q Q Q Q Q Q Q Q Q ! ^ z.S j 4 U x.{ Q Q Q Q Q Q Q Q Q Q Q Q Q Q Q Q Q Q Q Q Q Q Q ! ) b.P j . ",
"M.b.' Q Q Q Q Q Q Q Q Q Q Q Q Q Q Q Q Q Q Q Q Q Q Q ! ! ^ M f 4 U x.{ Q Q Q Q Q Q Q Q Q Q Q Q Q Q Q Q Q Q Q Q Q Q W ! ) b.P j . ",
"b.h.^ Q Q Q Q Q Q Q Q Q Q Q Q Q Q Q Q Q Q Q Q Q Q Q Q ! Q n 3 3 C I ] ) ! Q Q Q Q Q Q Q Q Q Q Q Q Q Q Q Q Q Q Q Q Q ! ^ [ S 4 . ",
"' ^ ! Q Q Q Q Q Q Q Q Q Q Q Q Q Q Q Q Q Q Q Q Q Q Q Q ! Q n 3 @ 3 v I [ ! Q Q Q Q Q Q Q Q Q Q Q Q Q Q Q Q Q Q Q Q Q ! ! ~ A 3 . ",
"Q Q Q Q Q Q Q Q Q Q Q Q Q Q Q Q Q Q Q Q Q Q Q Q Q Q ! ! ^ A 4 . . 3 C I ! Q Q Q Q Q Q Q Q Q Q Q Q Q Q Q Q Q Q Q Q Q ! ! ^ M 3 . ",
"Q Q Q Q Q Q Q Q Q Q Q Q Q Q Q Q Q Q Q Q Q Q Q Q Q Q ! ^ z.H j . . @ 3 z D Q ! Q Q Q Q Q Q Q Q Q Q Q Q Q Q Q Q Q Q Q ! ^ k.S 4 . ",
"Q Q Q Q Q Q Q Q Q Q Q Q Q Q Q Q Q Q Q Q Q Q Q Q Q Q ! ^ h.S 4 . . + $ k D Q ! Q Q Q Q Q Q Q Q Q Q Q Q Q Q Q Q Q Q Q ! ) b.P j . ",
"Q Q Q Q Q Q Q Q Q Q Q Q Q Q Q Q Q Q Q Q Q Q Q Q Q Q Q ! _ A 4 . + $ j m D Q ! Q Q Q Q Q Q Q Q Q Q Q Q Q Q Q Q Q Q Q ! ) b.P j . ",
"Q Q Q Q Q Q Q Q Q Q Q Q Q Q Q Q Q Q Q Q Q Q Q Q Q Q Q Q Q n 3 @ 3 l A ! Q Q Q Q Q Q Q Q Q Q Q Q Q Q Q Q Q Q Q Q Q Q ! ^ z.H 4 . ",
"Q Q Q Q Q Q Q Q Q Q Q Q Q Q Q Q Q Q Q Q Q Q Q Q Q Q Q Q Q n f 3 A I ~ Q Q Q Q Q Q Q Q Q Q Q Q Q Q Q Q Q Q Q Q Q Q Q ! ! ^ M 3 . ",
"Q Q Q Q Q Q Q Q Q Q Q Q Q Q Q Q Q Q Q Q Q Q Q Q Q Q Q ! ^ M f 4 H } ) Q Q Q Q Q Q Q Q Q Q Q Q Q Q Q Q Q Q Q Q Q Q Q Q ! ! n $ . ",
"Q Q Q Q Q Q Q Q Q Q Q Q Q Q Q Q Q Q Q Q Q Q Q Q Q Q ! ^ z.F j 3 S ) ^ ! Q Q Q Q Q Q Q Q Q Q Q Q Q Q Q Q Q Q Q Q Q Q Q Q Q n $ . ",
"Q Q Q Q Q Q Q Q Q Q Q Q Q Q Q Q Q Q Q Q Q Q Q Q Q D D J [ S 4 # z N D D Q Q Q Q Q Q Q Q Q Q Q Q Q Q Q Q Q Q Q Q Q Q Q Q Q n & . ",
"Q Q Q Q Q Q Q Q Q Q Q Q Q Q Q Q Q Q Q Q Q Q Q Q Q g @ # # # + + @ @ @ $ D ! Q Q Q Q Q Q Q Q Q Q Q Q Q Q Q Q Q Q Q Q Q Q Q n & . ",
"W Q Q Q Q Q Q Q Q Q Q Q Q Q Q Q Q Q ! ! ! z s f f < : y y y y y y y 9 ; 3 s s h D ! ! Q Q Q Q Q Q Q Q Q Q Q Q Q Q Q Q Q Q n $ . ",
"! ! Q Q Q Q Q Q Q Q Q Q Q Q ! ! ! ! D x z > - 1 1 8 ;.0.0.0.0.0.0.w.5.t 2 1 - = k x m ! Q Q Q Q Q Q Q Q Q Q Q Q Q Q Q ! ! n $ . ",
") ^ ! Q Q Q Q Q Q Q Q Q Q ! ^ ^ ! W z o # : %.5.5.5.9.y.y.y.y.y.y.y.0.5.5.5.;.8 > o 3 D Q Q Q Q Q Q Q Q Q Q Q Q Q Q ! ! ^ M 3 . ",
"b.h._ Q Q Q Q Q Q Q Q Q Q ) h.z.! h = 8 =.>.6.u.u.i.8.t t t t t t w >.u.u.i.0.>.>.r ; $ D ! Q Q Q Q Q Q Q Q Q Q Q Q ! ^ h.S 4 . ",
"P I ] ) ! Q W W W W Q ! ) ] U L f - 8 ;.r.u.9.&.&.&.=.*.*.*.*.*.*.*.=.&.&.$.3.y.y.2.r ; , m ! Q Q Q Q W W Q Q Q Q Q ! ) n.P j . ",
"j v I h.^ ! Q ! ! ! ! ^ [ P C c X.p #.q.8.8.,.t w w *.<.<.<.<.<.<.4.;.w w w =.8.8.q.,.8 K N m Q Q Q ! ! ! ! Q ! ! ! ! ) b.L 5 . ",
". 3 C U { ) ) ) ) ) ) { U C > h }.B.&.e.t q @.<.5.5.5.5.5.5.5.5.5.5.5.5.5.5.=.q q 3.3.p.|...$ Q Q ! ^ ) ) ^ ! ! ^ ) ) ] U C 3 . ",
". @ 3 v U b.n.b.b.n.b.U v 3 X h }.G.t.t ;.,.,.5.y.i.u.u.u.u.u.u.u.u.u.u.u.9.<.>.>.@.&.F..X..$ Q Q ^ k.n.n.h.~ ! h.n.b.U v 3 @ . ",
". . + & C L P L L P L C $ .   h }.D.#.=.<.0.u.r.>.$.&.&.&.&.&.&.&.&.&.&.&.8.y.r.5.;.#.s.(.E # n n M S P P S M M S P L C 3 + . . ",
". . + @ 4 j l l l l l 4 @ .   h ).N.@.4.9.8.8.3.@.w w w w w w w w w w w t ,.8.8.q.5.;.p.(.E + 3 3 f j j j g 3 3 4 j j 4 @ . . . ",
". @ & 4 4 4 4 4 4 4 4 4 j 4 # d Q.S.<.6.r.;.q w ,.5.5.5.5.5.5.5.5.5.5.5.<.@.q t e.q.2.f. X..X 3 4 4 4 3 @ . . . . @ $ 3 @ . . . ",
". 3 C U U U U U U U U U U P l h `.D.7.r.%.*.,.,.<.r.i.u.u.u.u.u.u.u.i.y.5.,.,.;.t 8.w.f.(.R # A L U U A 3 + . . . 3 v A 3 + . . ",
"j C U N.N.N.b.x.x.x.x.x.x.h.v h }.G.7.&.*.;.6.y.y.3.$.&.&.&.&.&.&.&.$.>.r.u.0.<.=.$.2.g.{. .$ ! [ n.n.U g # 3 j j v L I v 3 @ . ",
"P d.n.B.B.m.k.{ { { { { { ' z h ).H.3.@.,.6.q.8.8.=.w t t t t t t t w @.3.8.8.9.4.%.&.g.{. ., ! ) x.n.U g 4 v P P I ] { U C 3 . ",
"M.M.M.N.n.h.~ Q Q Q Q Q Q ! z d Q.B.:.<.5.r.3.q q =.<.<.,.>.>.>.>.<.<.,.w q ;.r.6.4.,.s.!.T , Q Q ) [ L 4 j L N.N.h._ ) n.P j . ",
"M.B.M.n.[ ^ ! Q Q Q Q Q Q ! k h `.N.+.5.y.>.@.>.>.<.<.,.w q q q q =.4.<.,.,.*.%.r.q.*.u Y.T , Q Q ! ! A 3 j P N.h.^ ! ) n.P j . ",
"M.N.n.h.^ ! Q Q Q Q Q Q Q ! z d ~.l.0 @.&.=.;.4.4.4.;.-.E.R.T.T.T.a.#.4.4.4.,.=.;.%.e i Y.T , Q Q ! Q D j l S ] ~ ! ! ) n.P j . ",
"M.n.h.~ ! Q Q Q Q Q Q Q Q ! z d ~.d.* 6 6 w #.#.#.#.p.Z.}.#X#X#XOXL.a.#.#.#.#.@.6 6 * y Y.R , Q Q Q Q D M m v M D W ! ) b.P j . ",
"M.b.' Q Q Q Q Q Q Q Q Q Q ! k h `.Z.u a a a a a a u Z.OX].^.I.W./.OXR.a u a a a a a u Z Q.T , Q Q Q Q Q Q N n z D Q ! ^ h.S 4 . ",
"M.b.' Q Q Q Q Q Q Q Q Q Q ! z d Q.}.|.|.|.|.|.|.|.|.[.].OXO.% b [.oX_.|.|.|.|.|.|.|.|.}./.B , Q Q Q Q Q Q W D D W Q ! ! ^ M 3 . ",
"B.b.' Q Q Q Q Q Q Q Q Q Q ! D n B W.+XoXoXoXoXoXoXoXXX^.o.&   @ B U.'.oXoXoXoXoXoXoX+X'.X.n m Q Q Q Q Q Q Q Q Q Q Q Q ! Q n $ . ",
"M.v.) Q Q Q Q Q Q Q Q Q Q Q ! D + T J.V.V.V.V.V.V.C.P.^.o.&   @ B I.Q.V.V.V.V.V.V.V.K.o.@ z ! Q Q Q Q Q Q Q ! ! Q Q Q ! Q n $ . ",
"b.k.^ Q Q Q Q Q Q Q Q Q Q Q ! D @ . = 8 q q q q q 7 Y ^.OXO.% b [._.A.8 q q q q q q ; . . z ! Q Q Q Q Q Q Q Q Q Q Q ! ! ^ M 3 . ",
") ^ ! Q Q Q Q Q Q Q Q Q Q Q ! D @ . = q ;.,.>.>.>.w 8 Z ^.^.I.W./.x.8 q ;.,.>.>.>.t ; . . x ! Q Q Q Q Q Q Q Q Q Q Q ! ^ z.H 4 . ",
"! ! Q Q Q Q Q Q Q Q Q Q Q Q ! D @ . = q t @.t t t q 6 8 G U d.d.I y 6 7 t @.t t @.q ; . O z ! Q Q Q Q Q Q Q Q Q Q Q ! ) b.P j . ",
"Q Q Q Q Q Q Q Q Q Q Q Q Q Q ! D @ . = 7 7 w @.t t @.@.@.w 0 6 6 w @.@.@.@.t @.t 7 0 ; . O x ! Q Q Q Q Q Q Q Q Q Q W Q ) n.P j . ",
"Q Q Q Q Q Q Q Q Q Q Q Q Q Q ! D @ . = 7 7 *.,.,.,.,.,.,.>.t 6 q ;.,.,.,.,.,.,.;.q 0 ; . . x ! Q Q Q Q Q Q Q Q Q Q W ! ) b.P j . ",
"Q Q Q Q Q Q Q Q Q Q Q Q Q Q ! D @ . = 7 7 q q q q q q q q q 7 7 q q q q q q q q 7 0 ; . O x ! Q Q Q Q Q Q Q Q Q Q W ! ) b.P j . ",
"' ^ ! Q Q Q Q Q Q Q Q Q Q Q Q W n # X = = = = = = = = = = = = = = = = = = = = = = = o + k D ! Q Q Q Q Q Q Q Q Q Q W ! ) b.P j . ",
"x.[ ^ Q Q Q Q Q Q Q Q Q Q Q Q Q ! z # . . . . . . . . . . . . . . . . . . . . . . . @ g D ! Q Q Q Q Q Q Q Q Q Q Q W ! ) b.P j . ",
"v.h.) Q Q Q Q Q Q Q Q Q Q Q Q Q Q ! n @ @ @ @ @ @ @ @ @ @ @ + + @ # # @ @ @ @ @ @ @ g Q Q Q Q Q Q Q Q Q Q Q Q Q Q W ! ) b.P j . ",
") ^ ! Q Q Q Q Q Q Q Q Q Q Q Q Q Q Q W D D D D D D D D D D k & 3 S I J D D D D D D D D Q Q Q Q Q Q Q Q Q Q Q Q Q Q Q ! ) b.P j . ",
"! Q Q Q Q Q Q Q Q Q Q Q Q Q Q Q Q Q Q ! ! ! ! ! ! ! ! ! ! n f g U v.| ! ! ! ! ! ! ! ! Q Q Q Q Q Q Q Q Q Q Q Q Q Q W ! ) b.P j . ",
"! Q Q Q Q Q Q Q Q Q Q Q Q Q Q Q Q Q Q Q Q Q Q Q Q Q Q ! ! n f 4 U x.{ Q Q Q Q Q Q Q Q Q Q Q Q Q Q Q Q Q Q Q Q Q Q W ! ) b.P j . ",
") ^ ! Q Q Q Q Q Q Q Q Q Q Q Q Q Q Q Q Q Q Q Q Q Q Q ! ! ^ M f 4 L [ ) Q Q Q Q Q Q Q Q Q Q Q Q Q Q Q Q Q Q Q Q Q Q W ! ) n.P j . ",
"b.k.^ Q Q Q Q Q Q Q Q Q Q Q Q Q Q Q Q Q Q Q Q Q Q Q ! ^ h.S j 3 D ! ! Q Q Q Q Q Q Q Q Q Q Q Q Q Q Q Q Q Q Q Q Q Q W ! ) n.P j . ",
"M.b.) Q Q Q Q Q Q Q Q Q Q Q Q Q Q Q Q W W Q Q Q Q W ! ) n.P l 3 S ~ ! W W Q Q Q Q Q Q W W Q Q Q Q Q Q W W ! ^ ~ D D ~ { U C 3 . ",
"N.v.' ! ! Q Q ! ! ! ! ! ! Q Q Q Q Q ! ! Q Q ! ! ! ! ! ) b.L j 3 H { ) ! ! Q Q Q Q Q ! ! ! Q Q Q Q Q ! ! ! ) [ ] M D I I v 3 @ . ",
"U U ] ^ ! ! ! ! ^ ) ) ^ ! ! Q Q Q ! ^ ) ) ^ ! ! ^ ) ) { U C 4 3 A I { ) ) ^ ! Q Q ! ^ ) ) ^ ! Q Q ! ^ ) ) ] U L M A H A 3 + . . ",
"4 v P z.^ Q Q ^ z.b.b.z.^ ! Q Q Q ^ k.n.n.h._ ^ k.n.b.U v 3 @ @ 3 v U n.n.h.~ Q Q ^ k.n.n.k.^ Q Q ^ k.n.n.I v c L H v 3 @ . . . ",
"+ 3 v H M n n M H P P H M n n n n A F P P S A M S P L C 3 + . . + 3 C P P H A n n A F P P F A n n M F P P v 4 3 C v 4 + . . . . ",
". @ 3 4 3 $ $ 3 4 j j 4 3 $ $ & & 3 4 j j g 3 3 4 j 5 3 @ . . . . @ 3 j j 4 3 & & 3 4 j j g 3 & $ 3 4 j j 3 @ @ 3 3 @ . . . . . ",
". . . . . . . . . . . . . . . . . . . . . . . . . . . . . . . . . . . . . . . . . . . . . . . . . . . . . . . . . . . . . . . . "
};
