/* XPM */
static char *dl1[] = {
/* columns rows colors chars-per-pixel */
"64 64 118 2 ",
"   c None",
".  c #24333E",
"X  c #233B3E",
"o  c #273142",
"O  c #283343",
"+  c #233D41",
"@  c #2C3F4A",
"#  c #254346",
"$  c #274648",
"%  c #2A4D4D",
"&  c #2B504F",
"*  c #2B4C52",
"=  c #314A51",
"-  c #2D5553",
";  c #2F5A55",
":  c #2D5758",
">  c #2E5A5E",
",  c #345B56",
"<  c #3A5C56",
"1  c #335D59",
"2  c #35665E",
"3  c #305963",
"4  c #376C66",
"5  c #386D62",
"6  c #33656D",
"7  c #3C7567",
"8  c #3C756A",
"9  c #3E796B",
"0  c #397471",
"q  c #3D7A74",
"w  c #426F65",
"e  c #42756C",
"r  c #407F71",
"t  c #438677",
"y  c #498774",
"u  c #488C79",
"i  c #4B957D",
"p  c #59917F",
"a  c #3C7C84",
"s  c #448E87",
"d  c #4C9782",
"f  c #4D9A84",
"g  c #509F83",
"h  c #428A93",
"j  c #499D9D",
"k  c #649D88",
"l  c #699D89",
"z  c #50A087",
"x  c #51A38A",
"c  c #54A98D",
"v  c #4FA391",
"b  c #4EA69C",
"n  c #53AB94",
"m  c #52AC9A",
"M  c #57B494",
"N  c #59B392",
"B  c #5BB995",
"V  c #56B39E",
"C  c #5EBE99",
"Z  c #69AB8F",
"A  c #72B797",
"S  c #74BF99",
"D  c #499DAB",
"F  c #50ADA8",
"G  c #55B4A3",
"H  c #58B8A6",
"J  c #56BAB1",
"K  c #5FC19B",
"L  c #61C49C",
"P  c #69C59E",
"I  c #63C99F",
"U  c #5AC1B2",
"Y  c #5BC6BA",
"T  c #64CBA0",
"R  c #6ACEA3",
"E  c #7CC7A2",
"W  c #7ACBA5",
"Q  c #67D3A5",
"!  c #6CD1A5",
"~  c #70D3A7",
"^  c #76D7AB",
"/  c #77D8AB",
"(  c #7BDBAE",
")  c #7DE1B1",
"_  c #5CCAC0",
"`  c #5FD1CE",
"'  c #5BC9D8",
"]  c #5ED1DA",
"[  c #61D5D0",
"{  c #62DAE7",
"}  c #8AB28E",
"|  c #86D2AB",
" . c #80DAAB",
".. c #9ADBA9",
"X. c #8BDCB1",
"o. c #84E4B4",
"O. c #8DE5B7",
"+. c #8BE9B9",
"@. c #94EDBD",
"#. c #97F0BF",
"$. c #9AF1BF",
"%. c #A6F4BF",
"&. c #AEF6BF",
"*. c #B1F7BF",
"=. c #97F1C0",
"-. c #9BF4C2",
";. c #A7F5C0",
":. c #AAF6C0",
">. c #B5F8C0",
",. c #B2FDC4",
"<. c #B5FFC6",
"1. c #B9FEC3",
"2. c #C6FDC0",
"3. c #C1FFC4",
"4. c #C8FDC0",
"5. c #CCFEC0",
"6. c #CCFFC0",
"7. c #CDFFC0",
/* pixels */
"                                                                                                                                ",
"                                                                                                                                ",
"                                                                                                                                ",
"                                                                                                                                ",
"                                                                                                                                ",
"                                                                                                                                ",
"                                                                                                                                ",
"                                                                                                                                ",
"                                                                                                                                ",
"                                                                                                                                ",
"                                                                                                                                ",
"                                                                                                                                ",
"                                                                                                                                ",
"                                                                                                                                ",
"                                                                                                                                ",
"                                                                                                                                ",
"                                                                                                                                ",
"                                                                                                                                ",
"                                                                                                                                ",
"                                                        , , , - - - &     < < -                                                 ",
"                                                      , E X.W B B x 9 # # } ..c -                                               ",
"                                                    w A @.-.@.o.R L x r r P  .x -                                               ",
"                                                  w Z -.:.&.;.@.( R L N x M x 9 &                                               ",
"                                                , A -.%.4.5.>.$.$.^ I L c x t -                                                 ",
"                                              , E @.:.4.5.*.$.$.$.^ I I L c n b -                                               ",
"                                              , X.,.2.5.*.$.#.$.=./ I I I N n v &                                               ",
"                                            ; y O.<.3.1.-.=.=.@.o.! I I I N z f q 1                                             ",
"                                          + 7 T | | | | X.@.#.O.R I I I I N z n U 0 +                                           ",
"                                          + 9 B = o O @ e W +.R T I I I I N z n U 0 +                                           ",
"                                          + 7 C u p l k x P ~ I I I I I I N z n U 0 +                                           ",
"                                          + 7 T Q ) +.o.! I I I I I I I C c z c U 0 +                                           ",
"                                          + 5 B B L I I I I I I I I I C x z x m Y 0 +                                           ",
"                                          # % - - f T I I I I I I T C c z z m Y { a X                                           ",
"                                          # % - # i T I I I I I T B c z z z V J h 6                                             ",
"                                          # 1 r 5 x T T T T T I C c z z z z V G -                                               ",
"                                          # 2 d z B L L L L L K c z z z z x H J :                                               ",
"                                              1 f c c c c c c c x z z z x G ` ' > .                                             ",
"                                            . - m m z z z z z z z z z x G U F a *                                               ",
"                                            . * s m m z z z z z z z x V U [ j #                                                 ",
"                                                # s G x z z x n n n G Y _ ] D #                                                 ",
"                                                  * 8 z z z m U U U U _ { h *                                                   ",
"                                                    % 2 2 2 4 0 0 0 0 0 a 3                                                     ",
"                                                      + + + + + + + + + X                                                       ",
"                                                                                                                                ",
"                                                                                                                                ",
"                                                                                                                                ",
"                                                                                                                                ",
"                                                                                                                                ",
"                                                                                                                                ",
"                                                                                                                                ",
"                                                                                                                                ",
"                                                                                                                                ",
"                                                                                                                                ",
"                                                                                                                                ",
"                                                                                                                                ",
"                                                                                                                                ",
"                                                                                                                                ",
"                                                                                                                                ",
"                                                                                                                                ",
"                                                                                                                                ",
"                                                                                                                                ",
"                                                                                                                                ",
"                                                                                                                                ",
"                                                                                                                                "
};
