/* XPM */
static char *dr1[] = {
/* columns rows colors chars-per-pixel */
"64 64 124 2 ",
"   c None",
".  c #1D363D",
"X  c #24343D",
"o  c #24393E",
"O  c #253741",
"+  c #293443",
"@  c #233B41",
"#  c #283A46",
"$  c #264446",
"%  c #264648",
"&  c #29434D",
"*  c #294C4D",
"=  c #2B514F",
"-  c #314D53",
";  c #2D5554",
":  c #2D5758",
">  c #2E5A5E",
",  c #335B56",
"<  c #3D5E57",
"1  c #35665E",
"2  c #346565",
"3  c #376961",
"4  c #396E65",
"5  c #376F6A",
"6  c #386F6A",
"7  c #3A736C",
"8  c #3E796D",
"9  c #366C75",
"0  c #397572",
"q  c #3B797A",
"w  c #437065",
"e  c #4C7E6F",
"r  c #4D7F70",
"t  c #448677",
"y  c #498676",
"u  c #458B76",
"i  c #43877B",
"p  c #4B8C79",
"a  c #538D7B",
"s  c #4A957E",
"d  c #4D997F",
"f  c #3B7A83",
"g  c #448E88",
"h  c #489180",
"j  c #4E9B83",
"k  c #46938B",
"l  c #509881",
"z  c #5E9E87",
"x  c #499A93",
"c  c #499B9C",
"v  c #629885",
"b  c #699D89",
"n  c #50A187",
"m  c #51A38A",
"M  c #5EA488",
"N  c #54A88D",
"B  c #4EA69C",
"V  c #52A790",
"C  c #53AA92",
"Z  c #53AC98",
"A  c #59B593",
"S  c #5CB995",
"D  c #56B29C",
"F  c #5EBE99",
"G  c #51AEAA",
"H  c #55B4A3",
"J  c #57B8A5",
"K  c #58B9A6",
"L  c #54B4A8",
"P  c #58BCAA",
"I  c #4DA6B2",
"U  c #55B8B0",
"Y  c #61C59D",
"T  c #6BC39D",
"R  c #63C99F",
"E  c #5AC2B3",
"W  c #5CC9BC",
"Q  c #64CBA0",
"!  c #6ACEA3",
"~  c #72CFA4",
"^  c #7ECAA4",
"/  c #67D3A5",
"(  c #6CD6A8",
")  c #71D0A6",
"_  c #74D6A9",
"`  c #79DBAE",
"'  c #7DDEB0",
"]  c #5DCBC6",
"[  c #5FD1CE",
"{  c #5CCBDA",
"}  c #5FD2D0",
"|  c #62DAE0",
" . c #81CFA2",
".. c #84D5A6",
"X. c #86D2AB",
"o. c #88D6AE",
"O. c #88D8AE",
"+. c #80DEB1",
"@. c #8ADBB0",
"#. c #A5D2A3",
"$. c #85E6B6",
"%. c #8DE0B4",
"&. c #8DEABA",
"*. c #94EDBC",
"=. c #97F0BF",
"-. c #99F0BF",
";. c #A6F4BF",
":. c #ABF5BF",
">. c #B1F7BF",
",. c #9EF4C1",
"<. c #99F2C1",
"1. c #A2F4C1",
"2. c #A0F6C2",
"3. c #A4FAC5",
"4. c #B0FBC3",
"5. c #B6F9C0",
"6. c #B8FAC1",
"7. c #BBFFC4",
"8. c #C5FCC0",
"9. c #C7FDC0",
"0. c #C1FFC4",
"q. c #C8FDC0",
"w. c #CCFEC0",
"e. c #CDFFC0",
/* pixels */
"                                                                                                                                ",
"                                                                                                                                ",
"                                                                                                                                ",
"                                                                                                                                ",
"                                                                                                                                ",
"                                                                                                                                ",
"                                                                                                                                ",
"                                                                                                                                ",
"                                                                                                                                ",
"                                                                                                                                ",
"                                                                                                                                ",
"                                                                                                                                ",
"                                                                                                                                ",
"                                                                                                                                ",
"                                                                                                                                ",
"                                                                                                                                ",
"                                                                                                                                ",
"                                                                                                                                ",
"                                                                                                                                ",
"                                                  ; , <       ; ; ; , , ,                                                       ",
"                                                % u  .#.< @ 1 j A A T O.O.r @                                                   ",
"                                                % t ~ ..p 8 s F R ` &.<.<.^ a @                                                 ",
"                                                % 3 s A N C F Q _ &.2.:.:.3.^ e                                                 ",
"                                                  ; 7 m N F R ! *.<.:.8.w.4.,.@.w                                               ",
"                                                % g H N F R R ! *.<.-.;.q.w.5.*.@.e @                                           ",
"                                                $ i D N Y Q R ! *.<.=.-.:.8.w.6.,.r .                                           ",
"                                                7 h m N Y R R Q +.*.<.-.<.4.0.7.2.M 1                                           ",
"                                              : L D m N Y R R R R +.*.*.%.o.X.X.X.) s %                                         ",
"                                              : L D m N Y R R R R Q ' %.a - + + + l j %                                         ",
"                                              : L D m N Y Q R R R R ! ) N z b v y A d %                                         ",
"                                              : L D n N S Y Q R R R R R Q ' &.$.( / d %                                         ",
"                                              : U J N m m S Y R R R R R R R R Y S S t %                                         ",
"                                              > { [ H m m m A R R R R R R R Q S 1 ; = %                                         ",
"                                                f G P m m m N A Y Q R R R R Q A = * ; %                                         ",
"                                                $ k P m m m m m S Y Q Q R Q Q F 7 8 4 %                                         ",
"                                                % x E V m m m m m S Y Y Y Y Y F N j 8 %                                         ",
"                                                % I | P N m m m m N N N N N N N m 4 *                                           ",
"                                                # 9 c E P C m m m m m m m m m N K 5 @                                           ",
"                                                  X 0 } W J C m m m m m m m C Z x 2 O                                           ",
"                                                  o f { ] W P C C C N m m m Z B : X                                             ",
"                                                    & 9 { } E E E E H m m m t : #                                               ",
"                                                      & f q 7 0 0 0 7 1 1 3 , X                                                 ",
"                                                        o o @ @ @ @ @ @ @ @ O                                                   ",
"                                                                                                                                ",
"                                                                                                                                ",
"                                                                                                                                ",
"                                                                                                                                ",
"                                                                                                                                ",
"                                                                                                                                ",
"                                                                                                                                ",
"                                                                                                                                ",
"                                                                                                                                ",
"                                                                                                                                ",
"                                                                                                                                ",
"                                                                                                                                ",
"                                                                                                                                ",
"                                                                                                                                ",
"                                                                                                                                ",
"                                                                                                                                ",
"                                                                                                                                ",
"                                                                                                                                ",
"                                                                                                                                ",
"                                                                                                                                ",
"                                                                                                                                "
};
