/* XPM */
static char *dr3[] = {
/* columns rows colors chars-per-pixel */
"64 64 105 2 ",
"   c None",
".  c #632739",
"X  c #62293C",
"o  c #752637",
"O  c #7F2636",
"+  c #752738",
"@  c #762F3E",
"#  c #7C293A",
"$  c #6B2E40",
"%  c #7B2E40",
"&  c #763040",
"*  c #842637",
"=  c #862A39",
"-  c #882E3D",
";  c #8A303E",
":  c #8C3542",
">  c #8E3A45",
",  c #8C3649",
"<  c #853A4E",
"1  c #8F3C49",
"2  c #913C47",
"3  c #9A3D46",
"4  c #923D49",
"5  c #8B3E51",
"6  c #913F50",
"7  c #93434C",
"8  c #9C434A",
"9  c #95494F",
"0  c #914252",
"q  c #974D53",
"w  c #9A4E53",
"e  c #964E5A",
"r  c #975056",
"t  c #995256",
"y  c #9A555A",
"u  c #9E5B5B",
"i  c #A64B4F",
"p  c #A25256",
"a  c #AC5556",
"s  c #A0575A",
"d  c #A25E5E",
"f  c #AE5859",
"g  c #B05959",
"h  c #A4605E",
"j  c #A4605F",
"k  c #A5605F",
"l  c #A4615F",
"z  c #934C61",
"x  c #965165",
"c  c #995660",
"v  c #995762",
"b  c #995663",
"n  c #9A5861",
"m  c #995862",
"M  c #9A5963",
"N  c #9A5A63",
"B  c #9A5A64",
"V  c #9B5A64",
"C  c #9B5B64",
"Z  c #9B5B65",
"A  c #9B5C65",
"S  c #9B5D69",
"D  c #9C5F6E",
"F  c #9B5D73",
"G  c #9C6072",
"H  c #9D6274",
"J  c #9D6377",
"K  c #A66260",
"L  c #A66360",
"P  c #A76361",
"I  c #A76462",
"U  c #AB6261",
"Y  c #A96462",
"T  c #A86562",
"R  c #A96562",
"E  c #AA6663",
"W  c #AB6663",
"Q  c #AD6563",
"!  c #AE6764",
"~  c #AC6865",
"^  c #AD6865",
"/  c #AD6966",
"(  c #AF6966",
")  c #B66360",
"_  c #B16863",
"`  c #B06966",
"'  c #B16B67",
"]  c #B36C68",
"[  c #B36D69",
"{  c #B46D69",
"}  c #B56D69",
"|  c #B56E6A",
" . c #B46F6A",
".. c #BA6F69",
"X. c #BB6F69",
"o. c #B86F6A",
"O. c #BC6F69",
"+. c #B6706B",
"@. c #BC716B",
"#. c #C0726B",
"$. c #C2736B",
"%. c #C77269",
"&. c #C87269",
"*. c #C97369",
"=. c #CB756B",
/* pixels */
"                                                                                                                                ",
"                                                                                                                                ",
"                                                                                                                                ",
"                                                                                                                                ",
"                                                                                                                                ",
"                                                                                                                                ",
"                                                                                                                                ",
"                                                                                                                                ",
"                                                                                                                                ",
"                                                                                                                                ",
"                                                                                                                                ",
"                                                                                                                                ",
"                                                                                                                                ",
"                                              *                                                                                 ",
"                                            : >                                                                                 ",
"                                          * > r ;                                                                               ",
"                                              ;                                                                                 ",
"                                                                                                                                ",
"                                                                                                                                ",
"                                                                                                                                ",
"                                                              = =                                                               ",
"                                                            2 p a 3                                                             ",
"                                                          : w #.=.a 2                                                           ",
"                                                        ; q _ *.*.@.p =                                                         ",
"                                                      ; t Y O.%.X.| p =   = =                                                   ",
"                                                      ; y / X.X.| ! y 2 = i i =                                                 ",
"                                                      - y / | [ | P y q 7 ) f =                                                 ",
"                                                      : y Y [ | | P u y ' | p =                                                 ",
"                                                  * > y t u Y | | P l ' | Y 9 =                                                 ",
"                                                * - 7 u t y P | | I w 4 d d 7 =     * *                                         ",
"                                                > > 7 y q y l / [ Y q : t 9 : =   3 8 7                                         ",
"                                              ; y 9 7 q q u u d / P u u t 2 ;   ; g #.U ;                                       ",
"                                              - q y u n r y u u d d u t q d p ; t ! ' u ;                                       ",
"                                            = : q t y n r t y u u u u q q d t > u d w >                                         ",
"                                          > 7 w 7 7 e D y q t u u u y q t q 7 7 y 9 : *                                         ",
"                                        = 7 l Q 7 > e J S y t u u y q t u 2 > q q > -                                           ",
"                                          - 7 l Q d y y Z y q t u y q t u t e v 7 q 7 =                                         ",
"                                            @ 2 s d u y y y y q t t q q t y y y t u y > =                                       ",
"                                            & 1 7 t u y y y y q q q q q y y y q y u y y 0 ,                                     ",
"                                          % 0 n 7 q t t u t q t q q t y Z y r r t y y v F 5 O                                   ",
"                                        # z G Z v n y q t q y n r y Z Z A Z n n Z J x : : $                                     ",
"                                        X < 0 1 1 1 > : : : > 1 : > 1 1 1 1 1 1 1 6 < . .                                       ",
"                                          . o + + + + + + + + + + + + + + + + + + o .                                           ",
"                                                                                                                                ",
"                                                                                                                                ",
"                                                                                                                                ",
"                                                                                                                                ",
"                                                                                                                                ",
"                                                                                                                                ",
"                                                                                                                                ",
"                                                                                                                                ",
"                                                                                                                                ",
"                                                                                                                                ",
"                                                                                                                                ",
"                                                                                                                                ",
"                                                                                                                                ",
"                                                                                                                                ",
"                                                                                                                                ",
"                                                                                                                                ",
"                                                                                                                                ",
"                                                                                                                                ",
"                                                                                                                                ",
"                                                                                                                                ",
"                                                                                                                                "
};
