/* XPM */
static char *dr4[] = {
/* columns rows colors chars-per-pixel */
"64 64 116 2 ",
"   c None",
".  c #412C3B",
"X  c #4C2E3A",
"o  c #502F3A",
"O  c #41303F",
"+  c #4D313D",
"@  c #53323D",
"#  c #3F3040",
"$  c #413442",
"%  c #4B3948",
"&  c #543740",
"*  c #563841",
"=  c #583C43",
"-  c #5C4146",
";  c #5C4449",
":  c #5F4B4D",
">  c #554857",
",  c #61474B",
"<  c #66494C",
"1  c #614E51",
"2  c #635454",
"3  c #695253",
"4  c #675957",
"5  c #665A5C",
"6  c #695D5B",
"7  c #725F5D",
"8  c #785B58",
"9  c #6A615E",
"0  c #72635F",
"q  c #7B635E",
"w  c #665B62",
"e  c #655D6C",
"r  c #6B6462",
"t  c #6E6A65",
"y  c #68636F",
"u  c #6B6B6E",
"i  c #746761",
"p  c #706D65",
"a  c #7A6C65",
"s  c #716F6F",
"d  c #7C6F68",
"f  c #6F706B",
"g  c #73736C",
"h  c #757A6F",
"j  c #79786D",
"k  c #6F777F",
"l  c #727774",
"z  c #757C72",
"x  c #787E72",
"c  c #747E7C",
"v  c #81675F",
"b  c #8D7266",
"n  c #807169",
"m  c #82796E",
"M  c #837C71",
"N  c #778073",
"B  c #798274",
"V  c #768079",
"C  c #7B8779",
"Z  c #7D8B79",
"A  c #838476",
"S  c #8A8678",
"D  c #808B79",
"F  c #8C887A",
"G  c #988675",
"H  c #9A8877",
"J  c #928E7C",
"K  c #84937F",
"L  c #88917E",
"P  c #92907F",
"I  c #A38E79",
"U  c #A5947F",
"Y  c #707783",
"T  c #778785",
"R  c #7E8383",
"E  c #788985",
"W  c #7A8C8A",
"Q  c #7C9087",
"!  c #768691",
"~  c #7B9090",
"^  c #7B919A",
"/  c #7F999F",
"(  c #798DA0",
")  c #7F9CAC",
"_  c #869680",
"`  c #8F9481",
"'  c #869982",
"]  c #8D9B85",
"[  c #939280",
"{  c #909984",
"}  c #919B85",
"|  c #929A85",
" . c #969A85",
".. c #959F87",
"X. c #969F88",
"o. c #A79881",
"O. c #AF9980",
"+. c #96A089",
"@. c #95A08A",
"#. c #96A28B",
"$. c #96A38B",
"%. c #9AA58D",
"&. c #9DA68C",
"*. c #9CA68D",
"=. c #9CA68E",
"-. c #9CA98F",
";. c #9EA88E",
":. c #9EA98F",
">. c #ABA68C",
",. c #A2A990",
"<. c #A6AE94",
"1. c #B5AF92",
"2. c #A3B093",
"3. c #B5B093",
"4. c #BDB796",
"5. c #BABC9B",
/* pixels */
"                                                                                                                                ",
"                                                                                                                                ",
"                                                                                                                                ",
"                                                                                                                                ",
"                                                                                                                                ",
"                                                                                                                                ",
"                                                                                                                                ",
"                                                                                                                                ",
"                                                                                                                                ",
"                                                                                                                                ",
"                                                                                                                                ",
"                                                                                                                                ",
"                                                                                                                                ",
"                                                                                                                                ",
"                                                                                                                                ",
"                                                                                                                                ",
"                                                                                                                                ",
"                                                                                                                                ",
"                                                                                                                                ",
"                                                                                                                                ",
"                                                                                                                                ",
"                                                                                                                                ",
"                                                                                                                                ",
"                                                                                                                                ",
"                                                                                                                                ",
"                                                                                                                                ",
"                                                                                                                                ",
"                                                                                        < < ,                                   ",
"                                        * * *                     * * *               < O.>.m *                                 ",
"                                      ; t M d *                 * b H M ,           8 I 3.2.j *                                 ",
"                                      ; p ] M *                 @ G 5.} ;         X q 4.;.B 6 *                                 ",
"                                        * p p *         <       , F %.h ;         - a =.D 2 @                                   ",
"                                          ; ;         < O.v @ , [ <.S ;         * M $.D 1                                       ",
"                                              @     8 I 1.q ; j ,.;.A 5 * @ o - M } A 2                                         ",
"                                            : 2   X q 4.;.p r ' $.K C V 6 2 4 a X.] r @                                         ",
"                              , ;       < , 9 N 1 = i =.K N N Z Z B V E Z Z ] =.K B 6 &                                         ",
"                          @ 7  .Z 2 @ < O.>.A r c l x K N h z z z E c 5 6 x _ K N z 9 &         * * *                           ",
"                            3 0 6 t t p J ..} F s ! / Q z h h z ^ k g J U m f N z h l u = X X = t A d *                         ",
"                              @ @ 9 p 9 t z _ ` r Y ! l t t r g / R A =.o.n r g t t f l 6 4 6 i g A d *                         ",
"                                  & & * 1 r l c z r 5 5 5 5 5 r Z $.$.Z 9 t z l r 5 w r N C L P ; @ *                           ",
"                                      # * = y ) ~ z h Z Z Z Z Z K C x z g g V W E T ^ ( 1 - ; ; $                               ",
"                                        O . > e w 2 2 4 4 4 4 4 4 2 1 1 2 1 2 5 5 5 w e % . . .                                 ",
"                                              + + + + + + + + + + + + + + + + + + + + X                                         ",
"                                                                                                                                ",
"                                                                                                                                ",
"                                                                                                                                ",
"                                                                                                                                ",
"                                                                                                                                ",
"                                                                                                                                ",
"                                                                                                                                ",
"                                                                                                                                ",
"                                                                                                                                ",
"                                                                                                                                ",
"                                                                                                                                ",
"                                                                                                                                ",
"                                                                                                                                ",
"                                                                                                                                ",
"                                                                                                                                ",
"                                                                                                                                ",
"                                                                                                                                ",
"                                                                                                                                ",
"                                                                                                                                ",
"                                                                                                                                ",
"                                                                                                                                "
};
