/* XPM */
static char *du0[] = {
/* columns rows colors chars-per-pixel */
"64 64 208 2 ",
"   c None",
".  c #23303B",
"X  c #23313B",
"o  c #23323D",
"O  c #25343F",
"+  c #20393F",
"@  c #233C3E",
"#  c #243940",
"$  c #243A40",
"%  c #243B40",
"&  c #203D41",
"*  c #233E40",
"=  c #233E41",
"-  c #233E42",
";  c #233E43",
":  c #273B44",
">  c #293A46",
",  c #244043",
"<  c #244044",
"1  c #244245",
"2  c #264647",
"3  c #274448",
"4  c #264648",
"5  c #274648",
"6  c #294249",
"7  c #2A4E4D",
"8  c #2B504F",
"9  c #2B4C52",
"0  c #2C5250",
"q  c #2D5455",
"w  c #2D5556",
"e  c #2D5259",
"r  c #2F5559",
"t  c #2D575A",
"y  c #355C57",
"u  c #365C57",
"i  c #315D58",
"p  c #365D58",
"a  c #315F5F",
"s  c #34635D",
"d  c #34645D",
"f  c #35655E",
"g  c #36695F",
"h  c #305862",
"j  c #336162",
"k  c #336263",
"l  c #336664",
"z  c #376A60",
"x  c #376A62",
"c  c #3D6C62",
"v  c #3A6F64",
"b  c #376E6C",
"n  c #397063",
"m  c #3A7164",
"M  c #39736F",
"N  c #397370",
"B  c #397470",
"V  c #397471",
"C  c #397571",
"Z  c #397473",
"A  c #3C7A73",
"S  c #3D7A74",
"D  c #407D6F",
"F  c #4C7E6F",
"G  c #428275",
"H  c #448775",
"J  c #578F7B",
"K  c #4B947C",
"L  c #4B957F",
"P  c #4B967F",
"I  c #4C967D",
"U  c #4C977D",
"Y  c #3C7C84",
"T  c #459087",
"R  c #4B9580",
"E  c #4B9681",
"W  c #4E9C84",
"Q  c #4E9C85",
"!  c #4E9D87",
"~  c #46928A",
"^  c #428B95",
"/  c #499A91",
"(  c #53A285",
")  c #50A188",
"_  c #50A189",
"`  c #51A288",
"'  c #51A289",
"]  c #51A389",
"[  c #51A28A",
"{  c #51A38A",
"}  c #51A48A",
"|  c #52A58B",
" . c #53A68C",
".. c #52A68D",
"X. c #52A78F",
"o. c #53A88D",
"O. c #54A88D",
"+. c #55AB8E",
"@. c #55AB8F",
"#. c #4FA391",
"$. c #4EA69C",
"%. c #53A891",
"&. c #54AA91",
"*. c #54AB93",
"=. c #56AE90",
"-. c #54AF98",
";. c #55AF9A",
":. c #58B192",
">. c #59B494",
",. c #5BB895",
"<. c #5BB896",
"1. c #5CBB97",
"2. c #5DBB97",
"3. c #55B09B",
"4. c #54B09C",
"5. c #56B39E",
"6. c #56B39F",
"7. c #5DBD98",
"8. c #5DBD99",
"9. c #5EBE99",
"0. c #5EBF9A",
"q. c #6BAF92",
"w. c #63BE98",
"e. c #75B998",
"r. c #499DAB",
"t. c #4A9EAC",
"y. c #56B4A0",
"u. c #58BAA6",
"i. c #58BAA7",
"p. c #55B7AA",
"a. c #55B7AB",
"s. c #5FC09A",
"d. c #5FC29C",
"f. c #61C49C",
"g. c #61C59D",
"h. c #62C79E",
"j. c #61C89E",
"k. c #62C89E",
"l. c #63C89E",
"z. c #62C89F",
"x. c #63C89F",
"c. c #63C99F",
"v. c #63CA9F",
"b. c #59C0B1",
"n. c #59C1B1",
"m. c #5AC1B2",
"M. c #5AC2B2",
"N. c #5AC4B6",
"B. c #5BC5B6",
"V. c #5BC7B9",
"C. c #63CAA0",
"Z. c #64CAA0",
"A. c #64CBA0",
"S. c #66CBA1",
"D. c #65CDA2",
"F. c #66CDA2",
"G. c #65CEA2",
"H. c #68CDA2",
"J. c #7DC7A2",
"K. c #71CFA5",
"L. c #7ECAA4",
"P. c #74D7AA",
"I. c #78D8AB",
"U. c #78D9AC",
"Y. c #7BDBAE",
"T. c #5CC9C0",
"R. c #5DC9C1",
"E. c #5CCAC0",
"W. c #5ECBC3",
"Q. c #5BC8CF",
"!. c #5BC8D0",
"~. c #5ED1DA",
"^. c #62DAE7",
"/. c #88D8AE",
"(. c #80DEB0",
"). c #89DAB0",
"_. c #8BDCB1",
"`. c #85E2B3",
"'. c #86E2B4",
"]. c #86E3B4",
"[. c #87E3B5",
"{. c #8DE8B9",
"}. c #8EE9B9",
"|. c #90E9BA",
" X c #95EEBD",
".X c #97F0BF",
"XX c #98F0BF",
"oX c #9AF1BF",
"OX c #9BF1BF",
"+X c #9FF2BF",
"@X c #A9F5BF",
"#X c #AEF6BF",
"$X c #B2F3BC",
"%X c #98F1C0",
"&X c #99F1C0",
"*X c #99F2C0",
"=X c #9BF2C1",
"-X c #99F3C2",
";X c #9CF3C1",
":X c #9BF4C2",
">X c #9BF5C2",
",X c #A6FCC6",
"<X c #B2FBC3",
"1X c #B6FCC3",
"2X c #C6FDC0",
"3X c #C7FDC0",
"4X c #C2FFC4",
"5X c #CDFFC1",
/* pixels */
"                                                                                                                                ",
"                                                                                                                                ",
"                                                                                                                                ",
"                                                                                                                                ",
"                                                                                                                                ",
"                                                                                                                                ",
"                                                                                                                                ",
"                                                                                                                                ",
"                                                                                                                                ",
"                                                                                                                                ",
"                                                                                                                                ",
"                                                                                                                                ",
"                                                                                                                                ",
"                                                                                                                                ",
"                                                                                                                                ",
"                                                                                                                                ",
"                                                                                                                                ",
"                                                                                                                                ",
"                                                                                                                                ",
"                                                                                                                                ",
"                                                                                                                                ",
"                                                        , ;                                                                     ",
"                                                        s v z                                                                   ",
"                                                      i W d.( p u u u u                                                         ",
"                                                  < f W 8.c.K./././._.J.u < 3                                                   ",
"                                                < z P 8.c.U.}.:X:X<X4X$Xe.q.J ;                                                 ",
"                                                f P 8.c.c.[.;XXXXX#X3X5X1X,XL.F                                                 ",
"                                              0 E 8.Z.c.c.(. XXXXX.X@X3X3X@X*X).c                                               ",
"                                              0 E 8.Z.c.c.Z.U.XXXXXXXX+X+XXX*X|.w.n ;                                           ",
"                                              7 E =.1.Z.c.c.H.U. X*X*X*X*X*X}.P.G.m +                                           ",
"                                            a S W [ +.8.c.Z.c.Z.(.[.`.`.`.[.I.c.c.P g                                           ",
"                                          ; N b.%.[ [ o.s.c.c.c.c.c.c.c.c.c.c.c.c.G.U 3                                         ",
"                                          ; V b.%.[ [ [ o.8.Z.c.c.c.c.c.c.c.c.c.c.G.U 2                                         ",
"                                          ; N b.X.[ [ [ [ +.:.>.h.Z.c.c.c.c.c.v.c.8.H 2                                         ",
"                                          ; M b.6.X.[ [ [ [ [ | <.h.Z.C.c.Z.h.1.1.=.D 2                                         ",
"                                          ; V T.V.;.[ [ [ [ [ [ [ <.h.h.h.h.<.[ [ *.G 2                                         ",
"                                          @ Y ^.T.;.[ [ [ [ [ [ [ X.+.o.o.+.X.[ [ i.~ 3                                         ",
"                                            h ^ ~.T.;.[ [ [ [ [ [ [ [ [ [ [ [ X.i.T k :                                         ",
"                                              9 r.Q.T.6.3.X.[ [ [ [ [ [ [ | *.;./ k X                                           ",
"                                                3 t.!.p.B.y.X.%.%.%.%.%.%.W #.$.w O                                             ",
"                                                  e t l p.B.b.b.b.b.b.b.b.A 8 w >                                               ",
"                                                    X 6 b V V V V V V V V t o O                                                 ",
"                                                        $ $ $ $ $ $ $ $ $                                                       ",
"                                                                                                                                ",
"                                                                                                                                ",
"                                                                                                                                ",
"                                                                                                                                ",
"                                                                                                                                ",
"                                                                                                                                ",
"                                                                                                                                ",
"                                                                                                                                ",
"                                                                                                                                ",
"                                                                                                                                ",
"                                                                                                                                ",
"                                                                                                                                ",
"                                                                                                                                ",
"                                                                                                                                ",
"                                                                                                                                ",
"                                                                                                                                ",
"                                                                                                                                ",
"                                                                                                                                ",
"                                                                                                                                ",
"                                                                                                                                ",
"                                                                                                                                "
};
