/* XPM */
static char *du1[] = {
/* columns rows colors chars-per-pixel */
"64 64 233 2 ",
"   c None",
".  c #23313A",
"X  c #23313B",
"o  c #24383D",
"O  c #243A3F",
"+  c #233C3E",
"@  c #243940",
"#  c #243A40",
"$  c #243B40",
"%  c #243A41",
"&  c #233E40",
"*  c #233E41",
"=  c #233E42",
"-  c #233E43",
";  c #243F42",
":  c #244043",
">  c #244044",
",  c #254044",
"<  c #274347",
"1  c #29424A",
"2  c #2B464D",
"3  c #2A454F",
"4  c #2A4F4E",
"5  c #2B4852",
"6  c #2B5251",
"7  c #2C5250",
"8  c #2C5251",
"9  c #2C5351",
"0  c #2D5552",
"q  c #2E5652",
"w  c #2E5753",
"e  c #2F5753",
"r  c #2D5555",
"t  c #2E5754",
"y  c #2D5656",
"u  c #2D525A",
"i  c #2D5758",
"p  c #2D5659",
"a  c #2D575A",
"s  c #2E5A5E",
"d  c #345B57",
"f  c #355C57",
"g  c #35655E",
"h  c #35665E",
"j  c #35665F",
"k  c #336563",
"l  c #376A60",
"z  c #386C62",
"x  c #396E63",
"c  c #396F65",
"v  c #33666E",
"b  c #356B68",
"n  c #35696B",
"m  c #376F6D",
"M  c #397164",
"N  c #3B7265",
"B  c #3C7466",
"V  c #3C7467",
"C  c #38716E",
"Z  c #39736F",
"A  c #3D7A6A",
"S  c #397470",
"D  c #397471",
"F  c #3A7571",
"G  c #3A7574",
"H  c #3B797B",
"J  c #478D7B",
"K  c #4B957F",
"L  c #3B7982",
"P  c #3C7A84",
"I  c #3C7D85",
"U  c #41878E",
"Y  c #499382",
"T  c #4B9580",
"R  c #4B9781",
"E  c #4F9F83",
"W  c #4D9A84",
"Q  c #4C9A86",
"!  c #4C9B86",
"~  c #49988E",
"^  c #499D9D",
"/  c #51A287",
"(  c #50A088",
")  c #50A188",
"_  c #50A189",
"`  c #51A288",
"'  c #51A289",
"]  c #50A18A",
"[  c #51A28A",
"{  c #51A38A",
"}  c #51A48B",
"|  c #52A58B",
" . c #51A58C",
".. c #52A58C",
"X. c #53A78C",
"o. c #53A78D",
"O. c #52A68E",
"+. c #53A78E",
"@. c #52A78F",
"#. c #53A88D",
"$. c #55AB8C",
"%. c #54AA8D",
"&. c #55AB8E",
"*. c #55AB8F",
"=. c #55AC8F",
"-. c #4DA193",
";. c #53A890",
":. c #53A891",
">. c #53A991",
",. c #53A992",
"<. c #53AA94",
"1. c #54AD95",
"2. c #54AC99",
"3. c #57B090",
"4. c #57B091",
"5. c #58B191",
"6. c #58B192",
"7. c #5BB693",
"8. c #5AB793",
"9. c #5BB793",
"0. c #59B494",
"q. c #5BB895",
"w. c #5CBA96",
"e. c #5CBA97",
"r. c #5CBB97",
"t. c #55B09A",
"y. c #55B19B",
"u. c #56B29C",
"i. c #56B39D",
"p. c #55B39E",
"a. c #5DBC98",
"s. c #5DBD98",
"d. c #60B392",
"f. c #60B492",
"g. c #61BB96",
"h. c #61BB97",
"j. c #4A9FA0",
"k. c #499EAC",
"l. c #52AFA2",
"z. c #50ADA8",
"x. c #54B1A3",
"c. c #56B5A1",
"v. c #56B5A3",
"b. c #56B6A3",
"n. c #53B2A5",
"m. c #54B3A5",
"M. c #53B4A7",
"N. c #58B8A6",
"B. c #55B8AC",
"V. c #55B8B0",
"C. c #5FC09A",
"Z. c #60C39B",
"A. c #60C69D",
"S. c #62C79E",
"D. c #61C89E",
"F. c #62C89E",
"G. c #63C89E",
"H. c #63C89F",
"J. c #63C99F",
"K. c #63CA9F",
"L. c #59C0AF",
"P. c #59C0B0",
"I. c #59C0B1",
"U. c #59C1B1",
"Y. c #5BC3B4",
"T. c #5BC4B4",
"R. c #5BC4B5",
"E. c #5BC5B9",
"W. c #5CC7B8",
"Q. c #5BC7BD",
"!. c #63CAA0",
"~. c #64CAA0",
"^. c #64CBA0",
"/. c #66CBA1",
"(. c #64CCA1",
"). c #68CDA2",
"_. c #6FD2A6",
"`. c #6FD5A8",
"'. c #70D3A7",
"]. c #74D5A9",
"[. c #78D8AB",
"{. c #7BDBAE",
"}. c #5FCFC7",
"|. c #5ECFCC",
" X c #5FD1CE",
".X c #5BC8D0",
"XX c #5BC9D1",
"oX c #5BC9D8",
"OX c #5CCCDB",
"+X c #61D7D2",
"@X c #61D5E1",
"#X c #82D4AB",
"$X c #8AD9AF",
"%X c #80DEB0",
"&X c #84E1B3",
"*X c #84E2B3",
"=X c #85E2B3",
"-X c #85E2B4",
";X c #85E3B4",
":X c #86E3B4",
">X c #87E3B5",
",X c #86E5B5",
"<X c #86E6B6",
"1X c #87E7B7",
"2X c #88E7B7",
"3X c #89E7B7",
"4X c #8DE8B9",
"5X c #92EBBB",
"6X c #95EEBD",
"7X c #96F0BF",
"8X c #97F0BF",
"9X c #98F0BF",
"0X c #99F0BF",
"qX c #9BF1BF",
"wX c #9FF2BF",
"eX c #A9F5BF",
"rX c #B2F7BF",
"tX c #97F2C1",
"yX c #98F1C0",
"uX c #99F1C0",
"iX c #9AF1C0",
"pX c #99F3C1",
"aX c #9BF2C1",
"sX c #9CF2C0",
"dX c #9CF3C1",
"fX c #AAF5C0",
"gX c #B2FBC3",
"hX c #B3FBC3",
"jX c #B5F8C0",
"kX c #BEFAC0",
"lX c #C6FDC0",
"zX c #C7FDC0",
"xX c #CCFFC0",
/* pixels */
"                                                                                                                                ",
"                                                                                                                                ",
"                                                                                                                                ",
"                                                                                                                                ",
"                                                                                                                                ",
"                                                                                                                                ",
"                                                                                                                                ",
"                                                                                                                                ",
"                                                                                                                                ",
"                                                                                                                                ",
"                                                                                                                                ",
"                                                                                                                                ",
"                                                                                                                                ",
"                                                                                                                                ",
"                                                                                                                                ",
"                                                                                                                                ",
"                                                                                                                                ",
"                                                                                                                                ",
"                                                                                                                                ",
"                                                      7 7 e e e d f f d e                                                       ",
"                                                  > g R R $.8.h.#X$X$X#Xh.N *                                                   ",
"                                                * z J o.e.A.`.3XuXhXhXtX3Xd.A *                                                 ",
"                                                C Y $.0.A._.&XuX9XkXzXfXdX<Xf.N                                                 ",
"                                              r l.t.3.K.K.&XuX9X9XjXxXzXwXuX<X8.e                                               ",
"                                              7 ! o.3.K.K.&XuX9X9X9XjXzXeXuX<X8.e                                               ",
"                                            b ~ ) ) 3.K.K.:XuX9X9X8XwXeX9XuX:XZ.E l                                             ",
"                                          * D R.>.$.e.K.K.[.4XuX9X9X8X6X9XuX:X~.(.V *                                           ",
"                                          * S P.>.e.~.K.K.K.].5X6X9X9X9X9X6X%X!.K.V *                                           ",
"                                          * S P.>.e.!.K.K.K.~.'.5XuX9X9X9X[.~.!.K.V *                                           ",
"                                          * S P.>.$.e.K.K.K.K.~.].4XdX6X[.).K.!.K.V *                                           ",
"                                          * S P.>.) $.s.K.K.K.K.K.[.:X%X~.K.!.K.s.z *                                           ",
"                                          * G E.>.) ) o.s.K.K.K.K.K.K.K.K.K.K.C.o.g :                                           ",
"                                          + I @X2./ ) ) #.s.~.!.!.!.K.K.K.~.s.#.) g :                                           ",
"                                            v U x.1.) ) ) =.6.0.A.~.~.~.~.e.=.! c r                                             ",
"                                              6 M.i.) ) ) ) ) | q.s.r.r.e.$.) K 4                                               ",
"                                              p V.N.o.) ) ) ) ) ) ) ) ) ) ) #.! 7                                               ",
"                                              s oX Xb.) ) ) ) ) ) ) ) ) ) ) i.x.r                                               ",
"                                              5 P z.R.b.o.) ) ) ) ) ) ) ) i.-.C 3                                               ",
"                                                : ^ +XW.i.o.) ) ) ) ) o.i.}.j.>                                                 ",
"                                                < k..XB.Q.b.o.>.>.>.>.<.m..Xk.<                                                 ",
"                                                  u p b OX|.L.P.P.P.Y.n.k p u                                                   ",
"                                                    . 3 L H D D D D D m 1 .                                                     ",
"                                                        o o % % % % % %                                                         ",
"                                                                                                                                ",
"                                                                                                                                ",
"                                                                                                                                ",
"                                                                                                                                ",
"                                                                                                                                ",
"                                                                                                                                ",
"                                                                                                                                ",
"                                                                                                                                ",
"                                                                                                                                ",
"                                                                                                                                ",
"                                                                                                                                ",
"                                                                                                                                ",
"                                                                                                                                ",
"                                                                                                                                ",
"                                                                                                                                ",
"                                                                                                                                ",
"                                                                                                                                ",
"                                                                                                                                ",
"                                                                                                                                ",
"                                                                                                                                ",
"                                                                                                                                "
};
