/* XPM */
static char *du5[] = {
/* columns rows colors chars-per-pixel */
"64 64 120 2 ",
"   c None",
".  c #24323C",
"X  c #233A3E",
"o  c #1D3B40",
"O  c #273743",
"+  c #233C42",
"@  c #283945",
"#  c #254346",
"$  c #264648",
"%  c #294A4B",
"&  c #2C504F",
"*  c #2C4953",
"=  c #2D5451",
"-  c #2F5854",
";  c #2D5758",
":  c #2E595C",
">  c #335353",
",  c #345B56",
"<  c #315E58",
"1  c #35665E",
"2  c #35695F",
"3  c #315B65",
"4  c #376A61",
"5  c #396F64",
"6  c #3A7165",
"7  c #3C756A",
"8  c #3E796B",
"9  c #346970",
"0  c #3A7673",
"q  c #3B7976",
"w  c #406B62",
"e  c #497265",
"r  c #477468",
"t  c #427B6C",
"y  c #497B6D",
"u  c #4D7F70",
"i  c #5F836F",
"p  c #428473",
"a  c #4E8171",
"s  c #468B77",
"d  c #488D77",
"f  c #468B7A",
"g  c #488E7A",
"h  c #5B8572",
"j  c #4A937B",
"k  c #5B937E",
"l  c #628772",
"z  c #638873",
"x  c #3C7C85",
"c  c #438B84",
"v  c #41878E",
"b  c #4B9681",
"n  c #4D9A83",
"m  c #4C9E8F",
"M  c #5C9680",
"N  c #519C82",
"B  c #589F86",
"V  c #428C92",
"C  c #54A386",
"Z  c #59A185",
"A  c #52A68B",
"S  c #54A88A",
"D  c #58B28F",
"F  c #55AC93",
"G  c #53AB99",
"H  c #57B090",
"J  c #59B391",
"K  c #5CBB96",
"L  c #5EBC99",
"P  c #65A389",
"I  c #64AC8E",
"U  c #69AD8F",
"Y  c #61BB96",
"T  c #54B3A5",
"R  c #5CBEA0",
"E  c #56B9AB",
"W  c #55B8B0",
"Q  c #61C49D",
"!  c #5BC2AE",
"~  c #5AC4B9",
"^  c #66C8A0",
"/  c #6CCBA3",
"(  c #77C8A2",
")  c #7FCFA8",
"_  c #6AD1A5",
"`  c #7AD0A8",
"'  c #77DBAD",
"]  c #7CDFB0",
"[  c #5BC9D7",
"{  c #61D6E1",
"}  c #82D3AA",
"|  c #80DCAF",
" . c #81DDB0",
".. c #8BDCB1",
"X. c #9DE4AF",
"o. c #84E3B4",
"O. c #8AE5B6",
"+. c #8AECBA",
"@. c #9AEFBE",
"#. c #9EF1BF",
"$. c #B2E7B1",
"%. c #A4F4BF",
"&. c #B4F7BF",
"*. c #BDF9BF",
"=. c #CDFEBF",
"-. c #98F1C0",
";. c #9DF2C0",
":. c #9FF3C0",
">. c #9CF5C3",
",. c #A0F3C0",
"<. c #A9F6C1",
"1. c #ACF6C0",
"2. c #AEF7C0",
"3. c #AFF7C1",
"4. c #B1F8C0",
"5. c #C1FCC0",
"6. c #C9FFC2",
"7. c #CDFFC1",
"8. c #CEFFC1",
"9. c #CFFFC1",
/* pixels */
"                                                                                                                                ",
"                                                                                                                                ",
"                                                                                                                                ",
"                                                                                                                                ",
"                                                                                                                                ",
"                                                                                                                                ",
"                                                                                                                                ",
"                                                                                                                                ",
"                                                                                                                                ",
"                                                                                                                                ",
"                                                                                                                                ",
"                                                                                                                                ",
"                                                                                                                                ",
"                                                                                                                                ",
"                                                                                                                                ",
"                                                                                                                                ",
"                                                                                                                                ",
"                                                                                                                                ",
"                                                                                                                                ",
"                                                                                                                                ",
"                                                                                                                                ",
"                                                                                                                                ",
"                                                                                                                                ",
"                                                                                                                                ",
"                                                                  $ $                                                           ",
"                                + +                             $ M k +                       + +                               ",
"                                6 y y                           $ I ( a                     1 7 a w                             ",
"                              - J o.U $                         $ j ' } ,                 + 6 ^ O.a +                           ",
"                              = n ^ N $                         $ p L Y -                 + 1 F ^ 7 +                           ",
"                                1 5 4                           $ p b 6                   # 4 n 8 <                             ",
"                                # +                             $ 6 5 +                     1 8 %                               ",
"                                                        -         $ $                         $                                 ",
"                      $ $             $ $             - S 6 +                                                                   ",
"                    4 N U r         4 N U r         + $ 4 = o o o o o o             + +                     + +                 ",
"                  + 5 ^ o.Z 2     + 5 ^ o.Z 1     2 t a u h z l l l z i           2 t a                   4 t u                 ",
"                  # 1 n J K d $   # 1 n J Q j $ - Z  .@.#.*.=.=.=.=.6.$.e , > @ & N ] } ,               = j ' } ,               ",
"                      = - - = O $ $ % = - g p - S X.&.#.5.7.7.7.7.4.;.@.....P & f ` | C = # #         = f C L Y -               ",
"                            . % c f t p j 7 6 C | %.<.;.3.3.3.3.3.,.-.-.>.+.B - H / B 4 j s 4 + X       1 1 4 6                 ",
"                            3 V ~ ! G S K p p _ o.o.o.o.o.o.o.o.o.o.o.o.o./ b 5 j p 5 5 D R m q x 9     # # + +                 ",
"                          X x [ W T T G F A F Q Q Q Q Q Q Q Q Q Q Q Q Q Q H A n < = 7 F G T T W [ x X                           ",
"                            * : ; = v { ~ G A S S S S S S S S S S S S S S A C C b G E ~ { v = ; : *                             ",
"                              . . . 3 x 0 5 1 1 1 1 1 1 1 1 1 1 1 1 1 1 1 1 1 1 4 7 0 0 x 3 . . .                               ",
"                                      X + + + + + + + + + + + + + + + + + + + + + + + + X                                       ",
"                                                                                                                                ",
"                                                                                                                                ",
"                                                                                                                                ",
"                                                                                                                                ",
"                                                                                                                                ",
"                                                                                                                                ",
"                                                                                                                                ",
"                                                                                                                                ",
"                                                                                                                                ",
"                                                                                                                                ",
"                                                                                                                                ",
"                                                                                                                                ",
"                                                                                                                                ",
"                                                                                                                                ",
"                                                                                                                                ",
"                                                                                                                                ",
"                                                                                                                                ",
"                                                                                                                                ",
"                                                                                                                                ",
"                                                                                                                                ",
"                                                                                                                                "
};
