/* XPM */
static char *il4[] = {
/* columns rows colors chars-per-pixel */
"64 64 122 2 ",
"   c None",
".  c #191737",
"X  c #1F313D",
"o  c #23213F",
"O  c #24333D",
"+  c #233A3E",
"@  c #222140",
"#  c #243742",
"$  c #233D41",
"%  c #293B47",
"&  c #293C49",
"*  c #244144",
"=  c #274648",
"-  c #2A454F",
";  c #274849",
":  c #2B504F",
">  c #2D5454",
",  c #2E585C",
"<  c #315757",
"1  c #345B57",
"2  c #30575B",
"3  c #345B59",
"4  c #34655D",
"5  c #3C4367",
"6  c #315A65",
"7  c #356761",
"8  c #396162",
"9  c #366961",
"0  c #386C63",
"q  c #356B6B",
"w  c #386F6A",
"e  c #3B7366",
"r  c #3A736E",
"t  c #3F7A6B",
"y  c #397471",
"u  c #3B797A",
"i  c #40605F",
"p  c #414667",
"a  c #53536B",
"s  c #446563",
"d  c #496A69",
"f  c #467569",
"g  c #4E7774",
"h  c #4C7F70",
"j  c #3E807A",
"k  c #438574",
"l  c #4F8372",
"z  c #458876",
"x  c #478E7B",
"c  c #548E7B",
"v  c #4B917C",
"b  c #3B7A83",
"n  c #4E9D85",
"m  c #418990",
"M  c #4FA085",
"N  c #5BA487",
"B  c #51A38A",
"V  c #55AB8E",
"C  c #4EA69C",
"Z  c #52A790",
"A  c #53AA93",
"S  c #54AD98",
"D  c #57B090",
"F  c #59B391",
"G  c #5CBA96",
"H  c #55B19C",
"J  c #5EBE99",
"K  c #68A68B",
"L  c #65B092",
"P  c #79B392",
"I  c #74B999",
"U  c #55B4A4",
"Y  c #55B7AB",
"T  c #57BBAF",
"R  c #58BCAB",
"E  c #57BCB1",
"W  c #5FC19A",
"Q  c #61C59D",
"!  c #63C99F",
"~  c #78C19F",
"^  c #5AC1AF",
"/  c #5AC1B2",
"(  c #5BC6BC",
")  c #5CCABE",
"_  c #64CBA0",
"`  c #69CEA3",
"'  c #7CC5A1",
"]  c #77CCA4",
"[  c #67D2A5",
"{  c #6FD2A6",
"}  c #70D2A7",
"|  c #74D6A9",
" . c #7BD3A9",
".. c #73D9AC",
"X. c #78D8AB",
"o. c #55BCCD",
"O. c #58C0C0",
"+. c #5CCCDB",
"@. c #5FD2D0",
"#. c #60D3CA",
"$. c #62DAE6",
"%. c #8FC098",
"&. c #89CDA4",
"*. c #88D8AE",
"=. c #8CDDB2",
"-. c #87E4B5",
";. c #8BE6B7",
":. c #94EDBC",
">. c #99EEBD",
",. c #99F0BF",
"<. c #A2F3BF",
"1. c #A7B0C1",
"2. c #9BF2C0",
"3. c #A6F5C0",
"4. c #A2FFCB",
"5. c #BFFBC0",
"6. c #BDFEC3",
"7. c #BFFFC3",
"8. c #C1FCC0",
"9. c #C3FFC7",
"0. c #CEFFC0",
"q. c #CDFFC4",
/* pixels */
"                                                                                                                                ",
"                                                                                                                                ",
"                                                                                                                                ",
"                                                                                                                                ",
"                                                                                                                                ",
"                                                                                                                                ",
"                                                                                                                                ",
"                                                                                                                                ",
"                                                                                                                                ",
"                                                                                                                                ",
"                                                                                                                                ",
"                                                                                                                                ",
"                                                                                                                                ",
"                                                                                                                                ",
"                                                                                                                                ",
"                                                                                                                                ",
"                                                                                                                                ",
"                                                                                                                                ",
"                                                                                                                                ",
"                                                                          1 1 >                                                 ",
"                                                                        = K  .V >                                               ",
"                                                            $ $ $ $ $ $ * N ..B >                                               ",
"                                                          f l h e e e e 7 n B t :                                               ",
"                                                      1 1 I 2.:.} ! ! Q V B z >                                                 ",
"                                                  $ h *.*.:.2.,.:.| ! ! Q A A C > * =                                           ",
"                                                = c &.6.6.3.>.,.2.X.Q ! ! D H Y > t k =                                         ",
"                                                * P 9.0.5.<.2.>.-.{ ! ! ! D H T j x k =                                         ",
"                                                1 %.q.8.2.,.>.;.` ! ! ! Q V S / / r $                                           ",
"                                              1 ' >.<.,.>.,.-.` _ ! ! Q V B B S / y $                                           ",
"                                              1 =.4.' s i L ..! ! ! _ Q B B B Z / y $                                           ",
"                                              1 ] ~ d o a g M ! ! ! _ Q V B B Z / y $                                           ",
"                                              > F 3 . p 1.a > ! ! ! ! J B B B Z / y $                                           ",
"                                          ; X # D 3 @ 5 p @ < ! _ _ J V B B B Z / y $                                           ",
"                                          * 1 v W B 8 @ . 3 B _ _ G V B B B B Z / y $                                           ",
"                                          $ e W ! [ B 3 3 B _ G G V B B B B B B / y $                                           ",
"                                          * 7 A W Q J G W Q G B B B B B B B B S ( y $                                           ",
"                                          $ r R A V z 4 n V B B B B B B B B S ( $.b +                                           ",
"                                            2 r 4 4 0 k n B B B B B B B B H ^ E m 6                                             ",
"                                            O ; q 9 t B B B B B B A H S H / #.O.> O                                             ",
"                                            O > C S B B B B Z Z Z R ) ) Y U O.o., O                                             ",
"                                              % > z B B B U / / / / @.+.q > , , &                                               ",
"                                                O 1 7 4 4 w y y y r u b - O O O                                                 ",
"                                                  # $ $ $ $ $ $ $ $ + +                                                         ",
"                                                                                                                                ",
"                                                                                                                                ",
"                                                                                                                                ",
"                                                                                                                                ",
"                                                                                                                                ",
"                                                                                                                                ",
"                                                                                                                                ",
"                                                                                                                                ",
"                                                                                                                                ",
"                                                                                                                                ",
"                                                                                                                                ",
"                                                                                                                                ",
"                                                                                                                                ",
"                                                                                                                                ",
"                                                                                                                                ",
"                                                                                                                                ",
"                                                                                                                                ",
"                                                                                                                                ",
"                                                                                                                                ",
"                                                                                                                                ",
"                                                                                                                                "
};
