/* XPM */
static char *ir4[] = {
/* columns rows colors chars-per-pixel */
"64 64 122 2 ",
"   c None",
".  c #1C1739",
"X  c #1D1E38",
"o  c #1B2637",
"O  c #1E243D",
"+  c #23353E",
"@  c #243A3E",
"#  c #1E1E40",
"$  c #2F2B4A",
"%  c #233240",
"&  c #2E3047",
"*  c #233C41",
"=  c #283F46",
"-  c #2B2E50",
";  c #3C3F5F",
":  c #264547",
">  c #274648",
",  c #29444B",
"<  c #2A4E4C",
"1  c #2B4852",
"2  c #324653",
"3  c #2D5656",
"4  c #2D5559",
"5  c #2E5A5D",
"6  c #305453",
"7  c #345A56",
"8  c #3E5B5C",
"9  c #34635D",
"0  c #356763",
"q  c #366961",
"w  c #396C62",
"e  c #376F6D",
"r  c #386F6A",
"t  c #3B7367",
"y  c #39726C",
"u  c #376D77",
"i  c #397471",
"p  c #3D7B73",
"a  c #40476A",
"s  c #427065",
"d  c #497265",
"f  c #487169",
"g  c #447A6D",
"h  c #4B7E6F",
"j  c #586172",
"k  c #448474",
"l  c #4D8273",
"z  c #468B77",
"x  c #488E77",
"c  c #478D7A",
"v  c #4B937D",
"b  c #3C7B83",
"n  c #666D89",
"m  c #4C9983",
"M  c #46928B",
"N  c #499D9D",
"B  c #649B87",
"V  c #51A38A",
"C  c #54A98D",
"Z  c #58B08F",
"A  c #52A790",
"S  c #54AB92",
"D  c #54AE98",
"F  c #59B392",
"G  c #5CBA96",
"H  c #56B29D",
"J  c #59B698",
"K  c #5DBD98",
"L  c #66A58B",
"P  c #6DA990",
"I  c #499EAC",
"U  c #4FA9A0",
"Y  c #50ADA8",
"T  c #55B4A3",
"R  c #58BAA7",
"E  c #54B4A8",
"W  c #59BDAC",
"Q  c #50AEBA",
"!  c #55B8B0",
"~  c #5FC09A",
"^  c #61C59D",
"/  c #63C99F",
"(  c #5AC2B3",
")  c #5BC5B8",
"_  c #5CC8B9",
"`  c #6EC7A0",
"'  c #65CCA1",
"]  c #6BCDA3",
"[  c #7CC6A1",
"{  c #71CCA4",
"}  c #6CD3A6",
"|  c #7BDBAE",
" . c #5DCBC0",
".. c #5FD1CE",
"X. c #5BC9D1",
"o. c #5BC9D8",
"O. c #61D7D2",
"+. c #62DAE1",
"@. c #A3ACBC",
"#. c #81D9AE",
"$. c #80DEB1",
"%. c #8BDCB1",
"&. c #87E3B4",
"*. c #8BE7B7",
"=. c #9EE1B1",
"-. c #95EEBD",
";. c #9DEFBD",
":. c #97F0BF",
">. c #9BF1BF",
",. c #B2E7B1",
"<. c #A0F2BF",
"1. c #9CF4C2",
"2. c #9CF6C3",
"3. c #9BF7C4",
"4. c #9AF1C0",
"5. c #B6F9C0",
"6. c #B7F9C0",
"7. c #BAFDC2",
"8. c #C2FFC5",
"9. c #CCFEC0",
"0. c #CCFFC3",
"q. c #CAFFC5",
/* pixels */
"                                                                                                                                ",
"                                                                                                                                ",
"                                                                                                                                ",
"                                                                                                                                ",
"                                                                                                                                ",
"                                                                                                                                ",
"                                                                                                                                ",
"                                                                                                                                ",
"                                                                                                                                ",
"                                                                                                                                ",
"                                                                                                                                ",
"                                                                                                                                ",
"                                                                                                                                ",
"                                                                                                                                ",
"                                                                                                                                ",
"                                                                                                                                ",
"                                                                                                                                ",
"                                                                                                                                ",
"                                                                                                                                ",
"                                                  3 7 7                                                                         ",
"                                                > x ` [ 7                                                                       ",
"                                                > z ] ` 6 * * * * * * *                                                         ",
"                                                > q v C t w t t t g l h                                                         ",
"                                                  3 t V C K / / ] &.2.%.s 7 7                                                   ",
"                                              > > M T C ~ / / ] *.:.4.-.%.%.L >                                                 ",
"                                            w x < M W C ^ ' / ] -.4.:.4.7.8.=.L 7                                               ",
"                                            w v p U W C ^ ' / ' $.-.4.>.6.9.q.=.7                                               ",
"                                              3 E _ T C K / / / / $.-.:.4.6.0.,.d                                               ",
"                                              3 E T C V C K ' / / ' | -.-.>.>.;.%.h *                                           ",
"                                              3 E H V V V G ' / / / } { f 8 B 3.2.l *                                           ",
"                                              3 E H V V V K ' / / ' F l j $ 2 P #.h *                                           ",
"                                              3 E H V V V G ^ / / ' k & @.n # % Z t +                                           ",
"                                              3 E H V V V V F / / ' k X ; a - % Z 9 o >                                         ",
"                                              3 E H V V V V C F ^ ' F g O . 2 v ~ V q >                                         ",
"                                              3 E H V V V V V V G G ^ ~ q 6 k ' ' / v >                                         ",
"                                              3 ! R C V V V V V V V S ^ ^ G G ^ ^ J k >                                         ",
"                                              5 o...T V V V V V V V V C C t t C C R M >                                         ",
"                                              1 b Y ( T C V V V V V V V V c t 9 9 r 0 =                                         ",
"                                                * N O._ T H H D V V V V V C c q y 3 *                                           ",
"                                                : I X.E E )  .( D A A A V V V C T e *                                           ",
"                                                  4 5 3 3 Q +.) ( ( ( W C V V m 9 ,                                             ",
"                                                    + + % u b i i i i y q 9 q 9 =                                               ",
"                                                          + @ * * * * * * * * *                                                 ",
"                                                                                                                                ",
"                                                                                                                                ",
"                                                                                                                                ",
"                                                                                                                                ",
"                                                                                                                                ",
"                                                                                                                                ",
"                                                                                                                                ",
"                                                                                                                                ",
"                                                                                                                                ",
"                                                                                                                                ",
"                                                                                                                                ",
"                                                                                                                                ",
"                                                                                                                                ",
"                                                                                                                                ",
"                                                                                                                                ",
"                                                                                                                                ",
"                                                                                                                                ",
"                                                                                                                                ",
"                                                                                                                                ",
"                                                                                                                                ",
"                                                                                                                                "
};
