/* XPM */
static char *iu2[] = {
/* columns rows colors chars-per-pixel */
"64 64 217 2 ",
"   c None",
".  c #1D363D",
"X  c #23323D",
"o  c #24323C",
"O  c #25333D",
"+  c #24343E",
"@  c #24343F",
"#  c #24353F",
"$  c #253640",
"%  c #253741",
"&  c #203B40",
"*  c #243940",
"=  c #243A40",
"-  c #243B40",
";  c #203C40",
":  c #233F43",
">  c #293B48",
",  c #244144",
"<  c #254345",
"1  c #264547",
"2  c #274548",
"3  c #264648",
"4  c #274648",
"5  c #274748",
"6  c #29424A",
"7  c #294E4D",
"8  c #2C514F",
"9  c #2C4E52",
"0  c #2C5250",
"q  c #2C5351",
"w  c #2F5250",
"e  c #2D5553",
"r  c #2E5652",
"t  c #2C5454",
"y  c #2D5554",
"u  c #2D5555",
"i  c #2D5757",
"p  c #2E585A",
"a  c #2E585D",
"s  c #2E595E",
"d  c #335855",
"f  c #345A56",
"g  c #34665D",
"h  c #34675D",
"j  c #35655E",
"k  c #35665F",
"l  c #3A625B",
"z  c #336563",
"x  c #346565",
"c  c #396F63",
"v  c #376F6D",
"b  c #3B7468",
"n  c #356770",
"m  c #397471",
"M  c #3A7571",
"N  c #3A7672",
"B  c #377078",
"V  c #3E7F7B",
"C  c #437065",
"Z  c #477468",
"A  c #4A7D6F",
"S  c #4E7F70",
"D  c #4D8171",
"F  c #4E8171",
"G  c #4D8272",
"H  c #488E78",
"J  c #518B78",
"K  c #499179",
"L  c #4A937B",
"P  c #4B967D",
"I  c #4C977D",
"U  c #4C977E",
"Y  c #5A927D",
"T  c #438C85",
"R  c #4B9680",
"E  c #4B9681",
"W  c #4C9A86",
"Q  c #449089",
"!  c #48978F",
"~  c #49988D",
"^  c #4C9D8E",
"/  c #509A80",
"(  c #559C82",
")  c #589E84",
"_  c #489994",
"`  c #50A087",
"'  c #50A088",
"]  c #50A289",
"[  c #51A289",
"{  c #51A389",
"}  c #50A18A",
"|  c #51A38A",
" . c #51A38B",
".. c #52A588",
"X. c #51A48A",
"o. c #52A48A",
"O. c #52A58A",
"+. c #52A58B",
"@. c #53A78C",
"#. c #52A68E",
"$. c #52A78F",
"%. c #53A88D",
"&. c #55AC8F",
"*. c #53A890",
"=. c #53A891",
"-. c #53A991",
";. c #57AF90",
":. c #57AF91",
">. c #53AA94",
",. c #55AE97",
"<. c #51AA99",
"1. c #52AC9D",
"2. c #57B090",
"3. c #57B091",
"4. c #58B192",
"5. c #58B292",
"6. c #59B494",
"7. c #5BB794",
"8. c #5BB894",
"9. c #5CBA96",
"0. c #5CBB96",
"q. c #5DBB96",
"w. c #5CBA97",
"e. c #55B09B",
"r. c #55B19B",
"t. c #56B29C",
"y. c #56B49F",
"u. c #5EBF99",
"i. c #66A58A",
"p. c #66A58B",
"a. c #69AC8F",
"s. c #4BA2AD",
"d. c #52B0A3",
"f. c #53B2A5",
"g. c #54B3A5",
"h. c #53B4A7",
"j. c #55B9AC",
"k. c #59BEAD",
"l. c #59BEAE",
"z. c #4CA5B1",
"x. c #50AEBC",
"c. c #5FC19B",
"v. c #61C29B",
"b. c #61C49C",
"n. c #62C79E",
"m. c #61C89E",
"M. c #62C89E",
"N. c #62C89F",
"B. c #63C99F",
"V. c #62CA9F",
"C. c #63CA9F",
"Z. c #5AC0AC",
"A. c #59C0B1",
"S. c #59C1B1",
"D. c #5AC1B3",
"F. c #5BC3B4",
"G. c #5BC4B5",
"H. c #63CAA0",
"J. c #64CAA0",
"K. c #64CBA0",
"L. c #66CBA1",
"P. c #64CDA2",
"I. c #65CDA2",
"U. c #67CCA2",
"Y. c #65CEA2",
"T. c #65CFA3",
"R. c #69CDA3",
"E. c #69CEA3",
"W. c #6BCFA4",
"Q. c #69D0A4",
"!. c #71D3A7",
"~. c #74D5A9",
"^. c #76D7AB",
"/. c #77D8AB",
"(. c #7BDBAE",
"). c #55BCCD",
"_. c #58C1C0",
"`. c #5ED0D2",
"'. c #62D9DF",
"]. c #62DAE0",
"[. c #80DEB0",
"{. c #80DEB1",
"}. c #89DCB1",
"|. c #8ADCB1",
" X c #91DDB1",
".X c #87E3B5",
"XX c #83E4B4",
"oX c #8BE6B7",
"OX c #91E6B8",
"+X c #91EABA",
"@X c #92EBBB",
"#X c #93ECBC",
"$X c #94EDBC",
"%X c #95EEBD",
"&X c #97EFBE",
"*X c #96EFBF",
"=X c #97F0BF",
"-X c #98F0BF",
";X c #99F0BF",
":X c #9CF0BE",
">X c #A3F3BF",
",X c #A4F3BF",
"<X c #A5F3BF",
"1X c #BFF9BE",
"2X c #98F1C0",
"3X c #99F1C0",
"4X c #9AF1C0",
"5X c #9BF2C1",
"6X c #9AF5C3",
"7X c #A2F5C1",
"8X c #A9FBC4",
"9X c #B6F9C0",
"0X c #BAFAC0",
"qX c #BCFAC0",
"wX c #C2FFC2",
"eX c #CAFFC1",
"rX c #CFFFC0",
/* pixels */
"                                                                                                                                ",
"                                                                                                                                ",
"                                                                                                                                ",
"                                                                                                                                ",
"                                                                                                                                ",
"                                                                                                                                ",
"                                                                                                                                ",
"                                                                                                                                ",
"                                                                                                                                ",
"                                                                                                                                ",
"                                                                                                                                ",
"                                                                                                                                ",
"                                                                                                                                ",
"                                                                                                                                ",
"                                          c c                                                                                   ",
"                                        3 L L 3                                                                                 ",
"                                          r r                                                                                   ",
"                                                                                                                                ",
"                                                                                                                                ",
"                                                                                                                                ",
"                                                                                                                                ",
"                                                                                                                                ",
"                                                                                                                                ",
"                                                                                                                                ",
"                                                      3 3                                                                       ",
"                                                    Z a./ g . & & & & &                                                         ",
"                                                  g ) XXQ.( S F F F F A                                                         ",
"                                                1 P I.J.E..X;X&X&X:X7X XC d f                                                   ",
"                                                3 U I.E.oX&X5X5X5X9XeX1X X}.i.3                                                 ",
"                                              8 L 8.B.E.&X5X;X;X;X<XqXrXwX8X}.i.0                                               ",
"                                            r b u.I.B.I.[.#X5X;X;X&X>X0XqX<X6XOXY l                                             ",
"                                          : g @.b.H.B.B.B.[.&X;X;X;X;X;X;X;X;X;X@XJ 7                                           ",
"                                          , g %.b.H.B.B.B.J.(.&X;X;X;X=X=X=X;X@X!.v.H 3                                         ",
"                                        3 V ^ +.:.c.J.B.B.B.E.^.^.^.^.^.^.^./.~.J.I.U ,                                         ",
"                                        3 ! Z.[ [ 4.c.H.B.B.B.B.B.B.B.B.B.B.B.B.B.I.+.g                                         ",
"                                        3 _ F.@.[ [ :.b.B.B.B.B.B.B.B.B.B.B.B.B.B.b.0.R 0                                       ",
"                                        3 z.].k.@.[ +.:.b.B.B.B.B.B.B.B.B.B.B.B.B.6.%.R 0                                       ",
"                                          B s.'.k.-.` [ :.4.3.6.b.J.H.H.J.J.c.4.3.+.,.1.t                                       ",
"                                            n x.`.S.t.r.[ [ [ +.6.0.0.0.0.0.4.@.r.y.<.Q t                                       ",
"                                            o a )._.h.g.>.-.-.-.-.-.-.-.-.-.[ W d.j.T 3                                         ",
"                                              > a p t z f.F.S.S.S.S.S.S.S.G.~ 0 t t 9                                           ",
"                                                o + X 6 v m m m m m m m m m x $ + +                                             ",
"                                                        = = = = = = = = = = $                                                   ",
"                                                                                                                                ",
"                                                                                                                                ",
"                                                                                                                                ",
"                                                                                                                                ",
"                                                                                                                                ",
"                                                                                                                                ",
"                                                                                                                                ",
"                                                                                                                                ",
"                                                                                                                                ",
"                                                                                                                                ",
"                                                                                                                                ",
"                                                                                                                                ",
"                                                                                                                                ",
"                                                                                                                                ",
"                                                                                                                                ",
"                                                                                                                                ",
"                                                                                                                                ",
"                                                                                                                                ",
"                                                                                                                                ",
"                                                                                                                                ",
"                                                                                                                                "
};
