/* XPM */
static char *md3[] = {
/* columns rows colors chars-per-pixel */
"64 64 141 2 ",
"   c None",
".  c #151033",
"X  c #181432",
"o  c #1A1B35",
"O  c #1D1E38",
"+  c #1E273A",
"@  c #24213D",
"#  c #24323D",
"$  c #233A3E",
"%  c #212044",
"&  c #232D42",
"*  c #272B4B",
"=  c #2E2F4F",
"-  c #253640",
";  c #233C41",
":  c #283A46",
">  c #2A324A",
",  c #303744",
"<  c #2B2E50",
"1  c #2E3653",
"2  c #343A5D",
"3  c #413D59",
"4  c #264547",
"5  c #274648",
"6  c #2A444D",
"7  c #314451",
"8  c #384E55",
"9  c #2D5553",
"0  c #2F5854",
"q  c #2D5459",
"w  c #305956",
"e  c #335459",
"r  c #315D58",
"t  c #3E5A5B",
"y  c #34645D",
"u  c #36695F",
"i  c #346464",
"p  c #396762",
"a  c #376B61",
"s  c #3B6D62",
"d  c #35696C",
"f  c #3A7265",
"g  c #3D756A",
"h  c #3F7A6C",
"j  c #397471",
"k  c #3B797A",
"l  c #405C5D",
"z  c #4B4A67",
"x  c #42486A",
"c  c #406B62",
"v  c #516E6E",
"b  c #427D6E",
"n  c #4C7E6F",
"m  c #50786F",
"M  c #407E70",
"N  c #517970",
"B  c #60757C",
"V  c #438474",
"C  c #4E8171",
"Z  c #478D79",
"A  c #538B79",
"S  c #4A947C",
"D  c #3B7983",
"F  c #5E6684",
"G  c #5F8F80",
"H  c #4E9A82",
"J  c #459089",
"K  c #4B9C8E",
"L  c #5F9081",
"P  c #519D84",
"I  c #639985",
"U  c #7F8498",
"Y  c #51A38A",
"T  c #54AA8D",
"R  c #58AF8F",
"E  c #58B08F",
"W  c #4EA69C",
"Q  c #53A991",
"!  c #54AF9A",
"~  c #59B593",
"^  c #5CBA96",
"/  c #56B39E",
"(  c #5CBB99",
")  c #6AA18B",
"_  c #6CAA90",
"`  c #76AD92",
"'  c #63BE98",
"]  c #68BB99",
"[  c #78BC9C",
"{  c #4A9EAC",
"}  c #55B4A3",
"|  c #55B7AC",
" . c #5FC19A",
".. c #61C69D",
"X. c #69C099",
"o. c #63C99F",
"O. c #76C19E",
"+. c #59C0AF",
"@. c #5AC1B1",
"#. c #5BC7BD",
"$. c #64CBA1",
"%. c #69CEA3",
"&. c #75C8A2",
"*. c #6DD2A6",
"=. c #72D6A9",
"-. c #7ADCAE",
";. c #5ECBC3",
":. c #5DCDCD",
">. c #5BC8D0",
",. c #5CCCDB",
"<. c #858D9C",
"1. c #888EA4",
"2. c #8D95AC",
"3. c #8ACDA4",
"4. c #88D6AE",
"5. c #80D8AD",
"6. c #82DDB0",
"7. c #8CDBB0",
"8. c #B5DFAC",
"9. c #85E3B4",
"0. c #8AE6B7",
"q. c #89E9B8",
"w. c #91E4B7",
"e. c #90E8B6",
"r. c #95EDBD",
"t. c #98EFBF",
"y. c #97F0BF",
"u. c #99F0BF",
"i. c #B5E0AC",
"p. c #B9F5BB",
"a. c #C2F3B9",
"s. c #C8FDBF",
"d. c #9AF2C1",
"f. c #9DF8C4",
"g. c #A0F7C3",
"h. c #A1FAC6",
"j. c #B7F9C0",
"k. c #BCFEC3",
"l. c #C2FFC7",
"z. c #CBFEC0",
"x. c #D2FFC2",
/* pixels */
"                                                                                                                                ",
"                                                                                                                                ",
"                                                                                                                                ",
"                                                                                                                                ",
"                                                                                                                                ",
"                                                                                                                                ",
"                                                                                                                                ",
"                                                                                                                                ",
"                                                                                                                                ",
"                                                                                                                                ",
"                                                                                                                                ",
"                                                                                                                                ",
"                                                                                                                                ",
"                                                                              ; ;                                               ",
"                                                                            c C g y                                             ",
"                                                                          ; C 0.$.f ;                                           ",
"                                                                          ; g $.Q u ;                                           ",
"                                                                            y f u 0                                             ",
"                                                                              ; 4                                               ",
"                                                                                        0                                       ",
"                                                                                      0 T f ;                                   ",
"                                                        ; ; ; ; ; ; ; ; ; ;             f u                                     ",
"                                                        s b C C C C b f f a r           ;                                       ",
"                                                      s X.e.u.t.t.u.9.%.o.~ V 9                                                 ",
"                                                  ; n 7.p.s.j.d.u.d.y.0.%...~ Z 9                                               ",
"                                                ; A 3.k.z.x.z.j.u.y.d.t.9.*...~ V w                                             ",
"                                                n 3.l.x.x.x.z.j.u.y.u.d.f.-.$.o.~ V r                                           ",
"                                              s 7.k.a.8.i.a.j.u.u.u.d.t.4.] ^ o.o.~ b 4                                         ",
"                                          ; f ' e.h.` , , ` g.u.u.u.d.4.8 + p o.o.~ M 5                                         ",
"                                          $ f *.e.I B U = 7 I t.u.d.[ v <.z & p ^ ~ K J 9                                       ",
"                                          u S %.e.t 3 2.x . l t.d.f.I @ 1.F % + E ~ ! ! 9                                       ",
"                                        5 S $.%.0.N & < 2 > N t.d.f._ & * 2 1 6 E ~ Y H y                                       ",
"                                        5 S $.$.%.5.G o O L w.u.u.d.6.P & X e R T Y Y Y } g ;                                   ",
"                                        5 S $.o.o.=.&.) ) 7.h.t.-.=.=.o.S V H ~ Y Y Y Y @.j ;                                   ",
"                                        5 Z ..o.o...=.q.q.O.O.9.$.$.~ H o.$.~ Y Y Y Y } :.k ;                                   ",
"                                        4 M ~ ..o.o.o.$.o.b g ~ ~ ^ S u ~ ~ Y Y Y Y ! #.,.D $                                   ",
"                                        5 M Y R ..o.o.o.o. .S 0 0 0 h ~ T Y Y Y Y Y / | d                                       ",
"                                        : w b Y Q  .$.$.$.$.^ S V h S ~ Y Y Y Y Y ! ;.>.q #                                     ",
"                                          # w V ! ( ^ ^ ^ ^ ( ^ T Y Y Y Y Y Y ! / ;.:.{ q #                                     ",
"                                            # 9 W ! Q Q Q Q Q Q Q Q Q Q Q Y } #.| >.{ 5                                         ",
"                                              : 9 K @.@.@.@.@.@.@.@.@.@.@.+.:.,.d q q                                           ",
"                                                # i j j j j j j j j j j j j k D 6 #                                             ",
"                                                  - ; ; ; ; ; ; ; ; ; ; ; ; $ $                                                 ",
"                                                                                                                                ",
"                                                                                                                                ",
"                                                                                                                                ",
"                                                                                                                                ",
"                                                                                                                                ",
"                                                                                                                                ",
"                                                                                                                                ",
"                                                                                                                                ",
"                                                                                                                                ",
"                                                                                                                                ",
"                                                                                                                                ",
"                                                                                                                                ",
"                                                                                                                                ",
"                                                                                                                                ",
"                                                                                                                                ",
"                                                                                                                                ",
"                                                                                                                                ",
"                                                                                                                                ",
"                                                                                                                                ",
"                                                                                                                                ",
"                                                                                                                                "
};
