/* XPM */
static char *md4[] = {
/* columns rows colors chars-per-pixel */
"64 64 137 2 ",
"   c None",
".  c #171331",
"X  c #1D1C39",
"o  c #1D253B",
"O  c #1F2A3C",
"+  c #1D373D",
"@  c #23203C",
"#  c #24323C",
"$  c #223A3E",
"%  c #1F1F41",
"&  c #212044",
"*  c #222D45",
"=  c #282B4C",
"-  c #332E4C",
";  c #243643",
":  c #2A3246",
">  c #243B41",
",  c #293B48",
"<  c #2C2F50",
"1  c #2E3653",
"2  c #2C3F50",
"3  c #33385C",
"4  c #3C3F5F",
"5  c #254346",
"6  c #274648",
"7  c #29434C",
"8  c #2A4A4E",
"9  c #2C4F52",
"0  c #314950",
"q  c #2D5453",
"w  c #2E5857",
"e  c #2F5458",
"r  c #2E585E",
"t  c #355C57",
"y  c #325458",
"u  c #325C5A",
"i  c #35645E",
"p  c #36695F",
"a  c #315A65",
"s  c #336563",
"d  c #396762",
"f  c #376A61",
"g  c #396C64",
"h  c #3A7165",
"j  c #3C746D",
"k  c #3E7B6C",
"l  c #376C76",
"z  c #397571",
"x  c #3D7D77",
"c  c #40476A",
"v  c #4C4A68",
"b  c #526F6F",
"n  c #467569",
"m  c #407C6E",
"M  c #596373",
"N  c #4C7F70",
"B  c #448572",
"V  c #498276",
"C  c #458A7B",
"Z  c #518C7A",
"A  c #4A947D",
"S  c #5A917C",
"D  c #3C7C83",
"F  c #5F6684",
"G  c #666D89",
"H  c #448E87",
"J  c #448F88",
"K  c #4B9681",
"L  c #4E9C84",
"P  c #418990",
"I  c #619784",
"U  c #50A086",
"Y  c #51A38A",
"T  c #54AA8D",
"R  c #58AF8F",
"E  c #52A790",
"W  c #53AA92",
"Q  c #53AC9A",
"!  c #59B493",
"~  c #5CBA96",
"^  c #55B29C",
"/  c #5EBE99",
"(  c #62A58A",
")  c #6CAD91",
"_  c #71AD92",
"`  c #61B493",
"'  c #6DB092",
"]  c #61BB96",
"[  c #74BA99",
"{  c #78BB9C",
"}  c #54B3A4",
"|  c #53B3A8",
" . c #56B9AC",
".. c #59BEAE",
"X. c #50AEBC",
"o. c #57BCB0",
"O. c #61C59D",
"+. c #6CC19C",
"@. c #62C99F",
"#. c #5AC1B2",
"$. c #5BC7B9",
"%. c #64CCA1",
"&. c #6BCDA3",
"*. c #66D0A3",
"=. c #68D1A4",
"-. c #75DAAC",
";. c #55BCCD",
":. c #58C0C0",
">. c #5CCAC0",
",. c #5ED0D2",
"<. c #62D8DE",
"1. c #62DAE7",
"2. c #878E9D",
"3. c #888EA4",
"4. c #A3ACBC",
"5. c #82D2AA",
"6. c #89E6B7",
"7. c #8CEAB9",
"8. c #92EBBB",
"9. c #97F0BF",
"0. c #9BF1BF",
"q. c #A2EBB8",
"w. c #A5F3BF",
"e. c #ACF5BF",
"r. c #9AF3C1",
"t. c #ABF6C0",
"y. c #A5FAC4",
"u. c #AEFBC4",
"i. c #B1FDC4",
"p. c #BDFAC0",
"a. c #C0FBC0",
"s. c #C8FDC0",
"d. c #C8FEC0",
"f. c #CCFFC0",
"g. c #CDFFC0",
"h. c #CFFFC0",
"j. c #D0FFC0",
/* pixels */
"                                                                                                                                ",
"                                                                                                                                ",
"                                                                                                                                ",
"                                                                                                                                ",
"                                                                                                                                ",
"                                                                                                                                ",
"                                                                                                                                ",
"                                                                                                                                ",
"                                                                                                                                ",
"                                                                                                                                ",
"                                                                                                                                ",
"                                                                                                                                ",
"                                                                                  6 6                                           ",
"                                                                                6 B B 6                                         ",
"                                                                                6 B B 6                                         ",
"                                                                                  6 6                                           ",
"                                                                                                                                ",
"                                                                                                                                ",
"                                                                                                                                ",
"                                                                                          6 6                                   ",
"                                                                                                                                ",
"                                                                                                                                ",
"                                                                                                                                ",
"                                                                                                                                ",
"                                                        6 6 6 6 6 6 6 6 6                                                       ",
"                                                    + q ( ' ) ) ) ) ( A A p $ 5                                                 ",
"                                                  n N S q.i.i.u.r.r.8.-.=.A f i                                                 ",
"                                              q t [ r.w.s.j.f.a.0.8.r.8.&.@./ L u q q                                           ",
"                                          > h ] 5.8.t.s.f.j.p.0.9.9.r.8.&.@.@./ L Q J 6                                         ",
"                                        6 k ` 6.r.r.y.i.t.e.w.9.9.r.7.-.=.%.%.O.T Q Q H q                                       ",
"                                        5 A -.6.r.{ I ) 8.r.9.r.r.8.+.B B ! *.O.T U ^  .q                                       ",
"                                        q L %.&.5.b @ : { 8.8.8.8.&.V : X m / / T Y ^ } s                                       ",
"                                      q T O.%.! 0 2.3.= : _ 6.&.&.i M 4.4 o u Y Y Y Y W } j >                                   ",
"                                      q Y O.*.R o v F 3 . Z -.@.O.9 - G c X 7 Y Y Y Y E #.z >                                   ",
"                                      q K ! O.~ d * & 1 y U %.%.@.m ; % < 2 g Y Y Y Y E #.z >                                   ",
"                                      q K Y W O.O.d o 7 ! %.O.O.O.! j O O j Y Y Y Y Y E #.z >                                   ",
"                                      q K Y Y R O.~ R ! O.%./ T T Y L A A L Y Y Y Y Y E #.z >                                   ",
"                                    ; q Q Q U Y W ! ~ R k K ! Y Y k k Y Y Y Y Y Y U E ..<.D $                                   ",
"                                    # 9 H Q Q Y Y Y Y K f h m m m f k Y Y Y E ^ Q ^ #.,.X.l #                                   ",
"                                        6 H } E E E E E E j q q w C W E E Y ^ $.>.o.:.;.r #                                     ",
"                                          8 x #.#.#.#.#.#. .| | | ..#.#.#.#.#.>.1.P q r ,                                       ",
"                                            e z z z z z z z z z z z z z z z z z D a # #                                         ",
"                                              > > > > > > > > > > > > > > > > > $                                               ",
"                                                                                                                                ",
"                                                                                                                                ",
"                                                                                                                                ",
"                                                                                                                                ",
"                                                                                                                                ",
"                                                                                                                                ",
"                                                                                                                                ",
"                                                                                                                                ",
"                                                                                                                                ",
"                                                                                                                                ",
"                                                                                                                                ",
"                                                                                                                                ",
"                                                                                                                                ",
"                                                                                                                                ",
"                                                                                                                                ",
"                                                                                                                                ",
"                                                                                                                                ",
"                                                                                                                                ",
"                                                                                                                                ",
"                                                                                                                                ",
"                                                                                                                                "
};
