/* XPM */
static char *md5[] = {
/* columns rows colors chars-per-pixel */
"64 64 149 2 ",
"   c None",
".  c #191637",
"X  c #1A1A36",
"o  c #1C1E38",
"O  c #1D373D",
"+  c #212F3F",
"@  c #24333D",
"#  c #223A3F",
"$  c #1E3B40",
"%  c #232240",
"&  c #222942",
"*  c #223040",
"=  c #243B41",
"-  c #283F46",
";  c #28324A",
":  c #283E4C",
">  c #2B2E50",
",  c #313050",
"<  c #353C5F",
"1  c #403D59",
"2  c #264246",
"3  c #274648",
"4  c #28424A",
"5  c #2B4A4E",
"6  c #2B504F",
"7  c #2B4D50",
"8  c #2D5252",
"9  c #2E5358",
"0  c #2E595A",
"q  c #315657",
"w  c #345C5B",
"e  c #3E5F5D",
"r  c #32535A",
"t  c #33635D",
"y  c #36695F",
"u  c #3C4367",
"i  c #2F5B60",
"p  c #376C65",
"a  c #386B61",
"s  c #326462",
"d  c #3C746A",
"f  c #3E7A6D",
"g  c #3C7466",
"h  c #376D77",
"j  c #397571",
"k  c #3C7B76",
"l  c #3E7F7A",
"z  c #445B5A",
"x  c #414667",
"c  c #42486A",
"v  c #53546B",
"b  c #427065",
"n  c #457468",
"m  c #417C6D",
"M  c #4D7F6F",
"N  c #597B6A",
"B  c #427E71",
"V  c #4C7F70",
"C  c #667F71",
"Z  c #62767C",
"A  c #448576",
"S  c #458C7F",
"D  c #498C79",
"F  c #5D8773",
"G  c #5C8E7F",
"H  c #4A947C",
"J  c #5A917C",
"K  c #3C7C81",
"L  c #448E87",
"P  c #4B9781",
"I  c #4D9A83",
"U  c #4D9D88",
"Y  c #559D83",
"T  c #658782",
"R  c #659E88",
"E  c #629985",
"W  c #4EA08E",
"Q  c #51A287",
"!  c #51A38A",
"~  c #54AA8C",
"^  c #58B08F",
"/  c #52A790",
"(  c #53A991",
")  c #54AE99",
"_  c #59B391",
"`  c #5DBB97",
"'  c #57B39B",
"]  c #5EBE99",
"[  c #62A58A",
"{  c #6CAD91",
"}  c #6DB092",
"|  c #72B494",
" . c #73BB9A",
".. c #499DAA",
"X. c #4CA3A9",
"o. c #55B3A3",
"O. c #57B9A5",
"+. c #57BCAE",
"@. c #58BBA9",
"#. c #54B5A9",
"$. c #4EABBB",
"%. c #50ADB9",
"&. c #55B8B0",
"*. c #58BFB3",
"=. c #5FC09B",
"-. c #60C29A",
";. c #63C99F",
":. c #7BC09F",
">. c #5AC1B2",
",. c #5DCCBF",
"<. c #65CCA1",
"1. c #6ACEA3",
"2. c #67D2A4",
"3. c #6DD2A6",
"4. c #71D6A9",
"5. c #76DBAD",
"6. c #7DE0B1",
"7. c #5DCBC0",
"8. c #5BCAD9",
"9. c #60D4D2",
"0. c #62D9D9",
"q. c #5ED2E7",
"w. c #62DAE1",
"e. c #67E7F7",
"r. c #828699",
"t. c #8BB792",
"y. c #8D95AC",
"u. c #84D7AD",
"i. c #82DAAF",
"p. c #8AD8AF",
"a. c #85E3B4",
"s. c #89E6B7",
"d. c #91E7B9",
"f. c #91ECBB",
"g. c #97F0BF",
"h. c #98F0BF",
"j. c #A5EAB7",
"k. c #A2EBB8",
"l. c #A6F4BF",
"z. c #B1F7BF",
"x. c #A7B0C1",
"c. c #9BF4C2",
"v. c #9DF9C5",
"b. c #A9F5C0",
"n. c #A6F9C3",
"m. c #B5FCC3",
"M. c #BAFFC4",
"N. c #C7FDC0",
"B. c #CBFEC0",
/* pixels */
"                                                                                                                                ",
"                                                                                                                                ",
"                                                                                                                                ",
"                                                                                                                                ",
"                                                                                                                                ",
"                                                                                                                                ",
"                                                                                                                                ",
"                                                                                                                                ",
"                                                                                                                                ",
"                                                                                                                                ",
"                                                                                                                                ",
"                                                                                                                                ",
"                                                                                      3                                         ",
"                                                                                                                                ",
"                                                                                                                                ",
"                                                                                                                                ",
"                                                                                                                                ",
"                                                                                                                                ",
"                                                                                                                                ",
"                                                                                                                                ",
"                                                                                                                                ",
"                                                                                                                                ",
"                                                                                                                                ",
"                                                                                                                                ",
"                                                                                                                                ",
"                                                                                                                                ",
"                                                                                                                                ",
"                                                                                                                                ",
"                                                        3 3 3 3 3 3 3 3 3                                                       ",
"                                            $ =     O 8 [ } { { { } [ H H y # 2                                                 ",
"                                          N F M   n V J k.m.n.c.c.v.f.5.<.H a t                                                 ",
"                                        3 t.M.u.b | c.l.N.B.m.h.h.h.c.f.1.;.` I w 6 6                                           ",
"                                        3 | f.3.u.d.b.N.B.m.h.h.h.h.h.f.1.;.;.` I P f 3                                         ",
"                                        2 Y 6.s.v.E z C j.n.g.c.c.v.:.e q Q 2.;.=.( W L 8                                       ",
"                                        g ~ 4.i.{ Z 1 & T p.f.a.a. .T v % w ! ;.` ~ ) o.k 0                                     ",
"                                    - t _ <.<.^ * r.y.> X R a.<.;.8 v x.x . q ` ~ ! ! ( >.l 7                                   ",
"                                  = t P ~ ` <._ + , c < o D 3.;.;.q % x u % 7 ~ ! ! ! ( >.*.L 3                                 ",
"                                - a D ! ! ~ ` -.H : . ; B _ <.<.;.~ w X % r A ! ! Q ( @.>.0.X.3                                 ",
"                                3 S ' ! ! ! ~ ` ` d 4 8 H _ ` ` ` ~ m 5 5 A ~ ! ) ) O.,.9.e.$.3                                 ",
"                                2 L o.( ( ( ( ( ( ( ( U t B P P P p d / ( ( / ) >.7.>.&.8.q...2                                 ",
"                                  5 k >.>.>.>.>.>.>.>.>.#.j 5 8 8 L +.>.>.>.>.>.>.w.%.0 0 i 9                                   ",
"                                    9 j j j j j j j j j j 9 2 2 2 s j j j j j j j K h @ @ @ @                                   ",
"                                      = = = = = = = = = = - 2 2 2 = = = = = = = = # @                                           ",
"                                                                                                                                ",
"                                                                                                                                ",
"                                                                                                                                ",
"                                                                                                                                ",
"                                                                                                                                ",
"                                                                                                                                ",
"                                                                                                                                ",
"                                                                                                                                ",
"                                                                                                                                ",
"                                                                                                                                ",
"                                                                                                                                ",
"                                                                                                                                ",
"                                                                                                                                ",
"                                                                                                                                ",
"                                                                                                                                ",
"                                                                                                                                ",
"                                                                                                                                ",
"                                                                                                                                ",
"                                                                                                                                ",
"                                                                                                                                ",
"                                                                                                                                "
};
