/* XPM */
static char *ml6[] = {
/* columns rows colors chars-per-pixel */
"64 64 142 2 ",
"   c None",
".  c #1D1E38",
"X  c #182334",
"o  c #1B2637",
"O  c #1C263A",
"+  c #1C213C",
"@  c #1C313B",
"#  c #1F343D",
"$  c #24393E",
"%  c #272744",
"&  c #2E3047",
"*  c #223941",
"=  c #243A40",
"-  c #243A41",
";  c #243B41",
":  c #233E41",
">  c #233E42",
",  c #243C42",
"<  c #243C43",
"1  c #253D43",
"2  c #253E44",
"3  c #3C3F5F",
"4  c #244245",
"5  c #274247",
"6  c #264547",
"7  c #264647",
"8  c #274647",
"9  c #274548",
"0  c #264648",
"q  c #274648",
"w  c #2A4A4E",
"e  c #2A4C4D",
"r  c #2B504F",
"t  c #2C5150",
"y  c #2C5250",
"u  c #2D5451",
"i  c #2E5653",
"p  c #2E5753",
"a  c #2E5356",
"s  c #2D5554",
"d  c #2D5555",
"f  c #2F5755",
"g  c #2F5E5F",
"h  c #335A56",
"j  c #335B56",
"k  c #355B56",
"l  c #355C57",
"z  c #365C57",
"x  c #30585B",
"c  c #365D58",
"v  c #33625F",
"b  c #35665E",
"n  c #35665F",
"m  c #35675F",
"M  c #325C66",
"N  c #376362",
"B  c #356661",
"V  c #386561",
"C  c #366861",
"Z  c #376A61",
"A  c #3A7164",
"S  c #38706A",
"D  c #38706D",
"F  c #3A746E",
"G  c #3E796C",
"H  c #397571",
"J  c #3A7470",
"K  c #3A7674",
"L  c #3D7D76",
"P  c #575A70",
"I  c #5A6477",
"U  c #40806E",
"Y  c #478F79",
"T  c #678672",
"R  c #3C7D85",
"E  c #468185",
"W  c #438C86",
"Q  c #4B9580",
"!  c #4B9681",
"~  c #4E9C85",
"^  c #449089",
"/  c #51A287",
"(  c #51A38A",
")  c #53A78B",
"_  c #53A78C",
"`  c #52A68E",
"'  c #5BA488",
"]  c #54A98A",
"[  c #53A88C",
"{  c #53A88D",
"}  c #55AA8C",
"|  c #52A890",
" . c #54AA91",
".. c #54AC95",
"X. c #51AA9A",
"o. c #54AE98",
"O. c #52AC9D",
"+. c #53AF9F",
"@. c #59B492",
"#. c #5AB693",
"$. c #5BB793",
"%. c #5DBD99",
"&. c #5EBE99",
"*. c #5EBF9A",
"=. c #5AB99D",
"-. c #68A68B",
";. c #6DAE91",
":. c #6EB092",
">. c #75B999",
",. c #54B3A2",
"<. c #56B5A3",
"1. c #53B2A4",
"2. c #5FC09A",
"3. c #60C39C",
"4. c #61C49C",
"5. c #61C49D",
"6. c #61C59D",
"7. c #61C89E",
"8. c #63C99F",
"9. c #59C1B1",
"0. c #5BC5BA",
"q. c #63CAA0",
"w. c #64CBA0",
"e. c #64CCA1",
"r. c #65CDA1",
"t. c #7DC7A2",
"y. c #77CCA4",
"u. c #6ED2A6",
"i. c #71D5A9",
"p. c #7BD3A9",
"a. c #74DBAD",
"s. c #62DAE6",
"d. c #809184",
"f. c #A4ACBC",
"g. c #8BC099",
"h. c #8FC59D",
"j. c #8CDDB2",
"k. c #85E3B4",
"l. c #88E8B7",
"z. c #89E8B8",
"x. c #89E9B8",
"c. c #96ECBC",
/* pixels */
"                                                                                                                                ",
"                                                                                                                                ",
"                                                                                                                                ",
"                                                                                                                                ",
"                                                                                                                                ",
"                                                                                                                                ",
"                                                                                                                                ",
"                                                                                                                                ",
"                                                                                                                                ",
"                                                                                                                                ",
"                                                                                                                                ",
"                                                                                                                                ",
"                                                                                                                                ",
"                                                                                                                                ",
"                                                                                                                                ",
"                                                                                                                                ",
"                                                                                                                                ",
"                                                                                                                                ",
"                                                                                                                                ",
"                                                                                                                                ",
"                                                                                                                                ",
"                                                                                                                                ",
"                                                                                                                                ",
"                                                                                                                                ",
"                                                                                                                                ",
"                                                                                                                                ",
"                                                                                                                                ",
"                                                                          k h p                                                 ",
"                                                                        q -.p.] p                                               ",
"                                                                        q ' a.) p                                               ",
"                                                                        q U Y G r                                               ",
"                                                                          q 6 6                                                 ",
"                                                                                                                                ",
"                                                                                                                                ",
"                                                                                                                                ",
"                                                                z c h p p p y y y f f                                           ",
"                                              6 6 6 q q q q 5 z t.j.y.@.@./ Q Q Q +.^ q                                         ",
"                                        : 6 * o X T g.:.:.:.;.>.c.l.i.r.r.3.&.&.&.=.X.W w                                       ",
"                                        A e O % P d.h.z.z.z.z.z.k.u.7.q.w.w.r.7.&.} ..,.L a                                     ",
"                                      B @.V + 3 f.I v 4.4.4.4.4.4.4.4.4.4.4.4.2.{ _ | o.0.K ;                                   ",
"                                  : D 1. .~ N . & E +._ _ _ _ _ _ { { { { { { _ ( <.9.0.s.R $                                   ",
"                                    x J Z Z f # @ g F n n n n n n n n n n n n n n S J K R M                                     ",
"                                      ; < < 2 5 5 < ; < < < < < < < < < < < < < < ; ; ; $                                       ",
"                                                                                                                                ",
"                                                                                                                                ",
"                                                                                                                                ",
"                                                                                                                                ",
"                                                                                                                                ",
"                                                                                                                                ",
"                                                                                                                                ",
"                                                                                                                                ",
"                                                                                                                                ",
"                                                                                                                                ",
"                                                                                                                                ",
"                                                                                                                                ",
"                                                                                                                                ",
"                                                                                                                                ",
"                                                                                                                                ",
"                                                                                                                                ",
"                                                                                                                                ",
"                                                                                                                                ",
"                                                                                                                                ",
"                                                                                                                                ",
"                                                                                                                                "
};
