/* XPM */
static char *mr1[] = {
/* columns rows colors chars-per-pixel */
"64 64 247 2 ",
"   c None",
".  c #171535",
"X  c #1F1F3F",
"o  c #21213F",
"O  c #23213F",
"+  c #24343F",
"@  c #21383A",
"#  c #24383D",
"$  c #24393E",
"%  c #243A3F",
"&  c #253741",
"*  c #243941",
"=  c #243A40",
"-  c #243A41",
";  c #253842",
":  c #243B42",
">  c #233E41",
",  c #243C43",
"<  c #273F46",
"1  c #234044",
"2  c #274146",
"3  c #254346",
"4  c #264547",
"5  c #264548",
"6  c #264648",
"7  c #274648",
"8  c #274748",
"9  c #29434C",
"0  c #29434D",
"q  c #2B464D",
"w  c #28494A",
"e  c #294B4B",
"r  c #284E4C",
"t  c #2B5152",
"y  c #2C5150",
"u  c #2C5250",
"i  c #2C5351",
"p  c #2F5351",
"a  c #2D5451",
"s  c #2E5653",
"d  c #2E5753",
"f  c #2C5454",
"g  c #2D5555",
"h  c #335A56",
"j  c #335B56",
"k  c #355B56",
"l  c #315B58",
"z  c #365D58",
"x  c #33615B",
"c  c #35675E",
"v  c #35675F",
"b  c #39615B",
"n  c #3C4367",
"m  c #336563",
"M  c #366860",
"N  c #376B61",
"B  c #376C66",
"V  c #386A62",
"C  c #386C61",
"Z  c #3E6E63",
"A  c #397064",
"S  c #3B7267",
"D  c #3A7269",
"F  c #38706D",
"G  c #38716E",
"H  c #3E7C6B",
"J  c #366C73",
"K  c #397470",
"L  c #397471",
"P  c #38727B",
"I  c #3B797B",
"U  c #43615F",
"Y  c #414667",
"T  c #52536A",
"R  c #426260",
"E  c #466663",
"W  c #476764",
"Q  c #486965",
"!  c #486A66",
"~  c #4B6B6A",
"^  c #4D6F6E",
"/  c #576A63",
"(  c #407F70",
")  c #62746C",
"_  c #428272",
"`  c #438574",
"'  c #448775",
"]  c #4E8071",
"[  c #468D77",
"{  c #478C7A",
"}  c #538D79",
"|  c #4A937B",
" . c #4A947B",
".. c #4B967D",
"X. c #4A977D",
"o. c #5B927C",
"O. c #3B7882",
"+. c #3B7983",
"@. c #448E87",
"#. c #448E88",
"$. c #499482",
"%. c #4D9B80",
"&. c #4C9B87",
"*. c #4F9E86",
"=. c #47958D",
"-. c #47968E",
";. c #418794",
":. c #489994",
">. c #499B9D",
",. c #648781",
"<. c #50A087",
"1. c #56A286",
"2. c #50A188",
"3. c #51A288",
"4. c #50A289",
"5. c #51A289",
"6. c #51A38A",
"7. c #51A38B",
"8. c #51A48B",
"9. c #52A58B",
"0. c #52A58C",
"q. c #52A58D",
"w. c #53A78C",
"e. c #52A68D",
"r. c #52A68E",
"t. c #52A78E",
"y. c #52A78F",
"u. c #54A98A",
"i. c #53A88D",
"p. c #57AF8F",
"a. c #52A790",
"s. c #53A890",
"d. c #53A891",
"f. c #56AD90",
"g. c #53AA94",
"h. c #51A999",
"j. c #54AE98",
"k. c #57B090",
"l. c #58B191",
"z. c #58B192",
"x. c #59B493",
"c. c #5AB692",
"v. c #59B494",
"b. c #5BB893",
"n. c #5BB895",
"m. c #5AB896",
"M. c #5BB896",
"N. c #5CBA95",
"B. c #55B09A",
"V. c #56B39E",
"C. c #59B79C",
"Z. c #5DBD98",
"A. c #5EBF9A",
"S. c #64A48A",
"D. c #69A98D",
"F. c #7AA285",
"G. c #64B997",
"H. c #63BF99",
"J. c #72BB9A",
"K. c #72BB9B",
"L. c #4CA4AC",
"P. c #52B0A2",
"I. c #54B1A0",
"U. c #56B4A1",
"Y. c #56B5A2",
"T. c #53B2A5",
"R. c #55B8AC",
"E. c #59BDAA",
"W. c #59BDAB",
"Q. c #58BDAC",
"!. c #59BDAD",
"~. c #4CA5B1",
"^. c #5EC09A",
"/. c #5EC19A",
"(. c #61C59D",
"). c #61C69D",
"_. c #62C79E",
"`. c #62C89E",
"'. c #63C89E",
"]. c #62C99F",
"[. c #63C99F",
"{. c #63CA9F",
"}. c #64C99F",
"|. c #7AC09F",
" X c #5AC0AD",
".X c #59C0AF",
"XX c #59C0B1",
"oX c #59C1B1",
"OX c #5AC1B1",
"+X c #5AC2B3",
"@X c #5BC3B4",
"#X c #5DCABB",
"$X c #62C9A0",
"%X c #63CAA0",
"&X c #64CAA0",
"*X c #66CBA1",
"=X c #65CDA1",
"-X c #67CEA3",
";X c #69CEA3",
":X c #6ACEA3",
">X c #6ACFA4",
",X c #6BCFA4",
"<X c #7CC1A0",
"1X c #7FC5A3",
"2X c #72CFA5",
"3X c #78CCA4",
"4X c #6BD3A6",
"5X c #71D7AA",
"6X c #74D5A9",
"7X c #74D6A9",
"8X c #7BD3A9",
"9X c #76DEAE",
"0X c #7ADFB0",
"qX c #7DE2B2",
"wX c #56BCC7",
"eX c #5DCBC6",
"rX c #5ECFCC",
"tX c #5FD0CC",
"yX c #5CCCDC",
"uX c #63DCDD",
"iX c #62DAE0",
"pX c #88BE98",
"aX c #80C7A4",
"sX c #87D6AD",
"dX c #88D8AE",
"fX c #8AD9AF",
"gX c #89DAB0",
"hX c #A4D5A8",
"jX c #82E3B4",
"kX c #87E4B5",
"lX c #8BE6B7",
"zX c #8FE5B7",
"xX c #8FE7B8",
"cX c #90E9BA",
"vX c #90EABA",
"bX c #91EABA",
"nX c #92ECBB",
"mX c #97EFBE",
"MX c #97F0BF",
"NX c #9EF1BF",
"BX c #A3EAB8",
"VX c #C0FABF",
"CX c #A7B0C1",
"ZX c #99F1C0",
"AX c #9AF2C0",
"SX c #9AF9C5",
"DX c #A0FCC7",
/* pixels */
"                                                                                                                                ",
"                                                                                                                                ",
"                                                                                                                                ",
"                                                                                                                                ",
"                                                                                                                                ",
"                                                                                                                                ",
"                                                                                                                                ",
"                                                                                                                                ",
"                                                                                                                                ",
"                                                                                                                                ",
"                                                                                                                                ",
"                                                                                                                                ",
"                                                                                                                                ",
"                                                                                                                                ",
"                                                                                                                                ",
"                                                                                                                                ",
"                                                                                                                                ",
"                                                                                                                                ",
"                                                                                                                                ",
"                                                                s h k                                                           ",
"                                                              s u.8XD.8 4 8 8 8                                                 ",
"                                                              s N.9XG._ | X.X.[ r                                               ",
"                                                            u S p._./.c.[.5X0X2X} b                                             ",
"                                                          t D 6.i.Z.[.}.:XkXAXAXNXo.u                                           ",
"                                                        8 #.I.i.Z.[.[.:XlXmXMXNXVXBXS.8                                         ",
"                                                      f @.h.C.Z.[.[.[.:XnXDX|.U / hXpX1                                         ",
"                                                      f R.V.p.%X[.[.[.,XcX|.,.T o ) F.]                                         ",
"                                                      m T.B.k.[.[.[.[.,XcXR T CXY . ! sXz                                       ",
"                                                  > G T.g.6.l.[.[.[.[.,XcXE o Y n X ! dXz                                       ",
"                                                  @ G @Xs.<.l.[.[.[.[.&X7XJ.~ . X ^ aXdXz                                       ",
"                                                  P >.+Xs.6.l.[.[.[.[.[.[.qXJ.W ! 1XSX3Xh                                       ",
"                                                8 ~.iX!.y.6.l.[.[.[.[.[.[.[.7XxXgXzXjXb.s                                       ",
"                                                8 :.@Xa.6.6.l.[.[.[.[.[.[.[.-XH.Z 1.4Xx.s                                       ",
"                                                8 =.E.6.6.6.y.x._.&X[.[.[.[.%X/.%.H S C e                                       ",
"                                                8 =.E.6.6.6.6.9.n._.&X[.[.[.[.%X-X .N x e                                       ",
"                                                8 =.!.a.6.6.6.6.6.n._.[.[.[.[.[.[._.x.{ u                                       ",
"                                                8 =.#X!.y.6.6.6.6.9.x.[.[.[.[.[.[.n.' u                                         ",
"                                                8 L.uX+Xy.6.6.6.6.6.y.k.l.l.l.l.k.f.( 2                                         ",
"                                                < ;.wXtXU.y.6.6.6.6.6.6.6.6.6.y.B.$.V 2                                         ",
"                                                  # O.yXeXU.y.s.s.y.6.6.6.9.*.&.P.G -                                           ",
"                                                    0 J yXrX.X+X+Xj.6.6.6.y.` u f q                                             ",
"                                                      0 O.I L L L B v v v N l & +                                               ",
"                                                        # # - - - - , , , , -                                                   ",
"                                                                                                                                ",
"                                                                                                                                ",
"                                                                                                                                ",
"                                                                                                                                ",
"                                                                                                                                ",
"                                                                                                                                ",
"                                                                                                                                ",
"                                                                                                                                ",
"                                                                                                                                ",
"                                                                                                                                ",
"                                                                                                                                ",
"                                                                                                                                ",
"                                                                                                                                ",
"                                                                                                                                ",
"                                                                                                                                ",
"                                                                                                                                ",
"                                                                                                                                ",
"                                                                                                                                ",
"                                                                                                                                ",
"                                                                                                                                ",
"                                                                                                                                "
};
