/* XPM */
static char *mr3[] = {
/* columns rows colors chars-per-pixel */
"64 64 120 2 ",
"   c None",
".  c #1D1936",
"X  c #1D2639",
"o  c #23343D",
"O  c #233A3D",
"+  c #212543",
"@  c #26254A",
"#  c #233C42",
"$  c #2F3D54",
"%  c #254245",
"&  c #284147",
"*  c #274648",
"=  c #2C464B",
"-  c #294C4D",
";  c #2B4F51",
":  c #304850",
">  c #3D4957",
",  c #2D5453",
"<  c #2F5A5A",
"1  c #345A56",
"2  c #315D58",
"3  c #35655D",
"4  c #3B685F",
"5  c #325D67",
"6  c #316160",
"7  c #376A62",
"8  c #396A63",
"9  c #356B6B",
"0  c #3B7466",
"q  c #3B756C",
"w  c #3E7A6B",
"e  c #397572",
"r  c #3E7D76",
"t  c #38727B",
"y  c #3D7D78",
"u  c #425E60",
"i  c #505779",
"p  c #446162",
"a  c #437065",
"s  c #42796A",
"d  c #4A7C6D",
"f  c #448776",
"g  c #43877B",
"h  c #4A937B",
"j  c #3C7C84",
"k  c #606480",
"l  c #448E87",
"z  c #489080",
"x  c #4D9A84",
"c  c #519B81",
"v  c #418896",
"b  c #489994",
"n  c #489A9C",
"m  c #639985",
"M  c #4EA18E",
"N  c #50A187",
"B  c #51A38A",
"V  c #54A98D",
"C  c #58AF8E",
"Z  c #52A790",
"A  c #53A991",
"S  c #53AD9A",
"D  c #57B191",
"F  c #58B292",
"G  c #5CBA96",
"H  c #56B29D",
"J  c #5DBD99",
"K  c #67A68B",
"L  c #6AAA8F",
"P  c #7BBE9F",
"I  c #4CA4AB",
"U  c #52AFA2",
"Y  c #56B4A3",
"T  c #55B7AB",
"R  c #58BDAC",
"E  c #4CA5B1",
"W  c #54B8BD",
"Q  c #5FC09A",
"!  c #61C79E",
"~  c #63C99F",
"^  c #7AC19F",
"/  c #5AC1B2",
"(  c #5BC7BC",
")  c #64CBA0",
"_  c #6ACEA3",
"`  c #7DC1A0",
"'  c #6FD2A6",
"]  c #70D3A7",
"[  c #74D5A9",
"{  c #78D8AB",
"}  c #7DDEB0",
"|  c #5CC9C0",
" . c #5ECFCC",
".. c #5CCCDB",
"X. c #61D6D5",
"o. c #62DADF",
"O. c #62DAE7",
"+. c #8AA385",
"@. c #8BB08F",
"#. c #A3ACBA",
"$. c #97CDA4",
"%. c #81D0A9",
"&. c #80DFB1",
"*. c #8BDCB1",
"=. c #86E5B5",
"-. c #8CE3B6",
";. c #94EDBC",
":. c #99EBBB",
">. c #99F1BF",
",. c #A4E7B4",
"<. c #9BF2C1",
"1. c #9AF2C0",
"2. c #99F1C0",
"3. c #9EF3C0",
"4. c #9AF4C2",
"5. c #9DF6C3",
"6. c #9CF7C3",
"7. c #9DF8C4",
"8. c #BEFFC7",
"9. c #C8FFCA",
/* pixels */
"                                                                                                                                ",
"                                                                                                                                ",
"                                                                                                                                ",
"                                                                                                                                ",
"                                                                                                                                ",
"                                                                                                                                ",
"                                                                                                                                ",
"                                                                                                                                ",
"                                                                                                                                ",
"                                                                                                                                ",
"                                                                                                                                ",
"                                                                                                                                ",
"                                                                                                                                ",
"                                                                # #                                                             ",
"                                                                0 d d                                                           ",
"                                                              , D =.L *                                                         ",
"                                                              , x ) c *                                                         ",
"                                                                3 8 7                                                           ",
"                                                                % #                                                             ",
"                                                        ,                                                                       ",
"                                                      , V 0 #                                                                   ",
"                                                        0 3                 # # # # # #                                         ",
"                                                        #                 2 7 0 0 0 s d                                         ",
"                                                                      , , f G ~ ~ ) } *.a 1 1                                   ",
"                                                                * * q U x D ~ ~ ) &.;.;.*.*.K *                                 ",
"                                                              , l g z H J ! ~ ) &.;.2.3.8.9.,.K 1                               ",
"                                                            < y Y H V D ! ~ ! _ ;.2.4.:.@.+.$.-.1                               ",
"                                                          ; y R Z B D ~ ~ ~ ) ] ;.2.;.P > . p ^ 4                               ",
"                                                        * l Y Z B B D ~ ~ ~ [ ;.;.6.L > #.k + = B 0 #                           ",
"                                                      , l S S B B D Q ~ ~ ~ { 2.>.7.m . k i @ X D w #                           ",
"                                                      , T H N B B J ) ~ ~ ~ ' =.;.5.` u + @ $ 8 G 0 #                           ",
"                                                      9 T H B B B G ) ~ ~ ~ ~ _ -.;.;.%.: X 8 ~ ~ 0 #                           ",
"                                                  O j ..( H B B B J ) ) ~ ~ ~ ) _ _ _ _ F C G ) ~ 0 #                           ",
"                                                  o e  .Y B B B B V G ) ~ ~ ~ ~ ~ ~ ~ ~ ) h h ) ) 0 #                           ",
"                                                  t n / B B B B B B V J ~ ~ ~ ~ ~ ~ ~ ~ ~ h w h h 3 *                           ",
"                                                * E o.R B B B B B B B B Q ~ ~ ~ ~ ~ ~ ~ ~ ) x , , - %                           ",
"                                                * b / Z B B B B B B B B V J ) ~ ~ ~ ~ ~ ~ ) F x U 9 #                           ",
"                                                * I X.Y B B B B B B B B B V D D D D D D D D A B r 6                             ",
"                                                # v W / H B B B B B B B B B B B B B B B B S M w *                               ",
"                                                  # e | ( H Z Z Z Z Z Z Z B B B B B B B x S l *                                 ",
"                                                  O j O.| / / / / / / / / S B B B B B x 2 , ;                                   ",
"                                                    5 j e e e e e e e e e 7 3 3 3 3 7 3 & o o                                   ",
"                                                      O # # # # # # # # # # # # # # # #                                         ",
"                                                                                                                                ",
"                                                                                                                                ",
"                                                                                                                                ",
"                                                                                                                                ",
"                                                                                                                                ",
"                                                                                                                                ",
"                                                                                                                                ",
"                                                                                                                                ",
"                                                                                                                                ",
"                                                                                                                                ",
"                                                                                                                                ",
"                                                                                                                                ",
"                                                                                                                                ",
"                                                                                                                                ",
"                                                                                                                                ",
"                                                                                                                                ",
"                                                                                                                                ",
"                                                                                                                                ",
"                                                                                                                                ",
"                                                                                                                                ",
"                                                                                                                                "
};
