/* XPM */
static char *mr5[] = {
/* columns rows colors chars-per-pixel */
"64 64 220 2 ",
"   c None",
".  c #1D1936",
"X  c #1E1A37",
"o  c #1C2237",
"O  c #1C2438",
"+  c #213A3F",
"@  c #24393E",
"#  c #1F2441",
"$  c #222543",
"%  c #26264A",
"&  c #27274B",
"*  c #243A40",
"=  c #243A41",
"-  c #243B41",
";  c #253A42",
":  c #223D42",
">  c #233E42",
",  c #243C42",
"<  c #243C43",
"1  c #283F49",
"2  c #2D3952",
"3  c #274347",
"4  c #264547",
"5  c #264647",
"6  c #284147",
"7  c #264548",
"8  c #264648",
"9  c #274748",
"0  c #2F464E",
"q  c #294A4A",
"w  c #2B4C53",
"e  c #3C4957",
"r  c #3D4957",
"t  c #2D5552",
"y  c #2E5753",
"u  c #2D5855",
"i  c #2C5459",
"p  c #2F5B5A",
"a  c #305156",
"s  c #335A56",
"d  c #345A56",
"f  c #355B56",
"g  c #355C57",
"h  c #365C57",
"j  c #3C5E57",
"k  c #3D5E57",
"l  c #315759",
"z  c #325759",
"x  c #315D58",
"c  c #395D58",
"v  c #34635D",
"b  c #35665E",
"n  c #35665F",
"m  c #35675F",
"M  c #3B695F",
"N  c #305963",
"B  c #366961",
"V  c #376A61",
"C  c #376B62",
"Z  c #386C63",
"A  c #3A7065",
"S  c #3B7165",
"D  c #3B7366",
"F  c #3C7466",
"G  c #3C7567",
"H  c #39736E",
"J  c #3E7A6C",
"K  c #397470",
"L  c #397471",
"P  c #397571",
"I  c #3A7674",
"U  c #3C7A74",
"Y  c #505779",
"T  c #436162",
"R  c #417F70",
"E  c #3E807E",
"W  c #458876",
"Q  c #458A76",
"!  c #4F8E7B",
"~  c #488E7C",
"^  c #49917A",
"/  c #4A937F",
"(  c #4D917C",
")  c #4A967D",
"_  c #4B967D",
"`  c #3C7D85",
"'  c #606480",
"]  c #616580",
"[  c #4C9882",
"{  c #4C9883",
"}  c #4D9983",
"|  c #4E9B82",
" . c #4F9D85",
".. c #4F9F89",
"X. c #428B95",
"o. c #4A9F9F",
"O. c #709C85",
"+. c #53A287",
"@. c #50A088",
"#. c #50A188",
"$. c #51A188",
"%. c #50A289",
"&. c #51A289",
"*. c #51A389",
"=. c #51A38A",
"-. c #51A48B",
";. c #52A48A",
":. c #52A58A",
">. c #52A58B",
",. c #54A588",
"<. c #53A78C",
"1. c #52A68F",
"2. c #52A78F",
"3. c #53A88C",
"4. c #53A88D",
"5. c #54A98D",
"6. c #56AD8F",
"7. c #58AF8F",
"8. c #52A790",
"9. c #52A890",
"0. c #53A891",
"q. c #53A991",
"w. c #54AD97",
"e. c #54AE97",
"r. c #57B292",
"t. c #58B192",
"y. c #5BB793",
"u. c #59B494",
"i. c #59B594",
"p. c #5BB794",
"a. c #5BB795",
"s. c #5CBA95",
"d. c #5CBA96",
"f. c #5CBB96",
"g. c #5CBB97",
"h. c #5FBA98",
"j. c #5DBD98",
"k. c #64A58A",
"l. c #66A58B",
"z. c #63BA97",
"x. c #7CBE9F",
"c. c #499DAB",
"v. c #4A9FAE",
"b. c #58BCAB",
"n. c #58BCAC",
"m. c #5FC09A",
"M. c #5EC09B",
"N. c #61C49C",
"B. c #61C59D",
"V. c #62C79E",
"C. c #62C89E",
"Z. c #63C89E",
"A. c #62C99E",
"S. c #62C89F",
"D. c #63C89F",
"F. c #63C99F",
"G. c #62CA9F",
"H. c #63CA9F",
"J. c #64CA9F",
"K. c #7AC19F",
"L. c #59C0B0",
"P. c #59C0B1",
"I. c #59C1B1",
"U. c #5AC1B2",
"Y. c #5BC5BA",
"T. c #5BC6BB",
"R. c #5CC6BC",
"E. c #64CAA0",
"W. c #64CBA0",
"Q. c #64CDA2",
"!. c #6AC9A2",
"~. c #69CDA3",
"^. c #6ACEA3",
"/. c #68CFA4",
"(. c #70C7A0",
"). c #7FC6A4",
"_. c #78CCA4",
"`. c #6FD2A6",
"'. c #6CD4A7",
"]. c #76D7AB",
"[. c #77D8AB",
"{. c #77DBAD",
"}. c #7DDBAF",
"|. c #7DE0B1",
" X c #5ECCC3",
".X c #5AC4C8",
"XX c #5ED1DB",
"oX c #62DAE6",
"OX c #8FB28F",
"+X c #A3ACBA",
"@X c #88D8AE",
"#X c #8ADAAF",
"$X c #8BDDB1",
"%X c #A5D2A3",
"&X c #87E4B5",
"*X c #86E5B6",
"=X c #8CE0B4",
"-X c #8EE1B4",
";X c #8AE6B7",
":X c #8FE6B8",
">X c #88E8B8",
",X c #8FEABA",
"<X c #9FE5B4",
"1X c #94EFBB",
"2X c #92EFBE",
"3X c #94EEBD",
"4X c #97EFBE",
"5X c #97F0BF",
"6X c #98F0BF",
"7X c #99F0BF",
"8X c #A2EAB8",
"9X c #B8F4BB",
"0X c #98F1C0",
"qX c #99F1C0",
"wX c #9AF1C0",
"eX c #9BF2C1",
"rX c #A9F9C3",
"tX c #AFFFCA",
"yX c #C0FFC4",
"uX c #C3FFC7",
/* pixels */
"                                                                                                                                ",
"                                                                                                                                ",
"                                                                                                                                ",
"                                                                                                                                ",
"                                                                                                                                ",
"                                                                                                                                ",
"                                                                                                                                ",
"                                                                                                                                ",
"                                                                                                                                ",
"                                                                                                                                ",
"                                                                                                                                ",
"                                                                                                                                ",
"                                                          4 4                                                                   ",
"                                                                                                                                ",
"                                                                                                                                ",
"                                                                                                                                ",
"                                                                                                                                ",
"                                                                                                                                ",
"                                                                                                                                ",
"                                                                                                                                ",
"                                                                                                                                ",
"                                                                                                                                ",
"                                                                                                                                ",
"                                                                                                                                ",
"                                                                                                                                ",
"                                                                                                                                ",
"                                                                                                                                ",
"                                                                                                                                ",
"                                                                                                                                ",
"                                                                                                                                ",
"                                                                                                                                ",
"                                                  d c j                   y y y y s h h h h d                                   ",
"                                                8 k.<X%Xj         4 4 4 8 ^ f.y.y._.#X#X#X$Xk.8                                 ",
"                                              q J z.1X8X! u + : : Z Q _ _ (.>X&X&X2XrXyXuXtX=Xk.d                               ",
"                                            p U ..r.!.}.h.Q S F F | M.'.{.,XqXqXqXqXrX9XOXO.).=Xd                               ",
"                                          i E b.9.:.i.F.F.F.F.F.F.F.F.~.;X4X6X6X6X4X:Xx.r . T K.V                               ",
"                                        8 v..X9.:.i.V.F.F.F.F.F.F.F.F.W.~.&XqX6X5X|.( r +X] $ 0 ,.F :                           ",
"                                        8 o.R.$.$.6.t.i.V.W.W.W.W.W.W.F.F.`.[.].].'.R . ] Y % O  .S <                           ",
"                                        4 o. Xe.:.$.$.:.i.f.f.f.f.f.f.j.F.F.F.F.F.Q.+.a # % 2 l | V <                           ",
"                                        3 c.XXY.e.2.9.9.9.9.9.9.:.$.$.4.M.V.V.V.V.V.F.7.1 o l $.| v *                           ",
"                                          w X.oXY.L.U.U.U.U.U.n.2.$.$.$.2.4.4.4.4.4.4.:./ ~ | | x 6                             ",
"                                            N ` I P P P P P P H V n n n n n n n n n n n V V V v 6                               ",
"                                              @ * * * * * * * * < < < < < < < < < < < < < < < *                                 ",
"                                                                                                                                ",
"                                                                                                                                ",
"                                                                                                                                ",
"                                                                                                                                ",
"                                                                                                                                ",
"                                                                                                                                ",
"                                                                                                                                ",
"                                                                                                                                ",
"                                                                                                                                ",
"                                                                                                                                ",
"                                                                                                                                ",
"                                                                                                                                ",
"                                                                                                                                ",
"                                                                                                                                ",
"                                                                                                                                ",
"                                                                                                                                ",
"                                                                                                                                ",
"                                                                                                                                ",
"                                                                                                                                ",
"                                                                                                                                ",
"                                                                                                                                "
};
