/* XPM */
static char *mu1[] = {
/* columns rows colors chars-per-pixel */
"64 64 237 2 ",
"   c None",
".  c #23313A",
"X  c #24333E",
"o  c #24383D",
"O  c #243A3F",
"+  c #233D3E",
"@  c #213B40",
"#  c #243A40",
"$  c #243A41",
"%  c #213D41",
"&  c #223D41",
"*  c #233E41",
"=  c #233E42",
"-  c #233F43",
";  c #243F42",
":  c #243F43",
">  c #244043",
",  c #234044",
"<  c #254245",
"1  c #274347",
"2  c #264647",
"3  c #284047",
"4  c #274648",
"5  c #274748",
"6  c #2A454F",
"7  c #284A4B",
"8  c #2A4A4E",
"9  c #2A4F4E",
"0  c #2B4852",
"q  c #2C4F52",
"w  c #2C5150",
"e  c #2C5251",
"r  c #2C5353",
"t  c #2D5451",
"y  c #2D5552",
"u  c #2F5854",
"i  c #2D525A",
"p  c #2F5458",
"a  c #2D5659",
"s  c #2E5859",
"d  c #2E595D",
"f  c #305C56",
"g  c #355C57",
"h  c #315D58",
"j  c #34625C",
"k  c #35665D",
"l  c #35655E",
"z  c #35665F",
"x  c #36675F",
"c  c #356A68",
"v  c #35696B",
"b  c #397064",
"n  c #3A7164",
"m  c #3A7265",
"M  c #3B7265",
"N  c #3B7466",
"B  c #3C7466",
"V  c #3C7467",
"C  c #3E7B6B",
"Z  c #3D786C",
"A  c #397370",
"S  c #397470",
"D  c #397471",
"F  c #397571",
"G  c #3D7D77",
"H  c #38737C",
"J  c #3B797B",
"K  c #42806F",
"L  c #4B8070",
"P  c #4F8272",
"I  c #478E77",
"U  c #478D78",
"Y  c #499079",
"T  c #57907C",
"R  c #3B7982",
"E  c #3C7B80",
"W  c #3C7A84",
"Q  c #448D87",
"!  c #448E87",
"~  c #4B9680",
"^  c #4B9781",
"/  c #4C9782",
"(  c #4C9882",
")  c #49988E",
"_  c #4A9D9E",
"`  c #50A087",
"'  c #50A188",
"]  c #50A189",
"[  c #51A288",
"{  c #50A289",
"}  c #51A289",
"|  c #51A389",
" . c #51A28A",
".. c #51A38A",
"X. c #50A28B",
"o. c #53A588",
"O. c #51A48A",
"+. c #51A58C",
"@. c #53A78C",
"#. c #52A78F",
"$. c #53A88D",
"%. c #54A88D",
"&. c #54AA8D",
"*. c #55AC8F",
"=. c #53A890",
"-. c #53A891",
";. c #53A991",
":. c #53AA93",
">. c #57AF91",
",. c #55AE97",
"<. c #55AF97",
"1. c #51AB9A",
"2. c #55AF99",
"3. c #52AC9D",
"4. c #58B191",
"5. c #58B292",
"6. c #5BB896",
"7. c #5BB996",
"8. c #5CB994",
"9. c #5CB995",
"0. c #5CBA95",
"q. c #55B09A",
"w. c #56B39E",
"e. c #5DBC98",
"r. c #5DBD98",
"t. c #5DBD99",
"y. c #5EBE99",
"u. c #5EBF9A",
"i. c #6BAE91",
"p. c #6CAD90",
"a. c #6CAF91",
"s. c #6CB193",
"d. c #61BB97",
"f. c #71BF9B",
"g. c #499EAC",
"h. c #51AEA9",
"j. c #55B3A3",
"k. c #56B5A1",
"l. c #56B5A3",
"z. c #58B8A6",
"x. c #58BBA7",
"c. c #55B7AC",
"v. c #50AEBA",
"b. c #55B8B0",
"n. c #59BFB0",
"m. c #5FC19B",
"M. c #61C49C",
"N. c #60C59D",
"B. c #61C59D",
"V. c #60C79D",
"C. c #62C79E",
"Z. c #61C89E",
"A. c #62C89E",
"S. c #63C89E",
"D. c #62C99F",
"F. c #63C99F",
"G. c #63CA9F",
"H. c #64CA9F",
"J. c #59C0AF",
"K. c #59C0B1",
"L. c #59C1B1",
"P. c #59C1B2",
"I. c #5AC1B2",
"U. c #5BC4B5",
"Y. c #59C3B8",
"T. c #5BC7BD",
"R. c #63CAA0",
"E. c #64CAA0",
"W. c #65CAA0",
"Q. c #64CBA0",
"!. c #64CBA1",
"~. c #66CBA1",
"^. c #64CCA1",
"/. c #66CCA1",
"(. c #67CEA2",
"). c #68CDA2",
"_. c #69CEA3",
"`. c #6ACEA3",
"'. c #6FCDA4",
"]. c #70C8A1",
"[. c #6FD2A6",
"{. c #70D2A6",
"}. c #73D5A9",
"|. c #76D7AB",
" X c #75D9AB",
".X c #7BDBAE",
"XX c #5FCEC6",
"oX c #5ECFCC",
"OX c #5FD1CE",
"+X c #5BC8D0",
"@X c #5BC9D8",
"#X c #5CCCDB",
"$X c #62D8DE",
"%X c #8BCEA5",
"&X c #82D3AA",
"*X c #80DEB0",
"=X c #81E1B2",
"-X c #86E2B4",
";X c #87E4B5",
":X c #8BE6B7",
">X c #89E9B8",
",X c #8EEBBA",
"<X c #8EECBB",
"1X c #91EBBB",
"2X c #92ECBB",
"3X c #95EEBD",
"4X c #97EFBE",
"5X c #98EDBB",
"6X c #98EEBC",
"7X c #97F0BF",
"8X c #98F0BF",
"9X c #99F0BF",
"0X c #9BF1BF",
"qX c #9DF1BF",
"wX c #9FF2BF",
"eX c #A9F5BF",
"rX c #ADF6BF",
"tX c #99F1C0",
"yX c #9AF1C0",
"uX c #9BF2C1",
"iX c #9BF3C1",
"pX c #9FF7C3",
"aX c #9DF7C4",
"sX c #A1F3C0",
"dX c #ADFBC4",
"fX c #B6F8C0",
"gX c #B4FFC7",
"hX c #BCFAC0",
"jX c #BEFBC0",
"kX c #C0FCC0",
"lX c #C3FCC0",
"zX c #C7FDC0",
"xX c #CAFEC0",
"cX c #CDFFC0",
"vX c #D0FFC0",
"bX c #D1FFC0",
"nX c #D3FFC0",
/* pixels */
"                                                                                                                                ",
"                                                                                                                                ",
"                                                                                                                                ",
"                                                                                                                                ",
"                                                                                                                                ",
"                                                                                                                                ",
"                                                                                                                                ",
"                                                                                                                                ",
"                                                                                                                                ",
"                                                                                                                                ",
"                                                                                                                                ",
"                                                                                                                                ",
"                                                                                                                                ",
"                                                                                                                                ",
"                                                                                                                                ",
"                                                                                                                                ",
"                                                                                                                                ",
"                                                                                                                                ",
"                                                                                                                                ",
"                                                      u g                                                                       ",
"                                                  = m d.&XP , 4 4 4 4                                                           ",
"                                                  = N (. Xf.a.a.i.s.T = =                                                       ",
"                                                  @ m W.}.,XaXpXdXgX%XL B f                                                     ",
"                                                  7 C _.1XtX7XwXzXnXhX5X{.K 9                                                   ",
"                                                2 Z &._.1XtX7XwXzXcXcXkX6X'.I 4                                                 ",
"                                                < U N._.1XtX7X0XeXlXnXxXsX<X].Y y                                               ",
"                                                z o.(._.2XtX0X0X4XrXhXfXwXtX>X8.y                                               ",
"                                              w ~ t.D._.:X4X0X0X0X0X0X0X0X4X=X8.z                                               ",
"                                              e ~ t.R.H._.;XtX7X0X0X0X0X0X.X(.N.8.m =                                           ",
"                                            c ) X.t.W.D.D.[.|..X4XtXtX4X.X_.D.W.W.B =                                           ",
"                                          = D U.;.4.m.D.D.D.N.W.*X-X-X*XW.D.D.D.D.B =                                           ",
"                                          = A K.;.X.>.N.D.D.D.D.D.D.D.D.D.D.D.D.N.m =                                           ",
"                                          = D K.;.X.o.*.N.H.D.D.D.D.D.D.D.D.H.N.*.z ;                                           ",
"                                          + E $Xn.;.X.o.>.M.W.W.D.D.D.D.D.D.W.N.+.z >                                           ",
"                                            H v.Y.q.X.X.X.4.e.t.D.W.D.H.H.W.N.7.$.z >                                           ",
"                                              s b.z.+.X.X.X.X.$.t.N.N.N.N.N.7.X./ j ;                                           ",
"                                              d @XOXk.X.X.X.X.o.+.&.&.&.&.&.&.( h 3                                             ",
"                                              0 W h.z.X.X.X.X.X.X.X.X.X.X.` ,.3.e X                                             ",
"                                                ; _ XXw.2.+.X.X.X.X.X.X.X.,.1.Q q                                               ",
"                                                < g.+Xc.T.k.+.;.;.;.;.;.;.j.Q <                                                 ",
"                                                  i a c #XoXJ.K.K.K.K.K.K.G 8                                                   ",
"                                                    . 6 R J D D D D D D D a                                                     ",
"                                                        o o $ $ $ $ $ $ $                                                       ",
"                                                                                                                                ",
"                                                                                                                                ",
"                                                                                                                                ",
"                                                                                                                                ",
"                                                                                                                                ",
"                                                                                                                                ",
"                                                                                                                                ",
"                                                                                                                                ",
"                                                                                                                                ",
"                                                                                                                                ",
"                                                                                                                                ",
"                                                                                                                                ",
"                                                                                                                                ",
"                                                                                                                                ",
"                                                                                                                                ",
"                                                                                                                                ",
"                                                                                                                                ",
"                                                                                                                                ",
"                                                                                                                                ",
"                                                                                                                                ",
"                                                                                                                                "
};
