/* XPM */
static char *mu5[] = {
/* columns rows colors chars-per-pixel */
"64 64 214 2 ",
"   c None",
".  c #1B353C",
"X  c #233039",
"o  c #24333C",
"O  c #25353F",
"+  c #23393D",
"@  c #23393E",
"#  c #24383D",
"$  c #243A3F",
"%  c #1D3B40",
"&  c #1F3B40",
"*  c #253740",
"=  c #203B40",
"-  c #223B40",
";  c #243940",
":  c #243A40",
">  c #243A41",
",  c #233F41",
"<  c #293A46",
"1  c #244144",
"2  c #264547",
"3  c #264648",
"4  c #274648",
"5  c #294249",
"6  c #294B4B",
"7  c #2B504E",
"8  c #2B504F",
"9  c #2B4952",
"0  c #2C5150",
"q  c #2C5250",
"w  c #2C5453",
"e  c #2F5552",
"r  c #2C5354",
"t  c #2D5455",
"y  c #2D5556",
"u  c #2F5A5F",
"i  c #315C56",
"p  c #375D57",
"a  c #3C5E57",
"s  c #315E59",
"d  c #35655E",
"f  c #315A65",
"g  c #336563",
"h  c #346464",
"j  c #366960",
"k  c #376E6B",
"l  c #38706D",
"z  c #3E796B",
"x  c #3E7A6B",
"c  c #3E796C",
"v  c #397470",
"b  c #397471",
"n  c #3A7573",
"m  c #3A7672",
"M  c #3D7D79",
"N  c #437166",
"B  c #447367",
"V  c #467569",
"C  c #417F6E",
"Z  c #4B7E6F",
"A  c #4C7E6F",
"S  c #42816F",
"D  c #448776",
"F  c #488F78",
"G  c #588673",
"H  c #5F8470",
"J  c #4A967D",
"K  c #3B7881",
"L  c #3C7B80",
"P  c #3C7D85",
"I  c #3D808A",
"U  c #4B9580",
"Y  c #4B9781",
"T  c #4C9882",
"R  c #4F9E87",
"E  c #49998F",
"W  c #4B9D8F",
"Q  c #569E84",
"!  c #418990",
"~  c #50A188",
"^  c #51A188",
"/  c #50A189",
"(  c #51A288",
")  c #51A289",
"_  c #51A38A",
"`  c #51A48B",
"'  c #52A58B",
"]  c #52A58C",
"[  c #53A78C",
"{  c #53A78D",
"}  c #52A78F",
"|  c #54A98E",
" . c #4DA296",
".. c #4EA69C",
"X. c #50A693",
"o. c #53A890",
"O. c #53A891",
"+. c #56AD90",
"@. c #57AF91",
"#. c #55AD94",
"$. c #54AF9A",
"%. c #54AF9C",
"&. c #57B192",
"*. c #58B191",
"=. c #58B192",
"-. c #59B392",
";. c #59B494",
":. c #5AB795",
">. c #5BB895",
",. c #5BB996",
"<. c #5CBA96",
"1. c #5DBB97",
"2. c #5CBD97",
"3. c #55B09A",
"4. c #55B09B",
"5. c #55B19B",
"6. c #56B29D",
"7. c #56B39F",
"8. c #5DBC98",
"9. c #70AD8F",
"0. c #6AAE91",
"q. c #6BAE91",
"w. c #6CAE91",
"e. c #6CAF91",
"r. c #6DAF91",
"t. c #6AB293",
"y. c #57B6A1",
"u. c #54B6AA",
"i. c #55B6AB",
"p. c #59BEAC",
"a. c #57BCB0",
"s. c #57BDBC",
"d. c #5FC19B",
"f. c #60C19A",
"g. c #60C39C",
"h. c #61C59D",
"j. c #61C69D",
"k. c #61C79E",
"l. c #62C79E",
"z. c #6AC29C",
"x. c #62C89E",
"c. c #62C89F",
"v. c #62C99F",
"b. c #63C99F",
"n. c #63CA9F",
"m. c #5AC0AF",
"M. c #59C0B1",
"N. c #59C1B1",
"B. c #5AC2B2",
"V. c #5BC4B4",
"C. c #5AC4B7",
"Z. c #5BC7B9",
"A. c #5CC9BD",
"S. c #63CAA0",
"D. c #64CAA0",
"F. c #64CBA0",
"G. c #65CBA0",
"H. c #6ACEA3",
"J. c #6ED1A6",
"K. c #73D1A6",
"L. c #74D5A9",
"P. c #71D8AA",
"I. c #79DBAD",
"U. c #5CC9C0",
"Y. c #5CCAC0",
"T. c #5ECFC5",
"R. c #61D8DB",
"E. c #61D8DD",
"W. c #5CCDE0",
"Q. c #5CCEE1",
"!. c #62DAE7",
"~. c #66E5F9",
"^. c #8FDAAF",
"/. c #8ADBB0",
"(. c #8ADBB1",
"). c #80E0B1",
"_. c #81E1B3",
"`. c #84E1B3",
"'. c #84E2B3",
"]. c #85E2B3",
"[. c #86E6B6",
"{. c #8CE7B8",
"}. c #8EE9B9",
"|. c #8FE9B9",
" X c #91EBBB",
".X c #97EEBD",
"XX c #96F0BF",
"oX c #98F0BF",
"OX c #99F0BF",
"+X c #99F1BF",
"@X c #9AF0BF",
"#X c #B0E3AF",
"$X c #A5F4BF",
"%X c #A6F4BF",
"&X c #A9F5BF",
"*X c #AEF6BF",
"=X c #B1F6BF",
"-X c #97F0C0",
";X c #98F1C0",
":X c #99F1C0",
">X c #9AF1C0",
",X c #9AF4C2",
"<X c #9BF6C3",
"1X c #9DF4C1",
"2X c #9CF6C3",
"3X c #A4F8C3",
"4X c #ABFAC3",
"5X c #B0FBC3",
"6X c #B6FAC1",
"7X c #B1FCC4",
"8X c #C7FDC0",
"9X c #C8FDC0",
"0X c #CCFFC0",
"qX c #CDFFC0",
/* pixels */
"                                                                                                                                ",
"                                                                                                                                ",
"                                                                                                                                ",
"                                                                                                                                ",
"                                                                                                                                ",
"                                                                                                                                ",
"                                                                                                                                ",
"                                                                                                                                ",
"                                                                                                                                ",
"                                                                                                                                ",
"                                                                                                                                ",
"                                                                                                                                ",
"                                          2 2                                                                                   ",
"                                                                                                                                ",
"                                                                                                                                ",
"                                                                                                                                ",
"                                                                                                                                ",
"                                                                                                                                ",
"                                                                                                                                ",
"                                                                                                                                ",
"                                                                                                                                ",
"                                                                                                                                ",
"                                                                                                                                ",
"                                                                                                                                ",
"                                                                                                                                ",
"                                                                                                                                ",
"                                                                                                                                ",
"                                                                                                                                ",
"                                                        3 3 3 3 3 3 3 3 3                                                       ",
"                                                    - 7 F J Q w.w.w.w.0.0.B . -     % %                                         ",
"                                                  s j C f.P.[.2X2X,X3X7X5X9.Z A   V G H                                         ",
"                                              q q D :.b.b.].>XoXoXXX&X8X0X=X2X(.N t.4X#Xa                                       ",
"                                          1 d U U -.b.b.b.].>XoXoXoXoX%X9X0X6X.X(.K._.^.p                                       ",
"                                        , M W | 8.l.D.b.b.J.].>X>X>X>XoX&X*X%XoX,X}._.z.e                                       ",
"                                        l  .y.[ >.l.D.b.b.l.J.].].].{.>X>X-X>X>X>X}.I.2.S i                                     ",
"                                    5 g i.6.) ) ) >.l.b.b.b.b.b.b.b.L. X X X X X XL.b.b.g.x 6                                   ",
"                                  : k i.C.4.) ) ) ' :.b.b.b.b.b.b.b.D.H.H.H.H.H.H.D.b.l.+.R c 3                                 ",
"                                  # L E.A.p.4.) ) ) { -.-.d.D.S.D.D.b.b.b.b.b.b.b.D.d.+.' [ T x 7                               ",
"                                  @ I ~.R.T.m.$.$.X.) ) ) -.1.1.1.1.1.1.1.1.1.1.1.1.-.) ) ) #.X.e                               ",
"                                  # K Q.Q.s.a.U.Z.6.[ O.O.O.O.O.O.O.O.O.O.O.O.O.O.O.O.O.O.O.%...y                               ",
"                                    9 u u r ! !.U.M.M.M.M.M.M.M.M.M.M.M.M.M.M.M.M.M.M.M.M.C.E y <                               ",
"                                      o o X f P b b b b b b b b b b b b b b b b b b b b b b h O                                 ",
"                                              @ : : : : : : : : : : : : : : : : : : : : : : *                                   ",
"                                                                                                                                ",
"                                                                                                                                ",
"                                                                                                                                ",
"                                                                                                                                ",
"                                                                                                                                ",
"                                                                                                                                ",
"                                                                                                                                ",
"                                                                                                                                ",
"                                                                                                                                ",
"                                                                                                                                ",
"                                                                                                                                ",
"                                                                                                                                ",
"                                                                                                                                ",
"                                                                                                                                ",
"                                                                                                                                ",
"                                                                                                                                ",
"                                                                                                                                ",
"                                                                                                                                ",
"                                                                                                                                ",
"                                                                                                                                ",
"                                                                                                                                "
};
