/* XPM */
static char *mu6[] = {
/* columns rows colors chars-per-pixel */
"64 64 198 2 ",
"   c None",
".  c #212F36",
"X  c #24363D",
"o  c #24343F",
"O  c #23393D",
"+  c #243A3F",
"@  c #273642",
"#  c #223B40",
"$  c #243940",
"%  c #243A40",
"&  c #243A41",
"*  c #213C41",
"=  c #213D41",
"-  c #223D41",
";  c #233E41",
":  c #233E42",
">  c #233E43",
",  c #273A44",
"<  c #273B45",
"1  c #244043",
"2  c #244144",
"3  c #244245",
"4  c #274146",
"5  c #264346",
"6  c #264447",
"7  c #264547",
"8  c #264647",
"9  c #264448",
"0  c #274548",
"q  c #264648",
"w  c #274648",
"e  c #2A464D",
"r  c #2B464D",
"t  c #28494A",
"y  c #2C4F52",
"u  c #2C5250",
"i  c #2C5352",
"p  c #2E5652",
"a  c #2E5753",
"s  c #2D5656",
"d  c #2D5756",
"f  c #335A56",
"g  c #355C57",
"h  c #365C57",
"j  c #365D57",
"k  c #315F58",
"l  c #315E59",
"z  c #32615D",
"x  c #34645D",
"c  c #376B60",
"v  c #366A64",
"b  c #386A61",
"n  c #396F63",
"m  c #376F6C",
"M  c #386F6C",
"N  c #3B7265",
"B  c #3B7366",
"V  c #3E7567",
"C  c #3D776B",
"Z  c #38716E",
"A  c #39736F",
"S  c #3F7D6D",
"D  c #3F7C6E",
"F  c #356871",
"G  c #356972",
"H  c #376C75",
"J  c #397471",
"K  c #397571",
"L  c #3A7879",
"P  c #49786B",
"I  c #497F6F",
"U  c #418071",
"Y  c #418172",
"T  c #428272",
"R  c #4D8171",
"E  c #4B957C",
"W  c #4B967D",
"Q  c #57907C",
"!  c #3D7F88",
"~  c #3D7F89",
"^  c #3D8089",
"/  c #448E88",
"(  c #499381",
")  c #4C9882",
"_  c #4C9983",
"`  c #4D9B83",
"'  c #519B81",
"]  c #489994",
"[  c #50A188",
"{  c #51A288",
"}  c #50A289",
"|  c #51A289",
" . c #51A389",
".. c #51A28A",
"X. c #51A38A",
"o. c #51A48A",
"O. c #52A48A",
"+. c #52A58B",
"@. c #53A68C",
"#. c #53A78C",
"$. c #52A68D",
"%. c #52A68E",
"&. c #52A78F",
"*. c #54A98A",
"=. c #54A98E",
"-. c #55AB8E",
";. c #54AA8F",
":. c #55AC8F",
">. c #50A796",
",. c #53A891",
"<. c #53A992",
"1. c #57AF91",
"2. c #55AF97",
"3. c #52AC9C",
"4. c #58B191",
"5. c #59B290",
"6. c #59B493",
"7. c #5AB692",
"8. c #5BB793",
"9. c #5BB794",
"0. c #5AB995",
"q. c #5BB995",
"w. c #5BB896",
"e. c #5BBA96",
"r. c #5CBA96",
"t. c #5DBB97",
"y. c #55B09B",
"u. c #5DBD99",
"i. c #69AD8F",
"p. c #7BB392",
"a. c #4BA2AB",
"s. c #57B7A2",
"d. c #53B2A4",
"f. c #57B8A5",
"g. c #54B4A8",
"h. c #58BBA9",
"j. c #4CA5B1",
"k. c #4DA8B6",
"l. c #4EA8B8",
"z. c #5FC19A",
"x. c #61C49C",
"c. c #61C59D",
"v. c #61C69D",
"b. c #63C99F",
"n. c #62CA9F",
"m. c #59C0B1",
"M. c #59C1B1",
"N. c #5AC3B3",
"B. c #5BC6B7",
"V. c #5CC9BD",
"C. c #63CAA0",
"Z. c #66C8A0",
"A. c #64CAA0",
"S. c #65CBA1",
"D. c #64CDA1",
"F. c #69CCA2",
"G. c #68CDA2",
"H. c #69CEA3",
"J. c #6ACFA4",
"K. c #7DC7A2",
"L. c #7FCBA5",
"P. c #78CCA4",
"I. c #69D0A4",
"U. c #70D3A7",
"Y. c #70D4A7",
"T. c #74D7AA",
"R. c #78DAAC",
"E. c #5DCBC1",
"W. c #5DCBC2",
"Q. c #5ECDC0",
"!. c #5ECFCC",
"~. c #62DAE0",
"^. c #63DEEF",
"/. c #64E0EB",
"(. c #67E7FC",
"). c #91C098",
"_. c #80DFB1",
"`. c #8CDDB2",
"'. c #82E0B2",
"]. c #84E3B4",
"[. c #87E4B5",
"{. c #84E5B6",
"}. c #8AE6B7",
"|. c #91EBBB",
" X c #92EBBB",
".X c #92ECBC",
"XX c #93EDBC",
"oX c #97EFBE",
"OX c #9AECBB",
"+X c #95F0BF",
"@X c #97F0BF",
"#X c #99F1BF",
"$X c #99F1C0",
"%X c #9AF2C1",
"&X c #9FF3C0",
"*X c #9CF7C4",
"=X c #ADFEC7",
"-X c #BBFEC3",
/* pixels */
"                                                                                                                                ",
"                                                                                                                                ",
"                                                                                                                                ",
"                                                                                                                                ",
"                                                                                                                                ",
"                                                                                                                                ",
"                                                                                                                                ",
"                                                                                                                                ",
"                                                                                                                                ",
"                                                                                                                                ",
"                                                                                                                                ",
"                                                                                                                                ",
"                                                                                                                                ",
"                                                                                                                                ",
"                                                                                                                                ",
"                                                                                                                                ",
"                                                                                                                                ",
"                                                                                                                                ",
"                                                                                                                                ",
"                                                                                                                                ",
"                                                                                                                                ",
"                                                                                                                                ",
"                                                                                                                                ",
"                                                                                                                                ",
"                                                                                                                                ",
"                                                                                ; ;                                             ",
"                                                                                B I P                                           ",
"                                                                              a 4.{.i.9                                         ",
"                                                                              i _ S.' 9                                         ",
"                                                                                x n c                                           ",
"                                                                                1 ;                                             ",
"                                                              a a f j j                                                         ",
"                                                      8 9 2 B 7.8.P.`.K.j 2 9                                                   ",
"                                                ; # l T W W *.I.].+X*XOX).p.Q ; ;                                               ",
"                                                A v D =.u.C.D.G.'..X$X&X-X=XL.R V l                                             ",
"                                          y i z d.y.| | | w.x.x.b._..X X+X#XoX}.G.D t 2 @                                       ",
"                                    , 9 9 / 3._ %.%.| | | %.#.:.x.G.G.U.|.$X}.J.S.:.C 9 8 8 2                                   ",
"                                  . F j.] >.2.+.| | | | | | | +.1.z.b.S.T.R.Y.x.7.=._ T T T b %                                 ",
"                                , F a.~.Q.f.,.| | | | | | | | | | 4.t.t.w.w.w.9.+.| | +.+.%.( M r                               ",
"                                9 l./.E.E.V.h.,.,.,.,.,.,.,.,.,.,.,.,.,.,.,.,.,.,.,.,.,.,.%.s.g.s X                             ",
"                                9 k.(.^.^.!.M.M.M.M.M.M.M.M.M.M.M.M.M.M.M.M.M.M.M.M.M.M.M.M.B.g.s X                             ",
"                                , H ^ ~ ~ L A J J J J J J J J J J J J J J J J J J J J J J J J m r                               ",
"                                  X O O O + % % % % % % % % % % % % % % % % % % % % % % % % % %                                 ",
"                                                                                                                                ",
"                                                                                                                                ",
"                                                                                                                                ",
"                                                                                                                                ",
"                                                                                                                                ",
"                                                                                                                                ",
"                                                                                                                                ",
"                                                                                                                                ",
"                                                                                                                                ",
"                                                                                                                                ",
"                                                                                                                                ",
"                                                                                                                                ",
"                                                                                                                                ",
"                                                                                                                                ",
"                                                                                                                                ",
"                                                                                                                                ",
"                                                                                                                                ",
"                                                                                                                                ",
"                                                                                                                                ",
"                                                                                                                                ",
"                                                                                                                                "
};
