/* XPM */
static char *mu7[] = {
/* columns rows colors chars-per-pixel */
"64 64 231 2 ",
"   c None",
".  c #222E36",
"X  c #23313C",
"o  c #24323C",
"O  c #24333D",
"+  c #25333D",
"@  c #25313F",
"#  c #24343E",
"$  c #24383D",
"%  c #243A3F",
"&  c #243940",
"*  c #243A40",
"=  c #243B40",
"-  c #243A41",
";  c #213D41",
":  c #223C40",
">  c #223D41",
",  c #233E41",
"<  c #233F41",
"1  c #233E42",
"2  c #233F42",
"3  c #273A44",
"4  c #293B48",
"5  c #244043",
"6  c #264447",
"7  c #264547",
"8  c #274548",
"9  c #264648",
"0  c #274648",
"q  c #274748",
"w  c #29434B",
"e  c #284748",
"r  c #2A454F",
"t  c #2B4F4E",
"y  c #2C514F",
"u  c #2C4F52",
"i  c #2C5252",
"p  c #2C5352",
"a  c #2E5552",
"s  c #2E5553",
"d  c #2E5753",
"f  c #2F5753",
"g  c #2E585A",
"h  c #2E585D",
"j  c #2E595E",
"k  c #345A56",
"l  c #345B57",
"z  c #315D57",
"x  c #365C57",
"c  c #315D58",
"v  c #32615D",
"b  c #34645C",
"n  c #35665F",
"m  c #336563",
"M  c #366964",
"N  c #35696B",
"B  c #366C6A",
"V  c #386F6A",
"C  c #386F6D",
"Z  c #3B7266",
"A  c #3C7466",
"S  c #3E7567",
"D  c #38706D",
"F  c #38716E",
"G  c #39736F",
"H  c #356871",
"J  c #366973",
"K  c #397471",
"L  c #3A7571",
"P  c #3B797A",
"I  c #3D7D79",
"U  c #407E6D",
"Y  c #418171",
"T  c #428171",
"R  c #428375",
"E  c #4C8070",
"W  c #488F78",
"Q  c #499079",
"!  c #49917A",
"~  c #4A947C",
"^  c #58907C",
"/  c #3B7882",
"(  c #448F88",
")  c #4C9983",
"_  c #46938B",
"`  c #48978F",
"'  c #489994",
"]  c #4EA08D",
"[  c #50A187",
"{  c #50A088",
"}  c #50A188",
"|  c #51A188",
" . c #51A288",
".. c #50A289",
"X. c #51A289",
"o. c #51A389",
"O. c #51A28A",
"+. c #51A38A",
"@. c #51A48A",
"#. c #51A48B",
"$. c #52A48A",
"%. c #52A48B",
"&. c #52A58B",
"*. c #53A68B",
"=. c #52A58C",
"-. c #52A68E",
";. c #52A78F",
":. c #54A889",
">. c #53A88D",
",. c #54A88D",
"<. c #55AB8F",
"1. c #56AD8F",
"2. c #4DA295",
"3. c #53A891",
"4. c #53A991",
"5. c #54AA91",
"6. c #57AF91",
"7. c #53AA94",
"8. c #53AB94",
"9. c #55AF9A",
"0. c #52AC9D",
"q. c #57B192",
"w. c #58B191",
"e. c #58B192",
"r. c #59B392",
"t. c #59B494",
"y. c #5BB794",
"u. c #5AB894",
"i. c #5BB994",
"p. c #5BB895",
"a. c #5BB896",
"s. c #5CBA95",
"d. c #5DBC97",
"f. c #55B099",
"g. c #55B09A",
"h. c #55B09B",
"j. c #55B19B",
"k. c #56B29C",
"l. c #56B39D",
"z. c #5DBD98",
"x. c #68A88C",
"c. c #6FAF91",
"v. c #6CB193",
"b. c #61BB97",
"n. c #4BA3AE",
"m. c #53B2A4",
"M. c #53B2A5",
"N. c #53B3A6",
"B. c #58BAA6",
"V. c #55B7AC",
"C. c #58BBA9",
"Z. c #59BEAD",
"A. c #59BEAE",
"S. c #4CA5B1",
"D. c #50AEBC",
"F. c #5EC099",
"G. c #5FC19B",
"H. c #5FC29B",
"J. c #60C49C",
"K. c #61C49C",
"L. c #60C79D",
"P. c #62C79E",
"I. c #61C89E",
"U. c #62C89E",
"Y. c #62C99F",
"T. c #63C99F",
"R. c #62CA9F",
"E. c #63CA9F",
"W. c #5AC0AC",
"Q. c #59C0B1",
"!. c #59C1B1",
"~. c #5AC1B3",
"^. c #5AC3B3",
"/. c #5BC3B4",
"(. c #5BC7BE",
"). c #5CCABE",
"_. c #63CAA0",
"`. c #64CAA0",
"'. c #65CBA0",
"]. c #64CBA1",
"[. c #66CBA1",
"{. c #64CCA1",
"}. c #64CDA1",
"|. c #6ACDA2",
" X c #6ACFA4",
".X c #7FCBA5",
"XX c #70D3A7",
"oX c #71D7AA",
"OX c #74D5A9",
"+X c #75D6AA",
"@X c #77D8AB",
"#X c #78D8AB",
"$X c #7ADAAE",
"%X c #55BCCD",
"&X c #58C1C0",
"*X c #5CCCDB",
"=X c #5FD2D0",
"-X c #5ED0D2",
";X c #62D9DF",
":X c #62DAE0",
">X c #89B792",
",X c #82D4AB",
"<X c #80DEB0",
"1X c #8DDEB2",
"2X c #87E3B5",
"3X c #89E7B7",
"4X c #8DE8B9",
"5X c #91EBBB",
"6X c #92EBBB",
"7X c #94EDBD",
"8X c #97F0BF",
"9X c #99F1BF",
"0X c #9AF0BF",
"qX c #9BF1BF",
"wX c #9FF2BF",
"eX c #AFE5B1",
"rX c #A9F5BF",
"tX c #AAF5BF",
"yX c #AEF6BF",
"uX c #98F0C0",
"iX c #99F1C0",
"pX c #99F3C1",
"aX c #9AF2C1",
"sX c #9CF3C1",
"dX c #A6FCC6",
"fX c #B6FDC4",
"gX c #B4FEC5",
"hX c #C6FDC0",
"jX c #C7FDC0",
"kX c #C8FFC1",
"lX c #D0FFC4",
/* pixels */
"                                                                                                                                ",
"                                                                                                                                ",
"                                                                                                                                ",
"                                                                                                                                ",
"                                                                                                                                ",
"                                                                                                                                ",
"                                                                                                                                ",
"                                                                                                                                ",
"                                                                                                                                ",
"                                                                                                                                ",
"                                                                                                                                ",
"                                                                                                                                ",
"                                                                                                                                ",
"                                                                                                                                ",
"                                                                                                                                ",
"                                                                                                                                ",
"                                                                                                                                ",
"                                                                                                                                ",
"                                                                                                                                ",
"                                                                                                                                ",
"                                                                                                                                ",
"                                                                                                                                ",
"                                                                                                                                ",
"                                                                              f                                                 ",
"                                                                          , S :.f                                               ",
"                                                                            n S                                                 ",
"                                                                              ,                                                 ",
"                                                          f f f l x k                                                           ",
"                                                      7 q ! u.b.,X1Xx.w 7 q q                                                   ",
"                                                , : c T ~ u.oX3XaXfXeX>Xc.v.^ , ,                                               ",
"                                                D M T u.].I.#XaX0XyXhXlXfXdX.XE S z                                             ",
"                                              m M.9.1.K.I.I.oX6X8X8XrXhXhXrXaX6X|.U t                                           ",
"                                          , D M.7.;.%.1.K.I.].XX6XaX0XwXrX0XaX6X XH.W q                                         ",
"                                        q I 2.j.;.| | %.6.J.I.].OX@XOX$X7XsX4XOX].{.s.! y                                       ",
"                                        q ` W.| | | | | | e.H._.I.I.K.].<X2X$XI.I._.I.e.Z f                                     ",
"                                        q ' /.;.| | | | | | 6.K.K.K.I.I.I.I.I.I.I.K.u.%.| n 5                                   ",
"                                        q S.:XZ.;.| | | | | ;.>.,.z._.I.I.I.I.I.I.t.%.| | n 5                                   ",
"                                        3 H n.;XZ.4.| | | | | | | 1.e.t.K.{.H.e.e.%.| 5.B.V ,                                   ",
"                                          . H D.=X/.l.l.j.j.7.| | | | %.t.d.e.| %.j.] R _ B                                     ",
"                                            o h %X&XM.V.(.).C.4.4.4.4.4.4.4.4.;.) 0.( q 7                                       ",
"                                              4 h g p N *X=X!.!.!.!.!.!.!.!./.M.v p u                                           ",
"                                                o # X r / P D K K K K K K K K C w o o                                           ",
"                                                        $ $ - - - - - - - - - -                                                 ",
"                                                                                                                                ",
"                                                                                                                                ",
"                                                                                                                                ",
"                                                                                                                                ",
"                                                                                                                                ",
"                                                                                                                                ",
"                                                                                                                                ",
"                                                                                                                                ",
"                                                                                                                                ",
"                                                                                                                                ",
"                                                                                                                                ",
"                                                                                                                                ",
"                                                                                                                                ",
"                                                                                                                                ",
"                                                                                                                                ",
"                                                                                                                                ",
"                                                                                                                                ",
"                                                                                                                                ",
"                                                                                                                                ",
"                                                                                                                                ",
"                                                                                                                                "
};
