/* XPM */
static char *xpm__[] = {
/* columns rows colors chars-per-pixel */
"64 64 138 2 ",
"   c #2E242F",
".  c #2F2530",
"X  c #312632",
"o  c #332935",
"O  c #382B35",
"+  c #362C39",
"@  c #392E3D",
"#  c #3C303E",
"$  c #41323E",
"%  c #48363F",
"&  c #3D3444",
"*  c #453641",
"=  c #483742",
"-  c #4B3944",
";  c #4D3A49",
":  c #503C44",
">  c #523E4A",
",  c #54404D",
"<  c #59434C",
"1  c #564151",
"2  c #5A4454",
"3  c #5B4853",
"4  c #5E4758",
"5  c #60474D",
"6  c #63494E",
"7  c #634A55",
"8  c #6A4E56",
"9  c #634A5B",
"0  c #6A4F58",
"q  c #694F5A",
"w  c #694E5D",
"e  c #6C5057",
"r  c #6E5158",
"t  c #6F5158",
"y  c #6C515E",
"u  c #6F525A",
"i  c #73545B",
"p  c #755558",
"a  c #76565A",
"s  c #70535C",
"d  c #71535C",
"f  c #72555D",
"g  c #75565B",
"h  c #78575E",
"j  c #78575D",
"k  c #78585F",
"l  c #79595F",
"z  c #7A595F",
"x  c #795A5F",
"c  c #7A5A5F",
"v  c #7E5C5F",
"b  c #7F5C5F",
"n  c #7A595E",
"m  c #654D60",
"M  c #674E61",
"N  c #674E62",
"B  c #674E61",
"V  c #694F60",
"C  c #684E61",
"Z  c #684F61",
"A  c #694F61",
"S  c #6A4F61",
"D  c #684E62",
"F  c #684F62",
"G  c #694F62",
"H  c #6A4F62",
"J  c #6A4F63",
"K  c #694F62",
"L  c #6A5060",
"P  c #695062",
"I  c #695063",
"U  c #6A5062",
"Y  c #6B5062",
"T  c #6A5063",
"R  c #6B5063",
"E  c #6B5163",
"W  c #6C5162",
"Q  c #6D5162",
"!  c #6C5063",
"~  c #6C5163",
"^  c #6E5262",
"/  c #6F5362",
"(  c #6B5164",
")  c #6C5164",
"_  c #6D5164",
"`  c #6E5264",
"'  c #6F5364",
"]  c #6E5365",
"[  c #6B5163",
"{  c #715361",
"}  c #715463",
"|  c #735563",
" . c #715465",
".. c #725565",
"X. c #735665",
"o. c #745664",
"O. c #755764",
"+. c #745665",
"@. c #745765",
"#. c #755765",
"$. c #775765",
"%. c #755766",
"&. c #765766",
"*. c #735664",
"=. c #765866",
"-. c #775867",
";. c #775865",
":. c #795A60",
">. c #7A5A60",
",. c #7A5B60",
"<. c #7B5B61",
"1. c #7B5C61",
"2. c #7F5C61",
"3. c #7D5C62",
"4. c #7E5D63",
"5. c #7E5C66",
"6. c #7F5D66",
"7. c #7B5B65",
"8. c #7B5A68",
"9. c #805D66",
"0. c #815E65",
"q. c #856064",
"w. c #856067",
"e. c #886267",
"r. c #886367",
"t. c #826068",
"y. c #846168",
"u. c #8A6468",
"i. c #8A6469",
"p. c #8B646A",
"a. c #8B656A",
"s. c #8D666B",
"d. c #8D676B",
"f. c #8E676C",
"g. c #8B656A",
"h. c #906769",
"j. c #956B6C",
"k. c #986D6D",
/* pixels */
"                                                                . $ 2 Z Z Z Z Z Z Z Z Z Z M Z &.i.3.3 & & & & & & & & & & @ o   ",
"                                                              X + ; 4 Z Z Z Z Z Z Z Z / &./ 9 7 e 7 ; @ @ @ # @ @ @ @ @ @ + o   ",
"                                                            . O ; 2 w Z Z Z Z Z Z Z E ..6.s , * - $ @ O o o o o o o o o o o X   ",
"                                                            X # 2 Z ( Z Z Z Z Z Z / ..;.z 6 $ O # $ + X . . X o o o o X .       ",
"                                                            X # 2 Z ( Z Z Z Z Z Z &.9.z < # O $ 7 7 ; + X X + & & & & + X .     ",
"                                                            X # 2 Z ( Z Z Z Z Z Z &.6.h > $ $ , 3.:.3 & + @ & & & & & & + o X   ",
"                                                            X # 2 Z ] Z Z Z Z Z Z ] &.{ 2 1 2 q i.3.3 & # & & & & & & & # + o   ",
"                                                            X $ 7 } ] Z Z Z Z Z Z Z Z Z Z Z E &.i.1.3 & & & & & & & & & & @ o   ",
"                                                            X * i 6.&.Z Z Z Z Z Z Z Z Z Z Z E &.i.:.3 & & & & & & & & & & @ o   ",
"                                                            X # 6 d / Z Z Z Z Z Z Z Z Z Z Z E &.i.1.3 & & & & # & & & & & @ o   ",
"                                                            . O $ , 9 Z Z Z Z Z Z Z Z Z Z Z Z } i.3.3 & & & @ + & & & & & @ o   ",
"                                                                  $ 2 Z Z Z Z Z Z Z Z Z Z 9 9 q e.:.3 & & @ o o & & & & & @ o   ",
"                                                                  $ 2 Z Z Z Z Z Z Z Z Z Z 2 ; , v z 3 & & @ o o & & + + & @ o   ",
"                                                                  $ 1 Z Z Z Z Z Z Z Z Z Z 2 ; , v z 3 & & & @ + & & @ + & @ o   ",
"                                                                  * 2 E E Z Z Z Z Z Z Z Z 9 2 9 w.:.3 & & & & # & & & # & @ o   ",
"                                                                  * 7 ..] E Z Z Z Z Z Z Z Z E &.i.1.3 & & & & & & & & & & @ o   ",
"                                                                  - u t...E Z Z Z Z Z Z Z Z E &.i.1.3 & & & & & & & & & & @ o   ",
"                                                                  $ 5 f y Z Z Z Z Z Z Z Z Z E &.s.3.3 & & & & & & & & & & @ o   ",
"                                                                  O $ , 9 E E Z Z Z Z Z Z Z Z ..i.z 3 & & & & & & & & & & @ o   ",
"                                                                    X $ 7 } ] Z Z Z Z Z Z Z Z / h 8 ; & & & & & & & & & & @ o   ",
"                                                                    X $ i 9.&.Z Z Z Z Z Z E Z 9 > $ O o o + # & & & & & & @ o   ",
"                                                                    X # 6 8 7 2 9 Z Z 9 2 1 , ; + X X o o + @ @ @ @ @ @ @ + o   ",
"                                                                    . O $ = * - 9 E E 4 - $ # @ X o + @ @ @ + o o o o o o o X   ",
"                                                                    . X O + # - 9 / / 9 - @ + $ $ * * & & @ o . X o o X .       ",
"                                                                    . + ; 2 2 9 M E E M 4 2 2 7 i 8 , & & @ o X + & & + X .     ",
"                                                                  X + - 4 Z / Z Z Z Z Z Z Z Z &.i.z 3 & & @ o o & & & & + o X   ",
"                                                                  + ; 2 w / ] E Z Z Z Z E Z ] ;.f.3.3 & & @ o o & & & & # + o   ",
"                                                                  $ 1 Z Z Z Z Z Z Z Z Z Z M E &.i.1.3 & & @ o o & & & & & @ o   ",
"                                                                  $ 2 Z Z Z Z Z Z Z Z Z Z M E &.i.1.3 & & @ o o & & & & & @ o   ",
"                                                                  $ 2 Z Z Z Z Z Z Z Z Z Z M E &.i.1.3 & & & @ + & & & & & @ o   ",
"X X X X X X .                                                     $ 2 Z Z Z Z Z Z Z Z Z Z M E &.i.1.3 & & & & # & & & & & @ o   ",
"# @ # $ * # O                                                     $ 2 Z Z Z Z Z Z Z Z Z Z M E &.i.1.3 & & & & & & & & & & @ o   ",
"2 2 2 7 i 6 $                                                     $ 2 Z Z Z Z Z Z Z Z Z Z Z E &.i.:.3 & & & & & & # + + & @ o   ",
"Z M Z } 6.d , $ = - - $ o                                         $ 2 Z Z Z Z Z Z Z Z Z Z Z E &.s.3.3 & & & & & & @ o o & @ o   ",
"( E ( ] &./ 9 2 e a a 6 $ o                                       $ 2 E Z Z Z Z Z Z Z Z Z Z E &.i.z 3 & & & & & & @ o o & @ o   ",
"Z Z Z Z Z Z E ..t.s.i.z < $ o                                     $ 2 ..] Z Z Z Z Z Z Z Z / ..;.z 8 , & & & & & & # + + & @ o   ",
"Z Z Z Z Z Z E ] ..&.&.;.z 6 $                                     * e t...E Z Z Z Z Z Z Z &.9.z < * & & & & & & & & & & & @ o   ",
"Z Z Z Z Z Z Z E E E / &.i.a -                                     - g s.;./ Z Z E E E E E 8.r.n = O + # & & & & # & & & # + o   ",
"Z Z Z Z Z Z Z Z Z M E &.s.a -                                     - a i.&.Z M Z Z Z M M Z 8.w.z $ X X + & & & & + @ & & + o X   ",
"Z Z Z Z Z Z Z Z Z Z E ..t.e %                                     $ 6 i 7 9 9 M 9 2 2 2 2 9 u 7 $ X   X + & & + X X + + X .     ",
"Z Z Z Z Z Z Z Z Z Z Z ] ..2 $                                     O # $ $ ; 2 9 - @ + + + $ $ $ O . . . X o o X . . X X . .     ",
"8.&.] Z Z Z Z Z Z Z Z E E 4 ; @ O .                               X + $ $ ; 2 4 - $ # # # + O X .   . . X o o o o o o X . .     ",
"e.6...E E Z Z Z Z Z Z Z Z 9 2 ; + X   . X X .                     + - 1 1 2 9 9 2 1 1 1 , - @ X .   . X + @ @ @ @ @ @ + X .     ",
"z z $.&.&.../ Z Z Z Z Z Z M 4 ; O . . O $ # O                     $ 2 E E Z Z Z Z Z Z E Z 7 > $ O X X + & & & & & & & & o .     ",
"* < g i.i.9...Z Z Z Z Z E 2 - + X . X $ 7 6 $                     $ 2 E ] E Z Z Z Z Z Z Z } g 7 $ O + & & & & & & & & & o .     ",
"O * 7 a a z :.&./ Z Z w 2 ; + O $ % % > g 8 -                     $ 2 Z E Z Z Z Z Z Z Z Z 8.w.a $ O + & & & & & & & & & + o X   ",
"+ # * - : 5 a 9...] Z 9 - + O $ 6 8 7 7 } 7 * . .                 $ 2 Z Z Z Z Z Z Z Z Z Z 8.r.n - + @ & & & & & & & & & # + o   ",
"& # + o o $ 6 z &.&./ 2 + X + > h 6.&.Z Z 2 - O X .               $ 2 Z Z Z Z Z Z Z Z Z Z 8.r.0.< * & & & & & & & & & & & @ o   ",
"& & & & & # $ < z 9...2 + + ; 9 / } / Z Z w 4 ; O X               $ 2 Z Z Z Z Z Z Z Z Z Z 8.r.h.0.e , & & & & & & & & & & @ o   ",
"& & & & & @ + * 7 e 7 ; O @ , Z Z Z Z Z Z E w 4 - + X             $ 1 Z Z Z Z Z Z Z Z Z Z ;.i.k.j.:.3 & & & & & & & & # & @ o   ",
"& & & & & & @ # * - $ + o $ 2 E Z Z Z Z Z E E w 2 ; +             $ 1 Z Z Z Z Z Z Z Z Z Z ;.r.k.k.3.3 & & & & & & & @ + & @ o   ",
"& & & & & & & & o . . O $ > 7 Z Z Z Z Z Z Z Z ] ..7 *             $ 2 Z Z Z Z Z Z Z Z Z Z &.9.s.j.3.3 & & & & & & @ o o & # o   ",
"& & & & & & & & o   X $ 7 g } Z Z Z Z Z Z Z E ..t.u -             $ 2 Z Z Z Z Z Z Z Z Z Z / ..6.s.:.3 & & & & & & @ o o & # o   ",
"& & & & & & & @ O o O $ 7 u / Z Z Z Z Z Z / ..$.g 5 $             $ 2 Z Z E Z 9 2 > > 2 w E ] ;.i.z , & & & & & & @ o o & # o   ",
"& & & & & & @ + @ # & & - , 9 E Z Z Z Z Z &.6.:.< $ O X X . .     $ 2 Z Z E Z 4 ; $ $ ; 7 w Z } i.a : + & & & & & @ o o & @ o   ",
"& & & & & @ + + & & & & o $ 2 ..] E Z Z Z 8.r.z * o O # # O X     $ 2 Z Z E Z 9 > * % : 2 2 2 q e.a : X + # & & & @ + + & @ o   ",
"& & & & + + @ & & & & & o = 8 t...E Z Z Z 8.r.z $ @ ; 2 2 ; +     $ 2 Z Z Z Z / h n z 8 : @ @ > 0.p - . . o o o o + @ & & @ o   ",
"& & & & o O @ & & & & & o - a s.&.E Z 9 2 2 8 7 - ; 2 / / 1 #     $ 1 Z Z Z E } 9.r.w.g > # # ; 7 5 = o o o o X . X + @ @ + o   ",
"& & & & o O @ & & & & & o - a i...E Z 4 - * = : , 4 M ] ] 2 $     $ 2 Z Z Z Z / &.8.8.} 2 1 1 > : - # # @ @ @ + X . X o o o X   ",
"& & & + + + # & & & & & + % 6 h / E Z 9 - @ @ - 9 Z E Z Z 2 $     $ 2 Z Z Z Z Z Z Z Z Z Z E Z 9 > * & & & & & & + o o o o X .   ",
"& # + + & & & & & & & & & & * > 9 Z E M 9 2 2 9 M Z Z Z Z 2 $     $ 2 Z Z Z Z Z Z Z Z Z Z Z E / h 8 , & & & & & & & & & & + X   ",
"@ @ + + & & & & & & & & & @ O $ 7 } ] Z Z Z Z Z Z Z Z Z Z 2 $     $ 1 Z Z Z Z Z Z Z Z Z Z Z E &.i.z 3 & & & & & & & & & & @ o   ",
"o + + # & & & & & & & & & + O $ i 6.&.Z E ( E E Z Z Z Z Z 2 $     $ 1 Z Z Z Z Z Z Z Z Z Z Z E &.s.3.3 & & & & & & & & & & @ o   ",
"  o @ & & & & & & & & & & + O - n e.8.Z Z Z Z Z Z Z Z Z Z 2 $     $ 2 Z Z Z Z Z Z Z Z Z Z Z E &.i.:.3 & & & & & & & & & & @ o   "
};
