/* XPM */
static char *_[] = {
/* columns rows colors chars-per-pixel */
"64 64 148 2 ",
"   c #2D232E",
".  c #2F2530",
"X  c #322732",
"o  c #342833",
"O  c #392C37",
"+  c #3D2F3C",
"@  c #3E303C",
"#  c #43323C",
"$  c #49373F",
"%  c #443543",
"&  c #4A3740",
"*  c #4B3840",
"=  c #473A4B",
"-  c #4B3C4C",
";  c #523D47",
":  c #513E4C",
">  c #53424F",
",  c #5B444A",
"<  c #564253",
"1  c #594354",
"2  c #5F4856",
"3  c #5C4759",
"4  c #5E485A",
"5  c #60464C",
"6  c #654A4F",
"7  c #634954",
"8  c #6A4D53",
"9  c #644B5B",
"0  c #6F5259",
"q  c #72535A",
"w  c #78575B",
"e  c #77585F",
"r  c #7A595C",
"t  c #674E62",
"y  c #694F62",
"u  c #6F5363",
"i  c #6E5263",
"p  c #6D5163",
"a  c #6C5163",
"s  c #715463",
"d  c #725463",
"f  c #745660",
"g  c #745661",
"h  c #765761",
"j  c #745662",
"k  c #705364",
"l  c #715464",
"z  c #725464",
"x  c #725564",
"c  c #735564",
"v  c #725465",
"b  c #725565",
"n  c #735565",
"m  c #735664",
"M  c #735665",
"N  c #745565",
"B  c #745664",
"V  c #755664",
"C  c #755764",
"Z  c #745665",
"A  c #755665",
"S  c #755765",
"D  c #765764",
"F  c #765765",
"G  c #735664",
"H  c #775862",
"J  c #775863",
"K  c #775864",
"L  c #765865",
"P  c #775865",
"I  c #775866",
"U  c #775865",
"Y  c #7A5960",
"T  c #7A5961",
"R  c #795963",
"E  c #7A5A62",
"W  c #7B5A62",
"Q  c #7A5A63",
"!  c #7F5E62",
"~  c #795964",
"^  c #785865",
"/  c #785965",
"(  c #795965",
")  c #7A5965",
"_  c #7A5A64",
"`  c #785966",
"'  c #7D5B64",
"]  c #7E5C65",
"[  c #7E5C67",
"{  c #7E5D67",
"}  c #7F5D67",
"|  c #795965",
" . c #7F5D68",
".. c #815D5F",
"X. c #815D5F",
"o. c #825E60",
"O. c #835F61",
"+. c #835F62",
"@. c #825F67",
"#. c #825F65",
"$. c #805E68",
"%. c #815E68",
"&. c #815F68",
"*. c #825F68",
"=. c #825F68",
"-. c #846062",
";. c #836067",
":. c #846067",
">. c #836067",
",. c #826068",
"<. c #836068",
"1. c #836069",
"2. c #846068",
"3. c #836068",
"4. c #896469",
"5. c #8A6468",
"6. c #8A6469",
"7. c #8A6569",
"8. c #8B6569",
"9. c #8B656A",
"0. c #8C6569",
"q. c #8C6669",
"w. c #8D6669",
"e. c #8E6769",
"r. c #8C656A",
"t. c #8C666A",
"y. c #8D666A",
"u. c #8E676A",
"i. c #8F676A",
"p. c #8C656A",
"a. c #8F686A",
"s. c #8F686B",
"d. c #906869",
"f. c #91696A",
"g. c #90686B",
"h. c #936A6B",
"j. c #946B6B",
"k. c #956B6B",
"l. c #956C6C",
"z. c #966C6C",
"x. c #976D6C",
"c. c #946B6B",
"v. c #986D6C",
"b. c #986D6D",
"n. c #986E6D",
"m. c #996E6D",
"M. c #996E6E",
"N. c #986E6D",
/* pixels */
"          $ r v.v.x.v.x.x.8.A y y ^ 8.r $                         $ r v.v.8.A y y I 8.8.I t y I 8.8.A A 8.x.v.x.x.v.x.r $       ",
"      X # , r 8.0.8.8.8.8.@.c y y c ,.r , $ $ $ $ $ $ # o     o # , r 8.0.;.c y y c ,.;.A y y c @.,.c c *.8.8.0.f.v.v.O., # o   ",
"      # 7 r ^ A A A A A A c a y y a c J r r r r r r r 6 #     # 7 r Y I A c a y y a c c a y y a d c a a c A A } 0.x.x.f...6 #   ",
"  o # , Y ,.c y y y y y y y y y y y y c ,.0.0.8.0.a.k.O., # o $ q *.c y y y y y y y y y y y y y y y y y y t y c @.0.k.v.v.r $   ",
"  # 7 r ^ A a y y y y y y y y y y y y a c ^ I I I *.a.f.O.7 # # 7 A a y y y y y y y y y y y y y y y y y y y y a c } 0.v.v.r $   ",
"  $ r 0.A y y y y y y y y y y y y y y y y y y y y c *.a.k.r $ + 1 y a y y y y y y y y y y y y y y y y y y y y y y c 2.f.k.r $   ",
"  $ r 0.A y y y y y y y y y y y y y y y y y y y y a d } a.r $ + < y y y y y y y y y y y y y y y y y y y y y y y y a c } 0.r $   ",
"$ , r @.c y y y y y y y y y y y y y y y y y y y y y y ^ 0.r $ # 7 A a y y y y y y y y y y y y y y y y y y y y y y y t A 8.r $   ",
"r r J c a y y y y y y y y y y y y y y y y y y y y y t A 8.r $ $ q ,.A y y y y y y y y y y y y y y y y y y y y y y y y ^ 8.r $   ",
"v.0.A y y y y y y y y y y y y y y y y y y y y y y y y I 0.r $ $ w 0.^ y y y y y y y y y y y y y y y y y y y y y y y y I 0.r $   ",
"v.0.A y y y y y y y y y y y y y y y y y y y y y y y y ^ 0.r $ $ r 8.I t y y y y y y y y y y y y y y y y y y y y y y y A 8.r $   ",
"8.@.c y y y y y y y y y y y y y y y y y y y y y y y y I 0.r $ $ q ,.A y y y y y y y y y y y y y y y y y y y y y y y y A ,.q $   ",
"A c a y y y y y y y y y y y y y y y y y y y y y y y y ^ 0.r $ @ 7 c a y y y y y y y y y y y y y y y y y y y y y y y y a c 7 #   ",
"y y y y y y y y y y y y y y y y y y y y y y y y y y t I 8.r $ + 1 y y y y y y y y y y y y y y y y y y y y y y y y y y a c 9 #   ",
"y y y y y y y y y y y y y y y y y y y y y y y y y y y I 8.r $ + 1 y a y y y y y y y y y y y y y y y y y y y y y y y y c *.q $   ",
"A c a y y y y y y y y y y y y y y y y y y y y y y y t I 0.r $ + 1 y y y y y y y y y y y y y y y y y y y y y y y y y y A ,.q $   ",
"8.@.c y y y y y y y y y y y y y y y y y y y y y y y y A 8.r * @ 1 y a y y y y y y y y y y y y y y y y y y y y y y y y a c 9 #   ",
"8.@.c y y y y y y y y y y y y y y y y y y y y y y y y A @.q $ # 7 c a y y y y y y y y y y y y y y y y y y y y y y y y y y 1 +   ",
"A c a y y y y y y y y y y y y y y y y y y y y y y y y a c 7 # $ q ,.A y y y y y y y y y y y y y y y y y y y y y y y y y y 1 +   ",
"y y y y y y y y y y y y y y y y y y y y y y y y y y y a y 1 + # 7 Y ^ c a y y a c I I c a y y a y y y y y y y y y y y a c 7 #   ",
"y y y y y y y y y y y y y y y y y y y y y y y y y y y a y 1 + o # , r :.c y y c *.8.0.*.c y y y y y y y y y y y y y y c *.q $   ",
"y y y y y y y y y y y y y y y y y y y y y y y y y y y a y 1 +     # 7 q 9 3 2 9 j ! ! Y ^ A a y y y y y y y y y y y y I 8.r $   ",
"y y y y y y y y y y y y y y y y y y y y y y y y y y y a y 1 +     o # * = = - - > > > 7 ' *.c y y y y y y y y y y y y ^ 0.r $   ",
"A I A c a y y y y y y y y y y y y y y y y y y y y y y a c 7 #     o # * = - - - - - < 7 q j 9 9 d c a y y y y y y y y I 0.r $   ",
"8.8.8.*.c y y y y y y y y y y y y y y y y y y y y y y c ,.q $     # 7 q 9 2 2 2 2 9 j e 7 > - 1 Y ,.c y y y y y y y y ^ 8.r $   ",
"r -.f.0.A y y y y y y y y y y y y y y y y y y y y t t I 0.r * o # , Y *.c y y y a A @.^ 1 = = 1 q j y 9 t y y y y y t I 0.r $   ",
"$ 5 O.0.I y y y y y y y y y y y y y y y y y y y y y y I 0.r $ # 7 r Y A a y y y a u c u 9 2 3 3 1 > - < 9 y y y y t t A 0.r $   ",
"  # 7 r ^ A a y a a c I A c a y a a c I I c a a c I I Y r 6 # # 7 Y ^ A A A a y y y y y a u c a 2 : % % : 9 u ^ ^ I I ^ r 7 #   ",
"  X # , r :.A y y c @.0.8.,.c y y c @.0.8.*.c c @.0.0.r , # o o # , r 8.8.;.d y y y y y y c ,.8.O.8 & o O ; e 0.0.0.8.r , # o   ",
".     @ 6 q 7 1 1 2 q r r q 7 1 1 7 q r r q 7 2 0 r r 6 #         # 6 r Y 0 2 1 1 1 1 < < 7 q r r 7 @     # 6 r r r r 8 #       ",
"      o # $ # + + @ $ $ $ $ # + + @ $ $ * $ # @ $ $ * # X         X # $ * $ # + + + + + @ # $ $ * # o     o # $ $ $ $ # o       ",
"  o # $ & $ $ $ & $ & $ $ $ # + + + + @ $ $ * $ & $ $ # o         o # $ $ $ $ $ $ $ $ & $ $ # O + # $ $ * $ $ $ $ # o           ",
"  # 6 r r r r r r r r r w 0 7 1 1 1 1 2 q r r r r r w 7 #         # 6 r r r r r r r r r r q 7 < < 7 q r r r r r r 7 @           ",
"$ , O.v.v.k.0.8.8.8.0.8.8.;.A y y y y A ,.8.0.8.0.0.0.r , # o o # , O.v.v.k.0.0.8.8.0.8.8.@.c y y c ;.8.8.8.0.0.0.r , $ $ # o   ",
"r ..a.v.v.f.} I ^ I ^ A I c a a a y y a A A ^ I ^ I ^ ^ r 6 # # 6 O.f.v.v.f.} I A A A I A A a a y a c ^ I I A ^ I ^ r r r 6 #   ",
"x.x.x.f.0.,.c t y y y y y y y y y y y y y t y y y t y I 8.r $ $ r v.v.k.0.*.c y y y y y y y y y y y y y y y y y y c ;.f.x.r $   ",
"x.v.x.0.} c a y y y y y y y y y y y y y y y y y y y t I 0.r $ $ r v.v.0.} c a y y y y y y y y y y y y y y y y y y a c *.a.r $   ",
"x.f.0.;.c y y y y y y y y y y y y y y y y y y y y y t I 0.r $ $ r k.f.@.c y y y y y y y y y y y y y y y y y y y y y y A 0.r $   ",
"x.0.} c a y y y y y y y y y y y y y y y y y y y y y y I 8.r $ $ r 0. .c a y y y y y y y y y y y y y y y y y y y y y y A 0.r *   ",
"x.8.A y y y y y y y y y y y y y y y y y y y y y y y y c ;.q $ $ r 8.A y y y y y y y y y y y y y y y y y y y y y y y y c ,.q $   ",
"x.8.A y y y y y y y y y y y y y y y y y y y y y y y y a c 2 # $ r 8.A y y y y y y y y y y y y y y y y y y y y y y y y a c 7 #   ",
"x.8.I y y y y y y y y y y y y y y y y y y y y y y y y a c 7 @ $ r 8.I y y y y y y y y y y y y y y y y y y y y y y y y a c 9 #   ",
"x.8.A y y y y y y y y y y y y y y y y y y y y y y y y c *.q $ $ r 8.I y y y y y y y y y y y y y y y y y y y y y y y y c @.q $   ",
"8.;.c y y y y y y y y y y y y y y y y y y y y y y y y I 8.r $ $ q *.c y y y y y y y y y y y y y y y y y y y y y y y y c @.q $   ",
"A d a y y y y y y y y y y y y y y y y y y y y y y y y A 8.r & # 7 c a y y y y y y y y y y y y y y y y y y y y y y y y a c 9 #   ",
"t y y y y y y y y y y y y y y y y y y y y y y y y y y I 2.q $ + 1 y a y y y y y y y y y y y y y y y y y y y y y y y y a y 1 @   ",
"y y y y y y y y y y y y y y y y y y y y y y y y y y y a A 7 @ + < y a y y y y y y y y y y y y y y y y y y y y y y y y a y 1 +   ",
"y y y y y y y y y y y y y y y y y y y y y y y y y y y a y 1 + + 1 y a y y y y y y y y y y y y y y y y y y y y y y y y a y 1 +   ",
"y y y y y y y y y y y y y y y y y y y y y y y y y y y y y 1 + + < y y y y y y y y y y y y y y y y y y y y y y y y y y a y 1 @   ",
"I c a y y y y y y y y y y y y y y y y y y y y y y y y y y 1 + @ 7 c a y y y y y y y y y y y y y y y y y y y y y y y y y a 1 +   ",
"8.,.c t y y y y y y y y y y y y y y y y y y y y y y y a y 1 + $ q ,.c y y y y y y y y y y y y y y y y y y y y y y y y a y 1 +   ",
"8.@.c y y y y y y y y y y y y y y y y y y y y y y y y a y 1 + $ q ,.A y y y y y y y y y y y y y y y y y y y y y y y y a y 1 +   ",
"I c a y y y y y y y y y y y y y y y y y y y y y y y y a y 1 + # 7 A a y y y y y y y y y y y y y y y y y y y y y y y y a y 1 +   ",
"y y y y y y y y y y y y y y y y y y y y y y y y y y y a y 1 + + 1 y a y y y y y y y y y y y y y y y y y y y y y y y y a y 1 +   ",
"y y y y y y y y y y y y y y y y y y y y y y y y y y y y y 1 + @ 1 y a y y y y y y y y y y y y y y y y y y y y y y y y y y 1 +   ",
"A c a y y y y y y y y y y y y y y y y y y y y y y y y a c 7 # # 7 c a y y y y y y y y y y y y y y y y y y y y y y y y a c 7 #   ",
"8.,.c y y y y y y y y y y y y y y y y y y y y y y y y c @.q $ $ q *.c y y y y y y y y y y y y y y y y y y y y y y y y c *.q $   ",
"v.0.A y y y y y y y y y y y y y y y y y y y y y y t t I 0.r $ $ r 0.I t y y y y y y y y y y y y y y y y y y y y y y y I 0.r $   ",
"v.8.A y y y y y y y y y y y y y y y y y y t y y y y t I 0.r $ $ r 8.^ t y y y y y y y y y y y y y y y y y y y y y y y ^ 0.r *   ",
"r r I A a a a a A I ^ c a y a a c A a a A c a a c ^ I ^ r 6 # # 7 r ^ c a y y a c I ^ A a a y a c ^ I A a a c A a y y c r 7 #   ",
"$ , r ,.j y y c ,.0.0.*.c y y c *.2.c c 2.*.c c ,.0.0.Y , # o o # , r ,.A y y c *.0.0.*.c y y c ,.0.0.@.c c *.*.A y y 9 ; # o   ",
"  # 7 q 7 1 1 7 q r r q 7 1 1 7 q q 7 7 q q 7 7 q r r 7 #         # 6 q 9 1 1 7 q r r q 7 1 1 7 q r r q 7 7 q q 7 1 1 - O       ",
"  o # $ # + + # $ $ $ $ # + + # $ $ # # $ $ # @ $ $ $ # o         o # $ # + + # $ $ $ $ # + + # $ $ $ $ @ # $ $ # + @ O X       ",
". .                                                       .                                                                     "
};
