/* XPM */
static char *B[] = {
/* columns rows colors chars-per-pixel */
"64 64 134 2 ",
"   c #2E242F",
".  c #2F2530",
"X  c #312732",
"o  c #322835",
"O  c #382B37",
"+  c #362C3A",
"@  c #3B2E3B",
"#  c #3B303E",
"$  c #42323C",
"%  c #49373F",
"&  c #4A383F",
"*  c #382F40",
"=  c #3D3344",
"-  c #443643",
";  c #493743",
":  c #473846",
">  c #4A3945",
",  c #4D3C4A",
"<  c #513D47",
"1  c #523E49",
"2  c #55424E",
"3  c #5A434C",
"4  c #564351",
"5  c #594454",
"6  c #5D4758",
"7  c #5F4858",
"8  c #654A4F",
"9  c #664B52",
"0  c #6A4E55",
"q  c #624A59",
"w  c #634A58",
"e  c #60485A",
"r  c #614959",
"t  c #634B5E",
"y  c #654C5D",
"u  c #654D5D",
"i  c #644C5E",
"p  c #654C5E",
"a  c #654C5F",
"s  c #634A5B",
"d  c #694E5B",
"f  c #6A4F5B",
"g  c #6A4F5C",
"h  c #6A4F59",
"j  c #6D5158",
"k  c #6A505C",
"l  c #72535A",
"z  c #71545A",
"x  c #72545A",
"c  c #73545A",
"v  c #74555B",
"b  c #77575D",
"n  c #76565E",
"m  c #77575E",
"M  c #74555C",
"N  c #78595F",
"B  c #7A595E",
"V  c #7C5A5F",
"C  c #7C5A5D",
"Z  c #664D60",
"A  c #674E60",
"S  c #664D60",
"D  c #684E61",
"F  c #684F61",
"G  c #694F61",
"H  c #684F62",
"J  c #694F62",
"K  c #6A4F62",
"L  c #694F62",
"P  c #6A5062",
"I  c #6B5062",
"U  c #6B5063",
"Y  c #6F5360",
"T  c #6F5261",
"R  c #6C5163",
"E  c #6D5263",
"W  c #6F5262",
"Q  c #6F5362",
"!  c #6F5364",
"~  c #6B5062",
"^  c #735663",
"/  c #715564",
"(  c #725564",
")  c #735564",
"_  c #735664",
"`  c #735665",
"'  c #745665",
"]  c #755765",
"[  c #765765",
"{  c #745664",
"}  c #765865",
"|  c #775865",
" . c #775866",
".. c #775865",
"X. c #7E5C60",
"o. c #7F5D61",
"O. c #7D5D63",
"+. c #7E5D62",
"@. c #7F5D62",
"#. c #7E5D63",
"$. c #7F5E62",
"%. c #7F5E63",
"&. c #7A5A64",
"*. c #785966",
"=. c #7C5C63",
"-. c #805D61",
";. c #805E62",
":. c #815E62",
">. c #805E63",
",. c #815E63",
"<. c #825F65",
"1. c #825F67",
"2. c #815E63",
"3. c #815F68",
"4. c #825F68",
"5. c #805E68",
"6. c #836067",
"7. c #856166",
"8. c #866167",
"9. c #876266",
"0. c #846068",
"q. c #846168",
"w. c #8A6569",
"e. c #8B6569",
"r. c #8B656A",
"t. c #8C6569",
"y. c #8C656A",
"u. c #8C666A",
"i. c #8D666A",
"p. c #8C666B",
"a. c #8C656A",
"s. c #8F686B",
"d. c #92696A",
"f. c #986E6D",
/* pixels */
"                                                                  O 5 I I J J J J J J J J J J *.r.;.5 = = = = = = = = = = = o   ",
"                                                              . O : 6 I I J J J J J J I ( E r w l 0 > = = * = = = = = = = + X   ",
"                                                              O , 6 Z J J J J J J J J ( 1.m 1 $ % % O o o o o o o o o o o X .   ",
"                                                              @ 5 I I J J J J J J J ( *.B 8 $ X $ $ + X     X o o o o X         ",
"                                                              @ 5 I I J J J J J J ( 3.V 3 # X $ 9 0 , + X X + # = = = + X       ",
"                                                              @ 5 J I J J J J J J ] 6.m 1 @ @ 2 ;.;.4 = + + = = = = = = + X .   ",
"                                                              @ 5 I I J J J J J J E ( E 7 5 5 g 9.1.4 = * = = = = = = = = + X   ",
"                          .                                   @ r ] ! J J J J J J J J J J J J ] t.;.4 = = = = = = = = = = = o   ",
"                                                            . % v 3.] J J J J J J J J J J J J | t.$.2 = = = = = = = = = = = o   ",
"                                                            . $ 9 m E J J J J J J J J J J J J | r.$.4 = = = = = = = = = = # o   ",
"                                                              X $ 1 r J J J J J J J J J J J J | r.$.4 = = = + + = = = = = # o   ",
"                                                                X # 5 I I J J J J J J J J a 6 h 9.;.4 = = = o o = = = = = # o   ",
"                        .                                         O 5 I I J J J J J J I J 6 : 1 $.$.4 = = = o o = = + + = # o   ",
"                                                                  @ 5 J I J J J J J J I J 6 : 1 $.;.2 = = = + + = = + + = = o   ",
"                                                                  @ 5 I I J J J J J J I J t 6 h 9.$.4 = = = = = = = = = = = o   ",
"                                                                  $ w ^ E J J J J J J J J J J *.t.$.4 = = = = = = = = = = @ o   ",
"                                                                X ; v 1.( J J J J J J J J J I | r.$.4 = = = = = = = = = = @ X   ",
"                                                                  $ 9 m E J J J J J J J J J J | t.;.4 = = = = = = = = = = = X   ",
"                                                                  X $ 1 r J I J J J J J J J J | t.$.4 = = = = = = = = = = = o   ",
"                                                                      # r ( E I J J J J I I I E B 0 > = = = = = = = = = = = X   ",
"                                                                      $ x 6.] J J J J J I I I r 1 % + o X + = = = = = = = = X   ",
"                                                                      $ 9 l r 6 a J J a 6 4 5 > +   X o o + + = = = = = = + X   ",
"                                                                      O $ % # : 6 I I 6 > O @ + X . + = = + + o o o o o o X .   ",
"                        .                                             X O @ @ : 6 I I 6 > @ @ # % ; = = = = o . X o o X .       ",
".                                                                     O , 5 5 6 a I J a 6 5 5 r x j , = = = o X + = = + X       ",
"                                                                  X O > 6 I I I J J J J J J J | r.$.2 = = = o o = = = = + X     ",
"                                                                  O , 6 Z I E I J J J J I I I | t.;.4 = = = o o = = = = = + X   ",
".                                                                 @ 5 I I J J J J J J J J Z J ] r.;.2 = = = o o = = = = = = o   ",
"                                                                . # 5 I I J J J J J J J J J J ] r.;.4 = = @ o o = = = = = = X   ",
"                                                                . # 5 J I J J J J J J J I J J ] t.;.2 = = = + + = = = = = = X   ",
"                                                                  @ 5 I I J J J J J J J I J J | t.;.4 = = = = = = = = = = = X   ",
"                                                                  @ 5 I I J J J J J J J J J I | r.;.2 = = = = = = = = = = = X   ",
"                                                                  @ 5 I I J J J J J J J J J J ] r.;.4 = = = = = = = + + = = o   ",
"                                                                  @ 5 J I J J J J J J J J J J | r.;.4 = = = = = = = o o # = X   ",
"                                                                  @ 5 J I J J J J J J J J J J ] r.%.4 - = = = = = = o o # = o   ",
"                                                                  # r ^ E J J J J J J J J E ( *.=.h , = = = = = = = + + = = o   ",
"                                                                . % x 6.] J J J J J J J J ( 1.B 3 ; - = = = = = = = = = = = X   ",
"                                                                  % V t.| J J J I I I J I *.t.V % X + = = = = = = = = = = + X   ",
"                                                                  % V t.*.J J J J J I J J | t.B ; . . + = = = = + + = = + X .   ",
"                                                                  $ 9 l r 6 a a 6 5 5 5 5 r l 9 $ .   . + = = + X X + + X       ",
"                                                                  o $ % # > 6 6 > @ @ @ # $ % $ X     . X o o X . . X X .       ",
"                                                              X O @ @ @ @ > 6 6 > @ @ @ @ O X         . X o o o o o o X .       ",
"                                                              O , 5 5 5 5 6 a a 6 5 5 5 5 , O         X + = = = = = = + X       ",
"                                                              O 5 I I J J I J J I J J I I r 1 $ X   X + = = = = = = = = o       ",
"                                                            . @ 5 I E I I I J J I I J I I E m 9 $ X + = = = = = = = = = o       ",
"                                                            . @ 5 I I J J J J J J J J J J | t.B % X @ = = = = = = = = = + X     ",
"                                                              @ 5 J I J J J J J J J J J J | t.V ; o @ = = = = = = = = = = + X   ",
"                                                            . @ 5 I I J J J J J J J J J J | r.;.3 ; = = = = = = = = = = = # X   ",
"                                                              @ 5 I I J J J J J J J J J J | r.d.;.0 , = = = = = = = = = = = o   ",
"                                                              O 5 J I J J J J J J J J J J ] r.f.f.$.4 = = = = = = = = = = # o   ",
"                                                              @ 5 J I J J J J J J J J J J ] r.f.f.;.4 = = = = = = = + + = = o   ",
"                                                              $ w ( E J J J J J J J I I J ( 3.s.d.1.4 = = = = = = = o o = = o   ",
"                                                              % x 3.] J J J J J J J J I J I ( 3.t.$.4 = = = = = = # X o = = o   ",
"                                                              $ 9 m E J J J J Z 6 5 5 6 a I I | t.$.2 = = = = = = @ o o = = o   ",
"                                                              X $ 1 r I J I J 6 > O @ : 6 J I | r.V > + = = = = = # o o # = o   ",
"                                                              X O > 6 J I J J r < % ; > 1 4 5 g q.V ; X + = = = # + + + = = o   ",
"                                                            . O , 6 Z J J J J E m B B 0 > O @ 2 $.V %   X o o o o + + = = # o   ",
"                                                              @ 5 I I J J J J ( 3.r.t.m < @ O > 0 9 % o o o o X . X + @ = + X   ",
"                                                              @ 5 I I J J J J E ( | | E r 5 5 2 > % # = = = = + X . X o o X .   ",
"                                                            . # 5 I I J J J J J J J J J J J J r < ; = = = = = = + o o o o X .   ",
".                                                             @ 5 I I J J J J J J J J J I J I E m 0 , = = = = = = = = = = + X   ",
"                            .                                 O , 6 Z J J J J J J J J J J J J | t.;.2 = = = = = = = = = = = o   ",
".                                                             . O : 6 I I J J J J J J J J J J | t.;.2 = = = = = = = = = = = o   ",
"                  .     .                                         @ 5 I I J J J J J J J J J J *.r.$.2 = = = = = = = = = = = o   "
};
