/* XPM */
static char *C[] = {
/* columns rows colors chars-per-pixel */
"64 64 141 2 ",
"   c #2E242F",
".  c #2F2530",
"X  c #312732",
"o  c #332834",
"O  c #392C37",
"+  c #362C3A",
"@  c #3B2E3B",
"#  c #3B303E",
"$  c #42323C",
"%  c #48363F",
"&  c #3D3445",
"*  c #433543",
"=  c #493744",
"-  c #463847",
";  c #4B3944",
":  c #413748",
">  c #443848",
",  c #4E3D4B",
"<  c #523D47",
"1  c #513D4A",
"2  c #4F404D",
"3  c #53424F",
"4  c #5A434A",
"5  c #564450",
"6  c #5A4455",
"7  c #5E4857",
"8  c #5E4758",
"9  c #5F4859",
"0  c #654B54",
"q  c #694D53",
"w  c #654C5F",
"e  c #664D5F",
"r  c #634A5B",
"t  c #6B5057",
"y  c #6F535B",
"u  c #6F545B",
"i  c #6F545B",
"p  c #71535A",
"a  c #72535A",
"s  c #70545B",
"d  c #72545A",
"f  c #73545A",
"g  c #73555A",
"h  c #72545B",
"j  c #76565D",
"k  c #77575D",
"l  c #77575E",
"z  c #77575F",
"x  c #74555B",
"c  c #77585E",
"v  c #78585D",
"b  c #7A595C",
"n  c #7B595C",
"m  c #7B5A5D",
"M  c #7A595E",
"N  c #664D60",
"B  c #674D60",
"V  c #684E61",
"C  c #684F61",
"Z  c #694F61",
"A  c #684F62",
"S  c #694F62",
"D  c #6A4F62",
"F  c #694F62",
"G  c #6A5062",
"H  c #6B5062",
"J  c #6A5063",
"K  c #6B5063",
"L  c #6E5260",
"P  c #6E5261",
"I  c #6F5361",
"U  c #6C5162",
"Y  c #6C5163",
"T  c #6D5163",
"R  c #6D5263",
"E  c #6F5362",
"W  c #6E5263",
"Q  c #6F5363",
"!  c #6B5062",
"~  c #715463",
"^  c #715464",
"/  c #715564",
"(  c #725564",
")  c #735564",
"_  c #725565",
"`  c #745664",
"'  c #745665",
"]  c #755765",
"[  c #765765",
"{  c #745664",
"}  c #775864",
"|  c #765865",
" . c #765866",
".. c #775866",
"X. c #765864",
"o. c #7B5A60",
"O. c #7D5B60",
"+. c #7C5C63",
"@. c #7D5C63",
"#. c #7E5C63",
"$. c #7E5D63",
"%. c #7F5E62",
"&. c #7F5E63",
"*. c #795964",
"=. c #785965",
"-. c #785966",
";. c #795966",
":. c #7A5A66",
">. c #7C5C64",
",. c #7D5C63",
"<. c #805E62",
"1. c #805E63",
"2. c #815E63",
"3. c #815F63",
"4. c #815F64",
"5. c #825F67",
"6. c #815E64",
"7. c #805E68",
"8. c #815E68",
"9. c #815F68",
"0. c #835F68",
"q. c #825F68",
"w. c #826064",
"e. c #846165",
"r. c #836069",
"t. c #856168",
"y. c #846068",
"u. c #8B656A",
"i. c #8B656B",
"p. c #8C6669",
"a. c #8C656B",
"s. c #8C666A",
"d. c #8D666A",
"f. c #8E676A",
"g. c #8E676B",
"h. c #8F676B",
"j. c #8C666A",
"k. c #8F686B",
"l. c #956B6C",
"z. c #936A6B",
"x. c #996E6D",
/* pixels */
"      o & & & & & & & & o     % m g.;.Z Z Z Z Z Z Z Z G G 6 #                                                                   ",
"      o & & & & & & & & + X   # 0 l E G Z Z Z Z Z E ` ~ r , O                                                                   ",
"      o & & & & & & & & & + X X $ < r G G Z Z Z Z ^ 8.l < O X                             .                       .             ",
"      o # & & & & & & & & * * % # * 1 7 w Z Z Z Z E l 0 $                                                                       ",
"    . o & & & & & & & & & 1 q h 0 1 * = 8 Z Z G Z r < $ X                                                                       ",
"  . X + & & & & & & & & & 5 1.g...7 = = 8 Z Z Z G r < $ X                                                                       ",
"  X + & & & & & & & & & & 5 1.g.;.w 7 7 w Z Z Z Z E l 0 $                                                                       ",
"  o & & & & & & & & & & & 3 y >.;.^ E Z Z Z Z Z Z ` 8.O.4 $ X                                                                   ",
"  o & & & & & & & & & & & > , 0 >.5.` G Z Z Z Z Z E ^ ;.o.q $ .                                                                 ",
"  X + & & & & & # # @ & & & & 5 5.g.8.` E G G Z Z B Z ` 5.h %                                                         .         ",
"  . X o o o o o o o X o o + & 5 1.l.g.8.^ Z Z Z Z Z Z E ` 0 #                                                                   ",
"  . X o o o o o o o o X . X + - q m m h 0 6 6 r E ` E Z Z 8 = O X                                                               ",
"  X + & & # @ # & & # + X   X + $ % ; % $ O @ < l 8.` Z Z w 8 , O                                                               ",
"  o & & & & & & & & & & + o o + $ % $ # # O X $ 0 l E Z Z E ` r $                                                               ",
"  o & & & & & & & & & & & @ & ; q p 0 6 5 , O X $ < r Z Z ` t.h %                                                               ",
"  o & & & & & & & & & & & & & 5 1.g...Z Z 8 ; O # ; 8 Z Z E l q $                                                               ",
"  o & & + + & & & & & & & & & 5 w.g...Z Z w 7 6 6 7 B Z Z r < $ o                                                               ",
"  o # & + O @ & & & & & & & & 5 %.p...Z Z Z Z Z Z Z Z E ^ 0 $                                                                   ",
"  o & & & + O + & & & & & & & 3 1.g...Z Z Z G G G Z Z ^ 8.p %                                                                   ",
"  X & & & & o X & & & & & > , 0 %.8.^ Z Z Z Z Z Z Z Z ..g.m ;                                                                   ",
"  X # & & & o X & & & & & 2 h %.;.^ E Z Z Z Z Z Z Z Z ..g.m =                                                                   ",
"  X & & & # o o & & & & & 5 %.p...Z Z Z Z Z Z Z Z Z Z ..g.m =                                                                   ",
"  o # & & & o o # & & & & 5 1.p.` Z Z Z Z Z Z Z Z Z Z ..g.m %                                                                   ",
"  o & & & & o o & & & & & 5 5.g.` Z Z Z Z Z Z Z Z Z Z E c q $                                                                   ",
"  o & & & & X X & & & & & 5 %.p...Z Z Z Z Z Z Z Z G Z r < $ o                                                                   ",
"  o & & & & + + & & & & & 2 u %.;.^ E Z Z Z Z Z Z G G 6 @                                                                       ",
"  o & & & & & & & & & & & : 3 0 >.8.~ Z Z Z Z Z Z Z Z 6 @                                                                       ",
"  o & & & & & & & & & & & & & 3 w.p.^ Z Z Z Z G G w 7 3 ; $ O                                                                   ",
"  o & & & & & & & & & & & & & 5 %.p.;.G Z Z Z G G 8 ; ; q q $                                                                   ",
"  X + & & & & & & & & & & & & 5 1.z.&.X.E Z Z w 7 3 ; 4 m h %                                                                   ",
"  . X + & & & & & & & & & & & 3 1.l.g.5.~ Z Z 7 > ; q m ;.0 $                                                                   ",
"      X + & & & & & # & & # & ; 0 m m m } ..` r - < l t.` 6 @                                                                   ",
"      . X o o o o o X o o X o O $ % = 4 m g.p.>.r 9 E ` E 6 @                                                                   ",
"      . X X . . X o o o o o o O $ % % 4 m g.g.5.^ Z Z G Z 6 @                                                                   ",
"      X + + X X + & & & & # & ; q m m m } ` ` ^ E Z Z G Z 6 #                                                                   ",
"  . X + & & o X + & & & & & & 5 %.l.f.5.^ Z Z Z Z Z Z G Z 6 @                                                                   ",
"  X + & & & o . X + & & & & & 5 5.z.8.^ G Z Z Z Z Z Z G Z 6 @                                                                   ",
"  X & & & & + X   o & & & & & 5 1.p...Z Z Z Z Z Z Z Z Z Z 8 ; O X                                                               ",
"  o & & & & & + X o & & & & & 5 1.p.` Z Z Z Z Z Z Z Z Z Z B 8 , O                                                               ",
"  o & & & & & & + + & & & & & 5 %.p.` Z Z Z Z Z Z Z Z Z Z G Z 6 @                                                               ",
"  X & & & & & & & & & & & & & 5 1.p.` Z Z Z Z Z Z Z Z Z Z G G 6 @                                                               ",
". o & & & & & & & & & & & & & 5 %.p...Z Z Z Z Z Z Z Z Z Z G Z 6 #                                                               ",
"  o & & & & & & & & & & & & & 5 %.g...Z Z Z Z Z Z Z Z Z Z G Z 6 #                                                               ",
"  X & & & & & & & & & & & & & 3 %.g.` Z Z Z Z Z Z Z Z Z Z Z Z 6 @                                                               ",
"  o & & & & & & & & & & * & + ; m g...Z Z Z Z Z Z Z Z Z Z Z Z 6 @                                                               ",
"  X + & & & & & & & & & & & o $ q m ;.^ E G G G Z Z Z E ^ ;.;.r $                                                               ",
"    X + & & & & * & & & & & o o $ 4 m t.^ Z Z Z Z Z Z ^ 8.g.g.h %                                                               ",
"      o & & & & & & & & & + X     $ 0 h 0 6 6 8 w Z G E l m m 0 $                                                               ",
"      X # & & & + o o o o X .     X $ % $ @ @ = 8 G G 9 , = % $ O                                                               ",
"      X @ & & @ + X . . X X   o $ % $ @ @ @ @ = 8 Z G 8 = O X                                                                   ",
"      . X o o + + + X X + + X $ 0 h 0 5 5 6 6 8 B Z Z w 8 , O                                                                   ",
"      . X o o + & & + + & * * 4 m 8.^ Z Z Z Z Z Z Z Z Z Z 8 ; O X                                                               ",
"    . X + & & & & & & & & , t o.;.` R Z G G G G Z Z Z Z G B 8 , O                                                               ",
"  . X + & & & & & & & & & 5 %.g...Z Z Z Z Z Z Z Z Z Z Z Z G Z 8 ; O X                                                           ",
"  X + & & & & & & & & & & 5 1.g...Z Z Z Z Z Z Z Z Z Z Z Z G Z B 8 , O                                                           ",
"  o # & & & & & & & & & & 5 %.p.` Z Z Z Z Z Z Z Z Z Z Z Z Z Z G Z 6 @                                                           ",
"  o # & & & & & & & & & & 5 %.p.` Z Z Z Z Z Z Z Z Z Z Z Z Z Z G G 7 #                                                           ",
"  o & & & & & & & & & & & 5 %.f.5.^ G Z Z Z Z Z Z Z Z Z Z Z Z B 8 1 O                                                           ",
"  o & & & & & & & & & & & 5 1.l.f.8.^ Z Z Z Z Z Z Z Z Z Z Z Z 8 = O X                                                           ",
"  o & & & & & & & & & & & 5 1.x.x.p.^ Z Z Z Z Z Z Z Z Z Z G Z 6 @                                                               ",
"  o & & & & & & & & & & & 5 >.x.x.p.` Z Z Z Z Z Z Z Z Z Z G Z 6 @                                                               ",
"  X + & & & & & & & & & & , u e.z.g.>.^ G Z Z Z Z Z Z Z Z B 8 1 O                                                               ",
"    X + & & + + & & & & & > , 0 e.l.g.8.^ Z Z Z Z Z Z G Z 8 ; O X                                                               ",
"      o # & o o & & & & & & & 5 %.x.x.p.` Z Z Z Z Z Z G Z 6 @                                                                   "
};
