/* XPM */
static char *E[] = {
/* columns rows colors chars-per-pixel */
"64 64 137 2 ",
"   c #2E242F",
".  c #2F2530",
"X  c #312732",
"o  c #332935",
"O  c #392B36",
"+  c #362C39",
"@  c #392F3D",
"#  c #3C313E",
"$  c #44343D",
"%  c #49373F",
"&  c #3D3444",
"*  c #3F3648",
"=  c #423644",
"-  c #493740",
";  c #463846",
":  c #4C3943",
">  c #423748",
",  c #46394A",
"<  c #4C3C4B",
"1  c #513D45",
"2  c #513F4A",
"3  c #54414E",
"4  c #5B444C",
"5  c #554352",
"6  c #5A4653",
"7  c #5E4856",
"8  c #5D4758",
"9  c #5F4859",
"0  c #62484E",
"q  c #654B52",
"w  c #6A4E55",
"e  c #634B5C",
"r  c #694F5A",
"t  c #6C5056",
"y  c #6D5159",
"u  c #725357",
"i  c #75555A",
"p  c #78575E",
"a  c #77585D",
"s  c #7A595F",
"d  c #795A5E",
"f  c #7A5A5E",
"g  c #7A5A5F",
"h  c #7A595D",
"j  c #7C5A5D",
"k  c #7C5A5E",
"l  c #7B595E",
"z  c #674E61",
"x  c #674E61",
"c  c #684F61",
"v  c #684F62",
"b  c #694F62",
"n  c #684F62",
"m  c #6A5062",
"M  c #6A5063",
"N  c #6B5063",
"B  c #6A5163",
"V  c #6E5261",
"C  c #6C5162",
"Z  c #6C5163",
"A  c #6B5062",
"S  c #775763",
"D  c #715464",
"F  c #725464",
"G  c #735564",
"H  c #745664",
"J  c #745665",
"K  c #755665",
"L  c #755765",
"P  c #765765",
"I  c #745664",
"U  c #765863",
"Y  c #775864",
"T  c #775865",
"R  c #775864",
"E  c #7B5B60",
"W  c #7B5B61",
"Q  c #7B5C61",
"!  c #7C5C61",
"~  c #7D5C61",
"^  c #7C5C62",
"/  c #7D5C62",
"(  c #7F5D62",
")  c #7F5E62",
"_  c #785966",
"`  c #795966",
"'  c #795A66",
"]  c #7A5B67",
"[  c #7F5E67",
"{  c #7B5B64",
"}  c #805D5F",
"|  c #815D5F",
" . c #825E61",
".. c #805E62",
"X. c #805E63",
"o. c #815E65",
"O. c #825F64",
"+. c #805E67",
"@. c #815E67",
"#. c #805E64",
"$. c #815F68",
"%. c #825F68",
"&. c #866265",
"*. c #866267",
"=. c #876267",
"-. c #866267",
";. c #886367",
":. c #896367",
">. c #876268",
",. c #876368",
"<. c #866268",
"1. c #886368",
"2. c #896368",
"3. c #896469",
"4. c #8A6469",
"5. c #8A6569",
"6. c #8B6569",
"7. c #8A646A",
"8. c #8A656A",
"9. c #8B656A",
"0. c #8C6568",
"q. c #8F6768",
"w. c #8C656A",
"e. c #8C666A",
"r. c #8D666B",
"t. c #8E676A",
"y. c #8F676B",
"u. c #8B656A",
"i. c #8F686B",
"p. c #906869",
"a. c #91696A",
"s. c #91696B",
"d. c #926A6B",
"f. c #91696C",
"g. c #946A6C",
"h. c #936A6B",
"j. c #986E6D",
/* pixels */
"                                                                                                                                ",
"                              . o o o o o o o o o o o o o o X         . o o o o o o o o o o o o o o X             X o o o o o o ",
"              . . . . . . . . X @ @ @ @ @ @ @ @ @ @ @ # @ + o         X @ @ @ @ @ @ @ @ @ @ @ @ @ + o . .       . o + @ @ @ @ @ ",
"          . X o o o o o o o o + & & & & & & & & & & & & & @ o . X o o + & & & & & & & & & & & & & & + o o X . . X + & & & & & & ",
"          o @ & & & & & & & & & & & & & & & & & & & + o o X X o @ & & & & & & & & & & & & & & & & & & & & @ o o @ & & & & & + o ",
"      . o + @ & & & & & & & & & & & & & & & & & & & @ o o X . o & > > & & & & & & & & & & & & & & & & & & @ o o & & & & & & @ o ",
"      X @ @ + + & & & & & & & & & & & & & & & & & & & @ @ + o o & > > & & & & & & & & & & & & & & & & & & @ o o & & & & & & & @ ",
"    . o & & + + @ & & & & & & & & & & & & & & & & & & & & @ o o @ & & & & & & & & & & & & & & & & & & & & @ o o & & & & & & & & ",
"    . o & & & @ + + & & & & & & & & & & & & & & & & & & & @ o . o + & & & & & & & & & & & & & & & & & & & @ o o & & & & & & & & ",
"  X o + & & & & + + @ & & & & @ @ & & & & & & & & & & & & & @ o . + # & & & & & & # @ @ @ @ @ @ @ @ @ @ @ + o X @ @ @ @ @ @ @ @ ",
"  o + & & & & & # @ + + & & @ o o @ & & & & & & & & & & & & & @ X o @ & & & & & + + o o o o o o o o o o o o X . o o o o o o o o ",
"  o @ & & & & & & # + + & @ + o o + & & & & & & & & & & & & & & o o @ & & & & & + o o o o o o o o o o o .     . o o o o o o o o ",
"  o @ & & & & & & & & @ + + @ & & & & & & & & & & & & & & & & & o o @ & & & & & & & & & & & & & & & & + X . . X + & & & & & & & ",
"  o @ & & & & & & & & @ + + @ & & & & & & & & & & & & & & & & & o o @ & & & & & & & & & & & & & & & & & + o . o & & & & & & & & ",
"  o @ & & & & & & & @ + @ + + + & & & & & & & & & & & & & & & & o o @ & & & & & & & & & & & & & & & & & & + o o & & & & & & & & ",
"  o @ & & & & & & + X o & @ o o & & & & & & & & & & & & & & & & o o @ & & & & & & & & & & & & & & & & & & @ o o & & & & & & & & ",
"  o @ & & & & & + X . o & # o o & & & & & & & & & & & & & & & & o . X + & & & & & & + o o o o + & & & & & @ o o & & & & & & & & ",
"  o @ & & & & & + o o + & & @ + @ & & & & & & & @ @ @ & 2 6 6 3 1 % O @ 2 6 6 6 6 4 1 : : : : 1 3 6 6 6 6 : # @ 2 3 , & & & & & ",
"  o @ & & & & & & # @ & & & & @ + @ & > > > > > @ + + - t g ) g a 4 % $ q g ) Q Q g u u u u u u g E E ) ) q % $ w y 5 > > > > > ",
"  o @ & & & & & & & & & & & & & o @ ; 3 3 3 3 3 : % - 4 ..d.d.y.3.t - $ w @.3.3.3.3.3.3.3.3.3.3.3.3.3.y.g.u : - g ..y 3 3 3 3 3 ",
"  o @ & & & & & & & & & & & & & X % q ) ......) j g j ..d.y.@.L L 7 = + ; 7 C L L L L L L L L L L L T @.y.u : - g y.:...) ) ) ..",
"  o @ & & & & & & & & & & & & > - 0 | d.3.>.>.>.&.&.&.1.3.@.L N N 8 < = < 5 e N N N N N N N N N N b C T y.u 1 % u &.3.>.>.>.>.>.",
"  o @ & & & & & & & & & & & > < w | q.y.[ ` ` ` ` ` ` ` ` D C z b e 8 6 6 9 e z b b b b z z z b b b N L 1.u : $ q U ` ` ` ` ` ` ",
"  o @ & & & & & & & & & & > < e &.d.y.@.D b z b b b b b b b b b b b b b b b z z b b b b b b b b b C D U g q - & 6 b N b b b b b ",
"  . X + & & & & & & & & & 3 y &.d.y.[ V N b z z b b z z z z b b z z b b b b z z z z b b b b z z b L [ g 4 - # , 9 b N z z z b b ",
"    . o & & & & & & & & & 6 g g.j.3.T b z z b b b b b b b b b b z z z b b b b b b z z b b b b z b ` &.g - + @ , 9 b N b b b b b ",
"    . o & & @ + & & & & & 6 ) j.j.1.L z z b b b b b b b b b b b b z b b b b b b b b b b b b z z b ` &.g % o @ , 9 b N b b b b b ",
"    . o & @ o o & & & & & 6 ) g.y.@.F b b b b z b b b b b b b b b b b b b b b b b b b b b b z z b L [ a - @ & , 9 b N b b b b b ",
"    . o & @ o o & & & & & 6 ) y.[ D N b b b b z z z b b b b z z b b b b b b b b b b b b b b b z b V D e < & & , 9 b N b b b b b ",
"      X @ + o o & & & & & 6 ) 3.C e e N b b b b z b b b z z z z b b b b b b b b b b b b b b b z b N N e 5 , > , 9 z b b N N N N ",
"      . o o X o & & & & & 6 g ..7 5 9 b b b b b z z b b b b z b z b z b b b b b z z b b b b b b b z b z e 5 , < e b N b b z z b ",
"      . X X . o @ & & & & 2 q w ; ; 5 e z b b b b z b b b b b b z z z b b b z z z z z z b b b b b b b b N 9 5 5 N L L C e 6 6 6 ",
"    . o @ + o . X o o o o @ $ $ @ @ = 3 e b b b b b b b z z z z z b b b b b b b b b b b b b b b b b b b b e e N @.y.3.p < # @ $ ",
"    . o & & @ o . . o o o # % % o X + = 5 e b N N b z b b b z z z b b b b C D ` ` ` ` ` ` C e 5 5 5 5 6 6 5 5 7 y u u q # X X X ",
"    . o & & & @ X X + @ @ : q q $ X o @ , 5 e b N b b b b b b b b b b b N F [ &.&.&.&.&.&.i 3 # # # # = = # # - - : : % + .     ",
"    . o & & & & o o @ & & 6 E ..4 - % = & > 2 e z N N b b b b b b b b C D S g g g j j j j q %                                   ",
"    . o & & & & o o @ & & 6 ) i...j a w = + O - 9 b N b b b b b b z N D <.a 4 - - - - - - # +                                   ",
"  X o + & & & & + @ & & & 2 y ..y.d.:.a 2 + X O < 6 e b b b b b z b N C i 0 % X X X X X X X .                                   ",
"  o + & & & & & & & & & & , 3 r &.y.>.F 7 ; + X @ < 7 b b z z b b N b e 3 % +                                                   ",
"  o @ & & & & & & & & & & & > 3 ) >.` b b 7 ; @ @ ; 7 b b b z b z e 9 < + .                                                     ",
"  o @ & & & & & & & & & & & > 3 ) >.` b b e e 6 5 8 e b b b b b b 7 ; + X                                                       ",
"  o @ & & & & & & & & & & & > 3 ) >.` b b N b z z z b b b z b C L q - .                                                         ",
"  o @ & & & & & & & & & & & > 3 ..>.` b b b N B B N b b b b N D @.w %                                                           ",
"  o @ & & & & & & & & & & & > 3 ..>.` b b b b b b b b b b C D S g q %                                                           ",
"  o @ & & & & & & & & & & & > 3 ..>.` b b b b b b b b b b L @.g 4 $ +                                                           ",
"  o @ & & & & & & & & & & & > 3 ) >.` b b b b b b b b b b C i q $ X .                                                           ",
"  o @ & + @ & & & & & & & & > 3 ) >.` b b b b b z z b b N e 3 % o .                                                             ",
"  o # & + + @ & & & & & & & > 3 ) >.` b z b b z z z b C D 7 = .                                                                 ",
"  o @ & & @ + + & & & & & & > 3 ..>.` b b b b b b b N D <.w %                                                                   ",
"  o @ & & @ + o & & & & & , 3 q ) [ D b b b b b b z N L 3.u :                                                                   ",
"  o @ & & @ o o & & & & & 3 r E ` D C b b b b b b z N L y.u :                                                                   ",
"  o @ & & @ o o & & & & & 6 E 3.L N z b z b b b b z N L 3.u :                                                                   ",
"  o @ & & @ o o & & & & & 6 ) y.L b z z z z b b b z N L 3.u :                                                                   ",
"  o @ & & @ o o & & & & & 6 ) y.L b z z z z b b b b b C a 0 $                                                                   ",
"  o @ & & # + o & & & & & 6 g 3.L N b b b b b b b N b e 2 % O                                                                   ",
"  o @ & & & + + & & & & & 3 y @.` D N b b b b b b N b 6 @ .                                                                     ",
"  o @ & & & & & & & & & & > < e [ [ D b b b b b b V N 6 @ .                                                                     ",
"  o @ & & & & & & & & & & & > 5 &.>.T z b b b b N e 7 3 : $ O                                                                   ",
"  o @ & & & & & & & & & & & > 3 ..>.` b b b b b b 6 < < q 4 $                                                                   ",
"  o @ & & & & & & & & & & & > 3 ..3.@.D C b b e 9 2 : 4 g t -                                                                   ",
"  . X + & & & & & & & & & & > 3 ..d.i.%.D N z e ; 1 q g S 7 =                                                                   ",
"    . X @ @ @ @ @ @ @ @ @ @ & ; q u u a S ` T r < 3 y @.F 5 #                                                                   ",
"      . o o o o o o o o o o + @ % % : 4 g 3.3.` e e y L C 5 #                                                                   ",
"                                    X - j g.j.3.L N b b b 6 =                                                                   "
};
