/* XPM */
static char *f[] = {
/* columns rows colors chars-per-pixel */
"64 64 128 2 ",
"   c #2D242F",
".  c #2F2530",
"X  c #312632",
"o  c #332935",
"O  c #382C37",
"+  c #362C3A",
"@  c #3A2E3B",
"#  c #3B303E",
"$  c #43333D",
"%  c #49363F",
"&  c #3D3445",
"*  c #453540",
"=  c #483742",
"-  c #4C3943",
";  c #4C3A49",
":  c #503C46",
">  c #513D48",
",  c #55404C",
"<  c #5B434B",
"1  c #564151",
"2  c #5B4455",
"3  c #5E4758",
"4  c #5F4859",
"5  c #61474D",
"6  c #63494F",
"7  c #634A54",
"8  c #694D53",
"9  c #654C5E",
"0  c #634A5C",
"q  c #6E5157",
"w  c #6E5157",
"e  c #6C5058",
"r  c #6F5158",
"t  c #6F525B",
"y  c #6E5159",
"u  c #71535A",
"i  c #755559",
"p  c #765559",
"a  c #765659",
"s  c #77575A",
"d  c #76565B",
"f  c #73555F",
"g  c #77575C",
"h  c #77575D",
"j  c #77575E",
"k  c #75565B",
"l  c #79585C",
"z  c #7B595C",
"x  c #78585E",
"c  c #79585E",
"v  c #7A595F",
"b  c #7C595C",
"n  c #7C5A5D",
"m  c #7D5B5E",
"M  c #7A595E",
"N  c #674E60",
"B  c #674E61",
"V  c #674E62",
"C  c #674E61",
"Z  c #684E61",
"A  c #684E62",
"S  c #684F62",
"D  c #694F62",
"F  c #694F63",
"G  c #6A4F62",
"H  c #694F62",
"J  c #6A5062",
"K  c #6B5062",
"L  c #6A5063",
"P  c #6B5063",
"I  c #6B5163",
"U  c #6D5161",
"Y  c #6E5261",
"T  c #6D5162",
"R  c #6C5163",
"E  c #6D5262",
"W  c #6D5263",
"Q  c #6E5263",
"!  c #6F5363",
"~  c #6A5064",
"^  c #6D5164",
"/  c #6D5264",
"(  c #6E5264",
")  c #6F5365",
"_  c #6C5163",
"`  c #715463",
"'  c #735563",
"]  c #705364",
"[  c #715464",
"{  c #725464",
"}  c #725564",
"|  c #735564",
" . c #735665",
".. c #745664",
"X. c #745665",
"o. c #755765",
"O. c #755766",
"+. c #765766",
"@. c #735664",
"#. c #775863",
"$. c #755865",
"%. c #765866",
"&. c #775866",
"*. c #775865",
"=. c #795961",
"-. c #7A5A64",
";. c #795A67",
":. c #7A5A67",
">. c #7B5A67",
",. c #7B5B67",
"<. c #7E5C66",
"1. c #7E5D66",
"2. c #7F5D66",
"3. c #7F5E66",
"4. c #7C5B66",
"5. c #815E67",
"6. c #815E67",
"7. c #815E68",
"8. c #815E68",
"9. c #866167",
"0. c #836068",
"q. c #866268",
"w. c #846068",
"e. c #886369",
"r. c #8A6469",
"t. c #8C656A",
"y. c #8C676B",
"u. c #8A646A",
/* pixels */
"  o @ & & & & & & & & & & & & & & @ o % n q.;.D D D D D D ~ B 2 @ .                                                             ",
"o + @ & & & & & & & & & & & & & & # * < c 3...D D D D D D J D 3 ; @ X                                                           ",
"# @ + + & & & & & & & & & & & & + * 6 j #.' U D D D D D D J D 9 2 ; @                                                           ",
"& & + o @ & & & & & & & & & & # o - i r.$.J B D D D D D D D D D D 2 $                                                           ",
"& & & @ o o o + & & & & & & & @ o - i y.$.J B D D D D D D D D D J 2 $                                                           ",
"& & & & + o o + @ & & & & & # # = 5 c 5.{ J D D D D D D D D D D J 2 $                                                           ",
"& & & & & # @ @ + + & & & # @ * 7 i =.{ U J D D D D D D D D J J D 1 $                                                           ",
"& & & & & & & & + + @ # # # * < c 3.$.D D D D D D D D D D U ' U 0 ; @                                                           ",
"& & & & & & & & & @ + X X = 7 c #.' U D D D D D D D D D D $.3.j > @ X                                                           ",
"& & & & & & & & & # o     = t 7.{ U D D D D D D D D D D D ;.e.n = X                                                             ",
"& & & & & & & & & # o .   $ 7 ..J D D D D D D D D D D D J ;.9.c % X                                                             ",
"& & & & # # # @ @ # $ $ o @ ; 2 2 3 9 D D D D D D D J / ..;.c 8 $ X                                                             ",
"& & & & + o o X o = 6 8 $ o o @ @ ; 2 D D D D D D D J ..0.j < $ o .                                                             ",
"@ @ @ # = - - = $ , t j > * # @ X @ ; 2 B 9 3 1 1 1 2 7 t 5 % X                                                                 ",
"o o + * 7 i i q 2 0 U { 0 2 1 ; O o @ ; 4 2 ; # # # $ $ = $ o                                                                   ",
"% $ $ > j r.y.0.{ J D D D J D 0 > $ o @ ; ; @                                                                                   ",
"n u 7 4 U ..$.../ D D D D D J U j 6 % o @ @ X                                                                                   ",
"q.3.{ D J U U U J D D D D D J { 3.8 %                                                                                           ",
";.../ F B B D D D D D D D D D / ..7 % .                                                                                         ",
"D D D 9 3 3 9 D D D D D D D D D D 0 > $ o .                                                                                     ",
"D J D 3 = ; 2 D D D D D D D D D D U j 8 $ X                                                                                     ",
"D ~ B 2 # * 7 ;.;...U D D J D 9 2 7 8 6 $ X                                                                                     ",
"D ~ B 2 # = 8 e.e.3.' D D D B 3 ; * = % o .                                                                                     ",
"D J D 3 = > 8 c n c #.{ U B 3 ; @ .                                                                                             ",
"D D D 9 3 1 ; % % < j 0...4 ; @ X                                                                                               ",
"D D D D B 3 ; @ o % 5 t 7 ; @ . .                                                                                               ",
"D D D D J 9 2 ; o o $ = $ @ X                                                                                                   ",
"D D D D D B 4 ; @ .                                                                                                             ",
"D D D J J 2 ; @ o                                                                                                               ",
"1 1 1 1 1 ; @ . .                                                                                                               ",
"$ $ $ * $ @ o                                                                                                                   ",
"@ @ # $ % $ o                                                                                                                   ",
"2 2 2 7 u 6 %                                                                                                                   ",
"B B D ] 3.u , $ % - - % o                                                                                                       ",
"~ ~ ~ / $.U 0 2 q i i 6 $ X                                                                                                     ",
"D D D D D D J { 0.y.r.c < $ o                                                                                                   ",
"D D D D D D D / ..$.$.#.c 6 %                                                                                                   ",
"D D D D D D D D U J U $.r.i -                                                                                                   ",
"D D D D D D D D D D J $.y.i -                                                                                                   ",
"D D D D D D D D D D J ..0.q %                                                                                                   ",
"D D D D D D D D D D D / { 7 $                                                                                                   ",
";...U B B D D D D D D D J 4 ; @ o                                                                                               ",
"q.3.' J J J D D D D D D D 9 2 ; @ .   . . . .                                                                                   ",
"n c #.$.$.{ U D D D D D D B 4 ; @     o $ $ o                                                                                   ",
"% < j y.y.5.{ D D D D D D 2 ; @ o   . $ 8 6 %                                                                                   ",
"o * 6 i i j =.$.U D D 9 2 ; @ o % % * > f 8 =                                                                                   ",
"@ # * - - 5 j 3.' U D 0 ; @ o $ 6 8 7 0 U 7 * .                                                                                 ",
"& & + o o = 7 c #.{ J 2 @ o @ > j 3...D D 2 ; @ X .                                                                             ",
"& & & # @ # * < c 7...2 @ @ ; 4 U ' U D D 9 3 ; @ .                                                                             ",
"& & & & & # @ * 7 t 7 ; o # , B J J D D D D B 3 ; @ X                                                                           ",
"& & & & & & # # * = % @ o * 2 J D D D D D J D B 4 ; @                                                                           ",
"& & & & & & & # X     o $ > 0 D D D D D D D D / ..7 %                                                                           ",
"& & & & & & & # X     $ 8 j ] D D D D D D D U ..0.t =                                                                           ",
"& & & & & & & @ o o o $ 6 u U D D D D D D U { =.j 5 $                                                                           ",
"& & & & & & + + @ # # # = < 0 J D D D D D ..3.c < % o . .                                                                       ",
"& & & & & @ + + & & & # o $ 2 { / J D D D ,.e.n % o o @ @ o X                                                                   ",
"& & & & + + @ & & & & @ X = q 0...J D D D ;.e.c % @ ; 2 2 ; @                                                                   ",
"& & & # o o @ & & & & @ o - i y.$.U D 9 2 7 8 7 ; ; 2 J D 2 #                                                                   ",
"& & & # o o # & & & & @ o - i r...U B 3 ; * = > , 3 9 / U 2 $                                                                   ",
"& & & @ + + & & & & & # + = 7 j U J D 3 = # # = 3 D J D D 2 $                                                                   ",
"& & + o @ & & & & & & & & # * > 4 D J 9 3 2 2 3 B D D D D 2 $                                                                   ",
"@ @ + + & & & & & & & & & @ + $ 7 ' / D D B B B D D D D D 2 $                                                                   ",
"o + @ & & & & & & & & & & @ o $ u 3...D J ~ ~ J D D D D D 2 $                                                                   ",
"  o @ & & & & & & & & & & @ o % n q.;.D D D D D D D D D D 2 $                                                                   "
};
