/* XPM */
static char *tile000_resized[] = {
/* columns rows colors chars-per-pixel */
"128 128 61 1 ",
"  c #261F2A",
". c #2C232E",
"X c #30252F",
"o c #2F2530",
"O c #312631",
"+ c #362A35",
"@ c #3B2D37",
"# c #372B38",
"$ c #3D2E38",
"% c #3F313F",
"& c #44333C",
"* c #48363E",
"= c #3C3445",
"- c #433341",
"; c #493742",
": c #4D3A42",
"> c #453949",
", c #4D3C4C",
"< c #533E44",
"1 c #513E4E",
"2 c #4F3F52",
"3 c #4F404F",
"4 c #574046",
"5 c #584147",
"6 c #55414F",
"7 c #5B434A",
"8 c #554151",
"9 c #5C4552",
"0 c #5E4954",
"q c #5D4759",
"w c #5E485B",
"e c #654A4F",
"r c #654B52",
"t c #6A4E53",
"y c #634B5C",
"u c #6F5155",
"i c #6E525D",
"p c #715255",
"a c #74555B",
"s c #78575E",
"d c #76585F",
"f c #7B595D",
"g c #674E61",
"h c #694F62",
"j c #6D5263",
"k c #725564",
"l c #775866",
"z c #7B5A65",
"x c #7D5C68",
"c c #825F65",
"v c #815F68",
"b c #866164",
"n c #896364",
"m c #856169",
"M c #8A646A",
"N c #8F686A",
"B c #936A6B",
"V c #996E6D",
"C c #9C706F",
"Z c #996E70",
"A c #9D7170",
/* pixels */
"======>9dnVVVVVVVVNxzjhhhhhhhhhghhjzvBVVVVVCAVcp<&     o..X.Xoo.oo.   @:pcVCCVVVVVVVVVVVVVVVVVVVCVnp<+     . .... .    ..X.X.o.o",
"=>====,0dNVVVVBVVVNnzjhhghhhhhhhhhjzvBVCVBBVCBnp<@O oooo...X.oo..oo...&:pnBVVVVBBVVBBVBVVBVBVVBVVVnp<&X  .XXXXoo.Xoo.XXX.XX.o..o",
"=====36ydnNBNVNVBNNxljhghhhhhhhghhjlvMBBBBBBBBcu<&#++@@+X.X...oo..oO+@:<pcNVBBNNBBBBNBBBNBNNBBNBBBcp7*&+&+&++++++++&&+&+OX...ooo",
"==>>39rizxxnnxxMnnxxljhghhhhhhhhhhjlvvvcccMcccci7:;;:<:&&X...o....X@&:7tsccMcMccvMvvcccMcMccvMvvvvcae5<<<<::;-------<**&&.....o.",
"==>30adddxzxzzzzzzlkkhhhhhhhhhhhhhhkkzzzvvzvzzkiy11rtte<&O. .... .O&<tsflzzzczzzclllvllccclclllvlvlsapppppuer111111ette<&X....oo",
"=%30ifmmxkjjjjjkkkjkjhhhhhhhhhhhhhhhjjjjkjjjjjhhgyyazcct*&X...X..X@<tfccckjjkjjkjkkjjkikjjjkkkjkkiklcccnnvccjywwwwyjvcce:&....o.",
"=38ydbMmljhhhhhhgghhhhhhhhhhhhhhhhhhhhhhhhhhhhhhhhjzvMbu7*@XXXXXO@&7pccvljhhhhhhjggjgghhhhhhghhgggkkcNBBBNvvlihgggjvcMcu5*+OOo..",
"80rifmxxljggghgggggghhhhhhhhhhhhhhhhhhhhhhgghhhhhhjvvccat7*&&OO+&<7tfccvljggggghggggggggggghggggggjkcvMnMNvvlkjhjjjlvvcct5:&&Oo.",
"ddddzzzljjhghghghhhhhhhhhhhhhhhhhhhhhhhhhhhhhhhhhhjklxlzkpt<&@O&<epclzlljhgggghghhgghghggghghghgggjjkvvvlvlkkjjhjjjkkvlcspe<&+. ",
"nnnxzkjhhhhhhhhhhhhhhhhhhhhhhhhhhhhhhhhhhhhhhhhhhhhjjjkzccce*@&*ecccvljjjhhhhhhhhhhhhhhhhhhhhhhhgjgjjkhkkjkjjhhhghhhhjjlvcce*&X.",
"VVBxzkhghhhhhhhhhhhhhhhhhhhhhhhhhhhhhhhhhhhhhhhhhhhhhhjznNbu<&&<ubBvzjhghhhhhhhhhhjhhhhhhhhhhhhhhhghhhhhjhgghhhhhhhhhhkvMNcp*&. ",
"VVBNzjggghhhhhhhhhhhhhhhhhhhhhhhhhhhhhhhhhhhhhhhhhhhhhjxMBnp*@&<pnBcvjggghhhhhhhhhhhhhhhhhhhhhhjhhhhhghgghgghgjhhhggghjlNBna<&X ",
"VVBxxkhgghhhhhhhhhhhhhhhhhhhhhhhhhhhhhhhhhhhhhhhhhhgggkvMBnp<&@*pnVnvjgghhhhhhhhhhhhhhhhhhhhhhhhhhhhhghggghghhhhhhhgggkvMBnp<&  ",
"VVNMdkhgghhhhhhhhhhhhhhhjhhhhhhhhhhhhhhhhhhhhhhhhhhhghjzMBcu*&&<ucBMzkhghhhhhhhhhhhhhhhhhhhhhhhhhhhhhhhhhghhhhhhhhhgghjvnBnu4&X ",
"VVNnxjhgghhhhhhhhhhhhhhhhhhhhhhhhhhhhhhhhhhhhhhhhhhhghjzcMct*@&<pnBczjhgghhhhhhhhhhhhhhhhhhhhhhhhhhhhhhhhhhhhhhhhhhgghjvMBcp*&X ",
"VVNxzkhhhhhhhhhhhhhhhhhhhhhhhhhhhhhhhhhhhhhhhhhhhhhhhhjlvvce:&@*pcBNvjhgghhhhhhhhhhhhhhhhhhhhhhhhhhhhhhhhhhhhhhhhhhhggjcMNnu<&X ",
"VVVxzkhghhhhhhhhhhhhhhhhhhhhhhhhhhhhhhhhhhhhhhhhhhhhhhjklzi9-@@<pNBMvjhgghhhhhhhhhjggghhhhhhhhhhhhjhhhhhhhhhhhhhhjggggkvvBnp<&. ",
"VVNnlkhghhhhhhhhhhhhhhhhhhhhhhhhhhhhhhhhhhhhhhhhhhhhhhjjjjy1-@$<pcBnzjhhhghhhhhhhhhhjghhhhhhhhhhhhhhhhhhhhhhhhhhhhhggjjvvNcu<&X ",
"NNNxljgghhhhhhhhhhhhhhhhhhhhhhhhhhhhhhhhhhhhhhhhhhhhhhhjhhy,&+@:ecbcvkjjjghhhhhhhhhhgjhhhhhhhhhhhhhhhhhhhhhhhhhhhhhgggjvMMct:&. ",
"Mxxzljgihhhhhhhhhhhhhhhhhhhhjhhhhhhhhhhhhhhhhhhhhhhhhhhjhhq1=++&<tuafzzlkjhhhhhhhhhhghhhhhhjhhhhhhhhhhhhhhhhhhhhhhhhggjlvvse:+X.",
"xdzljjhhhhhhhhhhhhhhhhhjhhhhihhhhhhhhhhhhhhhhhjhhhhhhhhhhhy1-+O@&*7tscvvlkgghhhhhhhhhhhhhhhhhhhhhhhhhhhhhhhhhhhhhhhhhhjjlsi9-Oo ",
"kjjjjhhhhhhhjhhhhhhhhhhhhhhhghhhhhhhhhhhhhhhhhhhhhhhhhhhhhy1-+OoX&*7pcMvlkhghhhhhgjhhhhhhhhhhhhhhhhhhhhhhhhjhhhhjhhhhhjjjjg1-&o.",
"hhhhhhhhhhhhhhhhhhhhhhhhhhhhhhhhhhhhhhhhhhhhhhhhhhhhhhhjjjy1-@O. X&*eccclihhhhhhhhhhhhhhhhhhhhhhhhhhhhhhhhhhjhhhghhhhhjjkjy9-+o.",
"gghhhhhhhhhhhhhhhhhhhhhhhhhhhhhhhhhhhhhhhhhhhhhhhhhhhhjklzjr;@.  .O&<euahghhhhhhhhhhhhhhhhhhhhhhhhhhhhhhhhhhhhhhghhhghjjlli9;+X ",
"hghhhhhhhhhhhhhhhjhhhhhhhhhhhhhhhhhhjhhhhhhhhhhhhhhhghjlvczt<@o  .X@&:<9yhhjhhhhhhhhhhhhhhhhhhhhhhhhhhhjhhhhhhhhhhhhghjlvvc9:+. ",
"hhhhhhhhhhhhhhhhhhhhhhhhhhhhhhhhhhhhhhhhhhhhhhhhhhhhghjlvMcu<@O...XX+#-:1ygjjhhhhhhhhhjhhhhhhhhhhhhhhhhhhhhhhhhhhhhhghjlvvcu:&X ",
"hhhhhhhhhhhhhhhhhhhhhhhhhhhhhhhhhhhhhhhhhhhhhhhhhhhhhhjxvNct<@. ..XXo+-,1ygjjghhhhhhhhhhhhhhhhhhhhhhhhhhhhhhhhhhhhhgghjvNNcp<+X ",
"hhhhhhhhhhhhhhhhhhhhhhhhhhhhhhhhhhhhhhhhhhhhhhhhhhhhhhjlvczr<@.  .oO+--1wygjjhhhhhhhhhhhhhhhhhhhhhhhhhhhhhhhhhhhhhhghhhvNBnp<&X.",
"hhhhhhhhhhhhhhhhhhhhhhhhjhhhhhhhhhhhhhhhhhhhhhhhhhhhhhjjllkr;+.  .o#-,11yghjhhhhhhhhhhhhhhhhhhhjhhhhhhhhhhhhhhhhhhhgghkvMBnp<&  ",
"hhhhhhhhjhhhhhhhhhhhhhhhhhhhhhhhhhhhhhhhhhhhjhhhhhhhhhjjkjy8;@X..X+-12yggghhhhhhhhhhhhhhhhhhhhhhhhhhhhhhhhhhhhhhhhhhhhjvMBcu<&X ",
"hhhhhhhhhhhhhhhhhhhhhhhhhhhhhhhhhhhhhhhhhhhjhhhhhhhhhhjhhhy1-+OX+@&:1yhhhhhhhhhhhhhhhhhhhhhhhhhhhhhhhhhhhhhhhhhhhhhgghjvvMce:+X ",
"hhhhhhhhhhhhhhhhhhhhhhhhhhhhhhhhhhhhhhhhhhhhhhhhhhhhhhhhhgq1-+O@&:<eyjjjhhhhhhhhhhhhhhhhhhhhhhhhhhhhhhhhhhhhhhhhhhhhggjlccce:&..",
"hhhhhhhhhhhhhhhjhhhhhhhhhhhhhhhhhhhhhhhhhhhhjhhhjgggjggjggw,&++&4epijhjjhjhhhhhhhhhhhhhhhhhhhhhhhhhhhhhhhhhhhhhhhhhhghjklli9;@..",
"hhhhhhhhhhhhhhhhhhjhhhhhhhhhhhhhhhhhhhhhhhhhhhhhggjgjggjjgy1=+@:eccccjgghhhhhhhhhhhhhhhhhhhhhhhhhhhhhhhhhhhhhhighhhhhhhjkjh1;+..",
"hhhhhhhhhhhhhhhhhhhhhhhhhhhhhhhhgihhhhhhhhhhhhhhgjgjggjjkjy8-+$:tcMmcgjghhhhhhhhhhhhhhhhhhhhhhhhhhhhhhhhhhhhjjgghhhhhhhjhhy1-+..",
"hhhhhhhhhhhhhhhhhhhhhhhhhhhhhhhhgjhhhhhhhhhhhhhhgjgggjjjlli9;@@:ecvvkjhghhhhhhhhhhhhhhhhhhhhhhhhjhhhhhhhhhhhgggjhhhhhhhhhgw1-+..",
"hhhhhhhhhhhhhhhhhhhhhhhhhhhhhhhhhhhhhhhhhhhhhhhhjgggggjlxvfr:@#;7avvkjjghhhhhhhhhhhhhhhhhhhhhhhhhhhjhhhhhhhhhhhhhhhhhhhjhgw1-+..",
"hhhhhhhhhhhhhhhhhhhhhhhhhhjhhhhhhhhhhhhhhhhhhhhhggjggjjzmMct<@#&6yjgjhghhhhhhhhhhhhhhhhhhhhhhhhhhhhhhhhhhhhhhhhjhhhhhhhhhhy1-+..",
"hhhhhhhhhhhhhhhhhhhhhhhhhhhhhhhhhhhhhhhhhhhhhhhhgjjggjkxMNbp<$+-1wghjhhhhhhhhhhhhhhhhhhjhhhhhhhhhhhhhhhhhhhhhhhhhhhhhhhjkgy1-+..",
"hhhhjhhhhhhhhhhhhhhhhhhhhhhhhhhhhhhhhhhhjhhhhhhhgjggggjzMBbp<@+%1wghhhhhhhhhhhhhhhhhhhhhhhhhhhhhhhhhhhhhhhhhhhhhhhhhhhhjhgy1-+..",
"hhhhhhhhhhhhhhhhhhhhhhhhhhhhhhhhhhhhhhhhhhhhhhhhgjgggjkxnNnp4$+%1wgggjgghhhhhhhhhjhhhhhhhhhhhhhhhhhhhhhhhhhhhhhhhhhhhhhjjhw1-#o.",
"hhhhhhhhhhhhhhhhhhhhhhjhhhhhhhhhhhhhhhhhhhhhhhhhjyggggjxMNbp4$+=1wggjggjhhhhhhhhhhhhhhhhhhhhhhhhhhhhhhhhhhhhhhhhhhhhhhhhhhy1-#..",
"hhhhhhhhhhhhhhhhhhhhhhhhhhhhhhhhhhhhhhhhhhhhhhhhgjjggjjxMNbp<@+&1yjjhggjhhhhhhhhhhhhhhhhhhgghhhhhhhhhhhhhhhhhhhhhhhhhhhjjhy1-+..",
"hhhhhhhhjhhhhhhhhhhhhhhhhhhhghghhhhhhhhhhhhhhhhhgjggggjzMNbu<$#:9kvvkjgghhhhhhhhhhhhhhhhhhhjjghhhhhhhhhhhhhhhhhhhhhhhhhhhhw1-+..",
"ggghhhhhhhhhhhhhhhhhhhhhhhhhhhhhhhhhhhhhhhhhhhhhgjgggyjzmNbp<@@*ecmvvhggghhhhhhhhhhhhhhhjggggjjghhhhhhhhhhhhhhhhhhhhhhhhhhw1-#..",
"hhhhhhhhhhhhhhhhhhhhhhhhhhhhhhhhhhhhhhhhhhhhhhhhgjgggjkxMNbu<@@<tcnmvggghhhhhhhhhhhhhhhhggjggggghhhhhhhhhhhhhhhhhhhhhhhhjhw1-#. ",
"jkjjhhhhhhhjhhhhhhhhhhhhhhhjjjjjjhhhhhhhhhhhhhhhggjjjjlxNNnu<@@*eccvcjjhhhhhhhhhhhhhhhhhgjgjjggjhhhhhhhhhhhhhhhhhhhhhhhjkjy9;+o.",
"xxxkkhhghhhhhhhhhhhhhhhgghhklzllkhhhhhhhjhhhhhhhggjjklxmNBbu4$+&<eiaavkvkjhhhhhhhhjhhhhhgjggjggjhhhhjhhhjhhhhhhhhhhhhhjkllj9;@. ",
"MMxxziggghhhhhhhhhhhhhhhggjlxmmxkjggghhhhhhjgghgggjklxMNBBbu4$X+$:7tuccvkjhghghhghhhjghhhhhhjggghghhhhhhhhhhhhhhhhhhhhjkvvce;@X ",
"NNMnzkgghhhhhhhhhhhhhhhhhhjlxMMbljjyhhhhhhhhgjhggjjlbMNVVBbp4$..O@;7cmmvcjhggjhhgjhhhghhhhhhggjghjhhhhhhhhhhhhhhhhhhghjvvmcu<+O ",
"nnxfzkjjhhhhhhhhhhhhhhhhjkklxbbzzkkjhhhhhhgjgjghjjkxmNVVCVMp4@.. .$4pnNnvjggghhhggjghhhhhhhhgjgjhhhhhhhhhhhhhhhhhhhhgghvMNnp<@X ",
"ppadzzzlkjgggghghgggghhkldzlfppfdxllkjggggggggjjklxnMBVCCCnp4@.. .@<pnBNvgggghhhjggghgghghghgjgghhhhghghgghghhhhghhgggjvNBmp<&O ",
"<57tdxnxljgggggggghgggjkxmbdt77eabmxkjggggggygjklbnMBVVCCVnp4$.  .@4cbBnvkgggghhggjjghghggggjgjghhhhgghgggghhhhhhgggggjvMBnp4+X ",
"+$*5uxNxlkggghgihhhhghkzxMbp5**5uxMmlkhgghhgjgklbMNNVBBVVVbp4#.. .$4tbnbvjgggjhhjggghhhhgjgggjgghhhhhghhjghhhghhhhggggjlmNnu<&X ",
".X$<efbxxdjjkjjjkjjjjjklbbfe:$@:efbbzkkjjjkjjkkxmNVVVVBBBbfe:+....@:ecbcvjjjjhhhjghjjjhjjjjjjjgjhhjjjkjjjjkjjhhjjhkhkkkvcnce<@X ",
" .+$5tpfdxxxxxxxxxxxxxlxfpe4&O@$4tpflzxxxxxzzxxnNVVCCCBMbpe4*+....+&4eucavkvkjjhgjjkkvvvvvckjjjghgjkkkvvvvvkkjjklvvvvlvkcpe<&+X.",
"...+&<7tdnMMMMMnMMMMMMxft7:&OXO@%<7tfxMMMMMMnMMNVZZACCNbu7<&#OX..OO$&:7tavmvvjjhhjjkvvnMMMvclkhghjjkvvMMMMvvkkkkcvMMMncae5:&@+..",
"..XXO+*7pfNBBNNNNNNBBNbp7*$O..XXO@*7pbNBBNNNNNBBNVBVCBnp7*@OOOX...XOO$*7pcmvkjggggjcvMNBNNmckjhgggjvvMNBNNNcljjkcMNVVNcu7-++XXX.",
"X.X...@<efnMnnbbbbnnnnfe:+X......X@*efbnMbbbbbbbbbnnnbfe*@X...O..X...O$:tcccaywwwwyiccbnnnccjgwwwwyiccnnnncvjyyjvcnnnnce:+X....X",
"......X$4epppuuuuuppppe4$.........O*4euupuuuuuuuuuuuuue4*X.....OO.X. .O&4eee911111699tuuuuue96111119etupuutr969erepppue<&+....X.",
"X.... X+$:<4<:<<444:4::$@X.. .....X#&*444<<<<<<<:44*4:*&@X....X.......O@&:::;-%%---;::<<<<<:;-----&*;<<<<<<:;;;;<<<<<<*&@O...X.X",
".Xoo..XO+@@$$$$@@+$$$$@+XX.X..X...OO@$$$$@@@@@$$$#$$$$@@OX.XX...XX.X.XXO+@$@@###++++@@$$$$@@#++++++@+@@@@&@@#++@@@@&+&&+OX.X..X.",
"..XX+@@@$@@@$@$@@+@@$@$$$@@@+++@X++#+###@@@@@@$@$$$$$@@+OXX..X.XX.X...XX+$$$$$$$$$@$$$@@+++++++++@@@&$@++...o.XX.X.++@@@+.......",
"..X@%<<44<4:<<<<444:<<<<444:*>&=%&--%%&;*44<<<<<4:4:4<*&@X....X..X....O$&*<<<<<<<<<<<<:;;---%-;;:<<<<::&+o.. .    .+&;:&@O...X.X",
" .+*<euuuttuutuuuuuuuuuupute961111111117etuuuuupupppuue5&X. .XX.X.....O&<eupppppppppppte7111,119etpapue<&+... .  ..&4ee4&O......",
" X@*ecnnnnnnnnnnnnnncnnnnncviygwyywwwyygccnnnnncncnnncce*&X....X.X...X+:ecbnnnbbnccnncczjyyyqggizccnNcce*@........$*tfft<$....X.",
"@@*5pnVVVVBBNNNNMNNNNNMNNNMcvjhghhhghhjvccBBNNNNNNNNBNci7*++XX....oOO$-5pcnBBBNNBNNNBBncljyhhhjlccBBVVbu<$X.X$$@@$*7acba7*$+XX..",
"*47tcNVCAVVVNMMvmMMmMMMMMMvvljjhhjjhhjjlvvmMMmMvMmMMNncat7*&&O....o@&<7eccnMMMMnvMMMNnvvlkhhhjjlvvNZVVnp4$+@&*4<447udbcft7**@+X.",
"ppccnBVVAVVMvvvvccvvvvlvvvvkkjhjhjhhhjjklvvvvvvvvcvlvvlsspe5&@.. .+%5epccvvvvvvvxzxxzvzlkjhhhjkklzvMBBnp4$+&4epppppflzzlapt4&+X.",
"nnbbBBVVVVBmckjjjjjhkkjjjjjhjhhhhhhhhhhjjjjhjkhjjkjjkjivccct*@.  X@<ecbckkjjjjjgkhjkjjjhhhhhhhhhjjlvNNcp<$@*efnNnnbzlkkzvbfe:@..",
"BVBBVBBVBBMvvgjggjgghhhhjhhhhhhhhjhhhhhhhhghhhhhhhhhghhvnNbu<&X.O$&7pcbvvghghhgghhhhhhhhhhhhhhhhhhjzccbu:$$<ubBBVBMxljkznNbp<$..",
"VVVVVVBNNvvckjgggggggggggggghhhhhhhhhhhhhggggghgggggghjvNBnu<&OO%:7tccbcvggggggghhhhhhhhhhhhhhhhhhjzvcfe*@@<pnCCBMmzajjxMBnp4$. ",
"VVVVVVBnvvkkjjggggghgghghhhghhhhhhhhhhhhhhhghghghgggggjvMVnp<&+&:etccckvhggggghghhhhhhhhhhhhhhhhhhhjllje-+@<pnCBMvzkjjjxMBna<$X.",
"VVVVVBBnvajjjghhhghghhgjhhhhhhhhhhhhhhhhhhhhhhhhhhhgghjvmNnu<+&*eccvkkjjhghhhhhhhhhhhhhhhhhhhhhhhhjjjjy1-@&<ubBMvljhghkzMNbp<$. ",
"BVBBBNnnvgjgghhhhhhhhhhhhhhhhhhhhhhhhhhhhhhhhhhhhhhhghjvMBcu:+&<ubNMchhghhhhhhhhhhhhhhhhhhhhhhhhhhhjhhg1-&&:tzbvljhgghkxMNbu<$o.",
"VBBBNccckjgggghhhhjghhhhhhhhhhhhhhhhhhhhhhhhhhhhhhhggghvmBnp<&+<pnNmvjggghhhhhhhhhhhhhhhhhhhhhhhhhhhhgg21;;1riaijjggghjzMNnp<$. ",
"VBBMvcvjjjggghhhhhhghhhhhhhhhhhhhhhhhhhhhhhhhhhhhhhhghkvNNnu:+&<pnBNvhgghhhhhhhhhhhhhhhhhhhhhhhjhhhhhhgq111199yyygjgghjxNNbp<$..",
"VVBMckjghjggjhhhhhhjhhhhhhhhhhhhhhhjhhhhhhhhhhhhhhhgghhvmNnu<&+<ubNnvjgghhhhhhhhhhhhhhhhhhhhhhhhhhhhhhhgggyq2128qygghhkxnNbp4$. ",
"VBNvckggghhhghhhhhggjhhhhhhhhhjhhhhhhhhhhhhhhhhhhhhgghjvcmct:&+:ubNMvjhgghhhhhhhjhhhhhhhhhhhhhhhhhhhhhhhjgg222>2qyjghhjzmMct<$O.",
"VVMvvjggghhhhhhhhhjgghhhhhhhhhhhhhhhhhhhhhhhhhhhhhhhhhhklcce*@&<pbNMvjhghhhhhhhhhhhhhhhhhhhhhhhhhhhhhhhjjjgqq222qggjhjjlxvlr:@. ",
"VVnnkjggggggjjgghhhhhhhhhhhhhhhhhhhhhhhhhhhhhjhhhhhhghjkkkj9-@&<unNMvjhghhhhhhhhhhhhhhhhhhhhhhhhgjjggjjgjjggw8qqwggjhhjkllk7;@o.",
"VBNmvjgggjjggggjhhhhhhhhhhhhhhhhhhhhhhhhhhhhhhhhhhhhhhhjkky1-++<pbNMvhhgghhhhhhhhhhhhhhhhhhhhhhhgggggggjggggggyggggghhhjkjy8;#o ",
"VVNmvgjggjgggggjhhjhhhhhhhhhhhhhhhhhhhhhhhhhhhhhhhhhhhhjkjy9&+&<ubNMvkhghhhhhhhhhhhhhhhhhhhhhhhhjggjhjggghhhgghhjgjghhhjhhw1-+..",
"VVBmckgggggjjjgghhhhhhhhhhhhhhhhhhhhhhhhhhhhhhhhhhhhhhjkllj7&@@<unNnvjhghhhhhhhhhhhhhhhhhhhhhhhhhhgjggjhhhhhhjjhggjghhhhhgw2-+..",
"VVBmcjggghgjgghhhhhhhhhhhhhhhhhhhhhhhhhhhhhhhhhhhhhhhhjkvcsr;@@:ubNMvhgghyhhhhhhhhhhhhhhhhhjhhhhhhhhhhhhhhjghhjhjggjgggjhgy1-+o.",
"VBNvcjjgghgggjhhhhhhhhhhhjhhhhhhhhhhhhhhhhhhhhhhhhhhhhjlvvct;&&:ubNMvghghhhhhhhhhhhhhhhhhhhhhhhhhhhhhhhhhhjghhhhjgjggjgjhgy1-+o ",
"BNMvkkgghjjggghjhhhhhhhhhhhhhhhhhhhhjhhhhhhhhhhhhhhgghjvmNce:&&<unNmvkhhhkjjhhhhhhhhhhhhhhhhhhhhhhhhhhhggjggjhhhggggggjjjjy8;#o.",
"nvcckjhgggggjjgghhhhhhhhhhhhhhhhhhhhhhhhhhhhhhhhhhhhhhjlcvce;++:ubNvvjjjkzzlkjhhhhhhhhhhhhhhhhhhhhhhhhhjgggjhhhhgjjggjjjlzi9;+o ",
"kvvajjhhgjhhhhjghhhhhhhhhhhhhhhhhhhhhhhhhhhhhhhhhhhhhhjkkvi9*+&<pbNmvjgjvvmvlhhhhhhhhhhhhhhhhhhhhhhhhhhhhhhhhhhhhhhhhhhlxvfr:@o ",
"jjjjjjhggghhhhjghhhhhjhhhhhhhhhhhhhhhhhhjhhhhhhhhhhhhhhjjiy9-++<unNMvjjcvvnvlkhhhhhhhhhhhhhhhhhhhhhhhhhhhhhhhhhhhhhghhjzmMct<@o.",
"gjjgggjgjhhhgjgghhhhhhhhhhhhhhhjhhhjhhhhhhhhhhhhhhhhhhhjjjy1-++<pnNNvkjkccmcljhhhhhhhhhhhhhhhhhhjhhhjhhhhhhhhhhhhhhghhkxMNbp<$o ",
"gggghhhhghhhgggjhhhhhhhhhhhhhhhhhhhhhhhhhhhhhhhhhhhhhhjkkvi1&&&<pnBNmvcccpcjhhhhhhhhhhhhhhhhhhhhghhhghhhhhhhhhhhhhhhghjxMNnp<$o ",
"ggghhhhhjgggjgjghhhhhhhhhhhhhhhhhhhhhhhhhhhhhhhhhhhgghjlvcc9:&+:pnVVBNvctwyyyhhhhhhhhhhhhhhhhhhjhghhhhhhhhhhhhhhhhhhghkxMNnp<$O ",
"ghgjhhhhggjjyjhhhhhhhhhhhhhhhhhhhhhhhhhhhhhhhhhhhhhhhhjlvMct:+&:tmBVVNmar112qhhhhhhhhhhhhhhhhhhhhjhhhhhhhhhhhhhhhhhgghjxMNbu<$o.",
"gjghhhgggjgghhhhhhhhhhjhhhhhhhhhhhhhhhhhhhhjhhhhhhhhghjvvvct:&&;ecbnNncu9112qghhhhhhhhhhhhhhhhhhhhhhhhhhhhhhhhhhhhhghhjzMNbp<$o ",
"gghgggjjggjhhhhhhhhhhhhhhhhhhhhhhhhhhhhhhhhhhhhhhhhghhhvccce;@O-<eupptte1122qyhhhhhhhhhhhhhhhhhhhhhhhhhhhhhhhhhhhhhhghkxMNnp<$o ",
"ggggjhhhhhhhhhhhhhhhhhhhhhhhhhhhhhhhhhhhhhhhhhhhhhhhhhjkllje;@O+&;<<<:<188qqghhhjhhhhhhhhhhhhhhhhhhhhghhghhhhhhhhjggghjzMNbp<$X.",
"gjggghhhhhhhhhhhhhhhhhhhhhhhhhhhhhjhhhhhhhhhhhhhhhhhhhhjjkg1;+OO+@@@@&-:1qggghhhhhhhhhhhhhhhhhhhhhhhhjhhjhhhhhhhhhhghhkxMNbu<$. ",
"jjjhjghhhhhhhhhghhhhhhhhhhhhhhhhhhhhhhhhhhhhhhhhhhhhhhhjjgg1-+OOO+++++$>8yhjhhhhhhhhhhhhhhhhhhhhhhhhhhhhhhhhhhhhhhhhghjxMNbp<$..",
"cvcjjjjghhhhhhhjhhhhhhhghhjghhhhhhhhhhhhhhhhhhhhhhhhhhhhjgw1-+OO#$$=&--,9ghjhhhhhhhhhhhhhhhhhhjhhhhhhhhhhhhhhhhhhhhgghkzMNbu<@..",
"mmvccjgghhhhhhhhhhhhhhhjhhhhhjghhhhhhhhhhhhhhhhhhhhhhhhjhgw1-+O+-,11211qqghhhhhhhhhhhhhhhhhhhhhhhhhhhhhhhhhhhhhhhhhgghkxMNbu<$X.",
"BNMckjgghhhhhhhhhhhhhhhhhhhhhhhhhhhhhhhhhhjhhhhhhhhhhhhhjgw1-++-,1yyqgyyghhhhhhhhhhhhhhhhhhhhhhhhhhhhhhhhhhhhhhhhhhhghjzMBbp<$. ",
"BNmvcjjgghhhhhhhjhhhhhhhhjhhhhhhhhhhhhhhhhhhhhhhhhhhhhhjjgw1-+O-1yhjjhhhhhhhhhhhhhhhhhhhhhhhhhhhhhhhgjhhhhhhhhhhhhhghhkxMNbp<$..",
"Mmvvkjgghhhhhhhhghhhhhhhhghhhhhhhhhhhhhhhhhhhhhhhjhhhhhhjgw1-+&;rkzlljjhhhhhhhhhhhhhhhjhhhhhhhhhhhhhhhhhhhhgjhhhhhhhghjxMNbp<@..",
"cccjjjghhhhhjghhhhhhhhhhhhhhhhhhhhhhhhhhhhhhhhhhhhhhhhhhjhw1-++;tzvvlkhhhhhhhhhhhhhhhhhhhhhhhhhhhhhhjghhhhhhhhhhhhhhghjxmNbp<$..",
"jjjgjjghhhhhhhhhhhhhhhhhhhhhhhjhhhhhhhjhhhhhhhhhhhhhhhhjjgw1-+&;tcBcvjhhhhhhhhhhhhhhhhhhhhhhhhhhhhjhhhhhhhhhhhhhhhhgghkzMNbp<$..",
"gggjjghhhhhhhhhhhhhhjghhhhhhhhghhhhhhhhhhhhhhhhhhhhhhhhjjhw1-O&<unBcvjhhghhhhhhhhhhhjhhhhhhhhhhhhhghhhhhhhhhghhhhhhghhkxMNbu<$..",
"ggggghhghhhhhhhhhhhhhhhhhhhhhhhhhhhhhhhhhhhhhjhhhhhhhhhhjhw1-++<pcBMzkhghhhhhhhhhhhhhhhhhhhjhhhhhhhhhhhhhhhhjhhhhhhhghjzMNbp<$. ",
"ggggggjghhhhjghhhhhhhhhhhhhhhhhhhhhhhhhhhhhhhhhhhhhhhhhhhgw1-++<pnZMvjhhghhhhhhhhhhhhhhhhhhhhhhhhhhhhjhhhhhhhhhhhhhhghkxMNbp<$X.",
"jggjgjgghhhhhhhhhhgjhhhhhhhhhhhhhhhhhhhhhhhhhhhhhhhhhhhhjgy1-+&<pcNNlkhghhhhhhhhhhhhhhhhhhhhhhhhhhhhhghhhhhhhhhhhhhgghjxMBbp<$. ",
"jgjjjjgjhhhhhhhhhhhhhhjhhhyjhhhhhhhhhhhhhhhhhhhhhhhhhhjjjjg1-+&<ucvvljhhhhhhhhhhhhhhhhhhhhhhhhhhhhhhhhhhjhhhhhhhhghgghjzmBnp<$..",
"vckkjjgghhhhhhhhhhhhhhghhhjhhhhhhhhhhjhhhhhhhhhhhhhhhhjkllj9-++;rfvvljhhhhhjhhhhhhhhhhhhhhhhhhhhhhhhhhhhghhhghghhjhhghkzMBnp<@..",
"mmvvkjjghhhhhhhhhhhhgjgggjhhhhhhhhhhhhhhhhhhhhhhhhhhhhjkvvfe:++;1illkjhhhhhhhhhhhhhhhhhhhhhhhhhhhhhhhhhhgjjggggghjhgghjxMBna4$X.",
"BNnvvjgghhhhhhhhhhhhjggjgghhhhhhhhhhhhhhhhhhhhhhhhhgggklvncu:&+-1ijkjhhhhhhhhhhhhhhhhhhhhhhhhhhhhhhhhhhhgggggjgjhhhghhkxMNbu4@..",
"VBNmcggghhhhhhhhhhhhjggjjgjhhhhhhhhhhhhhhhhhhhhhhhhgghjvMBnp<&#-1yjkjhhhhhhhhhhhhhhhhhhhhhhhhhhhhhhhhhhhhhgjkjjggggghjkxxmfe:@..",
"CCBvvjgghhhhhhhhhghgggggggghhhhhhhhhhhgggghhhhhhghggghjvMBcu:&+&ejllkhgggghghhhhhhhhhhhggghhhhhhhhhhhhggggjklldiyqqyjzdffpe5&X..",
"CCBMvggghhhhhhhhghgggggggggghhhhhhhhggggghgghhhhhgggggkvMBMp<&+:rzcvzjggggghhhhhhhhhhhggghghhhhhhhhhhgggggjlxMxdq88ylxbft74%@XX.",
"VBBmvjggghhhhhhhhhgggjggjgjjhhhhhhhhhhhghhjhhhhhhhhhggklMNcp:&&*tcMczkhghhhjhhhhhhhhhhhhhhhhhhhhhhhhhhhhgjklxMnd0330dbxa7&+OXXXX",
"nnbcvjjhhhhhhhgjjgjgjjjjjgggjgjgghjjkkjjkkjjjhhhjkkjjjkcccce:+&:eccczjijjkjjjhhhhhhhjjjkkjjjhhhhhghjjjkjjjklxnfi0660adft4@.....X",
"uupaklvvljhhhhhhvccvvvvkkjjgjgjjjhjkklvcvlllkjjklllvvscacpe<&+O&<tualcvvvlllkjjhhjjklzxxxzxlkjjhjjjklzxxxxxdfpptry0tppt5&X....X.",
"<<7eccmvvggjghjvvMMnMmvvvgjjgjjghjklvvnMMMvvkkkkvvvNNMcst7<&+XO#&*7tccMMMMvvzjjhghklxmnNMMmxljjjhjjlxmMMNMxde77eudape74%@X....oo",
"+@;7tcnvvjggghgvvMNBBNmvvjhgggjgghhlvMBBBNMvkjkzvvNVBNcp<;&XXXoX+&*5ucNVNNnczjhgggjlvMNBBNMbljggghjlxMNVBBbu5*&4pffa7&@OXX.....X",
".X@:eccckywwwwgaccnnnnvcgyyywywwyyyicccnnccsiyyicccnNcce:@Xooo.o.X&*eccnMccliyywyyyilcbnbbcljyqqqwyifxnnnnfe:$$<rfft4+..X.XX.o.o",
" .O&<ete991111699eppputt911111111119etpppptrr119rtppppe<&Xo .o.  .+&*eupspurr1111689etpppptr07633390ruupppe4$+O&5ee7&O....X.oo.o",
" .O@&:<<:------;:<<4<<<:;;----------::<<<:::&&-:**<*<***&o  ..X...X&&:<:<<<:;-----;;:<<<4<<:*;--=--;:444443&@OO@&4*&$o....oo..o.",
"XXXOO$@@++#+++++@@$@$@$+#+++++++#O#&&+&&&&+&&++#&&&&&&+&XXoo.X.....X+#&&&#&@##++++++@$$$$$$@+++++#+O$$$+$$OOOoXO@@@@Ooo..o..oooo",
"X..X...XX.oXOoXXXXXXXooOooX.XXooXX.X XXoXXX.X......XX...Xoo.X.X..X.Xoooo.oXXXXoo.....O..........X.........o.X.....X..oo.oo.oo..o",
"X..... .. . .. . .  .   . . . .. ...     .   ... ..  . ....X.X.XX...o      .  . .... .. . .............. ............X.oo.oo.oo."
};
