/* XPM */
static char *g[] = {
/* columns rows colors chars-per-pixel */
"64 64 131 2 ",
"   c #2D242F",
".  c #2F2530",
"X  c #302631",
"o  c #332935",
"O  c #382C37",
"+  c #362C3A",
"@  c #3A2E3B",
"#  c #3C303E",
"$  c #43333D",
"%  c #48363F",
"&  c #3D3445",
"*  c #463540",
"=  c #483742",
"-  c #4C3943",
";  c #4C3A49",
":  c #503C46",
">  c #513D48",
",  c #56414C",
"<  c #5B434B",
"1  c #574152",
"2  c #5B4455",
"3  c #5E4758",
"4  c #5F4859",
"5  c #60474D",
"6  c #63494F",
"7  c #634A54",
"8  c #6A4D53",
"9  c #634A5A",
"0  c #614959",
"q  c #644B5D",
"w  c #644B5E",
"e  c #654C5E",
"r  c #654C5F",
"t  c #664D5F",
"y  c #644B5C",
"u  c #6E5157",
"i  c #6E5157",
"p  c #6C5058",
"a  c #6F525B",
"s  c #6F5159",
"d  c #71535A",
"f  c #70525B",
"g  c #755558",
"h  c #755559",
"j  c #765559",
"k  c #765659",
"l  c #77575A",
"z  c #76565B",
"x  c #73555F",
"c  c #77575C",
"v  c #77575E",
"b  c #76565C",
"n  c #79585C",
"m  c #78585E",
"M  c #79585E",
"N  c #7A595F",
"B  c #7C595C",
"V  c #7C5A5D",
"C  c #7B595E",
"Z  c #674E60",
"A  c #674E61",
"S  c #674E61",
"D  c #684E61",
"F  c #684E62",
"G  c #694E62",
"H  c #684F62",
"J  c #694F62",
"K  c #6A4F62",
"L  c #6A4F63",
"P  c #694F62",
"I  c #6A5062",
"U  c #6B5062",
"Y  c #6A5063",
"T  c #6B5063",
"R  c #6B5163",
"E  c #6D5161",
"W  c #6E5261",
"Q  c #6F5261",
"!  c #6D5162",
"~  c #6C5163",
"^  c #6D5262",
"/  c #6D5263",
"(  c #6F5363",
")  c #6C5164",
"_  c #6E5264",
"`  c #6F5365",
"'  c #6C5163",
"]  c #715463",
"[  c #735563",
"{  c #705364",
"}  c #715464",
"|  c #725464",
" . c #725564",
".. c #735564",
"X. c #735565",
"o. c #735664",
"O. c #735665",
"+. c #745664",
"@. c #745665",
"#. c #755765",
"$. c #755766",
"%. c #765766",
"&. c #735664",
"*. c #775863",
"=. c #765866",
"-. c #775866",
";. c #765865",
":. c #795961",
">. c #7A5964",
",. c #785966",
"<. c #795A67",
"1. c #7E5C66",
"2. c #7F5D66",
"3. c #7C5C66",
"4. c #7B5B68",
"5. c #7B5B68",
"6. c #805E67",
"7. c #815E67",
"8. c #805E67",
"9. c #815E68",
"0. c #815E68",
"q. c #836068",
"w. c #866268",
"e. c #846068",
"r. c #886369",
"t. c #8A6469",
"y. c #8A6569",
"u. c #8C656A",
"i. c #8C666B",
"p. c #8C676B",
"a. c #89646A",
/* pixels */
"  o @ & & & & & & & & & & & & & & @ o % V r.,.2 @ .                                                                             ",
"o + @ & & & & & & & & & & & & & & # * < M 7.+.3 - $ % - - $ o                                                                   ",
"# @ + + & & & & & & & & & & & & + * 6 v *.| E w 2 7 8 h h 5 % X                                                                 ",
"& & + o @ & & & & & & & & & & # o - h t.=.I A J J | 7.i.i.M < $ o .                                                             ",
"& & & @ o o o + & & & & & & & @ o - h i.=.I A J J E | +.=.,.m 8 $ X                                                             ",
"& & & & + o o + @ & & & & & # # = 5 M 7.| I J J J J I I I E f 6 $ X                                                             ",
"& & & & & # @ @ + + & & & # @ * 7 h :.| E I J J J J J J J 9 , % o                                                               ",
"& & & & & & & & + + @ @ # # * < M 2.=.J J J J J J J J E | 4 $                                                                   ",
"& & & & & & & & & @ + o o = 7 M *.[ E J J J J J J J I +.q.a =                                                                   ",
"& & & & & & & & & # o     = a 9.| E J J J J J J J J I =.i.h -                                                                   ",
"& & & & & & & & & # o .   $ 7 +.I J J J J J J J J J E =.t.h -                                                                   ",
"& & & & # # # @ @ # $ $ o @ ; 2 2 3 r J J J J J J _ | *.M 6 %                                                                   ",
"& & & & + o o X o = 6 8 $ o o @ @ - 4 J J J J J J +.2.M < $ o                                                                   ",
"@ @ @ # = - - = $ , a x > * # @ X @ ; 4 A r 3 1 1 7 8 6 $ X                                                                     ",
"o o + * 7 h h u 2 9 E | 9 2 1 ; O o @ - 4 2 ; # # * = $ o                                                                       ",
"% $ $ > v t.i.q.| I J J J I J 9 > $ o @ ; ; @                                                                                   ",
"V f 9 4 E +.=.+._ J J J J J I E v 6 % o @ @ X                                                                                   ",
"q.2.| J I E E I J J J J J J I | 2.8 %                                                                                           ",
",.+._ J A A J J J J J J J J J _ +.7 % X                                                                                         ",
"J J J r 3 3 w J J J J J J J J J J 9 > $ o .                                                                                     ",
"J I A 3 = ; 2 J J J J J J J J J J E x 8 $ X                                                                                     ",
"J T A 2 # * 7 4.4.+.E J J I J r 4 7 8 6 $ .                                                                                     ",
"J T J 2 # = 8 r.r.2.[ J J J A 3 - * = % o                                                                                       ",
"J I J 3 = : 8 M V M *.| _ A 3 ; @ .                                                                                             ",
"J J J A 3 1 ; % % < v q.+.4 - @ o                                                                                               ",
"J J J J J 3 ; @ o % 5 a 7 ; @ . .                                                                                               ",
"J J J J I r 2 ; o o $ = % @ X                                                                                                   ",
"J J J J J _ I 2 @ .                                                                                                             ",
"J J J J J E J 2 @ .                                                                                                             ",
"1 2 2 2 2 2 2 ; @                                                                                                               ",
"# $ $ $ $ $ $ @ o                                                                                                               ",
"                                                                                                                                ",
"                                                                                                                                ",
"                                                                                                              X @ $ $ $ # # # # ",
"                                                                                                              @ ; 2 2 2 1 1 1 1 ",
"                                                                                                            . @ 2 I E J J J J J ",
"                                                                                                            . @ 2 J _ J J J J J ",
"                                                                                                  X @ * = $ o o ; 2 r I J J J J ",
"                                                                                              . . @ ; 7 a 5 % o @ ; 3 J J J J J ",
"                                                                                              o @ - 4 +.q.v < % % ; 1 3 A J J J ",
"                                                                                            . @ ; 3 A _ | *.M V M 8 : = 3 J I J ",
"                                                                                    . o % = * - 3 A I J J [ 2.r.r.8 = # 2 A T J ",
"                                                                                    . $ 6 8 7 4 r J I J J E +.4.4.7 * # 2 A T J ",
"                                                                                    X $ 8 x E J J J J J J J J J J 2 ; = 3 A I J ",
"                                                                                    . o $ > 9 J J J J J J J J J J w 3 3 r J J J ",
"                                                                                        . % 7 +._ J J J J J J J J J A A I _ +.,.",
"                                                                                      .   % 8 2.| I J J J J J I I E E I J [ 2.q.",
"                                                                                  X @ @ o % 6 v E I J J J J J _ +.=.+.E 4 7 f M ",
"                                                                                  @ ; ; @ o $ : 4 J J J J J I | q.i.t.v : $ $ % ",
"                                                                  o $ = $ $ # # # ; 2 4 ; @ o O ; , 2 9 { E 9 4 u h h 6 % + o o ",
"                                                                . % 5 a 7 2 1 1 1 3 r A 4 ; @ X @ # * > v a , $ = - - = # @ @ @ ",
"                                                            . o $ < v q.+.I J J J J J J J 4 - @ @ o o $ 8 6 = o o o o + & & & & ",
"                                                            X $ 8 M ,.+._ J J J J J J J J r 9 2 2 ; @ o $ $ # @ # # # & & & & & ",
"                                                            X % M q.,.I J J J J J J J J J J J I | 7 $     o # & & & & & & & & & ",
"                                                            X = V r.,.J J J J J J J J J J J E +.9.a =     o # & & & & & & & & & ",
"                                                          X @ > v 2.=.J J J J J J J J J J E [ *.M 7 = o o o @ & & & & & & & & & ",
"                                                          @ ; 9 E [ E J J J J J J J J J J +.2.M < * # @ # @ + + & & & & & & & & ",
"                                                          $ 2 J I I I J J J J J J J I E | :.v 7 * @ # & & & + + @ @ # & & & & & ",
"                                                          $ 2 I J J J J J J J J J J I | 7.v 5 = # # & & & & & @ + o o + & & & & ",
"                                                          # 1 J J J J J J J J J J A I =.i.h - o @ & & & & & & & + o o o @ & & & ",
"                                                          # 1 J J J J J J J J J J A I =.i.h - o @ & & & & & & & & # @ @ o + & & ",
"                                                          # 1 J J J J J J J J J J E | *.v 6 * + & & & & & & & & & & & & + + @ @ ",
"                                                          # 1 J J J J J J J J J J +.7.M < * # & & & & & & & & & & & & & & @ + o ",
"                                                          # 1 J J J J J J J J J J 4.r.V % o @ & & & & & & & & & & & & & & # o   "
};
