/* XPM */
static char *G[] = {
/* columns rows colors chars-per-pixel */
"64 64 138 2 ",
"   c #2D242E",
".  c #2F2530",
"X  c #302732",
"o  c #332935",
"O  c #382B36",
"+  c #362C3A",
"@  c #392E3D",
"#  c #3C303E",
"$  c #42323E",
"%  c #48363F",
"&  c #3D3444",
"*  c #453542",
"=  c #493741",
"-  c #4D3A43",
";  c #4D3A49",
":  c #503C45",
">  c #523E4B",
",  c #56404C",
"<  c #5A434C",
"1  c #564151",
"2  c #5A4455",
"3  c #5E4758",
"4  c #5F4859",
"5  c #60474C",
"6  c #63494E",
"7  c #604755",
"8  c #634A54",
"9  c #6B4E55",
"0  c #604758",
"q  c #634A5B",
"w  c #694E5D",
"e  c #6E5158",
"r  c #745457",
"t  c #775659",
"y  c #775759",
"u  c #765659",
"i  c #745458",
"p  c #75565D",
"a  c #74555A",
"s  c #78575A",
"d  c #78575E",
"f  c #78575B",
"g  c #79585A",
"h  c #79585B",
"j  c #79585D",
"k  c #7B595D",
"l  c #7B5A5D",
"z  c #7A595F",
"x  c #7D5B5E",
"c  c #7B5A5D",
"v  c #664D60",
"b  c #674D60",
"n  c #674D61",
"m  c #674E61",
"M  c #674D60",
"N  c #684E61",
"B  c #694E61",
"V  c #694F61",
"C  c #684E62",
"Z  c #694E62",
"A  c #694F62",
"S  c #694F63",
"D  c #6A4F62",
"F  c #694F62",
"G  c #6A5061",
"H  c #6B5062",
"J  c #6B5162",
"K  c #6A5063",
"L  c #6B5063",
"P  c #6D5162",
"I  c #6C5163",
"U  c #6D5163",
"Y  c #6B5064",
"T  c #6D5264",
"R  c #6B5063",
"E  c #715461",
"W  c #715462",
"Q  c #725563",
"!  c #745663",
"~  c #775763",
"^  c #715464",
"/  c #725564",
"(  c #735564",
")  c #745665",
"_  c #755765",
"`  c #765764",
"'  c #765765",
"]  c #755766",
"[  c #745665",
"{  c #775863",
"}  c #775865",
"|  c #775864",
" . c #785863",
".. c #7F5D61",
"X. c #785865",
"o. c #785965",
"O. c #795966",
"+. c #7A5A67",
"@. c #7B5A67",
"#. c #7E5C66",
"$. c #7F5D66",
"%. c #7B5A66",
"&. c #7B5B68",
"*. c #7C5C68",
"=. c #835F61",
"-. c #805E66",
";. c #825F67",
":. c #825F65",
">. c #815E68",
",. c #846066",
"<. c #856166",
"1. c #876367",
"2. c #856166",
"3. c #866268",
"4. c #876268",
"5. c #866268",
"6. c #886268",
"7. c #886368",
"8. c #896368",
"9. c #886369",
"0. c #896469",
"q. c #8A6468",
"w. c #8A6469",
"e. c #8A656A",
"r. c #8B656A",
"t. c #8D666A",
"y. c #8D676B",
"u. c #8E676A",
"i. c #8E676B",
"p. c #8B656A",
"a. c #906869",
"s. c #946B6B",
"d. c #936B6D",
"f. c #976C6C",
"g. c #966C6D",
"h. c #976D6D",
"j. c #936A6C",
"k. c #986D6D",
/* pixels */
"                                                                                      .                                         ",
"o o X     X o o o o o o o o o o o o o o o o X     X o o o o o o o o o o o X .             X o o o o o o o o o o o o X . o o o o ",
"@ + o     o + @ @ @ @ @ # @ @ @ @ @ @ @ @ + o .   o + @ @ @ @ @ # # # # @ + o             o + @ @ @ @ @ # # @ @ @ + o X @ @ @ @ ",
"& @ o   o + # & & & & & & & & & & & & & & @ o X o + # & & & & & & & & & & # + o   . X o o + # & & & & & & & & & & @ o o & & & & ",
"& @ o o @ & & & & & & & + + # & & & & & & @ o o @ & & & & & & & + o o + & & & @ o o @ & & & & & & # + o o o o + & @ o o & & + o ",
"& @ o o & & & & & & & & + @ & & & & & & & @ o o & & & & & & & & + o o + & & & + X o @ & & & & & & & @ o o o o + @ + o o & & @ o ",
"& @ o o & & & & & & & & & & & & & & & & & @ o o & & & & & & & & @ @ @ # & & @ o . o @ & & & & & & & & @ @ @ @ @ o X . o & & & @ ",
"& @ o o & & & & & & & & & & & & & & & & & @ o X + & & & & & & & & & & & & # + o   o @ & & & & & & & & & & & & & o   X + & & & & ",
"& @ o o & & & & & # + o o + # & & & & & & @ o   X + # & & & & & & & & & & & & @ o o @ & & & & & & & & & & & & & o X + & & & & & ",
"& @ o X @ & & & & & @ o o @ & & & & & & # @ + o o @ & & & & & & & & & & & & & & o o @ & & & & & & & & & & & & & o o @ & & & & @ ",
"& @ o . o @ & & & & & @ @ & & & & & & & + + @ @ @ & & & & & & & & & & & & & & & o o @ & & & & & & & & & & & & & o o @ & & & @ o ",
"& @ o . o + # & & & & & & & & & & & & & o o @ & & & & & & & & & & & & & & & & & o X + & & & & & & & & & & & & @ o o @ & & # + o ",
"& @ o o @ & & & & & & & & & & & & & & & o o @ & & & & & + o o o o + # & + + # & o . X + & & & & & & & & & # + o   o @ & & & & & ",
"& @ o X + & & & & & & & & & & & & & & @ X X + # & & & & + o o o o @ & & + @ & & o . X + & & & & & & & & & & @ o . o @ & & & & & ",
"& # o . o @ & & & & & & & & & & & & @ o . . X + # & & & & @ @ @ @ & & & & & & # o o + & & & & & & & & & & & & + X o @ & & & & & ",
"& @ o     o @ & & & & & & & & & & @ o         X + @ & & & & & & & & & & & & # + X o @ & & & & & & & & & & & # + . X + & & & & & ",
"o X .     . X o o o o o o o o o o X .         X o o o o o o o o o o o o o o o X . X X o o o o o o o o o o o o X   . X o o o o o ",
"- $ o         o $ - : - - - - - - - - $ o     o $ - : - - - - - - - - $ o                     o $ - - - - - - : - $ O o $ - - - ",
"i 6 $ X X X o # 6 i s i i i i i i s i 8 $ X . @ 6 i s i i i i i i s i 6 # X   X         X X X # 6 i h s i i i i i < $ $ 6 i s i ",
"y.z < * * * = < z q.y.q.q.q.q.q.q.y.q.z , # o $ a 8.y.q.q.q.q.q.q.y.q.z , = $ $ o     o $ $ = < =.s.k.j.y.q.q.8.=.8 : > d q.y.q.",
"_  .z z z z z z  ._ _ _ _ _ _ _ _ _ }  .z 6 $ # 0 ! o._ _ _ _ _ _ _ _ ~ z x h 8 $     $ 8 s x =.a.h.h.y.;.o.^ w > ; > 0 I _ _ _ ",
"V Q $.1.4.8.4.$.^ G V V V V V V V V I _ ;.9 = @ 2 G I V V V V V V V G ^ $.8.1.a $ X @ > p 1.8.8.q.q.8.;.^ T V 3 @ # , V V V V V ",
"m I _ o.o.o.o._ I V m m m m m m m m V T _ 7 * @ 1 q V m m m V V m m V I _ &.o.q $ @ ; 0 Q o.o.o.o.} _ Q G V m 1 @ $ 1 G V V m V ",
"V V V V V V V V V V V V V V V V V V V q 3 > * * > 3 q V V V V V V V V V V G V 2 @ # 1 G V V V V V V V V V q 3 , - > 3 V V V V V ",
"V V V V V V V V V V V V V V V V V Y V 3 * * ; > * ; 3 V V V V V V V V V V Y V 2 @ # 1 G V V V V V V V V V 2 ; : 8 p Q V V V V V ",
"Y Y Y Y Y Y Y G V V G Y Y Y Y Y V Y V 3 ; ; 3 2 @ @ ; 3 q V V V V V V G Y m 3 ; o @ ; 3 q V V V V V V G Y 1 * % h 1.o.V V V V V ",
"V V V V V V V V V V V V V V V V V G V q 2 3 q 2 @ X @ ; 3 m V V V V G G V 3 ; @ X X @ ; 3 m V V V V G G V 1 $ $ x 4.o.V V V V V ",
"2 2 2 2 2 2 2 0 w q 4 2 2 2 2 0 V V V V G m 3 ; O . . @ ; 3 q V V G G V 0 ; @       . @ ; 3 q V V G G V 0 ; @ $ a $._ V V V V V ",
"@ @ @ # # @ @ = 0 2 ; # # @ @ = 0 V G V G 3 ; O X     X @ ; 3 G G G V 0 = @ X         X O ; 3 V V G V 0 = O X # 0 I T V V V V V ",
"# @ o X X . X @ ; ; @ X X . X @ ; 1 2 1 1 ; @ .         . @ ; 2 1 1 1 ; @ X             . @ ; 1 1 2 1 ; @ . . o ; 3 m q 3 1 1 1 ",
"1 ; @ X X     X @ O X         X @ # $ $ $ @ X             X @ $ $ $ # @ X                 X @ $ $ $ # @ X     X @ ; 3 3 ; $ # # ",
"G 3 ; # # o X                                                                                                     @ ; ; @ .     ",
"G q 0 3 2 ; @                                                                                                     X o @ X       ",
"1 2 q I G 3 > - - $ o                                                             X @ $ $ $ $ # $ $ $ * = $ o X @ # $ # $ @ X   ",
"# ; 3 T T I p i i 6 $           X X X X X . . X X X X X X X X X X X X X X X X .   @ ; 1 1 1 1 1 1 1 1 0 e 5 $ @ ; 1 1 1 1 ; @ . ",
"@ * 2 V V ^ >.y.y.p > @ X     o $ = = $ # @ @ # # # # # # # # # $ $ $ # # # @ @ @ ; 3 V V V V q 0 3 q ^ ,.a , = 0 V G V V 3 ; @ ",
"2 3 q V V I ^ _ _ I 0 ; +   X $ 8 z x a 0 2 2 2 2 2 2 2 2 2 2 0 a a 8 2 2 2 2 2 2 4 q V V Y V 0 = ; 2 I ^ I q 0 V G G V V q 4 2 ",
"V V V V Y G V V V G q 1 @ o @ > p 1.4.$.I V V V V V V V V m V ! q.4._ m V V V V V V V V V Y V 2 @ $ 1 V I V V V V V V V V V V V ",
"G G V V V V V m m G V 2 # @ ; 0 Q o.o._ T T Y Y G G G G Y V I } y.q.o.V G Y Y Y Y G G V V T V 2 @ # 1 V V V V G V V V V V G Y Y ",
"V V V q 0 0 q V V T I 0 $ $ 1 V V V V V V V V V V V V V V V V I d z ! I G V V V V V V V V T I 0 $ $ 1 V V V V V V V V V V V V V ",
"V G V 3 = ; 2 V V _ $.a $ $ 1 V V V V V V V V V V V V V V G V 0 > < a >.^ V V V V V V V V _ $.a $ $ 1 V V V V V V V V V V V V V ",
"o.E 0 > * ; 2 I _ 4.y.x = * 3 o.*.*.o._ I V m m m V I T _ o.} q $ : i j.,.o.o.o.o.o.o.o.o.o.p 6 @ $ 8 _ I V m m m G ^ } } o.o.o.",
"4.a , * > 2 q ^ ;.y.a.h = = 9 1.8.8.4.$.^ G V V V V V I $.8.1.e $ - r a.y.8.4.4.4.4.4.4.4.p < $ o = 9 $.^ G V V V ^ $.q.q.8.8.1.",
"z 6 $ $ 0 Q } { z x z 8 $ $ 6 x x x z z { _ _ _ _ G 0 0 a x z 8 $ $ 6 z x x x x x x x x x 8 $     $ 8 z  .} _ _ _ >.y.h.h.y.,.z ",
"* @ o $ a q.y.z < = $ $ o o # = = $ = , z q.y.y.y.p , $ $ = = $ o o # * = = = = = = = = = $ o     o $ , z q.y.q.q.y.j.k.h.x < * ",
"o X X @ 6 i i 8 * o o o X . o o o o o $ 8 i s i i 8 = o o o X X o o o o o o o o o o o o o o o o . . o $ 8 i s i i i i h s 8 = o ",
"+ o X o $ - - = # @ @ + X X o + + + + # = - - - - * # + + o . . @ # @ + @ @ + + + + + + + @ # @ X X + # = - - - - - - - - * # + ",
"& # + o o o o + & & & & o o @ & & & & & + o o o o + # & & @ o o & & & & & & & & & & & & & & & & o o # & + o o o o o o o o + @ & ",
"& & & & & & & & & & & & o o @ & & & & & & & & & & & & & & @ o o & & & & & & & & & & & & & & & & o o @ & & & & & & & & & & @ + o ",
"@ & & & & & & & & & & @ X o @ & & & & & & & & & & & & & & @ o X @ & & & & & & & & & & & & & & & o o + # & & & & & & & & & & @ o ",
"o @ & & & & & & & & @ o X o @ & & & & & & & & & & & & & & @ o . o @ & & & & & & & & & & & & & & o . X + & & & & & & & & & & & @ ",
"o + # & & & & & & @ o . o + # & & & & & & & & & & & & & & # + o . o @ & & & & & & & & & & & & & o     o & & & & & & & & & & & & ",
"& & & & & & & & & @ o o @ & & & & & & & & & & & & & & & & & & @ o o @ & & & & & & & & & & & & & o     o & & & & & & & & & & & & ",
"& & & & & & & & & @ o o & & & & & & & & & & & & & & & & & & & & o o @ & & @ @ # & & & & & & & & o     o & & & & & & & & & & & & ",
"& & & & & & & & & @ o o & & & & & & & & & & & & & & & & & & & & o o @ & + o o + & & & & & & & & o     o & & & & & & & & & & & & ",
"& & & & & & & & & @ o o & & & & & & & & & & & & & & & & & & & & o o + @ o . X + & & & & & & & & + X   o & & & & & & & & & & & & ",
"& & & & & & & & & @ o o & & & & & # + o o o o o o + & & & & & & o . X o . o @ & & & & & & & & & & + X o & & & & & & & & & & + o ",
"& & & & & & & & & @ o o & & & & # @ + o o o o o o @ & & & & & & o X o o o @ & & & & & & & & & & & @ o o & & & & & & & & & & @ o ",
"& & & & & & & & & @ o o & & & & + + @ @ @ @ @ @ @ & & & & & & & o o + @ @ & & & & & & & & & & & & @ o o & & & & & & & & & & & @ ",
"& & & & & & & & & @ o o & & & & + + # & & & & & & & & & & & & @ o o @ & & & & & & & & & & & & & & @ o o @ & & & & & & & & & & & ",
"o o o o o + # & & @ o o & & & & & & & & & & & & & & & & & # + o . . X + & & & & & & & & & # + o o X . . o + # & & & & & & & & & ",
"          o + @ @ + o X @ @ @ @ @ @ @ @ @ @ @ @ @ @ @ @ @ + o .     . X @ @ @ @ @ @ @ @ @ + o             o + @ @ @ @ @ @ @ @ @ ",
"          X o o o o X . o o o o o o o o o o o o o o o o o o X         . o o o o o o o o o o X             X o o o o o o o o o o ",
"                                                                                                                                "
};
