/* XPM */
static char *h[] = {
/* columns rows colors chars-per-pixel */
"64 64 123 2 ",
"   c #2D242F",
".  c #2F2530",
"X  c #312631",
"o  c #332935",
"O  c #382C37",
"+  c #362C3A",
"@  c #3A2E3B",
"#  c #3C303E",
"$  c #43333D",
"%  c #48363E",
"&  c #3D3445",
"*  c #463640",
"=  c #483742",
"-  c #4B3943",
";  c #4C3A49",
":  c #503C46",
">  c #513D48",
",  c #5B434B",
"<  c #574252",
"1  c #5A4454",
"2  c #5E4758",
"3  c #5F4859",
"4  c #61474D",
"5  c #63494E",
"6  c #634A54",
"7  c #694D53",
"8  c #654C5E",
"9  c #664D5F",
"0  c #634A5B",
"q  c #6E5157",
"w  c #6C5058",
"e  c #6F5158",
"r  c #6F525B",
"t  c #6F5258",
"y  c #71535A",
"u  c #755559",
"i  c #765559",
"p  c #765659",
"a  c #77575A",
"s  c #76565B",
"d  c #73555F",
"f  c #77575C",
"g  c #77575E",
"h  c #77575D",
"j  c #79585C",
"k  c #7B595C",
"l  c #78585E",
"z  c #79585E",
"x  c #7A595F",
"c  c #7C595C",
"v  c #7C5A5D",
"b  c #7D5B5E",
"n  c #7B595D",
"m  c #674E60",
"M  c #674E61",
"N  c #674E60",
"B  c #684E61",
"V  c #684E62",
"C  c #694E62",
"Z  c #684F62",
"A  c #694F62",
"S  c #6A4F62",
"D  c #6A4F63",
"F  c #694F62",
"G  c #6A5062",
"H  c #6B5062",
"J  c #6A5063",
"K  c #6B5063",
"L  c #6B5163",
"P  c #6D5161",
"I  c #6E5261",
"U  c #6D5162",
"Y  c #6C5163",
"T  c #6D5262",
"R  c #6D5263",
"E  c #6E5263",
"W  c #6F5363",
"Q  c #6C5164",
"!  c #6D5264",
"~  c #6E5264",
"^  c #6F5365",
"/  c #6B5063",
"(  c #715463",
")  c #735563",
"_  c #705364",
"`  c #715464",
"'  c #725464",
"]  c #725564",
"[  c #735564",
"{  c #735665",
"}  c #745664",
"|  c #745665",
" . c #755765",
".. c #755766",
"X. c #765766",
"o. c #745664",
"O. c #775863",
"+. c #755865",
"@. c #765866",
"#. c #775866",
"$. c #795961",
"%. c #7A5A64",
"&. c #795A67",
"*. c #7A5A67",
"=. c #7B5A67",
"-. c #7B5B67",
";. c #7E5C66",
":. c #7E5D66",
">. c #7F5D66",
",. c #7F5E66",
"<. c #7E5D66",
"1. c #815E67",
"2. c #815E68",
"3. c #866167",
"4. c #836068",
"5. c #846068",
"6. c #866268",
"7. c #836068",
"8. c #886369",
"9. c #8A6469",
"0. c #8C656A",
"q. c #8C676B",
"w. c #886368",
/* pixels */
"  o @ & & & & & & & & & & & & & & @ o % v 6.&.A A A A A A A A A A < #                                                           ",
"o + @ & & & & & & & & & & & & & & # * , z ,.} A A A A A A A A A A < #                                                           ",
"# @ + + & & & & & & & & & & & & + * 5 g O.) P A A A A A A A A A A < #                                                           ",
"& & + o @ & & & & & & & & & & # o - u 9.+.G M A A A A A A A A A A < #                                                           ",
"& & & @ o o o + & & & & & & & @ o - u q.+.G M A A A A A A A A A A < #                                                           ",
"& & & & + o o + @ & & & & & # # = 4 z 1.' G A A A A A A A A A A G 1 $                                                           ",
"& & & & & # @ @ + + & & & # @ % 6 u $.' P G A A A A A A A A G G A 1 $                                                           ",
"& & & & & & & & + + @ @ @ # % , z ,.+.A A A A A A A A A A P ) P 0 ; @                                                           ",
"& & & & & & & & & @ + X X = 6 z O.) P A A A A A A A A A A +.,.g > @ X                                                           ",
"& & & & & & & & & # o     = r 2.' P A A A A A A A A A A A &.6.v = X                                                             ",
"& & & & & & & & & # o .   $ 6 } G A A A A A A A A A A A G &.3.z % X                                                             ",
"& & & & # # # @ @ # $ $ o @ ; 1 1 2 8 A A A A A A A G ^ } &.z 7 $ X                                                             ",
"& & & & + o o X o = 5 7 $ o o @ @ ; 2 A A A A A A A G } 6.h , $ o .                                                             ",
"@ @ @ # = - - = $ , r d > * # @ X @ ; 2 M 8 2 < < < 1 6 r 4 % X                                                                 ",
"o o + * 6 u u q 2 0 P ^ 0 1 < ; O o @ ; 3 1 ; # # # $ $ = $ o                                                                   ",
"% $ $ > g 9.q.4.' G A A A G A 0 > $ o @ ; ; @                                                                                   ",
"v y 0 3 P } +.} ^ A A A A A G P g 5 % X @ O X                                                                                   ",
"6.,.' A G P P G A A A A A A G ' ,.7 %                                                                                           ",
"&.} ^ A M M A A A A A A A A A ^ } 6 % .                                                                                         ",
"A A A 8 2 2 8 A A A A A A A A A A 0 > $ o .                                                                                     ",
"A G M 2 = ; 1 A A A A A A A A A A P d 7 $ X                                                                                     ",
"A G M 1 # * 6 &.&.} P A A A A 8 2 6 7 5 $ X                                                                                     ",
"A / M 1 # = 7 8.8.,.) A A A M 2 ; * = % o                                                                                       ",
"A G M 2 = > 7 z v z O.' P M 2 ; @ .                                                                                             ",
"A A A 8 2 < ; % % , g 6.} 3 ; @ X                                                                                               ",
"A A A A A 2 ; @ o % 4 r 6 ; @ . .                                                                                               ",
"A A A A G 8 1 ; o o $ = % @ X                                                                                                   ",
"A A A A A ^ G 1 @ X                                                                                                             ",
"A A A A A P A 1 @ .                                                                                                             ",
"< 1 1 1 1 1 1 ; @                                                                                                               ",
"# $ $ $ $ $ $ @ X                                                                                                               ",
"                                                                                                                                ",
"                                                                                                                                ",
"                                                                                                                                ",
"                                                                                                                                ",
"                                                                                                                                ",
"                                                                                                                                ",
"                                                                                                                                ",
"                                                                                                                                ",
"                                                                                                                                ",
"                                                                                                                                ",
"                                                                                                                                ",
"                                                                                                                                ",
"                                                                                                                                ",
"                                                                                                                                ",
"                                                                                                                                ",
"                                                                                                                                ",
"                                                                                                                                ",
"                                                                                                                                ",
"                                                                                                                                ",
"                                                                                                                                ",
"                                                                                                                                ",
"                                                                                                                                ",
"                                                                                                                                ",
"                                                                                                                                ",
"                                                                                                                                ",
"                                                                                                                                ",
"                                                                                                                                ",
"                                                                                                                                ",
"                                                                                                                                ",
"                                                                                                                                ",
"                                                                                                                                ",
"                                                                                                                                ",
"                                                                                                                                "
};
