/* XPM */
static char *H[] = {
/* columns rows colors chars-per-pixel */
"64 64 133 2 ",
"   c #2D232E",
".  c #2F2531",
"X  c #312733",
"o  c #322835",
"O  c #382B37",
"+  c #352C3A",
"@  c #3A2E3B",
"#  c #3D303C",
"$  c #44333C",
"%  c #48363E",
"&  c #3D3444",
"*  c #3F3648",
"=  c #453543",
"-  c #483745",
";  c #4B3A45",
":  c #413748",
">  c #433848",
",  c #4E3D4C",
"<  c #503C47",
"1  c #513E4D",
"2  c #4F3F52",
"3  c #4F404E",
"4  c #51404B",
"5  c #5A4249",
"6  c #544350",
"7  c #5A4456",
"8  c #5D4855",
"9  c #5D4758",
"0  c #5F4859",
"q  c #634A57",
"w  c #6A4D52",
"e  c #634A5C",
"r  c #6D5157",
"t  c #75565C",
"y  c #7E5B5E",
"u  c #674E61",
"i  c #694F63",
"p  c #694F62",
"a  c #6A4F63",
"s  c #694F62",
"d  c #6B5062",
"f  c #6A5063",
"g  c #6B5163",
"h  c #6D5260",
"j  c #6D5261",
"k  c #6E5261",
"l  c #6C5163",
"z  c #6D5163",
"x  c #6A5064",
"c  c #6B5064",
"v  c #6C5164",
"b  c #6A5063",
"n  c #705362",
"m  c #705464",
"M  c #715464",
"N  c #725564",
"B  c #735564",
"V  c #725565",
"C  c #735565",
"Z  c #735664",
"A  c #735665",
"S  c #745664",
"D  c #745665",
"F  c #755765",
"G  c #765765",
"H  c #755766",
"J  c #765766",
"K  c #745665",
"L  c #775863",
"P  c #765866",
"I  c #775866",
"U  c #775867",
"Y  c #775866",
"T  c #7C5B60",
"R  c #7D5B60",
"E  c #785864",
"W  c #7D5C67",
"Q  c #7E5C67",
"!  c #7E5D67",
"~  c #7C5B62",
"^  c #785968",
"/  c #7F5E68",
"(  c #805C5E",
")  c #805D5F",
"_  c #815D5F",
"`  c #805D5E",
"'  c #805D60",
"]  c #815E60",
"[  c #815E62",
"{  c #825F62",
"}  c #815F64",
"|  c #805E68",
" . c #805E69",
".. c #826063",
"X. c #856162",
"o. c #866162",
"O. c #876367",
"+. c #856062",
"@. c #886263",
"#. c #896467",
"$. c #836068",
"%. c #846169",
"&. c #856169",
"*. c #856169",
"=. c #8B6569",
"-. c #8B656A",
";. c #8C656A",
":. c #8D666A",
">. c #8E676B",
",. c #8F676C",
"<. c #8D676B",
"1. c #8F686C",
"2. c #8F686C",
"3. c #90686B",
"4. c #936A6A",
"5. c #946B6A",
"6. c #90686C",
"7. c #91696C",
"8. c #90696D",
"9. c #91696D",
"0. c #936A6D",
"q. c #92696E",
"w. c #966C6D",
"e. c #976D6E",
"r. c #91696C",
"t. c #986E6E",
"y. c #996E6E",
"u. c #996E6F",
"i. c #9A6F6E",
"p. c #9B6F6E",
"a. c #9B6F6F",
"s. c #996E6E",
"d. c #9B706F",
/* pixels */
"                                                                                                                                ",
"                    X o o o o o o o X X X X o X .                   X o o o o o o o X X X o o o o X o X . . X o o X .           ",
"                  X + & & & & & & & & & # & & + X                 X + & & & & & & & & & & & & & & & & + X X + & & + X           ",
"          . X o o + & * * * * * * * * * * * * & + X . . X X . . X + & * * * * * * * * * * * & & * * * & o o & * * & + X o o o o ",
"          X @ & & & * * * * * * * * * * * * * * & @ X X @ @ X X + & * * * * * * * * * * * & + + & * * & o o & * * * & # & & & & ",
"          o & * & & & * * * * * * * * * * * * * & @ o + @ @ X o & * * * * & & # & & # & & @ o + & * * # X o & * * * * * * * * * ",
"          o & & + + & * * * * * * * * * * * * & + o @ @ + X . o & * * * * & + X X X X X X o @ & * * * # X X & * * * * * * * * * ",
"      . X + @ @ o + & * * * * * & & # # # & * & X X & & + X . o & * * * * & + X X X X X X + & * * * * & X X & * * * * * * * * * ",
"      X @ @ o o @ & * * * * * & + X X X X + & & o o & * & + X X & * * * * & & # & & # # # & * * * * * # X X # * * * * * * * * * ",
"  . X + & & X X & * * * * * & + X   X X X + & & o o & * * & X X & * * * * * * * * * * * * * * * * * * & X X # * * * * * * * * * ",
"  X @ & * & X X & * * * * & + .   X + # & & * & o o & * * & X X & * * * * * * * * * * * * * * * * * * & X X & * * * * * * * * * ",
"  o & * * & + o @ & * * * & + X X + & * * * * # o o & * * # X X + & * * * * * * * * * * * * * * * * & + X X & * * * * * * & & # ",
"  o & * * * & @ o + & * * * & # & & * * * * * # X X & * * & o   X + & * * * * * * * * * * * * * * & + X   X & * * * * * * & + X ",
"  o & * * * * & X X & * * * * * * * * * * * * # X X & * * & + X   X & * * * * * * * * * * * * * * & X   X + & * * * * * * & + X ",
"  o & * * * * # X X & * * * * * * * * * * * * & X X & * * * & @ X X # * * * * * * * * * * * * * * # X X @ & * * * * * * * * & # ",
"  o & * * * * & + o @ & * * * * * * * * * * * & X X + & * * * & X X & * * * & @ @ @ @ & * * * * * # X X & * * * & @ @ # & & * * ",
"  X # * * * * * & @ o + & * * * * * * * * * * & o   X + & * * & o o & * * & o . . . . o & * * * * & X X & * * & o . . X X + & * ",
"  X # * & & & * * & X X + & & # @ & & * * & & + X     X + & & @ . . + & & # % % % % % % # & & & & + X X + & & # % % % $ o X + & ",
"  o & & + + & * * & o   X o X . . o & * * & o .         . X o X     . . . $ w y y y _ w $ . . X . . . . . . . $ w _ _ w $   . . ",
"  o & & + + & * * & o     X $ % % ; 1 4 6 4 ; $ X     o $ $ X X $ % % $ @ ; t 1.1.,.1.T 5 % % % % $ o X $ % % 5 T 7.7.t $ X $ % ",
"  o & * & & * * * & o     # w y y y [ [ ..[ [ w #     $ w w $ @ w _ _ t q q h S S S S L y y y y _ w # # w y y y L P ^ q @ # w _ ",
"  X & * * * * * & + . X @ 5 o.d.i.w.3.:.:.7.i.o.5 @ X % _ y % $ t 7.7.%.m a a a a u u m %.:.:.1.7.t $ % y i.7.%.m e 9 1 = < t 7.",
"  o & * * * * & + .   @ w o.3.i.i.3.W S S W 7.5.@.w @ % _ _ % @ q P P m h a a a a a a h m S S P P q @ % y 7.| m v 9 = = 1 q n P ",
"  o & * & & * & X X @ 5 o.w.2.:.=. .m u u m $.=.O.r # $ t T 5 ; 0 a a a a a a a a a a a u u u a a 7 @ $ t %.m a a 9 = = 9 c a a ",
"  o & & + + & # X $ w o.3.2.W m m m f a a f m h 8 ; + @ q E T t h a a a a a a a a a a a u u u a c 7 @ @ q m h a a e 9 9 e f a a ",
"  o & & X X # # X % y i.i.=.m u u a a a a a a e 2 : # = 9 P 7.7.P a a f f f f a f f f v m S S h q , + @ 7 a a a a a f f a a f f ",
"  o & & X X # @ . % y i.i.=.m u u a a a a a a u e 9 7 9 e P 7.7.P a f f f f f f f f a m %.1.7.T < + . @ 7 c a a a a a a a a f c ",
"  o & & + + & @ . % y i.i.=.S a a a a a a a a a a f f u 9 q t t q 7 7 7 7 7 7 7 7 7 7 q t _ _ w $     O , q n S S m h a a e 9 7 ",
"  X & * & & * & . % y i.i.=.S a a a a a a a a a a f f 9 = @ $ % # @ @ @ @ @ @ @ @ @ @ # % % % $ o     X + < T 7.7.%.m a a 9 = @ ",
"  X & * * * * & o $ w o.3.=.S a a a a a a a a a a a f 7 @                                                 $ w _ _ t h c c 9 = @ ",
"  o & * * * * * & # $ 5 { :.S a a a a a a a a a a f f 7 @                                                 o $ % % < q c c e 9 7 ",
"  X + & & & * * * & . % y :.S u a a a a a a a a a f f 7 @                                                         + , 7 7 0 a v ",
"  . X X X + & * * & . % y :.S u a a a a a a a a a f f 7 @                                                         X O @ @ - q v ",
"    X X X o @ & & + . % y 7./ m h a a a a a a a a a f 9 = @ @ @ @ @ X             X @ @ @ @ @ @ X         X @ @ X         + , 7 ",
"  X @ & & @ o X X .   % y i.7.%.m a f f f f a a a a a e 9 7 7 7 7 1 O             O 1 7 7 7 7 1 O         O 1 1 O         X + @ ",
"  o & * * & + X X .   $ w y y t q 7 7 7 7 9 e a a a a a f f f c c q - + X     X O - q v c c v 0 = @ @ @ @ - q q - @ @ @ @ @ @ @ ",
"  o & * * * & & & @ X o $ % % $ @ @ @ @ @ = 9 f a a a a a f a f f u q , +     O 1 q a c f f f u 9 7 7 7 7 9 u u 9 7 7 7 7 7 7 7 ",
"  o & * & & * * * & o   . . . + $ % @ @ @ = 9 f f a a a a a a a a f c 0 - +   @ 7 a 9 9 e a a a f f f f f f a a a f f f f f f f ",
"  o & & + + & * * & o X + & @ ; r t q 7 7 9 e a a a a a a a a a a a f u 0 , + @ 7 q = = 9 f f a a f f f f a a a a a a a a f f f ",
"  o & & X X # * * & o X & * * 3 t  .E P S m f a a a f a a a a a a a a f c 9 = = 1 1 = = 9 f f a a a a a a a a a a a a a a a a a ",
"  o & & X X # * * & X X # * * > , q  .2.:.$.m u a a f f a a a a a a a a f u 0 1 = = 1 9 e a a a a a a a a a a a a a a a a a a a ",
"  o & & X X # * * & + + & * * * & , t #.5.3.W m f e 9 9 e a a a a a a a a f c 7 @ @ q S h a a a a a a a a a a f m S S S S m f a ",
"  o & & X X # * * & & & * * * * * : , q #.i.3.$.m 9 = = 9 a a a a a a a a a c 7 @ $ t &.m u a a a a a a a u u m %.:.:.:.:.%.m u ",
"  X & & + + & * * * * * * * * * * & & - w o.3.7.| q @ @ q P P S S S S S S P P q @ $ w R E S S S S S S S S S S L y y y y y y L S ",
"  X & * & & & * * * * * * * * * * & o + # 5 o.i.0.t $ $ t 1.:.:.:.:.:.:.:.1.7.t % X @ 5 T 1.,.:.:.:.:.:.:.,.,.T 5 % % % % 5 T 1.",
"  X & * * * * * * * * * * * * * & @ o . . $ r ..[ w # # w y y y y y y y y y y w $     # w _ y y y y y y y y y w #         $ w _ ",
"  o & * * * * * * * * * * * * & + o @ & @ & , 4 ; $ o o $ % % % % % % % % % % $ o     X $ % % % % % % % % % % $ X         X $ % ",
"  o & * * * * * * * * * * * & @ o + & * * * * & o . . . . . . . X X X . . . X .             . X X . . . . . . X X X .     . . . ",
"  o & * * * * * * * * * * & + o @ & * * * * * & & + X X + & & # & & & # @ # & + X         . + & # # @ @ & @ @ & & @ X     X + & ",
"  o & * * * * * * * * * & + X X & * * * * * * * * & o o & * & & & & & & * * * & + X . . X + & * * * * * * * * * * & + X   o & * ",
"  X & * * * * * * * * & + X   o & * * * * * * * * & X o & & + X o o X + & * * * & @ X X + & * * * * * * * * * * * * & @ X o & * ",
"  o & * * * * * * * & @ o X   X @ & * * * * * * * # X o & & + X X X X + & * * * * & X X & * * * * * * * * * * * * * & + X o & * ",
"  o & * * * * * * & + o @ + X   X + & * * * * * * & X X # * & & # # # & * * * * * & X X # * * * * * * * * * * * * & + X   o & * ",
"  X + & * * * * & @ o + & & + X   X + & * * * * * & X X # * * * * * * * * * & & & @ o + & * * * * & & # & & & * * & + X   o & * ",
"    X + & * * & + o @ & * * & + X   . + & * * * * & X X # * * * * * * * * & + X X o @ & * * * * * & + X X + & * * * & + X X & * ",
"      X & * & @ o + & * * * * & + X X + & * * * * & X X & * * * * * * * * & + .   X & * * * * * * & + X X + & * * * * & X X & * ",
"      o & & + o @ & * * * * * * & & # & * * * * * # X X & * * * * * * * * * & + X X & * * * * * * * & & & & * * * * * & X X & * ",
"      X @ @ o + & * * * * * * * * * * * * * * * * & X X + & & & & * * * * * * & X X & * * * * * * * & & * * * * * * * & X o & * ",
"      . X + @ & * * * * * * * * * * * * * * * * * & o   X X X + & * * * * * * & o X & * * * * * * & + + & * * * * * * & o o & * ",
"          X @ & & & & & * * * * * * * * * * * * & + X   X o o + & * * * * * & + X X & * * * * * * & + + & * * * * * & + X o & * ",
"          . X o o X o + & * * * * * * * * * * & + X   X @ & & & * * * * * & + X   o & * * * * * * * & & * * * * * & + X   o & * ",
"                      X @ & & & & & & & & & & + X     X @ & & & & & # & & + X     X @ & & & & & # # & & & & # # & + X     X @ & ",
"                        X o o o o o o o o o o X .     . X o o o o X X o o X .     . X o o o o o X X o o o o o X X X       . X o ",
"                                                                                                                                "
};
