/* XPM */
static char *T[] = {
/* columns rows colors chars-per-pixel */
"64 64 137 2 ",
"   c #2E242F",
".  c #2F2530",
"X  c #312732",
"o  c #332935",
"O  c #382C37",
"+  c #362B39",
"@  c #3A2E3B",
"#  c #3B303E",
"$  c #43333D",
"%  c #48363E",
"&  c #3C3344",
"*  c #3F3648",
"=  c #423544",
"-  c #493740",
";  c #473844",
":  c #4B3945",
">  c #443849",
",  c #4C3B49",
"<  c #513D47",
"1  c #513D4A",
"2  c #53414E",
"3  c #5A434C",
"4  c #554152",
"5  c #5A4555",
"6  c #5E4758",
"7  c #5F4858",
"8  c #61474E",
"9  c #63494E",
"0  c #644A54",
"q  c #6A4E55",
"w  c #634B5B",
"e  c #694F58",
"r  c #6E5156",
"t  c #6D515B",
"y  c #72545A",
"u  c #745558",
"i  c #76575A",
"p  c #74555D",
"a  c #74555E",
"s  c #74555B",
"d  c #78585B",
"f  c #7B595C",
"g  c #78585F",
"h  c #795A5F",
"j  c #7A5A5F",
"k  c #7C5A5D",
"l  c #7D5B5D",
"z  c #7A595E",
"x  c #674E60",
"c  c #674E61",
"v  c #674E61",
"b  c #684E61",
"n  c #694E61",
"m  c #684F61",
"M  c #694F61",
"N  c #684E62",
"B  c #684F62",
"V  c #694F62",
"C  c #6A4F62",
"Z  c #684F62",
"A  c #695063",
"S  c #6A5062",
"D  c #6B5062",
"F  c #6A5063",
"G  c #6B5063",
"H  c #6B5163",
"J  c #6C5163",
"K  c #6D5262",
"L  c #6F5363",
"P  c #6A5064",
"I  c #6B5064",
"U  c #6E5364",
"Y  c #6F5364",
"T  c #6B5163",
"R  c #705361",
"E  c #715361",
"W  c #705362",
"Q  c #725463",
"!  c #715464",
"~  c #715465",
"^  c #725564",
"/  c #735564",
"(  c #725565",
")  c #735565",
"_  c #735665",
"`  c #745665",
"'  c #755765",
"]  c #755766",
"[  c #745665",
"{  c #755866",
"}  c #775866",
"|  c #775867",
" . c #775967",
".. c #775866",
"X. c #7A5A60",
"o. c #785963",
"O. c #7E5D61",
"+. c #7D5C62",
"@. c #7D5C63",
"#. c #785964",
"$. c #785966",
"%. c #795966",
"&. c #785967",
"*. c #7A5A67",
"=. c #7C5B66",
"-. c #7D5B66",
";. c #7F5D66",
":. c #7B5A63",
">. c #7F5D68",
",. c #805E61",
"<. c #805D62",
"1. c #805E62",
"2. c #825F64",
"3. c #805D66",
"4. c #805E67",
"5. c #805E63",
"6. c #815E68",
"7. c #815E68",
"8. c #856166",
"9. c #866268",
"0. c #876268",
"q. c #85616A",
"w. c #876268",
"e. c #886268",
"r. c #886368",
"t. c #8A6469",
"y. c #8B6469",
"u. c #8B656A",
"i. c #8B666A",
"p. c #8D6669",
"a. c #8D666B",
"s. c #8D676B",
"d. c #8E676C",
"f. c #8C656A",
"g. c #8F6869",
"h. c #936A6C",
"j. c #986E6D",
/* pixels */
"    . o & * * * * * * & o   X - l 0.*.B B B B B B B B B B 5 =                                                                   ",
"    . o & * * * * * * & + X X # 9 y E F B B B B B U / E w , @                                                                   ",
"    . o & * * * * * * * & + o O % 2 w B B B B B B / =.p < @ X                                                                   ",
"    . o & * * * * * * * * = = $ $ = 1 w w B B B B E p 0 $ X                                                                     ",
"      o & * * * * * * * * 2 q y w 1 = ; 7 B F B B 7 < $ o .                                                                     ",
"  . X + & * * * * * * * * 4 X.y./ 5 , : 7 B F B B w 2 % O .                                                                     ",
"  X + & * * * * * * * * * 4 X.a.*.w 5 5 w B B B B J t 9 $ X .                                                                   ",
"  o # * * * * * * * * * * 2 t @.*.! J B B B B B B ' ;.j 3 $ o                                                                   ",
"  o # * * * * * * * * * * > , w @.4.' B B B B B B J / X.j 9 $                                                                   ",
"  X + # # # # # # # & & & @ = 4 4.a.q.{ U F B B B B F / 4.q %                                                                   ",
"  . X o o o o o o o o o o o # 2 @.g.a.;.J B c B B B B J ' w % . .                                                               ",
"  . X o o o o o o o o X . X @ : q j l y w 5 5 w J / U B B 5 : + X .                                                             ",
"  o @ & & & & & & & # + X . X @ $ - - $ $ @ # < j 4.{ B B w 5 , + .                                                             ",
"  o # * * * * * * * * & + o o @ % - = $ $ @ O # 9 t J B B U ! w # X                                                             ",
"  o & * * * * * * * * * & @ # ; 0 q 5 4 4 : @ o % 2 w B B ' =.y $ X                                                             ",
"  o & * & & * * * * * * * * = 2 ,.0.*.B B 5 : @ @ : 5 B B E p 0 $ X                                                             ",
"  o @ & + + & * * * * * * * = 2 ,.r.*.B B w 6 5 5 5 w B B 7 < $ O .                                                             ",
"  o # & + + @ & * * * * * * = 2 ,.r.*.B B B B B c c B J / w % X .                                                               ",
"  o # * & @ + + & * * * * * > 4 ,.0.*.B B F F F P B F / 6.q %                                                                   ",
"  o # * * # o o & * * * * > 2 w @.4.' B B B B B B B F { y.i :                                                                   ",
"  o & * * # o o & * * * * 2 t @.*./ J B B B B B B c J { y.i :                                                                   ",
"  o & * * # o o & * * * * 4 j y.{ J B B B B B B B B J *.a.d :                                                                   ",
"  o & * * # o o & * * * * 4 @.d.{ F c B B B B B B B F ' y.i :                                                                   ",
"  o # * * # o o & * * * * 4 X.y.{ F B B B B B B B B B J j 9 %                                                                   ",
"  o # * * # o o & * * * * 4 X.y.{ F B B B B B B B F B w < $ O                                                                   ",
"  o # * * & + + & * * * * 2 e X.*.' J B B B B B B U F 5 @ X .                                                                   ",
"  o # * * * & & * * * * * > 2 0 ;.;.' B B B B B B F w 5 @ X .                                                                   ",
"  o & * * * * * * * * * * * = 2 ,.q.*.B B B B B B w 5 2 - # O                                                                   ",
"  o # * * * * * * * * * * * = 2 ,.r.*.B B B B B F 5 : - q 8 %                                                                   ",
"  X + & * * * * * * * * * * = 2 ,.a.q.' J B c w 5 1 < 3 X.q -                                                                   ",
"  X o + & * * * * * * * * * = 2 @.a.a.4.! J B 7 : < 0 p *.w $                                                                   ",
"    . X + # & & & & & & & & & : q d l j X.*./ w : 2 y 0.' 4 @                                                                   ",
"      . X o o o o o o o o o o @ $ $ - 3 j y.y.X.w w t ' U 4 @                                                                   ",
"      . o X X X o O o o o o O @ % - : 8 X.r.r.;.J B B F B 4 $                                                                   ",
"    . X @ + X X + @ & # # @ # ; 0 r y i o.*.*.' U F B B B 4 #                                                                   ",
"  . X + & @ o X + & * * * * = 2 ,.h.d.4.J B B B B B B B B 4 @                                                                   ",
"  o @ & * # o . X + & * * * = 2 ,.y.6./ J B B B B B B B B 4 @                                                                   ",
"  o # * * & @ o . o # * * * = 2 ,.q.*.F B B B B B B B B B 5 : @ X                                                               ",
"  o & * * * & @ X o # * * * = 2 ,.q.*.B B B B B B B B B B w 5 , O X                                                             ",
"  o & * * * * & + + & * * * = 2 ,.q.*.B B B B B B B B B B P c 5 # X                                                             ",
"  o # * * * * * & & * * * * = 2 ,.q.*.B B B B B B B B B B P c 5 # X                                                             ",
"  o # * * * * * * * * * * * = 2 ,.q.*.B B B B B B B B B B P c 5 # X                                                             ",
"  o # * * * * * * * * * * * = 2 @.q.*.B B B B B B B B B B P c 5 # X                                                             ",
"  o # * * * * * * * * * * * = 2 +.q.*.B B B B B B B B B B P c 5 # X                                                             ",
"  o & * * * * * * * * * * & @ : l 0.*.B B B B B B B B B B F c 5 # X                                                             ",
"  o + & * * * * * * * * * @ + # 9 i X.' U P P F B B B J ' *.o.0 $ X                                                             ",
"  X o + & * * * * * * * * # o O $ 3 i ;.J B c B B B B U ;.q.0.r $ X                                                             ",
"    . o & * * * & & & & & @ o     $ 9 y w 5 5 w c B F J j l j 0 $ X                                                             ",
"      o & * * & + o o o o X .     O @ $ $ @ @ : w J J w < - = $ O .                                                             ",
"      X @ # # @ + o . . o X . O $ % % $ $ # $ : w J J w , # o X .                                                               ",
"      . o o O + @ + X X @ + O $ 9 q 0 4 4 4 4 5 w F F w 5 : @ .                                                                 ",
"      . X o o + & & + + & & = 3 j 4.' c B B B B B B B B B 5 : + X                                                               ",
"    . X + # & & * * * & * 2 r X.o.' U B B B B B B B B B B w 5 , O .                                                             ",
"  . X + & * * * * = = * = 4 X.y.' J B B B B B B B B B B B B w 5 : @ X                                                           ",
"  X + & * * * * * * * * * 4 @.a.' B B B B B B B B B B B B P B w 5 , @                                                           ",
"  o # * * * * * * * * * * 4 @.y.' F B B B B B B B B B B B B B F F 5 =                                                           ",
"  o & * * * * * * * * * * 4 X.y.{ F B B B B B B B B B B B B B F F 5 =                                                           ",
"  o & * * * * * * * * * * 4 @.a.6.' J B B B B B B B B B B B B w 5 , @                                                           ",
"  o # * * * * * * * * * * 4 @.h.a.>./ B B B B B B B B B B F B 6 : @ X                                                           ",
"  o # * * * * * * * * * * 4 @.j.h.q.' B B B B B B B B B B P c 5 # X                                                             ",
"  o # * * * * * * * * * * 4 @.j.h.q.' B B B B B B B B B B P c 5 # X                                                             ",
"  X + & * * & & * * * * * 2 t 8.h.a.4./ F B B B B B B B B w 5 , O X                                                             ",
"  . X + * & @ + & * * * * > 2 q 0.h.a.6./ F B B B B B B B 5 : @ X                                                               ",
"    . o & @ o o & * * * * * = 2 +.h.j.y.' F B B B B B B B 4 @                                                                   "
};
