/* XPM */
static char * Sx_xpm[] = {
"64 64 71 1",
" 	c #2D232E",
".	c #312732",
"+	c #3D3445",
"@	c #3F3648",
"#	c #3D303D",
"$	c #2F2632",
"%	c #48363E",
"&	c #805D5E",
"*	c #90686C",
"=	c #755767",
"-	c #684F63",
";	c #6A5063",
">	c #6D5264",
",	c #5A4455",
"'	c #3B2E3A",
")	c #8F676B",
"!	c #7F5C5E",
"~	c #332835",
"{	c #352C3A",
"]	c #43333C",
"^	c #6B4E52",
"/	c #7A595F",
"(	c #6E5261",
"_	c #664D5F",
":	c #5F4859",
"<	c #4F3C4B",
"[	c #725565",
"}	c #856169",
"|	c #75555B",
"1	c #503C47",
"2	c #614959",
"3	c #6B5064",
"4	c #5E4758",
"5	c #483745",
"6	c #392C37",
"7	c #634A57",
"8	c #463544",
"9	c #513D4B",
"0	c #4D3A44",
"a	c #76565C",
"b	c #775867",
"c	c #56404D",
"d	c #775866",
"e	c #654C5F",
"f	c #7B5A60",
"g	c #7E5B60",
"h	c #594249",
"i	c #7C5A5F",
"j	c #815F68",
"k	c #9A6F6E",
"l	c #674E62",
"m	c #6D5054",
"n	c #644B58",
"o	c #31262F",
"p	c #664C59",
"q	c #705363",
"r	c #88636B",
"s	c #795964",
"t	c #8F686C",
"u	c #775863",
"v	c #7E5C60",
"w	c #825E63",
"x	c #7C5B68",
"y	c #78585D",
"z	c #715464",
"A	c #876263",
"B	c #886263",
"C	c #694E5B",
"D	c #91696C",
"E	c #846169",
"F	c #8D676B",
"   .+@@@@@@#..#@@+$%&*=--------;>,'',;;------=)!%$'@@@@@@@@@@+~ ",
"   .+@@@@@@+{{+@+{$]^/(--------_:<~',;;--;;--[}|]$'@@@@@@@@@+'~~",
"   ~+@@@@@@+++@+{. .#123;----;;456$',;;-;;;;-([7'$#@@@@@@@@+{~'+",
"   ~+@@@@@@@@@@+.~]]'894_----;;,'  ',;3_4,,4_--20]#++@@@@@+{~{+@",
"   ~+@@@@@@@@@@#$]^a29884;;--;;,'  ',>>:86'84;-(/^%~+@@@@+{~{+@@",
" $.{+@@@@@@@@@@'$%&*b4884;;---;21#.',-2c5]'84--=*&%$#@@@@+..+@@@",
" .{+@@@@@@@@@@@'$%&*de44_------(f^]',285^|74_--=*&%$+@@@@+..+@@@",
" ~+@@@@@@@@@@@@+~]^gd[>--------d*&%~<<~%!*d----[}|]$+@@@+{~{+@@@",
" ~+@@@@@@@@@@@@@+#]hi}[--------d*&%$~~ %!*d----([7'$#@@+{~{+@@@@",
" .{+++###++#++@@@#$%!*j[(;;----[}/1~$.#hi}[------21%#++{~{+@@@@@",
" $.~.........{+@@+$%!k*}[;;;---([(2<~]^gf[(-----l(fm%$.~{+@@@@@@",
" $.~......~. .{++{$]^i!|7,,2([(---3,'%a}[l-------(f^]  .+@@@@@@@",
" .{+++###++{. .~~.$.#%%]'''1f}[--;3,'#n=>-------;21].  .+@@@@@@@",
" ~+@@@@@@@@+{...~.$.#]'''~ #^/(--;;,'~<4l;-----;3,'$~]%%#+@@@@@@",
" ~+@@@@@@@@@+++++{$]^a7,,<~o'02;-;;,'$~523;-----3,'~<p/^]~+@@@@@",
" ~+@+++@@@@@@@@@@+$%&*d33:5''84;-;3,'  69:l--([q2<~',=rgh]#''++@",
" ~++{{+@@@@@@@@@@+$%i)d-;_4,,4_--;>,'  .~84-;=}f1~ ',>=sg^]$$~+@",
" ~++{~{+@@@@@@@@@+$%i)=l--;;;;---l:9'    #nq2na^] ~84--[}gh%%]#'",
" ~+@+{~{+@@@@@@@@+$%i)=---;;;;-;;486.    %/g1'%].~<:l--([fi!!^]$",
" .+@@+..#@@@@@@++#]h/}[--------;;,'      ]^^]  $6523;---l[}tt/h]",
" ~+@@+..#@@@@@@+~%^gu[(--------;-,'      ~]]~  692l;-----;[==fii",
" ~#@@+..+@@@@@@'$%!t=l---------(=n#            '92l--------ll[})",
" ~#@@+..#@@@@@@'$%!)=l---------[}a%            .'54;---------([=",
" .#@@+..#@@@@@@'$%!t=----------(/^]              ',;------------",
" .#@@+..#@@@@@@'$%&t=---------;21]~              ',;;-----------",
" .#@@+{{+@@@@@@+~%^/(--------;3,'                ',;;-----------",
" ~+@@@+++@@@@@@++#]02--------;>,'                ',-;-----------",
" ~+@@@@@@@@@@@@@@+$'7[(-----;l4c0]~              #n=(------([[(-",
" ~+@@@@@@@@@@@@@@+$]|}[----;3485m^]              %a}[l-----[}}[l",
" .{+@@@@@@@@++#++{$%&*d----_495hv/%              ]^vs==[>_47|if=",
" $.{+@@@@@@+{....$ %&*d----,85mvsn#              .]hg**}=48']hg*",
"   .{++++++{. ...$ ]^|74(ddp80/}=,'                #^&&an<~  #^&",
"   $.~~~~~~. .{++{..#]'0/))wp2(=>,'                .]%%%]6$  .]%",
"   $..  .~~..{+@@+~.#%]h/))}[---;,'                      .]%#'''",
"   .{{..{+++++@@@+.]^ii/u==[(---;,'                      ]^an,,,",
" $.{++..{+@@@@@@@#.%!k*}[ll----;;,'                    .]hv}[-;;",
" .{+@+. .{+@@@@@@+$%!*x[;------;;,'                    ]^vs[(--;",
" ~+@@+{. .#@@@@@@+$%i)=l-------;;456.            .']%].#^f(-----",
" ~+@@@+{$.#@@@@@@+$%i)=l---------l:9'            ~<py^# '02;----",
" ~+@@@@+{{+@@@@@@+$%i)=l---------;>,'          .68:=}gh%]5c4_---",
" .#@@@@@+++@@@@@@'$%i)=----------;3,'          6<:l>[fi!!^584;;-",
" ~#@@@@@@@@@@@@@@'$%i)=----------;;,'      ~]%#8:3;-l[}**|]',;;-",
" ~+@@@@@@@@@@@@@@#$%i)=----------;;,'      ]^/n4l;---([dd7'',;;-",
" ~+@@@@@@@@@@@@@@'$%!)=l----------;,'      ]^gz----------4884;--",
" ~+@@@@@@@@@@@@@@#$%&t=l-----------,'      ~]12----------_44_---",
" .{+@@@@@@@@@@@@@+.]^gs[(;;----([ddn#        'n=(------------([=",
" $.{+@@@@@@@@@@@@+~.#hv}=;;;---[}t*a%        %a}[------------[})",
"   ~+@@@+#++++#++{.  '^an,,4_--(ai&^]    ~]].]^/(------([=d(27|!",
"   ~+@@+{~~~~...~.$  .]]#''84;;20%%]~    ]^^].#1233;---[}t*/0']%",
"   .{++{.     ..~. .]%'''''84;;20'.  ~]]'9ABh'o~<,,2q(27a!&^]$$.",
"   $.~~.     .{++{$#^a2,,,,4_--(/^]  ]^a7CrDA^' ~''1gf1']%%]#+++",
"   $.~~~.~~..{+@+#]hg}=-;;;;---d*&%  %&td[E)t/1''~$]^m%$$$$~+@@@",
"   .{+++##++++@+~%^gs[(-;;;----dt&%  %&td;[==(2,,<~.]%#+'''+@@@@",
" $.{+@@@@@@@@@@#$%!t=l---------[}|%  ]|}[------>=p]  .+@@@@@@@@@",
" .{+@@@@@@@@@@@#$%!)=l---------([7#  '7[(------[r/%  .+@@@@@@@@@",
" ~+@@@@@@@@@@@@#$%i)=l-----------,'.#02------;[sg^%..~{+@@@@@@@@",
" .+@@@@@@@@@@@@'$%i)=l---------;;,']^/(-----l[}gh]#++'~{+@@@@@@@",
" .#@@@@@@@@@@@@'$%iDxz;--------;;,'%!*=----;[fg^]~+@@+{~{+++@@@@",
" .+@@@@@@@@@@@@'$%ikDwz--------;;,'%!t=----[}/h]#++@@@+{~..{+@@@",
" ~+@@@@@@@@@@@@'$%ikk)=--------;;,']|}[---l=t!%$'@@@@@@+{..~{+@@",
" ~+@@@@@@@@@@@@#$%ikkF=--------;;,''7[(---l=t!%$'@@@@@@@+#+{~{+@",
" ~+@@@++@@@@@@+{~]^wD)=--------;;,'',----([fi^]~+@@@@@@@@@@+{~{+",
" ~#@@+{{+@@@@+{~{#]hw)=--------;;,'',;;--[}ih]#+@@@@@@@@@@@@+{~.",
" .#@@#..#@@@@+.~++$]i)=--------;;,'',;;--=)i%$#@@@@@@@@@@@@@@+. "};
