/* XPM */
static char *U[] = {
/* columns rows colors chars-per-pixel */
"64 64 139 2 ",
"   c #2D242F",
".  c #2E2530",
"X  c #312632",
"o  c #332935",
"O  c #382B36",
"+  c #362B39",
"@  c #3A2E3B",
"#  c #3B303E",
"$  c #43333D",
"%  c #48363E",
"&  c #3D3344",
"*  c #3F3648",
"=  c #433543",
"-  c #493741",
";  c #473844",
":  c #4B3944",
">  c #453949",
",  c #4D3B49",
"<  c #503C44",
"1  c #513E4A",
"2  c #54404E",
"3  c #5A444C",
"4  c #564253",
"5  c #5B4555",
"6  c #5E4856",
"7  c #5D4758",
"8  c #5F4859",
"9  c #60474D",
"0  c #63494E",
"q  c #644A53",
"w  c #6B4E55",
"e  c #624A5A",
"r  c #604959",
"t  c #654C58",
"y  c #634B5D",
"u  c #664D5D",
"i  c #654D5F",
"p  c #664D5F",
"a  c #634B5B",
"s  c #694E58",
"d  c #6D5056",
"f  c #6C5058",
"g  c #6F525B",
"h  c #6D515C",
"j  c #6E515B",
"k  c #705257",
"l  c #72545A",
"z  c #745558",
"x  c #75555A",
"c  c #72545C",
"v  c #74555D",
"b  c #76575D",
"n  c #75555B",
"m  c #78575B",
"M  c #7B5A5C",
"N  c #7B5A5D",
"B  c #78585F",
"V  c #79595F",
"C  c #7A5A5F",
"Z  c #7C5B5D",
"A  c #7A595E",
"S  c #664E60",
"D  c #674E60",
"F  c #674E61",
"G  c #674E61",
"H  c #684E61",
"J  c #684F61",
"K  c #694F61",
"L  c #684E62",
"P  c #684F62",
"I  c #694F62",
"U  c #694F63",
"Y  c #684F62",
"T  c #695062",
"R  c #695063",
"E  c #6A5062",
"W  c #6A5063",
"Q  c #6B5063",
"!  c #6B5163",
"~  c #6E5261",
"^  c #6C5162",
"/  c #6C5163",
"(  c #6C5262",
")  c #6D5262",
"_  c #6F5363",
"`  c #6B5064",
"'  c #6D5264",
"]  c #6E5364",
"[  c #6E5365",
"{  c #6B5163",
"}  c #705361",
"|  c #715462",
" . c #715563",
".. c #725563",
"X. c #765762",
"o. c #715564",
"O. c #725564",
"+. c #735564",
"@. c #735665",
"#. c #745665",
"$. c #755765",
"%. c #755766",
"&. c #735665",
"*. c #775866",
"=. c #7B5A60",
"-. c #785963",
";. c #7D5B63",
":. c #7E5D61",
">. c #7D5C63",
",. c #785964",
"<. c #785966",
"1. c #785967",
"2. c #795A67",
"3. c #7A5A67",
"4. c #7C5B65",
"5. c #7E5C66",
"6. c #7E5D66",
"7. c #7A5A64",
"8. c #805C5F",
"9. c #825F64",
"0. c #805D67",
"q. c #805E64",
"w. c #815E68",
"e. c #856165",
"r. c #846069",
"t. c #866268",
"y. c #876268",
"u. c #85616A",
"i. c #866268",
"p. c #8A6469",
"a. c #8A6569",
"s. c #8D6669",
"d. c #8D666B",
"f. c #8D676B",
"g. c #8B656A",
"h. c #8F6869",
"j. c #8F686B",
"k. c #936A6C",
"l. c #986E6D",
/* pixels */
"    . o & * * * * * * & o   X - Z t.3.P P P P P P P P P W 4 $     = 4 P P P P P P P P P P 3.t.Z - @ @ * * * * * * * * * * # o   ",
"    . o & * * * * * * * + . . @ 0 c | W P P P P P ] +.| r , @     # 4 P P P P P W W W W P *.6.l % + @ * * * * * * * * * & @ + o ",
"    . o & * * * * * * * & + o o % 2 r P P P P P P +.4.v 1 @ X     $ 4 P P P P P P P P P P ] | t $ @ # * * * * * * * * & + + @ # ",
"    . o & * * * * * * * * = = $ $ = 1 8 u P P P P } v q $ X       $ 4 P P P P F r 5 5 r u W P r 1 = & & * * * * * * & @ o + & * ",
"      o & * * * * * * * * 2 w l r 1 = ; 8 P W P P r 1 $ o .       $ 4 P P W P r : @ @ : r P W / B 0 % + & * * * * & + o + & * * ",
"  . X + & * * * * * * * * 5 C p.+.5 , : 8 P W P P r 2 % X         = 5 ] ] u 5 2 < - % : 8 F W $.p.x : o & * * * * @ o o # * * * ",
"  X + & * * * * * * * * * 5 =.d.3.u 5 5 y P P P P / h 0 # X       # 4 / / 5 , : q w q 5 y F ` *.d.x : o & * * * * @ o o & * * * ",
"  o # * * * * * * * * * * 2 f >.3.+./ P P P P P P $.0.C 3 $ X     @ , 5 5 , @ % C t.3.P P F W $.r.w % o & * * * & @ + + & * * * ",
"  o # * * * * * * * * * * > , r ;.0.$.P P P P P P / +.=.C 0 $     X O # # o o = C t.3.P P P W ] +.5 = o & * * & + + @ & * * * * ",
"  X + # # # # # # # # & & # = 4 0.d.t.$.] ` W P P P W +.0.w %       . X X O % 3 C 6.$.P P P P P W r 2 - & & # @ + @ & * * * * * ",
"  . X o o o o o o o o o o o @ 2 >.h.d.6./ P F P P P P / $.r % . .         $ 0 v X.| / P P P P P P / f 0 $ o o o @ & * * * * * * ",
"  . X o o o o o o o o X . X @ : w C Z l r 5 5 r / +.] P P 5 : + X         - f t.+.P F P P P P P P } v q $ X   o & * * * * * * * ",
"  o @ & & & & & & & # + X . . o $ - - $ $ @ # 1 C 0.$.P P u 5 , O .       = r $.] P P P P P P P P r 1 $ o .   o & * * * * * * * ",
"  o # * * * * * * * * & + o o @ % - = $ $ @ o @ 0 h / P P ] | t $ X       @ , 5 u P W P P P P P W 5 = o @ % % % # @ & * * * * * ",
"  o & * * * * * * * * * & @ # ; q w 6 4 4 : @ o % 2 r P P $.4.l $ X       X @ ; 5 u P P P W W P P 4 # o , q d q % @ @ * * * * * ",
"  o & * & & * * * * * * * * = 2 q.t.3.P P 5 : @ @ : 5 P P } v q $ X         . O , 5 u P P ] +./ r , @ @ 5 $.0.C 3 % # & & & * * ",
"  o @ & + + & * * * * * * * = 2 q.y.3.P P u 7 5 4 5 y P P r 1 $ o .         . X O : 5 P P *.0.B 1 @ X @ 5 / $.-.C 0 % o o + & * ",
"  o # & + + @ & * * * * * * = 2 q.y.3.P P P P F F F P / +.r % X .             . . = r } r t w 0 @ o $ 1 r P W +.0.x 9 < : = # # ",
"  o # * & @ + + & * * * * * = 4 q.t.3.P P W W ` ` P W +.w.w %                     - w v 1 % % % o % 9 v h P F / $.=.v x x q - + ",
"  o # * * # o o & * * * * > , r ;.0.$.P P P P P P F W *.p.x :                     % 0 q $ X . o $ 9 8.d.*.W F P P | 0.d.d.v 3 = ",
"  o & * * # o o & * * * * 2 f >.3.+./ P P P P P P P / *.d.x :                     O $ $ o   . $ q q.d.d.*.W F P P W +.*.*.=.C C ",
"  o & * * # o o & * * * * 5 C p.*./ P P P P P P P P / 3.d.m :                     X X X .   . @ 0 C t.w.+.W P P P P W W W | 6.t.",
"  o & * * # o o & * * * * 5 >.d.*.W F P P P P P P P W $.p.x :                               . o % 3 f +./ P P P P P P F F / $.3.",
"  o # * * # o o & * * * * 5 =.p.*.W F P P P P P P P P / C 0 $                                     $ 4 P P P P P P P P P P P P P ",
"  o # * * # o o & * * * * 5 =.p.*.W F P P P P P P W P r 1 # X                                     # 4 P P P P P P P P P P P P P ",
"  o # * * & + + & * * * * 2 s =.3.+./ P P P P P P ] W 5 @ .                                       % q +./ P P P P P P P P P P P ",
"  o # * * * & & * * * * * > 2 t 6.6.$.P P P P P P W u 4 @ X                                       % d w.+.W P P P P P P P P P P ",
"  o & * * * * * * * * * * * = 2 q.t.3.P P P P P P y 5 4 < $ X                                     : x d.*.W F P P P P P P P P P ",
"  o # * * * * * * * * * * * = 2 q.t.3.P P P P P P 5 , < w 0 %                                     : x d.*.W F P P P P P P P P P ",
"  X + & * * * * * * * * * * = 2 e.h.t.$./ P F y 5 1 1 9 =.w -                                     % 0 C 3.3.3.3.3.$./ u 5 4 4 4 ",
"  . o + & * * * * * * * * * = 2 >.h.d.0.| / P 8 : 1 q v 3.t %                                     o % 3 C t.y.t.t.0.c 5 : = $ $ ",
"      X @ & & & & & & & & & & : w m C C =.3.+.r : 2 c t.$.5 $                                       X $ q C >.Z Z x t , + .     ",
"      . X o o o o o o o o o o @ $ $ - 3 C p.p.=.r r h $.] 4 #                                       . o $ - : - - % # O X .     ",
"      . o o X X o o o o o o o @ % - , 3 =.t.y.6./ F P W P 4 $                                         . X X X X X X X . .       ",
"    . o @ + o X + @ & # # @ # ; q k l c X.3.3.$.] W P P F 4 #                                                   . X X X X . .   ",
"  . o + & @ o X + & * * * * = 2 q.k.j.0./ P P P P P P P P 4 #                                               . X @ # $ $ $ @ o   ",
"  o @ & * & o . X + & * * * = 2 q.p.w.+./ P P P P P P P P 4 $                                               . O , 5 5 r l 0 $   ",
"  o # * * & @ o . o & * * * = 2 q.t.3.W P P P P P P P P P 7 , @ X                                 X @ = - $ O o : 4 u +.0.h 1 $ ",
"  o # * * * & @ X o # * * * = 2 q.t.3.P P P P P P P P P P u 5 , O .                           . . @ , r f 0 % o @ , 8 | *./ 8 4 ",
"  o # * * * * & + + & * * * = 2 q.t.3.P P P P P P P P P P ` F 5 # X                         . X @ ; 5 $.t.v 3 % % : 2 8 u P P P ",
"  o # * * * * * & & * * * * = 2 q.t.3.P P P P P P P P P P W P 5 # X                         . O , 5 u ] +.X.C C C q < : 8 P ` P ",
"  o & * * * * * * * * * * * = 2 q.t.3.P P P P P P P P P P ` P 5 # X                 . o % - = : 5 u P P P | 6.t.t.w - @ 5 F ` P ",
"  o # * * * * * * * * * * * = 2 >.t.3.P P P P P P P P P P W F 5 # X                 . @ 0 w r 5 u P W P F / $.3.3.r % @ 5 P W P ",
"  o # * * * * * * * * * * * = 1 ;.t.3.P P P P P P P P P P W F 5 # X                 X $ q v } P P P P P P P P P P 5 : : r P W P ",
"  o # * * * * * * * * * * & @ : Z t.3.P P P P P P P P P P W F 5 # X                 . o $ 1 r P P P P P P P P P P y 8 r u P P P ",
"  o + & * * * * * * * * * @ o @ 0 v 3.$.] ` ` W P P P / $.3.*.t $ X                   . X % t $.] W P P P P P P P F F P P ] $.3.",
"  . o + * * * * * * * * * # o X $ 3 v 6./ P F P P P P ] 6.t.t.l $ X                 . .   % w 0.+.W P P P P P W W W W P P | 6.t.",
"    . o & * * * & & & & & @ o     $ 0 l r 5 5 r F P W / C Z m q $ X               X o o X $ 0 C / P P P P P P ] $.*.$./ r t l Z ",
"    . o & * * & + o o o o X .     X @ $ $ @ @ : r W W r 1 - = $ o .               @ , , @ o @ 1 r P W P P P P / 0.d.p.C 1 $ % - ",
"    . X @ # # @ + X X X o X . X $ % % $ $ # $ : 8 / / 8 , @ o X . O $ - = = $ $ $ , 5 7 : @ X O , 4 5 r } / r 5 w x x 0 = @ + @ ",
"      . o o o + @ + X o @ + o # 0 w q 4 4 4 4 5 y W W y 5 : @ .   $ 9 f r 5 4 4 4 8 u F 5 : @ X @ # = 1 v f 2 $ % : : % & # # @ ",
"      . X o o + & & + + & & = 3 C 0.$.P P P P P P P P P W 5 : + . - f t.$.W P P P P P P P 5 : # @ o o $ q 0 - o X X o + & * * * ",
"    . X + # & & * * * & * 2 w C -.$.] P W P P P P P P P P u 5 , + = 6 $.] W P P P P P P P u 7 5 5 , @ o $ $ & & & & & & * * * * ",
"  . X + & * * * * * * * * 5 C p.$./ P P P P P P P P P P P P F 7 : : 1 5 u P P P P P P P P F F / $.q % . X o & * * * * * * * * * ",
"  X + & * * * * * * * * * 5 >.d.$.P F P P P P P P P P P P P W F 5 1 ; ; 5 P W P P P P P P W ] $.w.w %     o # * * * * * * * * * ",
"  o # * * * * * * * * * * 5 =.y.$.W F P P P P P P P P P P P P F 8 , @ @ 5 F ` P P P P P P ] $.-.C 0 % X X o @ & * * * * * * * * ",
"  o & * * * * * * * * * * 5 =.y.*.W F P P P P P P P P P P P P r : @ X @ 5 F ` P P P P P P $.0.C 3 % # & & @ + + & * * * * * * * ",
"  o # * * * * * * * * * * 5 =.p.w.$./ P P P P P P P P P P ` F 5 @ o @ : 7 P W P P P P W +.=.x 0 % @ @ * * & @ + @ # # & * * * * ",
"  o # * * * * * * * * * * 5 >.k.d.0.+.P P P P P P P P P P ` F 5 @ @ : 5 u P P P P P W +.w.C 9 % # @ & * * * & @ + o o + & * * * ",
"  o & * * * * * * * * * * 5 >.l.k.t.$.P P P P P P P P P P ` F 5 # $ 4 P P P P P P F W *.d.x : o & * * * * * * & + o o o @ & * * ",
"  o # * * * * * * * * * * 5 >.l.k.t.$.P P P P P P P P P P ` F 5 # $ 4 P P P P P P F W *.d.x : o & * * * * * * * & & # + o + & * ",
"  X + & * * & & * * * * * 2 f e.h.p.6.+./ P P P P P P P P u 5 , O $ 4 P P P P P P / | -.v q = + & * * * * * * * * * * & + + @ # ",
"  . X + & & @ + & * * * * > 2 s t.k.d.0.+.W P P P P P P P 7 , @ X = 4 P P P P P P $.6.C 3 - # & * * * * * * * * * * * * & @ + o ",
"      o & @ o o & * * * * * = 2 q.k.k.p.*.W P P P P P P P 4 $     $ 4 P P P P P P 3.t.C = + # * * * * * * * * * * * * * * # o   "
};
