/* XPM */
static char * V_xpm[] = {
"64 64 66 1",
" 	c #2D232E",
".	c #332835",
"+	c #3D3445",
"@	c #3F3648",
"#	c #3B2E3A",
"$	c #2F2632",
"%	c #43333C",
"&	c #7C5A5F",
"*	c #8F676B",
"=	c #755767",
"-	c #684F63",
";	c #674E62",
">	c #90686C",
",	c #805D5E",
"'	c #48363E",
")	c #332833",
"!	c #2E242F",
"~	c #2F2530",
"{	c #3D303D",
"]	c #594249",
"^	c #856169",
"/	c #725565",
"(	c #6E5261",
"_	c #7B5A60",
":	c #7E5B60",
"<	c #6B4E52",
"[	c #352C3A",
"}	c #7A595F",
"|	c #312732",
"1	c #302631",
"2	c #7F5C5E",
"3	c #8F686C",
"4	c #75555B",
"5	c #322732",
"6	c #634A57",
"7	c #2F252F",
"8	c #5E4758",
"9	c #463544",
"0	c #312631",
"a	c #6A5063",
"b	c #664D5F",
"c	c #4F3C4B",
"d	c #392C37",
"e	c #6D5264",
"f	c #644B58",
"g	c #795964",
"h	c #76565C",
"i	c #88636B",
"j	c #664C59",
"k	c #5A4455",
"l	c #6D5054",
"m	c #5F4859",
"n	c #6B5064",
"o	c #7E5C60",
"p	c #503C47",
"q	c #614959",
"r	c #483745",
"s	c #4D3A44",
"t	c #513D4B",
"u	c #705363",
"v	c #775866",
"w	c #56404D",
"x	c #392C38",
"y	c #302530",
"z	c #332733",
"A	c #312632",
" .+@@@@@@@@@@@@@@#$%&*=-----;=>,')!!!!!!!!!~!!!!!!!~!!!!!!!!!!!~",
"..#+@@@@@@@@@@@++{%]&^/----(/_:<%~!!!!!!!!!!!!!!!!!!!!!!!!!!!!!!",
"+#.[+@@@@@@@@@@+.%<}_/(----/^&]{|1!~!!!!!!!!!!!!!!!!!!!!!!!!!!!!",
"@+[.[+++@@@@@@@#$'23=;-----/^4%  5!!!!!!!!!!!!!!!!!!!!!!!!!!!!!!",
"@@+[.||[+@@@@@@#$'23=;-----(/6#  7!!!!!!!!!!!!!!!!!!!!!!!!!!!!!!",
"@@@+[||.[+@@@@+{%]&^/--------89.$0!!!!!!!!!!!!!!!!!!!!!!!!!!!!!!",
"@@@@+++[.[+@@+.%<:_/a--------b8cd1!!!!!!!!!!!!!!!!!!!!!!!!!!!!!!",
"@@@@@@@+[.[++{%]:^/;---------e=f% !!!!!!!!!!!!!!!!!!!!!!!!!!!!!!",
"@@@@@@@@+[.||'<:g/(----------/^h' !!!!!!!!!!!!!!!!!!!!!!!!!!!!!!",
"@@@@@@@@@+|  '}i=------------=>,' !!!!!!!!!!!!!!!!!!!!!!~!!!!!!!",
"@@@@@@@@@+$  %j=e-----------;=>,' !!!!!!!!!!!!!!!!!!!!!!!!!!!!!~",
"@@@++{++{{'%|.ckk8;a----aaa(/g:<% !!!!!!!!!!!!!!!!!!!!!!!!!!!!!!",
"@@@+.$$$$'l<%$.##9mna-aaaa-=^o]{| !!!!!!!!!!!!!!!!!!!!!!!!!!!!!!",
"##{{'''%#p__p##. .cq;;8kkkkfh<%   !!!!!!!!!!!!!!!!!!!!!!!!!!!!!!",
"$$$%<,,46q((qkkc. .rqqr####{'%|   !!!!!!!!!!!!!!!!!!!!!!!!!!!!!!",
"'%#s}>>^/-;-annqp%|dtt#           !!!!!!!!!!!!!!!!!!!!!!!!!!!!!!",
"246q(==/(----a-u_<%$d#|           !!!!!!!!!!!!!!!!!!!!!!!!!!!!!!",
"*^/------------/^h'               !!!!!!!!!!!!!!!!!!!!!!!!!!!!!!",
"=/(-a----------(=f#               !!!!!!!!!!!!!!!!!!!!!!!!!!!!!!",
"---b88b---------aqp%.             !!!!!!!!!!!!!!!!!!!!!!!!!!!!!!",
"--a8998----------u:<%             !!!!!!!!!!!!!!!!!!!!!!!!!!!!!!",
"-aak##6vv/(---a;8f}<%             !!!!!!!!!!!!!!!!!!!!!!!!!!!!!!",
"-aakd%4>>^/;-anm9{'%.             !!!!!!!!!!!!!!!!!!!!!!!!!!!!!!",
"--a89r<22&_/e;qt.                 !!!!!!!!!!!!!!!!!!!!!!!!!!!!!!",
"---bmwr'']:^=8rd|                 !!!!!!!!!!!!!!!!!!!!!!!!!!!!!!",
"aaaneq9. {<hfc.                   !!!!!!!!!!!!!!!!!!!!!!!!!!!!!!",
"aaaae-qc.|%'{.$                   !!!!!!!!!!!!!!!!!!!!!!!!!!!!!!",
"kkkkkkkc.$.#x)~!~y~!              !!!!!!!!!!!!!!!!!!!!!!!!!!!!!!",
"#######.$.rz!!!!!!!!!!!!          !!!!!!!!!!!!!!!!!!!!!!!!!!!!!!",
"!!!!!!!!!!!!!!!!!!!!!!!!!!!!!!!!!!!!!!!!!!!!!!!!!!!!!!!!!!!!!!!!",
"!!!!!!!!!!!!!!!!!!!!!!!!!!!!!!!!!!!!!!!!!!!!~A!!!!!!!!!!!!!!!!!!",
"!!!!!!!!!!!!!!!!!!!!!!!!!!!!!!!!!!!!!!!!!!!!!!!!!!!!!!!!!!!!!!!!",
"~!!!!!!!!!!!!!~!!!!!!!!!!!!!!!!!!!!!!!!!!!!!!!!!!!!!!!!!!!!!!!!!",
"!!!!!!!!!!!!!!!!!~!!!!!~A!!!!!!!!!!~~!!!!!!!!!!!!!!!!!!!!!!!!!!!",
"!!!!!!!!!!!!!!!!!!~!!!!!!!!!!!!!!!!!!!!!!!!!!!!!!!!!!!!!!!!!!!!!",
"!!~!!!!!!!!!!!!!!!!!!!!!!!!!!!!!!!!!!!!!!!!!!!!!!!!!!!!!!!!!!!!!",
"!!!!!!!!!!!!!!!!!!!!!!!!!!!!!!!!!!!!!!!!!!!!!!!!!!!!!!!!!!!!!!!!",
"!!!!!!!!!!!!!!!!!!!!!!!!!!!!!!!!!!!!!!!!!!!!!!!!!!!!!!!!!!!!!!!!",
"!!!!!!!!!!!!!!!!!!!!!!!!!!!!!!!A~!!!!!!!!!!!!!!!!!!!!!!!!!!!!!!!",
"!!!!!!!!!!!!!!!!!!!!!!!!!!!!!!!!!!!!!!!!!!!!!!!!!!!!!!!!!!!!!!!!",
"!!!!!!!!!!!!!!!!!!!!!!!!!!!!!!!!!!!!!!!!!!!!!!!!!!!!!!!!!!!!!!!!",
"!!!!!!!!!!!!!!!!!!!!!!!!!!!!!!!!!!!!!!!!!!!!!!!!!!!!!!!!!!!!!!!!",
"!!!!!!!!!!!!!!!!!!!!!!!!!!!!!!!!!!!!!!!!!!!!~A!!!!!!!!!!!!!!!!!!",
"!!!!!!!!!!!!!!!!!!!!!!!!!!!!!!!!!!!!!!!!!!!!!!!!!!!!!!!!!!!!!!!!",
"~!!!!!!!!!!!!!~!!!!!!!!!!!!!!!!!!!!!!!!!!!!!!!!!!!!!!!!!!!!!!!!!",
"!!!!!!!!!!!!!!!!!~!!!!!~A!!!!!!!!!!~~!!!!!!!!!!!!!!!!!!!!!!!!!!!",
"!!!!!!!!!!!!!!!!!!~!!!!!!!!!!!!!!!!!!!!!!!!!!!!!!!!!!!!!!!!!!!!!",
"!!~!!!!!!!!!!!!!!!!!!!!!!!!!!!!!!!!!!!!!!!!!!!!!!!!!!!!!!!!!!!!!",
"!!!!!!!!!!!!!!!!!!!!!!!!!!!!!!!!!!!!!!!!!!!!!!!!!!!!!!!!!!!!!!!!",
"!!!!!!!!!!!!!!!!!!!!!!!!!!!!!!!!!!!!!!!!!!!!!!!!!!!!!!!!!!!!!!!!",
"!!!!!!!!!!!!!!!!!!!!!!!!!!!!!!A!!!!!!!!!!!!!!!!!!!!!!!!!!!!!!!!!",
"!!!!!!!!!!!!!!!!A!!!!!!!!A!!!!!!!!!A!!!!!!!!!!!!!!!!!!!!!!!!!!!!",
"!!!!!!!!!!!!!!!!!!!!!!!!!!!!!!!!!!!!!!!!!!!A!!!!!!!!!!!!!!!!!!!!",
"!!!!!!!!!!!!!!!!!!!!!!!!!!!!!!!!!!!!!!!!!!!!!!!A!!!!!!!!!!!!!!!!",
"!!!!!!!!!!!!!!!!!!!!!!!!!!!!!!!!!!!!!!!!!!!!!!!!!!!!!!!!!!!!!!!!",
"~!!!!!!!!!!!!!!!!!!!!!!!!!!!!!!!!!!!!!!!!!!!!!!!!!!!!!!!!!!!!!!!",
"!!!!!!!!!!!!!!!!!!!!!!!A!!!A!!!!!!!!!!!!!!!!!!!!!!!!!!!!!!!!!!!!",
"!!!!!!!!!!!!!!!!!!!!!!!!!!!!!!!!!!!!!!!!!!!!!!!!!!!!!!!!!!!!!!!!",
"!!!!A!!!!!!!!!!!!!!!!!!!!!!!!!!!!!!A!!!!!!!!!A!!!!!!!!!!!!!!!!!!",
"!!!!!!!!!!!!!!!!!!!!!!!!!!!!!!!!!!!!!!!!!!!!!!!!!!!!!!!!!!!!!!!!",
"!!!!!!!!!!!!!!!!!!!!!!!!!!!!!!!!A!!!!!!!!!!!!!!!!!!!!!!!!A!!!!!!",
"!!!!!!!!!!!!!!!!!!!!!!!!!!!!!!!!!!!!!!!!!!!!A!!!!!!!!!!!!!!!!!A~",
"!!!!!!!!!!!!A!!!!!!!!!!!!!!!!!!!!!!!!!!!!!!!!!!!A!!!!!!!!!!!!!!!",
"!!!!!!!!!!!!!!!!!!!A!!!!!!!!!!!!!!!!!!!!!!!!!!!!!!!!!!!!!!!!!!!!"};
