/* XPM */
static char *w[] = {
/* columns rows colors chars-per-pixel */
"64 64 144 2 ",
"   c #2D232E",
".  c #2F2530",
"X  c #322631",
"o  c #352933",
"O  c #382B37",
"+  c #3D2F3C",
"@  c #3F303C",
"#  c #43333D",
"$  c #49373F",
"%  c #4B383F",
"&  c #453541",
"*  c #493741",
"=  c #4D3941",
"-  c #4B3C4C",
";  c #513C43",
":  c #523F4E",
">  c #54404F",
",  c #5B444C",
"<  c #544151",
"1  c #5B4554",
"2  c #5D4759",
"3  c #5E485B",
"4  c #60474D",
"5  c #63494F",
"6  c #604753",
"7  c #634955",
"8  c #6B4F56",
"9  c #624A5C",
"0  c #694E5E",
"q  c #6C5057",
"w  c #745457",
"e  c #755559",
"r  c #78575A",
"t  c #7B5A5D",
"y  c #674E61",
"u  c #694F62",
"i  c #6E5263",
"p  c #6C5163",
"a  c #6B5164",
"s  c #6C5164",
"d  c #6D5264",
"f  c #6E5364",
"g  c #6F5364",
"h  c #6B5063",
"j  c #715462",
"k  c #705464",
"l  c #715464",
"z  c #715564",
"x  c #725464",
"c  c #725564",
"v  c #735564",
"b  c #725565",
"n  c #735565",
"m  c #735664",
"M  c #735665",
"N  c #745665",
"B  c #745765",
"V  c #755765",
"C  c #765765",
"Z  c #765766",
"A  c #735665",
"S  c #775862",
"D  c #775863",
"F  c #765865",
"G  c #775865",
"H  c #775966",
"J  c #775864",
"K  c #7A5960",
"L  c #785863",
"P  c #7A5A64",
"I  c #785966",
"U  c #795A66",
"Y  c #795A67",
"T  c #7A5A67",
"R  c #7E5C64",
"E  c #7D5C66",
"W  c #7D5C67",
"Q  c #7E5C66",
"!  c #7E5D66",
"~  c #7E5D67",
"^  c #7F5D67",
"/  c #7B5A64",
"(  c #835F61",
")  c #815D62",
"_  c #805D67",
"`  c #805E67",
"'  c #815E67",
"]  c #815E66",
"[  c #805E68",
"{  c #815F68",
"}  c #825F68",
"|  c #835F68",
" . c #825F68",
".. c #846061",
"X. c #826067",
"o. c #866167",
"O. c #866267",
"+. c #876267",
"@. c #866267",
"#. c #8D6566",
"$. c #8E6667",
"%. c #826068",
"&. c #836068",
"*. c #836069",
"=. c #866268",
"-. c #876368",
";. c #846068",
":. c #886368",
">. c #886369",
",. c #886469",
"<. c #896469",
"1. c #8A6469",
"2. c #8B6569",
"3. c #8A646A",
"4. c #8B656A",
"5. c #8B656B",
"6. c #8C6669",
"7. c #8E6669",
"8. c #8C656A",
"9. c #8C666A",
"0. c #8D666A",
"q. c #8E676A",
"w. c #8F676A",
"e. c #8F676B",
"r. c #8E676C",
"t. c #8B656A",
"y. c #8F686C",
"u. c #916869",
"i. c #91686A",
"p. c #91696B",
"a. c #92696A",
"s. c #93696A",
"d. c #936A6A",
"f. c #956B6B",
"g. c #966C6B",
"h. c #946A6C",
"j. c #946B6C",
"k. c #956B6C",
"l. c #966C6C",
"z. c #976C6C",
"x. c #956B6C",
"c. c #986D6D",
"v. c #986D6E",
"b. c #986D6D",
/* pixels */
"  = r z.z.z.z.z.z.z.z.z.z.1.G u u G -.>.N G >.z.z.c.s.t $ X         X $ t s.c.z.z.z.z.z.z.c.k.1.N u u v 1.k.c.z.z.r =           ",
"= 4 t z.c.k.q.1.1.1.1.1.1.` v u u v E ` v v E 1.1.1.>.t , # X     X # , ..s.q.1.1.1.1.1.1.1.>.` v u u v | >.1.1.1.t , # o       ",
"r t #.z.z.q.` G G G G G G v p u u p v v p p v G G G G S r , #   X # 4 t #.1.` G G G G G G G G v p u u p N G G G G K r 5 # X     ",
"z.z.z.k.q.` v u u u u u u u u u u u u u u u u u u u h N 1.r = o # , t f.q.` v u u u u u u u u u u u u u u u u u u N E K , # o   ",
"z.c.z.q.E v p u u u u u u u u u u u u u u u u u u y h N q.r ; # 7 ( q.q.E v p u u u u u u u u u u u u u u u u u u p v S K 5 #   ",
"z.k.q.` v h u u u u u u u u u u u u u u u u u u u y h N q.r ; $ r q.r.` v h u u u u u u u u u u u u u u u u u u u u h N 1.w $   ",
"z.q.` v h u u u u u u u u u u u u u u u u u u u u u h N 1.w ; $ t q.&.v p u u u u u u u u u u u u u u u u u u u u u h N 1.r =   ",
"z.1.G u u u u u u u u u u u u u u u u u u u u u u u h v ` 8 = $ t +.T u u u u u u u u u u u u u u u u u u u u u u u h v | 8 #   ",
"z.1.G u u u u u u u u u u u u u u u u u u u u u u u h p v 1 # $ t +.T u u u u u u u u u u u u u u u u u u u u u u u h d v 1 #   ",
"-.E v u u u u u u u u u u u u u u u u u u u u u u u u h u : # $ t -.T u u u u u u u u u u u u u u u u u u u u u u u h p N 7 #   ",
"G v p u u u u u u u u u u u u u u u u u u u u u u u u h u : # $ t +.T u u u u u u u u u u u u u u u u u u u u u u u h v ` 8 $   ",
"N v p u u u u u u u u u u u u u u u u u u u u u u u h p v 1 # # w E N u u u u u u u u u u u u u u u u u u u u u u u h N q.r =   ",
">.` v u u u u u u u u u u u u u u u u u u u u u u u h v | 8 = # 7 p d u u u u u u u u u u u u u u u u u u u u u u u h N 1.r =   ",
"-.E v u u u u u u u u u u u u u u u u u u u u u u u h N 1.r ; @ 1 u d u u u u u u u u u u u u u u u u u u u u u u u h v | q $   ",
"G v p u u u u u u u u u u u u u u u u u u u u u u u u N 1.r ; @ 1 u a u u u u u u u u u u u u u u u u u u u u u u u u p N 1 #   ",
"u u u u u u u u u u u u u u u u u u u u u u u u u u h v | 8 = @ 1 u a u u u u u u u u u u u u u u u u u u u u u u u u u u < +   ",
"u u u u u u u u u u u u u u u u u u u u u u u u u u h p v 1 & @ 1 u a u u u u u u u u u u u u u u u u u u u u u u u u u u < +   ",
"G v p u u u u u u u u u u u u u u u u u u u u u u u u h h < # @ 1 u a u u u u u u u u u u u u u u u u u u u u u u u u p N 1 #   ",
"-.E v u u u u u u u u u u u u u u u u u u u u u u u u u u < # @ 1 u a u u u u u u u u u u u u u u u u u u u u u u u u v | q $   ",
"1.&.N u u u u u u u u u u u u u u u u u u u u u u u u u u < # @ 1 u a u u u u u u u u u u u u u u u u u u u u u u y h N 1.r =   ",
"N v p u u u u u u u u u u u u u u u u u u u u u u u u u u < # @ 1 u a u u u u u u u u u u u u u u u u u u u u u u y h N q.r =   ",
"u u u u u u u u u u u u u u u u u u u u u u u u u u u u u < # # 7 j d u u u u u u u u u u u u u u u u u u u u u u u h v | q $   ",
"h u u u u u u u u u u u u u u u u u u u u u u u u u u h h < # # w E N u u u u u u u u u u u u u u u u u u u u u u u u p N 6 #   ",
"N v p u u u u u u u u u u u u u u u u u u u u u u u h d v 1 # $ t +.T u u u u u u u u u u u u u u u u u u u u u u u u u u < +   ",
"1.` v u u u u u u u u u u u u u u u u u u u u u u u h v &.8 = $ r +.T u u u u u u u u u u u u u u u u u u u u u u u u u u < +   ",
"z.1.G y u u u u u u u u u u u u u u u u u u u u u u h N 1.r ; # 5 r K T T v h y y y u u u u u u u u u u u u u u u u u p N 6 #   ",
"g.1.G h h u u h h h h h h u u h h h h h h u u h h h h N 1.w = o # , r >.1.E v h h h h h h h u u u u h h h u u h h h h v E 8 #   ",
"t t S v d h h p v N N v p h h p v N N v p h h d v N N S K 5 #     # 5 ( s.q.| N N N N N N v p u u p v v p h h d v N N S K 5 #   ",
"$ , r &.v u u v &.1.1.&.v u u v | 1.1.&.v u u v &.1.1.K , # o     X # , ( s.s.1.1.1.1.1.1.` v u u N ` &.v u u v &.1.1.K , # o   ",
"X # , 8 1 < < 1 8 w w 8 1 < < 1 8 r w 8 1 < < 1 q r w 5 # X         X @ 5 w r r r r r r r 8 1 < < 1 8 8 1 < : 1 8 r w 5 @ X     ",
"  o # = & # @ & = ; ; = & @ @ & = ; ; = & @ + # $ = = # o         . X o # = ; ; ; ; ; ; ; = & # # & = = & # # # = ; ; # X       ",
"  o # $ $ # # # # $ $ # o X O # # $ $ # o                         o # $ $ # # @ @ # # # # @ @ @ @ @ @ @ @ # # $ $ $ # # o       ",
"  # 5 t t w 7 7 e t t 7 @ + - 7 w t t 7 # X                       # 5 t t w 7 1 1 7 w w 7 1 1 1 1 1 1 1 1 7 w t t t r 7 # X     ",
"= , r +.+.E j p E -.+.e * & < p E -.-.S , ; = $ # # # # o   . o # , r +.+.E j u u j E E p u u u u u u u u j E +.+.q.q.r # X     ",
"r t K T T N k d N T G 0 - - 1 p N T T T r r r 8 1 7 8 5 # X X # 5 r K T T N d a a v G N d a a a a a a a a d N T T -.q.t * o     ",
"z.1.G u u u u u u y 9 1 : : 1 7 y y u d | 1.1.| d N E K , @ o # w E N u u u u u u u u u u u u u u u u u u u u u u N ` K , # o   ",
"z.1.G u u u u u u 3 < : 1 1 < : 7 y h p v N N v p d v S K 5 # # 7 p d u u u u u u u u u u u u u u u u u u u u u u p v D K 5 #   ",
"1.` v u u u u u u 2 - - 3 7 1 < 1 3 0 h h h h h h u h N 1.w = @ 1 u h u u u u u u u u u u u u u u u u u u u u u u u h N >.w $   ",
"G v p u u u u u u 2 - - 3 0 9 1 < < 3 u u u u u u u h N 1.r ; @ 1 y h u u u u u u u u u u u u u u u u u u u u u u y u N q.r =   ",
"u u u u u u u u u 2 - - 3 h h 7 : < 3 u u u u u u u h v &.8 = # 7 d d u u u u u u u u u u u u u u u u u u u u u u y h N 1.r =   ",
"u u u u u u u u u 2 - - 3 u h y 7 7 0 u u u u u u u h d v 1 # # w E N u u u u u u u u u u u u u u u u u u u u u u y h N 1.r =   ",
"u u u u u h h y 3 1 < < 9 u u u u u u u u u u u u u u h u : # $ t +.T u u u u u u u u u u u u u u u u u u u u u u y h N 1.r =   ",
"u u u u u h u 9 < < 1 3 y u u u h h h u u u u u u u u h u < # $ t +.T u u u u u u u u u u u u u u u u u u u u u u y h N 1.r =   ",
"u u u u u y 9 1 : < 3 u u u u u u u u u u u u u u u h d v 1 # # w E N u u u u u u u u u u u u u u u u u u u u u u y h N 1.r =   ",
"u u u u u 3 < : 1 9 y u u u u u u u u u u u u u u u h v &.8 = # 7 p d u u u u u u u u u u u u u u u u u u u u u u y h N 1.r =   ",
"u u u u u 3 < < 9 u h u u u u u u u u u u u u u u u h v ` 8 = @ 1 u d u u u u u u u u u u u u u u u u u u u u u u y h N 1.r =   ",
"u u u u u 0 3 3 y h h u u u u u u u u u u u u u u u u p N 1 & @ 1 u a u u u u u u u u u u u u u u u u u u u u u u u h N 1.r =   ",
"u u u u u u u u u u u u u u u u u u u u u u u u u u u u u < # @ 1 u a u u u u u u u u u u u u u u u u u u u u u u u h v &.q #   ",
"u u u u u u u u u u u u u u u u u u u u u u u u u u u u u < # @ 1 u a u u u u u u u u u u u u u u u u u u u u u u u h p v 1 #   ",
"G v p u u u u u u u u u u u u u u u u u u u u u u u u p N 1 # O - 2 p v p u u u u u u u u u u u u u u u u u u u u u u h u < +   ",
"1.` v u u u u u u u u u u u u u u u u u u u u u u u h v | q * X O : e ` v u u u u u u u u u u u u u u u u u u u u u u h u < +   ",
"z.1.G u u u u u u u u u u u u u u u u u u u u u u u h N 1.r =     = r 1.N h u u u u u u u u u u u u u u u u u u u u h p v 1 #   ",
"z.1.G u u u u u u u u u u u u u u u u u u u u u u u h N q.r =     = r 1.N h u u u u u u u u u u u u u u u u u u u u h v X.q #   ",
"r r S v p u u u u u u u u u u u u u u u u u u u u y h N 1.r =     * 8 ` v h u u u u u u u u u u u u u u u u u u u u h N 1.r =   ",
"= 4 r ` v h u u u u u u u u u u u u u u u u u u u u p G 1.r =     # 1 v p u u u u u u u u u u u u u u u u u u u u y h N 1.r =   ",
"  = r 1.N h u u u u u u u u u u u u u u u u u u u h v ` q.r =     + < u u u u u u u u u u u u u u u u u u u u u u y h N 1.r =   ",
"  = r 1.N h u u u u u u u u u u u u u u u u u u u v ` q.f.r =     + < u u u u u u u u u u u u u u u u u u u u u u y h N 1.r =   ",
"  = r q.N h y u u u u u u u u u u u y y y y u p v E q.z.c.r =     # 6 v p u u u u u u u u u u u u u u u u u u u y y u N q.r =   ",
"  $ w >.N h h h h h h h h u u h h h h h h u h v ` q.k.z.f.r %     $ q | N p u h h h u h h h u h h h h h h u h h h u h N >.w $   ",
"  # 5 K S N N N N N N v d h h p v N N N N N G ` q.z.z.s.( 5 #     = r y.| v p p v v p p v v d d v N N v p p v N N N N S K 5 #   ",
"  o # , K >.q.1.1.1.1.&.v u u v &.1.1.1.1.1.1.q.k.c.f.( , # o     = r k.y.| N v &.` G v &.E N v &.1.1.| v N ` 1.1.q.>.K , # o   ",
"    X # 5 w r r r r r q 1 < < 1 q r r r r r r r r r r 5 # X       # , r r 8 7 1 q 8 7 1 q 8 7 1 q r r 8 1 7 8 r r r w 5 # X     ",
"      X # $ = = = = = # # + + # # = = = = = = = = = $ # o         X # = = $ # # # # # # $ # # # # = = # # # $ = = = $ # o       ",
"                                                                                                                                "
};
