/* XPM */
static char *result[] = {
/* columns rows colors chars-per-pixel */
"32 32 5 1 ",
"  c #2E242F",
". c #694F62",
"X c #966C6C",
"o c #3E3546",
"O c white",
/* pixels */
"                 .......Xoooooo ",
"                 X.....X oooooo ",
"                 X.....X oo oo  ",
"                   .     oo oo  ",
"                .......         ",
"                .......X ooooo  ",
"                .......X ooooo  ",
"                .......XXoo oo  ",
"                .......XXoo  oo ",
"                X.......Xooo oo ",
"              .. .......X ooooo ",
"             ...... XX..X ooooo ",
"           .........  ..X ooo o ",
"      . X............      oooo ",
"     ... X..............XX   oo ",
"........ X...............X oo   ",
".......o ................X oooo ",
".......o.................XX ooo ",
".......o.........o.......XX o o ",
".....o oXXXXXXXXXo o.....XX o o ",
"..XXXX XXXXXXXXXXX XX..XXX  ooo ",
"XXXXX     oooooo    XXXXX  oooo ",
"ooooo   ooooooooo    oo    oo o ",
"oo  oo oooooo oooo  oooooo oooo ",
"  oooo oooooooooooo ooooooo ooo ",
"oooooo o oooooo  oo ooooooo ooo ",
"oooooo oooooooooooo ooo  ooo oo ",
"oo oooo ooo ooooooo o   oooo o  ",
"  ooooo  oooooooooo ooooooo o   ",
"ooooo   oooooooooo oooooooooo   ",
"ooooo    oooooo     ooooooo     ",
"                                "
};
