/* XPM */
static char *result[] = {
/* columns rows colors chars-per-pixel */
"32 32 5 1 ",
"  c #2E242F",
". c #3E3546",
"X c #966C6C",
"o c #694F62",
"O c white",
/* pixels */
"                                ",
"     .......     ......... ..   ",
"   .......... . ....... .. .....",
"   . ....... .  ...    ... .....",
"  . ....   . .. .......... .....",
" .. ...  ... .. .......... .....",
" ... ....... ..  ........  .... ",
" ... ....... ... ........ ......",
" .... ......  .. ..   ... ..   .",
" . ..    ..        XXX      XX  ",
" ....  XXXXX  X XXooooXXX XXoo X",
" ...  XXXooXX X ooooooooo Xoo oo",
" . . XXooooo. oXooooooooo oooooo",
" . . XXooooooooXooooooXX  oooooo",
" ... XXooooooo             XXoo ",
" .... Xooooooo               ooo",
"   .. Xooooooo                 o",
" ..   XXooooooooo    ooo   o    ",
" ....      ooooooo  oooooooooooo",
" . .. ..Xoooooooooo o oooooooooo",
" . .. ...XXooooooooo ooooooooooo",
" . .......XXo oooooo XooooooXXXo",
" ........  XX XXXXXX  XXXXXX   X",
" ....... ...                    ",
" ...... ..... ......   ......  .",
" .....  ..... .   ... ........ .",
" .... .  .... ....... .......  .",
"  .. ...  ... .....  ....  ... .",
"  . ......... ...... ......... .",
"   ..........   .... .... .... .",
"      ......  .....  ........  .",
"                                "
};
