/* XPM */
static char *result[] = {
/* columns rows colors chars-per-pixel */
"32 32 5 1 ",
"  c #2E242F",
". c #3E3546",
"X c #966C6C",
"o c #694F62",
"O c white",
/* pixels */
" ........ XooooX ooooooX ...... ",
". ...... XooooX  ooooooo ..... .",
"..  .... Xooooo  Xoo  ooX ... ..",
".... .. Xooooooo  X XoooX ... ..",
".....  XoooooooX    Xoooo .. ...",
".....  ooooooooX   XoooooX  ....",
"..   X   oooooX    oooooo   ....",
"  XXoooo  o         ooooo oX ...",
"XoooooooX            ooX  ooX  .",
"ooooooooo            X   XoooXX ",
"oo ooooooX              XXoooooX",
"oo XXooo                 ooooooo",
"ooo  Xo                  XXooooo",
"oooo                        XXoo",
"     oooo          ooooX        ",
"o  XXooooooX  XooooooooX XXooooo",
"oooooooooooooo Xoooooooooooooooo",
"ooooooX ooooooo oooooooooooooooo",
"oooooo  ooooooooXooooooo ooooooo",
"oooooo oooooooooXooooooo ooooooo",
"oo ooX ooooooooo XoooooX ooooooo",
"X ooXX XXXooooXX XXXXXX  XoooXXX",
"  XX      XXX             XXXXX ",
".   .. ...   .. ........ .     .",
"...... ........ ........ ...... ",
" ....  ........  .......  ......",
"..... .......... .......  ......",
"..... .......... .  ....  ......",
"..... ...    ...   ...... ..... ",
"..... .. ....... ........ ......",
"   .. .........   .....    .....",
"                                "
};
