/* XPM */
static char *wall23_resized[] = {
/* columns rows colors chars-per-pixel */
"128 128 59 1 ",
"  c #271F2B",
". c #281F2B",
"X c #2E242F",
"o c #2F2530",
"O c #302632",
"+ c #342936",
"@ c #3B2D37",
"# c #362C3A",
"$ c #392F3D",
"% c #3A303F",
"& c #43333D",
"* c #48363E",
"= c #3D3445",
"- c #3F3648",
"; c #443442",
": c #483745",
"> c #4C3944",
", c #4E3B4B",
"< c #543E45",
"1 c #523E4E",
"2 c #543F50",
"3 c #574046",
"4 c #584147",
"5 c #56404C",
"6 c #5D444C",
"7 c #554151",
"8 c #5B4455",
"9 c #5D4758",
"0 c #5F485B",
"q c #654A4F",
"w c #664B52",
"e c #694D52",
"r c #624A5C",
"t c #684E5F",
"y c #6E5156",
"u c #6E515D",
"i c #715356",
"p c #74555A",
"a c #7C5A5D",
"s c #674E61",
"d c #694F62",
"f c #6B5163",
"g c #715464",
"h c #775865",
"j c #7C5B66",
"k c #7D5C68",
"l c #815D5F",
"z c #825F64",
"x c #805E69",
"c c #866163",
"v c #896364",
"b c #856169",
"n c #8A656B",
"m c #8F686A",
"M c #926A6B",
"N c #996E6E",
"B c #9D706F",
"V c #996F70",
"C c #9E7170",
/* pixels */
"XXXXXXXXXXXXXXXXXXXXXXXXXXXXXXXXXXXX.XXX.XXXXXXXXXXXXXXXXXXXXXXXX.XXXXXXXXXXXXXXXXXXXXXXXXXXXXXXXXXXXXXXXXXXXXXXXXXXXXXXXXXXXXXX",
"XXXoXXXXXXoXXXoXXXXXXXXXXXXXXXXXXXXXXXXXXXXXXXXXXXXXXXXXXXXXXXXXXXXXXXXXXXXXXXXXXXXXXXXXXXXXooXXXXXXXXXXooXXXXXXXXXXXXXXXXXXXXXX",
"OOoooXXXXXoooooOOOXooOOoXXOOoOXXXOOXOXXXX.OXXXXXXXXXoXOOooX.XooXOXoOXoXXXoooXXXXXXXXXXXXXXoooooXoooXoXXooooXooOoooXXoooooooooooo",
"++++oXXXXXooO+#+#++++#+++##+#++#OX=O=X=X+=++OXXXXXXO+OX=++#X#+=o#+###+#X#+#ooXXXXXXXXXXXXXooOo#X#+####+#+#++++####+OoooOO##+##+#",
"###++ooXXXoO++$$#=##=#########=#=O=O=X====+OOXXXXXXX=+=+==o==O=O==#=+=+==O=OOoXXXXXXXXXXXXXo#=+==###=+=###=+####=#++oooOOO#+=+=#",
"===#+oXXXoo+#==============================O+OXXXXoX+===========#=#========##oXXXoXXXXXXXXX#o======#===============#+oo+========",
"===##oXXooO#===-=======================-=====XXXXoo=================#======O#XooooooXo Xoo#o===========#===========##oO+#======#",
"-===+oooO+##$=--=========##============-===+XXXOX=+O=============#+=#=O=======#OoooOOO=O#o#==========#=###+=###====#+oO##====#=#",
"--=#+OoO###===-==-=-====#+##====-=---=--=====OXXoo====----=-=====###O#O=#====##OOoOO===O=O====--=====O+#+#++###====##+o##==####+",
"-==%#OO+#======-=-=-===##OO#$===-===-==-===OXOXX===========-===+OOoooOO##=======OoOOo===============#+oooooooO+#+===+oo+#===#ooo",
"-==#+oo+#======--=-====##O+#====-==-========+XO=+===-======-====#OoooOO#======#+= OO===========-===+#OooooOoooo+#==#+oO#===##+oo",
"-==##OO+#===--==-=======###$#=-==-===---===+=OX+====-===--=-=====#+#O#++===##==OOOOOO=====-=-=-=====###o#+##++######Ooo+#==###+#",
"-==#+oO#==---======-====$#=#=====-===-=-====XXXX+=======-========O#==##=====##OOooOo===-===-==--=====#=#=##=+#+###+oooo+#====##=",
"-==%+Oo++===-=-==-===============-=-=======O=XX=========-=================#=#oOoXXO====-====-==================#+oooooo#========",
"-==##OO+#==-=-====================-=-==-====XX.=X==========================O#OooXXooO==--=-=-==================##oooooo##=======",
"-==#+oO##===-==--====#####$=====-===-======O=XXOO=o==+=o==o=========-========##OoooX====--====--================+oooo+#+========",
"====#Oo#O===-==-====$#++++#=====-====-=--===XX.OO+O#O#O#O#O=======-=--=--======XXXO=O=====-=-====--==-=--==-===O#ooO+#==========",
"===#OOo#=====-==-==$#OOooOO+#====-=-====-====XXXoOOOOOOOooO##=--==-===-=-=====O=OooO====--==-==-======-==-=-====+oo++#==========",
"===+#OOOO======-===##OOOoo++#===-===--=====OXXXXOOooOOOOOOO#===-====-=====-====o=ooo=======-====-==-=-=-=-=-===O#OO#===-========",
"====#OoO.===========###O++#===============O==o=XO##O##OOO#+##==-===-==-=-==-====ooO=O===--===--=-==-===-========+Oo+===-====#=O=",
"=====.XoOO=OO========##$#+==============XO=O==O==##==+##=##=====-=====-====-=====OXo====-===-====-======--=-====+oOO===-====#=O+",
"===#OoXXXOX==============================OOO=O====================---=-=========XOo=O=====-===--===--=-===-====O#OO##=======OOoo",
"===#=XXXX.O====-==-====================OXOOXO====================-===-=========OOoOOO========-=====--==========OOOOO=======OO+Oo",
"===#OOooO=OO====-==-===-==-=============OOo=========--======-=--===-===-=====OO=OoOOOO====--===---====--======O=OoO#O========##O",
"===OOOO+O==O====-===---====-===-==--===.=OXO======-=---=--==-===--======--===XoOOoooOO=O====-======-===-====.OOOoO.O===-======O=",
"-===OOo+O=========--===-==-==-===-=--===XOOX+======-==-====--=-====-===-=====OXXXXXoooo======--=-==-=--======OOOooO====-========",
"-==#OOO+O=======-====-========-=====-===OOX=====-=-=-====-====-====-========oooXoXXoXooo=========-=====-====OO.O.oOOO=====-=====",
"-====OOO=OO======--=-=-==-----=--===-====OXOO===-=-===--=----==----========O==OXOoooXX======-===-=-=--=-=====O=.Ooo.======-=====",
"====OOOOO=O=====--=-========--=-=======+XOO=========----=======;-========-===O=XOOoO=OO=============--=-=====O=.+oOO===========-",
"====OOoXOOO======-======================OXXXX==================================OOOXXO===========================+oO#.===========",
"===OOoX..O.OO==========================X=XX======================================oo============================OO+OO============",
"=OO=OoooO.O =OO=O=O=O=.=O=O=O+=#o=.==O=+.XX.X=O=O=O=++=+##O=####=#O=O=o===o==OOO.ooOO=O=o=o==O=O##O=O=O=O=.==OO=O.OO.=O=O=O=O=O=",
".OOOooXXXXXXX+++O+++OOOO++OOOOOO++++++OOOXXoO+++OOO+OOOO++O+oOO++OOO+OO++++@+@@OOooOO@O@+@+++@O@ooOO++++O+O+O+OooXXX@O+++++OO++O",
"OOOOooXXXXXXXXoOOOOOO+OOOOO+OO+OOOOoOoOoooXXoOOOX.OOO+oXOOOoXXOOOOOOOOOOo+oOOooooXXooOOXoOoooOooOOooOOooOOOOOOOOooooooOOOO+oOOOO",
"@@=oooXXXXXXXXoOO@@@$@@+@@$@@@@@@+#$@@++OoXXXoOO&&&&&&@@@&@@&&&&@@&@&@@O+oXXXXXXXXXXXXXXXXXXXXXX=O@@@+$#@@@@$@@@@@++OooO+@@@@@@@",
"33:=OXXXXXXXXXo@&344333333333333333333>*@oXXXoO@***4<<<<<<<1<<*<<1<<<<>*@X.X...XXXXXXXXXXXX  X &==33333333343333333&@Oo+&>333333",
"iiw4*OXX XXX XX%4qiiiiyyyiiiiiiiiiiipiq4*oXXXXX&<eippiiiyiiiiiiiiiiiiie<&O.. ..XXXXXXX.X.X.. .O*4qyiyiiyiiiiiiippie4&+O*3qipiiii",
"vcaw3@XXXXXXXX@>qacvvvcccccccccccccvvcae*oXXXX@*qlzvvvzzzzvzvzvzzvvvmzlq>@XX..ooXXXXXXXXXXXX. &*qaccvcccccccccvvvcaq*@@:qacvccvc",
"Nmci4*@+o@@@@@*4ybmmNmmmvmmmmmmmmmmMNMcpq*@XXo@<ezMMMMMMMmmMMmmMMMMMMMzp6*&@&@@@OOXXXXXO+@@@&&*6pvNNNNNMmmmmNmmvvcae<@*3ikmMMMmm",
"nnkae633<<<<<36eaknnnnnnmnnnnnnbnnnMNNMli4<@@+@*wzxMnnnxnnzmnnzmnznmMzzpe<<<<<>*&OX.XXO@*><<<<6ilMNBNNNNmnnbnnnkkay63:35ijnnnnnv",
"kkjapiiiiiiiiipphjkkkkjjjjjjjkjjkkknmNMnliq3&@@*8fxxxxxjjxjxjxjxjjjjjjhhppippie<*OX  X+*<eiiiiplvMBBBNNmnkkjkkhuw633578ruhjkkjjj",
"fgghkccbcccvcvckjggffgggfggggfggffhknMMMNvaq*@+*1sfggfggfgfgfgfgggggggghzzzvvvae>@O..o&*elzvvvvmMNMNNNmbkhggffd9>&%;58rdtggggggg",
"sdfhkvmmmmmmmmvbhfdsdddddddddddduffjbnmVNMvi<@+%10dfddddddddddddsdddsdghznMMNMzy<&X.XO&<uzMMNmmMmmmMmmmkhgdddd97=++=78dfffddddss",
"sdggknnnvvnmnnbkhddsssssddssssssssfghbnVBNvi3@+&1rdfddddssssdsssssssssggxxnnmzzw>@Xo@&>qpzxnnnnznbvcvbkjgdddds9,%Oo=50fffsssdsss",
"ssdggjkjkkkkkkhhffddssdddsdssddddfffhjknMNvi<@+%10dfdddddssdddsssdddsddghxxxxxp9;@++;12rfjxxxxjxjhhhjhhggdddfd97&OO&59dfddddsdds",
"sdddfgggggfggfgffddddddddddddddsssffffhknMvy<@+&,sdfddddddddddddddddsdddfffffft2;@+&,2rdfffffgffgggggggfdddddd95&++;7rdddddddddd",
"ddddddddtdddddddddddddddddddddsss0r000tpjlay3%@*,2sddddddddddddddddddddddddfffr,;++;1rdddddddddddddddddddddsd095:&&>7rdfdddddddd",
"dddddsssssdssssddddddddddddddss0875,,,76wye63:::,,220sddddddddddddddddddddddds0,&@+;2rffdddssssstssssssddds09775<<380sdfdddddddd",
"dddddddddddtsddsddddddddddfdfdt8,:&&$;;&:><<11,,:;;,2ssdddddddddddddddddddddfdr2;O@;1rdgfddddddddssdsddfdss21::<6eypyfsfsffssfsf",
"dddddddddddddddddddddddddddffd07:%+++@@+@@&:2991;&=:2sddfdddddddddddddddddddfd01;++;,rdffddddddddddddddfdsr2;@&<eazkjfsssssffsss",
"ddddddddddddddddddddddddddddddr7:%#+++++o+&,2rr2;&@:2rdddddddddddddddddddddgdd02;OO;2rsddddddddddddddddfddr1;+@<ivmnkffsssfsstfs",
"dddddddddddddddddddddddddddffdt8,:;&&&;&;;;2rst91::,2sddffdddfdddddddddddddddsr,&++&,rddfddddddddddddddfgdr1$O@<inMnzffssfsfffsf",
"ddddddddddddddddddddddddddddddt02222111,,122rddr9228rssddddddddddddddddddddffdr2&O+;1rdddddddddddddddddfddr2$O@<ivMnkgsssffssfss",
"ddddddddddddddddddddddddddddddddsrrr0r0rrrrsssdsrrrssddddddddddddddddddddddffd02;O+;1rddfddddddddddddddffd02;+@<ivMbkffssssffssf",
"ddddddddddddddddddddddddddddddddddddddssddssrrssssdddddddddfdddddddddddddddfddr2:=@:2rdgfdddddddddddddddddr2;=&<yzvbjffssftssfft",
"ddddddddddfdddddddddddddddddddddddfffdddfdsr9222rsdfdddddddddddddddddddddddfdds22:,22sdddddddddfdddddddddds2,>>6yjbkhffsssfsfssf",
"dddddfdddddddddddddddddddddddddddfffffffffs8,::18sddfdddddddddddddddddddddddfdsr2202ssddfddddddddddddddffst0878ruhjhgffsfsfsftsf",
"ddddddddddddddddfdddfddddddddddfdddddddfffs2;&&;2rdffdddddddddddddddddddddddddssrrsrssddddddddddddddddddfsstrrrttfffffsssfsssffs",
"ddddddddddddfddddddddddddddddddddddddddddd02;+O;,rdffdddddddddddddddddddddddsssssrssrssdddddddddddddddddsffssssstsfststfsfsfsssf",
"ddddddddddddddddddddddddddddddddddddfffgfd02;++;2sdggdddddddddddddddddddddddsss0r222rsddddddddddddddddddtfsffffffssssffsftfsffff",
"dddddddddddddddddddddddddddddddddddddddfffr2=O+;1rdgfdddddddddddddddddddsddfdds22::12sdffdddddddddddddddfsfssfffsssffsfffssfffff",
"ddddddddddddddddddddddddddddddddddssddddfd02&+O;,rddfddddddddddddddddddddddfdds2:@;;2sdffdddddddddddddddsfsfffssfsfssssssfsssssf",
"ddddddddddfdddddddddddddfddddddddddssrrrsr2,&++;,8rssssdddddddddddfdddfffffgggr2;@+&2rdffdddddddddddddddsssftfsffssfsfssfsstrrrr",
"fffdfdddddddddddddfdfffdfffdffffffds0221222;@OO@;,29ssddfffffffffffffffghjkxxjuq;@O=,rdffdddddddddddddddfsssfsfsffssfsfffstr8711",
"ffffffssddddddddddsffffffdfdfdffffs91,;;;;;@@OOO@;:29sffffffffftffffdfghxxnmmzzw<&X&,rdfdddddddddddddddddddddddfddddddddfdr91;;;",
"ddssssffdddsddddddddsfssddddddddfs07:@+OO@+OXXXXO+@:7rdffsftftftddssddghxzmMMmze*OO&,rdffddddddddddddddddddddddddddddddffdr2:;+O",
"r0rrssfsfssfddfdfdsss000rr0rrr0rrr8,;+XXXXXXXXXXXX+;,8rrrr00rrrr0rs0rrruzzzmmzlq>&O;,rdffddddddddddddfffdffdsrrssdddddfffdr1;+o.",
"2279rsffffffffffffs0971122222222221;@XX..XXXXXXXXXO@;,7772222222222,2228wyipiie<&@+;2rdgfffffffffffdfffghxhur628rsffffffffr1;+X.",
";;:,9rffffffffffffs92:;;&;;;;;;&;;;@@XXXXX.XXXXX.XX+@;;;;;;;&&&;;;;;;;;>****<***&oO;2rffffffffffffdddfgjxxzp6>:18sffffffffr1;+X.",
"O@&:2rsfffssdsddfsr7:@@++++@O@@@@++OXXXXXXXXXXXXXXXOO++++++@@@@O++@++++@&&*&&&@&oo@;2rddfddddddddddsddfhzvzi1&&;1rdffffffd01;+o.",
"XX+;,8rrrrrr0r00r08,&@XXXXXXXXXXXXXXXXXXXXXXXXXXXXXXXXXXXXXXXXXXXXXXXXXXXXXXXXXXXXO;,2rrs00000s0rrr0rssflzlq>&O&,2rrrr0rs08,;+XX",
"..X@;,222222222272,;@O.X.X.X XX X.XXXXXXXXXXXXXXXXXXXXX.X.XX XX XXX.X.XXXXX X X XXO&:,22222222,22122,22weyq4&XX@;,22222221,;@OXX",
"XXX+&;;;;;;;;;;;;;;@+XXXXXXXXXXXXXXXXXXXXXXXXXXXXXXXXXXXXXXXXX X XXX XXXXX XX XXXXo@&&;;;;&*&&&&;;;;;;:><<>&&.X@@;;;;;;;;;;@+OXX",
"XXXXO+++@@+++@@++@+XXXXXXXXXXXXXXXXXXXXXXXXXXXXOXXXXXXXXXXXXXXXXXXXXXXXXXXXXXXXXXXXOOo+@@++@@@X&++++++@+@@@@@oXooO@O@+@O@++OooXX",
"XXXXXXXXXXXXXXXXXXXXXXXXXXXXXXXXXXXXXXXXXXXXXXXXXXXXXXXXXXXXXXXXXXXXXXXXXXXXXXXXXXXXoXXXXXXXXXXXXXooXXXXXX.XXXXXXXXXXXXXXXXXXXXX",
"XXXXXXXX.X.XXX.XXXXXXXXXXXXXXXXXXXXXXXXXXXXXXXXXXXXXXXXXXXXXXXXXXXXXXXXXXXXXXXXXXXXXXXX..X XX.X.XXXoX.X.X.X..XXXXXXX.XXXX.XXXXXX",
"XXXXX.XXXXX.X.XXXXXXXXXXXXXoXXXXXXXXXXXXXOXXXXXXXXXXXXXXXXXXXXX@XXXXXXXXXXXXXXXXXXXXX.XXXXX.XXXXX.XXX.XXX.XXXXXXXXX.XXX.XXXXXXXX",
"XXXXXXXXXXXXXXXXXXXXXXXXXXXXXXXXXXXXXXXXXXXXXXXXXXXXXXXXXXXXXXXXXXXXXXXXXXXXXXXXXXXXXXXXXXXXXXXXXXXXXXXXXXXXXXXXXXXXXXXXXXXXXXXX",
"XXXXXXXXXXXXXXXXXXXXXXXXXXXXoXoXXXXXXXXXXXXXXXXXXXXXXXXXXXXXXXXXXXXXXXXXXXXXXXXXXXXXXXXXXXXXXXXXXXXXXXXXXXXXXXXXXXXXXXXXXXXXXXXX",
"XXXXXXXXXXXXXXXXXXXXXXXXoXXXXXXXXXXXXXXXXXXXXXXXXXXXXXXXXXXXXXXXXXXXXXXXXXXXXXXXXXXXXXXXXXXXXXXXXXXXXXXXXXXXXXXXXXXXXXXXXXXXXXXX",
"XXXXXXXXXXXXXXXXOXXXXXXXXXXXXXXXXXXXXXXXXXOXXXXXXXXXXXXXXXXXXXXXXXXXXXXXXXXXXOXXXXXXOXXXXXXXXXXXoXXXoXXXXXXXXXXXXXXXXXoXXXXXXXXX",
"XXXXXXXXXXXXXXXXXXXXXXXXXXXXoXXXXXXXXXXXXXXXXXXXXXXXXXXXXXXXXoXXXXXXXXXXXXXXXXXXXXXXXXXXXXXXXXXXXXXXXXXXXoXXXXoXXXXXXXXXXXXXXXXo",
"XXXXXXXXXXXXXOXXXXXXXXXXOXXXXXXXXXXXXXXXXXXXXXXXXXXXXXXXXXXXXXXXXXXXXXXXXXXXXXXXXXXXXXXXXXXXXXXXXXXXXXXXXXXXXXXXXXXXXXXXXXXXXXXX",
"XXXXXXXXXXXXXXXXXXXXXXXXXXXXXXXXXXXXXXXXXXXXXXXXXXXXXXXXXXXXXXXXXXXXXXXXXXXXXXXXXXXXXXXXXXXXXXXXXXXXXXXXXXXXXXXXXXXXXXXXXXoXXXXX",
"XXXXXXXXXXXXXXXXXXXXXXOXXXXXXXXoXXXXXXXXXXXXXXXXXXXXXXXXXXXXXXXXXXXXXXXXXXXXXXXXXXXXXXXXXXXXXXXXXXXXXXXXXXXXXXXXXXXXXooXXXXXXXoX",
"XXXXXXXXXXXOXXXXXXXXXXXXXXXXXXXXXXXXXXXXXXXXXXXXXXXXXXXXXXXXXXXXXXXXXXXXOXXXXXXXXXXOXXXXXX&.XXXXXXXXoXXXXXXXXXXXXXXXXXXXXXXXXXXX",
"XXXXXXXXXXXXXXXXXXXXXXXXXXXXXXXXXXXXXXXXXXXXXOXXXXXXXXXXXXXXXXXXXXXXXXXXXXXXXXOXXXXXXXXXXXXXXXXXXXXXXXXXXXoXoXXXXXXXXXXXXXXXXXXX",
"XXXXXXXXXXXXXXXXXXXXXXXXXXXXoXXXXXXXXXXXXXXXXXXXXXXXXXXXXXXOXXXXXXXXXXXXXXXXXXXXXXXXXXXXXXXXXXXOXXoXXXXXXXXXXXXXXXXXXXXXXooXXXXX",
"OXXXXXXXXXXXXXXXXXXXXXXXXXXXXOXXXXXXXXXXXXXXXXXXXXXXXXXXXXXXXXXXXXXXXXXXXXXXXXXXXXXXXXXXXXXXXXXXXXXXXXXXXXXXXXXXoXXXXXXXXXXXXXXX",
"XXXXXXXXXXXOXXXXXXXXXXXXXXXXXXXXXXXXXXXXXXXXXXXXXXXXXXXXXXXXXXXXXXXXXXXXXXXXXXXXXXXXXXOXXXXXXXXXXXXXXXXXXXXXXXXXXXXXXXoXXXXoXXXX",
"XXXXXXXXXXXXXXXXXXXOXXXXXXXXXXXXXXOXXXXXOXXXXXXX@XXXXXXXXXXXXXXXXXXXXXXXXXXXXXXXXXXXXXXXXXXXXXXXXXXoXXXXXXXXXXXXXXXXXXXXXXXXXXXo",
"XXXXXXXXXXXXXXXXXXXXXXXXXXXXXXXXXXXXXXXXXXXXXXOXXXXXXXXXXXXXXXXXXXXXXXXOOXXXXXXXXXXXXXXXXXXXXXXXXXXXXXXXoXXXXoXXXXoXXXXXXXXXXXXX",
"XXXXXXXXXXXXXOXXXXXXXXXXXXXXXXXXXXXXOXXXXXXXXXXXXXXXXXXXXXXXXXXXXXXXXXXXXXXXXXXXXXXXXXXXXXXXXOXXXXXXXXXXoXXXXXXXXXoXXXXXoXXXXXXX",
"XXXXXXXXXXXXXXXXXXXXXXXXXXXXXXXXXXXXXXXXXXXXXXXXoXXXXXXXXXXXXXXXXOXXXXXXXXXXXXXXXXXXXXXXXXXXXXXXXXXXXXXoXXXXXXoXXXXXXXoXXXXXXXXo",
"XXXXOXXXXXXXXXXXXXXXXXXXXOXXXXXXXXXOXXXXXXXOXXXXXXXXoXXXoXXXXXXXXXXXXXXXXXXXXXXOXXOXXXXXXXXXXXXXXXXoXXXXXXXoXXXXXoXXXXXXXXXXXXXX",
"XXXXXXXXXXXXXXXXXXXXXXXXXXXXXXXXXXXXXXXXXXXXXXXXXXXXXXXXXXXXXXXXXXXXXXXXXXXXXXXXXXXXXXXXXXXXXXXXXXXXXXXXXXXXXXXXXXXXXoXXXXXoXXXX",
"XXXOXXXXXXoXXXXXXXXXXXXoXXXXoXXXXXXXXXXXXXXXXXXXXXXXXXXoXXXXXXXXXXXXXXXXXXXXXXXXXXXXXXXXXXXXXXXXXooXXXXXXXXXXXXXXoXXXXXXXXXXXXXX",
"XXXXXXXXXXXXXXoXXXXXXXXXXXXXXXXXXXXXXXXXXXXXXXXXXXXXXXXXXXXXXXXXXXXXXXXXXXXXXXXXXXXXXXXXXXXXXXXXXXXXXXXXoXXXoXXXXXXXXXXXXXXXXXoX",
"XXXXXXXXXXoXXXXXXoXXXXXXXXXXXXXXXXXXXXXXXXXXXXXXXXoXXXXXXXXXXXXXXXXXXXXXXXXXXXXXXXoXXXoXXXXXXXXXXXXXXXXXXXXXXXXXXXXXXXXXXXXXXXXX",
"XXXXXXXXXXXXXXXXXXXXXXXXXXXXXXXXXXXXXXXXXXXXXXXXXXXXXXXXXXXXXXXXXXXXXXXXXXXXoXXXXXXXXXXXXXXXXXXXXXXXXXoXXXXoXXXXXXXXoXXXXoXXXXXX",
"XXXXXXXXXXXXXXXoXXoXXXoXXXXXoXXXXXXXXXXXXXXXXXXXXXXXXoXXXXXXXXXXXXXXXXXXoXXXXXXXXoXXXXXXXXXXXXXXXXoXXXXXXXXXXXXXXXXXXXXXXXoXXXXX",
"XXXXXXXXXoXXXXXXXXXXXXXXXXXXXXXXXXXXXXoXXXXXXXXXXXXXXXXXXXXX@XXXXXXXXXXXXXXXXXXoXXXXXXXXXXXXXXXXXXXXXXXXXXXXXXXXXXXXXXXXXXXXXXoX",
"XXXOXXXXXXXXXXXXXXXXXXXXXXXXXXXXXXXXXXXXXXXXXXXXXXXXXXXXXXXXXXXXXXXXXXXXXXXXXXXXXXXXXXXXXXXXXXXXXXXXXXXooXXXoXXooXXXXXXXXXXXXXXX",
"XXXXXXXXXXXXoXXXXXXXXXXXXXoXXXXX@XXXXXXXXXXXXXXXXXX@XXXXXXXXXXXXXXXXXXX@XXXXXXXXXXXXXXXXXXXXXXXXXXXXXXXXXXXXXXXXXXXXoXXXXXXXXXXX",
"XXXXXXXXXXXXXoXXXXXXXXXXXXXXXXXXXXXXXXXXXXXXXXXXXXXXXXXXXXXXXXXXXXXXXXXXXXXXXXoXXXXXXX@XXXXXXXXXXoXXXXXXXXXXXXXXXXXXXXXXXXXXXXXX",
"XXXXXoXXXoXXXXXXoXXXXoXXXoXXXoXXXXoXXXXXXXXXXXXXXXXXXXXXXXXXXXXoXXXXXXXXXXoXXXXXoXXXXXXXXXXXXXXXXXXXoXXXXXXooXXXXXXXXXXXoXXXoXXX",
"XXXXXXXXXXXXXXoXXXXXXXXXXXXXoXXXXXXXXXXXXXXXXXXXXXXXXXXXXXXXXXXoXXXXXXXoXXXXXXXXXXXXXXXXXXXXXX@XXXXXXXXXXXXXXXXXXXXXXXXoXXXXoXXX",
"XXXXXXXXXXoXXXXXXXoXXXXXXXXXXXXXXXXXXXXoXXXXXXXXXXXXXXXXXXXXXXXXXXXXXXXXXXXXXXXXXXXXXXXXXXXXXXXXXXXXXXXXXXXXXXXXXoXoXXXXXXXXXXXX",
"XXXXXXXXXXoXXXXXXXXoXXXXXXXXXXXXXXXXXXXXXXXXXXXXXXXXXXXXXXXXXXXXXXXXXXXXXXXXXXXXXXXXXXXXXXXXXXXXXooXXXXXXXXXXooXXXXXXXXXXXXXXXXX",
"XXXXXXXXXXXXXXXXXXXXXXXooXXXXXXXXXXXXXXXXXXXXXXXXXXXXXXXXXXXoXXXoXXXXXXXXXXXXXXXXXXXXXXXXXXXXXXXXXXXXXXXoXXXXXXXXXXXXXXXXoXXXXXX",
"XOXXXXXXXXXXXXoXoXXXXXXXXXXXXXoXXXXXXXXXXXXXXXXXXXXXXXXXXXXXXXXXXXXXXXXXXXXXXXXXXXXXXXXXXXXXXXXXXXXXXXXoXXXXXXXXXXXXoXXXXXXXXXXX",
"XXXXXXXXoXXXXXXXXXXXXoXXXXoXXXXXXXXXXXXXXXXXXXXXXXXXXXXXXXXXXXXXXXXXXXXoXXXXXXXXXXXXXXXXXXXXXXXXXXXXXXXXXXXXXXXXXXoXXXXXXXXXXXoX",
"XXXXXXXXXXoXXXXoXXXXXXXXXXXXXXXXoXXXXXXXXXoXXXX@XXXXXXX@XXXXXXXXXXXXXXXXXXXXXXXXXXXXXXXXXXXXXXXXXoXXXXXXXXXXXXXXXXXXXXXXXXXXXXXX",
"XXXXXXXXXXXXXXXXXXXXXXXXXXXXXXXoXXXXXXXXXXXXXXXXXXXXXXXXXXXoXXXXXXXXXXXXXXXXXXXXXXXXXXXXXXXXXXXXXXXXXXXXXXXXXXXXXXXXXXXoXXXXXXXX",
"XXXXXXXXXXXXXXXXXXoXXXXXXXXXXXXXXXXXXoXXXXXXXXXXXXXXXXXXXXXXXXXoXXXXXXXXXXXXXXXXXXXXXXXXXXXXXXXXXXXXoXXXXXXXXXXXXXoXXXXXXXXoXXoX",
"XXXXXXXXXXXXXXXXXXXXoXXXoXXXXXXXXXXXXXXXXXXXXXXXXXXXXXXXXXXXXXXXXXoXXXXXXXXXXXXXXXXXXXXXXXXXXXXXXXXXXXXXXXXXXXXXXXXXXXXoXXXXXXXX",
"XXXXXXXXXXXXXXXXXXXXXXXXXXXXXXXXXXXXXXXXXXXoXXoXXXXXXXXXXXoXXXXXXXXXXXXXXXXXXXXXXXXXXXXXXXX@XXXXXXXXXXXoXXXXXXXXXXXXXXXXXXXXXXXX",
"XXXXXXXXX@XXXXXXoXXXXXXXXXoXXXXoXXXXXXXXXoXXXXXXXXXXXXXXXXXXXXXXXXXoXXX@XXXXXXXXXXXXXXXXXXXXXXXXXXoXXXXXXXXXXXXXXXXXoXXXXXXXXXXo",
"XXXXXXXXXXXXXXXXXXXXoXXXXXXXXXXXXXXXXXXXXXXXXXXXXXXXXXXXXXXXXXoXXXXXXXXXXXXXXXXXXXXXXXXXXXXXXXXXXXXXXXXXXXXXXXXXXXXXXXXXXXXoXXXX",
"XXXXXXXXXXXXXoXXXXXXXXXXXXXXXXXXXXXXXXXXXXXXXXXXXXXXoXXXXXXXXXXXXXXXXXXXXXXXXXXXXXXXXXXXXXXXXXXXXXXXXXXXXXXXXXXXXoXXXXXXXXXXXXXX",
"XXXoXXXXXXXXXXXXXXXXXXXXXXXXXXXXXXXXXXXXXXXXXXXXXXXXXXXXXXXXXXXXX@XXXoXXXXXXXXXXXXXXXXXXXXXXXXXXXXXXXXXXXXXXXXXXXXXXXXXXoXoXXXXX",
"XXXXXXXXXXXXXXXXXXXXXXXXXXXXXXXXXXXXXXXXXXXXXXXXXXXXXXXXXXXXXXXXXXXXXXXXXXXXXXXoXXXXXXXXXXXXXXXXXXXXoXXXXXXXXXXXXXX@XXXXXXXXXXXX",
"XXXXXXXXXXXXoXXXXXXXXXXXXXoXXXoXXXXXXXXXXXXXXXXXXXXXXXXXXXXXXXXXXXXXXXXXXXXXXXXXXXXXXXXXXXXXXXXXoXXXXXXXXXXXXXXXXXXXXXXXXXXXXXXX",
"XXXXXXXXXXoXXXXXXXXXXXXXXXXXXXXXXXXXXXXXXXXoXXXoXXXXXXXXXXXXXXXXXXXXXXXXXoXXXXXXXXXXXXXXX@XXXXXXXXXXoXXXXXXXXXXXXXXXXXXXXXXXX@oX",
"XXXXoXXXXXXXXXXXXXXXXXXX@XXXXXXXXXXXXXXXXXXXXXXXXXXXXXXXXXXXXXXXXXXXXXXXXXXXXXXXXXXXXXXXXXXXXXXXXXXXXXXXXXXXXXXXXXXXXXXXXXXXXXXX",
"XXXXXXXXXXXXXXXXXXXXXXXXXXXXXXXXXXXXXXXXoXXXXXXXXXXoXXXXXXXXXXXXXXXXXoXXXXoXXXoXXXXXXXXXXXXXXXXXX@XXXXXXXXXXXXXXXXXXXXXXXXXXXXXX",
"XXXXXXXXXXXXXXXXXXXXXXXXXXXXXXXoXXXXXX@XXXXXXXXoXXXXXXXXXXXXXXXXXXXXXXXXXXXXXXXXXXXXXXXXXXXXXXXXXXXXXXXXXXXXXXXXXXXXXXXXXXXXXXXX",
"XXoXXXXXXXoXXXXXXXXXXXXXXXXXXXXXXXXXXXXXXXXXXXXXXXXXXXXXXXXXXXXXXXXXXXXXXXXXXXXXXXXXXXXXXXXXXXXXXXXXXoXXXXXXXXXXXXXXXXXXXXXXXXXX"
};
