/* XPM */
static char *wall03_resized[] = {
/* columns rows colors chars-per-pixel */
"128 128 63 1 ",
"  c #271F2B",
". c #281F2B",
"X c #2E242F",
"o c #30252F",
"O c #2F2531",
"+ c #302632",
"@ c #342936",
"# c #3B2D37",
"$ c #362C3B",
"% c #392F3D",
"& c #3A303E",
"* c #43333D",
"= c #48363E",
"- c #3E3545",
"; c #3F3648",
": c #443442",
"> c #483743",
", c #4C3944",
"< c #403748",
"1 c #4E3B4B",
"2 c #533E45",
"3 c #523F4E",
"4 c #533F50",
"5 c #574046",
"6 c #584147",
"7 c #56404B",
"8 c #5B434A",
"9 c #554151",
"0 c #5B4454",
"q c #5D4758",
"w c #5F485B",
"e c #61474E",
"r c #654A4F",
"t c #604753",
"y c #654A52",
"u c #694D52",
"i c #634A5C",
"p c #6B4F5D",
"a c #6E5156",
"s c #6E515D",
"d c #715356",
"f c #73545B",
"g c #78575D",
"h c #7B5A5D",
"j c #674E61",
"k c #694F62",
"l c #6C5163",
"z c #725564",
"x c #775865",
"c c #7B5B66",
"v c #7D5C68",
"b c #805D5E",
"n c #825F64",
"m c #805E69",
"M c #866164",
"N c #896364",
"B c #856169",
"V c #8B656B",
"C c #8F686B",
"Z c #926A6C",
"A c #996E6E",
"S c #9D706F",
"D c #9E7170",
/* pixels */
"XXXXXXXXXXoXXXXXXXXXoXXXXXXXXXXXX+oXXXXXXXXXXXXXXXXXXXXXXXXXXXXXXXXXXXXXXXXXXXXXXXXXXX+XXXXXXXXXXXXXXXXXXXXXXXXXXXXXXXXXXXXXXXXX",
"XXOXXXXXXXXXXXXOXXXXXXXXXXXXXXXXXXooXXXOXXXXXXXXXXXXXXXXXXXXXXXXXXXXXXXoXXXXXXXXXXXXXXXXXXXXXXXXXXXXXX+XXXXXXXXXXXXXXXXXXXXXXXX+",
"XXXXXXXXXXOXXXXXXXXXXXXXXOXXXXXXXXXXXXXXXXXXoXXXXOXXXXoXXXXXXXXXXXXXXXXXXXXXXXXXXXXXXXoXXXXXXXXXXXXXXXXXXXXXXX+XXXXXXXXXXXXoXXXX",
"XXXXXXXXXXXXXXXXoXXXXXXXXXXXXOXXXXXXXXXXXXXoXXXXXXXXXXXXXXXX+XXXXXXXXXXXXXXXXXXXXXXXXXXXXXXXXXXXXXoXXXXXXXXXXXXXXXXXXXXXXXXXXXXX",
"XXXXXOXXXXXXXXXXXXXXXXXXXXXXXXXXXXXXXXXXXXXXXXXXXXXXXXXXXXXXXXXX+XXXXXoXXXXXXXXXXXXXXXXXXXXXXXXXXXXXXXXXXXXXXXXoXXXXXXXXXXXXXXXX",
"XXXXXXXXXXXXXXXXXXXXXXXOXXOXXXXoXXXXXX+XXXXXXXXOXXOXOXXX+XXXXXXXXXXXXXo+XXXXXXXXXXXXXXXXXXXXXXXXXXXXXXXXXXXXXXXXXXXXXXXXXXXXXXXX",
"XOXoXXXXXXXXOXXXXOXXXXXXXXXXXXXXXXXXXXXXXOXXXXXXXXXXXXXXXXXXXXXXXXXXXXXXXXXXXXXXXXXXXXXoXXXXXX+XXXXXXXXXXXXXXXXXXXXXX+XXXXXXXXXX",
"XXXXXXXXXXXXXXXoXXXXXXXXXXXXXXXXXXXXXXXXXXXXXXXXXXXXXXXXXXXXXXXXXXXXXXXXXXXXXXXXXXXX+XXXXXXXXXXXXoXXXXXXXXXXX+XXoXXXXXXXXXXXXXXX",
"XXXXXXXXXXXXXXXXXXXXXXOXXXXXXXXXXXXXXXXXXXXXXXXXXXoXXXXXXXXXXXXXXXXXXXXXXXXXXXX+XXXXXXXXXXXXXXXXXXXXXXXXXXXXXXXXXXXXXXXX+XXXXXXX",
"XXXXXXXXX+XXXXXXXXXXXXXXXXXXOXXXXXXXXXXXXXXXXXXXXXXXXXXXXXXXXXX+Xo+XXXXXXXXXXXXXXXXXXXXXXXXXXXXXXXX+XXXXXXXXXXXXXXXXXXXXXXXXXXXX",
"XXXXXXXXXXXXXXOXXXXXXXXXXXXXXXXXXXXXXXXXXXXXXXXXXXXXXXXXXXXXXXXXXXXXXXXXXXXXXXXXXXXXXXXXXXXXXXXXXXXXXXXXXXXXXXXXXXXXXXXXXXXXXXXX",
"XXXXXXXXXXXXXXXXXXXoXXXXXXoXXXXXXX+XXXXXXXXXXXXXXXXXXXXXXXXXXXXXXXXXXXXXXXXXXXXXXXXXXXXXXXXXXXXXXXXXXXX+oXXXXXXXXXXX+XoXXXXXXoXX",
"XXXoXXXXXXXXXXXXXXXXXXXXXXXoXXXXXXXXXXXXXXXXXXXXXOXXXXXXXXXXXXXXXXXXXX+XXXXXXXXXXXX+XXXX+XXXXXXXXXXXXXXXXXX+XXXXXXXXXXXXXXXXXXXX",
"XOXXXXOXXXoXXXXXOXXXXXXXXXXXXXOXXXXXXXXXXXXXXXXXXXXXXXXXXXXXXXXXXXXXXXXXXXXXXXXXXXXXXXXXXXXXXXXXXXXXXXXXXXXXXXXXXXXXXXXXXXXXXXXX",
"XXXXXXXXXXXXXXXXXXXXXXXOXXXXXXXXXXXXXXXXXXXXXXXXXXXXXXXXXXXXXXXXXXXXXXXXXXXXXXXXXXXXXXXXXXXX+XXXXXXXXXXXXXXXXXXXXXXXXXXXXXXXXXXX",
"XXXXXXXXXXXXXXXXXXXXXXXXXXXXXXXXXXXXXXXX+XXXXXXXXXXXXXXXXXXXXXXXXXXXXXXXXXX+XXXXXXXXXoXXXXXXXXXXXXXXXXXXXXXXXXXXXXXXXXXXXXXX+XXX",
"XXXXXXXXXXoX.ooXXoXXXOXXXXXXXXXXXXXXXXXOXXXXXXXXXXXXXXXOXXXXXXXXXXXXXXXXXXXXXXXXXXXoXXXXXXXXXXXXXXXXXXoXXXXXXXXXXXXXXXXXXXXXXXXX",
"XXXXXXoXXXXX++.XXXXXXXXXXXXXOXXXXXXXXXXXXXXXXXXXXXXXXXXXXXXXXXXXXXXXXXXXXXXXXXXXXXXXXXXXXXXXXXoXXXXOXXXXXXXXXXXXXXXoX+XXXXXXXXoX",
"+XXXXXXXXXXX+XoXXXXXXXXXXXXXXXXXXXXXXoXXXXXXXXXXXXXXXXXXXXXXXXXXXXXXo+XXXXXXXXXXXXXXXXXXXXXXXXXXXXXXXXXXXXXXXXXX+XXXXXXXXXXXXXXX",
"XXXXXXXXXXXXXX+.XOXXXXXXXXXXXXoXOXXXXXXXXXXXXXXXXXXXoXXXXXXXXX+XXXXXXXXXXXXXoXXXXXXXXXXXXXoXXXXXXXXXXXXXXXXXXOXXXXXXXXXXXXXXXXXX",
"XXXXXXXXXXXXXXXoXXXXXOXoXXXXXXXXXXXXOXXXXXXXXXXOOXXXXXXXXXoXXXXXXXXXXXXX+XXXXXXXXXXXXXXXXXXXXXXXXXXXXXXXXXOXXXXXXXXXXXXXXXXXXXXX",
"XXXXXXXXXXXXo+XXXXXXXXXXXXXXXXXXXXXXXXXXXXXXoXXXXXXXXXXXXXXXXXXXXXXXXXXXXXXXXXXXXXXXXXXXXXXXXX+XXXXXOXXXXXXXOXXXXXXXXXXXXXXXXX+X",
"XXXXXXXX++XX+.XXXXXXXXXXXoXXXXXXXXXXXXXXXXXXXXXXXXXXXXXXXXXXXXXXXXXXXXXXXXXXXXXXXXXXXXX+XXXXXXXXOXXoXXXXXXXXXXXXXXXXXXXXXXXXXXXX",
"XXXXXXXXX.oXXXXXXXXXXXXXXXXXXXOXXoXXXXXXOXXXXXXXXXXXXXXOXXXXXXXXXXXXXXXXXXXXXXXXXXXXXXXXXXXXXXXXXXXXXXXXXXXXXXXXXXXXXXXXXXXXXXXX",
"XXXX+XXXXXXXOXXXXXOXXXXoXXXXXXXXXXXXXXXXOXXXoXXXXXXXXXXXXXXXXXXXXXXXXXXXXXXXXXXXXXXoXXXXXXXXXXXXXXXXXXOXXXXXXXXXXXXOXXXXXXXXXXXX",
"XXXXXXXXXXXXXXXXXXXXXXXXXXXXXXXXXoXXXXXXXXXXXXXXXoXXXXXXXXXXXXXXXXXXXXXXXXXXXXX+XXXXX+XXXXXXXXXXXXXXXXXXXXXXOXXXXXXXXXXXXXXoXXXO",
"XXXXXXXXXXXXXXXXXXXXXXXXXXXXXXXXXXXXXXXXXXXXXXXXXXXXXXXXXXXXXXXOXXXXXXXXXXX+XXXXXXXXXXXXXXXXXXXXXXXXXXXXXXXXXXXXXXXXOXXOXXXXXXXX",
"XXXXXXXXXoXXXXXXXXXXXXXXXOXXXXOXXXXXOXXXXXXXXXXOXXXOXXXXXXXXoXXXXXXXXXXXXXXXXXXXXXXXXXXXXXXXXXXXXXXXXXXXXXXXXXXXXOXXXXXXXXXXXXXX",
"XXXXXXXXXXXXXXXXXXXXXOXXXXOXXXXXOXXXXXXOXXXXXXXXOXXXOXXXXXXXXXXXXXXXXX+XXXoXXXXXXXoXXXXXXXXXXXoXXXXXXXoXXXXXXXXXXXXXOXXXXXXXXXXX",
"XXXoXXXXXXXXXXXXXXXXXXXXXXXXXXXXXXXXXXXXXXXXXXXXXXXXXXXXXXXXXXXXX+XXXXXXXXXXXXXXXXXXXXXXXXXXXXXXXXXXXXXXXXXOXOXXXXOXXXXXXOXXXXXX",
"XXXXXXXXOXXXXXXXXXoXXXXXXXXXXXXoXXXXXXXXXXXXXXXXXXXXoXXXXXXX+XXXXXXXXXXXXXXXXXXXXXXXXXXXoXXXXXXXXXXXOXXXXXXXXXXXXXXXXXXOXXXXXXXX",
"XXXXXXXXXXXXXXXOXXXXXXXXXXXXXXXXXXXXXXXXXoXXXXXXXXXXXXXXXXXXXXXoXXXXXXXXXXXXXXXXXXXXXXXXXXXXXXXXXXXXXXXXXXXXXXXXXXXXXXXXXXXXXXOX",
"XXXXXXXXXXXXXXXXXXXXXoXXXXXXXXXXXXXXXXXXXXXoXXXXXXXXXXXXXXXXXXXXXXXXXXXXXXXXXXXXXXXXXXXXXXXXoXXXXXXXoXXXXXXXXXXXXXXoXXXXXXXXXoXX",
"XXXXXXXXXXXXoXXXXXXXXXXXXXXX+XXXXXXXXXXXXXXXXXXXXXX+XXXXXXXXXXXXXXXXXXXXXXXXXXXXXoXXXXXXXXXXXXXXXXXXXXXXXXXXXXXXXXXXXXXXOXXXXXXX",
"XXX+XXXXXXXXXXXXXXXXXXXXXXXXXXXXXXXXXXXXXXXXXX+XXXXXXXXXXXXXXXXXXXXXXoXOXXXOXXXXXXXXXXXXXXXXXXXXOXXXOXXXXXXXXXXXXXXXXXXXXXXXOXXX",
"XXXXXXXXXXXXXXXXXXXXXXXXXXoXXXXXXXXXXXXXXXXXXXXXXXXXXXXXXXoXXXXXXOXXXXXXXXXXXXXXXXXXXOXXXOXXXXXXXXXXXXXXXXOXXXOXXXXXXXXXXXXXXXXX",
"XXXXXXXXXXXXXXXXXXXXXXXXXXXXXXXXXXXXXXXXXXXXXXXXXXXXXXXXXXXXXXXXXXXXXXXXXXXXXXXXXXXXXXXXXXXXXXXXXOXXXXXXXXXXXOXXXXXXXXOXXXXXXXXX",
"XXXXXX+XXXXXXX+XXXXXXXXXXXXXXXXXXXXXXXXXXXXXXXXXXXXXXXX+XX+XXXXXXXXXXXXXoXXXXXXOXXXXOXXXXXXXXXXXXXXXXXXXoXXXXXXXOXXXXXXXXXXXXXXX",
"XXXXXXXXXXXXXXXXXoXXXXXXXXXXoXXXXXXXXXXXXXXXXXXXXXXXXXXXXXXXXXXXXXXXXXXXOXXXXXXXXXXOXXXXXXXXXXXXXXXoXXXXXXXXXXXXXXXXXXoXXXXOXXXX",
"XXXXXXXXXXXXXXXXXXXXXXXXXXXXXXXXXXXoXX+XXXXXXXXXXXXXXXXXXXXXXXXXXXXXXXXXXXXXoXXXXXXXXXXXXoXXXXXoXXXXXXXXXXXXXXXXXXXXXXXXoXXXXXXX",
"XXXXXXXXXXXXXXXXXXXXXXXXXXXXXXoXXXXXXXXoXXXXXXXXXXXXXXXXXX+XXXXXoXXOXXXXXXXXXXXXXXXXXOXXXXXXXXXXXXXXXXXXXXXXXXXXXXXXXXXXXXOXXXXX",
"X+XXXXXXXXXXXXXXXXXXXXoXXXXXXXXXXXXXXXXXX+XXXXXXXXXXXXXXXXXXXXXXXXXXXXXXXXXXOXXXXXXXXXXXXXXXXXXXXXXXXXXOXXXXXXXXXXXXXOXXXXXXXXXX",
"XXXXXXoXXXX+XXXXXXXXXXXXXXXXXXXXXXXXXXXXXXXXXXXXXXXXXXXXXXXXXXXXXXXXXXXXXXoXXXXXXXXoXXXXoXXXXXXXOXXXXXXXXXXXXXXXXXXXXXXXXXXXXXXX",
"XXXXXXXXXXXXXXXXXXoXXXXXXXXXXXXXXXX+XXXXXXXXXXXXXXXXXXXoXXXXXXXXXXXXOXXXXXXXXXXXXXXXXXXXXXXXXXXXXXXXXXXXXXXoXXOXXOXXXXXXXXXXXXXX",
"XXXXXXXXXXXXXXXXXXXXXoXXoXXXXXXXXXXXXXXXXXXXoXXXXXXXXXXXXXXXXXXoXXXXXXXXXXXXXXXXXXXXXXXXXXXXXXXXXXXoXXXXXXXXXXXXXXXXXXXXXXXXXXXX",
"XXXXXXXXXXXXXXXXXXXXXXXXXXXXXXXXXXXXXXXXXXXXXXXXXXXXXXXoXXXXXXXXXXXXXXXXOXXXXXXXXXoXXXXXXXXXXXXXXXXXXXXXXXXXXXoXXXXXXXXoXXXXXoXX",
"XXXXXXXXXXXXXXXXXXXXXXXXXXXXXXXXXXXXXXXXXXXXXXXXXXXXXXXXXXXXXXXXXXXXXXXXXXXXXXXOXXXXXXXOXXXXXXXXXXXXXXXXXXXXXXXXXXXoXXXXXXXXXXOX",
"XXXXXXXXXXXX+XXXXXXXXXXXXXXXXXXXXXXXXXXXXX+XXXXX+XXXXXXXXXXXXXXXXXXXXXoXXXXXXXXXXXXXXXXXXXXXXXXXXXXXXXOXXXOXXXXXXXXXXXXXXOXXXXXX",
"XXXXXXXXXXXXXXoXXXXXXXXXXXXXXXXXXXXXXXXXXXXXXXXXXXXXXXXXXXXXXXXXXXOXXXoXXXXXXXXXXXXXXXXXXXXXXXXXXXXXXXXXXXXXXXXXXXXXXXXXXXXXXXXX",
"XXXXXXXXoXXXXXXXXXXXXXOXXXXXXXXXXXXXXXXXXXXXXXoXXXXXXXoXXXXXXXXXXXXXXXXXXXXXXXXXXXXXXXXXXXXXXXXXXXXXXXXXXXXXXXXXXXXXXXXXXXXXXXXX",
"XXXXXXXXXXXXXXXXXXXXXXXXXXXXXXXXXXXXXXXXXXXXXXXXXXXXXXXXXXXXXXXXoXXXXXXXXXXXXXXXXXXXXXXXXXXXXXXXXXXXXXXXXXXXXXXXXXXXXXXXXXXXXXXX",
"XXoXXXXXXXXXXXXXXXXXXXXX.XXXXXX.XXXXXXXXXoXXXXXXXXXXXXXXXXXXoXXXXXXXXXXXXXXXXXXXXX XX XXXX XX XXXXXXXXXXXXXX XXXXXXXXX XXX XXXXX",
"XXXXXXXXXXXXo.o.XXXX X.XXXX.XXXXXXXXXXXXXXXXXXXoXXXXXXXXXXXXoXXXXXXXXXXXXXXX XX XXXXXX X XX X  XXXXXXXXX XXXXX X XXXXXXXXXXXXXXX",
"XXXX+XXXXXXXooooXXXXXXXXooXXXXXXXXXXXXXXXXXXXXXoXXXXXXXXXXXXXXXXXXXXXXXXXXXXXXXoXXXXXXXXXXXXXOX XXXXXXXXXXXXXXXXXXXXXXXXXXXOXXXX",
"XXXXXXXXXXoXXXooXXX+++#@@@@@@@@@@@@@XXXXXXXXXXooXXXXXXXXXXXXXXXXXXXXXXXXXXXOoO###@+##oo##+######+OXXXXXX+O+##@+##+#++#+#+#@oOXXX",
".XXXXXXXXXXX.X.. XX+*::::::::::::::#@XXXXX XX .oXXXXXXXXX XX X XXXXX XX XXX##::::::::::::::>12,=*+X XXO##::::::::::::::::::#+XXX",
"XXX.XXXXXXXX.o.. XX#:14444444444441:#+X XX X.X..XXXXXXXXX.X.X XXXX XXXX  XX#:14494444394449tuau5:#X XXo#:144444444444444441:#OX ",
"XXoXXXXXXXXXo.ooXX@:10iiiiiiiiiiii01:@XXXXXXXXooXXXXXXXXXXooXXXXXXXXXXXXXX@:4qwwiiwiiwiwwiizcbhu,#X  o@:1qwiiiiwiwiiiwiiiw01:+XX",
"@+@++oXXXoo+*#****:>4iklkkjkkkklkki4>#@+@#@####@ooXXXXooo####@@+@@+#+#+#+##>9wjllljjjjjjjjzcVCNd2#oXX@*:4ijlljjljjjjjjjllji4>##O",
"::**@oX  .X*===22220ijllllllkllllkjq4>:::::>22,=#+X Xoo#>222,:::::::::::::>4wjllllllllllllzvCZVd2#oo#::4qjlllllllllllllllljq4>::",
"441:*XX  .+=2udgdddssklkllllkllllljiq444339tpar6:@   Xo>8uayq93344444444449qwjlllllllllljlzmCZNd1#++:14wijllllllllllllllljjjq944",
"iiq4:@X .o#2rbnNNnnngllkkkkkkkkkkkkjiiiwwwizbbbu2#X  X#,rbmbspwqwwwwwiiwwiwjjjjjljjjjljjjlzvVCNd2##:19wjjjklljjlljjjjljlljjjjwww",
"lkj4>:++@#*2anCAZZVmxlljjkkkkkkkkkkkkkkkjklzBVna6*@+@@*2ubbbmlljllkkjjjjjljjjjljjlljjljjjllcBVna7*#:4wjkjlkjjjkkjlljjkljjjljjjjj",
"zkj43>::::,0fmnCCNmmxlkjjkkkkllkkklklllkklzmmBmse,:*::,3eabfbmmmzllllllllllllljlljjljjljjjlzvnca0,11qjllllkljlkkkjjlljjljljlllll",
"lljiq433334ilccmmmcxzlkkjjjkkllkkljllllllllxxcxfi9443333258ugvBBxlllllllllljljjlkklkkkkkkkllxxxpq04qijllkkkkkkkkkkkkkkkkkkkklllk",
"kkkjiiiiiiipkllzlzlllkkkklkjkkkjjkkjjkjkjjjllllkiiijii03>*=8dMVBvlljjljjljljjlljkkjkkkkkkklllllpiiiijjjjlkkkkkkkkkkkkkkkkkklkkkk",
"kkkkkkkkjkkkkkkkjkkkjkkllzlljijjkkklkkljjlkkkkkkkkkljkw4<%*2uhMvxljjjjljjjllljjlkkkkkkkkjlljljljllpljjljkkkklkkkklkkkkkkkkkkkkkk",
"kkkklklllllkkjjjjjjkjkkzxcxfi444ijjklkkkkjkkkkkkkkllljj03>>28uasljjljljjjljjjljjkjlkljkkljjljjjjllllllljkkkkkkkkkkkkkkkkkkkkkkkk",
"kkkklllkkllkkkkkjkjkkklxmnmg21,10ikjljjkkkkjkkkkllkllljj0412,278wijljjjlljjljljlljkkkkkkjljjjljlllllljljkkkkkkkkkkkkkkkkklkklkkk",
"kkkkkkkkkkkkkkkkkkkkjkzcmnna2**:4ijjlkljljjlkkkkkkkkljjjji03>**,0ijjllljjljjljjjkkkkkkkkjjljljljjjlljlljkkkkkkkkkkkkkkkkkkkkkkkk",
"kkkkkkkkkkkkkklkkkkkjklxmnbr,*+:4iklkkkkkkkkkkkkkkkkljjljji4>&&>0ilzljlljlpjjjljkklkkkkkljljjljjiiiiijjlkkkkkkkkkkkkkkkkkkkkkkkk",
"kkkkkkkkkkkkkkkkkkkkkkkfddu2*++:3ijlllkkkjlkkkkkkkkkjjllljj01>>7yzxxzljjljljlljlkkjkkkkkjljlljjqq440ijljlkkkkkklkkkkklkkkkkkkkkk",
"lkkkkkkkkkkkkkkkkkkkkkjit22*#X+:3qjllljkkkkkkkkkkkkkkkklklkw090wfcmczlkkjjljjljlkkkkkkkkkkkklji01:>3qiklkkkkkkkkkkkkkkkkkkkkkkkk",
"kkkkkkkkkkkkklkkkkkllki4,*#+oo@:3ijlljkkkkkkkkkljlklkkkjkkkiwwpzmNCmvlkjjljlljjpkkkkkkkkkkkllli4>:::4wklkkkkkkkkkkkkkkkkkkkkkkkk",
"kkkkkkklkkkkkkkkkkkklki4:@ooo@*>4iklklkkkkkkkkkkkkkklkkkkkkjkklvVCCVczkjjljjljjlkkkkkkkkkkklljw4:@@:4wkklkkkkkkkkkkkkkkkkkkkkkkk",
"kkkkkkkkkllkkkkkkkkkkji3*+o+@*>3qikjlkjlkkklkkkkkkkkkkkkkkkkklzvVZZVclkjjjljjljjkkklkklkkkkkljw3:++:4wkllkklkkkkkkkkkkkkkkkkkkkk",
"kkkkkkkllllkkkkkkkkllji1*@+$:19qikjkjkkkkkkkkkkkkkkkkkkkkkkjkllvVZZCcljjjlljjljlkkkkkkkkkklkljw1#@@:3qklkkkkkkkkkkkkkkkkkkkkkkkk",
"kkkkkkkkkkkkkkkkkkkllki3*@@%10wjkjllljkkkkkkkkkkkkkkkkkkkkkkkllvBCCBczkkjjjlljjjkkkkkkkkkkklllw4:@+:3wkllkkkkkkkkkkkkkkkkkkkkkkk",
"kkkkkjkjjiijjkkkkkkllli4:@@*1wjljjljjlkkkkkkkkkkkkkkkkkkkkkkkklzcMnmhzllljljjlljkkkkkkkkkkklllp4:@#*3wkllkkkklkkkkkkkkkkkkkkkkkk",
"kjkklkji4444ijkkkkkzxxft>#@-4ijlljjjjkjjkkkkkkkklkkkkkkkkjjkkkpsaddfxhxzzljjjjjjjkjjkjkjjjlzxbzt>#@:3qjkkkkkkkkkkkkkjkjkjkjkkkkk",
"jjkkllj43>:14jjjkklxvvcr,@@*3wklljjjkkkkkkkkkkkkkkkkkkkkkkkkkki0848udbmvlkkjjjjjjjjjjjjjjjlzmmbu,@@*1ikkkkkkkkkkkkkkkkjkjjjjjjkj",
"kkkllji4:::>4jjkkklvBCba5#@*3illljjlkkkkkkkkkkkkkkkkkkkkkkkklli0>*=6fnVBmkkkjkljljjjjlljjllmmVnu,*@*1iklkkkkkkkkkkkkkkkkkkkkkkkk",
"zlllji43:*%>4wklllxBVCNa5##:9izzzlzzzlzlkkkkkkkkkkkkkkkllllxxlp7:##2dNCCmbzllllllllllklzllzxnnbr=*@:4jlzllkkkkkkkkklkzkzzzkklkzl",
"mnxzp44>:::14jkzxvvVZZVd5#@>0fvvmvvvvccxzkkjjjkkkjjkkklzccvvvvs0*##,dVZZBmmmmmmmmmmmmbmmxmmbbdr2=o#>tzcmzlkjjjjjkkkzzzmbmzmbmmmm",
"mVndt,::>144ijkzvBCZAANd2##=uhVVVVVVVVmcxlkjjjjjkkkkkllxvBCCCBcy=##2aNAAZCBVBVBBVVVBBBVVVVnbu8,:oo*,unnmxlkjjjjjjjkzmmBBBBBNBVVV",
"ZZnd2**:1qijjjzxMVCZAAMa2#*=uMZZZCCCCCVnxlkkjkkkklkjkllxvVCACChu,##2aMZAZCCCCCZCCCCCCCZZZCnd8:#Xoo*2unnmvlkjkkkkkkzznBCCZCCCVCCV",
"Cnbu2*+:4jlxllzxcMNNNMhr=##=rhMNVNNMNMnnxzzllzzllzlpiipsxMMNVMhr=##,rhNNNNMNNNNNNMMMNMMNNNbr2#X .oo2ubnmczzllzzzlkzmBCAAAZZZNMMM",
"ddr2*@#*tzmmmcmxgddddar5*#@*5uddddddaddggccvvvvvvvxsw070yaaddda5*#o*2uaddddddddddddddddfddr6*oX .oo=2udgcccmccmmmmmVCAASSSZNbbda",
"22,*#o#,ynCCVmmby8555===#@+#==,75522258ygnVVVVVVCVca0,===55555,-#oo#:112552231322525112766,=@+X .o+**,8uhnnCVmNnVNNCZAASDACba852",
"*#*+oX#2anCAACna8=#####@ooo+##&%###$##=8dnZZZCCCZCMa7*$@@##&##$@oooo@$######$$######$$#####@@OXXooooo#=8dnZZZZZZCCZZZAZASZbb6=##",
"oo+XXX#,rbnNNnbr,&OOo+++oXX+Xo++++OOX+#2uhMNNNNNNNhu5&oOO+++OOXOOX#o+++O++++@OO@++ooO@OO@+ooOOOOoXXXX+*,ubnNNNnNnNnNNNnNNMbr,*oX",
"+++XXX#*2rdgbdu8>%+O@+@+OoX++++O+@@+O@$>8udddddddau8=$@+@+OOXXXO+@o#@@++++@@+O@@@@+@@@@@+++@@@$OooXX++#=6uddfdddddddddadbue6:#oo",
"$@$@+X+#=,222==,&%$$$@$++O++@$$$%$$$@$%&,2222282555>&$$$$$@@+XX+@#$$$$$$%$$$$$$$#$$$$$$$$$$$$$$$@OOO@@%::,2222222=2212222,,::@@-",
"---$@++++@*%****%------$@++@$$---------%#&#%##*##$$#&------@++++@:------&:&---&-&-&&--&-::-----$@+O@$-%--%*#*#*%****#**#*#*-:---",
"---$@+++++O+++o@$--;---$@++@$----------%$@+++++oO@@$&--;;--$@++@%-------:-------:---<-----<----$@O+@@--%@+++Xo++++oo++++Xo@$$$--",
"-----@#+@@@O@+@#--;;;--%$++@--;;--------%@++@+++O@@$&-;;;--$$++@%:-;;;;-;;;;--;;<<<<-<<----<<--$@@+@$----@@++++@++oo+@+++X+@$-$+",
"----$$$$$$$@$-+---------OOO@----;;--;----$$$$$$@$$-$-------$@O@@$-<<<--<-<<-<-<-<--<<--<-<<-<-<$@O+@----$$$$$$@@-+-+-+-O-OO-O-O+",
"-----------------------++OO$$----;-;-;---$-----------------@$OO@$--<-<-----<---<--<--<-----<<<-$@++@-----------------------O+OOO",
"------------------------@+++$-------------------------------@OO@$-----<-------------------<----$@++@+-----------------------@ +O",
"-$$------<<-----------+@+++$----;-;--;-;;----;;------------$@OO@@$$%-----<--<---<--<--<--<--<-<$@+O+++-@--<----------;;;------O-",
"@@$$-----<-<<-<----@-+++OOO+@---;--;;-;---;;-;;;;--;---;---$$OOO++$$-------<<--<--<---<--<-<<--$@+OO+@-@$--<<--<---;-;-;-----+-+",
"++@$$---<------<----@OOOOO++----;--------;-------;-----;---@@OXXo+@$$--<<----------------------@@+XXO++$---<-<----;---;---------",
"O++$$---<-----<----@@+OOOO+-@----------;----------;-;-------$@OOXX+@$---<-------<--<-<<--<-<<--%@+XXXXO@$---<-------------------",
"+@@$-----<--<-------$OOO++@@----;-;--;---;-;-;-;-;-----;----$$@O+++@$--<-<-<<-<-------------<--$@+XX XO$$-<<--<-----;-;---------",
"-@$-----------<-----$OO+$-@-----;-----;----------------;-;---$$@+X++----<-<<-<-----------<--<--$-OXXXX+@------<-------------;;-;",
"---------<<----<---$@++++----------;-;--;-;---;--;-;-----------@+++@$------------<--<--<---<--<$+XO .X+@$---<----;-;------;-----",
"-------------<-<---+@OO$$-------;-;---;----;;------------------$@++$$----%--------------<--<<--$$+O XXO$$-----<-;---;--------;-;",
"-----<---<----------$+O@------------;--;-;-;-;--;;-;-----;-----$@++@$-----$$$$$-----<-<--------$@OOOXX+@$---<------;-----;-;--;-",
"----<--<-<--<--<---$@O+@---;------------;;;-----;--------;-;;--$@++$$---$$@@@@$$$--<------<--<-$@OXX X+@---<-<-----;--------;;-;",
"--<----------------$$O+$$--;-------------------------------;;--$@++@%--$$+++++@@$----<<----<<--$$OXXXX+$@-----<-;---------------",
"--<--------<---<---$@OO@$--;-;--------------------------;-;-;--$@+++$-$$@++.++@$%<-<-----<-<---@$OOXXX+@$---<-<--;-;------------",
"----<--<-<--<-<----$$+OO$---;--;-----%%$$%$$-$$$-$$--------;----@+++@$$$++o+++$$%---<<------<----@@++X+@$--------------------+--",
"------------;--;---$@OO@----;;-;---%$$$+@@$+@@@@@@O-----;--;---%$++O++$+OXO++$%-----<--<--<------$$@+++@@--<-------;;---;--+$-OO",
"-;-;-;-;-;------;---$O+$@----------$$++O++++++++OO@@$--;;------%++OOO++OOO+@%----------------------$@++@$---<<--;------;;---++OO",
";---;---;--;---;---@@OO@$----------$$++++O++O+++OO@$%--;---;---$@+OO+++++++$$------<------<--<-----@@++@$<-<---<-;-;;--;;---$O+O",
"-;-;-;---;-;-;-;---$$+O$%---;----%$$$@@@@$+$$+$+@$@$%---;--;;--%@+OO++$@+$$%----<---<--<-<----<<----@++@$--<-<---------------$$$",
";;-;----;;-;--;----@+OO@$--;;---%$@$$@$%%$$$%-$$-@$--------;---%$+O+$$$%$$%------<----<-----<-<<-;--@++@$-<<<----;--;--;-----O-+",
"---------------;---$@OO$%--;;--$$++$$--------------------;;----$+O+$$--%---------<--<----<--<--<---$@++@$<-<---<---;---;--------",
"---------------;;---$O@@%--;---$$++@%--;----------------------%$$+++$--------------<--------------$$@++@$-----<-----;-----------",
"@-$%%%$$$%$----;;--$@OO@$-------%$$$---;;-;;--------;-;;;----%%$++O+@$$----;;----<---<<-<----$@$$-$@++++@$$$----;;;--;;-;-------",
"+@@@@$@@@@$-%--;---%@+O@$--;;;--$%-$---;----;---;-----;;----$$@++OOO+$$%---<;;-;--<-<----<-$$$@@+@++++O++@@$--<<---------;------",
"+OOO+++OOO+$%------%@++@$----------------------------------%$++XXXXXO++$$---------------<---$++++O+O+OXXX+@$$--<----------------",
"OOXXXXOOXOO@$------@@O+@@----------------------------------$++XXXXXXXX+@$------------------$@++oO+OXXXXXX++@$-------------------",
"OOXXXXXXXOOO@$$$-$%$@OOO@%$$$%$$$$$-$$$$-$%%%$$-%-@$@-$%%$$$++XXXXXXXXO++%$$$%%$$$@-$$$-$$$@++.oX.XXXXXXo.++@$$$$@-$$$$---O-$+-$",
"XXXXXXXXXXXO@@@+O@@@OOOO@@@+@@@$@@@@@$@++@@$@@@@@$@+O$@@+@@++XXXXXXXXXX+++@@+$@@@@@@@@@@@@@++.+oo.XXXXXXXXX++@@@@@@$@@@@@@@@+$$+",
"XXXXXXXXXXXOOOOOOOOOOXXOOOOOOOOOOO++O+OOOOOOOOOOOOOOOO+O++++XXXXXXXXXXXO+++++++++++++++++++++Xo.oXXXXXXXXXXo++++++++++++O@OOOO++",
"XXXXXXXXXXXXOOXXXXOOXXXXOOXXXXOOXXXXOOXXXXOOXXXXOOXXXXOOXXXXXXXXXXXXXXXXOOXXXXOOoXo++Xooo+OXXXXXXXXXXXXXXX.o+.+oXOOO+OOOOOOOOOXX",
"XXXXXXXXXXXXXOXXXXXOXXXXXOXXXXXOXXXXXXXXXXXOXXXXXOXXXXOOXXXXXXXXXXXXXXXXXXX.XXXXXo..+.o.X.+.XXXXOXXXXXXXXo+XX+.+.XO..XXO XXO  XX"
};
