/* XPM */
static char *result[] = {
/* columns rows colors chars-per-pixel */
"32 32 5 1 ",
"  c #2E242F",
". c #3E3546",
"X c #966C6C",
"o c #694F62",
"O c white",
/* pixels */
"                                ",
".  ........  .....  ......      ",
". .... .... ....   ..........   ",
". ......... ...... ......... .  ",
". ...  ....  ..... ...  ... ..  ",
".  ....... ....... ....  . .... ",
". ........ ...   . .....  ..... ",
".  ......   ...... ..... ...... ",
"                    ... ....... ",
"X   XXXXXX  XXXXXX XX  ........ ",
"oXXXooooooX oooooo oXX....... . ",
"ooooooooooo oooooooooXX... .. . ",
"oooooooooo o ooooooooooX.. .. . ",
"oooooooooooo  ooooooo      .... ",
"    o   ooo    oooooooooXX   .. ",
"o                 oooooooX ..   ",
"ooo               oooooooX .... ",
" ooXX             oooooooXX ... ",
"oooooo  XXooooooXooooooooXX . . ",
"oooooo oooooooooXo .oooooXX . . ",
"oo ooX ooooooooo X XXooXXX  ... ",
"X ooXX XXXooooXX X  XXXXX  .... ",
"  XX      XXX        ..    .. . ",
".   .. ...   .. ..  ...... .... ",
"...... ........ ... ....... ... ",
" ....  ........  .. ....... ... ",
"..... .......... .. ...  ... .. ",
"..... .......... .. .   .... .  ",
"..... ...    ...  . ....... .   ",
"..... .. ....... . ..........   ",
"   .. .........     .......     ",
"                                "
};
