/* XPM */
static char * Y_xpm[] = {
"64 64 66 1",
" 	c #2F2530",
".	c #2E242F",
"+	c #312632",
"@	c #332833",
"#	c #302631",
"$	c #322732",
"%	c #2F252F",
"&	c #312631",
"*	c #2D232E",
"=	c #48363E",
"-	c #43333C",
";	c #312732",
">	c #2F2632",
",	c #392C37",
"'	c #805D5E",
")	c #6B4E52",
"!	c #3D303D",
"~	c #332835",
"{	c #4F3C4B",
"]	c #644B58",
"^	c #76565C",
"/	c #90686C",
"(	c #7E5B60",
"_	c #594249",
":	c #3B2E3A",
"<	c #463544",
"[	c #5E4758",
"}	c #755767",
"|	c #856169",
"1	c #7B5A60",
"2	c #7C5A5F",
"3	c #75555B",
"4	c #634A57",
"5	c #664D5F",
"6	c #6D5264",
"7	c #725565",
"8	c #795964",
"9	c #7E5C60",
"0	c #674E62",
"a	c #684F63",
"b	c #6E5261",
"c	c #6A5063",
"d	c #5A4455",
"e	c #483745",
"f	c #8F676B",
"g	c #614959",
"h	c #513D4B",
"i	c #7A595F",
"j	c #8F686C",
"k	c #6B5064",
"l	c #7F5C5E",
"m	c #5F4859",
"n	c #503C47",
"o	c #705363",
"p	c #302530",
"q	c #3F3648",
"r	c #3D3445",
"s	c #88636B",
"t	c #664C59",
"u	c #392C38",
"v	c #332733",
"w	c #352C3A",
"x	c #6D5054",
"y	c #775866",
"z	c #56404D",
"A	c #4D3A44",
" ......... .................................................. ..",
".............................................................+..",
"................................................................",
"................................................................",
"................................................................",
"................................................................",
"............................................................+...",
"......... ......................................................",
"................................................................",
"................................................................",
"................................................................",
"................................................................",
" ...............................................................",
"................................................................",
"................................................................",
"..............................................................+.",
".....................................................+..........",
"................................................................",
"..............................+...........+...............+.....",
".............................. ........... ..................+..",
" ...................................................+...........",
"................................................................",
"................................................................",
"................................................................",
"................................................................",
"................................................................",
"................................................................",
"................................. ........... ..................",
".. .............................. ........... .....+......+.....",
"................................................................",
"@ #$%&#**********************...................................",
"=-;**>,-===-;****************......... .....................+...",
"')!**~{]^'')!****************.........+.........................",
"/(_-:<[}|//(_-;**************.....................+.............",
"}1234[567}}89)-**************...................................",
"07||7aaaaa07|^=**************...................................",
"ab77baaaaaab}]!**************...........................+.......",
"aaaaaaaaaaacad:**************...................................",
"aaaaaaaaaaaccd:**************......................+............",
"aaaaaaaaaaaccd:**************....+...........+..................",
"aaaaaaaaaaaacd:*************..... ........... ..........+.......",
"}7baaaaaaaaac[e:;***********....................................",
"f|700aaaaaaaa0gh:***********....................................",
"221}}7caaaaac0gh,**~--~*****....................................",
"-_ijj|70aaackge,>**-))-****....................................+",
">-)ll217baa0m{~;-=:n(i=**** ...... ........... .................",
":!-==_(|7aa[<~*-)^]go]!****p..... ........... ..................",
"qr~>>-)(8}6d:*~n1|}ca[<~;** .......................+............",
"qrr::!-_(s}d:~{go7baa0mh,**.....................................",
"qqqqqr~-)it{~:dkaaaaackge~> .... ........... ...................",
"qqqqqqr!==-~>:dkcaaaaac0[{~@....................................",
"qqqqqqqr;**;-ngcaaaaaaa6}]!u..................................+.",
"qqqqqqqr;**-)1baaaaaaa07|^=:v...................................",
"qqqqqqrw~;>=x1b0aaaaab71()-~e...................................",
"qqqqqrw~wrr!=ngaaaaaa7|2_!;>~...................................",
"qqqqrw~wrqq!>:47baaaay/l=*~~>...................................",
"qqqrw~wrqqqr>-3|7aaaay/l=~{{~...................................",
"qqqr;;rqqqqr>='/}aa5[43)e<gd:...................................",
"qqqr;;rqqqq!>='/}aa[<:-ezgad:...................................",
"qqrw~wrqqqqr~=)ibac[<:,<m66d:.............................+.....",
"qrw~wrqqqqqrr!-Agaa5[dd[5kcd:...................................",
"r:~wrqqqqqqqq!>:47baccccaccd:...... ........... ................",
"~~:rqqqqqqqqq:>-3|7aaccaaccd:...................................",
"*~rqqqqqqqqqq:>=lf}aaaaaaccd:... ........... .......... ........"};
